<svg width="28" height="29" viewBox="0 0 28 29" fill="none" xmlns="http://www.w3.org/2000/svg">
<g id="FacebookLogo">
<path id="Vector" d="M14 2.77051C11.7502 2.77051 9.551 3.43764 7.68039 4.68754C5.80978 5.93744 4.35182 7.71397 3.49088 9.79248C2.62993 11.871 2.40467 14.1581 2.84357 16.3647C3.28248 18.5712 4.36584 20.598 5.95667 22.1888C7.54749 23.7797 9.57432 24.863 11.7809 25.3019C13.9874 25.7408 16.2745 25.5156 18.353 24.6546C20.4315 23.7937 22.2081 22.3357 23.458 20.4651C24.7079 18.5945 25.375 16.3953 25.375 14.1455C25.3718 11.1296 24.1724 8.23822 22.0398 6.10569C19.9073 3.97315 17.0159 2.77369 14 2.77051ZM14.875 23.73V16.7705H17.5C17.7321 16.7705 17.9546 16.6783 18.1187 16.5142C18.2828 16.3501 18.375 16.1276 18.375 15.8955C18.375 15.6634 18.2828 15.4409 18.1187 15.2768C17.9546 15.1127 17.7321 15.0205 17.5 15.0205H14.875V12.3955C14.875 11.9314 15.0594 11.4863 15.3876 11.1581C15.7158 10.8299 16.1609 10.6455 16.625 10.6455H18.375C18.6071 10.6455 18.8296 10.5533 18.9937 10.3892C19.1578 10.2251 19.25 10.0026 19.25 9.77051C19.25 9.53844 19.1578 9.31588 18.9937 9.15179C18.8296 8.9877 18.6071 8.89551 18.375 8.89551H16.625C15.6967 8.89551 14.8065 9.26426 14.1501 9.92063C13.4938 10.577 13.125 11.4672 13.125 12.3955V15.0205H10.5C10.2679 15.0205 10.0454 15.1127 9.88129 15.2768C9.71719 15.4409 9.625 15.6634 9.625 15.8955C9.625 16.1276 9.71719 16.3501 9.88129 16.5142C10.0454 16.6783 10.2679 16.7705 10.5 16.7705H13.125V23.73C10.6584 23.5049 8.3735 22.3375 6.74564 20.4706C5.11778 18.6038 4.27227 16.1813 4.38497 13.7069C4.49768 11.2326 5.55992 8.89699 7.35074 7.18587C9.14157 5.47476 11.5231 4.51989 14 4.51989C16.4769 4.51989 18.8584 5.47476 20.6493 7.18587C22.4401 8.89699 23.5023 11.2326 23.615 13.7069C23.7277 16.1813 22.8822 18.6038 21.2544 20.4706C19.6265 22.3375 17.3416 23.5049 14.875 23.73Z" fill="#0A0A0A"/>
</g>
</svg>
