<svg width="28" height="29" viewBox="0 0 28 29" fill="none" xmlns="http://www.w3.org/2000/svg">
<g id="BehanceLogo">
<path id="Vector" d="M17.5 8.89551C17.5 8.66344 17.5922 8.44088 17.7563 8.27679C17.9204 8.1127 18.1429 8.02051 18.375 8.02051H25.375C25.6071 8.02051 25.8296 8.1127 25.9937 8.27679C26.1578 8.44088 26.25 8.66344 26.25 8.89551C26.25 9.12757 26.1578 9.35013 25.9937 9.51423C25.8296 9.67832 25.6071 9.77051 25.375 9.77051H18.375C18.1429 9.77051 17.9204 9.67832 17.7563 9.51423C17.5922 9.35013 17.5 9.12757 17.5 8.89551ZM14.875 17.4268C14.875 18.6451 14.391 19.8135 13.5295 20.675C12.668 21.5365 11.4996 22.0205 10.2812 22.0205H3.5C3.26794 22.0205 3.04538 21.9283 2.88128 21.7642C2.71719 21.6001 2.625 21.3776 2.625 21.1455V7.14551C2.625 6.91344 2.71719 6.69088 2.88128 6.52679C3.04538 6.3627 3.26794 6.27051 3.5 6.27051H9.84375C10.6806 6.2714 11.4977 6.5249 12.1882 6.99785C12.8786 7.4708 13.4102 8.14115 13.7133 8.92119C14.0165 9.70123 14.0771 10.5546 13.8872 11.3697C13.6973 12.1847 13.2659 12.9235 12.6492 13.4893C13.3284 13.8978 13.8903 14.4751 14.2803 15.1651C14.6703 15.8551 14.8752 16.6342 14.875 17.4268ZM4.375 12.833H9.84375C10.4819 12.833 11.094 12.5795 11.5452 12.1282C11.9965 11.677 12.25 11.0649 12.25 10.4268C12.25 9.78858 11.9965 9.17654 11.5452 8.72528C11.094 8.27402 10.4819 8.02051 9.84375 8.02051H4.375V12.833ZM13.125 17.4268C13.125 17.0533 13.0514 16.6835 12.9085 16.3385C12.7656 15.9935 12.5562 15.68 12.2921 15.4159C12.028 15.1519 11.7145 14.9424 11.3695 14.7995C11.0245 14.6566 10.6547 14.583 10.2812 14.583H4.375V20.2705H10.2812C10.6547 20.2705 11.0245 20.197 11.3695 20.054C11.7145 19.9111 12.028 19.7017 12.2921 19.4376C12.5562 19.1735 12.7656 18.86 12.9085 18.515C13.0514 18.17 13.125 17.8002 13.125 17.4268ZM27.125 16.7705C27.125 17.0026 27.0328 17.2251 26.8687 17.3892C26.7046 17.5533 26.4821 17.6455 26.25 17.6455H18.4844C18.6491 18.284 18.9908 18.8629 19.4702 19.3157C19.9495 19.7684 20.5471 20.0766 21.1939 20.2046C21.8407 20.3326 22.5105 20.2753 23.1262 20.0393C23.7419 19.8032 24.2784 19.3981 24.6739 18.8705C24.7429 18.7786 24.8294 18.7012 24.9283 18.6426C25.0273 18.5841 25.1367 18.5457 25.2505 18.5295C25.3644 18.5133 25.4802 18.5196 25.5916 18.5482C25.7029 18.5768 25.8075 18.627 25.8995 18.6961C25.9914 18.7651 26.0688 18.8515 26.1273 18.9505C26.1858 19.0494 26.2243 19.1589 26.2405 19.2727C26.2567 19.3865 26.2503 19.5024 26.2217 19.6137C26.1932 19.7251 26.1429 19.8297 26.0739 19.9216C25.3256 20.9186 24.247 21.6168 23.0311 21.8913C21.8151 22.1658 20.5412 21.9986 19.4371 21.4198C18.3331 20.841 17.4711 19.8882 17.0053 18.7319C16.5395 17.5757 16.5003 16.2914 16.8948 15.1089C17.2892 13.9264 18.0915 12.9228 19.1582 12.2778C20.2249 11.6327 21.4862 11.3882 22.7167 11.5881C23.9471 11.7879 25.0663 12.419 25.8739 13.3685C26.6816 14.318 27.1251 15.524 27.125 16.7705ZM25.2656 15.8955C25.0729 15.1426 24.635 14.4753 24.0211 13.9988C23.4072 13.5223 22.6521 13.2636 21.875 13.2636C21.0979 13.2636 20.3428 13.5223 19.7289 13.9988C19.115 14.4753 18.6771 15.1426 18.4844 15.8955H25.2656Z" fill="#0A0A0A"/>
</g>
</svg>
