<svg width="28" height="29" viewBox="0 0 28 29" fill="none" xmlns="http://www.w3.org/2000/svg">
<g id="DribbbleLogo">
<path id="Vector" d="M14 2.77051C11.7502 2.77051 9.551 3.43764 7.68039 4.68754C5.80978 5.93744 4.35182 7.71397 3.49088 9.79248C2.62993 11.871 2.40467 14.1581 2.84357 16.3647C3.28248 18.5712 4.36584 20.598 5.95667 22.1888C7.54749 23.7797 9.57432 24.863 11.7809 25.3019C13.9874 25.7408 16.2745 25.5156 18.353 24.6546C20.4315 23.7937 22.2081 22.3357 23.458 20.4651C24.7079 18.5945 25.375 16.3953 25.375 14.1455C25.3718 11.1296 24.1724 8.23822 22.0398 6.10569C19.9073 3.97315 17.0159 2.77369 14 2.77051ZM23.5867 13.2902C23.3082 13.2771 23.0293 13.2705 22.75 13.2705C21.1269 13.271 19.511 13.4857 17.9441 13.9093C17.5621 12.7757 17.0693 11.6825 16.473 10.6455C18.0283 9.70764 19.4362 8.54478 20.6511 7.19473C22.3368 8.80305 23.3802 10.9695 23.5867 13.2902ZM19.2806 6.10207C18.1877 7.30299 16.9244 8.33703 15.5313 9.17113C14.3644 7.52878 12.9373 6.08795 11.3061 4.90551C12.6442 4.51487 14.0512 4.41956 15.4298 4.62616C16.8084 4.83276 18.1256 5.33634 19.2905 6.10207H19.2806ZM9.36797 5.71051C11.1558 6.83641 12.7145 8.29042 13.9617 9.99582C11.7788 11.0019 9.40358 11.5221 7 11.5205C6.25819 11.5201 5.5172 11.4708 4.78188 11.3729C5.51355 8.9595 7.15927 6.92757 9.36797 5.71051ZM4.37501 14.1455C4.37496 13.7933 4.39431 13.4413 4.43297 13.0911C5.28344 13.2105 6.1412 13.2705 7 13.2705C9.74482 13.2731 12.4553 12.6601 14.9319 11.4768C15.4775 12.419 15.9285 13.413 16.2783 14.4441C15.3488 14.7933 14.4493 15.2176 13.5888 15.7129C11.188 17.0998 9.1296 19.0083 7.56547 21.2975C6.56104 20.3965 5.75778 19.2938 5.20806 18.0615C4.65833 16.8292 4.37448 15.4949 4.37501 14.1455ZM8.96875 22.3486C10.3888 20.2483 12.2679 18.4983 14.4638 17.231C15.1979 16.8073 15.964 16.4416 16.7552 16.1372C17.0259 17.3387 17.1627 18.5664 17.1631 19.798C17.1637 20.9953 17.0357 22.1893 16.7814 23.3593C15.4816 23.7519 14.1134 23.8649 12.7668 23.6907C11.4203 23.5165 10.1258 23.0591 8.96875 22.3486ZM18.7097 22.5379C18.8447 21.6326 18.9127 20.7187 18.9131 19.8035C18.913 18.3869 18.7496 16.975 18.4264 15.5958C19.8362 15.2154 21.2898 15.022 22.75 15.0205C23.0271 15.0205 23.3045 15.0274 23.5823 15.0413C23.4359 16.5913 22.9161 18.0827 22.0675 19.3881C21.219 20.6934 20.0668 21.7738 18.7097 22.5368V22.5379Z" fill="#0A0A0A"/>
</g>
</svg>
