<svg width="28" height="29" viewBox="0 0 28 29" fill="none" xmlns="http://www.w3.org/2000/svg">
<g id="InstagramLogo">
<path id="Vector" d="M14 8.89551C12.9616 8.89551 11.9466 9.20342 11.0833 9.78029C10.2199 10.3572 9.54699 11.1771 9.14963 12.1364C8.75227 13.0957 8.64831 14.1513 8.85088 15.1697C9.05345 16.1881 9.55346 17.1236 10.2877 17.8578C11.0219 18.592 11.9574 19.0921 12.9758 19.2946C13.9942 19.4972 15.0498 19.3932 16.0091 18.9959C16.9684 18.5985 17.7883 17.9256 18.3652 17.0623C18.9421 16.1989 19.25 15.1839 19.25 14.1455C19.2486 12.7536 18.695 11.419 17.7107 10.4348C16.7265 9.45054 15.3919 8.89696 14 8.89551ZM14 17.6455C13.3078 17.6455 12.6311 17.4402 12.0555 17.0557C11.4799 16.6711 11.0313 16.1244 10.7664 15.4849C10.5015 14.8454 10.4322 14.1416 10.5673 13.4627C10.7023 12.7838 11.0356 12.1601 11.5251 11.6706C12.0146 11.1812 12.6383 10.8478 13.3172 10.7128C13.9961 10.5777 14.6999 10.647 15.3394 10.9119C15.9789 11.1768 16.5256 11.6254 16.9101 12.201C17.2947 12.7766 17.5 13.4533 17.5 14.1455C17.5 15.0738 17.1313 15.964 16.4749 16.6204C15.8185 17.2768 14.9283 17.6455 14 17.6455ZM19.25 2.77051H8.75C7.12608 2.77224 5.56917 3.41811 4.42089 4.5664C3.27261 5.71468 2.62674 7.27159 2.625 8.89551V19.3955C2.62674 21.0194 3.27261 22.5763 4.42089 23.7246C5.56917 24.8729 7.12608 25.5188 8.75 25.5205H19.25C20.8739 25.5188 22.4308 24.8729 23.5791 23.7246C24.7274 22.5763 25.3733 21.0194 25.375 19.3955V8.89551C25.3733 7.27159 24.7274 5.71468 23.5791 4.5664C22.4308 3.41811 20.8739 2.77224 19.25 2.77051ZM23.625 19.3955C23.625 20.5558 23.1641 21.6686 22.3436 22.4891C21.5231 23.3096 20.4103 23.7705 19.25 23.7705H8.75C7.58968 23.7705 6.47688 23.3096 5.65641 22.4891C4.83594 21.6686 4.375 20.5558 4.375 19.3955V8.89551C4.375 7.73519 4.83594 6.62239 5.65641 5.80192C6.47688 4.98144 7.58968 4.52051 8.75 4.52051H19.25C20.4103 4.52051 21.5231 4.98144 22.3436 5.80192C23.1641 6.62239 23.625 7.73519 23.625 8.89551V19.3955ZM21 8.45801C21 8.7176 20.923 8.97135 20.7788 9.18719C20.6346 9.40303 20.4296 9.57126 20.1898 9.6706C19.9499 9.76994 19.686 9.79593 19.4314 9.74529C19.1768 9.69465 18.943 9.56964 18.7594 9.38609C18.5759 9.20253 18.4509 8.96866 18.4002 8.71406C18.3496 8.45946 18.3756 8.19556 18.4749 7.95574C18.5742 7.71591 18.7425 7.51092 18.9583 7.3667C19.1742 7.22248 19.4279 7.14551 19.6875 7.14551C20.0356 7.14551 20.3694 7.28379 20.6156 7.52993C20.8617 7.77607 21 8.10991 21 8.45801Z" fill="#0A0A0A"/>
</g>
</svg>
