<svg width="28" height="29" viewBox="0 0 28 29" fill="none" xmlns="http://www.w3.org/2000/svg">
<g id="XLogo">
<path id="Vector" d="M23.4875 23.3013L16.6406 12.541L23.3967 5.10895C23.5495 4.93671 23.6283 4.71118 23.6159 4.48127C23.6036 4.25135 23.5011 4.03558 23.3307 3.88073C23.1603 3.72587 22.9357 3.64442 22.7057 3.65403C22.4756 3.66365 22.2586 3.76354 22.1017 3.93207L15.6661 11.0108L11.2375 4.05129C11.1586 3.92699 11.0495 3.82463 10.9204 3.7537C10.7914 3.68277 10.6465 3.64555 10.4992 3.64551H5.24924C5.09236 3.64543 4.93834 3.68754 4.80331 3.76742C4.66828 3.8473 4.55721 3.96201 4.48173 4.09955C4.40626 4.23708 4.36915 4.39238 4.37429 4.54919C4.37943 4.70599 4.42664 4.85852 4.51096 4.99082L11.3578 15.75L4.60174 23.1875C4.52285 23.2723 4.46156 23.3719 4.42143 23.4805C4.38129 23.5891 4.36312 23.7046 4.36795 23.8203C4.37278 23.936 4.40053 24.0495 4.44958 24.1544C4.49864 24.2593 4.56802 24.3534 4.65371 24.4313C4.7394 24.5092 4.83969 24.5693 4.94878 24.6081C5.05786 24.6469 5.17357 24.6637 5.28919 24.6575C5.40482 24.6513 5.51805 24.6221 5.62234 24.5718C5.72663 24.5215 5.8199 24.451 5.89674 24.3644L12.3324 17.2857L16.761 24.2452C16.8406 24.3685 16.9499 24.4698 17.0789 24.5397C17.2079 24.6097 17.3525 24.646 17.4992 24.6455H22.7492C22.906 24.6455 23.0598 24.6033 23.1947 24.5235C23.3295 24.4437 23.4405 24.3291 23.5159 24.1917C23.5914 24.0544 23.6285 23.8993 23.6235 23.7426C23.6185 23.586 23.5716 23.4336 23.4875 23.3013ZM17.9794 22.8955L6.84284 5.39551H10.0147L21.1556 22.8955H17.9794Z" fill="#0A0A0A"/>
</g>
</svg>
