<svg width="32" height="33" viewBox="0 0 32 33" fill="none" xmlns="http://www.w3.org/2000/svg">
<g id="Frame" clip-path="url(#clip0_4854_83260)">
<g id="Group">
<path id="Vector" d="M15.9375 7.64551H14.6875C13.3068 7.64551 12.1875 6.52626 12.1875 5.14552V3.89552C12.1875 2.51484 13.3068 1.39553 14.6875 1.39553H15.9375C17.3182 1.39553 18.4375 2.51484 18.4375 3.89552V5.14552C18.4375 6.52626 17.3182 7.64551 15.9375 7.64551Z" stroke="#FAFAFA" stroke-width="2" stroke-miterlimit="10" stroke-linecap="round" stroke-linejoin="round"/>
<path id="Vector_2" d="M15.9375 30.8955H14.6875C13.3068 30.8955 12.1875 29.7763 12.1875 28.3955V27.1455C12.1875 25.7648 13.3068 24.6455 14.6875 24.6455H15.9375C17.3182 24.6455 18.4375 25.7648 18.4375 27.1455V28.3955C18.4375 29.7763 17.3182 30.8955 15.9375 30.8955Z" stroke="#FAFAFA" stroke-width="2" stroke-miterlimit="10" stroke-linecap="round" stroke-linejoin="round"/>
<path id="Vector_3" d="M26.875 30.8955H25.625C24.2443 30.8955 23.125 29.7763 23.125 28.3955V27.1455C23.125 25.7648 24.2443 24.6455 25.625 24.6455H26.875C28.2557 24.6455 29.375 25.7648 29.375 27.1455V28.3955C29.375 29.7763 28.2557 30.8955 26.875 30.8955Z" stroke="#FAFAFA" stroke-width="2" stroke-miterlimit="10" stroke-linecap="round" stroke-linejoin="round"/>
<path id="Vector_4" d="M4.99999 30.8955H3.74999C2.36931 30.8955 1.25 29.7763 1.25 28.3955V27.1455C1.25 25.7648 2.36931 24.6455 3.74999 24.6455H4.99999C6.38067 24.6455 7.49998 25.7648 7.49998 27.1455V28.3955C7.49998 29.7763 6.38067 30.8955 4.99999 30.8955Z" stroke="#FAFAFA" stroke-width="2" stroke-miterlimit="10" stroke-linecap="round" stroke-linejoin="round"/>
<path id="Vector_5" d="M15.25 12.3282V20.0205" stroke="#FAFAFA" stroke-width="2" stroke-miterlimit="10" stroke-linecap="round" stroke-linejoin="round"/>
<path id="Vector_6" d="M15.1875 14.3955H10.0625C6.95587 14.3955 4.4375 16.9139 4.4375 20.0205" stroke="#FAFAFA" stroke-width="2" stroke-miterlimit="10" stroke-linecap="round" stroke-linejoin="round"/>
<path id="Vector_7" d="M21.4375 14.0205C21.4375 16.2641 23.2564 18.083 25.5 18.083C27.7436 18.083 29.5625 16.2641 29.5625 14.0205C29.5625 11.7769 27.7436 9.95803 25.5 9.95803C23.2564 9.95803 21.4375 11.7769 21.4375 14.0205Z" stroke="#FAFAFA" stroke-width="2" stroke-miterlimit="10" stroke-linecap="round" stroke-linejoin="round"/>
<path id="Vector_8" d="M25.5 18.7705V20.2705" stroke="#FAFAFA" stroke-width="2" stroke-miterlimit="10" stroke-linecap="round" stroke-linejoin="round"/>
<path id="Vector_9" d="M25.5 7.77051V9.20801" stroke="#FAFAFA" stroke-width="2" stroke-miterlimit="10" stroke-linecap="round" stroke-linejoin="round"/>
<path id="Vector_10" d="M29.625 16.533L30.75 17.208" stroke="#FAFAFA" stroke-width="2" stroke-miterlimit="10" stroke-linecap="round" stroke-linejoin="round"/>
<path id="Vector_11" d="M20.125 10.8361L21.5 11.6611" stroke="#FAFAFA" stroke-width="2" stroke-miterlimit="10" stroke-linecap="round" stroke-linejoin="round"/>
<path id="Vector_12" d="M21.25 16.533L20.125 17.208" stroke="#FAFAFA" stroke-width="2" stroke-miterlimit="10" stroke-linecap="round" stroke-linejoin="round"/>
<path id="Vector_13" d="M30.75 10.8361L29.375 11.6611" stroke="#FAFAFA" stroke-width="2" stroke-miterlimit="10" stroke-linecap="round" stroke-linejoin="round"/>
</g>
</g>
<defs>
<clipPath id="clip0_4854_83260">
<rect width="32" height="32" fill="white" transform="translate(0 0.145508)"/>
</clipPath>
</defs>
</svg>
