<svg width="32" height="33" viewBox="0 0 32 33" fill="none" xmlns="http://www.w3.org/2000/svg">
<g id="Frame">
<g id="Group">
<path id="Vector" d="M11.2499 17.3955L6.25 22.3955V17.3955H3.75C2.36931 17.3955 1.25 16.2762 1.25 14.8955V4.89551C1.25 3.51482 2.36931 2.39551 3.75 2.39551H18.75C20.1307 2.39551 21.25 3.51482 21.25 4.89551V14.8955C21.25 16.2762 20.1307 17.3955 18.75 17.3955H11.2499Z" stroke="#FAFAFA" stroke-width="2" stroke-miterlimit="10" stroke-linecap="round" stroke-linejoin="round"/>
<path id="Vector_2" d="M13.5 22.3955C13.5 23.7762 14.6193 24.8955 16 24.8955H21.0001L26 29.8955V24.8955H28.25C29.6307 24.8955 30.75 23.7762 30.75 22.3955V12.3955C30.75 11.0148 29.6307 9.89551 28.25 9.89551H25.75" stroke="#FAFAFA" stroke-width="2" stroke-miterlimit="10" stroke-linecap="round" stroke-linejoin="round"/>
</g>
</g>
</svg>
