<svg width="150" height="150" viewBox="0 0 150 150" fill="none" xmlns="http://www.w3.org/2000/svg">
<rect width="150" height="150" rx="75" fill="white" fill-opacity="0.55"/>
<rect x="27" y="27" width="96" height="96" rx="48" fill="black" fill-opacity="0.11"/>
<g filter="url(#filter2_i_4854_82653)">
<path d="M95 68.0718C100.333 71.151 100.333 78.849 95 81.9282L71 95.7846C65.6667 98.8638 59 95.0148 59 88.8564L59 61.1436C59 54.9852 65.6667 51.1362 71 54.2154L95 68.0718Z" fill="#5F00E0"/>
<path d="M95 68.0718C100.333 71.151 100.333 78.849 95 81.9282L71 95.7846C65.6667 98.8638 59 95.0148 59 88.8564L59 61.1436C59 54.9852 65.6667 51.1362 71 54.2154L95 68.0718Z" fill="url(#paint0_linear_4854_82653)"/>
</g>
<path d="M95.25 82.3612C100.917 79.0896 100.917 70.9104 95.25 67.6388L71.25 53.7824C65.5833 50.5107 58.5 54.6003 58.5 61.1436L58.5 88.8564C58.5 95.3997 65.5833 99.4893 71.25 96.2176L95.25 82.3612Z" stroke="#5F00E0"/>
<path d="M68.1794 21L64.5474 9.704H67.0434L69.6994 18.392H68.7234L71.3154 9.704H73.2834L75.8754 18.392H74.9154L77.5554 9.704H80.0354L76.4034 21H74.4354L71.8274 12.312H72.7554L70.1474 21H68.1794Z" fill="#454A51"/>
<path d="M82.7602 22.1014L89.7245 12.143L91.9352 12.667L93.6427 24.6806L91.0583 24.0681L89.92 14.1626L90.8074 14.3729L85.2979 22.7029L82.7602 22.1014ZM85.7079 20.6953L86.1802 18.7025L92.1742 20.1231L91.7019 22.1159L85.7079 20.6953Z" fill="#454A51"/>
<path d="M100.092 27.5972L105.09 17.6457L107.335 18.7731L102.337 28.7246L100.092 27.5972ZM101.018 17.8746L102.002 15.9158L110.566 20.2171L109.583 22.1759L101.018 17.8746Z" fill="#454A51"/>
<path d="M111.504 35.7949C110.859 35.2532 110.351 34.639 109.98 33.9521C109.625 33.2639 109.41 32.5407 109.336 31.7825C109.27 31.0311 109.349 30.2898 109.573 29.5585C109.804 28.8191 110.183 28.1348 110.711 27.5056C111.239 26.8764 111.843 26.3882 112.525 26.0409C113.213 25.6854 113.929 25.4788 114.674 25.4213C115.418 25.3637 116.157 25.4543 116.889 25.6931C117.637 25.9305 118.334 26.3201 118.979 26.8617C119.666 27.4376 120.182 28.0588 120.528 28.725C120.882 29.3982 121.098 30.0948 121.176 30.8148L118.799 31.0341C118.776 30.597 118.659 30.1718 118.449 29.7587C118.247 29.3524 117.933 28.971 117.508 28.6144C117.133 28.299 116.73 28.073 116.302 27.9363C115.889 27.7984 115.468 27.7519 115.041 27.7968C114.621 27.8487 114.205 27.9873 113.794 28.2126C113.39 28.4448 113.02 28.761 112.684 29.1614C112.341 29.57 112.091 29.9932 111.932 30.431C111.782 30.8758 111.717 31.3092 111.739 31.7313C111.769 32.1602 111.885 32.5703 112.085 32.9616C112.294 33.3597 112.587 33.7165 112.963 34.0319C113.404 34.4021 113.846 34.6549 114.29 34.7903C114.733 34.9256 115.176 34.9701 115.619 34.9238L115.828 37.3132C115.089 37.3476 114.357 37.2488 113.633 37.0169C112.916 36.7919 112.207 36.3845 111.504 35.7949Z" fill="#454A51"/>
<path d="M118.086 42.1958L127.147 35.4503L128.647 37.4652L119.587 44.2107L118.086 42.1958ZM122.262 47.8042L131.323 41.0587L132.832 43.0865L123.771 49.832L122.262 47.8042ZM122.771 40.5836L124.516 39.2842L128.29 44.3536L126.545 45.653L122.771 40.5836Z" fill="#454A51"/>
<path d="M128.255 67.1168L138.624 60.8694L139.091 63.5165L130.669 68.3647L130.477 67.2774L140.058 68.9999L140.519 71.6156L128.63 69.244L128.255 67.1168Z" fill="#454A51"/>
<path d="M128.752 78.0044L140.029 78.6612L139.883 81.169L128.606 80.5122L128.752 78.0044Z" fill="#454A51"/>
<path d="M126.909 89.3991L129.024 90.0324L128.221 92.7148C128.025 93.3687 127.982 93.9792 128.09 94.5462C128.209 95.1162 128.479 95.609 128.9 96.0246C129.322 96.4402 129.874 96.7505 130.559 96.9554C131.244 97.1604 131.873 97.1984 132.446 97.0693C133.016 96.9505 133.507 96.6856 133.92 96.2746C134.329 95.8739 134.632 95.3465 134.827 94.6925L135.653 91.9335L137.753 92.5622L136.918 95.3519C136.673 96.1694 136.316 96.8807 135.845 97.4858C135.382 98.1041 134.828 98.5954 134.185 98.9595C133.548 99.3368 132.857 99.564 132.11 99.6411C131.37 99.7314 130.602 99.6573 129.805 99.4186C129.018 99.1831 128.335 98.8228 127.757 98.3378C127.175 97.8631 126.721 97.2984 126.393 96.6436C126.066 95.9889 125.874 95.2744 125.816 94.5C125.755 93.7358 125.846 92.9501 126.087 92.1428L126.909 89.3991ZM127.395 87.7744L138.217 91.0141L137.496 93.4206L126.675 90.1808L127.395 87.7744Z" fill="#454A51"/>
<path d="M122.578 100.317L132.361 105.965L131.105 108.141L121.322 102.493L122.578 100.317ZM121.618 101.98L123.503 103.068L120.407 108.43L118.522 107.342L121.618 101.98ZM125.706 104.34L127.521 105.388L124.705 110.265L122.89 109.217L125.706 104.34ZM129.53 106.548L131.401 107.628L128.345 112.921L126.474 111.841L129.53 106.548Z" fill="#454A51"/>
<path d="M112.543 113.393C113.129 112.773 113.779 112.301 114.494 111.978C115.202 111.663 115.936 111.491 116.698 111.462C117.459 111.432 118.198 111.55 118.915 111.816C119.64 112.089 120.301 112.507 120.898 113.071C121.504 113.642 121.96 114.278 122.267 114.978C122.574 115.678 122.735 116.402 122.749 117.148C122.771 117.902 122.641 118.638 122.36 119.356C122.08 120.088 121.647 120.765 121.061 121.385C120.483 121.998 119.84 122.462 119.132 122.777C118.425 123.107 117.694 123.283 116.94 123.305C116.187 123.342 115.448 123.224 114.723 122.951C114.006 122.685 113.345 122.266 112.74 121.695C112.142 121.132 111.686 120.496 111.371 119.788C111.064 119.088 110.9 118.361 110.878 117.607C110.864 116.86 110.997 116.121 111.277 115.388C111.55 114.663 111.972 113.999 112.543 113.393ZM114.23 114.94C113.768 115.429 113.474 115.958 113.348 116.528C113.214 117.105 113.245 117.678 113.443 118.245C113.648 118.82 114.007 119.35 114.519 119.833C114.907 120.199 115.311 120.47 115.731 120.646C116.159 120.83 116.588 120.919 117.018 120.914C117.456 120.917 117.876 120.822 118.277 120.629C118.68 120.451 119.053 120.18 119.397 119.815C119.858 119.326 120.156 118.793 120.29 118.216C120.424 117.654 120.393 117.089 120.195 116.521C120.005 115.961 119.65 115.435 119.131 114.945C118.743 114.579 118.335 114.304 117.907 114.12C117.479 113.936 117.05 113.839 116.619 113.829C116.189 113.834 115.77 113.93 115.36 114.115C114.95 114.3 114.574 114.576 114.23 114.94Z" fill="#454A51"/>
<path d="M99.427 128.598C99.9532 128.406 100.548 128.683 100.739 129.21C100.931 129.736 100.654 130.331 100.127 130.522C99.6012 130.714 99.0065 130.436 98.815 129.91C98.6234 129.384 98.9008 128.789 99.427 128.598Z" fill="#454A51"/>
<path d="M84.005 129.219L86.3011 140.861L83.822 140.571L82.1925 131.633L83.1619 131.746L79.5789 140.075L77.6242 139.846L76.0583 130.916L77.0118 131.028L73.3811 139.35L70.9178 139.062L75.8367 128.265L77.7913 128.493L79.3731 137.425L78.4514 137.317L82.0503 128.991L84.005 129.219Z" fill="#454A51"/>
<path d="M63.1847 126.98L55.1115 136.063L52.9765 135.285L52.6752 123.155L55.171 124.063L55.1517 134.034L54.2947 133.722L60.734 126.088L63.1847 126.98ZM60.0937 128.034L59.3933 129.959L53.6047 127.852L54.3052 125.928L60.0937 128.034Z" fill="#454A51"/>
<path d="M44.982 119.413L38.8627 128.717L36.7639 127.336L42.8833 118.032L44.982 119.413ZM42.9336 128.962L41.7291 130.793L33.7217 125.527L34.9263 123.695L42.9336 128.962Z" fill="#454A51"/>
<path d="M34.6064 109.946C35.1847 110.559 35.618 111.228 35.9062 111.953C36.1794 112.678 36.3087 113.421 36.2941 114.183C36.2721 114.937 36.1076 115.664 35.8005 116.365C35.4856 117.072 35.0295 117.708 34.4321 118.271C33.8347 118.835 33.1774 119.25 32.4604 119.516C31.7356 119.789 31.0001 119.911 30.254 119.882C29.5078 119.852 28.7848 119.677 28.0848 119.354C27.3698 119.032 26.7232 118.564 26.1449 117.951C25.5301 117.299 25.0895 116.623 24.8232 115.921C24.5495 115.211 24.4157 114.494 24.4217 113.77L26.8082 113.828C26.7804 114.265 26.8469 114.701 27.0078 115.135C27.1614 115.562 27.4285 115.978 27.8092 116.381C28.1459 116.738 28.519 117.009 28.9287 117.195C29.3232 117.38 29.7354 117.475 30.1654 117.48C30.588 117.477 31.017 117.387 31.4522 117.211C31.8801 117.028 32.2841 116.756 32.6643 116.398C33.0522 116.032 33.3504 115.641 33.5587 115.224C33.7597 114.8 33.8738 114.377 33.9012 113.955C33.9212 113.525 33.8543 113.105 33.7002 112.693C33.5389 112.273 33.2899 111.885 32.9532 111.528C32.5579 111.109 32.1479 110.806 31.7232 110.621C31.2985 110.435 30.8636 110.339 30.4186 110.334L30.4884 107.936C31.2263 107.988 31.9416 108.171 32.6342 108.485C33.3195 108.792 33.9769 109.279 34.6064 109.946Z" fill="#454A51"/>
<path d="M29.4077 102.741L19.6251 108.389L18.3691 106.214L28.1517 100.566L29.4077 102.741ZM25.9117 96.6861L16.1291 102.334L14.8651 100.145L24.6477 94.4968L25.9117 96.6861ZM24.5681 103.799L22.6836 104.887L19.5236 99.4136L21.4081 98.3256L24.5681 103.799Z" fill="#454A51"/>
<path d="M21.604 76.8962L10.5801 81.8976L10.4238 79.2141L19.3518 75.3765L19.416 76.4787L10.1001 73.6556L9.94564 71.0041L21.4784 74.7398L21.604 76.8962Z" fill="#454A51"/>
<path d="M22.3686 66.0151L11.2442 64.0536L11.6804 61.5798L22.8048 63.5413L22.3686 66.0151Z" fill="#454A51"/>
<path d="M25.5232 54.9169L23.4957 54.0423L24.6048 51.4713C24.8751 50.8445 24.9893 50.2432 24.9472 49.6675C24.8954 49.0875 24.6844 48.5667 24.3143 48.105C23.9443 47.6433 23.4311 47.271 22.7749 46.9879C22.1187 46.7048 21.4985 46.5941 20.9143 46.6558C20.3343 46.7076 19.8156 46.9137 19.3582 47.274C18.9049 47.6245 18.5431 48.1131 18.2727 48.74L17.132 51.3844L15.1193 50.5162L16.2727 47.8424C16.6107 47.0588 17.0485 46.3939 17.5862 45.8475C18.1184 45.2871 18.7251 44.8634 19.4065 44.5765C20.0823 44.2756 20.7956 44.1302 21.5463 44.1404C22.2914 44.1365 23.0459 44.2994 23.8099 44.6289C24.5641 44.9542 25.2003 45.3913 25.7186 45.9402C26.2412 46.4792 26.627 47.0929 26.8761 47.7812C27.1252 48.4695 27.2334 49.2015 27.2008 49.9774C27.1724 50.7435 26.9913 51.5134 26.6575 52.2871L25.5232 54.9169ZM24.8514 56.4742L14.4792 52.0001L15.4742 49.6935L25.8464 54.1676L24.8514 56.4742Z" fill="#454A51"/>
<path d="M31.0938 44.5832L22.033 37.8377L23.5331 35.8227L32.5939 42.5682L31.0938 44.5832ZM32.2403 43.0431L30.4949 41.7437L34.1925 36.7769L35.9379 38.0763L32.2403 43.0431ZM28.4543 40.2245L26.7731 38.9729L30.1363 34.4553L31.8175 35.7069L28.4543 40.2245ZM24.9121 37.5875L23.1795 36.2976L26.8294 31.395L28.562 32.6849L24.9121 37.5875Z" fill="#454A51"/>
<path d="M42.5736 32.7472C41.9199 33.2957 41.2192 33.6887 40.4716 33.9261C39.7322 34.1567 38.9827 34.2426 38.2231 34.1837C37.4636 34.1248 36.7431 33.9217 36.0618 33.5744C35.3737 33.2189 34.7656 32.7266 34.2377 32.0974C33.7029 31.46 33.3236 30.7757 33.0999 30.0444C32.8761 29.3132 32.8006 28.5759 32.8732 27.8327C32.9389 27.0813 33.1529 26.3657 33.5153 25.6857C33.8789 24.9906 34.3876 24.3689 35.0413 23.8204C35.6868 23.2787 36.3793 22.8926 37.1188 22.662C37.8595 22.4164 38.6056 22.3264 39.357 22.3922C40.1097 22.4429 40.8301 22.646 41.5183 23.0015C42.1996 23.3488 42.8076 23.8411 43.3424 24.4785C43.8704 25.1076 44.2496 25.792 44.4802 26.5314C44.7039 27.2627 44.7829 28.004 44.7172 28.7554C44.6446 29.4986 44.4265 30.2177 44.0628 30.9127C43.7073 31.6009 43.2109 32.2124 42.5736 32.7472ZM41.0784 31.015C41.5931 30.5831 41.9466 30.0916 42.1386 29.5406C42.3389 28.9827 42.3738 28.4103 42.2434 27.8235C42.1062 27.2285 41.8113 26.6613 41.3588 26.122C41.016 25.7135 40.6462 25.3972 40.2493 25.1732C39.8457 24.941 39.43 24.8024 39.0024 24.7575C38.5679 24.7043 38.1399 24.7501 37.7184 24.895C37.2982 25.0248 36.896 25.2508 36.512 25.5731C35.9972 26.005 35.6397 26.4999 35.4395 27.0578C35.2406 27.6007 35.2063 28.1656 35.3366 28.7524C35.4602 29.331 35.7516 29.8941 36.211 30.4416C36.5538 30.8501 36.9271 31.1705 37.3307 31.4027C37.7344 31.6348 38.1494 31.7809 38.5757 31.8409C39.0034 31.8859 39.4314 31.8401 39.8597 31.7034C40.2881 31.5668 40.6943 31.3373 41.0784 31.015Z" fill="#454A51"/>
<path d="M53.7989 19.3221C53.254 19.4512 52.6955 19.1067 52.5664 18.5618C52.4373 18.0169 52.7817 17.4584 53.3266 17.3293C53.8715 17.2001 54.43 17.5446 54.5592 18.0895C54.6883 18.6344 54.3439 19.1929 53.7989 19.3221Z" fill="#454A51"/>
<defs>
<filter id="filter2_i_4854_82653" x="58" y="52.1309" width="42" height="47.7383" filterUnits="userSpaceOnUse" color-interpolation-filters="sRGB">
<feFlood flood-opacity="0" result="BackgroundImageFix"/>
<feBlend mode="normal" in="SourceGraphic" in2="BackgroundImageFix" result="shape"/>
<feColorMatrix in="SourceAlpha" type="matrix" values="0 0 0 0 0 0 0 0 0 0 0 0 0 0 0 0 0 0 127 0" result="hardAlpha"/>
<feOffset dy="2"/>
<feGaussianBlur stdDeviation="1.5"/>
<feComposite in2="hardAlpha" operator="arithmetic" k2="-1" k3="1"/>
<feColorMatrix type="matrix" values="0 0 0 0 0.999537 0 0 0 0 0.999537 0 0 0 0 0.999537 0 0 0 0.72 0"/>
<feBlend mode="normal" in2="shape" result="effect1_innerShadow_4854_82653"/>
</filter>
<linearGradient id="paint0_linear_4854_82653" x1="107" y1="75" x2="43" y2="75" gradientUnits="userSpaceOnUse">
<stop offset="0.397142" stop-color="#5F00E0"/>
<stop offset="1" stop-color="#8830FF"/>
</linearGradient>
</defs>
</svg>
