<svg width="150" height="150" viewBox="0 0 150 150" fill="none" xmlns="http://www.w3.org/2000/svg">
<rect width="150" height="150" rx="75" fill="white" fill-opacity="0.55"/>
<path d="M102.503 98.4969L51.5032 47.4969C50.3954 46.3891 48.6047 46.3891 47.4969 47.4969C46.3891 48.6047 46.3891 50.3954 47.4969 51.5032L58.9067 62.9131C58.3429 63.8736 58.0001 65.0947 58.0001 66.5001V83.5001C58.0001 86.6252 60.5416 89.1667 63.6667 89.1667H73.8271L87.1636 102.503C87.7047 103.044 88.4301 103.333 89.1667 103.333C89.5322 103.333 89.9006 103.265 90.2519 103.118C91.3116 102.682 92.0001 101.645 92.0001 100.5V96.0064L98.4969 102.503C99.0494 103.056 99.7747 103.333 100.5 103.333C101.225 103.333 101.951 103.056 102.503 102.503C103.611 101.395 103.611 99.6047 102.503 98.4969Z" fill="black"/>
<path d="M91.9993 49.5001V80.6668L72.166 60.8334H73.8377L87.1544 47.4884C87.976 46.6951 89.1943 46.4401 90.2427 46.8934C91.3193 47.3184 91.9993 48.3668 91.9993 49.5001Z" fill="black"/>
</svg>
