<svg width="16" height="16" viewBox="0 0 16 16" fill="none" xmlns="http://www.w3.org/2000/svg">
<path d="M15.5 9.66602V14.666C15.5 14.8318 15.4342 14.9907 15.3169 15.108C15.1997 15.2252 15.0408 15.291 14.875 15.291H1.125C0.95924 15.291 0.800269 15.2252 0.683058 15.108C0.565848 14.9907 0.5 14.8318 0.5 14.666V9.66602C0.5 9.50026 0.565848 9.34128 0.683058 9.22407C0.800269 9.10686 0.95924 9.04102 1.125 9.04102C1.29076 9.04102 1.44973 9.10686 1.56694 9.22407C1.68415 9.34128 1.75 9.50026 1.75 9.66602V14.041H14.25V9.66602C14.25 9.50026 14.3158 9.34128 14.4331 9.22407C14.5503 9.10686 14.7092 9.04102 14.875 9.04102C15.0408 9.04102 15.1997 9.10686 15.3169 9.22407C15.4342 9.34128 15.5 9.50026 15.5 9.66602ZM7.55781 10.1082C7.61586 10.1663 7.68479 10.2124 7.76066 10.2439C7.83654 10.2753 7.91787 10.2915 8 10.2915C8.08213 10.2915 8.16346 10.2753 8.23934 10.2439C8.31521 10.2124 8.38414 10.1663 8.44219 10.1082L11.5672 6.9832C11.6253 6.92513 11.6713 6.8562 11.7027 6.78033C11.7342 6.70446 11.7503 6.62314 11.7503 6.54102C11.7503 6.45889 11.7342 6.37758 11.7027 6.30171C11.6713 6.22583 11.6253 6.1569 11.5672 6.09883C11.5091 6.04076 11.4402 5.9947 11.3643 5.96327C11.2884 5.93184 11.2071 5.91567 11.125 5.91567C11.0429 5.91567 10.9616 5.93184 10.8857 5.96327C10.8098 5.9947 10.7409 6.04076 10.6828 6.09883L8.625 8.15742V0.916016C8.625 0.750255 8.55915 0.591284 8.44194 0.474074C8.32473 0.356864 8.16576 0.291016 8 0.291016C7.83424 0.291016 7.67527 0.356864 7.55806 0.474074C7.44085 0.591284 7.375 0.750255 7.375 0.916016V8.15742L5.31719 6.09883C5.19991 5.98155 5.04085 5.91567 4.875 5.91567C4.70915 5.91567 4.55009 5.98155 4.43281 6.09883C4.31554 6.2161 4.24965 6.37516 4.24965 6.54102C4.24965 6.70687 4.31554 6.86593 4.43281 6.9832L7.55781 10.1082Z" fill="#7D40FF"/>
</svg>
