<svg width="21" height="21" viewBox="0 0 21 21" fill="none" xmlns="http://www.w3.org/2000/svg">
<g id="ArrowCircleUp">
<path id="Vector" d="M10.5 2.375C8.89303 2.375 7.32214 2.85152 5.986 3.74431C4.64985 4.6371 3.60844 5.90605 2.99348 7.3907C2.37852 8.87535 2.21762 10.509 2.53112 12.0851C2.84463 13.6612 3.61846 15.1089 4.75476 16.2452C5.89106 17.3815 7.3388 18.1554 8.9149 18.4689C10.491 18.7824 12.1247 18.6215 13.6093 18.0065C15.094 17.3916 16.3629 16.3502 17.2557 15.014C18.1485 13.6779 18.625 12.107 18.625 10.5C18.6227 8.34581 17.766 6.28051 16.2427 4.75727C14.7195 3.23403 12.6542 2.37727 10.5 2.375ZM13.4422 10.3172C13.3841 10.3753 13.3152 10.4214 13.2393 10.4528C13.1635 10.4843 13.0821 10.5005 13 10.5005C12.9179 10.5005 12.8365 10.4843 12.7607 10.4528C12.6848 10.4214 12.6159 10.3753 12.5578 10.3172L11.125 8.88359V13.625C11.125 13.7908 11.0592 13.9497 10.9419 14.0669C10.8247 14.1842 10.6658 14.25 10.5 14.25C10.3342 14.25 10.1753 14.1842 10.0581 14.0669C9.94085 13.9497 9.875 13.7908 9.875 13.625V8.88359L8.44219 10.3172C8.32492 10.4345 8.16586 10.5003 8 10.5003C7.83415 10.5003 7.67509 10.4345 7.55782 10.3172C7.44054 10.1999 7.37466 10.0409 7.37466 9.875C7.37466 9.70915 7.44054 9.55009 7.55782 9.43281L10.0578 6.93281C10.1159 6.8747 10.1848 6.8286 10.2607 6.79715C10.3365 6.7657 10.4179 6.74951 10.5 6.74951C10.5821 6.74951 10.6635 6.7657 10.7393 6.79715C10.8152 6.8286 10.8841 6.8747 10.9422 6.93281L13.4422 9.43281C13.5003 9.49086 13.5464 9.55979 13.5779 9.63566C13.6093 9.71154 13.6255 9.79287 13.6255 9.875C13.6255 9.95713 13.6093 10.0385 13.5779 10.1143C13.5464 10.1902 13.5003 10.2591 13.4422 10.3172Z" fill="white"/>
</g>
</svg>
