<svg width="22" height="30" viewBox="0 0 22 30" fill="none" xmlns="http://www.w3.org/2000/svg">
<path d="M21.9738 13.7711C21.9359 13.6109 21.8591 13.4624 21.75 13.339C21.641 13.2156 21.5032 13.121 21.3488 13.0636L14.1475 10.3624L15.98 1.19612C16.0215 0.98315 15.9926 0.762458 15.8977 0.567351C15.8028 0.372243 15.6469 0.213307 15.4538 0.114525C15.2606 0.0157439 15.0405 -0.017523 14.8267 0.0197449C14.613 0.0570127 14.4172 0.162793 14.2688 0.321124L0.268791 15.3211C0.155085 15.4409 0.0728283 15.5871 0.0293705 15.7464C-0.0140872 15.9058 -0.0173928 16.0734 0.0197494 16.2344C0.0568916 16.3953 0.133324 16.5446 0.24222 16.6688C0.351115 16.793 0.489081 16.8883 0.643791 16.9461L7.84754 19.6474L6.02004 28.8036C5.97855 29.0166 6.00745 29.2373 6.10238 29.4324C6.19732 29.6275 6.35314 29.7864 6.54632 29.8852C6.73951 29.984 6.95959 30.0173 7.17334 29.98C7.3871 29.9427 7.58293 29.837 7.73129 29.6786L21.7313 14.6786C21.8429 14.5588 21.9234 14.4134 21.9657 14.2551C22.008 14.0969 22.0108 13.9307 21.9738 13.7711ZM8.67129 25.7499L9.98004 19.2024C10.0269 18.9702 9.98977 18.7289 9.87531 18.5215C9.76085 18.3141 9.57648 18.154 9.35504 18.0699L2.75004 15.5886L13.3275 4.25612L12.02 10.8036C11.9732 11.0358 12.0103 11.2771 12.1248 11.4845C12.2392 11.6919 12.4236 11.852 12.645 11.9361L19.245 14.4111L8.67129 25.7499Z" fill="white"/>
</svg>
