<svg width="28" height="29" viewBox="0 0 28 29" fill="none" xmlns="http://www.w3.org/2000/svg">
<path d="M25.0337 3.01008C24.8982 2.89302 24.7332 2.81516 24.5567 2.7849C24.3801 2.75464 24.1987 2.77313 24.0318 2.83836L1.86591 11.5129C1.55177 11.635 1.28581 11.8559 1.10808 12.1423C0.930343 12.4287 0.850453 12.7651 0.880434 13.1008C0.910416 13.4365 1.04865 13.7534 1.27431 14.0038C1.49998 14.2542 1.80087 14.4244 2.13169 14.489L7.87497 15.6166V22.0206C7.87384 22.3694 7.9775 22.7105 8.17252 22.9997C8.36753 23.2889 8.64492 23.5129 8.96872 23.6426C9.29202 23.7746 9.64757 23.8063 9.98913 23.7335C10.3307 23.6608 10.6424 23.4869 10.8839 23.2346L13.6533 20.3624L18.0468 24.2081C18.3638 24.4892 18.7727 24.6448 19.1964 24.6456C19.3821 24.6454 19.5666 24.6163 19.7433 24.5591C20.0319 24.4675 20.2916 24.3019 20.4964 24.0787C20.7011 23.8555 20.8438 23.5826 20.9103 23.2871L25.3498 3.97368C25.3895 3.7995 25.3811 3.61779 25.3254 3.44804C25.2697 3.27829 25.1689 3.1269 25.0337 3.01008ZM18.3465 6.94758L8.54763 13.9651L3.12263 12.9009L18.3465 6.94758ZM9.62497 22.0206V16.8274L12.3364 19.2052L9.62497 22.0206ZM19.1986 22.8956L10.1554 14.9659L23.1711 5.63727L19.1986 22.8956Z" fill="#0A0A0A"/>
</svg>
