<svg width="108" height="33" viewBox="0 0 108 33" fill="none" xmlns="http://www.w3.org/2000/svg">
<path d="M9.25762 6.14551C10.1763 6.14551 11.0243 6.21688 11.8017 6.42818C12.5791 6.56952 13.2151 6.8522 13.7804 7.20554C14.3458 7.55889 14.7698 8.05357 15.0525 8.69029C15.3351 9.32561 15.4765 10.1037 15.4765 10.9517C15.4765 11.9404 15.2645 12.7891 14.7698 13.4251C14.3458 14.0604 13.6391 14.6258 12.7911 15.0498C13.9924 15.4031 14.9111 16.0384 15.4765 16.8872C16.0418 17.7352 16.3952 18.7952 16.3952 19.9966C16.3952 20.9853 16.1832 21.834 15.8298 22.5407C15.4765 23.2474 14.9111 23.8834 14.2751 24.3074C13.6391 24.7321 12.8617 25.0855 12.0137 25.2968C11.1657 25.5081 10.3177 25.6501 9.46963 25.6501H0V6.14551H9.25762ZM8.69227 14.0604C9.46963 14.0604 10.1056 13.8484 10.6003 13.4951C11.095 13.1417 11.307 12.5057 11.307 11.7283C11.307 11.3043 11.2364 10.8803 11.095 10.5976C10.9537 10.315 10.7417 10.103 10.459 9.89096C10.1763 9.74962 9.89364 9.60828 9.5403 9.53761C9.18695 9.46694 8.83361 9.46694 8.4096 9.46694H4.3108V14.0604H8.69227ZM8.90428 22.3993C9.32829 22.3993 9.75231 22.3287 10.1056 22.2587C10.459 22.1873 10.8123 22.046 11.095 21.834C11.3777 21.622 11.5897 21.41 11.8017 21.0566C11.943 20.7033 12.0844 20.2786 12.0844 19.7846C12.0844 18.7952 11.8017 18.0885 11.2364 17.5932C10.671 17.1691 9.89364 16.9578 8.97495 16.9578H4.3108V22.3993H8.90428ZM22.5434 22.3287C23.1087 22.894 23.9568 23.1767 25.0875 23.1767C25.8648 23.1767 26.5715 22.9647 27.1369 22.6114C27.7022 22.1866 28.0555 21.7633 28.1969 21.3386H31.6597C31.0943 23.0347 30.2463 24.2367 29.1156 25.0134C27.9849 25.7201 26.6422 26.1448 25.0168 26.1448C23.8861 26.1448 22.8967 25.9321 21.978 25.5787C21.0593 25.2254 20.3526 24.7314 19.7166 24.0247C19.0806 23.3887 18.5859 22.6114 18.3032 21.692C17.9499 20.7733 17.8086 19.7846 17.8086 18.6532C17.8086 17.5932 17.9499 16.6045 18.3032 15.6851C18.6566 14.7664 19.1513 13.9898 19.7873 13.2831C20.4233 12.647 21.2007 12.0817 22.0487 11.7283C22.9674 11.375 23.8861 11.163 25.0168 11.163C26.2182 11.163 27.2782 11.375 28.1969 11.8697C29.1156 12.3644 29.8223 12.9297 30.3876 13.7777C30.953 14.5551 31.377 15.4731 31.6597 16.4632C31.801 17.4525 31.8717 18.4419 31.801 19.5726H21.554C21.554 20.7033 21.978 21.7633 22.5434 22.3287ZM26.9955 14.9084C26.5008 14.4138 25.7235 14.1311 24.8048 14.1311C24.1688 14.1311 23.6741 14.2717 23.2501 14.4844C22.826 14.6964 22.5434 14.9784 22.2607 15.2618C21.978 15.5452 21.8367 15.8978 21.766 16.2512C21.6953 16.6045 21.6247 16.8865 21.6247 17.1699H27.9849C27.8435 16.1098 27.4902 15.4031 26.9955 14.9084ZM37.3132 6.14551V13.4951H37.3838C37.8785 12.647 38.5145 12.0817 39.2919 11.7283C40.0693 11.375 40.7759 11.163 41.5533 11.163C42.6133 11.163 43.4614 11.3043 44.0974 11.587C44.7334 11.8697 45.2988 12.2937 45.6521 12.7884C46.0054 13.2831 46.2881 13.9191 46.4295 14.6258C46.5708 15.3325 46.6415 16.1105 46.6415 17.0285V25.7208H42.7547V17.7352C42.7547 16.5338 42.5427 15.6858 42.1893 15.1205C41.836 14.5551 41.2 14.2724 40.2813 14.2724C39.2212 14.2724 38.4439 14.6258 38.0199 15.1918C37.5252 15.8271 37.3132 16.8872 37.3132 18.3006V25.7208H33.4264V6.14551H37.3132ZM49.4682 13.6364C49.8922 13.0004 50.3869 12.5764 51.0229 12.1517C51.659 11.7983 52.3656 11.5163 53.143 11.3743C53.9204 11.233 54.697 11.1623 55.4751 11.1623C56.1818 11.1623 56.8884 11.233 57.6665 11.3036C58.3732 11.3743 59.0799 11.5856 59.6445 11.869C60.2806 12.1509 60.7046 12.5757 61.1293 13.0704C61.4819 13.5657 61.6939 14.2724 61.6939 15.1205V22.5407C61.6939 23.1767 61.7646 23.8127 61.8353 24.3788C61.9066 24.9441 62.1172 25.4388 62.33 25.7208H58.3725C58.2304 25.5794 58.1598 25.2968 58.0898 25.0855C58.0191 24.8728 58.0191 24.5908 58.0191 24.3788C57.3831 25.0141 56.6764 25.4388 55.8284 25.7208C54.9804 26.0035 54.1324 26.0741 53.2843 26.0741C52.5776 26.0741 52.0123 26.0035 51.3763 25.7922C50.8109 25.6508 50.3162 25.3674 49.8216 25.0141C49.3975 24.6608 49.0442 24.2367 48.7615 23.6721C48.5495 23.106 48.4082 22.5407 48.4082 21.7633C48.4082 20.9853 48.5495 20.2786 48.8322 19.7846C49.1149 19.2899 49.4682 18.8659 49.8922 18.5126C50.3162 18.2306 50.8816 17.9472 51.4469 17.8059C52.0123 17.6652 52.5777 17.5239 53.2137 17.4525L54.9097 17.2405C55.4751 17.1699 55.9698 17.0992 56.3938 17.0285C56.8178 16.8872 57.1711 16.7458 57.4538 16.5338C57.7365 16.3218 57.8071 16.0391 57.8071 15.6151C57.8071 15.1911 57.7365 14.8378 57.5951 14.6258C57.4538 14.4138 57.2418 14.2018 57.0298 14.0604C56.8171 13.9191 56.5351 13.8484 56.2524 13.7785C55.9698 13.7071 55.6164 13.7071 55.2631 13.7071C54.4857 13.7071 53.9204 13.8484 53.4963 14.2018C53.0723 14.5551 52.7897 15.1205 52.719 15.8271H48.8322C48.8322 14.9791 49.1149 14.2018 49.4682 13.6364ZM57.1704 19.1486C56.9591 19.2192 56.6764 19.2899 56.3931 19.3606C56.1104 19.432 55.8277 19.432 55.4744 19.5019C55.1924 19.5726 54.8391 19.5726 54.5557 19.6433L53.7076 19.8553C53.425 19.9259 53.1423 20.0673 53.001 20.2086C52.7889 20.35 52.6476 20.562 52.5063 20.774C52.295 21.0566 52.295 21.3393 52.295 21.6927C52.295 22.046 52.3656 22.3287 52.507 22.5407C52.6483 22.7527 52.7897 22.9654 53.0017 23.106C53.2137 23.2474 53.4963 23.3188 53.779 23.3887C54.0617 23.4587 54.3437 23.4594 54.697 23.4594C55.4751 23.4594 56.0397 23.3188 56.4637 23.106C56.8885 22.8241 57.1704 22.5407 57.3831 22.1873C57.5951 21.834 57.7365 21.4807 57.7365 21.1273C57.8071 20.774 57.8071 20.492 57.8071 20.2793V18.7952C57.5951 18.9366 57.3831 19.0786 57.1704 19.1486ZM67.5602 11.5163V13.4951H67.6308C68.1248 12.647 68.7615 12.0817 69.5382 11.7283C70.3162 11.375 71.1643 11.163 71.9409 11.163C73.001 11.163 73.849 11.3043 74.485 11.587C75.1917 11.8697 75.6871 12.2937 76.0404 12.7884C76.3938 13.2831 76.6757 13.9191 76.8877 14.6258C77.0291 15.3325 77.1005 16.1105 77.1005 17.0285V25.7208H73.2137V17.7352C73.2137 16.5338 73.001 15.6858 72.6476 15.1205C72.2943 14.5551 71.6582 14.2018 70.6689 14.2018C69.6088 14.2018 68.8308 14.6258 68.3368 15.2618C67.8421 15.8978 67.6301 16.9578 67.6301 18.3712V25.7915H63.7433V11.5163H67.5602ZM85.7913 14.0604C85.156 14.0604 84.6606 14.2018 84.2373 14.4851C83.8133 14.7671 83.4599 15.1205 83.1773 15.6158C82.8946 16.0399 82.7533 16.5345 82.6112 17.0999C82.4706 17.6659 82.4706 18.1599 82.4706 18.726C82.4706 19.22 82.5413 19.786 82.6112 20.28C82.7533 20.846 82.8939 21.2694 83.1773 21.6934C83.4599 22.1181 83.7426 22.4714 84.1666 22.7534C84.5907 23.0361 85.0846 23.1781 85.7206 23.1781C86.6401 23.1781 87.3467 22.8954 87.9114 22.4001C88.4068 21.9061 88.7601 21.1994 88.8308 20.28H92.5762C92.2943 22.188 91.5876 23.6014 90.3848 24.5915C89.1841 25.5802 87.6294 26.0755 85.7206 26.0755C84.6606 26.0755 83.6712 25.8635 82.8232 25.5102C81.9038 25.1568 81.1971 24.6622 80.5618 24.0261C79.9265 23.3901 79.4304 22.6128 79.0771 21.7647C78.7237 20.846 78.5831 19.9266 78.5831 18.8666C78.5831 17.7359 78.7237 16.7465 79.0771 15.8279C79.4304 14.9092 79.8551 14.0611 80.4904 13.3544C81.1265 12.6478 81.9038 12.1531 82.7526 11.7291C83.6705 11.3757 84.6599 11.1637 85.7906 11.1637C86.6393 11.1637 87.4167 11.305 88.1934 11.517C88.97 11.7291 89.6774 12.0824 90.2427 12.5057C90.8788 12.9304 91.3735 13.4951 91.7268 14.2018C92.0801 14.8378 92.2929 15.6858 92.3628 16.6045H88.5467C88.4075 14.9084 87.4881 14.0604 85.7913 14.0604ZM20.7767 7.48822H28.6916V9.39628H20.7767V7.48822ZM98.4418 22.3287C99.0078 22.894 99.9258 23.1767 100.986 23.1767C101.764 23.1767 102.471 22.9647 103.035 22.6114C103.601 22.1866 103.955 21.7633 104.095 21.3386H107.488C106.922 23.0347 106.075 24.2367 104.943 25.0134C103.812 25.7201 102.47 26.1448 100.844 26.1448C99.7138 26.1448 98.7244 25.9321 97.805 25.5787C96.9352 25.2544 96.1587 24.7207 95.5443 24.0247C94.9083 23.3887 94.4136 22.6114 94.131 21.692C93.7776 20.7733 93.6363 19.7846 93.6363 18.6532C93.6363 17.5932 93.7776 16.6045 94.131 15.6851C94.4713 14.7988 94.9747 13.9841 95.615 13.2831C96.251 12.647 97.0284 12.0817 97.8764 11.7283C98.7951 11.375 99.7845 11.163 100.844 11.163C102.045 11.163 103.105 11.375 103.954 11.8697C104.872 12.3644 105.579 12.9297 106.145 13.7777C106.71 14.5551 107.134 15.4731 107.417 16.4632C107.699 17.4518 107.77 18.5119 107.699 19.6433H97.4517C97.4517 20.7033 97.8764 21.7633 98.4418 22.3287ZM102.965 14.9084C102.47 14.4138 101.692 14.1311 100.774 14.1311C100.138 14.1311 99.6424 14.2717 99.2184 14.4844C98.7944 14.6964 98.441 14.9784 98.2297 15.2618C98.0184 15.5452 97.805 15.8978 97.7351 16.2512C97.6651 16.6045 97.5944 16.8865 97.5944 17.1699H103.955C103.742 16.1098 103.389 15.4031 102.965 14.9084Z" fill="#146EF5"/>
</svg>
