<svg width="100" height="33" viewBox="0 0 100 33" fill="none" xmlns="http://www.w3.org/2000/svg">
<g clip-path="url(#clip0_2650_41527)">
<path fill-rule="evenodd" clip-rule="evenodd" d="M11.0885 10.8122H21.9729V0.145508H0.421875V0.254352L11.0885 10.8122Z" fill="#67DBFF"/>
<path fill-rule="evenodd" clip-rule="evenodd" d="M11.0885 10.8123H0.204102V21.4789H21.7551V21.3701L11.0885 10.8123Z" fill="#01A3FF"/>
<path fill-rule="evenodd" clip-rule="evenodd" d="M0.312988 21.3701H11.0885V32.1456L0.312988 21.3701Z" fill="#0162FF"/>
<path d="M36.7756 21.3699V15.4923H43.1974V12.7712H36.7756V8.85288H43.7416V6.02295H33.6191V21.261H36.7756V21.3699Z" fill="white"/>
<path d="M51.7959 10.268C51.5782 10.1591 51.1428 10.0503 50.5986 10.0503C49.5102 10.0503 48.6394 10.5945 48.0952 11.3564V10.268H45.0476V21.37H48.0952V14.5129C48.3129 13.5333 49.1837 12.9891 50.1632 12.9891C50.7075 12.9891 51.2517 13.0979 51.6871 13.3156V10.268H51.7959Z" fill="white"/>
<path d="M62.0272 21.37V14.2952C62.0272 11.6829 60.2857 10.0503 57.3469 10.0503C54.8435 10.0503 52.9932 11.5741 52.6666 13.6421H55.6054C55.8231 12.9891 56.3673 12.5537 57.238 12.5537C58.4353 12.5537 59.0884 13.3156 59.0884 14.2952V15.0571C58.653 14.7306 57.5646 14.404 56.585 14.404C54.1904 14.404 52.3401 15.819 52.3401 17.9959C52.3401 20.2816 54.1904 21.5877 56.4761 21.5877C57.6734 21.5877 58.7619 21.1523 59.1972 20.8258V21.37H62.0272ZM59.0884 18.3224C58.7619 18.8666 58 19.302 57.1292 19.302C56.1496 19.302 55.17 18.8666 55.17 17.887C55.17 16.9074 56.1496 16.4721 57.1292 16.4721C58 16.4721 58.8707 16.7986 59.0884 17.4517V18.3224Z" fill="white"/>
<path d="M72.9115 11.4653C72.2585 10.5945 71.2789 10.0503 69.9728 10.0503C68.7755 10.0503 67.687 10.4857 67.1428 11.2476V10.3768H64.0952V21.4789H67.1428V14.2952C67.3605 13.3156 68.1224 12.8802 68.8843 12.8802C69.9728 12.8802 70.4081 13.6421 70.4081 14.8394V21.4789H73.4558V14.2952C73.6734 13.3156 74.3265 12.8802 75.1973 12.8802C76.2857 12.8802 76.8299 13.6421 76.8299 14.8394V21.4789H79.8775V14.1863C79.8775 11.6829 78.4626 10.0503 76.1768 10.0503C74.7619 10.0503 73.6734 10.7034 72.9115 11.4653Z" fill="white"/>
<path d="M88.6938 17.7782C88.4762 18.7578 87.7143 19.1931 86.6258 19.1931C85.2108 19.1931 84.3401 18.2136 84.2313 16.5809H91.6326V15.6013C91.6326 12.336 89.8911 10.0503 86.6258 10.0503C83.5782 10.0503 81.2925 12.5537 81.2925 15.819C81.2925 19.1932 83.4694 21.5877 86.6258 21.5877C89.4557 21.5877 91.0884 20.0639 91.5238 17.6693H88.6938V17.7782ZM86.6258 12.5537C87.9319 12.5537 88.585 13.4244 88.585 14.6217H84.3401C84.6666 13.3156 85.4285 12.5537 86.6258 12.5537Z" fill="white"/>
<path d="M99.7959 10.268C99.5782 10.1591 99.1428 10.0503 98.5986 10.0503C97.5102 10.0503 96.6394 10.5945 96.0952 11.3564V10.268H93.0476V21.37H96.0952V14.5129C96.3129 13.5333 97.1837 12.9891 98.1632 12.9891C98.7075 12.9891 99.2517 13.0979 99.6871 13.3156V10.268H99.7959Z" fill="white"/>
</g>
<defs>
<clipPath id="clip0_2650_41527">
<rect width="99.5919" height="32" fill="white" transform="translate(0.204102 0.145508)"/>
</clipPath>
</defs>
</svg>
