<svg width="112" height="33" viewBox="0 0 112 33" fill="none" xmlns="http://www.w3.org/2000/svg">
<g clip-path="url(#clip0_2650_41530)">
<path fill-rule="evenodd" clip-rule="evenodd" d="M30.0211 7.0459L20.6399 25.2459H11.8283L15.7543 17.703H15.5782C12.3393 21.8757 7.50673 24.6225 0.621094 25.2459V17.8075C0.621094 17.8075 5.026 17.5493 7.61552 14.8474H0.621094V7.04604H8.48208V13.4625L8.65852 13.4618L11.8708 7.04604H17.8159V13.4218L17.9923 13.4216L21.3251 7.0459H30.0211Z" fill="#146EF5"/>
<path d="M81.8203 23.1456H83.9203V8.44556H81.8203V23.1456Z" fill="white"/>
<path fill-rule="evenodd" clip-rule="evenodd" d="M67.7009 23.4865C68.2413 23.726 68.7907 23.8456 69.3493 23.8456C70.2721 23.8456 71.0977 23.6063 71.8262 23.1275C72.5548 22.6488 73.1193 21.9889 73.5201 21.148C73.9208 20.3004 74.1211 19.3398 74.1211 18.2659C74.1211 17.1919 73.9147 16.2313 73.5019 15.3838C73.089 14.5364 72.5153 13.8797 71.7807 13.4139C71.0461 12.9417 70.2114 12.7088 69.2763 12.7153C68.6814 12.7153 68.1107 12.8382 67.5643 13.084C67.0179 13.3298 66.5626 13.6792 66.1983 14.132C66.1702 14.1665 66.1429 14.2013 66.1164 14.2365V8.44556H63.6211V23.6419H66.0981L66.0931 22.2222C66.1573 22.3059 66.2257 22.3877 66.2985 22.4676C66.6931 22.9011 67.1606 23.2407 67.7009 23.4865ZM70.2508 21.0315C69.844 21.2967 69.3796 21.4294 68.8575 21.4294C68.3414 21.4294 67.8679 21.2935 67.4368 21.0218C67.0058 20.7436 66.6627 20.3652 66.4077 19.8864C66.1589 19.4077 66.0344 18.8643 66.0344 18.2562C66.0283 17.6481 66.1498 17.1046 66.3987 16.6259C66.6536 16.1407 66.9967 15.7655 67.4277 15.5003C67.8587 15.2286 68.3353 15.0959 68.8575 15.1024C69.3796 15.0959 69.844 15.2253 70.2508 15.4906C70.6636 15.7493 70.9793 16.1213 71.1979 16.6065C71.4225 17.0852 71.5348 17.6352 71.5348 18.2562C71.5348 18.8772 71.4225 19.4271 71.1979 19.9058C70.9793 20.3846 70.6636 20.7598 70.2508 21.0315Z" fill="white"/>
<path d="M34.2188 9.84546H37.1322L39.7384 19.0549L42.5109 9.84546H44.9387L47.9456 18.8701L50.4481 9.84546H53.1188L49.1781 23.1455H46.6662L43.6087 14.3291L40.802 23.1455H38.262L34.2188 9.84546Z" fill="white"/>
<path fill-rule="evenodd" clip-rule="evenodd" d="M56.9819 23.8453C55.9837 23.8517 55.0836 23.6182 54.2814 23.1447C53.4854 22.6647 52.8578 21.9997 52.3985 21.15C51.9454 20.3001 51.7188 19.3303 51.7188 18.2405C51.7188 17.1832 51.9515 16.2263 52.4168 15.37C52.8822 14.5138 53.513 13.8456 54.3089 13.3656C55.105 12.8855 55.9929 12.6455 56.9727 12.6455C58.0749 12.6455 59.0394 12.905 59.866 13.4239C60.6988 13.9429 61.3203 14.6792 61.7305 15.6328C62.1469 16.5799 62.297 17.6664 62.1806 18.8924H54.3129C54.3349 19.3809 54.4499 19.8253 54.658 20.2255C54.8907 20.6666 55.2153 21.0105 55.6316 21.257C56.048 21.5034 56.5134 21.6267 57.0278 21.6267C57.4197 21.6203 57.784 21.5489 58.1208 21.4127C58.4576 21.27 58.7423 21.0786 58.9751 20.8386C59.2138 20.5985 59.3822 20.3261 59.4802 20.0212H62.1072C61.948 20.7672 61.6296 21.4321 61.1519 22.016C60.6743 22.5933 60.0741 23.0441 59.3516 23.3685C58.629 23.6928 57.8391 23.8517 56.9819 23.8453ZM54.6672 16.2166C54.5204 16.4877 54.4188 16.7796 54.3622 17.0924H59.5775C59.5397 16.6972 59.4246 16.3372 59.2322 16.0123C59.0118 15.6295 58.7117 15.3344 58.3321 15.1268C57.9524 14.9127 57.5238 14.8057 57.0462 14.8057C56.5379 14.8057 56.0756 14.9289 55.6592 15.1754C55.2428 15.4219 54.9121 15.769 54.6672 16.2166Z" fill="white"/>
<path d="M75.7834 12.7879C75.7834 11.9482 75.9756 11.2026 76.3597 10.5509C76.7438 9.893 77.2821 9.38232 77.9748 9.0189C78.6737 8.6492 79.4892 8.45809 80.4211 8.44556V10.7295C79.9866 10.7358 79.6151 10.8266 79.3066 11.0021C79.0043 11.1712 78.7713 11.4188 78.6076 11.7446C78.4568 12.0446 78.3755 12.3923 78.3636 12.7879H80.3644V14.959H78.362V23.1456H75.7834V14.959H74.1211V12.7879H75.7834Z" fill="white"/>
<path fill-rule="evenodd" clip-rule="evenodd" d="M90.5567 23.8455C89.5499 23.8455 88.6485 23.6084 87.8526 23.1345C87.0628 22.6541 86.4418 21.9917 85.9896 21.1478C85.5434 20.2972 85.3203 19.333 85.3203 18.2552C85.3203 17.171 85.5434 16.2035 85.9896 15.353C86.4418 14.4959 87.0628 13.8304 87.8526 13.3565C88.6485 12.8825 89.5499 12.6455 90.5567 12.6455C91.5697 12.6455 92.4741 12.8825 93.2699 13.3565C94.0719 13.8304 94.6958 14.4927 95.142 15.3432C95.5881 16.1938 95.8143 17.1644 95.8203 18.2552C95.8143 19.333 95.5881 20.2972 95.142 21.1478C94.7019 21.9917 94.0809 22.6541 93.279 23.1345C92.4771 23.6084 91.5697 23.8455 90.5567 23.8455ZM90.5567 21.401C91.0873 21.401 91.5576 21.2711 91.9676 21.0114C92.3776 20.7452 92.6941 20.375 92.9172 19.9011C93.1403 19.4207 93.2519 18.8721 93.2519 18.2552C93.2519 17.6319 93.1403 17.08 92.9172 16.5996C92.6941 16.1191 92.3776 15.749 91.9676 15.4893C91.5576 15.2231 91.0873 15.09 90.5567 15.09C90.0322 15.09 89.565 15.2231 89.155 15.4893C88.751 15.749 88.4374 16.1191 88.2144 16.5996C87.9913 17.08 87.8828 17.6319 87.8889 18.2552C87.8889 18.8721 88.0003 19.4207 88.2234 19.9011C88.4525 20.375 88.7661 20.7452 89.164 21.0114C89.568 21.2711 90.0322 21.401 90.5567 21.401Z" fill="white"/>
<path d="M98.6801 13.3455H95.8203L98.9153 23.1455H101.418L103.453 16.8862L105.651 23.1455H108.116L111.22 13.3455H108.634L106.873 19.4453L104.927 13.3455H102.424L100.488 19.5797L98.6801 13.3455Z" fill="white"/>
</g>
<defs>
<clipPath id="clip0_2650_41530">
<rect width="111" height="18" fill="white" transform="translate(0.5 7.14551)"/>
</clipPath>
</defs>
</svg>
