<svg width="92" height="33" viewBox="0 0 92 33" fill="none" xmlns="http://www.w3.org/2000/svg">
<g clip-path="url(#clip0_2650_41539)">
<path d="M28.1156 13.9595C29.1756 13.9595 30.02 13.1047 30.02 12.0718C30.02 11.0388 29.1576 10.184 28.1156 10.184C27.0557 10.184 26.2113 11.0388 26.2113 12.0718C26.2113 13.1047 27.0737 13.9595 28.1156 13.9595ZM91.03 20.4064C90.7426 20.2105 90.509 20.1749 90.3294 20.5667C87.1315 27.441 81.724 24.0038 82.2629 24.3066C83.4666 23.7723 86.6105 21.2612 86.1255 17.8063C85.838 15.687 84.0056 14.7609 82.0653 15.0993C78.6699 15.687 77.4303 19.3022 78.0591 22.5079C78.1669 23.0599 78.3645 23.5052 78.5621 23.9504C74.7355 27.0313 73.2085 21.19 73.0468 20.4954C73.0468 20.4598 76.011 18.0022 76.8195 12.1786C77.6818 6.07011 75.7236 4.94814 73.7115 4.98376C69.9927 5.05499 68.9866 12.7663 70.334 19.1776C70.2262 19.2132 69.6873 19.4981 68.8429 19.5337C68.2321 17.6282 65.6271 15.9719 64.9444 16.6131C63.2377 18.2159 65.3576 21.3503 66.8487 21.5996C65.9505 27.067 60.3633 25.7135 61.4053 18.857C63.2198 15.5089 64.6211 10.5046 64.3695 7.49483C64.2797 6.42629 63.4892 5.00157 61.6927 5.0728C58.2254 5.21527 57.8482 12.9266 58.2614 18.394C58.2434 18.2515 58.0458 19.0529 56.6265 19.4625C56.2852 17.6104 53.285 15.7582 52.5843 16.6487C51.2549 18.3227 53.5545 21.279 54.6324 21.4927C53.7341 26.9601 48.1469 25.6066 49.1889 18.7501C51.0034 15.402 52.4047 10.3977 52.1532 7.38798C52.0633 6.31943 51.2729 4.89471 49.4763 4.96595C46.009 5.10842 45.6318 12.8197 46.045 18.2871C46.027 18.1446 45.8294 18.9817 44.3562 19.3735C44.3023 16.9871 41.3021 15.8829 40.5835 16.6487C39.29 18.0022 40.871 20.7982 42.3441 21.4927C41.4459 26.9601 35.8587 25.6066 36.9007 18.7501C38.7151 15.402 40.1164 10.3977 39.8649 7.38798C39.7751 6.31943 38.9846 4.89471 37.1881 4.96595C33.7208 5.10842 33.4513 13.1937 33.8466 18.6789C32.7147 23.523 28.8881 29.5602 29.3732 17.4501C29.4271 16.5953 29.481 16.2747 29.0498 15.9541C28.7265 15.7048 28.0079 15.8295 27.6126 15.8295C27.1276 15.8473 27.0018 16.1322 26.894 16.5596C26.6425 17.646 26.6066 18.7145 26.5706 20.1571C26.5527 20.8338 26.4988 21.1544 26.2293 22.0804C25.9598 23.0065 24.4687 24.6984 23.6423 24.4134C22.5105 24.0216 22.8698 20.8338 23.0854 18.6433C23.265 16.9158 22.6901 16.1322 21.2349 15.8473C20.3726 15.6692 19.8696 15.7048 18.9713 15.4199C18.127 15.1527 17.9473 13.5855 16.1508 14.102C15.1627 14.3869 15.7915 16.4528 15.5579 17.9844C14.3902 25.4998 11.9828 25.7135 10.869 22.0626C15.9172 9.82781 12.3242 5.00157 10.2222 5.00157C8.03047 5.00157 5.5333 6.49753 6.59325 16.0432C6.07226 15.9007 5.92854 15.8117 5.35365 15.8117C2.1738 15.8117 0 18.3583 0 21.5105C0 24.6628 2.1738 27.2094 5.35365 27.2094C7.24 27.2094 8.55147 26.3546 9.55752 25.0545C10.2043 25.9806 10.9947 27.2273 12.4499 27.1738C16.7796 27.0135 18.0371 18.2159 18.1808 17.7172C18.6479 17.7885 19.0791 17.9131 19.5103 17.9844C20.2289 18.0912 20.2648 18.3762 20.2648 19.0707C20.0852 25.0545 21.199 27.156 23.7141 27.156C25.1154 27.156 26.373 25.7847 27.2353 24.8052C27.8821 26.1231 28.9061 27.1204 30.2894 27.156C33.631 27.2451 34.9065 21.9558 34.7987 22.6503C34.7089 23.2024 35.8766 27.1204 39.326 27.1382C43.5837 27.156 44.3922 22.5079 44.482 21.7243C44.5 21.564 44.5 21.5818 44.482 21.7243C44.482 21.7421 44.482 21.7599 44.482 21.7777C45.8294 21.5284 46.53 20.816 46.53 20.816C46.53 20.816 47.6259 27.2272 51.6501 27.156C55.836 27.0848 56.6265 22.8818 56.7163 22.0626C56.7343 21.8667 56.7343 21.8845 56.7163 22.0626V22.0804C58.3332 21.4927 58.7464 20.9228 58.7464 20.9228C58.7464 20.9228 59.6087 27.2094 63.8665 27.2629C67.6572 27.3163 69.0585 23.4695 69.0585 21.8489C69.7052 21.8489 70.873 21.4749 70.855 21.4571C70.855 21.4571 72.2383 26.9423 76.1188 27.2272C77.9333 27.3519 79.2987 26.2121 80.0891 25.6957C81.9216 27.156 88.0118 29.0438 91.8564 22.5791C92.3954 21.653 91.2276 20.5667 91.03 20.4064ZM5.20993 25.108C3.3595 25.108 2.15583 23.3983 2.15583 21.564C2.15583 19.7296 3.25171 18.02 5.10214 18.02C5.9465 18.02 6.39563 18.109 7.06035 18.6789C7.18611 19.1419 7.50948 20.2105 7.67117 20.6913C7.88675 21.3325 8.15623 21.8845 8.40774 22.49C8.04844 24.0216 6.8268 25.108 5.20993 25.108ZM9.73717 18.7323C9.66531 18.6077 9.68328 18.6789 9.59345 18.5721C9.25211 17.646 8.60536 15.5979 8.51554 13.2828C8.42571 10.647 8.87484 7.56607 10.1863 7.56607C11.0666 7.56607 12.0008 13.817 9.73717 18.7323ZM35.8946 15.9897C35.679 14.4225 35.679 7.45921 37.3678 7.65511C38.284 8.0291 36.7749 14.6006 35.8946 15.9897ZM48.2008 15.9897C47.9852 14.4225 47.9852 7.45921 49.674 7.65511C50.6082 8.0291 49.0811 14.6006 48.2008 15.9897ZM60.4352 16.0966C60.2196 14.5294 60.2196 7.56607 61.9083 7.76197C62.8245 8.13596 61.2975 14.7075 60.4352 16.0966ZM73.9271 7.24551C75.4721 7.08523 75.4002 13.7636 72.3102 17.9844C71.897 16.4528 71.2862 7.77978 73.9271 7.24551ZM80.3946 21.6174C79.8915 19.1419 81.185 17.5035 82.4965 17.3254C82.9636 17.2542 83.6283 17.5569 83.7541 18.109C83.9697 19.1598 83.7181 20.6913 80.7718 22.6681C80.7898 22.6681 80.5023 22.1695 80.3946 21.6174Z" fill="#EA4C89"/>
</g>
<defs>
<clipPath id="clip0_2650_41539">
<rect width="92" height="24" fill="white" transform="translate(0 4.14551)"/>
</clipPath>
</defs>
</svg>
