<svg width="24" height="25" viewBox="0 0 24 25" fill="none" xmlns="http://www.w3.org/2000/svg">
<g clip-path="url(#clip0_2856_18445)">
<path d="M21.4284 11.2353C15.681 11.582 11.0818 16.1813 10.7352 21.9287H10.6932C10.3465 16.1813 5.74734 11.582 0 11.2353V11.1934C5.74734 10.8467 10.3465 6.24744 10.6932 0.5H10.7352C11.0818 6.24744 15.681 10.8467 21.4284 11.1934V11.2353Z" fill="url(#paint0_radial_2856_18445)"/>
<path d="M24.001 20.2228C21.7021 20.3615 19.8624 22.2012 19.7238 24.5002H19.707C19.5683 22.2012 17.7286 20.3615 15.4297 20.2228V20.2061C17.7286 20.0674 19.5683 18.2277 19.707 15.9287H19.7238C19.8624 18.2277 21.7021 20.0674 24.001 20.2061V20.2228Z" fill="url(#paint1_radial_2856_18445)"/>
</g>
<defs>
<radialGradient id="paint0_radial_2856_18445" cx="0" cy="0" r="1" gradientUnits="userSpaceOnUse" gradientTransform="translate(2.12658 9.20886) rotate(18.6835) scale(22.8078 182.707)">
<stop offset="0.0671246" stop-color="#9168C0"/>
<stop offset="0.342551" stop-color="#5684D1"/>
<stop offset="0.672076" stop-color="#1BA1E3"/>
</radialGradient>
<radialGradient id="paint1_radial_2856_18445" cx="0" cy="0" r="1" gradientUnits="userSpaceOnUse" gradientTransform="translate(16.2803 19.4123) rotate(18.6835) scale(9.12314 73.083)">
<stop offset="0.0671246" stop-color="#9168C0"/>
<stop offset="0.342551" stop-color="#5684D1"/>
<stop offset="0.672076" stop-color="#1BA1E3"/>
</radialGradient>
<clipPath id="clip0_2856_18445">
<rect width="24" height="24" fill="white" transform="translate(0 0.5)"/>
</clipPath>
</defs>
</svg>
