<svg width="73" height="45" viewBox="0 0 73 45" fill="none" xmlns="http://www.w3.org/2000/svg">
<path fill-rule="evenodd" clip-rule="evenodd" d="M5.6007 15.0021C7.2979 14.9899 7.81821 15.0263 8.69778 15.2446C9.28003 15.3781 10.0853 15.6692 10.4941 15.8753C10.9029 16.0694 11.4851 16.4697 11.7949 16.7486C12.1169 17.0397 12.4762 17.537 12.6496 17.913C12.8355 18.3375 12.9346 18.7984 12.9346 19.235C12.9346 19.5989 12.8479 20.1204 12.724 20.3873C12.6125 20.6541 12.4019 21.018 12.2532 21.1878C12.1046 21.3576 11.6957 21.7336 11.3613 22.0247C11.0144 22.3036 10.7295 22.5826 10.7047 22.619C10.6923 22.6554 10.9648 22.8858 11.3241 23.1163C11.671 23.3467 12.1417 23.7591 12.3647 24.0259C12.5877 24.2928 12.8602 24.7536 12.9717 25.0569C13.0956 25.3601 13.1823 25.9665 13.1947 26.4517C13.1947 27.0581 13.1204 27.4705 12.9346 27.9071C12.7735 28.271 12.3895 28.7804 11.9559 29.1928C11.5595 29.5688 10.9524 30.0054 10.618 30.1752C10.2711 30.345 9.60212 30.5997 9.13137 30.7453C8.38807 30.9636 7.9297 31 5.97235 31C4.05216 31 3.50707 30.9636 2.6275 30.7453C2.04525 30.6119 1.41345 30.4057 1.20285 30.3087C0.992245 30.1995 0.732091 30.0297 0.595819 29.9205C0.471936 29.8114 0.286111 29.5688 0.187005 29.3626C0.0755101 29.1564 -0.0112081 28.6834 0.00118022 28.271C0.00118022 27.7737 0.0878984 27.3735 0.261335 27.0217C0.409995 26.7428 0.670149 26.4032 0.855974 26.2819C1.05419 26.1485 1.48778 25.9908 1.82226 25.918C2.16913 25.8331 2.63989 25.8089 2.87527 25.8574C3.11065 25.8938 3.75484 26.0393 4.29992 26.1727C4.99367 26.3425 5.52637 26.4032 6.09623 26.3547C6.54221 26.3183 7.08729 26.2091 7.31028 26.1C7.52089 25.9908 7.79343 25.7846 7.89254 25.6391C7.99164 25.4814 8.07836 25.2752 8.07836 25.1782C8.09075 25.0811 7.97925 24.8628 7.85537 24.693C7.7191 24.5232 7.37223 24.317 7.07491 24.2321C6.77759 24.1351 5.99712 24.0259 5.35293 23.9774C4.65919 23.9168 4.05216 23.7955 3.86633 23.6863C3.6929 23.5893 3.45752 23.2982 3.32125 23.0314C3.1602 22.716 3.11065 22.437 3.17259 22.1459C3.20975 21.9155 3.3708 21.588 3.53185 21.4425C3.68051 21.2848 3.91589 21.0907 4.05216 21.018C4.18843 20.9573 4.96889 20.8239 5.78652 20.7511C6.60415 20.6662 7.397 20.5692 7.55805 20.5207C7.70671 20.4843 7.89254 20.3145 7.95448 20.1447C8.03707 19.9425 8.03707 19.7404 7.95448 19.5382C7.88015 19.3563 7.70671 19.2108 7.48372 19.1744C7.2979 19.138 6.45549 19.1623 5.6007 19.235C4.7459 19.3078 3.71767 19.417 3.30886 19.4776C2.90005 19.5382 2.34257 19.5989 2.07003 19.5989C1.79749 19.5989 1.40106 19.4897 1.16568 19.3563C0.930304 19.2108 0.670149 18.8954 0.509101 18.5316C0.323276 18.1313 0.261335 17.816 0.2985 17.4763C0.335665 17.2095 0.496713 16.7244 0.657761 16.3969C0.831197 16.0451 1.11613 15.6934 1.32673 15.5721C1.52494 15.4508 2.11958 15.281 2.6275 15.184C3.1602 15.087 4.4362 15.0142 5.6007 15.0021ZM67.8396 20.9331C68.0873 20.9331 68.4342 21.0058 68.6077 21.0907C68.7811 21.1635 69.0536 21.4182 69.1899 21.6365C69.4624 22.0368 69.4624 22.0368 69.7102 21.8063C69.8465 21.6729 70.1562 21.4546 70.3916 21.3091C70.627 21.1756 70.9738 21.0544 71.172 21.0544C71.3579 21.0544 71.68 21.1393 71.8782 21.2363C72.1259 21.3576 72.2994 21.5638 72.3861 21.8791C72.4604 22.1217 72.4976 22.5219 72.448 22.7524C72.4109 22.9828 72.2498 23.2982 72.0888 23.4559C71.9277 23.6135 71.5437 23.7833 71.1349 23.8561C70.7632 23.9289 70.3544 24.038 70.2429 24.0987C70.119 24.1593 69.958 24.317 69.896 24.4504C69.8093 24.6202 69.8465 25.1903 70.0199 26.391C70.2057 27.6403 70.2305 28.2104 70.1438 28.55C70.0819 28.7926 69.9084 29.12 69.7474 29.2534C69.5863 29.399 69.3386 29.5809 69.1899 29.6537C69.0289 29.7265 68.6077 29.7871 68.2608 29.7871C67.8767 29.7871 67.4184 29.7022 67.183 29.5688C66.9476 29.4596 66.6379 29.2049 66.5016 29.023C66.2415 28.6834 66.2415 28.647 66.4025 25.7482C66.4892 24.1351 66.6007 22.5462 66.6379 22.2066C66.6999 21.77 66.8113 21.5031 67.0591 21.2727C67.3069 21.0301 67.5299 20.9331 67.8396 20.9331ZM46.8538 15.8753C47.2254 15.8996 47.7581 16.0209 48.0307 16.1543C48.3032 16.2756 48.6005 16.5182 48.6996 16.688C48.8483 16.9427 48.8483 17.0397 48.6996 17.3551C48.5634 17.6462 48.3652 17.7674 47.7829 17.9615C47.3741 18.0949 46.9529 18.2647 46.8414 18.3254C46.7299 18.3981 46.5812 18.5558 46.5193 18.6892C46.445 18.8226 46.4078 19.1016 46.445 19.2957C46.4945 19.6474 46.5193 19.6595 47.5723 19.8172C48.3775 19.9264 48.7244 20.0355 48.9226 20.2417C49.0837 20.3873 49.2323 20.6298 49.2695 20.7875C49.3067 20.9331 49.2447 21.2242 49.1456 21.4182C49.0465 21.6244 48.7987 21.867 48.5881 21.964C48.3899 22.061 47.9068 22.1823 47.5351 22.243C46.9405 22.3158 46.8538 22.3643 46.8538 22.6068C46.8538 22.7524 46.99 23.8682 47.1635 25.0933C47.3369 26.3061 47.498 27.6524 47.498 28.0891C47.5227 28.6713 47.4608 28.9866 47.2874 29.2898C47.1511 29.5203 46.8786 29.8114 46.6927 29.9569C46.3954 30.1631 46.16 30.2116 45.33 30.2116C44.5495 30.2116 44.1779 30.1389 43.7319 29.9327C43.3479 29.7629 43.063 29.5324 42.9515 29.302C42.8028 29.0109 42.7656 28.3559 42.7656 25.8452C42.7656 23.2618 42.7409 22.7281 42.5798 22.5705C42.4807 22.4734 42.2577 22.3885 42.0843 22.3885C41.9108 22.3885 41.5392 22.2915 41.2666 22.1823C40.9817 22.061 40.6968 21.867 40.6472 21.7578C40.5853 21.6365 40.5357 21.3212 40.5357 21.0544C40.5357 20.6662 40.6225 20.4843 40.9569 20.1447C41.2295 19.8779 41.4896 19.7202 41.7002 19.7202C41.8737 19.7202 42.171 19.6474 42.3444 19.5746C42.555 19.4655 42.7037 19.2593 42.7904 18.9318C42.8524 18.665 43.001 18.2283 43.1249 17.9736C43.2364 17.7189 43.6204 17.2338 43.9797 16.9184C44.4381 16.4939 44.8469 16.2513 45.4043 16.0815C45.9123 15.9239 46.4078 15.8511 46.8538 15.8753ZM27.3422 20.1326C27.8873 20.1689 28.7792 20.2781 29.3243 20.3873C29.8694 20.4964 30.526 20.7026 30.7861 20.8239C31.0463 20.9573 31.3312 21.2242 31.4427 21.4546C31.579 21.7093 31.6162 21.9883 31.5666 22.3036C31.517 22.5947 31.3684 22.8373 31.1578 23.0071C30.8852 23.2012 30.687 23.2497 30.2534 23.2012C29.9437 23.1769 29.2748 23.0556 28.7668 22.9465C28.135 22.813 27.7386 22.7766 27.528 22.8494C27.2431 22.9465 27.3794 23.0435 28.8907 23.7591C29.8694 24.22 30.7614 24.7294 31.0339 24.9841C31.2817 25.2267 31.6038 25.6391 31.74 25.9059C31.9011 26.2091 31.9878 26.6336 31.9878 27.0581C31.9878 27.4463 31.9011 27.9071 31.7772 28.174C31.6533 28.4166 31.3436 28.7926 31.0958 29.023C30.8357 29.2413 30.3649 29.5324 30.0428 29.678C29.7084 29.8114 29.0889 29.969 28.643 30.0297C28.1598 30.0903 27.4289 30.0903 26.8219 30.0176C26.2396 29.9569 25.3229 29.7386 24.7159 29.5203C24.1088 29.302 23.477 28.9987 23.2912 28.8532C23.093 28.6955 22.8948 28.368 22.8205 28.0891C22.7461 27.7737 22.7337 27.4463 22.8205 27.1552C22.8824 26.9005 23.0558 26.573 23.2169 26.4153C23.3779 26.2698 23.7372 26.0878 24.0345 26.0272C24.4185 25.9423 24.7778 25.9544 25.3972 26.0757C25.8556 26.1727 26.5369 26.2819 26.9086 26.3183C27.2802 26.3547 27.6767 26.3425 27.7758 26.2819C27.912 26.197 27.6023 26.0029 26.5369 25.4692C25.7565 25.0811 24.8645 24.5596 24.5548 24.3291C24.2327 24.0744 23.8735 23.6499 23.7 23.2982C23.4646 22.8252 23.4151 22.5705 23.477 22.1459C23.5142 21.8427 23.6505 21.4667 23.7744 21.3091C23.8982 21.1514 24.1584 20.9088 24.3566 20.7633C24.5424 20.6298 25.0751 20.4115 25.5335 20.2902C26.1157 20.1447 26.6361 20.0962 27.3422 20.1326ZM53.1718 20.9816C53.9894 21.0058 54.3611 21.0786 54.8318 21.3091C55.1663 21.4667 55.6743 21.8549 55.9468 22.1581C56.2317 22.4613 56.529 22.9222 56.6034 23.189C56.6901 23.4437 56.7644 23.8561 56.7644 24.0866C56.7644 24.3777 56.6777 24.596 56.4919 24.7779C56.3061 24.9477 55.4265 25.2631 54.0018 25.6876C52.7878 26.0393 51.7843 26.3789 51.7719 26.4517C51.7595 26.5123 51.8834 26.6336 52.0569 26.7185C52.2303 26.8034 52.6143 26.8762 52.9241 26.8762C53.3081 26.8641 53.8408 26.7185 54.5965 26.3789C55.2159 26.1121 55.8229 25.9059 55.9592 25.9059C56.0955 25.9059 56.3556 26.0636 56.5538 26.2455C56.8264 26.5123 56.8883 26.6821 56.8883 27.1188C56.8883 27.4341 56.7768 27.8222 56.6529 28.0284C56.5167 28.2346 56.207 28.5378 55.9468 28.7198C55.6743 28.9017 55.1292 29.2049 54.7204 29.3869C54.039 29.7022 53.8532 29.7265 52.4905 29.7265C51.1649 29.7265 50.9295 29.6901 50.3349 29.4233C49.9137 29.2413 49.4553 28.8896 49.1208 28.5136C48.8235 28.1861 48.5014 27.6646 48.4023 27.3613C48.3032 27.0581 48.1917 26.4638 48.1422 26.0272C48.0926 25.5542 48.1298 24.9477 48.2165 24.5111C48.3032 24.1108 48.4519 23.6257 48.5634 23.4195C48.6625 23.2133 49.0341 22.7645 49.381 22.4007C49.7279 22.0489 50.273 21.6244 50.6074 21.4667C50.9295 21.3091 51.4003 21.1271 51.6604 21.0544C51.9082 20.9937 52.5896 20.9573 53.1718 20.9816ZM51.5985 23.7348C51.4622 23.8925 51.3136 24.1229 51.264 24.2442C51.2269 24.3534 51.2269 24.4504 51.2888 24.4504C51.3383 24.4504 51.8339 24.2928 52.4037 24.1108C52.9612 23.9289 53.4196 23.7106 53.4196 23.6378C53.4196 23.5529 53.3081 23.4316 53.1718 23.3588C53.0355 23.2982 52.8002 23.2375 52.6515 23.2497C52.4905 23.2497 52.2427 23.2982 52.1064 23.3467C51.9578 23.3952 51.7224 23.5772 51.5985 23.7348ZM62.1533 20.9695C63.0577 20.9937 63.3922 21.0544 63.9496 21.3212C64.3337 21.491 64.8416 21.867 65.1018 22.1581C65.3495 22.4492 65.6468 22.9343 65.746 23.2375C65.8574 23.5408 65.9318 23.9168 65.9442 24.0866C65.9442 24.2564 65.8451 24.5111 65.7212 24.6687C65.5601 24.8749 64.8664 25.1418 60.6667 26.4759L61.0756 26.67C61.2862 26.7913 61.6826 26.8762 61.9427 26.8762C62.2029 26.8762 62.9214 26.67 63.6152 26.391C64.2717 26.1242 64.9036 25.9059 65.0027 25.9059C65.1018 25.9059 65.3248 25.9787 65.4982 26.0636C65.6716 26.1363 65.8698 26.3425 65.9442 26.5123C66.0185 26.6821 66.0433 27.0339 66.0061 27.3007C65.9566 27.5918 65.7707 27.9799 65.523 28.271C65.2876 28.55 64.7797 28.926 64.3089 29.1564C63.8753 29.3747 63.2064 29.6052 62.8347 29.678C62.4631 29.7507 61.7074 29.7871 61.1623 29.7629C60.4561 29.7265 59.973 29.6294 59.4899 29.4111C59.1182 29.2413 58.6227 28.9138 58.3873 28.6834C58.1519 28.4529 57.8174 27.9678 57.644 27.6039C57.3591 27.0096 57.3219 26.7913 57.3219 25.542C57.3219 24.2564 57.3467 24.0987 57.6688 23.5165C57.8546 23.1648 58.2139 22.6432 58.474 22.3764C58.7218 22.0974 59.1801 21.7336 59.4899 21.5638C59.7996 21.3818 60.2703 21.1756 60.5429 21.0907C60.8402 20.9937 61.4968 20.9452 62.1533 20.9695ZM60.6048 23.844C60.5429 23.9774 60.4809 24.1229 60.4809 24.1836C60.4809 24.2321 60.7411 24.2321 61.0632 24.1957C61.3977 24.1472 61.8436 24.0259 62.0666 23.9168C62.2772 23.8076 62.463 23.6742 62.463 23.6014C62.463 23.5408 62.3268 23.4316 62.1533 23.3588C61.9799 23.2982 61.7445 23.2375 61.633 23.2375C61.5092 23.2497 61.2614 23.3224 61.0756 23.4195C60.8773 23.5165 60.6791 23.7106 60.6048 23.844ZM17.8032 21.4546C19.0668 21.4789 19.2402 21.5152 19.9711 21.867C20.4295 22.0853 21.0241 22.4977 21.3462 22.8373C21.7303 23.2254 21.9904 23.6378 22.1391 24.0866C22.2878 24.5717 22.3745 25.3601 22.4984 29.2413L22.1143 29.6416C21.8046 29.9569 21.6312 30.0297 21.2224 30.0297C20.9374 30.0297 20.5286 29.9448 20.318 29.8356C19.9216 29.6416 19.872 29.6537 19.0792 29.9569C18.4598 30.1874 18.0138 30.2723 17.3696 30.2723C16.7997 30.2723 16.2794 30.1874 15.8582 30.0297C15.499 29.8963 15.0158 29.6416 14.8052 29.4839C14.5822 29.3141 14.2477 28.926 14.0619 28.6106C13.7646 28.1012 13.715 27.895 13.715 27.0581C13.715 26.3061 13.777 25.9787 13.9752 25.6027C14.1239 25.3358 14.4088 24.972 14.6318 24.79C14.8424 24.596 15.3131 24.3655 15.6724 24.2685C16.0564 24.1593 16.8369 24.0866 18.9181 24.0866L18.6084 23.844C18.435 23.7227 18.1005 23.5772 17.8651 23.5408C17.6297 23.4922 17.0103 23.5286 16.5024 23.6014C15.6972 23.7348 15.5113 23.7227 15.1149 23.5529C14.8548 23.4437 14.5822 23.2375 14.5079 23.092C14.4336 22.9343 14.3964 22.6796 14.4336 22.5098C14.4707 22.34 14.6566 22.0974 14.8548 21.9761C15.0406 21.8427 15.4866 21.6608 15.8211 21.5759C16.1803 21.491 17.0227 21.4425 17.8032 21.4546ZM16.6387 26.67C16.5767 26.8277 16.5891 27.046 16.6758 27.2158C16.7502 27.3613 16.9856 27.5433 17.1838 27.6282C17.3944 27.701 17.8156 27.7373 18.1253 27.7131C18.4722 27.6888 18.8066 27.5675 18.9677 27.422C19.1659 27.2522 19.2278 27.0703 19.2031 26.8156C19.1783 26.5245 19.0544 26.4032 18.6084 26.1727C18.2987 26.0272 17.9395 25.9059 17.8032 25.9059C17.6669 25.9059 17.3696 26.015 17.159 26.1485C16.936 26.2819 16.7006 26.5123 16.6387 26.67ZM36.5715 21.4546C37.8599 21.4789 38.0705 21.5152 38.8014 21.8549C39.2474 22.0489 39.8296 22.437 40.1145 22.6917C40.4119 22.9828 40.7216 23.4437 40.8702 23.844C41.0189 24.22 41.1923 25.1054 41.2666 25.8452C41.341 26.5851 41.4029 27.5433 41.4029 28.0042C41.4029 28.4529 41.341 28.9381 41.2666 29.0958C41.1923 29.2413 40.9817 29.5082 40.7959 29.7022C40.5481 29.9569 40.3623 30.0297 39.9783 30.0297C39.7057 30.0297 39.3712 29.9569 39.235 29.8478C39.0987 29.7507 38.9005 29.678 38.8014 29.6658C38.7023 29.6658 38.2811 29.7992 37.8722 29.969C37.3148 30.1874 36.8936 30.2723 36.237 30.2723C35.6176 30.2723 35.122 30.1995 34.6885 30.0297C34.3292 29.8963 33.8337 29.6294 33.6107 29.4475C33.3629 29.2656 33.0408 28.8289 32.8674 28.4529C32.632 27.9435 32.5701 27.5797 32.5701 26.9368C32.5701 26.4032 32.6444 25.9544 32.7559 25.724C32.8674 25.5178 33.1151 25.2024 33.301 25.0084C33.4992 24.8264 33.8832 24.5475 34.1558 24.414C34.5522 24.2079 34.961 24.1472 37.7484 24.0259L37.3767 23.7833C37.1166 23.6135 36.8069 23.5529 36.3237 23.5529C35.9521 23.5529 35.2583 23.6014 34.7752 23.6499C33.9947 23.7348 33.8832 23.7227 33.6354 23.4923C33.4744 23.3467 33.3381 23.1405 33.3381 23.0314C33.3257 22.9101 33.3381 22.7039 33.3505 22.5705C33.3629 22.437 33.4868 22.2066 33.6354 22.0489C33.7841 21.8912 34.1929 21.6972 34.5274 21.6002C34.9404 21.4789 35.6217 21.4303 36.5715 21.4546ZM35.5309 26.5487C35.4318 26.7064 35.4441 26.8398 35.5804 27.0945C35.6795 27.2764 35.9892 27.5312 36.2618 27.6524C36.7077 27.8708 36.8069 27.8708 37.2404 27.7131C37.513 27.6161 37.8351 27.4099 37.9714 27.2401C38.1572 26.9975 38.182 26.8883 38.0705 26.67C37.9961 26.5123 37.6988 26.2819 37.4139 26.1485C37.1166 26.015 36.7945 25.9059 36.6954 25.9059C36.5963 25.9059 36.3237 26.0029 36.0883 26.1242C35.853 26.2334 35.6052 26.4274 35.5309 26.5487Z" fill="white"/>
</svg>
