<svg width="98" height="45" viewBox="0 0 98 45" fill="none" xmlns="http://www.w3.org/2000/svg">
<g clip-path="url(#clip0_2015_1131)">
<g clip-path="url(#clip1_2015_1131)">
<path d="M20.2998 12V32.2998H0V12H20.2998ZM5.95508 16.9395L9.47363 23.5029V27.7666H10.8271V23.5713L14.3457 16.9395H12.8564L10.8271 21.0674C10.6918 21.2704 10.5559 21.4738 10.4883 21.6768C10.4206 21.9471 10.2854 22.0824 10.2178 22.2852C10.1502 22.2174 10.1497 22.0823 10.082 22.0146C10.0145 21.8796 10.0147 21.8118 9.94727 21.6768V21.6084L9.87988 21.541C9.81224 21.4057 9.81175 21.3382 9.74414 21.2705C9.67648 21.2028 9.60841 21.135 9.6084 21.0674L7.5791 16.9395H5.95508Z" fill="white"/>
<path d="M29.5703 15.9246C30.5853 15.9246 31.465 16.1952 32.1417 16.7366L31.465 17.5486C30.856 17.1426 30.247 16.8719 29.5027 16.8719C28.3523 16.8719 27.4727 17.4809 26.999 18.6312C26.7283 19.3079 26.593 20.1876 26.593 21.3379C26.593 22.2176 26.7283 22.9619 26.9313 23.5032C27.4727 24.7889 28.3523 25.3979 29.7057 25.3979C30.45 25.3979 31.1267 25.1949 31.7357 24.7212L32.4123 25.6009C31.5327 26.1422 30.5853 26.4129 29.5703 26.4129C28.3523 26.4129 27.3373 25.9392 26.5253 24.9242C25.7133 23.9769 25.375 22.6912 25.375 21.1349C25.375 19.5786 25.781 18.3606 26.593 17.3456C27.3373 16.4659 28.3523 15.9246 29.5703 15.9246Z" fill="white"/>
<path d="M33.4274 22.6234C33.4274 21.4054 33.698 20.4581 34.307 19.7814C34.916 19.1047 35.6604 18.6987 36.6077 18.6987C37.6904 18.6987 38.57 19.1047 39.179 19.9844C39.6527 20.6611 39.8557 21.6084 39.8557 22.7587C39.8557 24.1121 39.4497 25.1947 38.7054 25.8714C38.164 26.3451 37.4874 26.6157 36.6754 26.6157C35.6604 26.6157 34.916 26.2774 34.307 25.5331C33.698 24.8564 33.4274 23.8414 33.4274 22.6234ZM38.164 20.6611C37.8257 20.0521 37.352 19.7137 36.6077 19.7137C35.8634 19.7137 35.3897 19.9844 35.0514 20.5257C34.7807 20.9317 34.713 21.6084 34.713 22.4881C34.713 23.6384 34.8484 24.4504 35.1867 24.9241C35.525 25.3977 35.9987 25.6684 36.6754 25.6684C37.4874 25.6684 38.0287 25.2624 38.2994 24.5181C38.4347 24.1121 38.5024 23.5707 38.5024 22.8941C38.57 21.8791 38.4347 21.1347 38.164 20.6611Z" fill="white"/>
<path d="M42.021 20.7964C42.021 20.0521 41.9533 19.4431 41.7503 18.9694L42.9006 18.6987C43.1036 19.0371 43.1713 19.4431 43.1713 19.7814V19.8491C43.442 19.5784 43.7126 19.3077 44.1186 19.1047C44.5923 18.8341 44.9983 18.6987 45.4043 18.6987C46.0133 18.6987 46.5546 18.9694 46.893 19.4431C46.9606 19.5784 47.096 19.7814 47.1636 19.9167C47.9756 19.1047 48.72 18.6987 49.532 18.6987C50.0733 18.6987 50.547 18.9017 50.8853 19.2401C51.2236 19.6461 51.4266 20.1197 51.4266 20.6611V26.2774H50.2086V20.7287C50.2086 19.9844 49.8703 19.6461 49.2613 19.6461C48.923 19.6461 48.517 19.7814 48.1786 20.0521C48.0433 20.1874 47.7726 20.3904 47.4343 20.6611L47.299 20.7964V26.2774H46.0133V20.9994C46.0133 20.5257 45.9456 20.1874 45.8103 20.0521C45.6073 19.8491 45.4043 19.7814 45.066 19.7814C44.5246 19.7814 43.9156 20.1197 43.1713 20.7964V26.3451H42.021V20.7964Z" fill="white"/>
<path d="M53.5244 15.654L54.7424 15.3833C54.8777 15.9246 54.9454 16.5336 54.9454 17.278V18.9696C54.9454 19.3756 54.9454 19.6463 54.9454 19.7816C55.622 19.105 56.3664 18.7666 57.1107 18.7666C57.9904 18.7666 58.7347 19.105 59.2084 19.7816C59.7497 20.4583 60.0204 21.4056 60.0204 22.556C60.0204 23.774 59.7497 24.7213 59.2084 25.4656C58.667 26.21 57.9227 26.5483 57.043 26.5483C56.637 26.5483 56.2987 26.4806 55.8927 26.2776C55.4867 26.0746 55.216 25.8716 55.013 25.601C54.9454 25.9393 54.8777 26.21 54.81 26.413H53.6597C53.795 26.0746 53.8627 25.4656 53.8627 24.5183V17.4133C53.795 16.6013 53.7274 15.9923 53.5244 15.654ZM55.4867 20.2553C55.2837 20.3906 55.0807 20.5936 54.9454 20.7966V24.6536C55.419 25.2626 56.028 25.5333 56.7724 25.5333C57.3814 25.5333 57.855 25.3303 58.1257 24.8566C58.464 24.3153 58.667 23.571 58.667 22.4883C58.667 21.541 58.5317 20.8643 58.1934 20.4583C57.9227 20.0523 57.449 19.8493 56.7724 19.8493C56.3664 19.7816 55.8927 19.917 55.4867 20.2553Z" fill="white"/>
<path d="M61.7797 16.6011C61.7797 16.3305 61.8474 16.1275 62.0504 15.9245C62.2534 15.7215 62.4564 15.6538 62.7271 15.6538C62.9977 15.6538 63.2007 15.7215 63.4037 15.9245C63.6067 16.1275 63.6744 16.3305 63.6744 16.6011C63.6744 16.8718 63.6067 17.0748 63.4037 17.2778C63.2007 17.4808 62.9977 17.5485 62.7271 17.5485C62.4564 17.5485 62.2534 17.4808 62.0504 17.2778C61.8474 17.0748 61.7797 16.8718 61.7797 16.6011ZM62.0504 26.3451V18.9018L63.2684 18.6988V26.3451H62.0504Z" fill="white"/>
<path d="M65.9074 20.7964C65.9074 20.2551 65.9074 19.9167 65.8397 19.7814C65.8397 19.5784 65.7044 19.3754 65.569 19.0371L66.7194 18.6987C66.9224 19.1047 66.99 19.4431 66.99 19.8491C67.7344 19.1047 68.5464 18.6987 69.3584 18.6987C69.7644 18.6987 70.1027 18.7664 70.441 18.9694C70.7794 19.1724 71.05 19.4431 71.1854 19.7814C71.3207 20.0521 71.3884 20.3227 71.3884 20.6611V26.3451H70.238V21.2701C70.238 20.6611 70.1704 20.2551 69.9674 20.0521C69.7644 19.8491 69.4937 19.7137 69.1554 19.7137C68.8847 19.7137 68.4787 19.8491 68.0727 20.0521C67.6667 20.2551 67.3284 20.5257 67.0577 20.7964V26.3451H65.9074V20.7964Z" fill="white"/>
<path d="M74.095 20.5257L73.486 19.7137C74.501 19.0371 75.516 18.6987 76.5986 18.6987C77.6813 18.6987 78.358 19.1047 78.6963 19.8491C78.8316 20.1197 78.8316 20.5257 78.8316 21.1347V21.5407L78.764 23.9767C78.764 24.0444 78.764 24.1797 78.764 24.3151C78.764 24.7211 78.764 24.9917 78.8316 25.1947C78.8993 25.4654 79.1023 25.6684 79.373 25.8037L78.764 26.6157C78.2226 26.4127 77.8843 26.0744 77.749 25.5331C77.0723 26.2097 76.328 26.5481 75.5836 26.5481C74.8393 26.5481 74.2303 26.3451 73.7566 25.9391C73.3506 25.6007 73.1476 25.0594 73.1476 24.3827C73.1476 23.5031 73.486 22.8941 74.1626 22.4204C74.8393 21.9467 75.8543 21.7437 77.0723 21.7437C77.2753 21.7437 77.4106 21.7437 77.6136 21.7437V21.2024C77.6136 20.5934 77.546 20.1874 77.343 20.0521C77.0723 19.7814 76.8016 19.6461 76.328 19.6461C75.922 19.6461 75.4483 19.7814 74.907 19.9844C74.704 20.1197 74.4333 20.3227 74.095 20.5257ZM77.6813 24.5181L77.749 22.5557C77.4106 22.5557 77.2076 22.5557 77.14 22.5557C76.0573 22.5557 75.3806 22.7587 74.9746 23.1647C74.704 23.4354 74.5686 23.8414 74.5686 24.3827C74.5686 25.2624 74.9746 25.7361 75.8543 25.7361C76.6663 25.6684 77.2753 25.2624 77.6813 24.5181Z" fill="white"/>
<path d="M82.6887 18.9019H84.5834L84.245 19.8492H82.6887V24.6536C82.6887 25.0596 82.7564 25.3302 82.8917 25.5332C83.027 25.6686 83.2977 25.8039 83.636 25.8039C83.9067 25.8039 84.1774 25.7362 84.3804 25.6686L84.5157 26.4129C84.1097 26.6159 83.7037 26.6836 83.23 26.6836C82.0797 26.6836 81.5384 26.1422 81.5384 24.9919V19.8492H80.5234V18.9019H81.4707V18.7666C81.4707 18.6312 81.5384 18.0899 81.606 17.2102V17.0072L82.824 16.7366C82.6887 17.5486 82.6887 18.2929 82.6887 18.9019Z" fill="white"/>
<path d="M85.8014 22.6234C85.8014 21.4054 86.0721 20.4581 86.6811 19.7814C87.2224 19.1047 88.0344 18.6987 88.9817 18.6987C90.0644 18.6987 90.9441 19.1047 91.5531 19.9844C92.0267 20.6611 92.2297 21.6084 92.2297 22.7587C92.2297 24.1121 91.8237 25.1947 91.0794 25.8714C90.5381 26.3451 89.8614 26.6157 89.0494 26.6157C88.0344 26.6157 87.2901 26.2774 86.6811 25.5331C86.1397 24.8564 85.8014 23.8414 85.8014 22.6234ZM90.6057 20.6611C90.2674 20.0521 89.7937 19.7137 89.0494 19.7137C88.3051 19.7137 87.8314 19.9844 87.4931 20.5257C87.2224 20.9317 87.1547 21.6084 87.1547 22.4881C87.1547 23.6384 87.2901 24.4504 87.6284 24.9241C87.9667 25.3977 88.4404 25.6684 89.1171 25.6684C89.9291 25.6684 90.4704 25.2624 90.7411 24.5181C90.8764 24.1121 90.9441 23.5707 90.9441 22.8941C90.9441 21.8791 90.8087 21.1347 90.6057 20.6611Z" fill="white"/>
<path d="M94.4627 20.6611C94.4627 19.9844 94.395 19.4431 94.192 19.0371L95.3423 18.6987C95.5453 19.1047 95.613 19.4431 95.613 19.8491V19.9844C96.222 19.1724 96.8987 18.7664 97.7107 18.7664C97.846 18.7664 97.9814 18.7664 98.1167 18.8341L97.643 20.1197C97.5077 20.0521 97.3724 20.0521 97.3047 20.0521C97.034 20.0521 96.6957 20.1197 96.425 20.3227C96.1544 20.5257 95.8837 20.7287 95.7484 20.9994C95.6807 21.2024 95.613 21.4731 95.613 21.8114V26.4804H94.4627V20.6611Z" fill="white"/>
</g>
</g>
<defs>
<clipPath id="clip0_2015_1131">
<rect width="98" height="45" fill="white"/>
</clipPath>
<clipPath id="clip1_2015_1131">
<rect width="98.1167" height="20.3" fill="white" transform="translate(0 12)"/>
</clipPath>
</defs>
</svg>
