<svg width="63" height="45" viewBox="0 0 63 45" fill="none" xmlns="http://www.w3.org/2000/svg">
<path d="M17.9448 14.1543V25.6104C17.9448 29.015 15.1762 31.7754 11.7612 31.7754H0.269958V20.3193C0.26997 16.9148 3.03853 14.1544 6.45355 14.1543H17.9448ZM9.36761 17.5967C6.87891 17.5967 4.86104 19.6079 4.86078 22.0889C4.86078 22.7144 4.98943 23.3104 5.22113 23.8516C4.86768 24.2126 4.64986 24.7066 4.64984 25.251C4.64984 25.4928 4.69514 25.7239 4.77386 25.9385C4.4846 26.1017 4.28949 26.4116 4.28949 26.7666C4.28959 27.2913 4.71627 27.7167 5.24261 27.7168C5.62265 27.7168 5.94984 27.4946 6.10297 27.1738C6.27994 27.2247 6.46622 27.2549 6.65961 27.2549C7.31933 27.2549 7.90258 26.9357 8.26898 26.4463C8.62066 26.5341 8.98863 26.582 9.36761 26.582C11.8564 26.5819 13.8735 24.57 13.8735 22.0889C13.8732 19.6079 11.8562 17.5968 9.36761 17.5967Z" fill="white"/>
<path d="M27.4253 29.9052C30.599 29.9052 33.2541 27.3409 33.2541 24.301C33.2541 21.2611 30.599 18.7175 27.4253 18.7175C24.2308 18.7175 21.5549 21.2611 21.5549 24.301C21.5549 27.3409 24.2308 29.9052 27.4253 29.9052ZM27.4253 27.3616C25.8073 27.3616 24.459 25.9554 24.459 24.301C24.459 22.6466 25.8073 21.2611 27.4253 21.2611C29.0225 21.2611 30.3708 22.6466 30.3708 24.301C30.3708 25.9554 29.0225 27.3616 27.4253 27.3616Z" fill="white"/>
<path d="M40.9455 27.01C40.7381 27.2168 40.3232 27.3616 39.9083 27.3616C39.3483 27.3616 38.8919 26.8653 38.8919 26.1622V21.4059H41.2152V18.9657H38.8919V16.0292H35.9879V18.9657H34.5151V21.4059H35.9879V26.6378C35.9879 28.561 37.3154 29.9052 39.2031 29.9052C40.0743 29.9052 41.0492 29.533 41.6715 28.9746L40.9455 27.01Z" fill="white"/>
<path d="M48.6296 27.2375C47.3643 27.2375 46.4308 26.4517 46.0782 25.2936H53.8154C53.8154 21.2611 51.8448 18.7175 48.4844 18.7175C45.3522 18.7175 42.9667 21.0543 42.9667 24.2803C42.9667 27.5684 45.4559 29.9052 48.6503 29.9052C50.2268 29.9052 52.073 29.2434 53.0272 28.2508L51.098 26.2863C50.5172 26.8446 49.4801 27.2375 48.6296 27.2375ZM48.6088 21.3852C49.8327 21.3852 50.6209 22.0676 50.9113 23.1223H46.1197C46.5138 22.0469 47.468 21.3852 48.6088 21.3852Z" fill="white"/>
<path d="M58.8928 20.9509V18.9657H55.8643V29.657H58.8928V24.5492C58.8928 22.5432 60.3241 21.2611 62.5644 21.2611V18.7175C60.9256 18.7175 59.5981 19.5654 58.8928 20.9509Z" fill="white"/>
</svg>
