<svg width="53" height="45" viewBox="0 0 53 45" fill="none" xmlns="http://www.w3.org/2000/svg">
<g clip-path="url(#clip0_2015_1081)">
<path d="M12.7153 24.0339C11.3549 23.7554 10.266 23.4932 9.39703 23.2569C8.61501 23.3395 7.70331 23.4648 6.77767 23.6536C7.47658 23.9273 8.49973 24.2606 9.99218 24.6313C8.85375 25.5241 8.23506 26.0432 8.19951 26.074L7.71051 26.487L7.78833 27.1223L8.07414 29.3986C5.7622 28.7455 3.44835 27.9964 2.26284 27.4705C1.53126 27.0354 1.39917 26.4245 1.95109 25.8703C2.05245 25.782 2.16053 25.6936 2.27389 25.6062C2.27773 25.6033 2.28157 25.6004 2.2859 25.598C2.2859 25.598 2.2859 25.598 2.2859 25.5976C4.14198 24.1703 7.48042 22.8953 9.8721 22.0784C10.0349 22.0217 10.1699 21.9084 10.2525 21.7547L11.5894 19.2373C11.6604 19.1052 11.6864 18.954 11.6604 18.8075L11.1172 15.5395C11.0792 15.3176 10.9375 15.1308 10.7343 15.0367L8.65729 14.0642C8.49925 13.9912 8.3172 13.9792 8.15436 14.0335C5.24198 14.9968 3.25333 16.097 2.10096 16.8481C1.33336 17.3485 0.820824 18.1563 0.697854 19.0654C0.381302 21.3917 -0.197522 26.0672 0.0671522 27.1651C0.29628 28.1097 2.19031 28.8276 3.52713 29.2195C6.11334 30.1262 9.46476 30.9998 9.46476 30.9998L8.95943 26.9758C8.95943 26.9758 10.2938 25.8497 12.7148 24.0334L12.7153 24.0339ZM6.77719 17.6703C6.94723 17.1579 7.50684 16.8486 8.04772 16.9336C8.5982 17.021 8.99978 17.4955 8.93589 18.0386C8.86288 18.6433 8.25331 19.0846 7.59187 18.9621C6.94003 18.8416 6.58793 18.237 6.77719 17.6703Z" fill="white"/>
<path d="M14.8347 27.7572L16.1193 17.3633H20.0632C20.8689 17.3633 21.5287 17.4748 22.0428 17.6968C22.5563 17.9193 22.9216 18.2826 23.1381 18.7878C23.3547 19.2929 23.4073 19.9594 23.2966 20.7878C23.2059 21.5253 22.9967 22.1439 22.6695 22.6441C22.3422 23.1444 21.8711 23.5155 21.2566 23.7576L22.4656 27.7577H20.5617L19.5039 24.1214H17.0864L16.6328 27.7577H14.8347V27.7572ZM17.2824 22.6206H19.4585C19.8818 22.6206 20.2339 22.5375 20.5163 22.3708C20.7982 22.204 21.0172 21.9668 21.1737 21.6588C21.3298 21.3507 21.4332 21.005 21.4834 20.6211C21.5536 20.0352 21.4683 19.5986 21.2264 19.3105C20.9845 19.0225 20.5563 18.8787 19.9418 18.8787H17.7355L17.2819 22.6211L17.2824 22.6206Z" fill="white"/>
<path d="M25.7746 27.9242C24.9889 27.9242 24.4222 27.7149 24.0745 27.2953C23.7268 26.8762 23.6034 26.2576 23.7044 25.439C23.7648 24.9241 23.9082 24.5148 24.135 24.2116C24.3618 23.9084 24.6739 23.684 25.0718 23.5373C25.4698 23.3911 25.9404 23.2977 26.4847 23.2571L28.5398 23.0752L28.6305 22.5147C28.6705 22.1108 28.61 21.8306 28.4491 21.6736C28.2877 21.5172 28.0258 21.4389 27.6634 21.4389C27.3811 21.4389 27.0563 21.4492 26.689 21.4692C26.3213 21.4898 25.9585 21.5147 25.601 21.545C25.2435 21.5754 24.9333 21.6057 24.6714 21.636V20.3631C24.9333 20.3127 25.2479 20.2594 25.6156 20.2042C25.9833 20.1489 26.3637 20.1005 26.7563 20.0604C27.1494 20.0203 27.5118 19.9998 27.8444 19.9998C28.4891 19.9998 29.0104 20.0883 29.4084 20.2648C29.8063 20.4418 30.0833 20.7171 30.2394 21.0907C30.3955 21.4643 30.4384 21.9494 30.3677 22.5451L29.9146 26.1056C29.9044 26.2777 29.9624 26.4009 30.0882 26.4767C30.214 26.5525 30.3677 26.6053 30.5491 26.6356L30.4281 27.8782C30.2872 27.8782 30.1409 27.8758 29.9897 27.8709C29.8385 27.8655 29.7 27.8582 29.5742 27.8484C29.4484 27.8381 29.3401 27.8181 29.2494 27.7878C29.0377 27.7574 28.8588 27.6968 28.7129 27.6058C28.5666 27.5149 28.4535 27.4239 28.373 27.333C28.1711 27.4239 27.9273 27.5124 27.64 27.598C27.3528 27.6841 27.0455 27.7594 26.7183 27.8254C26.391 27.8909 26.076 27.9237 25.7741 27.9237L25.7746 27.9242ZM26.1828 26.5907C26.4145 26.5907 26.6563 26.5657 26.908 26.5149C27.1596 26.4645 27.3937 26.4063 27.6108 26.3408C27.8273 26.2752 28.0063 26.2171 28.1472 26.1667L28.4042 24.2121L26.6666 24.3789C26.2838 24.4092 25.9941 24.5256 25.7975 24.7275C25.601 24.9295 25.4825 25.2072 25.4425 25.5608C25.4123 25.884 25.4552 26.1364 25.5708 26.3183C25.6863 26.5002 25.8902 26.5911 26.1828 26.5911V26.5907Z" fill="white"/>
<path d="M34.4028 27.924C34.1609 27.924 33.8663 27.9138 33.5186 27.8937C33.1709 27.8732 32.8207 27.8429 32.4686 27.8028C32.116 27.7622 31.8039 27.7323 31.5317 27.7118L32.8163 16.9995H34.5691L34.1155 20.4236C34.2765 20.3532 34.473 20.2847 34.7046 20.2192C34.9363 20.1536 35.1806 20.1003 35.4376 20.0602C35.6947 20.0201 35.9288 19.9996 36.1404 19.9996C36.8554 19.9996 37.4069 20.1409 37.7951 20.4241C38.1829 20.7072 38.4345 21.139 38.5506 21.7195C38.6662 22.3004 38.674 23.0354 38.573 23.9239C38.4521 24.9142 38.2428 25.702 37.9458 26.2873C37.6483 26.8731 37.2231 27.2927 36.6691 27.545C36.115 27.7974 35.3591 27.924 34.4023 27.924H34.4028ZM34.4481 26.4237C35.0221 26.4237 35.4679 26.3255 35.7854 26.1284C36.1029 25.9313 36.3369 25.6384 36.4881 25.2496C36.6393 24.8609 36.7451 24.3684 36.8056 23.7723C36.8758 23.2271 36.891 22.7875 36.851 22.4539C36.8105 22.1204 36.6998 21.8784 36.5184 21.7268C36.3369 21.5752 36.0702 21.4994 35.7176 21.4994C35.5259 21.4994 35.3196 21.517 35.0982 21.5522C34.8763 21.5879 34.67 21.6334 34.4788 21.6886C34.2872 21.7444 34.1311 21.7972 34.0107 21.8476L33.3913 26.3475C33.5425 26.368 33.7312 26.3851 33.958 26.4003C34.1848 26.4154 34.3481 26.4228 34.4491 26.4228L34.4481 26.4237Z" fill="white"/>
<path d="M39.7825 27.7573L40.5531 21.6212H39.7372L39.9035 20.1664H40.7194L40.795 19.6059C40.8857 18.8891 41.0188 18.3257 41.1954 17.9164C41.3714 17.5071 41.6236 17.2245 41.9508 17.068C42.278 16.9115 42.7087 16.8333 43.2427 16.8333C43.4036 16.8333 43.5977 16.8435 43.8245 16.8636C44.0513 16.8841 44.2678 16.9042 44.4741 16.9242C44.6804 16.9447 44.8292 16.9648 44.9199 16.9848L44.8292 18.3335C44.658 18.3238 44.4668 18.3184 44.2551 18.3184H43.7416C43.4797 18.3184 43.2681 18.359 43.1071 18.4397C42.9457 18.5208 42.8199 18.6622 42.7292 18.8641C42.6384 19.0661 42.5677 19.3389 42.5175 19.6822L42.457 20.1668H44.3912L44.2249 21.6217H42.2907L41.5202 27.7578H39.7825V27.7573Z" fill="white"/>
<path d="M45.8264 31.0001L47.2012 27.7574H45.7508L44.7838 20.1665H46.5667L47.3222 26.2728H47.7601L50.0118 20.1665H51.7797L47.6845 31.0001H45.8259H45.8264Z" fill="white"/>
</g>
<defs>
<clipPath id="clip0_2015_1081">
<rect width="52.275" height="17" fill="white" transform="translate(0 14)"/>
</clipPath>
</defs>
</svg>
