<svg width="65" height="45" viewBox="0 0 65 45" fill="none" xmlns="http://www.w3.org/2000/svg">
<path d="M7.14809 17.6114V24.4631H9.75944V17.6114H11.2888L12.4494 15H4.46118L5.62178 17.6114H7.14809Z" fill="white"/>
<path d="M13.8275 16.0361L12.7092 18.5538C13.7156 19.6267 14.299 21.0503 14.299 22.5464C14.299 25.7683 11.6785 28.3887 8.45667 28.3887C5.23479 28.3887 2.61135 25.7683 2.61135 22.5464C2.61135 21.0503 3.19467 19.6298 4.20113 18.5538L3.08285 16.0361C1.14851 17.638 0 20.0197 0 22.5464C0 27.2099 3.79311 31 8.45364 31C13.1142 31 16.9073 27.2069 16.9073 22.5464C16.9073 20.0197 15.7588 17.638 13.8244 16.0361H13.8275Z" fill="white"/>
<path d="M23.0065 27.2357V20.7254H21.2595V18.7729H26.7663V20.7254H25.0285V27.2357H23.0065Z" fill="white"/>
<path d="M29.012 27.2357V18.7729H34.0745V20.7254H31.0339V21.6714H33.9868V23.6239H31.0339V25.2832H34.0745V27.2357H29.012Z" fill="white"/>
<path d="M45.4808 27.2357H43.4075L42.8453 23.7236L41.2465 27.2357H40.3639L38.8044 23.7055L38.1727 27.2357H36.0872L37.7465 18.7729H38.759L40.8324 23.4667L42.9783 18.7729H43.9908L45.4808 27.2357Z" fill="white"/>
<path d="M47.6964 27.2357V18.7729H49.9602C50.6402 18.7729 51.151 18.8213 51.5167 18.921C51.9157 19.0299 52.2723 19.2354 52.5746 19.5346C53.0944 20.0424 53.3574 20.6922 53.3574 21.4599C53.3574 22.282 53.0733 22.9499 52.5081 23.4426C51.964 23.9201 51.2326 24.1589 50.338 24.1589H49.7184V27.2387H47.6964V27.2357ZM50.2352 22.2155C51.3747 22.2155 51.3747 21.7107 51.3747 21.4417C51.3747 21.203 51.3747 20.7073 50.1869 20.7073H49.7214V22.2185H50.2352V22.2155Z" fill="white"/>
<path d="M59.8073 27.3747C58.7222 27.3747 57.74 26.9969 56.8816 26.2503C55.9265 25.4161 55.4429 24.313 55.4429 22.971C55.4429 21.7862 55.8812 20.7556 56.7486 19.9063C57.61 19.06 58.6588 18.6309 59.8677 18.6309C61.0767 18.6309 62.1043 19.0631 62.9596 19.9184C63.818 20.7737 64.2532 21.8134 64.2532 23.0164C64.2532 24.2193 63.815 25.265 62.9506 26.1083C62.0862 26.9515 61.0283 27.3777 59.8073 27.3777V27.3747ZM59.8526 20.5833C59.1786 20.5833 58.6255 20.81 58.1631 21.2785C57.6976 21.7439 57.474 22.3 57.474 22.9861C57.474 23.7055 57.7067 24.2797 58.1842 24.7391C58.6648 25.2016 59.1998 25.4282 59.8224 25.4282C60.5024 25.4282 61.0616 25.2016 61.527 24.7331C61.9925 24.2586 62.2191 23.6934 62.2191 23.0073C62.2191 22.3212 61.9955 21.747 61.5361 21.2815C61.0797 20.813 60.5296 20.5863 59.8526 20.5863V20.5833Z" fill="white"/>
</svg>
