<svg width="56" height="45" viewBox="0 0 56 45" fill="none" xmlns="http://www.w3.org/2000/svg">
<path d="M3.77262 21.2541L5.18017 18H0L4.53368 25.3607L5.75302 21.2541H3.77262Z" fill="white"/>
<path d="M7.8235 18L6.84147 20.2541H8.47818L4.53369 25.3607L3.06885 28H6.08038L12.1935 18H7.8235Z" fill="white"/>
<path d="M12.75 28H21.9811V25.8361H14.935V24.082H20.6062V21.918H14.935V20.1639H21.9811V18H12.75V28Z" fill="white"/>
<path d="M31.1629 24.6639L25.5735 18H23.3476V28H25.4999V21.3033L31.122 28H33.3397V18H31.1629V24.6639Z" fill="white"/>
<path d="M51.7855 23L55.9837 18H53.1358L50.3862 21.2951L47.6119 18H47.391H45.3778H34.9193V28H44.1421V25.8361H37.096V24.082H42.7755V21.918H37.096V20.1639H46.5726L48.9458 23L44.764 28H47.6119L50.3616 24.7213L53.1358 28H56L51.7855 23Z" fill="white"/>
</svg>
