<svg width="69" height="45" viewBox="0 0 69 45" fill="none" xmlns="http://www.w3.org/2000/svg">
<path fill-rule="evenodd" clip-rule="evenodd" d="M6.0741 13.1198C4.34365 13.5553 2.72587 14.8607 1.50101 16.8099C0.676095 18.1227 0.0970039 20.9461 0.193938 23.1826C0.303879 25.7186 1.28659 28.2809 2.93196 30.3212C3.16822 30.6142 3.53706 30.9875 3.75162 31.1507C4.63474 31.8225 6.15515 32.4543 7.57884 32.7411C8.54251 32.9353 10.2503 33.0443 11.363 32.9828L12.2609 32.9331L11.3989 32.6364C8.78129 31.7351 7.01592 30.3731 6.14265 28.581C5.65431 27.5789 5.5208 26.9863 5.51858 25.8107C5.51649 24.7439 5.62643 24.1105 5.91041 23.554C6.11283 23.1573 6.69465 22.4603 7.3964 21.774L7.96507 21.2176L8.71209 21.0901C9.63638 20.9323 10.2066 20.7434 11.04 20.3189C11.9178 19.8719 12.9095 19.1177 13.7595 18.2507C14.3904 17.6073 14.462 17.5083 14.4199 17.337C14.2897 16.8061 13.4122 15.7241 12.625 15.1237L12.2244 14.8182L11.237 14.8544C9.81279 14.9067 8.8359 15.2179 7.6627 15.9931C7.02375 16.4152 5.98787 17.4909 5.44708 18.294C4.5516 19.6236 3.70808 21.6418 3.30741 23.4134C3.21687 23.8138 3.1121 24.1415 3.07459 24.1415C2.98197 24.1415 3.07244 22.5828 3.21471 21.7264C3.43301 20.4125 4.07692 18.8557 4.81115 17.8664C5.77819 16.5634 7.34373 15.3398 8.92019 14.6545C9.49598 14.4043 10.527 14.055 10.6899 14.055C11.0991 14.055 10.1749 13.5687 9.13576 13.2371C8.31868 12.9764 6.86502 12.9207 6.0741 13.1198ZM13.8557 19.0148C13.7951 19.3144 13.2066 19.9169 12.6666 20.2326C12.0269 20.6064 11.2703 20.8969 10.1631 21.1936L9.24354 21.44L8.82088 21.8792C8.5885 22.1207 8.3166 22.4947 8.21679 22.7102C8.04153 23.0888 8.03815 23.123 8.11849 23.7106C8.16419 24.0453 8.23985 24.9354 8.28663 25.6886L8.37157 27.0581L8.56429 26.754C8.80328 26.3771 8.95957 26.2373 9.29772 26.0976C9.63631 25.9578 10.1434 25.9597 10.6447 26.1028C12.0136 26.4935 12.2742 26.4693 12.7036 25.9115C12.8876 25.6723 13.0494 25.5383 13.1873 25.5109C13.3103 25.4863 13.4408 25.3899 13.5084 25.2734C13.571 25.1655 13.7122 25.0247 13.8222 24.9605C14.0528 24.8258 14.0733 24.727 13.8972 24.5997C13.7793 24.5145 13.7799 24.5013 13.9083 24.361C13.9831 24.2794 14.0921 24.2125 14.1506 24.2125C14.3767 24.2125 14.807 24.045 14.8472 23.9413C14.8705 23.8813 14.7546 23.5694 14.5899 23.2481C14.234 22.5544 14.245 22.4209 14.694 21.9875L15.0013 21.6909L14.8098 21.3302C14.6579 21.0441 14.6076 20.8245 14.5662 20.2673C14.5139 19.5625 14.4039 19.1772 14.1878 18.9411C14.0205 18.7583 13.9022 18.7845 13.8557 19.0148Z" fill="white"/>
<path fill-rule="evenodd" clip-rule="evenodd" d="M18.6011 24.4066C16.4811 24.7827 14.8468 26.8224 15.013 28.8846C15.1092 30.0773 15.4795 30.9343 16.2079 31.6496C17.1107 32.5363 18.2574 32.9993 19.5462 32.9977C20.285 32.9968 20.2288 33.1341 20.2288 31.3301V29.7486L19.9594 29.8436C19.5883 29.9745 19.3105 29.965 18.9642 29.8096C18.5672 29.6313 18.3422 29.3027 18.3038 28.845C18.2502 28.2068 18.6139 27.7101 19.2594 27.5399C19.8016 27.397 20.3013 27.6126 20.5925 28.1152C20.7663 28.4153 20.7679 28.4354 20.7895 30.6019L20.8114 32.7861H22.4306H24.0498L24.0194 30.2823C23.994 28.1986 23.9684 27.7073 23.8663 27.3547C23.5704 26.3329 22.9321 25.4507 22.1585 24.9944C21.4642 24.5849 20.7295 24.3885 19.7977 24.3633C19.3432 24.351 18.8047 24.3705 18.6011 24.4066Z" fill="white"/>
<path fill-rule="evenodd" clip-rule="evenodd" d="M27.7602 24.6479C26.4941 24.9515 25.4946 25.9634 25.1871 27.2528C25.1006 27.6155 25.0784 28.2451 25.0776 30.3539L25.0765 32.9998H26.652H28.2275L28.2508 30.7445C28.2757 28.3261 28.2848 28.265 28.6658 27.9242C28.8298 27.7774 29.2066 27.7388 29.5495 27.8336L29.7472 27.8882V26.262V24.6358L29.5226 24.5914C29.1603 24.5198 28.1608 24.5518 27.7602 24.6479Z" fill="white"/>
<path fill-rule="evenodd" clip-rule="evenodd" d="M33.3469 24.635C32.8063 24.8172 32.0424 25.3306 31.6599 25.7688C31.5145 25.9353 31.3009 26.2553 31.1854 26.48C30.7886 27.2512 30.758 27.5448 30.7788 30.3839L30.7977 32.9616H32.3785H33.9593L33.9953 30.44C34.0321 27.8592 34.0532 27.6738 34.3225 27.5716C34.5423 27.4882 34.8422 27.5282 35.0113 27.6635L35.1809 27.7991L35.2168 30.3804L35.2528 32.9616L36.8516 32.9807L38.4504 32.9998L38.4493 30.3526C38.4485 28.2578 38.4259 27.6115 38.3412 27.2561C38.0288 25.9464 37.0909 24.9625 35.7966 24.5867C35.1898 24.4105 33.9399 24.4352 33.3469 24.635Z" fill="white"/>
<path fill-rule="evenodd" clip-rule="evenodd" d="M43.1632 24.3774C41.0513 24.765 39.5947 26.3547 39.4848 28.3921C39.4028 29.9106 39.979 31.1945 41.1246 32.0458C42.6562 33.1839 44.6069 33.3114 46.3198 32.3853C46.5936 32.2373 46.8281 32.0851 46.8409 32.0471C46.8538 32.009 46.4588 31.5073 45.9634 30.9321L45.0625 29.8863L44.7668 30.0981C44.4247 30.343 43.9159 30.3861 43.5535 30.2008C42.5322 29.6788 42.5135 27.5167 43.5252 26.9306C44.0911 26.6028 44.8101 26.7571 45.071 27.2625C45.148 27.4118 45.2111 27.5672 45.2111 27.6079C45.2111 27.6547 44.9097 27.6817 44.3876 27.6817H43.5639L43.4814 27.9836C43.4022 28.2734 43.4263 28.9486 43.5213 29.1005C43.551 29.148 44.4156 29.1734 46.0025 29.1734H48.4381L48.4855 28.9235C48.594 28.3524 48.3275 27.1105 47.9601 26.4742C47.3401 25.4009 46.2057 24.6122 44.9359 24.372C44.3028 24.2523 43.8369 24.2538 43.1632 24.3774Z" fill="white"/>
<path fill-rule="evenodd" clip-rule="evenodd" d="M53.812 24.6209C53.0638 24.7726 52.3885 25.1353 51.9393 25.6268C51.5305 26.0741 51.3349 26.5717 51.2546 27.3682C51.2161 27.7504 51.1545 28.2698 51.1176 28.5223C51.0104 29.2569 50.6833 29.5783 49.9787 29.6415L49.5366 29.6811V31.3405V32.9999L49.8419 32.9984C50.4117 32.9959 51.6545 32.799 52.0688 32.6456C52.9177 32.3315 53.7292 31.5123 54.1021 30.5934C54.2032 30.3441 54.3359 29.8167 54.3968 29.4214C54.5924 28.1537 54.7492 27.9039 55.3939 27.832L55.7162 27.7961V26.1716V24.5471L54.9078 24.5549C54.4633 24.5592 53.9701 24.5889 53.812 24.6209Z" fill="white"/>
<path fill-rule="evenodd" clip-rule="evenodd" d="M57.6997 21.1252C57.3482 21.2831 56.9912 21.6716 56.8734 22.0245C56.8251 22.169 56.8001 22.4597 56.8179 22.6706C56.8797 23.4079 57.5101 23.905 58.383 23.905C59.4701 23.905 60.1313 23.1404 59.9356 22.1093C59.8752 21.791 59.4339 21.2902 59.0697 21.1267C58.6926 20.9574 58.0749 20.9567 57.6997 21.1252ZM56.7633 24.7752C56.7444 24.824 56.7373 26.6859 56.7475 28.9127L56.7662 32.9615L58.365 32.9806L59.9638 32.9997V28.8431V24.6864H58.3808C57.1805 24.6864 56.7894 24.7078 56.7633 24.7752Z" fill="white"/>
<path fill-rule="evenodd" clip-rule="evenodd" d="M63.9032 24.6014C63.3224 24.7745 63.0431 24.9126 62.6154 25.2379C61.9243 25.7637 61.2982 26.7547 61.0892 27.6538C60.9634 28.1947 60.966 29.2073 61.0948 29.7877C61.4002 31.1645 62.3581 32.3115 63.5848 32.7689C64.0294 32.9348 64.8282 33.0403 65.2218 32.9852L65.5619 32.9376V31.3718V29.806L65.2646 29.9083C64.7019 30.1022 64.1676 29.8759 63.939 29.3467C63.3916 28.0801 64.8766 26.9345 65.7162 27.9757C65.8379 28.1266 65.9431 28.2578 65.95 28.2673C65.9569 28.2768 65.9781 29.2944 65.997 30.5285L66.0313 32.7724L67.424 32.7912L68.8166 32.8101L68.8156 30.4772C68.8143 27.8154 68.7788 27.4984 68.3806 26.5932C67.9266 25.5613 66.9969 24.797 65.9163 24.5673C65.2541 24.4266 64.4436 24.4403 63.9032 24.6014Z" fill="white"/>
</svg>
