<svg width="60" height="45" viewBox="0 0 60 45" fill="none" xmlns="http://www.w3.org/2000/svg">
<g clip-path="url(#clip0_2015_1124)">
<path d="M8.01136 10.0388C12.414 10.0388 15.9895 13.6339 15.9895 18.0722C15.9895 18.7657 15.9007 19.437 15.7397 20.0806C15.5565 20.7907 15.2789 21.4676 14.9235 22.089C14.5738 22.6992 14.1463 23.2596 13.6521 23.7533C12.2086 25.2069 10.2155 26.1057 8.01691 26.1057V26.0003C7.93918 23.709 6.95648 21.6507 5.42415 20.1749C4.01395 18.8157 2.12629 17.9502 0.0498612 17.8503C0.105381 15.7199 0.98814 13.8003 2.38168 12.3911C3.81408 10.9376 5.80723 10.0388 8.01136 10.0388ZM0.0387573 34.1391C4.44145 34.1391 8.01691 30.544 8.01691 26.1057H0.0387573V34.1391ZM36.1764 34.1557H37.3423V26.5883L36.1209 26.8103V29.3346C35.6989 28.9573 35.1548 28.7354 34.5663 28.7354C33.145 28.7354 31.9402 29.9781 31.9402 31.5149C31.9402 33.0517 33.1284 34.2944 34.5441 34.2944C35.177 34.2944 35.7433 34.0392 36.1764 33.6176V34.1557ZM43.2829 33.1349L42.2946 32.4359C42.0059 32.8797 41.5174 33.1238 40.9844 33.1238C40.2182 33.1238 39.6186 32.6245 39.452 31.9477H43.4328C43.455 31.7701 43.4661 31.6148 43.4661 31.4261C43.4661 29.8949 42.4112 28.7354 40.8844 28.7354C39.2633 28.7354 38.1584 29.9781 38.1584 31.5149C38.1584 33.0517 39.3577 34.2944 40.9733 34.2944C41.9338 34.2889 42.7721 33.8451 43.2829 33.1349ZM47.4524 30.0114V28.8685C47.2636 28.8353 47.1193 28.8131 46.9305 28.8131C46.2199 28.8131 45.6536 29.1681 45.4759 29.734V28.8131L44.2767 29.035V34.1557H45.4981V30.0114H47.4524ZM28.7035 29.9005C29.4585 29.9005 29.9027 30.3665 29.9027 31.3207V34.1557H31.1241V31.1543C31.1241 29.8339 30.4135 28.7298 28.9755 28.7298C28.3093 28.7298 27.7319 28.985 27.2988 29.4067V28.8075L26.1329 29.0294V34.1502H27.3543V30.6051C27.6375 30.1779 28.115 29.9005 28.7035 29.9005ZM34.7773 33.1238C33.889 33.1238 33.1894 32.4026 33.1894 31.5149C33.1894 30.6272 33.889 29.906 34.7773 29.906C35.3436 29.906 35.8433 30.2056 36.1209 30.6605V32.3693C35.8433 32.8242 35.3436 33.1238 34.7773 33.1238ZM40.8789 29.845C41.5784 29.845 42.067 30.2888 42.1891 30.9546H39.4409C39.6019 30.311 40.1127 29.845 40.8789 29.845ZM23.9121 34.1557H25.1336V28.8685H23.9121V34.1557ZM18.6267 26.6438V34.1557H19.9036V31.1543H22.6296V29.9227H19.9036V27.8755H22.9961V26.6438H18.6267ZM24.5117 26.544C24.0676 26.544 23.6901 26.9101 23.6901 27.3651C23.6901 27.82 24.0676 28.1972 24.5117 28.1972C24.967 28.1972 25.3556 27.82 25.3556 27.3651C25.3556 26.9101 24.967 26.544 24.5117 26.544ZM37.1757 23.304C38.597 23.304 39.8018 22.0612 39.8018 20.5244C39.8018 18.9932 38.6137 17.7449 37.1979 17.7449C36.5761 17.7449 36.0098 18.0001 35.5768 18.4107V17.8226L34.4109 18.0445V25.1792H35.6323V22.7103C36.0542 23.082 36.5872 23.304 37.1757 23.304ZM45.6258 22.1444L44.6376 21.4454C44.3489 21.8892 43.8603 22.1333 43.3273 22.1333C42.5722 22.1333 41.9837 21.6451 41.795 20.9794H45.7757C45.7979 20.7907 45.809 20.6354 45.809 20.4357C45.809 18.9044 44.7541 17.7449 43.2274 17.7449C41.6062 17.7449 40.5014 18.9877 40.5014 20.5244C40.5014 22.0557 41.7006 23.304 43.3162 23.304C44.2822 23.304 45.115 22.8601 45.6258 22.1444ZM27.8263 19.0265V17.8781C27.6375 17.8448 27.4931 17.8226 27.3044 17.8226C26.6048 17.8226 26.0385 18.1777 25.8609 18.7435V17.8226L24.6616 18.0445V23.1653H25.872V19.0209H27.8263V19.0265ZM49.8009 19.0265V17.8781C49.6121 17.8448 49.4677 17.8226 49.279 17.8226C48.5794 17.8226 48.0131 18.1777 47.8355 18.7435V17.8226L46.6252 18.0445V23.1653H47.8466V19.0209H49.8009V19.0265ZM54.0148 22.9489L53.5373 21.8948C53.3041 22.0057 52.9821 22.1389 52.6046 22.1389C51.9495 22.1389 51.6164 21.7283 51.6164 21.0848V19.0265H53.6317V17.8781H51.6164V16.3468L50.406 16.5688V21.0792C50.406 22.4329 51.15 23.304 52.5657 23.304C53.1653 23.304 53.6706 23.1042 54.0148 22.9489ZM30.841 22.1333C29.9971 22.1333 29.3197 21.4343 29.3197 20.5244C29.3197 19.6146 29.9971 18.9155 30.841 18.9155C31.6738 18.9155 32.3622 19.6146 32.3622 20.5244C32.3622 21.4343 31.6738 22.1333 30.841 22.1333ZM36.9648 22.1333C36.4096 22.1333 35.9099 21.8448 35.6323 21.401V19.6479C35.9099 19.204 36.4096 18.9155 36.9648 18.9155C37.8531 18.9155 38.5526 19.6368 38.5526 20.5244C38.5526 21.4121 37.8531 22.1333 36.9648 22.1333ZM43.2274 18.8656C43.938 18.8656 44.4155 19.3094 44.5376 19.9641H41.7894C41.9504 19.3372 42.4612 18.8656 43.2274 18.8656ZM56.7241 25.1792L59.8388 17.8781H58.4841L56.9962 21.4787L55.475 17.8781H54.1092L56.3466 22.9433L55.4028 25.1792H56.7241ZM30.841 23.304C32.3511 23.304 33.6003 22.0834 33.6003 20.5244C33.6003 18.971 32.3566 17.7449 30.841 17.7449C29.3197 17.7449 28.0705 18.9655 28.0705 20.5244C28.0705 22.0779 29.3142 23.304 30.841 23.304ZM21.3527 16.8905C22.0522 16.8905 22.563 17.3787 22.563 18.0112C22.563 18.6548 22.0411 19.1763 21.3305 19.1763H19.9203V16.885H21.3527V16.8905ZM21.3971 15.6589H18.6267V23.1708H19.9147V20.4135H21.3471C22.7462 20.4135 23.8844 19.3594 23.8844 18.0112C23.8899 16.6797 22.774 15.6589 21.3971 15.6589Z" fill="white"/>
</g>
<defs>
<clipPath id="clip0_2015_1124">
<rect width="59.85" height="24.3" fill="white" transform="translate(0 10)"/>
</clipPath>
</defs>
</svg>
