<svg width="30" height="45" viewBox="0 0 30 45" fill="none" xmlns="http://www.w3.org/2000/svg">
<path d="M16.9287 8C23.0905 8 26.1717 7.99981 28.0859 9.91406C30.0002 11.8283 30 14.9095 30 21.0713V24.9287C30 31.0905 30.0002 34.1717 28.0859 36.0859C26.1717 38.0002 23.0905 38 16.9287 38H13.0713C6.90945 38 3.82831 38.0002 1.91406 36.0859C-0.000189489 34.1717 1.09906e-10 31.0905 0 24.9287V21.0713C1.1273e-10 14.9095 -0.000189304 11.8283 1.91406 9.91406C3.82831 7.99981 6.90945 8 13.0713 8H16.9287ZM19.2939 14.4287V20.5039C19.2939 22.4267 19.4271 22.4586 18.0449 23.29C17.7463 23.4697 17.4734 23.6862 17.2266 23.9404C16.9797 24.1947 16.7682 24.4743 16.5918 24.7803C16.4172 25.0863 16.2811 25.4177 16.1846 25.7734C16.088 26.1272 16.04 26.4964 16.04 26.877C16.04 27.2575 16.0881 27.6248 16.1846 27.9785C16.2811 28.3305 16.4172 28.6617 16.5918 28.9697C16.7682 29.2776 16.9796 29.559 17.2266 29.8135C17.4734 30.0678 17.7461 30.286 18.0449 30.4658C18.3438 30.6476 18.6653 30.7872 19.0068 30.8867C19.3504 30.9861 19.7076 31.0361 20.0771 31.0361C20.4462 31.0361 20.8043 30.986 21.1475 30.8867C21.4927 30.7872 21.8125 30.6475 22.1113 30.4658C22.4084 30.286 22.6799 30.0679 22.9268 29.8135C23.1737 29.5591 23.3832 29.2777 23.5576 28.9697C23.7322 28.6617 23.8663 28.3305 23.9629 27.9785C24.0594 27.6248 24.1074 27.2576 24.1074 26.877C24.1074 26.4964 24.0594 26.1273 23.9629 25.7734C23.8663 25.4177 23.7322 25.0863 23.5576 24.7803C23.3832 24.4743 23.1736 24.1947 22.9268 23.9404C22.6799 23.6861 22.4086 23.469 22.1113 23.29C20.735 22.4612 20.8535 22.4069 20.8535 20.5039V14.4287H20.5117V17.9385C20.5117 17.9463 20.511 17.9544 20.5098 17.9619V18.0781H20.2412V14.4287H19.9062V18.0781H19.6357V14.4287H19.2939ZM10.4648 22.7119C10.0954 22.7119 9.73895 22.7619 9.39551 22.8613C9.05392 22.9608 8.73248 23.1004 8.43359 23.2822C8.13474 23.4619 7.86203 23.6802 7.61523 23.9346C7.3683 24.1889 7.15684 24.4704 6.98047 24.7783C6.806 25.0862 6.66981 25.4168 6.57324 25.7725C6.47666 26.1263 6.42871 26.4963 6.42871 26.877C6.42874 27.2576 6.47669 27.6248 6.57324 27.9785C6.6698 28.3305 6.80592 28.6617 6.98047 28.9697C7.15678 29.2774 7.36844 29.5582 7.61523 29.8125C7.862 30.0668 8.13478 30.285 8.43359 30.4648C8.73245 30.6466 9.05397 30.7862 9.39551 30.8857C9.73895 30.9851 10.0954 31.0351 10.4648 31.0352C10.9475 31.0352 11.4139 30.9495 11.8633 30.7773C12.3125 30.6052 12.719 30.3584 13.0811 30.0371L12.2549 28.6367C12.0265 28.8911 11.7552 29.0858 11.4434 29.2217C11.1314 29.3574 10.8064 29.4268 10.4648 29.4268C10.1196 29.4267 9.79869 29.3594 9.49805 29.2256C9.1955 29.0897 8.93368 28.9081 8.70898 28.6748C8.48432 28.4433 8.30579 28.1732 8.17578 27.8652C8.04409 27.5575 7.97856 27.2287 7.97852 26.877C7.97852 26.525 8.04396 26.1936 8.17578 25.8818C8.30578 25.5701 8.48434 25.2989 8.70898 25.0693C8.93372 24.8398 9.19541 24.6573 9.49805 24.5215C9.79863 24.3878 10.1197 24.3213 10.4648 24.3213C10.8063 24.3213 11.1315 24.3897 11.4434 24.5254C11.7553 24.6612 12.0265 24.8569 12.2549 25.1113L13.0811 23.7109C12.719 23.3858 12.3126 23.1371 11.8633 22.9668C11.4139 22.7984 10.9475 22.7119 10.4648 22.7119ZM13.5586 22.8252V30.8613H15.1182V22.8252H13.5586ZM20.0771 24.3213C20.4185 24.3214 20.7395 24.3887 21.042 24.5225C21.3446 24.6583 21.6083 24.8399 21.8311 25.0693C22.0538 25.2989 22.2304 25.571 22.3604 25.8828C22.492 26.1945 22.5576 26.5252 22.5576 26.877C22.5576 27.229 22.4921 27.5583 22.3604 27.8662C22.2304 28.1741 22.0538 28.4434 21.8311 28.6748C21.6082 28.9082 21.3446 29.0907 21.042 29.2266C20.7396 29.3603 20.4185 29.4267 20.0771 29.4268L20.0752 29.4258C20.4167 29.4258 20.7384 29.3604 21.041 29.2266C21.3437 29.0907 21.6073 28.9082 21.8301 28.6748C22.0528 28.4434 22.2294 28.1741 22.3594 27.8662C22.4912 27.5583 22.5557 27.229 22.5557 26.877C22.5556 26.5252 22.4911 26.1945 22.3594 25.8828C22.2294 25.571 22.0528 25.2989 21.8301 25.0693C21.6073 24.8399 21.3436 24.6583 21.041 24.5225C20.7384 24.3886 20.4168 24.3213 20.0752 24.3213H20.0771ZM20.0684 24.6543C21.2586 24.6543 22.2236 25.6487 22.2236 26.875C22.2236 27.2169 22.1487 27.5418 22.0146 27.8311C21.9552 27.9664 21.8785 28.0909 21.793 28.207L21.792 28.208C21.7007 28.333 21.5968 28.4482 21.4824 28.5508C21.477 28.5556 21.4722 28.5606 21.4668 28.5654C21.4516 28.5789 21.4347 28.5915 21.4189 28.6045C21.2504 28.7443 21.0611 28.8585 20.8564 28.9414C20.8011 28.9642 20.7459 28.9845 20.6904 29.002C20.6708 29.0075 20.6502 29.0131 20.6299 29.0186C20.6102 29.024 20.5912 29.0293 20.5713 29.0342L20.5654 29.0361C20.561 29.0373 20.5552 29.0381 20.5508 29.0391C20.3957 29.0756 20.2342 29.0947 20.0684 29.0947C18.8782 29.0947 17.9133 28.1011 17.9131 26.875C17.9131 25.6487 18.8781 24.6543 20.0684 24.6543ZM20.0693 25.1143C19.1255 25.1143 18.3604 25.9026 18.3604 26.875C18.3605 27.3403 18.536 27.7634 18.8223 28.0781C18.7173 27.8394 18.6582 27.5741 18.6582 27.2949C18.6584 26.2458 19.4846 25.3955 20.5029 25.3955C20.735 25.3956 20.9575 25.4398 21.1621 25.5205C20.8659 25.2665 20.4848 25.1143 20.0693 25.1143ZM6.85449 14.4287V22.4648H9.25293C9.62077 22.4648 9.97396 22.4169 10.3115 22.3213C10.6507 22.2257 10.969 22.0919 11.2646 21.916C11.5604 21.74 11.8305 21.529 12.0713 21.2842C12.3118 21.0395 12.518 20.7698 12.6924 20.4717C12.8668 20.1752 12.9999 19.8551 13.0947 19.5127C13.1895 19.1723 13.2373 18.8163 13.2373 18.4453C13.2373 18.0762 13.1896 17.7203 13.0947 17.3779C12.9999 17.0376 12.8668 16.7184 12.6924 16.4199C12.5179 16.1235 12.3121 15.8513 12.0713 15.6084C11.8305 15.3636 11.5604 15.1535 11.2646 14.9775C10.969 14.8017 10.6507 14.6659 10.3115 14.5703C9.97396 14.4766 9.62077 14.4287 9.25293 14.4287H6.85449ZM13.5791 14.4287V22.4648H18.7383V20.8555H15.1387V14.4287H13.5791ZM9.25293 16.0371C9.58287 16.0371 9.89455 16.1003 10.1846 16.2266C10.4745 16.3547 10.7283 16.5272 10.9443 16.7451C11.1624 16.9632 11.3319 17.2191 11.457 17.5098C11.5802 17.8004 11.6425 18.1145 11.6426 18.4453C11.6426 18.7781 11.5801 19.0922 11.457 19.3848C11.3319 19.6774 11.1625 19.9343 10.9443 20.1523C10.7284 20.372 10.4743 20.5437 10.1846 20.668C9.89455 20.7923 9.58287 20.8555 9.25293 20.8555H8.45898V16.0371H9.25293Z" fill="white"/>
</svg>
