<svg width="56" height="45" viewBox="0 0 56 45" fill="none" xmlns="http://www.w3.org/2000/svg">
<path d="M0.000191991 27.3795C0.0263722 25.3587 1.73211 23.7489 3.78523 23.7489L5.45925 23.7489L5.45925 20.3567L1.00712 20.3567C0.740067 20.3567 0.48395 20.2522 0.295115 20.0663C0.106279 19.8804 0.00019233 19.6283 0.000192341 19.3654C0.000192353 19.1025 0.106279 18.8503 0.295115 18.6644C0.48395 18.4785 0.740067 18.3741 1.00712 18.3741L5.45925 18.3741L5.45925 16.726C5.45925 14.7053 7.0945 13.026 9.14713 13.0003C9.64581 12.9944 10.1407 13.0867 10.6026 13.2718C11.0645 13.457 11.4841 13.7312 11.8368 14.0783C12.1894 14.4255 12.468 14.8385 12.6561 15.2932C12.8443 15.7479 12.9381 16.2351 12.9322 16.726C12.906 18.7468 11.1997 20.3567 9.14713 20.3567L7.47311 20.3567L7.47311 23.7489L11.9252 23.7489C12.1923 23.7489 12.4484 23.8533 12.6372 24.0392C12.8261 24.2251 12.9322 24.4772 12.9322 24.7401C12.9322 25.0031 12.8261 25.2552 12.6372 25.4411C12.4484 25.627 12.1923 25.7314 11.9252 25.7314L7.47311 25.7314L7.47311 27.3795C7.47311 29.4002 5.83786 31.0795 3.78523 31.1052C3.28655 31.1112 2.7917 31.0188 2.3298 30.8337C1.86789 30.6486 1.44826 30.3744 1.09559 30.0272C0.742921 29.6801 0.46433 29.267 0.276213 28.8123C0.0880948 28.3576 -0.00575181 27.8704 0.000191991 27.3795ZM5.45925 25.7314L3.7364 25.7314C3.39563 25.7314 3.06251 25.8309 2.77918 26.0173C2.49585 26.2037 2.27502 26.4686 2.14464 26.7786C2.01426 27.0885 1.98017 27.4296 2.04669 27.7586C2.1132 28.0876 2.27734 28.3899 2.51834 28.627C2.75933 28.8642 3.06636 29.0257 3.4006 29.0911C3.73483 29.1565 4.08125 29.1228 4.39606 28.9944C4.71086 28.8659 4.97989 28.6485 5.16914 28.3695C5.35839 28.0905 5.45935 27.7625 5.45925 27.427L5.45925 25.7314ZM10.9183 16.6785C10.9222 16.4533 10.8806 16.2297 10.7957 16.0205C10.7109 15.8114 10.5847 15.621 10.4243 15.4604C10.264 15.2999 10.0728 15.1723 9.86182 15.0853C9.65088 14.9982 9.42444 14.9534 9.19571 14.9534C8.96699 14.9534 8.74055 14.9982 8.52961 15.0853C8.31867 15.1723 8.12745 15.2999 7.9671 15.4604C7.80676 15.621 7.68049 15.8114 7.59568 16.0205C7.51087 16.2297 7.4692 16.4533 7.47311 16.6785L7.47311 18.3741L9.19596 18.3741C9.65259 18.3735 10.0904 18.1947 10.4133 17.8769C10.7361 17.559 10.9178 17.128 10.9183 16.6785Z" fill="white"/>
<path d="M0.000191991 27.3795C0.0263722 25.3587 1.73211 23.7489 3.78523 23.7489L5.45925 23.7489L5.45925 20.3567L1.00712 20.3567C0.740067 20.3567 0.48395 20.2522 0.295115 20.0663C0.106279 19.8804 0.00019233 19.6283 0.000192341 19.3654C0.000192353 19.1025 0.106279 18.8503 0.295115 18.6644C0.48395 18.4785 0.740067 18.3741 1.00712 18.3741L5.45925 18.3741L5.45925 16.726C5.45925 14.7053 7.0945 13.026 9.14713 13.0003C9.64581 12.9944 10.1407 13.0867 10.6026 13.2718C11.0645 13.457 11.4841 13.7312 11.8368 14.0783C12.1894 14.4255 12.468 14.8385 12.6561 15.2932C12.8443 15.7479 12.9381 16.2351 12.9322 16.726C12.906 18.7468 11.1997 20.3567 9.14713 20.3567L7.47311 20.3567L7.47311 23.7489L11.9252 23.7489C12.1923 23.7489 12.4484 23.8533 12.6372 24.0392C12.8261 24.2251 12.9322 24.4772 12.9322 24.7401C12.9322 25.0031 12.8261 25.2552 12.6372 25.4411C12.4484 25.627 12.1923 25.7314 11.9252 25.7314L7.47311 25.7314L7.47311 27.3795C7.47311 29.4002 5.83786 31.0795 3.78523 31.1052C3.28655 31.1112 2.7917 31.0188 2.3298 30.8337C1.86789 30.6486 1.44826 30.3744 1.09559 30.0272C0.742921 29.6801 0.46433 29.267 0.276213 28.8123C0.0880948 28.3576 -0.00575181 27.8704 0.000191991 27.3795ZM5.45925 25.7314L3.7364 25.7314C3.39563 25.7314 3.06251 25.8309 2.77918 26.0173C2.49585 26.2037 2.27502 26.4686 2.14464 26.7786C2.01426 27.0885 1.98017 27.4296 2.04669 27.7586C2.1132 28.0876 2.27734 28.3899 2.51834 28.627C2.75933 28.8642 3.06636 29.0257 3.4006 29.0911C3.73483 29.1565 4.08125 29.1228 4.39606 28.9944C4.71086 28.8659 4.97989 28.6485 5.16914 28.3695C5.35839 28.0905 5.45935 27.7625 5.45925 27.427L5.45925 25.7314ZM10.9183 16.6785C10.9222 16.4533 10.8806 16.2297 10.7957 16.0205C10.7109 15.8114 10.5847 15.621 10.4243 15.4604C10.264 15.2999 10.0728 15.1723 9.86182 15.0853C9.65088 14.9982 9.42444 14.9534 9.19571 14.9534C8.96699 14.9534 8.74055 14.9982 8.52961 15.0853C8.31867 15.1723 8.12745 15.2999 7.9671 15.4604C7.80676 15.621 7.68049 15.8114 7.59568 16.0205C7.51087 16.2297 7.4692 16.4533 7.47311 16.6785L7.47311 18.3741L9.19596 18.3741C9.65259 18.3735 10.0904 18.1947 10.4133 17.8769C10.7361 17.559 10.9178 17.128 10.9183 16.6785Z" fill="white"/>
<path d="M16.5363 27.0527V16.5186H18.7635V25.2165H23.2796V27.0527H16.5363ZM24.4237 27.0527V19.1521H26.6148V27.0527H24.4237ZM25.5244 18.1337C25.1986 18.1337 24.9192 18.0257 24.686 17.8097C24.4562 17.5902 24.3414 17.3279 24.3414 17.0227C24.3414 16.7209 24.4562 16.462 24.686 16.246C24.9192 16.0265 25.1986 15.9168 25.5244 15.9168C25.8502 15.9168 26.1279 16.0265 26.3577 16.246C26.5908 16.462 26.7074 16.7209 26.7074 17.0227C26.7074 17.3279 26.5908 17.5902 26.3577 17.8097C26.1279 18.0257 25.8502 18.1337 25.5244 18.1337ZM30.0658 24.7793L30.071 22.1509H30.3899L32.9205 19.1521H35.4358L32.0358 23.123H31.5163L30.0658 24.7793ZM28.0804 27.0527V16.5186H30.2716V27.0527H28.0804ZM33.0183 27.0527L30.6934 23.6117L32.1541 22.0634L35.5849 27.0527H33.0183ZM39.4963 27.207C38.6836 27.207 37.9841 27.0424 37.3977 26.7133C36.8148 26.3806 36.3655 25.9109 36.0501 25.3039C35.7346 24.6935 35.5769 23.9717 35.5769 23.1384C35.5769 22.3258 35.7346 21.6125 36.0501 20.9987C36.3655 20.3849 36.8096 19.9065 37.3823 19.5636C37.9583 19.2207 38.6339 19.0493 39.4088 19.0493C39.9301 19.0493 40.4153 19.1333 40.8645 19.3013C41.3171 19.4659 41.7115 19.7145 42.0475 20.0471C42.387 20.3798 42.651 20.7981 42.8396 21.3022C43.0282 21.8028 43.1225 22.3892 43.1225 23.0613V23.6631H36.4513V22.3052H41.0599C41.0599 21.9897 40.9914 21.7102 40.8542 21.4668C40.717 21.2233 40.5267 21.033 40.2833 20.8958C40.0432 20.7552 39.7638 20.6849 39.4449 20.6849C39.1122 20.6849 38.8173 20.7621 38.5602 20.9164C38.3064 21.0673 38.1075 21.2713 37.9635 21.5285C37.8195 21.7822 37.7457 22.0651 37.7423 22.3772V23.6682C37.7423 24.0592 37.8143 24.3969 37.9583 24.6815C38.1058 24.9661 38.3133 25.1856 38.5807 25.3399C38.8482 25.4942 39.1654 25.5714 39.5323 25.5714C39.7758 25.5714 39.9986 25.5371 40.201 25.4685C40.4033 25.3999 40.5764 25.297 40.7205 25.1599C40.8645 25.0227 40.9742 24.8547 41.0497 24.6558L43.0762 24.7895C42.9734 25.2765 42.7625 25.7017 42.4436 26.0652C42.1281 26.4252 41.72 26.7064 41.2194 26.9087C40.7222 27.1076 40.1478 27.207 39.4963 27.207ZM46.4539 16.5186V27.0527H44.2628V16.5186H46.4539ZM49.2723 30.0155C48.9945 30.0155 48.7339 29.9932 48.4905 29.9486C48.2504 29.9074 48.0515 29.8543 47.8938 29.7891L48.3876 28.1535C48.6448 28.2323 48.8762 28.2752 49.082 28.2821C49.2911 28.2889 49.4712 28.2409 49.6221 28.138C49.7764 28.0352 49.9015 27.8603 49.9975 27.6134L50.1261 27.2791L47.292 19.1521H49.5963L51.232 24.9541H51.3143L52.9654 19.1521H55.2852L52.2144 27.9066C52.067 28.3318 51.8664 28.7021 51.6126 29.0176C51.3623 29.3365 51.0451 29.5817 50.6611 29.7531C50.277 29.928 49.8141 30.0155 49.2723 30.0155Z" fill="white"/>
</svg>
