<svg width="79" height="45" viewBox="0 0 79 45" fill="none" xmlns="http://www.w3.org/2000/svg">
<g clip-path="url(#clip0_2015_1101)">
<g clip-path="url(#clip1_2015_1101)">
<path d="M12.4852 18.3402C12.8202 18.3928 12.8872 18.3232 12.9324 18.0008C13.0428 17.251 13.2623 16.5219 13.5839 15.8374C14.0227 14.9244 14.7177 13.9216 15.6975 13.248C16.6845 12.602 17.7714 12.1282 18.913 11.8464C19.6823 11.6748 20.4728 11.6216 21.2577 11.6886C22.6679 11.8175 23.4483 12.2248 23.8402 12.7525C23.9706 12.9279 24.0485 13.1376 24.0646 13.3566C24.0763 13.6196 23.9641 13.9606 23.5907 14.2966C23.2172 14.6326 22.4568 15.0313 21.4034 15.3894C20.3115 15.7576 18.8176 16.1479 17.3287 16.494C16.4656 16.6913 15.6145 16.9389 14.7797 17.2355C13.7949 17.5749 13.4985 18.5676 14.1098 18.8713C14.7989 19.2128 15.4431 19.6404 16.0274 20.1439C16.9656 20.8986 17.8222 21.7518 18.5831 22.6892C19.5092 23.8363 21.0266 26.0252 21.5709 28.1496C22.1755 30.4828 21.7987 32.6938 20.4957 33.3114C19.2178 33.9189 17.5163 33.0433 16.3205 31.7843C15.185 30.5965 14.3911 29.1898 13.6408 27.0331C12.9944 25.1666 12.7331 22.4737 12.7331 21.0619L12.7448 20.0676C12.7884 19.6977 11.8036 19.3888 10.7451 20.0812C9.54098 20.8668 8.36194 22.2871 7.66524 23.1151C7.3621 23.4765 6.95011 24.006 6.51634 24.5608C5.94189 25.2905 5.30883 26.0507 4.73103 26.4749C3.86517 27.101 2.47009 27.3725 1.48699 26.6666C0.942693 26.2729 0.649607 25.5297 0.649607 24.7729C0.641914 24.2506 0.775101 23.7361 1.03481 23.2848C1.36976 22.7028 1.90066 22.0766 2.75647 21.3606C3.88701 20.4724 5.13594 19.7509 6.4661 19.2175C8.62321 18.3368 10.9461 18.0602 12.4852 18.3402Z" fill="#FAFAFA"/>
</g>
<g clip-path="url(#clip2_2015_1101)">
<path d="M29.6459 20.1717H28.2246C28.0872 20.1717 28.0872 19.9132 28.0872 19.7139C28.0872 19.5145 28.0872 19.2576 28.2246 19.2576H29.6459V16.7113C29.6459 16.5929 29.9589 16.5929 30.1742 16.5929C30.4261 16.5929 30.7008 16.5929 30.7008 16.7113V19.2576H33.1435C33.2595 19.2576 33.2595 19.4756 33.2595 19.7139C33.2595 19.9521 33.2595 20.1717 33.1435 20.1717H30.7008V28.0022C30.7008 28.3137 30.7207 28.9164 31.481 28.9164H33.1175C33.2351 28.9164 33.2351 29.1562 33.2351 29.3524C33.2351 29.5486 33.2351 29.79 33.1175 29.79H31.2642C29.9986 29.79 29.6459 29.0114 29.6459 27.8823V20.1717Z" fill="white"/>
<path d="M35.0091 24.9387V25.9713C35.0091 28.2201 36.4701 29.0751 38.0105 29.0751C39.1283 29.0898 40.2291 28.7943 41.1951 28.2201C41.3126 28.1609 41.4485 28.4179 41.5447 28.597C41.6409 28.7761 41.7783 29.0346 41.6424 29.1156C40.6485 29.6918 39.8486 30.0298 38.0486 30.0298C35.4778 30.0298 33.9557 28.558 33.9557 26.0522V22.7506C33.9557 20.1716 35.2625 18.8198 37.8364 18.8198C40.4104 18.8198 41.8179 20.1327 41.8179 22.6914V24.9387H35.0091ZM40.7661 22.8737C40.7661 20.6326 39.3616 19.7963 37.8364 19.7963C36.3357 19.7963 35.0091 20.6124 35.0091 22.8737V23.9638H40.7661V22.8737Z" fill="white"/>
<path d="M43.4545 27.8822V15.2675C43.4545 15.1476 43.7873 15.1476 43.9827 15.1476C44.1782 15.1476 44.5079 15.1476 44.5079 15.2675V28.0099C44.5079 28.3214 44.5278 28.9241 45.288 28.9241H45.9674C46.0849 28.9241 46.0849 29.1639 46.0849 29.3601C46.0849 29.5564 46.0849 29.7978 45.9674 29.7978H45.0697C43.8072 29.79 43.4545 29.0144 43.4545 27.8822Z" fill="white"/>
<path d="M47.7994 24.9387V25.9713C47.7994 28.2201 49.2619 29.0751 50.8023 29.0751C51.9242 29.0915 53.0294 28.7959 53.9991 28.2201C54.1166 28.1609 54.2525 28.4179 54.3502 28.597C54.4479 28.7761 54.5838 29.0346 54.4479 29.1156C53.4541 29.6918 52.6526 30.0298 50.8405 30.0298C48.2681 30.0298 46.746 28.558 46.746 26.0522V22.7506C46.746 20.1716 48.0528 18.8198 50.6267 18.8198C53.2007 18.8198 54.6235 20.1327 54.6235 22.6914V24.9387H47.7994ZM53.5716 22.8737C53.5716 20.6326 52.1656 19.7963 50.6267 19.7963C49.1245 19.7963 47.7994 20.6124 47.7994 22.8737V23.9638H53.5716V22.8737Z" fill="white"/>
<path d="M63.1482 29.8709C62.9528 29.8709 62.623 29.8709 62.623 29.751V22.6914C62.623 20.4504 61.8032 19.7932 60.2827 19.7932C58.7621 19.7932 57.2996 22.1931 57.2996 22.1931V29.751C57.2996 29.8709 56.9668 29.8709 56.7729 29.8709C56.579 29.8709 56.2462 29.8709 56.2462 29.751V19.0581C56.2462 18.9382 56.5775 18.9382 56.7729 18.9382C56.9683 18.9382 57.2798 18.9382 57.2798 19.0581V20.9674C57.6691 20.4504 58.5866 18.8198 60.5361 18.8198C62.5635 18.8198 63.6749 20.1124 63.6749 22.1339V29.751C63.6764 29.8709 63.3436 29.8709 63.1482 29.8709Z" fill="white"/>
<path d="M65.2733 26.1441V22.6914C65.2733 20.1124 66.7542 18.8198 69.3296 18.8198C71.9051 18.8198 73.4088 20.1327 73.4088 22.6914V26.1441C73.4088 28.7107 71.9219 30.0235 69.3296 30.0235C66.7374 30.0235 65.2733 28.7372 65.2733 26.1441ZM69.325 19.7932C67.8244 19.7932 66.3206 20.6092 66.3206 22.8705V25.9713C66.3206 28.2201 67.8045 29.0751 69.325 29.0751C70.8456 29.0751 72.3661 28.259 72.3661 25.9713V22.8737C72.3784 20.6295 70.87 19.7932 69.325 19.7932Z" fill="white"/>
<path d="M76.8987 21.2852C76.4315 21.8754 75.943 22.5918 75.943 22.5918V29.7557C75.943 29.8756 75.6117 29.8756 75.4163 29.8756C75.2209 29.8756 74.9094 29.8756 74.9094 29.7557V19.0582C74.9094 18.9382 75.2392 18.9382 75.4361 18.9382C75.6331 18.9382 75.943 18.9382 75.943 19.0582V21.4721C75.943 21.4721 76.488 20.6778 76.6834 20.399C77.4467 19.3447 77.9322 18.9865 78.868 18.9865H79.2588C79.3749 18.9865 79.3749 19.3634 79.3749 19.5627C79.3749 19.7621 79.3749 20.1405 79.2588 20.1405C78.0879 20.1327 77.7368 20.2262 76.8987 21.2852Z" fill="white"/>
</g>
</g>
<defs>
<clipPath id="clip0_2015_1101">
<rect width="79" height="45" fill="white"/>
</clipPath>
<clipPath id="clip1_2015_1101">
<rect width="24.71" height="23.1655" fill="white" transform="translate(0.00231934 11.0022)"/>
</clipPath>
<clipPath id="clip2_2015_1101">
<rect width="51.2878" height="14.89" fill="white" transform="translate(28.0872 15.1399)"/>
</clipPath>
</defs>
</svg>
