<svg width="100" height="45" viewBox="0 0 100 45" fill="none" xmlns="http://www.w3.org/2000/svg">
<path d="M28.7716 26.2785H26.8666V21.9923C26.8666 21.3392 26.7033 20.872 26.3768 20.5908C26.0502 20.3005 25.5785 20.1554 24.9616 20.1554H23.1927V26.2785H21.2877V16.7536H23.1927V19.2029H24.9616C26.2588 19.2029 27.2159 19.4387 27.8327 19.9104C28.4587 20.3731 28.7716 21.067 28.7716 21.9923V26.2785Z" fill="white"/>
<path d="M34.6849 25.5982C35.1293 25.5982 35.5421 25.5211 35.9231 25.3669C36.3132 25.2127 36.6942 24.9949 37.0661 24.7137L37.6104 25.5302C37.438 25.6844 37.2339 25.825 36.9981 25.952C36.7713 26.079 36.5218 26.1878 36.2497 26.2785C35.9866 26.3602 35.7099 26.4237 35.4196 26.469C35.1293 26.5235 34.8391 26.5507 34.5488 26.5507C33.9047 26.5507 33.3151 26.4645 32.7799 26.2922C32.2537 26.1289 31.8047 25.8885 31.4328 25.571C31.0608 25.2444 30.7705 24.8453 30.5619 24.3736C30.3623 23.9018 30.2625 23.3576 30.2625 22.7407C30.2625 22.1329 30.3578 21.5932 30.5483 21.1215C30.7479 20.6407 31.02 20.2415 31.3647 19.924C31.7185 19.5975 32.1358 19.3525 32.6166 19.1893C33.0974 19.0169 33.628 18.9307 34.2086 18.9307C34.7529 18.9307 35.2654 19.0124 35.7462 19.1756C36.227 19.3389 36.6443 19.5793 36.9981 19.8968C37.3518 20.2053 37.6331 20.5817 37.8417 21.0262C38.0503 21.4707 38.1547 21.9742 38.1547 22.5366V23.4891H32.3444C32.4533 24.242 32.7118 24.7818 33.12 25.1083C33.5373 25.4349 34.0589 25.5982 34.6849 25.5982ZM34.2086 19.8152C33.9455 19.8152 33.7006 19.8651 33.4738 19.9649C33.247 20.0646 33.0475 20.2234 32.8751 20.4411C32.7118 20.6588 32.5758 20.94 32.4669 21.2847C32.3671 21.6295 32.3127 22.0467 32.3036 22.5366H36.1136C36.1136 22.0649 36.0592 21.6567 35.9503 21.312C35.8415 20.9672 35.6963 20.686 35.5149 20.4683C35.3425 20.2415 35.1384 20.0783 34.9026 19.9785C34.6758 19.8696 34.4445 19.8152 34.2086 19.8152Z" fill="white"/>
<path d="M45.2973 26.0064H43.5284C42.2312 26.0064 41.2696 25.7751 40.6437 25.3124C40.0268 24.8407 39.7184 24.1422 39.7184 23.217V19.2029H41.6234V23.217C41.6234 23.8701 41.7867 24.3418 42.1133 24.6321C42.4398 24.9133 42.9115 25.0539 43.5284 25.0539H45.2973V19.2029H47.2023V26.1425C47.2023 26.5688 47.1207 26.9544 46.9574 27.2991C46.7941 27.6529 46.5492 27.9568 46.2226 28.2108C45.9051 28.4648 45.5014 28.6598 45.0116 28.7959C44.5308 28.9319 43.9684 29 43.3243 29C43.1066 29 42.8707 28.9818 42.6167 28.9455C42.3718 28.9183 42.1223 28.8684 41.8683 28.7959C41.6143 28.7324 41.3649 28.6462 41.1199 28.5373C40.8841 28.4375 40.6664 28.3196 40.4668 28.1835L41.0111 27.3671C41.3195 27.5758 41.6642 27.739 42.0452 27.857C42.4262 27.984 42.8072 28.0475 43.1882 28.0475C43.8686 28.0475 44.3902 27.8933 44.753 27.5848C45.1159 27.2764 45.2973 26.7956 45.2973 26.1425V26.0064Z" fill="white"/>
<path d="M56.9372 25.258V26.2785H49.1131V16.7536H51.0862V25.258H56.9372Z" fill="white"/>
<path d="M57.6176 19.2029H59.5226V23.4891C59.5226 24.1422 59.6858 24.6139 60.0124 24.9042C60.339 25.1854 60.8107 25.3261 61.4276 25.3261H63.1965V19.2029H65.1015V26.2785H61.4276C60.1303 26.2785 59.1688 26.0472 58.5429 25.5846C57.926 25.1129 57.6176 24.4144 57.6176 23.4891V19.2029Z" fill="white"/>
<path d="M74.4962 26.2785H72.5912V21.9923C72.5912 21.3392 72.4279 20.872 72.1014 20.5908C71.7748 20.3005 71.3031 20.1554 70.6862 20.1554H68.9173V26.2785H67.0123V19.2029H70.6862C71.9834 19.2029 72.9405 19.4387 73.5573 19.9104C74.1832 20.3731 74.4962 21.067 74.4962 21.9923V26.2785Z" fill="white"/>
<path d="M77.8921 24.0334C77.8921 24.8952 78.4137 25.3261 79.4569 25.3261H81.3619V22.7407H79.4569C78.4137 22.7407 77.8921 23.1716 77.8921 24.0334ZM81.3619 21.7882C81.3619 21.1351 81.1896 20.6543 80.8449 20.3459C80.5092 20.0374 80.0693 19.8832 79.525 19.8832C79.1168 19.8832 78.7176 19.9467 78.3276 20.0737C77.9375 20.1916 77.5882 20.3549 77.2798 20.5636L76.8036 19.7471C77.0031 19.6111 77.2208 19.4931 77.4567 19.3934C77.7016 19.2936 77.9511 19.2119 78.2051 19.1484C78.4591 19.0759 78.7086 19.0214 78.9535 18.9851C79.2075 18.9489 79.4433 18.9307 79.6611 18.9307C80.2416 18.9307 80.7542 18.9988 81.1987 19.1348C81.6431 19.2709 82.0196 19.4659 82.328 19.7199C82.6365 19.9739 82.8678 20.2778 83.022 20.6316C83.1853 20.9763 83.2669 21.3619 83.2669 21.7882V26.2785H79.4569C78.2232 26.2785 77.3116 26.0926 76.7219 25.7207C76.1414 25.3487 75.8511 24.7863 75.8511 24.0334C75.8511 23.2805 76.1414 22.718 76.7219 22.3461C77.3116 21.9742 78.2232 21.7882 79.4569 21.7882H81.3619Z" fill="white"/>
<path d="M86.8664 25.3941C86.8664 25.6662 86.7712 25.9066 86.5807 26.1153C86.3993 26.3148 86.1543 26.4146 85.8459 26.4146C85.5375 26.4146 85.288 26.3148 85.0975 26.1153C84.9161 25.9066 84.8254 25.6662 84.8254 25.3941C84.8254 25.1219 84.9161 24.8861 85.0975 24.6865C85.288 24.4779 85.5375 24.3736 85.8459 24.3736C86.1453 24.3736 86.3902 24.4779 86.5807 24.6865C86.7712 24.8861 86.8664 25.1219 86.8664 25.3941Z" fill="white"/>
<path d="M90.0641 24.0334C90.0641 24.8952 90.5857 25.3261 91.6289 25.3261H93.5339V22.7407H91.6289C90.5857 22.7407 90.0641 23.1716 90.0641 24.0334ZM93.5339 21.7882C93.5339 21.1351 93.3615 20.6543 93.0168 20.3459C92.6812 20.0374 92.2412 19.8832 91.6969 19.8832C91.2887 19.8832 90.8896 19.9467 90.4995 20.0737C90.1094 20.1916 89.7602 20.3549 89.4518 20.5636L88.9755 19.7471C89.1751 19.6111 89.3928 19.4931 89.6287 19.3934C89.8736 19.2936 90.1231 19.2119 90.3771 19.1484C90.6311 19.0759 90.8805 19.0214 91.1254 18.9851C91.3794 18.9489 91.6153 18.9307 91.833 18.9307C92.4136 18.9307 92.9261 18.9988 93.3706 19.1348C93.8151 19.2709 94.1916 19.4659 94.5 19.7199C94.8084 19.9739 95.0397 20.2778 95.194 20.6316C95.3572 20.9763 95.4389 21.3619 95.4389 21.7882V26.2785H91.6289C90.3952 26.2785 89.4835 26.0926 88.8939 25.7207C88.3133 25.3487 88.023 24.7863 88.023 24.0334C88.023 23.2805 88.3133 22.718 88.8939 22.3461C89.4835 21.9742 90.3952 21.7882 91.6289 21.7882H93.5339Z" fill="white"/>
<path d="M99.2425 26.2785H97.3375V19.3389H99.2425V26.2785ZM99.3105 17.502C99.3105 17.7741 99.2153 18.0145 99.0248 18.2232C98.8434 18.4227 98.5984 18.5225 98.29 18.5225C97.9816 18.5225 97.7321 18.4227 97.5416 18.2232C97.3602 18.0145 97.2695 17.7741 97.2695 17.502C97.2695 17.2298 97.3602 16.994 97.5416 16.7944C97.7321 16.5858 97.9816 16.4814 98.29 16.4814C98.5894 16.4814 98.8343 16.5858 99.0248 16.7944C99.2153 16.994 99.3105 17.2298 99.3105 17.502Z" fill="white"/>
<rect x="2.48029" y="18.6042" width="1.48822" height="6.07688" fill="#CFCFCF"/>
<rect x="4.96082" y="19.1005" width="1.48822" height="7.37907" fill="white"/>
<rect x="9.92139" y="18.2944" width="1.48822" height="8.18519" fill="white"/>
<rect x="12.4018" y="20.2166" width="1.48822" height="4.77469" fill="#CFCFCF"/>
<rect x="14.8821" y="20.8988" width="1.48822" height="2.7904" fill="white"/>
<rect y="21.0226" width="1.48822" height="2.7904" fill="white"/>
<rect x="7.44098" y="16" width="1.48822" height="12.7738" fill="#CFCFCF"/>
</svg>
