<svg width="62" height="50" viewBox="0 0 62 50" fill="none" xmlns="http://www.w3.org/2000/svg">
<path d="M20.1443 26.2959C19.3966 26.2959 18.2859 26.5148 17.5598 27.586C17.1752 28.1446 16.2812 29.5234 16.2812 29.5234L16.227 29.5798L14.1194 26.2959H10.8414L14.6124 31.6089L10.9606 36.8698H13.9893L16.2216 33.6612L18.4267 36.8698H21.3687L17.717 31.4398L21.4012 26.2959H20.1226H20.1443ZM22.4794 28.1056V36.8698H25.1614V26.0061C24.858 26.0819 23.6064 26.4622 22.9237 27.1742C22.6311 27.476 22.4794 27.8206 22.4794 28.1056ZM42.911 28.513L44.1517 26.2959H40.6137V22.2865C39.568 22.6528 38.6957 23.2428 38.3923 23.6102C38.0672 24.0035 37.948 24.3303 37.948 24.9652V33.9343C37.948 35.1669 38.2623 35.9357 38.777 36.4017C39.2971 36.8687 39.9093 37.0524 40.8358 37.0524C41.8057 37.0524 42.51 36.8357 43.1223 36.4846V34.656C42.7159 34.8451 42.25 34.9545 41.7461 34.9545C41.3831 34.9545 41.0905 34.8597 40.89 34.6484C40.695 34.4333 40.6137 34.1315 40.6137 33.7582V28.5141H42.911V28.513ZM52.7177 27.347C51.7316 26.3452 50.5884 26.1751 49.1526 26.174C47.6626 26.174 46.2918 26.764 46.0318 26.9591C45.8096 27.1243 45.6633 27.3454 45.6633 27.6385V29.0537C46.644 28.7211 47.9227 28.5244 48.7083 28.5244C49.4993 28.5244 50.182 28.6176 50.6209 28.9806C51.1302 29.3999 51.1898 30.0972 51.1898 30.4331C51.1898 30.5534 51.1898 30.6266 51.1898 30.6266V30.6699H51.1356C51.1356 30.6699 49.9544 30.5388 48.7137 30.5388C47.4784 30.5388 46.3894 30.768 45.6471 31.3515C44.9915 31.8619 44.4768 32.8317 44.4768 33.8557C44.4768 35.0271 44.9915 35.8436 45.5875 36.3323C46.1997 36.8422 47.3538 37.0779 48.3182 37.0779C49.3585 37.0779 50.0574 36.9056 50.4962 36.7344C50.9351 36.5599 51.1085 36.3941 51.1085 36.3941L51.1789 36.3269V36.8758H53.72V30.717C53.72 29.2764 53.4653 28.1077 52.7177 27.3514M51.1789 33.309C51.1789 33.8823 50.9351 34.6528 50.117 35.0038C49.716 35.1734 49.2989 35.2644 48.8925 35.2644C48.4861 35.2644 48.096 35.1712 47.7601 34.9664C47.3267 34.7015 47.1641 34.2307 47.1641 33.7983C47.1641 33.5009 47.24 33.2197 47.3646 33.0219C47.6626 32.5505 48.264 32.2547 49.2447 32.2309C49.3259 32.2309 49.4018 32.2309 49.4722 32.2309C50.5775 32.2309 51.1789 32.4416 51.1789 32.4416V33.3107V33.309ZM31.4518 26.1784C29.9618 26.1784 28.591 26.7684 28.3309 26.9634C28.1142 27.1287 27.9625 27.3497 27.9625 27.6429V29.0581C28.9432 28.7254 30.2218 28.5287 31.0075 28.5287C31.7985 28.5287 32.4812 28.6219 32.92 28.9849C33.4239 29.4043 33.4889 30.1016 33.4889 30.4375C33.4889 30.5578 33.4889 30.6309 33.4889 30.6309V30.6743H33.4348C33.4348 30.6743 32.2536 30.5431 31.0129 30.5431C29.7722 30.5431 28.6885 30.7723 27.9463 31.3558C27.2907 31.8662 26.776 32.8361 26.776 33.8601C26.776 35.0315 27.2907 35.848 27.8867 36.3367C28.4989 36.8465 29.653 37.0822 30.6174 37.0822C31.6522 37.0822 32.3566 36.9099 32.7954 36.7387C33.2343 36.5642 33.4077 36.3984 33.4077 36.3984L33.4781 36.3312V36.8801H36.0192V30.7214C36.0192 29.2807 35.7645 28.1121 35.0168 27.3557C34.0253 26.3539 32.8875 26.1838 31.4518 26.1827M33.4835 33.3134C33.4835 33.8866 33.2397 34.6571 32.4162 35.0082C32.0152 35.1778 31.598 35.2688 31.1917 35.2688C30.7853 35.2688 30.3898 35.1756 30.0593 34.9708C29.6313 34.7058 29.4633 34.235 29.4633 33.8026C29.4633 33.5052 29.5392 33.224 29.6638 33.0262C29.9672 32.5549 30.5632 32.259 31.5493 32.2352C31.6197 32.2352 31.701 32.2352 31.7714 32.2352C32.8767 32.2352 33.4835 32.446 33.4835 32.446V33.315V33.3134ZM5.38545 26.1827C3.89548 26.1822 2.51929 26.7727 2.26464 26.9678C2.0425 27.133 1.89621 27.3541 1.89621 27.6472V29.0624C2.87146 28.7297 4.15554 28.5331 4.93575 28.5331C5.7322 28.5331 6.40946 28.6262 6.85374 28.9892C7.35762 29.4086 7.42264 30.1059 7.42264 30.4418C7.42264 30.5621 7.42264 30.6352 7.42264 30.6352V30.6786H7.36846C7.36846 30.6786 6.18732 30.5475 4.94116 30.5475C3.70585 30.5475 2.62223 30.7767 1.87454 31.3602C1.21895 31.8706 0.709656 32.8404 0.709656 33.8644C0.709656 35.0358 1.22437 35.8523 1.82036 36.341C2.4326 36.8508 3.58665 37.0865 4.55106 37.0865C5.59133 37.0865 6.28484 36.9142 6.72912 36.743C7.16799 36.5686 7.34137 36.4028 7.34137 36.4028L7.4118 36.3356V36.8844H9.94745V30.7257C9.94745 29.2851 9.69281 28.1164 8.94511 27.36C7.95903 26.3582 6.81581 26.1881 5.38003 26.187M7.4118 33.3177C7.4118 33.891 7.16799 34.6614 6.34986 35.0125C5.94892 35.1821 5.52631 35.2731 5.12538 35.2731C4.7136 35.2731 4.3235 35.1799 3.993 34.9751C3.55956 34.7102 3.3916 34.2393 3.3916 33.807C3.3916 33.5095 3.46745 33.2283 3.59207 33.0306C3.89548 32.5592 4.49146 32.2634 5.47755 32.2395C5.55341 32.2395 5.62926 32.2395 5.69969 32.2395C6.80498 32.2395 7.4118 32.4503 7.4118 32.4503V33.3194V33.3177Z" fill="white"/>
<path d="M45.7772 19.1035L53.7093 23.684V14.5258L45.7772 19.1035Z" fill="#CFCFCF"/>
<path d="M45.7772 0.79043V9.94641L53.7093 5.36979L45.7772 0.79043Z" fill="#FAFAFA"/>
<path d="M53.7093 5.36978L45.7772 9.94639L53.7093 14.5258V5.36978Z" fill="#CFCFCF"/>
<path d="M53.7146 14.5263L61.6412 19.1035V9.94701L53.7146 14.5263Z" fill="#CFCFCF"/>
<path d="M53.7146 14.5264L61.6412 9.94704L53.7146 5.37039V14.5264Z" fill="#FAFAFA"/>
<path d="M53.7146 23.6844L61.6412 19.1035L53.7146 14.5263V23.6844Z" fill="#FAFAFA"/>
</svg>
