<svg width="70" height="45" viewBox="0 0 70 45" fill="none" xmlns="http://www.w3.org/2000/svg">
<g clip-path="url(#clip0_2015_826)">
<path d="M24.6241 22.4162H23.5551L23.2455 21.4873H21.3803L21.0633 22.4162H19.9944L21.9038 17.1673H22.7073L24.6241 22.4162ZM22.9727 20.6248L22.3313 18.7154L21.6679 20.6248H22.9727Z" fill="white"/>
<path d="M29.5169 22.4162H28.3226L26.9735 20.0277L26.2953 20.8386V22.4162H25.2706V17.1673H26.2953V19.4526L28.1457 17.1673H29.3916L27.6518 19.2536L29.5169 22.4162Z" fill="white"/>
<path d="M31.1981 22.4162H30.1733V17.1673H31.1981V22.4162Z" fill="white"/>
<path d="M35.0293 20.6912C35.0293 20.9811 34.9776 21.2367 34.8744 21.4579C34.7761 21.679 34.641 21.8633 34.469 22.0108C34.297 22.1582 34.0979 22.2712 33.8718 22.3499C33.6507 22.4236 33.4197 22.4605 33.1788 22.4605C32.8938 22.4605 32.6456 22.4211 32.4343 22.3425C32.2278 22.259 32.0263 22.1189 31.8298 21.9223L32.508 21.2514C32.5915 21.335 32.68 21.4063 32.7734 21.4652C32.8717 21.5193 33.0068 21.5463 33.1788 21.5463C33.4295 21.5463 33.6285 21.4726 33.776 21.3252C33.9283 21.1777 34.0045 20.9516 34.0045 20.6469V17.1673H35.0293V20.6912Z" fill="white"/>
<path d="M41.2894 20.8681C41.2894 21.1237 41.2378 21.3497 41.1346 21.5463C41.0363 21.7429 40.8987 21.91 40.7217 22.0476C40.5497 22.1803 40.3458 22.2835 40.1099 22.3573C39.8739 22.4261 39.6184 22.4605 39.3432 22.4605C38.9451 22.4605 38.5887 22.4113 38.2742 22.313C37.9646 22.2098 37.682 22.028 37.4264 21.7675L38.0899 21.104C38.257 21.2711 38.4487 21.3866 38.6649 21.4505C38.8812 21.5144 39.1122 21.5463 39.3579 21.5463C39.6626 21.5463 39.8936 21.4923 40.0509 21.3841C40.2082 21.2711 40.2868 21.1089 40.2868 20.8976C40.2868 20.7059 40.2327 20.5585 40.1246 20.4552C40.0705 20.4061 40.0091 20.3692 39.9403 20.3447C39.8764 20.3152 39.783 20.2906 39.6602 20.2709L39.0262 20.1825C38.5789 20.1186 38.2398 19.9736 38.0088 19.7475C37.7581 19.4969 37.6328 19.1528 37.6328 18.7154C37.6328 18.4795 37.6746 18.2657 37.7581 18.0741C37.8417 17.8775 37.9621 17.7104 38.1194 17.5727C38.2767 17.4302 38.4683 17.3196 38.6944 17.241C38.9205 17.1624 39.1761 17.123 39.4611 17.123C39.8248 17.123 40.1418 17.1697 40.4121 17.2631C40.6824 17.3565 40.9306 17.5138 41.1567 17.7349L40.5079 18.3763C40.3408 18.219 40.1615 18.1207 39.9698 18.0814C39.783 18.0372 39.6036 18.0151 39.4316 18.0151C39.1564 18.0151 38.9524 18.0814 38.8197 18.2141C38.687 18.3419 38.6207 18.4967 38.6207 18.6786C38.6207 18.7474 38.633 18.8137 38.6575 18.8776C38.6821 18.9415 38.7214 19.0005 38.7755 19.0545C38.8296 19.1037 38.8959 19.1479 38.9745 19.1872C39.0581 19.2216 39.1539 19.2462 39.2621 19.261L39.8813 19.3494C40.1221 19.3838 40.3212 19.4354 40.4785 19.5042C40.6357 19.5681 40.7709 19.6517 40.8839 19.7549C41.0265 19.8876 41.1297 20.0473 41.1936 20.2341C41.2574 20.4208 41.2894 20.6322 41.2894 20.8681Z" fill="white"/>
<path d="M46.0799 22.4162H45.0552V20.2193H43.2785V22.4162H42.2538V17.1673H43.2785V19.3126H45.0552V17.1673H46.0799V22.4162Z" fill="white"/>
<path d="M48.3253 22.4162H47.3006V17.1673H48.3253V22.4162Z" fill="white"/>
<path d="M53.3139 18.8039C53.3139 19.0251 53.2746 19.2364 53.1959 19.4379C53.1173 19.6345 53.0018 19.809 52.8495 19.9613C52.702 20.1088 52.5202 20.2267 52.3039 20.3152C52.0926 20.3987 51.8518 20.4405 51.5815 20.4405H50.5715V22.4162H49.5467V17.1673H51.5815C51.8518 17.1673 52.0926 17.2115 52.3039 17.3C52.5202 17.3835 52.702 17.5015 52.8495 17.6538C53.0018 17.8013 53.1173 17.9758 53.1959 18.1773C53.2746 18.3739 53.3139 18.5827 53.3139 18.8039ZM52.2892 18.8039C52.2892 18.5876 52.2204 18.4132 52.0828 18.2805C51.9501 18.1478 51.7658 18.0814 51.5298 18.0814H50.5715V19.519H51.5298C51.7658 19.519 51.9501 19.4551 52.0828 19.3273C52.2204 19.1946 52.2892 19.0201 52.2892 18.8039Z" fill="white"/>
<path d="M57.9431 18.8039C57.9431 19.0251 57.9038 19.2364 57.8251 19.4379C57.7465 19.6345 57.631 19.809 57.4786 19.9613C57.3312 20.1088 57.1493 20.2267 56.9331 20.3152C56.7218 20.3987 56.4809 20.4405 56.2106 20.4405H55.2006V22.4162H54.1759V17.1673H56.2106C56.4809 17.1673 56.7218 17.2115 56.9331 17.3C57.1493 17.3835 57.3312 17.5015 57.4786 17.6538C57.631 17.8013 57.7465 17.9758 57.8251 18.1773C57.9038 18.3739 57.9431 18.5827 57.9431 18.8039ZM56.9184 18.8039C56.9184 18.5876 56.8495 18.4132 56.7119 18.2805C56.5792 18.1478 56.3949 18.0814 56.159 18.0814H55.2006V19.519H56.159C56.3949 19.519 56.5792 19.4551 56.7119 19.3273C56.8495 19.1946 56.9184 19.0201 56.9184 18.8039Z" fill="white"/>
<path d="M59.8298 22.4162H58.8051V17.1673H59.8298V22.4162Z" fill="white"/>
<path d="M65.0691 22.4162H64.155L62.076 19.1946V22.4162H61.0513V17.1673H61.9654L64.0444 20.3815V17.1673H65.0691V22.4162Z" fill="white"/>
<path d="M70.0301 20.2636C70.0301 20.642 69.9908 20.9566 69.9121 21.2072C69.8384 21.4529 69.7106 21.6716 69.5288 21.8633C69.3174 22.0845 69.0864 22.2393 68.8358 22.3278C68.5901 22.4162 68.3271 22.4605 68.047 22.4605C67.757 22.4605 67.4941 22.4113 67.2582 22.313C67.0272 22.2147 66.8183 22.0722 66.6315 21.8854C66.4988 21.7527 66.3956 21.6127 66.3219 21.4652C66.2531 21.3129 66.2039 21.1507 66.1745 20.9787C66.145 20.8067 66.1278 20.6223 66.1229 20.4258C66.1179 20.2292 66.1155 20.0178 66.1155 19.7918C66.1155 19.5657 66.1179 19.3543 66.1229 19.1578C66.1278 18.9612 66.145 18.7769 66.1745 18.6048C66.2039 18.4328 66.2531 18.2731 66.3219 18.1257C66.3956 17.9733 66.4988 17.8308 66.6315 17.6981C66.8183 17.5113 67.0272 17.3688 67.2582 17.2705C67.4891 17.1722 67.7521 17.123 68.047 17.123C68.3517 17.123 68.6195 17.1697 68.8505 17.2631C69.0815 17.3565 69.2781 17.4818 69.4403 17.6391C69.6025 17.7915 69.7303 17.9684 69.8237 18.1699C69.9219 18.3714 69.9883 18.5827 70.0227 18.8039H68.9906C68.9316 18.5532 68.826 18.364 68.6736 18.2362C68.5212 18.1035 68.3124 18.0372 68.047 18.0372C67.9044 18.0372 67.7767 18.0642 67.6636 18.1183C67.5555 18.1674 67.4646 18.2338 67.3909 18.3173C67.3417 18.3714 67.2999 18.4328 67.2655 18.5016C67.236 18.5655 67.2115 18.6515 67.1918 18.7597C67.1721 18.8678 67.1574 19.0054 67.1476 19.1725C67.1427 19.3347 67.1402 19.5411 67.1402 19.7918C67.1402 20.0424 67.1427 20.2513 67.1476 20.4184C67.1574 20.5855 67.1721 20.7231 67.1918 20.8312C67.2115 20.9393 67.236 21.0278 67.2655 21.0966C67.2999 21.1605 67.3417 21.2195 67.3909 21.2736C67.4646 21.3571 67.5555 21.4235 67.6636 21.4726C67.7767 21.5217 67.9044 21.5463 68.047 21.5463C68.2042 21.5463 68.3443 21.5217 68.4672 21.4726C68.5901 21.4185 68.6933 21.3448 68.7768 21.2514C68.8604 21.1531 68.9193 21.0475 68.9537 20.9344C68.9931 20.8165 69.0127 20.6887 69.0127 20.5511V20.352H68.047V19.4969H70.0301V20.2636Z" fill="white"/>
<path d="M23.9753 30.6309H20.5694V25.3819H21.5941V29.7167H23.9753V30.6309Z" fill="white"/>
<path d="M25.8345 30.6309H24.8098V25.3819H25.8345V30.6309Z" fill="white"/>
<path d="M31.0738 30.6309H30.1597L28.0807 27.4093V30.6309H27.056V25.3819H27.9702L30.0491 28.5962V25.3819H31.0738V30.6309Z" fill="white"/>
<path d="M35.7547 30.6309H32.2971V25.3819H35.7547V26.2961H33.3219V27.5272H35.3934V28.4414H33.3219V29.7167H35.7547V30.6309Z" fill="white"/>
<path d="M41.8801 30.6309H38.4742V25.3819H39.4989V29.7167H41.8801V30.6309Z" fill="white"/>
<path d="M43.7393 30.6309H42.7146V25.3819H43.7393V30.6309Z" fill="white"/>
<path d="M49.7158 30.6309H48.6911V27.5715L47.6885 29.5619H46.9955L45.9855 27.5715V30.6309H44.9608V25.3819H45.9707L47.342 28.2202L48.7058 25.3819H49.7158V30.6309Z" fill="white"/>
<path d="M51.9609 30.6309H50.9362V25.3819H51.9609V30.6309Z" fill="white"/>
<path d="M56.5588 26.2961H55.1876V30.6309H54.1629V26.2961H52.7917V25.3819H56.5588V26.2961Z" fill="white"/>
<path d="M60.8516 30.6309H57.394V25.3819H60.8516V26.2961H58.4188V27.5272H60.4903V28.4414H58.4188V29.7167H60.8516V30.6309Z" fill="white"/>
<path d="M65.669 27.9843C65.669 28.1809 65.669 28.3775 65.669 28.5741C65.669 28.7657 65.6543 28.9525 65.6248 29.1343C65.5953 29.3162 65.5437 29.4907 65.47 29.6578C65.3962 29.8249 65.2857 29.9821 65.1382 30.1296C64.9662 30.3016 64.7598 30.4294 64.519 30.5129C64.283 30.5916 64.0275 30.6309 63.7523 30.6309H61.8576V25.3819H63.7523C64.0275 25.3819 64.283 25.4237 64.519 25.5073C64.7598 25.5859 64.9662 25.7112 65.1382 25.8832C65.2857 26.0307 65.3962 26.1855 65.47 26.3477C65.5437 26.5099 65.5953 26.6794 65.6248 26.8564C65.6543 27.0333 65.669 27.2176 65.669 27.4093C65.669 27.596 65.669 27.7877 65.669 27.9843ZM64.6443 27.9843C64.6443 27.7877 64.6418 27.6181 64.6369 27.4756C64.632 27.3282 64.6222 27.2004 64.6074 27.0923C64.5927 26.9841 64.5706 26.8932 64.5411 26.8195C64.5116 26.7458 64.4723 26.6794 64.4231 26.6204C64.3346 26.5123 64.229 26.4312 64.1061 26.3772C63.9832 26.3231 63.8333 26.2961 63.6564 26.2961H62.8823V29.7167H63.6564C63.8333 29.7167 63.9832 29.6897 64.1061 29.6356C64.229 29.5816 64.3346 29.5005 64.4231 29.3924C64.5165 29.2744 64.5755 29.1098 64.6 28.8984C64.6295 28.6871 64.6443 28.3824 64.6443 27.9843Z" fill="white"/>
<path d="M14.9805 14C16.6472 14.0002 17.9999 15.4404 18 17.2178V28.7822C17.9999 30.5596 16.649 31.9998 14.9805 32H3.01855C1.35161 32 0.000138026 30.5598 0 28.7822V17.2178C0.000138553 15.4402 1.35161 14 3.01855 14H14.9805ZM11.7695 14.9424C11.6428 14.9031 11.5475 14.9298 11.4922 14.9619C11.3176 15.0602 11.2814 15.301 11.2422 15.5596C11.2315 15.6256 11.2215 15.6936 11.209 15.7578C11.1429 16.0934 11.0854 16.2468 10.9551 16.4307H10.9502V16.4287L10.8125 16.3809L10.6309 16.9053C9.34222 16.5626 7.95846 16.6303 6.68945 17.1318L6.44336 16.623L6.30566 16.6895L6.29199 16.6738C6.13671 16.5132 6.06523 16.3875 5.94922 16.0645C5.92787 16.004 5.90629 15.9383 5.88672 15.876C5.80819 15.6279 5.73445 15.3919 5.54883 15.3223C5.48641 15.2991 5.38829 15.2847 5.26367 15.3486C5.14425 15.411 5.09798 15.4971 5.08008 15.5596C5.02475 15.7523 5.17091 15.9486 5.32617 16.1592C5.36542 16.2127 5.4067 16.2679 5.44238 16.3232C5.63332 16.607 5.70079 16.7573 5.73828 16.9785L5.73242 16.9824L5.60254 17.0449L5.8457 17.5459C5.58158 17.6994 5.3244 17.873 5.07812 18.0693C4.23926 18.7369 3.61579 19.574 3.21777 20.4932L2.68262 20.3076L2.63281 20.4521H2.61133C2.38648 20.4486 2.24893 20.4092 1.93848 20.2646C1.8796 20.2379 1.81865 20.2059 1.75977 20.1738C1.52962 20.0525 1.31189 19.9394 1.12988 20.0195C1.06925 20.0463 0.989153 20.1074 0.946289 20.2393C0.903494 20.3694 0.931778 20.4624 0.963867 20.5195C1.06022 20.6944 1.30281 20.7303 1.56152 20.7695C1.62754 20.7802 1.69553 20.7912 1.75977 20.8037C2.09509 20.8697 2.24877 20.9265 2.43066 21.0566V21.0625L2.38086 21.2002L2.90527 21.3818C2.56264 22.6704 2.63139 24.0534 3.13281 25.3223L2.62402 25.5693L2.68945 25.7061L2.67383 25.7207C2.51324 25.8759 2.38826 25.9475 2.06543 26.0635C2.00475 26.0849 1.93828 26.1063 1.87402 26.126C1.62617 26.2026 1.39289 26.2776 1.32129 26.4629C1.29809 26.5254 1.2834 26.6241 1.34766 26.749C1.41011 26.8685 1.49421 26.9166 1.55664 26.9326C1.74931 26.9878 1.94574 26.8419 2.15625 26.6885C2.20977 26.6492 2.265 26.608 2.32031 26.5723C2.6041 26.3813 2.75427 26.313 2.97559 26.2773V26.2832L3.04102 26.4131L3.54297 26.1709C3.69642 26.4349 3.86917 26.6923 4.06543 26.9385C4.73287 27.7772 5.57023 28.3998 6.48926 28.7979L6.30371 29.333L6.44824 29.3848V29.4062C6.44467 29.6311 6.40531 29.7685 6.26074 30.0791C6.23397 30.138 6.20026 30.1989 6.16992 30.2578C6.04861 30.4879 5.93642 30.7057 6.0166 30.8877C6.04337 30.9484 6.10425 31.0293 6.23633 31.0703C6.3665 31.1113 6.45952 31.0839 6.5166 31.0518C6.6913 30.9535 6.72735 30.7128 6.7666 30.4541C6.77731 30.3881 6.78731 30.3201 6.7998 30.2559C6.86584 29.9204 6.92343 29.767 7.05371 29.585H7.05859L7.19629 29.6348L7.37988 29.1084C8.66853 29.4511 10.0524 29.3835 11.3232 28.8838L11.5693 29.3926L11.707 29.3262L11.7207 29.3418C11.876 29.5024 11.9475 29.6281 12.0635 29.9512C12.0848 30.0117 12.1064 30.0775 12.126 30.1416C12.2027 30.3897 12.2782 30.6239 12.4639 30.6953C12.5264 30.7184 12.6244 30.7321 12.749 30.668C12.8701 30.6056 12.9167 30.5204 12.9346 30.458C12.9899 30.2653 12.8437 30.0689 12.6885 29.8584C12.6492 29.8049 12.608 29.7487 12.5723 29.6934C12.3816 29.4082 12.314 29.2601 12.2783 29.0391H12.2832L12.4131 28.9727L12.1709 28.4727C12.4368 28.3192 12.6942 28.1445 12.9404 27.9482C13.7791 27.2808 14.4018 26.4436 14.7998 25.5264L15.333 25.7119L15.3838 25.5674H15.4053C15.6299 25.5728 15.7677 25.6106 16.0781 25.7568C16.135 25.7835 16.1972 25.8157 16.2559 25.8477C16.4861 25.9672 16.7047 26.0811 16.8867 25.999C16.9473 25.9722 17.0275 25.9116 17.0703 25.7783C17.1114 25.6516 17.0849 25.5563 17.0527 25.501L16.998 25.4316C16.8827 25.307 16.6699 25.2746 16.4434 25.2402C16.3774 25.2295 16.3093 25.2195 16.2451 25.207C15.9098 25.141 15.7543 25.0834 15.5723 24.9531V24.9482L15.623 24.8105L15.0996 24.6289C15.4423 23.3403 15.3746 21.9546 14.873 20.6855L15.3799 20.4395L15.3135 20.3018L15.3301 20.2881C15.4925 20.1328 15.6155 20.0613 15.9385 19.9453C15.9992 19.9239 16.0656 19.9024 16.1299 19.8828C16.3777 19.8044 16.611 19.7309 16.6826 19.5439C16.7058 19.4815 16.7205 19.3827 16.6562 19.2578C16.5956 19.1401 16.5097 19.0923 16.4473 19.0762C16.2545 19.0226 16.0583 19.167 15.8477 19.3223C15.7941 19.3615 15.7389 19.4028 15.6836 19.4385C15.3998 19.6294 15.2496 19.6967 15.0283 19.7324V19.7275H15.0264L14.9639 19.5967L14.4639 19.8379C14.3104 19.5738 14.1377 19.3185 13.9414 19.0723C13.2739 18.2334 12.4348 17.6109 11.5156 17.2129L11.7012 16.6787L11.5566 16.6289V16.6074C11.562 16.3825 11.5997 16.2451 11.7461 15.9346C11.7729 15.8775 11.8048 15.8148 11.8369 15.7559C11.9583 15.5257 12.0705 15.308 11.9902 15.126C11.9635 15.0654 11.903 14.9852 11.7695 14.9424ZM8.99512 27.7734C9.21822 27.7734 9.39941 27.9537 9.39941 28.1768C9.39937 28.3998 9.21819 28.5801 8.99512 28.5801C8.77225 28.5798 8.59184 28.3997 8.5918 28.1768C8.5918 27.9538 8.77222 27.7737 8.99512 27.7734ZM13.2578 27.1357L12.8789 27.4629C12.7148 27.6037 12.5487 27.6605 12.3828 27.6338C12.2153 27.6052 12.0764 27.5268 11.9658 27.3984C11.8392 27.2504 11.7781 27.0935 11.7852 26.9258C11.7923 26.758 11.8676 26.6135 12.0068 26.4922L12.4023 26.1494L13.2578 27.1357ZM5.68848 26.1562L5.55762 26.3896L5.80469 26.6348L6.04004 26.5059L6.26855 26.7324L5.06543 27.377L5.06738 27.3789L4.76953 27.084L5.40137 25.8721L5.68848 26.1562ZM12.2158 26.6934H12.2168C12.1669 26.7362 12.1472 26.7975 12.1543 26.876C12.1633 26.9544 12.2033 27.0344 12.2764 27.1182C12.3388 27.1895 12.4065 27.2397 12.4814 27.2646C12.5563 27.2896 12.6226 27.2794 12.6797 27.2295L12.7578 27.1611L12.2939 26.626L12.2158 26.6934ZM9.91797 26.9453C9.31309 27.0862 8.68856 27.0862 8.09082 26.9453H9.91797ZM5.21191 26.9736L5.55273 26.7793L5.4043 26.6309L5.21191 26.9736ZM13.6982 26.0273L13.8506 25.8066L14.1094 25.9814L13.5967 26.7363L13.3379 26.5596L13.4883 26.3379L12.667 25.7812L12.8779 25.4707L13.6982 26.0273ZM11.3018 26.3223C11.1054 26.4615 10.9018 26.5796 10.6895 26.6777H7.32324C7.10906 26.5778 6.90158 26.4597 6.70703 26.3223H11.3018ZM4.94531 25.0713L4.61914 25.5029L4.85156 25.5283L5.11523 25.3838L5.2959 25.7119L4.15234 26.3369L3.97266 26.0098L4.44629 25.751L3.80176 25.6973L3.62988 25.3848L4.20508 25.4424L4.7373 24.6895L4.94531 25.0713ZM12.0088 25.6865C11.8963 25.8168 11.7707 25.9387 11.6387 26.0547H6.37012C6.24161 25.9422 6.12187 25.8186 6.00586 25.6865H12.0088ZM6.52734 19.9434C8.25146 18.5727 10.7593 18.8578 12.1318 20.5801C13.2758 22.0185 13.2632 24.0017 12.2266 25.417H5.79688C4.53709 23.7 4.84615 21.2819 6.52734 19.9434ZM14.584 24.9033L14.4336 25.2705V25.2676L13.5215 24.8984L13.3311 25.3711L13.0332 25.251L13.374 24.4121L14.584 24.9033ZM6.51855 22.7256C5.28702 23.1539 6.0293 24.9873 6.0293 24.9873H8.84375V21.6855L6.51855 22.7256ZM9.1582 24.9873H11.9727C11.9727 24.9873 12.7149 23.1539 11.4834 22.7256L9.1582 21.6855V24.9873ZM4.7207 24.5068L3.46484 24.8623H3.46289L3.35547 24.4805L4.6123 24.125L4.7207 24.5068ZM4.29785 23.3037C4.36565 23.3198 4.42138 23.3573 4.46777 23.418C4.51239 23.4787 4.54024 23.5651 4.55273 23.6758C4.56162 23.7738 4.56228 23.8632 4.5498 23.9434L4.23926 23.9756C4.24995 23.9186 4.25142 23.8665 4.24609 23.8184C4.24074 23.7612 4.22289 23.7236 4.19434 23.7021C4.16578 23.6807 4.1155 23.6735 4.0459 23.6807L3.22852 23.7646L3.18945 23.3848L4.00684 23.3008C4.13169 23.2883 4.23003 23.2877 4.29785 23.3037ZM14.8604 22.6885L14.8496 23.6602L14.5498 23.6572L14.5557 23.0742H14.3662L14.3604 23.543L14.0713 23.54L14.0771 23.0684H13.8633L13.8574 23.6504L13.5469 23.6465L13.5557 22.6738L14.8604 22.6885ZM3.81055 21.5479C3.71779 21.5604 3.6586 21.6159 3.63184 21.7158C3.61053 21.7995 3.62701 21.848 3.67871 21.8623C3.70182 21.8693 3.72342 21.8619 3.74121 21.8477C3.75902 21.8316 3.78075 21.7996 3.80566 21.748C3.87706 21.607 3.93241 21.5063 3.97168 21.4492C4.0127 21.3924 4.06828 21.3519 4.1377 21.3252C4.20725 21.2985 4.28403 21.294 4.36426 21.3154C4.49087 21.3476 4.58125 21.4267 4.63477 21.5498C4.68831 21.673 4.6942 21.8176 4.65137 21.9854C4.57281 22.2904 4.39589 22.4458 4.12109 22.4512L4.14844 22.0781C4.25883 22.0744 4.32827 22.0097 4.36035 21.8867C4.38526 21.7905 4.37106 21.7351 4.31934 21.7227C4.29267 21.7155 4.26764 21.7225 4.24805 21.7402C4.22663 21.7599 4.20353 21.7961 4.17676 21.8496C4.0786 22.0584 3.98525 22.1849 3.90137 22.2295C3.81753 22.274 3.72849 22.2849 3.63574 22.2617C3.51616 22.2314 3.42821 22.1614 3.37109 22.0508C3.31604 21.9403 3.30894 21.803 3.35156 21.6357L3.38379 21.54C3.45826 21.3415 3.59647 21.2301 3.79492 21.2051L3.81055 21.5479ZM14.5967 21.3213L14.2178 21.7402C14.1429 21.8241 14.0753 21.8905 14.0146 21.9404C14.1163 21.8905 14.2235 21.8495 14.3359 21.8174L14.707 21.7119L14.7949 22.0225L13.5381 22.3779L13.4502 22.0674L13.9092 21.5693C13.968 21.5052 14.041 21.4373 14.1318 21.3643C14.0572 21.4069 13.9915 21.4371 13.9346 21.4531L13.3252 21.625L13.2383 21.3154L14.4941 20.9609L14.5967 21.3213ZM6.73926 21.0088V22.3008L8.98828 21.291L11.2627 22.3223V21.0088H6.73926ZM5.42969 20.2715L5.22559 20.6104L4.79004 20.3486L4.63477 20.6074L5.07031 20.8691L4.86523 21.209L3.74609 20.5361L3.9502 20.1963V20.1982L4.36035 20.4463L4.51758 20.1855L4.10645 19.9375L4.31055 19.5986L5.42969 20.2715ZM14.2305 20.4268L13.0898 21.0605L12.8975 20.7139L14.0381 20.0811L14.2305 20.4268ZM8.32617 19.4521V20.0098L8.32422 20.0107H7.85156V20.709H10.1523V20.0107H9.68652L9.68848 20.0098V19.4521H8.32617ZM13.4688 19.2969L12.7188 19.9346L13.0488 20.3213L12.8047 20.5283L12.2168 19.8379L13.2109 18.9941L13.4688 19.2969ZM5.91699 19.7812L5.63965 20.0645L4.70508 19.1543L4.98145 18.8701L5.91699 19.7812ZM6.15723 18.042C6.23397 18.0295 6.30947 18.0392 6.38086 18.0713C6.45209 18.1034 6.50915 18.1531 6.55371 18.2207C6.62152 18.3242 6.64164 18.4315 6.61133 18.5439C6.58099 18.6546 6.50533 18.7496 6.38574 18.8281L6.19922 18.9512L6.45898 19.3467L6.12207 19.5684L5.40625 18.4775L5.86816 18.1748C5.98399 18.1 6.07877 18.0546 6.15723 18.042ZM11.1807 17.832C11.3323 17.7608 11.4999 17.7696 11.6836 17.8623C11.8208 17.9318 11.9137 18.0225 11.9619 18.1348C12.0101 18.2472 12.0139 18.3766 11.9746 18.5176L11.6143 18.3779C11.6588 18.2477 11.6353 18.1618 11.5479 18.1172C11.4319 18.0584 11.3174 18.1405 11.2051 18.3633C11.1373 18.4989 11.1109 18.5975 11.127 18.6582C11.143 18.7206 11.1768 18.7633 11.2285 18.79C11.2712 18.8114 11.3139 18.8172 11.3584 18.8066C11.4012 18.7959 11.4358 18.7673 11.459 18.7227L11.2676 18.626L11.3926 18.3779L11.9121 18.6406L11.582 19.2939L11.4082 19.2061C11.4189 19.1507 11.4229 19.1024 11.4229 19.0596C11.3033 19.1167 11.1751 19.1095 11.0342 19.04C10.886 18.9651 10.7889 18.8508 10.7461 18.6973C10.7034 18.5438 10.7274 18.3774 10.8184 18.1973L10.8916 18.0801C10.9697 17.9687 11.0669 17.8869 11.1807 17.832ZM7.71582 17.4316C7.79435 17.4423 7.862 17.4735 7.9209 17.5234C7.97975 17.5752 8.02075 17.6393 8.04395 17.7178C8.07957 17.8372 8.06732 17.9439 8.00684 18.042C7.94622 18.14 7.84811 18.2099 7.71094 18.251L7.49609 18.3154L7.63184 18.7705L7.24609 18.8848L6.87305 17.6338L7.40137 17.4766V17.4746C7.5334 17.4354 7.63908 17.421 7.71582 17.4316ZM6.17871 18.3955C6.13665 18.3683 6.08148 18.3768 6.01465 18.4209L5.89355 18.501L6.03223 18.7119L6.14355 18.6387C6.24147 18.5746 6.26653 18.5066 6.21875 18.4336L6.17871 18.3955ZM9.78809 17.293L10.0098 17.8135C10.0525 17.9168 10.0839 18.0064 10.1035 18.083C10.1018 17.9691 10.1111 17.8569 10.1289 17.7412L10.1914 17.3584L10.5088 17.4102L10.2998 18.6992L9.98047 18.6475L9.72363 18.0215C9.69151 17.9412 9.65942 17.8441 9.63086 17.7334C9.63799 17.8189 9.63583 17.8922 9.62695 17.9492L9.52539 18.5742L9.20801 18.5225L9.41699 17.2344L9.41895 17.2324L9.78809 17.293ZM8.91309 18.5479L8.51758 18.5742L8.42773 17.2715L8.82422 17.2441L8.91309 18.5479ZM7.46973 17.7549L7.33008 17.7959L7.40137 18.0391L7.52832 18.002C7.64076 17.968 7.68319 17.9101 7.6582 17.8262C7.63491 17.7481 7.57281 17.7248 7.46973 17.7549Z" fill="white"/>
</g>
<defs>
<clipPath id="clip0_2015_826">
<rect width="70" height="45" fill="white"/>
</clipPath>
</defs>
</svg>
