<svg width="67" height="45" viewBox="0 0 67 45" fill="none" xmlns="http://www.w3.org/2000/svg">
<g clip-path="url(#clip0_2015_1001)">
<path fill-rule="evenodd" clip-rule="evenodd" d="M1.78292 12H7.56649C7.88806 11.9998 8.20653 12.0631 8.50365 12.1861C8.80078 12.309 9.07078 12.4894 9.29816 12.7168C9.52554 12.9442 9.7059 13.2142 9.82892 13.5113C9.95189 13.8084 10.0151 14.1269 10.015 14.4485V19.5677C10.0151 19.8892 9.95189 20.2077 9.82892 20.5048C9.7059 20.802 9.52554 21.072 9.29816 21.2993C9.07078 21.5267 8.80078 21.7071 8.50365 21.8301C8.20653 21.9531 7.88806 22.0163 7.56649 22.0161H2.4509C2.27374 22.0161 2.10384 22.0865 1.97857 22.2118C1.85329 22.3371 1.78292 22.507 1.78292 22.6841C1.78292 22.8613 1.85329 23.0312 1.97857 23.1565C2.10384 23.2818 2.27374 23.3521 2.4509 23.3521H7.56649C8.21583 23.3521 8.83865 23.6101 9.29779 24.0693C9.75698 24.5284 10.015 25.1512 10.015 25.8006V30.921C10.015 31.0981 10.0853 31.2681 10.2106 31.3933C10.3359 31.5186 10.5058 31.5889 10.6829 31.5889C10.8601 31.5889 11.03 31.5186 11.1553 31.3933C11.2805 31.2681 11.3509 31.0981 11.3509 30.921V25.8006C11.3512 25.1513 11.6093 24.5287 12.0684 24.0696C12.5275 23.6105 13.1501 23.3524 13.7994 23.3521H18.921C19.5703 23.3524 20.1929 23.6105 20.652 24.0696C21.1111 24.5287 21.3692 25.1513 21.3694 25.8006V31.5926C21.3694 31.8265 21.3234 32.0581 21.2338 32.2742C21.1443 32.4903 21.013 32.6867 20.8476 32.852C20.6821 33.0173 20.4857 33.1485 20.2695 33.2379C20.0534 33.3273 19.8217 33.3732 19.5878 33.3731H10.7578C10.5229 33.3732 10.2903 33.327 10.0733 33.237C9.8562 33.147 9.6591 33.0151 9.49312 32.8489C8.51349 31.8692 6.60376 32.3766 5.36927 33.0058C4.67689 33.3567 3.89168 33.4807 3.1249 33.3604C2.35811 33.2401 1.64864 32.8815 1.09701 32.3355C0.545372 31.7894 0.179557 31.0836 0.0513945 30.3181C-0.0767684 29.5526 0.0392227 28.7662 0.382929 28.0703C1.00622 26.814 1.5208 24.8777 0.530297 23.886C0.190847 23.5464 0.000117289 23.0858 1.47584e-05 22.6056V13.7877C-0.00094054 13.5531 0.04449 13.3206 0.133691 13.1036C0.222892 12.8866 0.354106 12.6893 0.519791 12.5232C0.685478 12.3571 0.882362 12.2253 1.09914 12.1355C1.31591 12.0457 1.54828 11.9997 1.78292 12ZM11.3872 19.7911C11.3872 17.7248 12.208 15.7431 13.6691 14.282C15.1303 12.8209 17.112 12 19.1783 12H20.8791C21.0184 12 21.1521 12.0553 21.2506 12.1539C21.3491 12.2524 21.4045 12.3861 21.4045 12.5254V14.2262C21.4045 15.2493 21.203 16.2624 20.8114 17.2076C20.4199 18.1528 19.846 19.0116 19.1225 19.735C18.3989 20.4583 17.5401 21.0321 16.5948 21.4235C15.6496 21.8149 14.6365 22.0163 13.6133 22.0161H13.3138C12.8033 22.0145 12.3142 21.8111 11.9532 21.4501C11.5923 21.0891 11.3887 20.6 11.3872 20.0895V19.7911Z" fill="white"/>
<path d="M66.8613 18.7069V18.8723H62.8225C62.8781 19.887 63.3632 20.4824 64.1468 20.4824C64.8304 20.4824 65.3054 20.1079 65.4482 19.5008H66.8613C66.6618 20.8143 65.6466 21.5858 64.1468 21.5858C62.4256 21.5858 61.4104 20.5188 61.4104 18.7048C61.4104 16.8908 62.4256 15.8237 64.1468 15.8237C65.8451 15.8269 66.8613 16.8865 66.8613 18.7069ZM64.1468 16.9196C63.4071 16.9196 62.9332 17.4531 62.8342 18.3761H65.4375C65.3535 17.4488 64.8743 16.9196 64.1468 16.9196Z" fill="white"/>
<path d="M61.1617 15.9358V16.9399H59.4405V19.6075C59.4405 20.1261 59.7716 20.4238 60.323 20.4238C60.5803 20.4257 60.8338 20.3649 61.0628 20.2467V21.335C60.683 21.501 60.2738 21.5871 59.8598 21.588C58.6799 21.588 57.984 20.9264 57.984 19.8006V16.9431H57.1902V15.939H58.0728V14.0791H59.5293V14.5433C59.5293 15.2486 58.9955 15.7458 58.1161 15.9112V15.9326L61.1617 15.9358Z" fill="white"/>
<path d="M55.1128 17.8351V15.9379H56.5693V21.4759H55.1128V19.5669H55.0914C55.0914 20.8356 54.3516 21.5858 53.1162 21.5858C51.729 21.5858 50.9095 20.5188 50.9095 18.7048C50.9095 16.8908 51.7258 15.8237 53.1162 15.8237C54.3516 15.8237 55.0914 16.5706 55.0914 17.8319L55.1128 17.8351ZM53.7884 20.428C54.672 20.428 55.1903 19.7217 55.1903 18.7069C55.1903 17.6921 54.672 16.974 53.7884 16.974C52.9049 16.974 52.3874 17.6249 52.3874 18.7069C52.3874 19.7889 52.9103 20.428 53.7927 20.428H53.7884Z" fill="white"/>
<path d="M50.0961 15.8261C50.3903 15.8203 50.682 15.8808 50.9497 16.0032L50.5303 17.305C50.2935 17.1761 50.0285 17.1079 49.7589 17.1065C48.9052 17.1065 48.4016 17.8012 48.4016 18.9706V21.475H46.9397V15.937H48.3962V18.2205H48.4186C48.4186 16.7085 49.0471 15.8261 50.0961 15.8261Z" fill="white"/>
<path d="M46.143 18.7069V18.8723H42.1053C42.1597 19.887 42.6452 20.4824 43.4295 20.4824C44.1135 20.4824 44.5873 20.1079 44.7313 19.5008H46.143C45.9445 20.8143 44.9298 21.5858 43.4295 21.5858C41.7083 21.5858 40.6925 20.5188 40.6925 18.7048C40.6925 16.8908 41.7083 15.8237 43.4295 15.8237C45.1282 15.8269 46.143 16.8865 46.143 18.7069ZM43.4295 16.9196C42.6901 16.9196 42.2152 17.4531 42.116 18.3761H44.7195C44.632 17.4488 44.1572 16.9196 43.4295 16.9196Z" fill="white"/>
<path d="M37.9526 15.8271C39.3398 15.8271 40.171 16.8942 40.171 18.7082C40.171 20.5222 39.343 21.5892 37.9526 21.5892C36.717 21.5892 35.9786 20.8423 35.9786 19.5704H35.9562V21.4793H34.4996V13.3228H35.9562V17.8385H35.9786C35.9786 16.5773 36.717 15.8271 37.9526 15.8271ZM37.2804 20.4283C38.1628 20.4283 38.6814 19.7881 38.6814 18.7071C38.6814 17.6262 38.1628 16.9742 37.2804 16.9742C36.3979 16.9742 35.8794 17.6806 35.8794 18.7071C35.8794 19.7336 36.3968 20.4283 37.2804 20.4283Z" fill="white"/>
<path d="M33.3904 15.9375H31.9339V21.4755H33.3904V15.9375Z" fill="white"/>
<path d="M27.7568 13.3113V20.2514H31.342V21.4753H26.2341V13.3113H27.7568Z" fill="white"/>
<path d="M31.9339 15.3824V13.498H33.3904V13.9249C33.3906 14.1162 33.353 14.3057 33.2799 14.4826C33.2067 14.6594 33.0995 14.8201 32.9642 14.9555C32.829 15.0908 32.6683 15.1982 32.4916 15.2715C32.3147 15.3447 32.1253 15.3824 31.9339 15.3824Z" fill="white"/>
<path d="M47.0314 28.3002H47.01C46.2087 28.1583 45.721 28.0399 45.721 27.5981C45.721 27.1713 46.0945 26.9301 46.7444 26.9301C47.3942 26.9301 47.789 27.2791 47.789 27.8905V27.9972H49.0278V27.8905C49.0278 26.7167 48.1742 26.0093 46.7486 26.0093C45.323 26.0093 44.4684 26.6356 44.4684 27.6867C44.4684 28.9501 45.6154 29.1368 46.5363 29.2873L46.5683 29.2936C47.4219 29.4462 47.933 29.5786 47.933 30.1185C47.933 30.5912 47.5009 30.8654 46.7486 30.8654C45.9963 30.8654 45.5429 30.4962 45.5429 29.8528V29.7461H44.3029V29.8528C44.3029 31.0714 45.2153 31.7991 46.7444 31.7991C48.2734 31.7991 49.1858 31.1354 49.1858 30.0246C49.1858 28.6876 47.9917 28.4731 47.0314 28.3002Z" fill="white"/>
<path d="M35.5447 28.0248V26.1265H37.0001V31.6656H35.5447V29.7566H35.5222C35.5222 31.0253 34.7828 31.7755 33.5472 31.7755C32.16 31.7755 31.3405 30.7085 31.3405 28.8945C31.3405 27.0805 32.1568 26.0134 33.5472 26.0134C34.7828 26.0134 35.5222 26.7603 35.5222 28.0216L35.5447 28.0248ZM34.2205 30.6178C35.1029 30.6178 35.6215 29.9114 35.6215 28.8966C35.6215 27.8819 35.1029 27.1637 34.2205 27.1637C33.338 27.1637 32.8194 27.8146 32.8194 28.8966C32.8194 29.9786 33.3412 30.6178 34.2205 30.6178Z" fill="white"/>
<path d="M41.6894 26.0169C43.0766 26.0169 43.9068 27.0839 43.9068 28.8979C43.9068 30.7119 43.0798 31.7789 41.6894 31.7789C40.4538 31.7789 39.7143 31.032 39.7143 29.76H39.6919V31.669H38.2354V23.5125H39.6919V28.0282H39.7143C39.7143 26.767 40.4538 26.0169 41.6894 26.0169ZM41.0161 30.618C41.8986 30.618 42.4172 29.9777 42.4172 28.8969C42.4172 27.8159 41.8986 27.1639 41.0161 27.1639C40.1337 27.1639 39.6151 27.8703 39.6151 28.8969C39.6151 29.9233 40.1337 30.618 41.0161 30.618Z" fill="white"/>
<path d="M27.7568 23.502V30.442H31.342V31.666H26.2341V23.502H27.7568Z" fill="white"/>
</g>
<defs>
<clipPath id="clip0_2015_1001">
<rect width="66.8598" height="21.93" fill="white" transform="translate(0 12)"/>
</clipPath>
</defs>
</svg>
