<svg width="66" height="45" viewBox="0 0 66 45" fill="none" xmlns="http://www.w3.org/2000/svg">
<g clip-path="url(#clip0_2054_189)">
<path fill-rule="evenodd" clip-rule="evenodd" d="M59.2844 14.2117H60.4515V19.6814C60.4515 23.2456 60.4865 25.1511 60.5682 25.1511C60.6265 25.1511 61.3384 24.5983 63.6024 22.6809L63.8942 22.9515C64.0575 23.0926 64.1859 23.2691 64.1859 23.3279C64.1859 23.3867 63.5207 23.9984 62.7155 24.6806C61.9102 25.3629 61.2217 25.951 61.1984 26.0098C61.175 26.0569 62.237 26.4451 63.5791 26.8685C64.9095 27.3038 66.0298 27.6684 66.0881 27.6919C66.1348 27.7155 66.0998 27.9272 66.0298 28.1507C65.9481 28.3859 65.8197 28.5624 65.7614 28.5624C65.703 28.5624 64.4777 28.1624 60.4515 26.7979V28.2095L59.3428 28.1507L59.2844 14.2117ZM44.6968 22.2104H45.8638V23.1515C45.8638 23.9984 45.8871 24.0807 46.0739 24.0219C46.1789 23.9866 46.669 23.9278 47.1475 23.8808C47.801 23.8337 48.1628 23.869 48.5479 24.0101C48.8397 24.1043 49.2481 24.3866 49.4582 24.6101C49.6683 24.8453 49.8666 25.21 49.9017 25.4099C49.9483 25.6217 49.9367 25.951 49.9017 26.151C49.855 26.351 49.6449 26.6803 49.4465 26.8921C49.2014 27.1391 48.828 27.3508 48.3729 27.492C47.9878 27.6096 47.3576 27.7507 46.9725 27.786C46.4473 27.8448 46.2489 27.8331 46.1906 27.7155C46.1439 27.6331 46.0972 27.4214 46.0972 27.2449C46.0972 26.9273 46.1205 26.9156 47.0658 26.7862C47.6377 26.7156 48.2095 26.5627 48.4896 26.4098C48.793 26.2451 48.968 26.0451 48.9914 25.8804C49.0031 25.7393 48.9447 25.504 48.8513 25.3629C48.758 25.21 48.5129 25.0218 48.3028 24.9277C48.0111 24.7983 47.696 24.7865 47.0892 24.8453C46.6457 24.8924 46.1789 24.9277 46.0739 24.9277C45.8755 24.9159 45.8638 25.2335 45.8054 34.6203H44.7551L44.6968 22.2104ZM23.107 15.0351H24.274V19.0933C24.274 22.9044 24.2857 23.1515 24.4841 23.0809C24.5891 23.0338 24.9276 22.928 25.2076 22.8456C25.4994 22.7515 26.0479 22.6809 26.433 22.6809C26.8181 22.6809 27.3433 22.7515 27.6 22.8221C27.8568 22.9044 28.2886 23.1867 28.5453 23.4455C28.8954 23.7984 29.0588 24.069 29.1521 24.5042C29.2338 24.9041 29.2455 25.2805 29.1638 25.6805C29.1055 25.9981 28.9304 26.4921 28.767 26.7627C28.6037 27.045 28.2419 27.4214 27.9501 27.6214C27.67 27.8213 27.1215 28.0566 26.7598 28.1507C26.3863 28.2448 25.8728 28.3271 25.6161 28.3271C25.3594 28.3271 24.9509 28.2683 24.274 28.0919V29.1505H23.107V28.3859C23.107 27.7625 23.072 27.6096 22.9086 27.5625C22.7919 27.5272 22.5468 27.3743 21.9984 26.9391L22.3251 26.5156C22.5585 26.2098 22.7102 26.1039 22.8736 26.151C23.0953 26.2098 23.107 26.151 23.107 25.504C23.107 25.0806 23.037 24.6806 22.932 24.5042C22.7803 24.2454 22.7803 24.1984 22.932 24.1513C23.0837 24.1043 23.107 23.4808 23.107 19.5638V15.0351ZM24.7758 24.3395L24.274 24.6218V26.9156C25.441 27.1391 25.7911 27.1391 26.258 27.045C26.6197 26.9744 27.0399 26.8215 27.1916 26.7038C27.3549 26.5745 27.6117 26.3039 27.7517 26.0804C27.9268 25.8099 28.0201 25.504 28.0201 25.1511C28.0201 24.7159 27.9501 24.563 27.6584 24.2689C27.3433 23.9631 27.2032 23.916 26.573 23.8925C26.1763 23.8808 25.7211 23.9043 25.5577 23.9631C25.406 24.0101 25.0443 24.1748 24.7758 24.3395V24.3395ZM38.3949 20.9165H39.5619V25.2688L42.4794 23.2691L42.7129 23.622C42.8412 23.8219 42.9463 23.9984 42.9463 24.0337C42.9463 24.069 42.3511 24.516 41.6042 25.0335C40.869 25.5511 40.2738 25.9981 40.2971 26.0216C40.3088 26.0569 41.2658 26.4333 42.4211 26.8685C43.5764 27.292 44.5451 27.6566 44.5684 27.6684C44.5801 27.6684 44.5451 27.8801 44.475 28.1272C44.37 28.5036 44.3117 28.5506 44.0899 28.48C43.9382 28.4448 42.8762 28.0566 39.6203 26.8332L39.5619 28.0919H38.3949V20.9165ZM39.737 26.3274C39.8381 26.1314 39.8537 25.9667 39.7836 25.8334C39.7253 25.7158 39.6553 25.6217 39.6203 25.6217C39.5969 25.6217 39.5619 25.8452 39.5736 26.1275C39.5736 26.6097 39.5736 26.6097 39.737 26.3274ZM54.1496 23.2691V24.9159C54.1496 26.3039 54.1846 26.5627 54.3246 26.5627C54.4297 26.5627 54.558 26.6803 54.6397 26.8332C54.7448 27.045 54.7331 27.1155 54.5464 27.2449C54.4297 27.3273 54.2896 27.3861 54.2429 27.3861C54.1963 27.3861 54.1496 27.5508 54.1496 27.739C54.1496 28.0683 54.1262 28.0919 53.6828 28.0919C53.321 28.0919 53.216 28.0448 53.216 27.8919C53.216 27.7155 53.0993 27.6802 52.4924 27.6566C52.0723 27.6449 51.5705 27.539 51.3137 27.4214C51.0687 27.3038 50.7652 27.0567 50.6369 26.8568C50.5202 26.6686 50.4151 26.2921 50.4035 26.0334C50.3918 25.7746 50.4385 25.3746 50.5085 25.1511C50.5785 24.9277 50.8586 24.5395 51.1154 24.3042C51.3721 24.0572 51.7572 23.8219 51.9673 23.7867C52.1773 23.7514 52.5391 23.7396 52.7842 23.7514C53.1693 23.7984 53.216 23.7631 53.216 23.5396C53.216 23.3044 53.286 23.2691 54.1496 23.2691V23.2691ZM51.3021 25.1864C51.197 25.3629 51.1154 25.6805 51.1154 25.8922C51.1154 26.0922 51.2087 26.398 51.3371 26.5627C51.5355 26.8215 51.6638 26.8568 52.3874 26.8921L53.216 26.9156C53.216 24.7983 53.181 24.5512 53.0409 24.5042C52.9476 24.4689 52.7025 24.4454 52.4924 24.4454C52.2824 24.4454 51.9673 24.5395 51.7922 24.6571C51.6172 24.763 51.3954 24.9982 51.3021 25.1864ZM33.3767 23.622V25.21C33.3767 26.5745 33.4001 26.7862 33.5518 26.7391C33.6685 26.7038 33.7969 26.8097 33.9019 27.0332C34.0069 27.2332 34.0769 27.4331 34.0769 27.5037C34.0769 27.5743 33.9252 27.6684 33.7268 27.739C33.4701 27.8331 33.3767 27.9272 33.3767 28.1507C33.3767 28.3977 33.3301 28.4448 33.0266 28.4448C32.7932 28.4448 32.6765 28.3859 32.6765 28.2683C32.6765 28.1272 32.5131 28.0919 31.8946 28.0919C31.3928 28.0919 30.9377 28.0095 30.6343 27.8801C30.3775 27.7625 30.0507 27.5037 29.9107 27.3155C29.759 27.1273 29.619 26.7862 29.5839 26.5627C29.5373 26.3392 29.5723 25.9275 29.6423 25.657C29.7123 25.3629 29.9457 24.9512 30.2025 24.6689C30.5059 24.3395 30.8093 24.1395 31.2178 24.0219C31.5912 23.916 31.9647 23.8925 32.2447 23.9513C32.6182 24.0219 32.6882 23.9984 32.6882 23.8337C32.6765 23.6808 32.7699 23.622 33.3767 23.622V23.622ZM30.7743 25.4452C30.6809 25.5746 30.5759 25.8216 30.5409 26.0098C30.4942 26.1863 30.5176 26.4451 30.5759 26.598C30.6459 26.7391 30.8326 26.9273 30.9844 27.0097C31.1477 27.0803 31.5912 27.1508 31.9763 27.1508H32.6765C32.6765 25.2688 32.6532 25.1394 32.4431 25.0335C32.3148 24.9629 32.0463 24.9159 31.8363 24.9159C31.6262 24.9277 31.3345 24.9865 31.1944 25.0688C31.0544 25.1511 30.856 25.3276 30.7743 25.4452ZM36.5277 23.916C36.8194 23.9396 37.0762 23.9866 37.1112 24.0219C37.1345 24.0454 37.0645 24.2925 36.9361 24.563C36.7377 24.9982 36.656 25.0688 36.2943 25.1041C36.0725 25.1159 35.7574 25.2335 35.5941 25.3629C35.419 25.504 35.2906 25.7275 35.279 25.951C35.2556 26.2333 35.314 26.3627 35.5124 26.4686C35.6524 26.5509 36.2943 26.645 38.1031 26.7391V27.9154L37.1112 27.9037C36.5744 27.8919 35.8858 27.8213 35.5941 27.739C35.314 27.6566 34.9289 27.492 34.7538 27.3743C34.5788 27.2567 34.3454 26.9744 34.2403 26.7744C34.1353 26.5627 34.0419 26.1745 34.0419 25.9157C34.0419 25.657 34.147 25.257 34.287 25.0335C34.4154 24.81 34.7188 24.4924 34.9755 24.3395C35.2206 24.1748 35.5591 24.0101 35.7108 23.9513C35.8741 23.9043 36.2476 23.8925 36.5277 23.916V23.916ZM57.5339 23.9396C57.7673 23.9631 57.9541 24.0219 57.9774 24.0454C57.9891 24.069 57.9074 24.3277 57.8023 24.6218C57.6273 25.0806 57.5456 25.1629 57.2772 25.1511C57.1021 25.1511 56.7987 25.2335 56.6003 25.3276C56.4136 25.4217 56.2269 25.6099 56.1919 25.7393C56.1685 25.8687 56.1685 26.0804 56.1919 26.2098C56.2269 26.351 56.4136 26.4921 56.6353 26.5627C56.8454 26.6333 57.4756 26.7274 59.051 26.8568V27.9742H58.3275C57.919 27.9742 57.3122 27.9272 56.9504 27.8566C56.6003 27.786 56.1335 27.6331 55.9001 27.5155C55.6784 27.3979 55.375 27.1273 55.2349 26.9038C55.0599 26.645 54.9665 26.3274 54.9665 26.0098C54.9665 25.7275 55.0249 25.3864 55.1065 25.2453C55.1766 25.0923 55.3399 24.8453 55.48 24.7042C55.62 24.5512 55.8884 24.3395 56.0752 24.2336C56.2736 24.1395 56.5886 24.0101 56.7754 23.9631C56.9738 23.916 57.3122 23.9043 57.5339 23.9396V23.9396Z" fill="white"/>
<path d="M7.87735 29.3149L7.86568 19.6341C7.85401 13.141 7.88902 9.965 7.95904 10.0003C8.02906 10.0121 11.2033 15.1054 15.0078 21.2927C20.0026 29.409 21.8815 32.5615 21.7415 32.5615C21.6248 32.5615 18.4622 31.8322 7.87735 29.3149Z" fill="white"/>
<path d="M3.23275 23.8807C5.00661 20.987 6.58208 18.4227 6.73379 18.1875C6.8855 17.9404 7.02555 17.7405 7.06056 17.7405C7.09557 17.7405 7.11891 19.9754 7.11891 27.6801L3.71123 28.4917C1.83233 28.9387 0.221855 29.3152 0.140164 29.3387C0.0701429 29.3622 0.00012207 29.3269 0.00012207 29.2563C0.00012207 29.1858 1.45889 26.7744 3.23275 23.8807Z" fill="#A3A3A3"/>
</g>
<defs>
<clipPath id="clip0_2054_189">
<rect width="66" height="45" fill="white"/>
</clipPath>
</defs>
</svg>
