<svg width="49" height="45" viewBox="0 0 49 45" fill="none" xmlns="http://www.w3.org/2000/svg">
<g clip-path="url(#clip0_2054_186)">
<g clip-path="url(#clip1_2054_186)">
<path d="M4.43627 17.511H7.34821V22.2806C6.37586 22.4777 5.63124 22.5775 4.81497 22.5775C1.62155 22.5775 0.495667 20.7479 0.495667 17.7362C0.495667 14.4992 2.05655 12.6697 5.16809 12.6697C5.56215 12.6697 6.30677 12.6978 7.23563 12.8386V15.8912H6.56009L6.17883 14.7244C5.81292 13.6139 5.37791 13.0637 4.68703 13.0637C3.49206 13.0637 2.85747 14.6809 2.85747 17.708C2.85747 20.7479 3.11079 22.1834 4.67168 22.1834C4.88406 22.1834 5.13483 22.1553 5.37536 22.0862V18.5371L4.43371 17.8897V17.511H4.43627ZM7.29192 30.3154C7.29192 32.2294 5.98436 33.3271 3.67629 33.3271C3.04426 33.3271 2.11541 33.2299 1.24284 33.0866V29.3456H1.91838L2.19985 30.2309C2.83188 32.2703 3.28223 32.9459 4.08571 32.9459C4.93012 32.9459 5.534 32.2012 5.534 31.2161C5.534 30.4152 5.1553 29.8522 4.33903 29.4147L2.93167 28.6547C1.84673 28.079 1.25564 27.1782 1.25564 26.0805C1.25564 24.4198 2.6195 23.4219 4.85847 23.4219C5.36512 23.4219 5.95621 23.4654 6.89786 23.5908V26.6435H6.22233L5.84362 25.4766C5.46236 24.2382 5.0555 23.7878 4.31088 23.7878C3.47926 23.7878 2.98797 24.3226 2.98797 25.0954C2.98797 25.7837 3.36923 26.2775 4.11385 26.6997L5.534 27.5007C6.72898 28.1762 7.29192 29.0769 7.29192 30.3154ZM13.5124 32.5262L13.7939 32.9484V33.1608H11.6419L11.5421 32.3445C11.317 32.9638 10.7259 33.3297 9.9659 33.3297C8.84001 33.3297 8.13633 32.626 8.13633 31.472C8.13633 30.3461 8.76836 29.6015 10.7105 28.8415L11.5396 28.5191V27.4648C11.5396 26.536 11.3707 26.1573 10.8513 26.1573C10.429 26.1573 10.1911 26.3825 9.78166 27.4085L9.31851 28.5575H8.68648V26.2622C9.51554 26.0089 10.3472 25.84 11.0636 25.84C12.6527 25.84 13.5124 26.6 13.5124 27.9792V32.5262ZM14.3261 18.8339C14.3261 21.2264 13.0467 22.5775 11.3988 22.5775C9.75352 22.5775 8.4741 21.2264 8.4741 18.8339C8.4741 16.4414 9.75351 15.0903 11.4014 15.0903C13.0467 15.0903 14.3261 16.4414 14.3261 18.8339ZM11.5421 31.344V28.9106L11.276 29.0232C10.4444 29.3609 10.1348 30.1209 10.1348 31.2314C10.1348 32.0631 10.3318 32.539 10.795 32.539C11.2581 32.539 11.5421 32.0886 11.5421 31.344ZM12.2586 18.8339C12.2586 16.1318 12.0334 15.4153 11.4014 15.4153C10.7694 15.4153 10.5442 16.1318 10.5442 18.8339C10.5442 21.536 10.7694 22.2525 11.4014 22.2525C12.0334 22.2525 12.2586 21.536 12.2586 18.8339ZM19.3235 31.4131L19.5769 31.5411C19.1265 32.8358 18.5508 33.3271 17.4377 33.3271C15.6235 33.3271 14.6102 31.9633 14.6102 29.5836C14.6102 27.2064 15.7924 25.84 17.7192 25.84C18.2386 25.84 18.9295 25.9244 19.5206 26.1624V28.5549H18.8604L18.5943 27.6542C18.2412 26.4592 18.0467 26.1496 17.6936 26.1496C17.1306 26.1496 16.6803 26.8814 16.6803 29.668C16.6803 31.9044 17.018 32.7207 17.8752 32.7207C18.451 32.7232 18.9423 32.3573 19.3235 31.4131ZM17.7601 22.4086H15.2269V22.1988L15.5083 21.7766V13.9235L15.2269 13.5013V13.2889L17.4786 13.12V21.774L17.7601 22.1962V22.4086ZM21.2222 22.5775C19.6741 22.5775 18.7452 21.1701 18.7452 18.7648C18.7452 16.3723 19.715 15.0929 21.2068 15.0929C21.9668 15.0929 22.389 15.3872 22.5707 15.9782V13.9235L22.2892 13.5013V13.2889L24.541 13.12V21.774L24.8225 22.1962V22.406H22.824L22.6705 21.3364C22.4479 22.2525 22.0257 22.5775 21.2222 22.5775ZM26.1607 32.5262L26.4422 32.9484V33.1608H23.909V32.9484L24.1904 32.5262V27.4597C24.1904 26.8558 24.0088 26.4899 23.5712 26.4899C23.0492 26.4899 22.6705 26.9275 22.6705 27.7847V32.5262L22.952 32.9484V33.1608H20.4187V32.9484L20.7002 32.5262V24.6732L20.4187 24.2509V24.0411L22.6705 23.8722V26.7842C22.9238 26.1803 23.4996 25.8425 24.3158 25.8425C25.4699 25.8425 26.1582 26.5744 26.1582 27.9945V32.5262H26.1607ZM20.8153 18.7904C20.8153 21.3236 21.0405 22.0964 21.6598 22.0964C22.4325 22.0964 22.5733 20.9859 22.5733 18.7623C22.5733 16.6103 22.4197 15.5407 21.6725 15.5407C21.0405 15.5407 20.8153 16.3007 20.8153 18.7904ZM34.9426 21.774L35.2241 22.1962V22.406H32.6909V22.1962L32.9723 21.774V16.554C32.9723 16.0473 32.8035 15.7377 32.4094 15.7377C31.9181 15.7377 31.524 16.1753 31.524 17.0171V21.774L31.8055 22.1962V22.406H29.2723V22.1962L29.5537 21.774V16.554C29.5537 16.0473 29.3849 15.7377 28.9908 15.7377C28.4995 15.7377 28.1054 16.1753 28.1054 17.0171V21.774L28.3869 22.1962V22.406H25.8537V22.1962L26.1351 21.774V16.0473L25.8537 15.7096V15.4997L27.8803 15.2592H28.0492L28.1054 16.0473C28.3434 15.4281 28.9345 15.0903 29.738 15.0903C30.5952 15.0903 31.1581 15.5125 31.4115 16.2725C31.6213 15.5407 32.284 15.0903 33.1284 15.0903C34.239 15.0903 34.9426 15.8222 34.9426 17.2423V21.774ZM32.3122 31.0907C32.3122 32.3138 31.524 33.3271 29.6254 33.3271C29.1341 33.3271 28.4714 33.2708 27.4453 33.0866V30.4715H28.021L28.2027 31.0344C28.653 32.4699 29.088 33.0047 29.7789 33.0047C30.4263 33.0047 30.8485 32.539 30.8485 31.8225C30.8485 31.2314 30.5517 30.8246 29.8506 30.4433L28.6402 29.7959C27.8675 29.3737 27.4453 28.7135 27.4453 27.8973C27.4453 26.6179 28.4458 25.8425 30.1039 25.8425C30.5824 25.8425 31.2016 25.9116 31.8772 26.0524V28.1071H31.3014L31.0046 27.3599C30.6668 26.4592 30.3444 26.165 29.8096 26.165C29.2339 26.165 28.8961 26.5027 28.8961 27.0657C28.8961 27.5442 29.1776 27.8666 29.8659 28.2606L31.0609 28.9362C31.8746 29.4019 32.3122 30.0621 32.3122 31.0907ZM41.4165 21.774L41.698 22.1962V22.406H39.546L39.4487 21.5898C39.2236 22.209 38.6325 22.5749 37.8725 22.5749C36.7466 22.5749 36.0429 21.8712 36.0429 20.7172C36.0429 19.5913 36.675 18.8467 38.6171 18.0867L39.4462 17.7643V16.7101C39.4462 15.7812 39.2773 15.4025 38.7579 15.4025C38.3356 15.4025 38.0977 15.6277 37.6883 16.6538L37.2251 17.8078H36.5905V15.5151C37.4221 15.2618 38.2512 15.0929 38.9677 15.0929C40.5567 15.0929 41.4165 15.8529 41.4165 17.2321V21.774ZM39.4462 20.5918V18.1584L39.1801 18.271C38.351 18.6087 38.0414 19.3687 38.0414 20.4792C38.0414 21.3108 38.2384 21.7894 38.7016 21.7894C39.1647 21.7894 39.4462 21.339 39.4462 20.5918ZM48.6477 22.1962V22.406H46.1145V22.1962L46.396 21.774V16.7075C46.396 16.1011 46.2143 15.7377 45.7767 15.7377C45.2547 15.7377 44.876 16.1753 44.876 17.0325V21.774L45.1575 22.1962V22.406H42.6242V22.1962L42.9057 21.774V16.0473L42.6242 15.7096V15.4997L44.6508 15.2592H44.8197L44.876 16.0473C45.114 15.4281 45.6923 15.0903 46.5213 15.0903C47.6754 15.0903 48.3637 15.8222 48.3637 17.2423V21.774L48.6477 22.1962Z" fill="white"/>
</g>
</g>
<defs>
<clipPath id="clip0_2054_186">
<rect width="49" height="45" fill="white"/>
</clipPath>
<clipPath id="clip1_2054_186">
<rect width="49.1437" height="20.66" fill="white" transform="translate(-6.10352e-05 12.6697)"/>
</clipPath>
</defs>
</svg>
