<svg width="72" height="45" viewBox="0 0 72 45" fill="none" xmlns="http://www.w3.org/2000/svg">
<path d="M2.13143 24.1705H7.12331V26.0495H6.10352e-05V15H2.13143V24.1705ZM9.8997 22.6C9.70339 24.6472 11.9469 25.6849 13.0407 23.7218H15.0038C14.3307 27.003 8.13291 28.1247 7.90855 22.1793C7.76833 17.1594 13.265 16.1779 14.8075 20.076C15.0038 20.6369 15.1159 21.4221 15.1159 22.2074C15.1159 22.3196 15.1159 22.3757 15.0879 22.572H9.8997V22.6ZM13.0126 21.2258C12.7883 18.2531 9.75948 19.1225 9.92774 21.2258H13.0126ZM23.1086 26.0214H20.9492C20.7528 25.7971 20.7248 25.6288 20.7248 25.1801C20.0237 26.3299 16.2938 27.5638 16.0414 23.89C16.0414 22.4317 17.051 21.4221 18.313 21.31C20.837 21.0295 20.8089 20.6089 20.6687 19.8236C20.3602 19.2347 18.2008 19.0103 18.1447 20.4967H16.2097C16.3499 16.5144 22.8001 16.8229 22.6599 20.1602V24.7033C22.6599 25.124 22.772 25.3483 23.1086 25.7129V26.0214ZM20.6968 22.1793C20.4724 22.2915 19.1543 22.572 19.1543 22.572C18.313 22.7402 18.0045 23.217 18.0045 23.862C18.4813 25.4886 20.9492 24.4229 20.6687 22.7683V22.2074H20.6968V22.1793ZM26.4739 17.8605V19.459C26.9226 18.3653 27.82 17.552 28.8576 17.7203V19.8517C27.1189 19.5432 26.4739 20.4126 26.4739 21.6745V26.0214H24.4827V17.8605H26.4739ZM31.9706 17.8605V19.0384C32.7278 17.2435 36.8783 16.879 36.8783 20.5528V26.0214H34.8872V20.9734C35.0554 18.7299 31.8584 19.2347 31.9986 21.1137V26.0214H30.0075V17.8605H31.9706ZM43.609 25.2081C43.1042 26.0495 42.4591 26.386 41.4776 26.386C37.1307 26.386 37.2148 17.6923 41.4776 17.6923C42.4591 17.6923 43.1042 18.0849 43.609 18.8701V15H45.6001V26.0214H43.609V25.2081ZM41.9263 24.5912C44.1137 24.5912 44.2259 19.4871 41.9263 19.4871C39.6547 19.4871 39.6547 24.5912 41.9263 24.5912ZM50.8724 26.386C45.516 26.386 45.9366 17.4959 50.8444 17.6923C55.7521 17.2996 56.2008 26.7225 50.8724 26.386ZM50.8724 24.6753C53.3403 24.6753 53.2562 19.431 50.8724 19.431C48.6289 19.2908 48.2082 24.5912 50.8724 24.6753ZM63.4643 26.386C58.1079 26.386 58.5285 17.4959 63.4363 17.6923C68.3721 17.2996 68.7927 26.7225 63.4643 26.386ZM63.4643 24.6753C65.9322 24.6753 65.8481 19.431 63.4643 19.431C61.2488 19.2908 60.8282 24.5912 63.4643 24.6753Z" fill="white"/>
<path d="M58.192 27.1993C58.3322 29.583 55.64 28.9661 55.2474 28.938V27.3115C55.3876 27.3675 56.257 27.5919 56.2009 26.7786V17.9727H58.192V27.1993ZM58.192 17.0192H56.2009V15.2244H58.192V17.0192Z" fill="white"/>
</svg>
