<svg width="77" height="45" viewBox="0 0 77 45" fill="none" xmlns="http://www.w3.org/2000/svg">
<g clip-path="url(#clip0_2075_175)">
<path d="M71.989 21.5629L69.6018 26.0961L67.2145 21.5629H71.989ZM64.7333 16.8468H74.4715L72.9587 19.7222V19.7161H66.2467V19.7222L64.7333 16.8468ZM61.7065 15L69.603 30L77.4995 15H61.7065Z" fill="white"/>
<path d="M19.8127 16.7829H17.8124V28.3453H19.8127V16.7829Z" fill="white"/>
<path d="M43.9451 26.6615V23.1477H48.5013V21.4624H43.9451V18.4667H49.2468V16.7829H41.9448V28.3453H49.3588V26.6615H43.9451Z" fill="white"/>
<path d="M36.0799 16.7829H33.5807L29.0169 21.5279V16.7829H27.0166V28.3453H29.0169V23.6368L33.9556 28.3453H36.7058L30.5795 22.5031L36.0799 16.7829Z" fill="white"/>
<path d="M6.15314 20.5434L8.3118 24.6668H3.99453L6.15314 20.5434ZM-6.10352e-05 28.3452H2.07043L3.02501 26.5227H9.28427L10.2389 28.3452H12.3094L6.15314 16.6548L-6.10352e-05 28.3452Z" fill="white"/>
<path d="M10.4363 16.6548C9.81632 16.6548 9.3144 17.1668 9.3144 17.7991C9.3144 18.4315 9.81632 18.9435 10.4363 18.9435C11.0562 18.9435 11.5582 18.4315 11.5582 17.7991C11.5582 17.1668 11.0562 16.6548 10.4363 16.6548Z" fill="white"/>
<path d="M1.87152 18.945C2.49147 18.945 2.99341 18.433 2.99341 17.8006C2.99341 17.1682 2.49147 16.6563 1.87152 16.6563C1.25156 16.6563 0.749625 17.1682 0.749625 17.8006C0.749625 18.433 1.25156 18.945 1.87152 18.945Z" fill="white"/>
</g>
<defs>
<clipPath id="clip0_2075_175">
<rect width="77" height="45" fill="white"/>
</clipPath>
</defs>
</svg>
