<svg width="57" height="45" viewBox="0 0 57 45" fill="none" xmlns="http://www.w3.org/2000/svg">
<g clip-path="url(#clip0_2109_248)">
<g clip-path="url(#clip1_2109_248)">
<path d="M11.5626 19.3083C11.5626 21.217 13.1099 22.7643 15.0186 22.7643C13.1099 22.7643 11.5627 24.3116 11.5626 26.2202C11.5626 24.3116 10.0154 22.7643 8.10669 22.7643C10.0154 22.7643 11.5626 21.217 11.5626 19.3083Z" fill="white"/>
<path d="M11.52 11.2017C9.24156 11.2017 7.01431 11.8773 5.11989 13.1431C3.22546 14.4089 1.74893 16.2081 0.877018 18.313C0.00510827 20.418 -0.223023 22.7343 0.221473 24.9689C0.665969 27.2035 1.76313 29.2562 3.37421 30.8672L5.0037 29.2377C3.7149 27.9489 2.83722 26.3069 2.48164 24.5193C2.12606 22.7317 2.30856 20.8788 3.00605 19.1949C3.70354 17.511 4.8847 16.0718 6.40017 15.0592C7.91563 14.0466 9.69734 13.5061 11.52 13.5061L11.52 11.2017Z" fill="url(#paint0_linear_2109_248)"/>
<path d="M11.52 34.2413C13.7984 34.2413 16.0256 33.5657 17.9201 32.2999C19.8145 31.0341 21.291 29.2349 22.1629 27.1299C23.0348 25.025 23.263 22.7087 22.8185 20.4741C22.374 18.2395 21.2768 16.1868 19.6657 14.5757L18.0362 16.2052C19.325 17.494 20.2027 19.136 20.5583 20.9237C20.9139 22.7113 20.7314 24.5642 20.0339 26.2481C19.3364 27.9319 18.1552 29.3712 16.6398 30.3838C15.1243 31.3964 13.3426 31.9369 11.52 31.9369L11.52 34.2413Z" fill="url(#paint1_linear_2109_248)"/>
<path d="M2.59241 20.4345C3.19895 18.0668 4.72124 16.0369 6.82438 14.7916C8.92752 13.5462 11.4392 13.1873 13.807 13.7939C16.1747 14.4004 18.2046 15.9227 19.4499 18.0258C20.6953 20.129 21.0542 22.6407 20.4476 25.0084L18.2163 24.4368C18.6712 22.6609 18.402 20.7769 17.4679 19.1995C16.5338 17.622 15.0113 16.4802 13.2354 16.0252C11.4594 15.5703 9.57549 15.8395 7.998 16.7736C6.42052 17.7077 5.27871 19.2302 4.82376 21.0061L2.59241 20.4345Z" fill="url(#paint2_linear_2109_248)"/>
<path d="M20.4054 25.1673C19.7595 27.5137 18.2117 29.5094 16.0998 30.7188C13.9879 31.9282 11.4833 32.2532 9.13271 31.6228C6.78208 30.9923 4.77625 29.4577 3.55296 27.3538C2.32967 25.2499 1.98825 22.7475 2.6032 20.3928L4.83186 20.9748C4.37061 22.741 4.6267 24.6179 5.54424 26.196C6.46178 27.7741 7.96628 28.9251 9.72939 29.398C11.4925 29.8708 13.3711 29.6271 14.9551 28.72C16.5392 27.8128 17.7002 26.316 18.1846 24.556L20.4054 25.1673Z" fill="url(#paint3_linear_2109_248)"/>
<path d="M11.52 29.6336C14.0726 29.6336 16.5529 28.7858 18.5714 27.2234C20.5899 25.6609 22.0323 23.4722 22.6721 21.0011L20.4412 20.4235C19.9294 22.4003 18.7756 24.1512 17.1608 25.4011C15.5461 26.651 13.5619 27.3292 11.52 27.3292L11.52 29.6336Z" fill="white"/>
<path d="M11.5199 15.8095C8.96735 15.8095 6.48704 16.6573 4.46851 18.2198C2.44999 19.7822 1.00758 21.9709 0.367804 24.442L2.5987 25.0196C3.11049 23.0428 4.26436 21.292 5.87909 20.042C7.49383 18.7921 9.47797 18.1139 11.5199 18.1139L11.5199 15.8095Z" fill="white"/>
</g>
<path d="M54.6803 27.4524C53.8595 27.4524 53.1854 27.2738 52.6581 26.9165C52.1349 26.555 51.8138 26.0511 51.6948 25.4046L52.8558 25.2196C52.9494 25.5939 53.1642 25.8916 53.5001 26.1127C53.8361 26.3296 54.2529 26.4381 54.7505 26.4381C55.2226 26.4381 55.5926 26.3403 55.8605 26.1446C56.1284 25.949 56.2624 25.6832 56.2624 25.3472C56.2624 25.1516 56.2178 24.9942 56.1284 24.8751C56.0391 24.7518 55.8541 24.637 55.5734 24.5306C55.297 24.4243 54.8781 24.2967 54.3167 24.1479C53.7085 23.9863 53.2301 23.8183 52.8813 23.6439C52.5326 23.4695 52.2838 23.2675 52.1349 23.0379C51.9861 22.8082 51.9117 22.5296 51.9117 22.2022C51.9117 21.7981 52.0222 21.4451 52.2434 21.1432C52.4645 20.837 52.7729 20.6009 53.1684 20.4351C53.5682 20.2692 54.0317 20.1863 54.5591 20.1863C55.0822 20.1863 55.55 20.2692 55.9626 20.4351C56.3751 20.6009 56.7068 20.837 56.9578 21.1432C57.2129 21.4451 57.3639 21.7981 57.4107 22.2022L56.2497 22.4127C56.1944 22.0427 56.0157 21.7514 55.7138 21.5387C55.4161 21.3261 55.0312 21.2134 54.5591 21.2006C54.1126 21.1836 53.7489 21.2623 53.4682 21.4366C53.1918 21.611 53.0536 21.847 53.0536 22.1447C53.0536 22.3106 53.1046 22.4531 53.2067 22.5722C53.313 22.6913 53.5065 22.804 53.7872 22.9103C54.0722 23.0166 54.4847 23.1378 55.0248 23.2739C55.633 23.427 56.1114 23.595 56.4602 23.7779C56.8132 23.9565 57.0641 24.1691 57.2129 24.4158C57.3618 24.6582 57.4362 24.9581 57.4362 25.3153C57.4362 25.9788 57.1917 26.5019 56.7026 26.8846C56.2135 27.2631 55.5394 27.4524 54.6803 27.4524Z" fill="white"/>
<path d="M47.4903 27.446C47.048 27.446 46.6673 27.3759 46.3484 27.2355C46.0336 27.0952 45.7721 26.908 45.5637 26.6741C45.3553 26.4402 45.1916 26.1808 45.0725 25.8959C44.9534 25.6109 44.8683 25.3196 44.8173 25.0219C44.7705 24.7242 44.7471 24.4456 44.7471 24.1862V20.3777H45.8954V23.8289C45.8954 24.1522 45.9252 24.4647 45.9847 24.7667C46.0443 25.0687 46.1442 25.3408 46.2846 25.5833C46.4292 25.8257 46.6205 26.0171 46.8587 26.1574C47.1011 26.2978 47.4031 26.3679 47.7646 26.3679C48.0495 26.3679 48.309 26.319 48.5429 26.2212C48.7768 26.1234 48.9767 25.9788 49.1425 25.7874C49.3084 25.5918 49.436 25.3451 49.5253 25.0474C49.6146 24.7497 49.6593 24.4031 49.6593 24.0076L50.4057 24.2372C50.4057 24.9007 50.2844 25.4727 50.042 25.9533C49.8039 26.4338 49.4658 26.8039 49.0277 27.0633C48.5939 27.3185 48.0814 27.446 47.4903 27.446ZM49.7869 27.2674V25.4238H49.6593V20.3777H50.8012V27.2674H49.7869Z" fill="white"/>
<path d="M40.1669 27.4588C39.6523 27.4588 39.2206 27.3652 38.8718 27.1781C38.5274 26.9867 38.2658 26.7358 38.0872 26.4253C37.9128 26.1149 37.8256 25.7746 37.8256 25.4046C37.8256 25.0431 37.8937 24.7305 38.0298 24.4668C38.1701 24.1989 38.3657 23.9778 38.6167 23.8034C38.8676 23.6248 39.1674 23.4844 39.5162 23.3823C39.8436 23.293 40.2094 23.2165 40.6134 23.1527C41.0217 23.0846 41.4342 23.023 41.851 22.9677C42.2678 22.9124 42.657 22.8592 43.0185 22.8082L42.6102 23.0442C42.6229 22.4318 42.4996 21.9789 42.2402 21.6854C41.985 21.392 41.5427 21.2453 40.9133 21.2453C40.4965 21.2453 40.1307 21.3409 39.816 21.5323C39.5055 21.7195 39.2865 22.0257 39.1589 22.451L38.0808 22.1256C38.2467 21.5217 38.5678 21.0475 39.0441 20.703C39.5204 20.3585 40.1477 20.1863 40.926 20.1863C41.5512 20.1863 42.0871 20.299 42.5336 20.5244C42.9844 20.7455 43.3076 21.0815 43.5033 21.5323C43.6011 21.745 43.6628 21.9768 43.6883 22.2277C43.7138 22.4744 43.7266 22.7338 43.7266 23.006V27.2674H42.7186V25.6151L42.9547 25.7682C42.6952 26.3254 42.3316 26.7464 41.8638 27.0314C41.4002 27.3163 40.8346 27.4588 40.1669 27.4588ZM40.3391 26.5082C40.7474 26.5082 41.1004 26.4359 41.3981 26.2913C41.7 26.1425 41.9425 25.949 42.1253 25.7108C42.3082 25.4684 42.4273 25.2047 42.4826 24.9198C42.5464 24.7071 42.5804 24.4711 42.5847 24.2117C42.5932 23.948 42.5974 23.746 42.5974 23.6056L42.9929 23.7779C42.6229 23.8289 42.2593 23.8778 41.9021 23.9246C41.5448 23.9714 41.2067 24.0224 40.8877 24.0777C40.5688 24.1287 40.2817 24.1904 40.0265 24.2627C39.8394 24.3222 39.6629 24.3988 39.497 24.4924C39.3354 24.5859 39.2036 24.7071 39.1015 24.856C39.0037 25.0006 38.9548 25.1813 38.9548 25.3982C38.9548 25.5854 39.0016 25.764 39.0951 25.9341C39.1929 26.1042 39.3418 26.2424 39.5417 26.3488C39.7458 26.4551 40.0116 26.5082 40.3391 26.5082Z" fill="white"/>
<path d="M34.1828 27.2671V20.3774H35.1971V22.0424L35.0313 21.8255C35.1121 21.6129 35.2163 21.4172 35.3438 21.2386C35.4757 21.06 35.6224 20.9133 35.784 20.7984C35.9627 20.6538 36.1647 20.5433 36.3901 20.4667C36.6155 20.3901 36.8451 20.3455 37.079 20.3327C37.313 20.3157 37.532 20.3306 37.7361 20.3774V21.4427C37.498 21.379 37.2364 21.3619 36.9515 21.3917C36.6665 21.4215 36.4028 21.5257 36.1604 21.7043C35.9393 21.8617 35.767 22.053 35.6437 22.2784C35.5246 22.5038 35.4417 22.7484 35.3949 23.0121C35.3481 23.2715 35.3247 23.5373 35.3247 23.8095V27.2671H34.1828Z" fill="white"/>
<path d="M28.1896 27.2671V18.0808H33.5483V19.2163H29.3251V22.1062H32.7827V23.2417H29.3251V27.2671H28.1896Z" fill="white"/>
</g>
<defs>
<linearGradient id="paint0_linear_2109_248" x1="2.59209" y1="25.0254" x2="11.5199" y2="11.2016" gradientUnits="userSpaceOnUse">
<stop stop-color="#00A6BC"/>
<stop offset="1" stop-color="white"/>
</linearGradient>
<linearGradient id="paint1_linear_2109_248" x1="20.4479" y1="20.4175" x2="11.52" y2="34.2413" gradientUnits="userSpaceOnUse">
<stop stop-color="white"/>
<stop offset="1" stop-color="#005D6E"/>
</linearGradient>
<linearGradient id="paint2_linear_2109_248" x1="11.52" y1="13.5056" x2="18.2186" y2="24.4281" gradientUnits="userSpaceOnUse">
<stop stop-color="#00F5DD"/>
<stop offset="1" stop-color="white"/>
</linearGradient>
<linearGradient id="paint3_linear_2109_248" x1="11.52" y1="31.9373" x2="4.82146" y2="20.9722" gradientUnits="userSpaceOnUse">
<stop stop-color="#00F5DD"/>
<stop offset="1" stop-color="white"/>
</linearGradient>
<clipPath id="clip0_2109_248">
<rect width="57" height="45" fill="white"/>
</clipPath>
<clipPath id="clip1_2109_248">
<rect width="23.5" height="23.5" fill="white" transform="translate(6.10352e-05 11)"/>
</clipPath>
</defs>
</svg>
