<svg width="85" height="45" viewBox="0 0 85 45" fill="none" xmlns="http://www.w3.org/2000/svg">
<g clip-path="url(#clip0_2111_189)">
<path d="M26.333 19.5943C26.1922 19.3671 26.0158 19.1687 25.8039 18.9957C25.5919 18.8244 25.3528 18.6905 25.0849 18.5938C24.817 18.4989 24.5372 18.4497 24.2455 18.4497C23.7114 18.4497 23.2569 18.5531 22.8838 18.76C22.5108 18.9669 22.2072 19.245 21.9749 19.5926C21.7426 19.9402 21.573 20.337 21.4679 20.7813C21.3628 21.2256 21.3085 21.6851 21.3085 22.1582C21.3085 22.6314 21.3611 23.0536 21.4679 23.4826C21.573 23.9116 21.7426 24.2982 21.9749 24.6408C22.2072 24.9833 22.5091 25.2597 22.8838 25.4649C23.2569 25.6718 23.7114 25.7752 24.2455 25.7752C24.9713 25.7752 25.5394 25.5531 25.948 25.1088C26.3567 24.6645 26.606 24.0795 26.6975 23.3537H28.9986C28.9376 24.0303 28.7816 24.6408 28.5289 25.1851C28.2763 25.7294 27.9439 26.1941 27.5301 26.5773C27.1164 26.9605 26.6314 27.2539 26.0769 27.4557C25.5224 27.6575 24.9119 27.7575 24.2455 27.7575C23.418 27.7575 22.6736 27.6134 22.0122 27.3268C21.3509 27.0385 20.793 26.6434 20.3403 26.1381C19.8858 25.6345 19.5382 25.041 19.2957 24.3593C19.0532 23.6776 18.9328 22.9434 18.9328 22.1565C18.9328 21.3697 19.0532 20.5999 19.2957 19.908C19.5382 19.2162 19.8858 18.6142 20.3403 18.0987C20.7947 17.5832 21.3509 17.1813 22.0122 16.8879C22.6736 16.5946 23.418 16.4487 24.2455 16.4487C24.8407 16.4487 25.4037 16.5352 25.9328 16.7065C26.4618 16.8777 26.9366 17.1287 27.3555 17.456C27.7743 17.7833 28.1202 18.1902 28.3916 18.6752C28.6629 19.1602 28.8358 19.7147 28.9054 20.3404H26.6043C26.5636 20.0674 26.4737 19.8181 26.3313 19.5909L26.333 19.5943Z" fill="white"/>
<path d="M29.677 21.9104C29.8686 21.4017 30.1416 20.9676 30.4943 20.6081C30.8471 20.2503 31.271 19.9722 31.7661 19.7755C32.2613 19.5788 32.8158 19.4805 33.4313 19.4805C34.0469 19.4805 34.6048 19.5788 35.1033 19.7755C35.6019 19.9722 36.0292 20.2503 36.3819 20.6081C36.7346 20.9659 37.0076 21.4 37.1993 21.9104C37.3909 22.4209 37.4875 22.9872 37.4875 23.613C37.4875 24.2387 37.3909 24.8034 37.1993 25.3087C37.0076 25.814 36.7346 26.2447 36.3819 26.6025C36.0292 26.9603 35.6019 27.235 35.1033 27.4266C34.6048 27.6183 34.0469 27.7149 33.4313 27.7149C32.8158 27.7149 32.2613 27.6183 31.7661 27.4266C31.271 27.235 30.8471 26.9603 30.4943 26.6025C30.1416 26.2447 29.8686 25.8123 29.677 25.3087C29.4854 24.8034 29.3887 24.2387 29.3887 23.613C29.3887 22.9872 29.4837 22.4192 29.677 21.9104ZM31.6305 24.5286C31.6915 24.8271 31.795 25.0933 31.9408 25.3307C32.0866 25.5681 32.2816 25.7564 32.5241 25.8988C32.7666 26.0395 33.0685 26.1108 33.433 26.1108C33.7976 26.1108 34.1012 26.0395 34.3487 25.8988C34.5963 25.758 34.793 25.5681 34.9388 25.3307C35.0847 25.0933 35.1881 24.8254 35.2492 24.5286C35.3102 24.2302 35.3407 23.925 35.3407 23.613C35.3407 23.3009 35.3102 22.9923 35.2492 22.6905C35.1881 22.3886 35.0847 22.1207 34.9388 21.8884C34.793 21.6561 34.5963 21.4679 34.3487 21.3203C34.1012 21.1745 33.7959 21.1016 33.433 21.1016C33.0702 21.1016 32.7666 21.1745 32.5241 21.3203C32.2816 21.4662 32.0883 21.6561 31.9408 21.8884C31.795 22.1207 31.6915 22.3886 31.6305 22.6905C31.5694 22.9923 31.5389 23.3009 31.5389 23.613C31.5389 23.925 31.5694 24.2319 31.6305 24.5286Z" fill="white"/>
<path d="M38.1844 18.4818V16.7114H40.3346V18.4818H38.1844ZM40.3329 19.6925V27.5183H38.1827V19.6925H40.3329Z" fill="white"/>
<path d="M43.3157 19.6924V20.7828H43.3615C43.6345 20.3283 43.9872 19.9977 44.4213 19.7908C44.8554 19.5839 45.2997 19.4805 45.7524 19.4805C46.3273 19.4805 46.7987 19.5585 47.1684 19.7145C47.5364 19.8705 47.8263 20.0875 48.0383 20.3656C48.2503 20.6437 48.3995 20.9812 48.4843 21.3797C48.5707 21.7782 48.6131 22.2191 48.6131 22.704V27.5165H46.4647V23.0975C46.4647 22.4514 46.3629 21.9698 46.1611 21.651C45.9593 21.3322 45.6015 21.1745 45.086 21.1745C44.501 21.1745 44.0771 21.3492 43.8142 21.6968C43.5514 22.0444 43.4208 22.6176 43.4208 23.4146V27.5165H41.2723V19.6907H43.3157V19.6924Z" fill="white"/>
<path d="M54.5923 16.7114C55.2689 16.7114 55.8438 16.8098 56.3169 17.0065C56.7917 17.2032 57.1766 17.4626 57.4751 17.7865C57.7735 18.1087 57.9906 18.4784 58.1262 18.8921C58.2619 19.3059 58.3314 19.7349 58.3314 20.1792C58.3314 20.6235 58.2636 21.0389 58.1262 21.4578C57.9906 21.8766 57.7735 22.248 57.4751 22.5702C57.1766 22.8923 56.7917 23.1535 56.3169 23.3502C55.8421 23.5469 55.2672 23.6453 54.5923 23.6453H52.0945V27.52H49.7188V16.7114H54.5923ZM53.9412 21.7969C54.2142 21.7969 54.4753 21.7766 54.728 21.7359C54.9806 21.6952 55.2028 21.6172 55.3944 21.5019C55.586 21.3865 55.7403 21.2221 55.8556 21.0101C55.971 20.7981 56.0303 20.52 56.0303 20.1775C56.0303 19.835 55.9727 19.5569 55.8556 19.3449C55.7386 19.1329 55.586 18.9684 55.3944 18.8531C55.2028 18.7378 54.9806 18.6598 54.728 18.6191C54.4753 18.5784 54.2125 18.5581 53.9412 18.5581H52.0945V21.7969H53.9412Z" fill="white"/>
<path d="M64.1274 27.5184V26.428H64.0816C63.8086 26.8825 63.4559 27.2098 63.0218 27.4116C62.5877 27.6134 62.1434 27.7134 61.6889 27.7134C61.1141 27.7134 60.6427 27.6371 60.273 27.4862C59.905 27.3353 59.6151 27.1199 59.4031 26.8435C59.1911 26.5654 59.0419 26.2279 58.9571 25.8294C58.8706 25.431 58.8282 24.9901 58.8282 24.5051V19.6909H60.9767V24.11C60.9767 24.7561 61.0768 25.2376 61.2786 25.5564C61.4804 25.8752 61.8382 26.0329 62.3537 26.0329C62.9387 26.0329 63.3626 25.8583 63.6255 25.5107C63.8883 25.163 64.0189 24.5899 64.0189 23.7929V19.6909H66.1674V27.5167H64.124L64.1274 27.5184Z" fill="white"/>
<path d="M69.2586 16.7114V27.5183H67.1101V16.7114H69.2586Z" fill="white"/>
<path d="M72.0057 25.5732C72.1023 25.7394 72.2244 25.8768 72.377 25.9819C72.528 26.0887 72.7026 26.1667 72.8993 26.2159C73.096 26.2668 73.3012 26.2922 73.5132 26.2922C73.6641 26.2922 73.8235 26.2753 73.9897 26.2397C74.1559 26.2041 74.3068 26.1481 74.4441 26.0735C74.5798 25.9972 74.6934 25.8971 74.785 25.7716C74.8765 25.6462 74.9206 25.4868 74.9206 25.2951C74.9206 24.973 74.707 24.7305 74.278 24.5694C73.8489 24.4083 73.2503 24.2472 72.4839 24.0844C72.1719 24.0132 71.8649 23.9301 71.5682 23.8351C71.2697 23.7402 71.0052 23.613 70.7729 23.457C70.5406 23.301 70.354 23.1043 70.2133 22.8669C70.0725 22.6295 70.0013 22.3395 70.0013 21.997C70.0013 21.4933 70.0997 21.0796 70.2964 20.7557C70.4931 20.4335 70.7525 20.1774 71.0764 19.9909C71.3986 19.8044 71.7632 19.6738 72.1668 19.5975C72.5704 19.5212 72.9841 19.4839 73.408 19.4839C73.832 19.4839 74.2423 19.5246 74.6408 19.6043C75.0393 19.6857 75.3954 19.8213 75.7074 20.013C76.0195 20.2046 76.2806 20.4589 76.4875 20.7777C76.6944 21.0948 76.8182 21.4967 76.8588 21.9817H74.8155C74.785 21.5679 74.629 21.2881 74.3458 21.1423C74.0626 20.9965 73.7302 20.9236 73.347 20.9236C73.2266 20.9236 73.0943 20.9303 72.9536 20.9456C72.8128 20.9609 72.684 20.9931 72.567 21.044C72.45 21.0948 72.3533 21.1677 72.2719 21.2627C72.1905 21.3594 72.1515 21.4865 72.1515 21.6493C72.1515 21.8409 72.221 21.997 72.3635 22.119C72.5042 22.2394 72.6891 22.3378 72.9163 22.4141C73.1435 22.4904 73.403 22.5582 73.6963 22.6193C73.9897 22.6803 74.2864 22.7448 74.59 22.816C74.902 22.8872 75.2072 22.972 75.5057 23.0737C75.8024 23.1755 76.0686 23.3078 76.301 23.4756C76.5333 23.6418 76.7198 23.8487 76.8605 24.0963C77.0013 24.3438 77.0725 24.6491 77.0725 25.012C77.0725 25.5275 76.9691 25.9582 76.7622 26.3058C76.5553 26.6534 76.2857 26.9332 75.9516 27.1452C75.6193 27.3571 75.2377 27.5064 74.8087 27.5912C74.3797 27.6759 73.9439 27.72 73.4996 27.72C73.0553 27.72 72.6009 27.6742 72.1668 27.5844C71.7327 27.4928 71.3477 27.3419 71.0086 27.1299C70.6711 26.918 70.393 26.6382 70.176 26.2905C69.9589 25.9429 69.8402 25.5054 69.8199 24.9814H71.8632C71.8632 25.2137 71.9107 25.4121 72.0074 25.58L72.0057 25.5732Z" fill="white"/>
<path d="M79.8705 25.6411C80.1927 25.9548 80.6573 26.1108 81.2627 26.1108C81.6968 26.1108 82.0698 26.0022 82.3835 25.7852C82.6956 25.5681 82.8889 25.3392 82.9584 25.0967H84.8508C84.549 26.0362 84.0844 26.706 83.4586 27.1096C82.8329 27.5131 82.0766 27.7149 81.1881 27.7149C80.5725 27.7149 80.018 27.6166 79.5228 27.4199C79.0277 27.2232 78.6089 26.9434 78.2663 26.5805C77.9238 26.2176 77.6575 25.7835 77.471 25.2782C77.2845 24.7745 77.1912 24.2183 77.1912 23.613C77.1912 23.0076 77.2879 22.4836 77.4795 21.9783C77.6711 21.473 77.9441 21.0372 78.2968 20.6692C78.6496 20.3012 79.0718 20.0112 79.5602 19.7993C80.0502 19.5873 80.5912 19.4822 81.1881 19.4822C81.8545 19.4822 82.4344 19.6111 82.9279 19.8688C83.4213 20.1266 83.8283 20.4725 84.1471 20.9049C84.4642 21.339 84.6948 21.8342 84.8356 22.3887C84.9763 22.9432 85.0272 23.5231 84.9865 24.1285H79.3414C79.3719 24.8254 79.5483 25.329 79.8705 25.6428V25.6411ZM82.2988 21.5238C82.041 21.2406 81.651 21.0999 81.1253 21.0999C80.7828 21.0999 80.4979 21.1576 80.2707 21.2746C80.0434 21.3916 79.862 21.534 79.7263 21.7053C79.5907 21.8765 79.494 22.058 79.4381 22.2496C79.3821 22.4412 79.3499 22.6125 79.3397 22.7634H82.8363C82.7346 22.2191 82.5565 21.8053 82.2988 21.5221V21.5238Z" fill="white"/>
<path d="M8.11405 30.2281C3.64073 30.2281 0 26.5891 0 22.1141C0 17.639 3.64073 14 8.11405 14C12.5874 14 16.2281 17.6407 16.2281 22.1141C16.2281 26.5874 12.5874 30.2281 8.11405 30.2281ZM7.82239 28.5493L8.00553 28.5527C8.04283 28.5527 8.07844 28.5527 8.11575 28.5527C11.6666 28.5527 14.5544 25.6649 14.5544 22.1141C14.5544 20.9949 14.2611 19.8927 13.7083 18.9244L13.654 18.8311H8.08862C6.27758 18.8311 4.80569 20.3047 4.80569 22.1141C4.80569 22.9636 5.13296 23.7725 5.72816 24.3897L6.04866 24.7221V21.8309C6.04866 20.8677 6.83208 20.0826 7.79695 20.0826H9.22136C10.1845 20.0826 11.1257 20.4794 11.804 21.1695C12.4755 21.8546 12.835 22.7499 12.818 23.6945C12.7824 25.6123 11.1918 27.1707 9.27393 27.1707H8.08862L7.82408 27.1656V28.5459L7.82239 28.5493ZM8.11405 15.6754C4.5632 15.6754 1.67538 18.5632 1.67538 22.1141C1.67538 24.7984 3.29141 27.1554 5.7943 28.1203L6.04696 28.2187V26.7434L5.94013 26.6925C4.17149 25.8616 3.03026 24.0641 3.03026 22.1141C3.03026 19.3246 5.29915 17.0557 8.08862 17.0557H12.1431L11.6157 16.7132C10.5695 16.0332 9.35872 15.6737 8.11575 15.6737L8.11405 15.6754ZM7.82239 25.3919L8.00383 25.397C8.03266 25.397 8.05979 25.397 8.08862 25.397H9.27393C10.232 25.397 11.0256 24.6186 11.0426 23.6623C11.0511 23.1993 10.8713 22.755 10.5355 22.4142C10.1896 22.0615 9.70973 21.858 9.21967 21.858H7.82239V25.3919Z" fill="white"/>
</g>
<defs>
<clipPath id="clip0_2111_189">
<rect width="85" height="16.2281" fill="white" transform="translate(0 14)"/>
</clipPath>
</defs>
</svg>
