<svg width="26" height="45" viewBox="0 0 26 45" fill="none" xmlns="http://www.w3.org/2000/svg">
<g clip-path="url(#clip0_2136_185)">
<path d="M24.6984 21.6865C24.4491 21.6865 24.2535 21.8613 24.2535 22.0839C24.2535 22.3107 24.4577 22.4949 24.7085 22.4949C24.9537 22.4949 25.1533 22.3107 25.1533 22.0839C25.1533 21.8613 24.9533 21.6865 24.6984 21.6865Z" fill="white"/>
<path d="M13.9912 30H0V16H13.9912V30ZM1.23438 18.9355V27.0645H2.6709V23.5791H4.06641V22.2705H2.6709V20.2227H4.15723V18.9355H1.23438ZM4.55371 18.9355V27.0645H5.96094V24.4307L6.46387 26.3418H7.13281L7.66699 24.3604V27.0645H9.07422V18.9355H7.95703L6.82031 21.7275L5.70215 18.9355H4.55371ZM10.3008 18.9355C9.84391 18.9357 9.47173 19.3166 9.47168 19.7852V21.4229C9.47177 21.6759 9.58889 21.878 9.70312 22.0547L11.2998 24.3379V25.7773H10.9092V24.4043H9.47168V26.2051C9.47168 26.7637 9.8987 27.0643 10.3008 27.0645H11.9277C12.4 27.0643 12.7558 26.6911 12.7559 26.1953V24.1963C12.7559 23.8975 12.5923 23.6389 12.4541 23.4219L10.9287 21.2705V20.2227H11.3193V21.3232H12.7559V19.8047C12.7558 19.293 12.4156 18.9357 11.9277 18.9355H10.3008ZM11.8408 21.6074V21.6982H11.9609V22.0693H12.0762V21.6982H12.1953V21.6074H11.8408ZM12.248 21.6074V22.0693H12.3594L12.3535 21.7783C12.3516 21.7345 12.3517 21.7262 12.3496 21.6895L12.3701 21.7725L12.4531 22.0693H12.5527L12.6396 21.7588C12.6447 21.7396 12.6455 21.7359 12.6514 21.71L12.6553 21.6943L12.6543 21.7402L12.6465 22.0693H12.7568V21.6074H12.5889L12.5156 21.8838C12.5105 21.9051 12.5095 21.9086 12.5029 21.9404L12.4863 21.8662L12.416 21.6074H12.248Z" fill="white"/>
<path d="M15.0976 16.8586V18.6724H15.694V16.9727C15.9185 16.8034 16.0797 16.7338 16.2416 16.7338C16.3566 16.7338 16.4008 16.7629 16.4262 16.788C16.4575 16.8227 16.4706 16.884 16.4706 17.0002V18.6724H17.0873V17.007C17.3146 16.828 17.4728 16.7205 17.6606 16.7205C17.8196 16.7205 17.8844 16.7838 17.8844 16.9383V18.6724H18.5064V16.9028C18.5064 16.4955 18.1918 16.2 17.7584 16.2C17.5046 16.2 17.216 16.3138 16.9664 16.5088C16.8348 16.3198 16.5986 16.2 16.3393 16.2C16.1135 16.2 15.8579 16.3091 15.6676 16.4418C15.6391 16.3459 15.6009 16.2722 15.5942 16.2599L15.5569 16.1907L14.946 16.3166L15.02 16.4436C15.021 16.4449 15.0976 16.5797 15.0976 16.8586Z" fill="white"/>
<path d="M19.5513 16.8729C19.6175 16.7623 19.7963 16.6851 19.9857 16.6851C20.1433 16.6851 20.3451 16.7452 20.4388 16.9147C20.5103 17.0415 20.5436 17.2359 20.5436 17.5269C20.5436 17.7289 20.5262 17.8394 20.4743 17.9648C20.4036 18.1368 20.2409 18.2315 20.0166 18.2315C19.831 18.2315 19.6569 18.1607 19.5828 18.0545C19.498 17.9351 19.4429 17.6759 19.4429 17.3941C19.4429 17.1619 19.4774 16.9963 19.5513 16.8729ZM20.0061 18.73C20.7498 18.73 21.2118 18.2588 21.2118 17.5004C21.2118 17.1182 21.1292 16.8369 20.952 16.6153C20.7284 16.3377 20.3958 16.191 19.9908 16.191C19.2535 16.191 18.7955 16.674 18.7955 17.4517C18.7955 18.2522 19.2479 18.73 20.0061 18.73Z" fill="white"/>
<path d="M22.7664 18.6943L23.819 16.2564H23.1605L22.5482 17.7875C22.5372 17.8143 22.5269 17.8405 22.5173 17.8658C22.5077 17.839 22.4974 17.8118 22.4866 17.7847L21.8869 16.2564H21.214L22.231 18.6943H22.7664Z" fill="white"/>
<path d="M24.9429 16.6807C25.105 16.6807 25.2534 16.7403 25.3204 16.8322C25.373 16.9045 25.4023 17.0045 25.4137 17.1561H24.466C24.5072 16.8364 24.6639 16.6807 24.9429 16.6807ZM26.056 17.4718C26.0463 16.9674 25.9963 16.7023 25.7273 16.4655C25.5314 16.2919 25.2674 16.2 24.9634 16.2C24.6216 16.2 24.3464 16.3102 24.1222 16.5371C23.8848 16.7804 23.7834 17.0513 23.7834 17.4429C23.7834 18.2314 24.2593 18.7212 25.0252 18.7212C25.3795 18.7212 25.7093 18.6157 25.9539 18.4246L26.0324 18.3631L25.7573 17.9682L25.6697 18.0373C25.5091 18.1639 25.3301 18.2228 25.1076 18.2228C24.9336 18.2228 24.6966 18.1832 24.5539 17.9944C24.4928 17.9142 24.4625 17.7999 24.4578 17.6279H26.056V17.4718Z" fill="white"/>
<path d="M16.1964 22.45L16.7007 20.9127L17.2057 22.45H17.7541L18.5481 20.0161H17.9009L17.4821 21.5459L17.0154 20.0161H16.4233L15.9526 21.5062C15.9515 21.5016 15.9501 21.4971 15.9488 21.4926L15.5359 20.0161H14.8859L15.6677 22.45H16.1964Z" fill="white"/>
<path d="M19.7956 20.4402C19.9577 20.4402 20.1063 20.5 20.1731 20.5917C20.2259 20.6642 20.2551 20.7641 20.2664 20.9157H19.3188C19.3601 20.596 19.5166 20.4402 19.7956 20.4402ZM19.8779 22.481C20.2321 22.481 20.562 22.3754 20.8067 22.1841L20.8853 22.1227L20.6101 21.728L20.5224 21.797C20.3615 21.9234 20.1831 21.9826 19.9602 21.9826C19.7864 21.9826 19.5494 21.9429 19.4065 21.7541C19.3454 21.6737 19.3154 21.5595 19.3105 21.3875H20.9088V21.2315C20.8991 20.727 20.849 20.4619 20.5801 20.225C20.3841 20.0514 20.1202 19.9597 19.8161 19.9597C19.474 19.9597 19.1992 20.0699 18.9747 20.2968C18.7377 20.54 18.6362 20.8109 18.6362 21.2026C18.6362 21.9909 19.112 22.481 19.8779 22.481Z" fill="white"/>
<path d="M21.9075 19.33L21.8778 19.2473L21.2646 19.3493L21.3088 19.4689C21.3091 19.4703 21.364 19.622 21.364 19.8835V21.9639C21.364 22.1508 21.4163 22.2776 21.5268 22.3603C21.6226 22.4371 21.7469 22.4766 21.896 22.4766C22.0171 22.4766 22.075 22.4655 22.1911 22.4204L22.2874 22.3833L22.1373 21.9718L22.0457 21.9942C22.0444 21.9944 22.0268 21.9991 22.0191 22C22.0029 22 21.9943 21.9987 21.9917 21.9991C21.9882 21.9908 21.9806 21.9634 21.9806 21.8842V19.8878C21.9806 19.537 21.9106 19.3382 21.9075 19.33Z" fill="white"/>
<path d="M23.4334 21.9942C23.4323 21.9944 23.4144 21.9991 23.4069 22C23.3907 22 23.3823 21.9987 23.3795 21.9991C23.3759 21.9908 23.3683 21.9634 23.3683 21.8842V19.8878C23.3683 19.537 23.2982 19.3382 23.2951 19.33L23.2653 19.2473L22.6523 19.3493L22.6965 19.4689C22.697 19.4703 22.7516 19.622 22.7516 19.8835V21.9639C22.7516 22.1508 22.804 22.2776 22.9144 22.3603C23.0102 22.4371 23.1344 22.4766 23.2836 22.4766C23.4048 22.4766 23.4628 22.4655 23.5789 22.4204L23.6751 22.3833L23.5249 21.9718L23.4334 21.9942Z" fill="white"/>
<path d="M18.5064 26.0635V24.294C18.5064 23.8866 18.1918 23.5912 17.7584 23.5912C17.5046 23.5912 17.216 23.7051 16.9664 23.9C16.8348 23.7105 16.5986 23.5912 16.3393 23.5912C16.1135 23.5912 15.8579 23.7001 15.6676 23.8327C15.6391 23.7368 15.6009 23.6632 15.5942 23.6509L15.5569 23.582L14.946 23.7078L15.02 23.8348C15.021 23.8362 15.0976 23.971 15.0976 24.2494V26.0635H15.694V24.3638C15.9185 24.1943 16.0797 24.1249 16.2416 24.1249C16.3566 24.1249 16.4008 24.1539 16.4262 24.179C16.4575 24.2136 16.4706 24.2751 16.4706 24.3915V26.0635H17.0873V24.3981C17.3146 24.219 17.4728 24.1115 17.6606 24.1115C17.8196 24.1115 17.8844 24.1746 17.8844 24.3292V26.0635H18.5064Z" fill="white"/>
<path d="M19.5513 24.264C19.6175 24.1537 19.7963 24.0764 19.9857 24.0764C20.1433 24.0764 20.3451 24.1364 20.4388 24.3061C20.5103 24.4326 20.5436 24.6272 20.5436 24.9181C20.5436 25.1202 20.5262 25.2307 20.4743 25.3561C20.4036 25.5281 20.2409 25.6227 20.0166 25.6227C19.831 25.6227 19.6569 25.5522 19.5828 25.4458C19.498 25.3264 19.4429 25.0672 19.4429 24.7854C19.4429 24.5533 19.4774 24.3878 19.5513 24.264ZM19.9908 23.5823C19.2535 23.5823 18.7955 24.0655 18.7955 24.8428C18.7955 25.6434 19.2479 26.1213 20.0061 26.1213C20.7498 26.1213 21.2118 25.65 21.2118 24.8917C21.2118 24.5096 21.1292 24.2284 20.952 24.0066C20.7284 23.7289 20.3958 23.5823 19.9908 23.5823Z" fill="white"/>
<path d="M22.7152 26.0857L23.7675 23.6494H23.1092L22.4969 25.1786C22.486 25.2056 22.4757 25.2317 22.4659 25.2571C22.4565 25.2306 22.446 25.2032 22.4354 25.1762L21.8366 23.6494H21.168L22.1796 26.0857H22.7152Z" fill="white"/>
<path d="M24.8915 24.0718C25.0536 24.0718 25.2019 24.1315 25.2691 24.223C25.3217 24.2959 25.3508 24.3958 25.3622 24.547H24.4148C24.4559 24.2275 24.6126 24.0718 24.8915 24.0718ZM25.6759 23.8568C25.48 23.683 25.2159 23.5914 24.912 23.5914C24.5701 23.5914 24.2949 23.7014 24.0706 23.9281C23.8334 24.1717 23.7322 24.4424 23.7322 24.8341C23.7322 25.6226 24.2079 26.1123 24.9739 26.1123C25.3281 26.1123 25.6579 26.0069 25.9024 25.8157L25.9809 25.7544L25.7057 25.3595L25.6183 25.4284C25.4573 25.5548 25.2786 25.614 25.0561 25.614C24.8822 25.614 24.645 25.5743 24.5027 25.3855C24.4416 25.3053 24.4111 25.191 24.4062 25.0191H26.0045V24.863C25.9945 24.3583 25.945 24.0937 25.6759 23.8568Z" fill="white"/>
<path d="M15.6791 28.102C15.7452 27.9912 15.924 27.9141 16.1136 27.9141C16.271 27.9141 16.4725 27.9743 16.5665 28.1438C16.6381 28.2705 16.6713 28.4653 16.6713 28.7562C16.6713 28.9582 16.6538 29.0686 16.6019 29.1939C16.5312 29.366 16.3685 29.4607 16.1441 29.4607C15.9586 29.4607 15.7846 29.3897 15.7105 29.2834C15.6257 29.1644 15.5705 28.9051 15.5705 28.6233C15.5705 28.3909 15.605 28.2254 15.6791 28.102ZM16.1184 27.42C15.3813 27.42 14.923 27.9032 14.923 28.681C14.923 29.4812 15.3758 29.959 16.1339 29.959C16.8776 29.959 17.3393 29.488 17.3393 28.7296C17.3393 28.3473 17.2567 28.0661 17.0794 27.8446C16.8559 27.5669 16.5234 27.42 16.1184 27.42Z" fill="white"/>
<path d="M18.3437 27.2511C18.3437 26.9965 18.4831 26.967 18.5882 26.967C18.7245 26.967 18.8666 27.0306 18.9215 27.0576L19.0079 27.101L19.2644 26.6817L19.1694 26.6283C19.0049 26.5354 18.7913 26.4866 18.5519 26.4866C18.3408 26.4866 18.1834 26.527 18.0417 26.6185C17.9601 26.6721 17.7115 26.8351 17.7115 27.2468V27.4868H17.4646V27.9583H17.7115V29.9016H18.3437V27.9583H18.8675L19.0907 27.4868H18.3437V27.2511Z" fill="white"/>
<path d="M20.6621 29.4601C20.6095 29.4823 20.5582 29.4955 20.4516 29.4955C20.2612 29.4955 20.2279 29.4626 20.2279 29.2737V27.958H20.724L20.9472 27.4865H20.2454C20.255 27.2332 20.2931 26.9732 20.2937 26.9698L20.3155 26.8235L19.6725 26.9447L19.6634 27.0215C19.6619 27.0337 19.6326 27.2798 19.6238 27.4865H19.4059L19.187 27.958H19.6213V29.3663C19.6213 29.5408 19.6537 29.7852 19.9338 29.9026C20.0505 29.9501 20.1693 29.9722 20.3075 29.9722C20.4943 29.9722 20.6561 29.9403 20.8033 29.8743L20.8842 29.8381L20.7752 29.4116L20.6621 29.4601Z" fill="white"/>
<path d="M22.082 27.9099C22.244 27.9099 22.3922 27.9694 22.4595 28.0611C22.5119 28.1337 22.5411 28.2335 22.5525 28.3851H21.6051C21.6462 28.0656 21.8029 27.9099 22.082 27.9099ZM22.8665 27.6945C22.6703 27.5209 22.4063 27.4292 22.1024 27.4292C21.7606 27.4292 21.4853 27.5394 21.261 27.7662C21.0237 28.0096 20.9224 28.2804 20.9224 28.6719C20.9224 29.4605 21.3984 29.9504 22.1641 29.9504C22.5186 29.9504 22.848 29.8449 23.0926 29.6538L23.1713 29.5921L22.8961 29.1977L22.8087 29.2665C22.6478 29.3929 22.4692 29.4521 22.2463 29.4521C22.0727 29.4521 21.8355 29.4125 21.6926 29.2235C21.6319 29.1432 21.6015 29.0291 21.5967 28.857H23.195V28.7009C23.1851 28.1965 23.1353 27.9316 22.8665 27.6945Z" fill="white"/>
<path d="M24.8503 27.438C24.6031 27.438 24.3585 27.5222 24.1212 27.6894C24.0907 27.5742 24.0453 27.4921 24.0422 27.4871L24.0033 27.418L23.3941 27.5638L23.4708 27.6881C23.4716 27.6894 23.5521 27.8233 23.5521 28.0965V29.9016H24.1535V28.2026C24.3255 28.0627 24.5916 27.9498 24.7577 27.9498C24.8594 27.9498 24.9356 27.9807 24.9644 28.0101C25.0065 28.0541 25.0279 28.0764 25.0279 28.3047V29.9016H25.6446V28.123C25.6446 28.0167 25.6192 27.9112 25.5709 27.8173C25.4491 27.5868 25.1662 27.438 24.8503 27.438Z" fill="white"/>
</g>
<defs>
<clipPath id="clip0_2136_185">
<rect width="26" height="45" fill="white"/>
</clipPath>
</defs>
</svg>
