<svg width="78" height="15" viewBox="0 0 78 15" fill="none" xmlns="http://www.w3.org/2000/svg">
<path d="M7 0.145508L8.5716 4.98239H13.6574L9.5429 7.97175L11.1145 12.8086L7 9.81927L2.8855 12.8086L4.4571 7.97175L0.342604 4.98239H5.4284L7 0.145508Z" fill="#E8B931"/>
<path d="M23 0.145508L24.5716 4.98239H29.6574L25.5429 7.97175L27.1145 12.8086L23 9.81927L18.8855 12.8086L20.4571 7.97175L16.3426 4.98239H21.4284L23 0.145508Z" fill="#E8B931"/>
<path d="M39 0.145508L40.5716 4.98239H45.6574L41.5429 7.97175L43.1145 12.8086L39 9.81927L34.8855 12.8086L36.4571 7.97175L32.3426 4.98239H37.4284L39 0.145508Z" fill="#E8B931"/>
<path d="M55 0.145508L56.5716 4.98239H61.6574L57.5429 7.97175L59.1145 12.8086L55 9.81927L50.8855 12.8086L52.4571 7.97175L48.3426 4.98239H53.4284L55 0.145508Z" fill="#E8B931"/>
<path d="M71 0.145508L72.5716 4.98239H77.6574L73.5429 7.97175L75.1145 12.8086L71 9.81927L66.8855 12.8086L68.4571 7.97175L64.3426 4.98239H69.4284L71 0.145508Z" fill="#E8B931"/>
</svg>
