<svg width="28" height="29" viewBox="0 0 28 29" fill="none" xmlns="http://www.w3.org/2000/svg">
<path d="M23.625 2.77051H4.375C3.91087 2.77051 3.46575 2.95488 3.13756 3.28307C2.80937 3.61126 2.625 4.05638 2.625 4.52051V23.7705C2.625 24.2346 2.80937 24.6798 3.13756 25.0079C3.46575 25.3361 3.91087 25.5205 4.375 25.5205H23.625C24.0891 25.5205 24.5342 25.3361 24.8624 25.0079C25.1906 24.6798 25.375 24.2346 25.375 23.7705V4.52051C25.375 4.05638 25.1906 3.61126 24.8624 3.28307C24.5342 2.95488 24.0891 2.77051 23.625 2.77051ZM23.625 23.7705H4.375V4.52051H23.625V23.7705ZM10.5 12.3955V19.3955C10.5 19.6276 10.4078 19.8501 10.2437 20.0142C10.0796 20.1783 9.85706 20.2705 9.625 20.2705C9.39294 20.2705 9.17038 20.1783 9.00628 20.0142C8.84219 19.8501 8.75 19.6276 8.75 19.3955V12.3955C8.75 12.1634 8.84219 11.9409 9.00628 11.7768C9.17038 11.6127 9.39294 11.5205 9.625 11.5205C9.85706 11.5205 10.0796 11.6127 10.2437 11.7768C10.4078 11.9409 10.5 12.1634 10.5 12.3955ZM20.125 15.458V19.3955C20.125 19.6276 20.0328 19.8501 19.8687 20.0142C19.7046 20.1783 19.4821 20.2705 19.25 20.2705C19.0179 20.2705 18.7954 20.1783 18.6313 20.0142C18.4672 19.8501 18.375 19.6276 18.375 19.3955V15.458C18.375 14.8778 18.1445 14.3214 17.7343 13.9112C17.3241 13.501 16.7677 13.2705 16.1875 13.2705C15.6073 13.2705 15.0509 13.501 14.6407 13.9112C14.2305 14.3214 14 14.8778 14 15.458V19.3955C14 19.6276 13.9078 19.8501 13.7437 20.0142C13.5796 20.1783 13.3571 20.2705 13.125 20.2705C12.8929 20.2705 12.6704 20.1783 12.5063 20.0142C12.3422 19.8501 12.25 19.6276 12.25 19.3955V12.3955C12.2511 12.1812 12.3308 11.9747 12.474 11.8153C12.6172 11.6558 12.814 11.5545 13.027 11.5304C13.24 11.5064 13.4543 11.5614 13.6295 11.685C13.8046 11.8086 13.9283 11.9921 13.977 12.2008C14.569 11.7993 15.2591 11.5666 15.9733 11.5276C16.6875 11.4887 17.3988 11.6451 18.0309 11.9799C18.6629 12.3148 19.1918 12.8155 19.5607 13.4283C19.9297 14.041 20.1248 14.7427 20.125 15.458ZM10.9375 9.33301C10.9375 9.5926 10.8605 9.84635 10.7163 10.0622C10.5721 10.278 10.3671 10.4463 10.1273 10.5456C9.88744 10.6449 9.62354 10.6709 9.36894 10.6203C9.11434 10.5696 8.88048 10.4446 8.69692 10.2611C8.51337 10.0775 8.38836 9.84366 8.33772 9.58906C8.28708 9.33446 8.31307 9.07056 8.41241 8.83074C8.51175 8.59091 8.67998 8.38592 8.89581 8.2417C9.11165 8.09748 9.36541 8.02051 9.625 8.02051C9.9731 8.02051 10.3069 8.15879 10.5531 8.40493C10.7992 8.65107 10.9375 8.98491 10.9375 9.33301Z" fill="#0A0A0A"/>
</svg>
