<svg width="25" height="24" viewBox="0 0 25 24" fill="none" xmlns="http://www.w3.org/2000/svg">
<path d="M21.5382 7.90748C21.0683 6.79432 20.378 5.78426 19.5102 4.93458C18.6425 4.08491 17.609 3.40708 16.4722 2.94692C15.3373 2.48676 14.1204 2.25 12.89 2.25H11.7512C9.3644 2.25 7.0751 3.17796 5.3864 4.83148C3.6977 6.485 2.75 8.7247 2.75 11.0618V20.412C2.75 20.6583 2.8514 20.8951 3.02885 21.0707C3.20825 21.2445 3.45005 21.3438 3.7016 21.3438H13.2507C14.4324 21.3438 15.6024 21.1146 16.6944 20.6717C17.7864 20.2287 18.779 19.5814 19.6155 18.7623C20.4501 17.9432 21.1131 16.9732 21.5655 15.904C22.0179 14.8347 22.25 13.6872 22.25 12.5301V11.415C22.25 10.2102 22.0082 9.01874 21.5382 7.90748ZM17.3418 14.1263C15.9534 15.3178 14.2842 15.946 12.5136 15.946C10.743 15.946 9.0719 15.3178 7.68545 14.1263C7.3598 13.8495 7.3286 13.3664 7.61135 13.0494C7.89605 12.7306 8.38745 12.7 8.7131 12.9769C9.81095 13.9201 11.1252 14.4185 12.5136 14.4185C13.902 14.4185 15.2144 13.9201 16.3142 12.9769C16.6379 12.7 17.1312 12.7325 17.414 13.0494C17.6987 13.3664 17.6655 13.8495 17.3418 14.1263Z" fill="#FAFAFA"/>
</svg>
