<svg width="57" height="32" viewBox="0 0 57 32" fill="none" xmlns="http://www.w3.org/2000/svg">
<rect x="1" y="0.5" width="31" height="31" rx="15.5" fill="white"/>
<rect x="1" y="0.5" width="31" height="31" rx="15.5" stroke="#ECEBEB"/>
<path d="M20.0562 20.6144C18.9527 21.6182 17.4958 22.1745 15.8969 22.1745C12.3724 22.1745 9.78408 19.5556 9.78408 15.9598C9.78408 12.3639 12.29 9.85522 15.8969 9.85522C17.4679 9.85522 18.9527 10.3847 20.0841 11.3884L20.8531 12.0576L24.27 8.60149L23.4148 7.8208C21.4042 5.9838 18.7348 4.95312 15.8957 4.95312C9.56111 4.95312 4.96094 9.57832 4.96094 15.9328C4.96094 22.2604 9.67133 27.051 15.8957 27.051C18.788 27.051 21.4853 26.0203 23.4705 24.1538L24.2966 23.3731L20.8265 19.9196L20.0562 20.6144Z" fill="#170B26"/>
<path d="M16.0091 11.8594C18.2986 11.8594 20.1539 13.7118 20.1539 16.0027C20.1539 18.2907 18.2986 20.1461 16.0091 20.1461C13.7211 20.1461 11.8672 18.2907 11.8672 16.0027C11.8686 13.7133 13.7225 11.8594 16.0091 11.8594Z" fill="#FF3D2E"/>
<rect x="25" y="0.5" width="31" height="31" rx="15.5" fill="white"/>
<rect x="25" y="0.5" width="31" height="31" rx="15.5" stroke="#ECEBEB"/>
<path d="M51.6132 16.264C51.6132 15.4385 51.5392 14.6448 51.4016 13.8828H40.4375V18.3859H46.7027C46.4328 19.8411 45.6126 21.074 44.3797 21.8995V24.8204H48.142C50.3433 22.7938 51.6132 19.8093 51.6132 16.264Z" fill="#4285F4"/>
<path d="M40.4344 27.6405C43.5776 27.6405 46.2128 26.598 48.1389 24.8201L44.3766 21.8991C43.3342 22.5976 42.0007 23.0104 40.4344 23.0104C37.4024 23.0104 34.836 20.9625 33.9205 18.2109H30.0312V21.2271C31.9468 25.0317 35.8837 27.6405 40.4344 27.6405Z" fill="#34A853"/>
<path d="M33.9244 18.2134C33.6916 17.5149 33.5593 16.7688 33.5593 16.0015C33.5593 15.2342 33.6916 14.4881 33.9244 13.7896V10.7734H30.0351C29.2202 12.3957 28.7962 14.1861 28.7969 16.0015C28.7969 17.88 29.2467 19.6579 30.0351 21.2295L33.9244 18.2134Z" fill="#FBBC05"/>
<path d="M40.4344 8.98948C42.1436 8.98948 43.6782 9.57684 44.8846 10.7304L48.2236 7.39143C46.2075 5.51293 43.5723 4.35938 40.4344 4.35938C35.8837 4.35938 31.9468 6.96811 30.0312 10.7727L33.9205 13.7889C34.836 11.0373 37.4024 8.98948 40.4344 8.98948Z" fill="#EA4335"/>
</svg>
