<svg width="72" height="33" viewBox="0 0 72 33" fill="none" xmlns="http://www.w3.org/2000/svg">
<g clip-path="url(#clip0_2650_41543)">
<path d="M18.7241 5.979H22.0369V25.714H18.7241V5.979Z" fill="white"/>
<path d="M33.5599 19.4597C33.5599 22.5173 30.9673 22.7952 30.1031 22.7952C28.0867 22.7952 27.7986 20.9885 27.7986 20.0157V12.3718H24.4858V19.8767C24.4858 21.6834 25.062 23.3512 26.2142 24.324C27.2225 25.2969 28.5188 25.7138 30.1031 25.7138C31.2554 25.7138 32.6957 25.4358 33.5599 24.602V25.7138H36.8726V12.3718H33.5599V19.4597Z" fill="white"/>
<path d="M43.3551 7.50757H40.0423V12.3718H37.5938V15.4294H40.0423V25.7138H43.3551V15.4294H45.8036V12.3718H43.3551V7.50757Z" fill="white"/>
<path d="M56.1707 21.6838C55.4505 22.2397 54.4423 22.6566 53.4341 22.6566C51.1295 22.6566 49.5452 20.9889 49.5452 18.7652C49.5452 16.5416 51.1295 15.0128 53.4341 15.0128C54.4423 15.0128 55.4505 15.2907 56.1707 15.9856L56.6028 16.4026L58.9073 14.3179L58.3312 13.901C57.0349 12.7891 55.3065 12.0942 53.4341 12.0942C49.4012 12.0942 46.3765 15.0128 46.3765 18.9042C46.3765 22.7956 49.4012 25.7142 53.4341 25.7142C55.3065 25.7142 57.0349 25.0193 58.3312 23.9074L58.9073 23.4905L56.6028 21.2668L56.1707 21.6838Z" fill="white"/>
<path d="M70.5767 13.4839C69.5684 12.511 68.5602 12.0941 66.9759 12.0941C65.8236 12.0941 64.6713 12.372 63.8071 13.2059V5.979H60.4944V25.714H63.8071V18.3481C63.8071 15.2906 65.9676 15.0126 66.8318 15.0126C68.8483 15.0126 68.7042 16.8194 68.7042 17.7922V25.575H72.017V17.9312C72.017 16.1245 71.5849 14.4567 70.5767 13.4839Z" fill="white"/>
<path d="M53.2917 21.1275C54.5645 21.1275 55.5962 20.1319 55.5962 18.9038C55.5962 17.6757 54.5645 16.6802 53.2917 16.6802C52.019 16.6802 50.9872 17.6757 50.9872 18.9038C50.9872 20.1319 52.019 21.1275 53.2917 21.1275Z" fill="#EF4335"/>
<path d="M14.1152 20.8501C12.9629 21.9619 11.2345 22.6568 9.36212 22.6568C5.7613 22.6568 3.16872 19.8773 3.16872 16.1248C3.16872 12.3724 5.7613 9.59283 9.50615 9.59283C11.2345 9.59283 12.9629 10.2877 14.2592 11.5385L14.6913 11.9555L16.8518 9.87079L16.4197 9.45385C14.5473 7.64713 12.0987 6.67427 9.50615 6.67427C4.03291 6.53529 0 10.7047 0 16.1248C0 21.545 4.03291 25.7144 9.36212 25.7144C11.9547 25.7144 14.5473 24.7415 16.2757 22.9348L16.7078 22.5179L14.5473 20.4332L14.1152 20.8501Z" fill="white"/>
</g>
<defs>
<clipPath id="clip0_2650_41543">
<rect width="72" height="20" fill="white" transform="translate(0 6.14551)"/>
</clipPath>
</defs>
</svg>
