<svg width="90" height="29" viewBox="0 0 90 29" fill="none" xmlns="http://www.w3.org/2000/svg">
<path d="M38.6106 14.8806C38.6106 18.909 35.3256 21.8775 31.2941 21.8775C27.2626 21.8775 23.9775 18.909 23.9775 14.8806C23.9775 10.8239 27.2626 7.88379 31.2941 7.88379C35.3256 7.88379 38.6106 10.8239 38.6106 14.8806ZM35.4078 14.8806C35.4078 12.3633 33.5039 10.6409 31.2941 10.6409C29.0843 10.6409 27.1804 12.3633 27.1804 14.8806C27.1804 17.3727 29.0843 19.1204 31.2941 19.1204C33.5039 19.1204 35.4078 17.3696 35.4078 14.8806Z" fill="#EA4335"/>
<path d="M54.3945 14.8806C54.3945 18.909 51.1094 21.8775 47.0779 21.8775C43.0464 21.8775 39.7614 18.909 39.7614 14.8806C39.7614 10.827 43.0464 7.88379 47.0779 7.88379C51.1094 7.88379 54.3945 10.8239 54.3945 14.8806ZM51.1916 14.8806C51.1916 12.3633 49.2877 10.6409 47.0779 10.6409C44.8681 10.6409 42.9642 12.3633 42.9642 14.8806C42.9642 17.3727 44.8681 19.1204 47.0779 19.1204C49.2877 19.1204 51.1916 17.3696 51.1916 14.8806Z" fill="#FBBC05"/>
<path d="M69.5207 8.3065V20.868C69.5207 26.0352 66.3442 28.1456 62.5889 28.1456C59.0539 28.1456 56.9264 25.8775 56.124 24.0226L58.9125 22.909C59.4091 24.0478 60.6258 25.3917 62.5856 25.3917C64.9894 25.3917 66.479 23.969 66.479 21.2907V20.2844H66.3672C65.6503 21.133 64.2692 21.8743 62.5264 21.8743C58.8796 21.8743 55.5387 18.827 55.5387 14.9059C55.5387 10.9563 58.8796 7.88379 62.5264 7.88379C64.2659 7.88379 65.6471 8.62511 66.3672 9.44846H66.479V8.30966H69.5207V8.3065ZM66.7059 14.9059C66.7059 12.4421 64.9927 10.6409 62.8125 10.6409C60.6027 10.6409 58.7514 12.4421 58.7514 14.9059C58.7514 17.3444 60.6027 19.1204 62.8125 19.1204C64.9927 19.1204 66.7059 17.3444 66.7059 14.9059Z" fill="#4285F4"/>
<path d="M74.5354 0.943604V21.4483H71.4115V0.943604H74.5354Z" fill="#34A853"/>
<path d="M86.7092 17.1835L89.1952 18.7734C88.3929 19.9122 86.4593 21.8743 83.1184 21.8743C78.9751 21.8743 75.8807 18.8017 75.8807 14.8775C75.8807 10.7166 79.0014 7.88062 82.7599 7.88062C86.5448 7.88062 88.3962 10.7702 89.0012 12.3317L89.3333 13.1267L79.5834 17.0005C80.3299 18.4043 81.4906 19.1204 83.1184 19.1204C84.7494 19.1204 85.8806 18.3506 86.7092 17.1835ZM79.0573 14.6661L85.5748 12.0699C85.2163 11.1961 84.1378 10.5872 82.8685 10.5872C81.2407 10.5872 78.9751 11.9658 79.0573 14.6661Z" fill="#EA4335"/>
<path d="M12.1528 13.0603V10.0919H22.5801C22.6821 10.6092 22.7347 11.2212 22.7347 11.8837C22.7347 14.1108 22.1 16.8647 20.0547 18.8269C18.0652 20.8143 15.5233 21.8742 12.1561 21.8742C5.91481 21.8742 0.666626 16.9972 0.666626 11.0099C0.666626 5.02248 5.91481 0.145508 12.1561 0.145508C15.6088 0.145508 18.0685 1.44519 19.9166 3.1392L17.7331 5.23383C16.4079 4.04141 14.6125 3.11396 12.1528 3.11396C7.59516 3.11396 4.0306 6.63762 4.0306 11.0099C4.0306 15.3821 7.59516 18.9058 12.1528 18.9058C15.109 18.9058 16.7926 17.767 17.8712 16.7323C18.7459 15.8931 19.3214 14.6944 19.5483 13.0572L12.1528 13.0603Z" fill="#4285F4"/>
</svg>
