<svg width="68" height="45" viewBox="0 0 68 45" fill="none" xmlns="http://www.w3.org/2000/svg">
<g clip-path="url(#clip0_2015_957)">
<path d="M10.422 17.0075L9.77479 19.7759H5.61641L5.37093 20.8509H9.18728L8.5401 23.6266H4.72375L3.71203 27.9704H0L2.54412 17.0074L10.422 17.0075ZM15.3113 17.0075L12.7598 27.9705H9.01802L11.5696 17.0075H15.3113ZM20.6097 27.9558H16.8828L18.7649 19.7831H15.8339L16.4737 17.0074H26.0477L25.408 19.7831H22.4919L20.6097 27.9558ZM24.3385 28L26.89 17.037H30.8477L31.6511 20.9688C32.5363 19.6656 33.3992 18.3403 34.2919 17.037H38.2419L35.6904 28H31.9709L32.9231 23.9136C32.5512 24.4732 32.1867 25.0401 31.8296 25.6144H29.1962L28.8763 23.8989L27.9167 28L24.3385 28ZM40.3266 27.9853H36.5699L42.7591 17H46.4711L47.5274 27.9853H43.7111L43.5623 25.909H41.4496C41.0553 26.5937 40.7134 27.3005 40.3266 27.9853ZM42.4316 23.3395H43.4656L43.4954 20.7257L42.4316 23.3395ZM53.8823 27.9558H50.1553L52.0374 19.7831H49.1064L49.7462 17.0074H59.3202L58.6805 19.7831H55.7644L53.8823 27.9558ZM65.511 27.9705H57.5663L60.1179 17.0075H68.0625L67.4153 19.7759H63.1899L62.9742 20.711H66.8648L66.2251 23.4794H62.3344L61.9327 25.1949H66.1581L65.511 27.9705Z" fill="white"/>
</g>
<defs>
<clipPath id="clip0_2015_957">
<rect width="68" height="45" fill="white"/>
</clipPath>
</defs>
</svg>
