<svg width="106" height="45" viewBox="0 0 106 45" fill="none" xmlns="http://www.w3.org/2000/svg">
<g clip-path="url(#clip0_2015_859)">
<path d="M11.0947 11C17.2221 11 22.1893 15.9716 22.1895 22.1045C22.1895 28.2375 17.2222 33.21 11.0947 33.21C4.96727 33.2099 0 28.2375 0 22.1045C0.000161172 15.9716 4.96737 11 11.0947 11ZM8.85645 16.7393C8.59391 16.7425 8.36454 16.9183 8.29199 17.1709L7.06641 21.4375H3.99316C3.66483 21.4378 3.39854 21.7045 3.39844 22.0332C3.39844 22.362 3.66476 22.6287 3.99316 22.6289H7.51367C7.77887 22.6289 8.01255 22.4533 8.08594 22.1982L8.88965 19.4014L11.249 26.9102C11.3292 27.1653 11.5698 27.3362 11.8369 27.3271C12.1041 27.3181 12.3328 27.1312 12.3955 26.8711L13.8174 20.9766L14.1836 22.2041C14.2589 22.456 14.4902 22.6287 14.7529 22.6289H18.0752C18.4038 22.6289 18.6709 22.3621 18.6709 22.0332C18.6708 21.7044 18.4037 21.4375 18.0752 21.4375H15.1963L14.3262 18.5215C14.2492 18.2637 14.0089 18.0896 13.7402 18.0967C13.4715 18.1039 13.2409 18.2903 13.1777 18.5518L11.7412 24.5068L9.43164 17.1562C9.35284 16.9057 9.11885 16.7361 8.85645 16.7393Z" fill="white"/>
<path d="M27.1807 27.0498V17.878H28.9364L32.841 24.3507H31.9107L35.7498 17.878H37.4924L37.5186 27.0498H35.527L35.5139 20.9309H35.8808L32.8148 26.0802H31.8583L28.7268 20.9309H29.1723V27.0498H27.1807ZM43.6123 21.5729H48.0279V23.2238H43.6123V21.5729ZM43.7696 25.3465H48.7617V27.0498H41.6601V17.878H48.5913V19.5813H43.7696V25.3465ZM52.416 27.0498V17.878H56.5826C57.5784 17.878 58.4563 18.0702 59.2162 18.4545C59.9762 18.8301 60.5701 19.3586 60.9982 20.0399C61.4262 20.7213 61.6402 21.5292 61.6402 22.4639C61.6402 23.3898 61.4262 24.1978 60.9982 24.8879C60.5701 25.5692 59.9762 26.1021 59.2162 26.4864C58.4563 26.862 57.5784 27.0498 56.5826 27.0498H52.416ZM54.5386 25.3072H56.4778C57.0892 25.3072 57.6177 25.1936 58.0632 24.9665C58.5174 24.7306 58.8668 24.3987 59.1114 23.9707C59.3647 23.5427 59.4914 23.0404 59.4914 22.4639C59.4914 21.8786 59.3647 21.3764 59.1114 20.9571C58.8668 20.5291 58.5174 20.2015 58.0632 19.9744C57.6177 19.7386 57.0892 19.6206 56.4778 19.6206H54.5386V25.3072ZM67.1586 21.5729H71.5742V23.2238H67.1586V21.5729ZM67.3159 25.3465H72.3079V27.0498H65.2063V17.878H72.1376V19.5813H67.3159V25.3465ZM74.7568 27.0498L78.8448 17.878H80.9412L85.0423 27.0498H82.8149L79.4606 18.9524H80.2992L76.9318 27.0498H74.7568ZM76.8008 25.0844L77.3642 23.4728H82.0812L82.6577 25.0844H76.8008ZM90.9729 27.207C90.2392 27.207 89.536 27.111 88.8634 26.9188C88.1908 26.7179 87.6492 26.4602 87.2387 26.1457L87.9593 24.5472C88.3524 24.8267 88.8153 25.0582 89.3482 25.2416C89.8897 25.4163 90.4357 25.5037 90.986 25.5037C91.4053 25.5037 91.7416 25.4644 91.9949 25.3858C92.257 25.2984 92.4491 25.1805 92.5714 25.032C92.6937 24.8835 92.7548 24.7132 92.7548 24.521C92.7548 24.2764 92.6588 24.0843 92.4666 23.9445C92.2744 23.796 92.0211 23.6781 91.7066 23.5907C91.3922 23.4946 91.0428 23.4073 90.6584 23.3287C90.2828 23.2413 89.9029 23.1365 89.5185 23.0142C89.1429 22.8919 88.7979 22.7347 88.4834 22.5425C88.1689 22.3503 87.9113 22.097 87.7104 21.7826C87.5182 21.4681 87.4221 21.0663 87.4221 20.5771C87.4221 20.053 87.5619 19.577 87.8414 19.1489C88.1296 18.7122 88.5577 18.3672 89.1254 18.1138C89.7019 17.8518 90.4226 17.7208 91.2874 17.7208C91.8639 17.7208 92.4317 17.7906 92.9907 17.9304C93.5497 18.0614 94.0433 18.2623 94.4713 18.5331L93.8162 20.1447C93.3881 19.9002 92.9601 19.7211 92.5321 19.6075C92.1041 19.4852 91.6848 19.4241 91.2743 19.4241C90.8637 19.4241 90.5274 19.4721 90.2654 19.5682C90.0033 19.6643 89.8155 19.791 89.7019 19.9482C89.5884 20.0967 89.5316 20.2714 89.5316 20.4723C89.5316 20.7081 89.6277 20.9003 89.8199 21.0488C90.012 21.1886 90.2654 21.3021 90.5798 21.3895C90.8943 21.4768 91.2393 21.5642 91.6149 21.6515C91.9993 21.7389 92.3792 21.8393 92.7548 21.9529C93.1392 22.0665 93.4886 22.2193 93.8031 22.4115C94.1175 22.6037 94.3708 22.857 94.563 23.1714C94.7639 23.4859 94.8644 23.8833 94.8644 24.3638C94.8644 24.8791 94.7202 25.3508 94.432 25.7789C94.1437 26.2069 93.7113 26.5519 93.1348 26.814C92.567 27.076 91.8464 27.207 90.9729 27.207ZM100.232 21.5729H104.648V23.2238H100.232V21.5729ZM100.39 25.3465H105.382V27.0498H98.2801V17.878H105.211V19.5813H100.39V25.3465Z" fill="white"/>
</g>
<defs>
<clipPath id="clip0_2015_859">
<rect width="106" height="45" fill="white"/>
</clipPath>
</defs>
</svg>
