<svg width="56" height="45" viewBox="0 0 56 45" fill="none" xmlns="http://www.w3.org/2000/svg">
<g clip-path="url(#clip0_26_768)">
<path d="M22.5271 15.8887V27.3943H20.6475V15.8887H22.5271Z" fill="#01096B"/>
<path d="M24.3184 20.3826C24.6971 19.6792 25.2155 19.1324 25.8676 18.7422C26.5227 18.352 27.246 18.1555 28.0377 18.1555C28.7526 18.1555 29.3763 18.2951 29.9117 18.577C30.4442 18.859 30.8714 19.2064 31.1904 19.625V18.3065H33.0871V27.397H31.1904V26.0443C30.8714 26.4743 30.4357 26.8303 29.886 27.1179C29.3364 27.4027 28.7099 27.548 28.0064 27.548C27.2261 27.548 26.5113 27.3486 25.8619 26.947C25.2126 26.5455 24.7 25.9845 24.3184 25.2639C23.9396 24.5434 23.7488 23.7261 23.7488 22.8147C23.7488 21.9034 23.9396 21.0946 24.3184 20.3883V20.3826ZM30.8031 21.2085C30.5439 20.7471 30.2079 20.394 29.7892 20.1519C29.3706 19.9098 28.9206 19.7902 28.4365 19.7902C27.9523 19.7902 27.5023 19.907 27.0837 20.1434C26.6651 20.3797 26.3261 20.7272 26.0698 21.1829C25.8107 21.6385 25.6825 22.1825 25.6825 22.809C25.6825 23.4356 25.8107 23.9852 26.0698 24.458C26.329 24.9307 26.6707 25.2896 27.0922 25.5373C27.5166 25.7851 27.9637 25.9076 28.4365 25.9076C28.9092 25.9076 29.3706 25.7879 29.7892 25.5459C30.2079 25.3038 30.5468 24.9507 30.8031 24.4807C31.0622 24.0137 31.1904 23.4669 31.1904 22.8403C31.1904 22.2138 31.0622 21.6699 30.8031 21.2056V21.2085Z" fill="#01096B"/>
<path d="M36.1857 27.1548C35.6189 26.8956 35.1718 26.5453 34.8414 26.0982C34.5111 25.6539 34.3345 25.1555 34.3146 24.6059H36.2626C36.2967 24.9904 36.479 25.3122 36.8151 25.5713C37.1511 25.8305 37.5726 25.9587 38.0767 25.9587C38.5808 25.9587 39.0136 25.8561 39.307 25.6539C39.5975 25.4517 39.7456 25.1897 39.7456 24.8708C39.7456 24.529 39.5832 24.2784 39.2586 24.1132C38.9339 23.948 38.4184 23.7658 37.715 23.5693C37.0343 23.3813 36.479 23.2019 36.049 23.0253C35.6189 22.8487 35.2487 22.581 34.9354 22.2165C34.6222 21.8548 34.4655 21.3764 34.4655 20.7811C34.4655 20.297 34.6079 19.8556 34.8956 19.454C35.1803 19.0525 35.5904 18.7363 36.1259 18.5056C36.6584 18.275 37.2736 18.1582 37.9656 18.1582C38.9994 18.1582 39.8338 18.4202 40.4661 18.9414C41.0983 19.4654 41.4372 20.1774 41.4799 21.0773H39.6003C39.5661 20.6701 39.4038 20.3454 39.1048 20.1033C38.8086 19.8613 38.407 19.7416 37.9001 19.7416C37.3932 19.7416 37.0258 19.8356 36.7609 20.0236C36.4961 20.2116 36.3651 20.4593 36.3651 20.7669C36.3651 21.009 36.4534 21.2112 36.6299 21.3764C36.8065 21.5415 37.0201 21.6697 37.2736 21.7637C37.527 21.8577 37.9001 21.9744 38.3956 22.1168C39.0564 22.2934 39.5975 22.4728 40.0218 22.6522C40.4461 22.8345 40.8107 23.0993 41.1183 23.4525C41.4258 23.8056 41.5853 24.2727 41.5967 24.8537C41.5967 25.372 41.4543 25.8333 41.1667 26.2406C40.8819 26.6479 40.4775 26.9668 39.9535 27.1975C39.4294 27.4282 38.8171 27.5449 38.1137 27.5449C37.4103 27.5449 36.7581 27.4168 36.1914 27.1576L36.1857 27.1548Z" fill="#01096B"/>
<path d="M44.6952 18.3035H42.8156V27.394H44.6952V18.3035Z" fill="#01096B"/>
<path d="M48.1498 26.9556C47.4578 26.5654 46.9138 26.0158 46.5151 25.3066C46.1192 24.5975 45.9227 23.7745 45.9227 22.8403C45.9227 21.9062 46.1249 21.0974 46.5322 20.3826C46.9394 19.6678 47.4948 19.1181 48.1982 18.7336C48.9017 18.3492 49.6877 18.1555 50.5563 18.1555C51.4249 18.1555 52.2109 18.3492 52.9144 18.7336C53.6178 19.1181 54.1732 19.6678 54.5804 20.3826C54.9877 21.0974 55.1899 21.9176 55.1899 22.8403C55.1899 23.7631 54.982 24.5833 54.5633 25.2981C54.1447 26.0129 53.5751 26.5654 52.8574 26.9556C52.1369 27.3458 51.3423 27.5423 50.4737 27.5423C49.6051 27.5423 48.839 27.3458 48.147 26.9556H48.1498ZM51.8379 25.5601C52.2622 25.3294 52.604 24.982 52.8688 24.5206C53.1337 24.0593 53.2647 23.4982 53.2647 22.8375C53.2647 22.1768 53.1394 21.6186 52.8859 21.1629C52.6324 20.7073 52.2964 20.3627 51.8806 20.132C51.4619 19.9013 51.012 19.7845 50.5278 19.7845C50.0437 19.7845 49.5965 19.9013 49.1836 20.132C48.7706 20.3627 48.4431 20.7073 48.2011 21.1629C47.959 21.6186 47.8394 22.1768 47.8394 22.8375C47.8394 23.8172 48.09 24.5719 48.5912 25.1073C49.0925 25.6399 49.7219 25.9076 50.4794 25.9076C50.9635 25.9076 51.4164 25.7908 51.8407 25.5601H51.8379Z" fill="#01096B"/>
<path d="M13.9662 22.2792V18.3035H12.0865V27.394H13.9662V23.4838L17.3324 27.394H19.8728L15.6806 22.8573L19.8728 18.3035H17.2669L13.9662 22.2792Z" fill="#01096B"/>
<path d="M4.24073 22.8824L0.71258 26.4106C0.698122 26.425 0.698122 26.4485 0.71258 26.4629L4.24073 29.9911C4.25519 30.0056 4.27863 30.0056 4.29309 29.9911L7.82124 26.4629C7.8357 26.4485 7.8357 26.425 7.82124 26.4106L4.29309 22.8824C4.27863 22.868 4.25519 22.868 4.24073 22.8824Z" fill="#3C87FC"/>
<path d="M3.56275 15.0087L0 18.5715V25.6713C0 25.6941 0.0284792 25.7055 0.0455667 25.6913L3.58268 22.1542L7.14543 18.5914C7.14543 18.5914 7.15683 18.5658 7.14543 18.5544L3.59977 15.0087C3.59977 15.0087 3.57414 14.9973 3.56275 15.0087Z" fill="#2651EB"/>
</g>
<defs>
<clipPath id="clip0_26_768">
<rect width="55.1927" height="15" fill="white" transform="translate(0 15)"/>
</clipPath>
</defs>
</svg>
