<svg width="75" height="45" viewBox="0 0 75 45" fill="none" xmlns="http://www.w3.org/2000/svg">
<g clip-path="url(#clip0_2015_1089)">
<path d="M74.2963 16.1114C74.2509 16.1382 74.2649 16.188 74.2532 16.2257C74.0902 16.77 73.5547 17.1405 73.0029 17.0798C72.714 17.0552 72.444 16.9282 72.2432 16.7226C72.0425 16.517 71.9246 16.2467 71.9116 15.9621C71.8767 15.4156 72.269 14.9102 72.833 14.7747C73.1403 14.7049 73.4633 14.7573 73.7315 14.9204C73.9997 15.0835 74.1914 15.3441 74.2649 15.6454C74.2724 15.6768 74.2649 15.714 74.2963 15.7369V16.1114Z" fill="white"/>
<path d="M0.00200476 22.6725C0.0816591 20.1448 0.98337 17.9469 2.77065 16.1178C4.22838 14.623 6.00732 13.6724 8.08406 13.3103C10.8678 12.825 13.4199 13.4049 15.7241 15.0209C15.8085 15.0797 15.7913 15.1318 15.7694 15.2024C15.0101 17.6411 13.7789 19.9131 12.1433 21.8937C9.53537 25.0488 6.25774 27.2436 2.31042 28.4781C1.92464 28.5982 1.92464 28.5967 1.70026 28.2694C0.839478 27.0251 0.286799 25.6004 0.0863444 24.1089C0.0209951 23.6329 -0.00720013 23.1527 0.00200476 22.6725Z" fill="white"/>
<path d="M18.2125 17.6703C18.3453 17.8022 18.4208 17.971 18.5103 18.1305C19.135 19.231 19.5437 20.4036 19.6812 21.659C20.031 24.8484 19.0455 27.5863 16.7137 29.8322C15.2896 31.2213 13.4481 32.1232 11.4617 32.4044C8.35411 32.8646 5.61462 32.0567 3.25206 30.024C2.94619 29.7553 2.65871 29.4671 2.39148 29.1613C2.32328 29.0846 2.30558 29.0534 2.42792 29.0166C3.65346 28.6479 4.89096 28.3247 6.13836 28.0347C7.81735 27.6441 9.51352 27.3239 11.1852 26.9026C12.2785 26.6264 13.3562 26.2961 14.3704 25.796C15.8359 25.0739 17.0026 24.046 17.7424 22.5922C18.5233 21.053 18.6738 19.4463 18.2292 17.7853C18.2125 17.7504 18.2069 17.7114 18.213 17.6734L18.2125 17.6703Z" fill="white"/>
<path d="M51.2842 26.5653V30.971C51.2842 31.2763 51.2184 31.3403 50.9053 31.3409C50.5292 31.3409 50.1532 31.3409 49.7778 31.3409C49.5712 31.3409 49.4815 31.254 49.4815 31.055C49.4815 28.5446 49.4745 26.0336 49.4891 23.5232C49.4932 22.7919 49.5153 22.0521 49.7452 21.3506C50.3925 19.3662 51.7492 18.1164 53.8516 17.7688C56.6682 17.3034 59.1938 19.0837 59.7619 21.7291C60.0844 23.2316 59.8457 24.6489 58.9394 25.9181C58.1193 27.0673 56.9791 27.7408 55.5635 27.9254C53.9535 28.1347 52.5502 27.6641 51.3441 26.607C51.3307 26.5967 51.3197 26.591 51.2842 26.5653ZM58.0058 23.0258C58.0058 22.4335 57.9272 21.9967 57.766 21.577C57.0739 19.7658 54.9838 18.9134 53.2673 19.7675C52.1119 20.3421 51.4937 21.3066 51.3494 22.5587C51.166 24.1515 52.0379 25.6854 53.7574 26.1479C55.003 26.4835 56.1333 26.2623 57.0553 25.3298C57.7247 24.6563 57.9924 23.8147 58.0058 23.028V23.0258Z" fill="white"/>
<path d="M26.7752 26.5527V26.7242C26.7752 28.1425 26.7773 29.5605 26.7816 30.9784C26.7816 31.2831 26.7193 31.3432 26.4021 31.3437C26.0313 31.3437 25.6599 31.3437 25.2892 31.3437C25.0715 31.3437 24.9848 31.2603 24.9848 31.0499C24.9848 28.5446 24.9784 26.0393 24.9912 23.5346C24.9952 22.7913 25.0348 22.0481 25.2478 21.33C25.5267 20.378 26.0858 19.5282 26.8548 18.8874C27.6238 18.2466 28.5686 17.8432 29.5702 17.7282C32.2908 17.4108 34.7773 19.1798 35.2866 21.8268C35.5887 23.3922 35.296 24.8518 34.2843 26.125C33.4642 27.1541 32.3734 27.7613 31.0498 27.9265C29.4393 28.1278 28.0371 27.6613 26.8357 26.5967C26.8229 26.5841 26.8072 26.575 26.7752 26.5527ZM26.8264 22.733C26.8264 23.6512 27.008 24.3184 27.4358 24.9056C28.0324 25.7254 28.8619 26.1599 29.8729 26.2668C30.8624 26.372 31.7407 26.1125 32.4637 25.4287C33.7651 24.1983 33.8658 21.9858 32.6924 20.6102C31.6656 19.4056 29.9643 19.0774 28.5976 19.859C27.409 20.5387 26.8747 21.6079 26.8264 22.7347V22.733Z" fill="white"/>
<path d="M44.3092 23.964C43.6829 23.9738 42.9634 23.86 42.2429 23.7714C41.4425 23.673 40.6556 23.6965 39.8931 23.9852C39.7074 24.0555 39.7033 24.0584 39.7767 24.2327C40.2027 25.239 40.9885 25.8582 42.0339 26.136C43.3488 26.4859 44.4908 26.148 45.4267 25.1692C45.62 24.9674 45.6671 24.952 45.9192 25.0738C46.2777 25.2453 46.6368 25.4168 46.9896 25.6032C47.2759 25.753 47.2969 25.8953 47.0897 26.136C46.2166 27.1525 45.0856 27.7094 43.7562 27.8992C42.6503 28.057 41.5834 27.9244 40.5822 27.4258C39.1341 26.7049 38.2377 25.5466 37.9007 23.9955C37.5445 22.3535 37.8687 20.8419 38.9525 19.5246C39.7848 18.5127 40.8803 17.9238 42.1928 17.7488C43.8651 17.5236 45.3161 17.989 46.5001 19.1707C47.3924 20.0603 47.8836 21.1483 48.0163 22.3912C48.0285 22.5056 48.0326 22.6199 48.0472 22.7343C48.0716 22.9309 47.9814 23.0624 47.8143 23.1608C47.4845 23.3465 47.1339 23.4942 46.7695 23.601C45.9552 23.8594 45.2771 23.9623 44.3092 23.964ZM44.3831 22.2689C44.7197 22.2779 45.0565 22.2559 45.3889 22.2031C45.6345 22.1654 45.8778 22.1185 46.12 22.0608C46.2364 22.0333 46.2835 22.0002 46.2364 21.8687C46.1426 21.6072 46.0225 21.3555 45.8778 21.1174C44.8697 19.512 42.9163 18.9615 41.2912 19.8413C40.3017 20.3793 39.6923 21.206 39.4973 22.3106C39.4612 22.5124 39.4647 22.5124 39.6544 22.4507C40.3451 22.2255 41.0701 22.1189 41.7976 22.1357C42.6462 22.1528 43.4896 22.2666 44.3831 22.2689Z" fill="white"/>
<path d="M66.0992 27.9574C64.5649 27.9815 63.2471 27.3926 62.1127 26.3669C61.9462 26.216 61.9497 26.0902 62.1255 25.9478C62.4456 25.6894 62.7683 25.4339 63.0934 25.1812C63.2681 25.0445 63.3455 25.0508 63.5149 25.2006C64.147 25.758 64.8676 26.1377 65.7185 26.2451C66.4007 26.3309 67.0649 26.2789 67.6679 25.9147C67.963 25.7363 68.197 25.5002 68.2621 25.1503C68.3489 24.6889 68.1114 24.263 67.6475 24.0166C67.3326 23.849 66.9863 23.7947 66.6417 23.7307C65.9019 23.5855 65.151 23.4866 64.4421 23.2161C64.1374 23.1022 63.845 22.959 63.569 22.7885C62.2535 21.9629 62.0946 20.6451 62.6557 19.5194C63.1074 18.6132 63.8891 18.0706 64.8676 17.8494C66.594 17.4583 68.1853 17.7705 69.5951 18.8608C69.8029 19.0214 69.8093 19.1895 69.623 19.3679C69.3738 19.6043 69.1116 19.8272 68.8378 20.0357C68.5933 20.2238 68.4659 20.2306 68.2249 20.0425C67.5814 19.5286 66.7621 19.276 65.9351 19.3364C65.3955 19.369 64.8938 19.508 64.509 19.9082C64.0835 20.3524 64.1237 20.9573 64.5987 21.3501C64.8955 21.5953 65.2465 21.7354 65.6167 21.8332C66.3373 22.0235 67.0788 22.119 67.8029 22.294C68.527 22.4689 69.1591 22.7822 69.6376 23.3516C70.4699 24.3436 70.3744 25.8764 69.4269 26.8271C68.8297 27.4257 68.08 27.723 67.2563 27.8683C66.8745 27.9349 66.487 27.9647 66.0992 27.9574Z" fill="white"/>
<path d="M74.0054 22.8657V27.3921C74.0054 27.651 73.9315 27.7225 73.6655 27.7225H72.5817C72.2622 27.7225 72.2034 27.6653 72.2034 27.3572V20.0151C72.2034 19.4693 72.2034 18.9235 72.2034 18.3777C72.2034 18.097 72.268 18.0347 72.5584 18.0347H73.6713C73.9367 18.0347 74.0048 18.1027 74.0048 18.368L74.0054 22.8657Z" fill="white"/>
<path d="M20.3637 17.0594C20.3375 17.0594 20.3386 17.0416 20.341 17.0245C20.341 17.0211 20.3468 17.0182 20.3503 17.0148C20.3543 17.0302 20.3578 17.0451 20.3619 17.0605L20.3637 17.0594Z" fill="white"/>
</g>
<defs>
<clipPath id="clip0_2015_1089">
<rect width="74.2971" height="21.67" fill="white" transform="translate(0 12)"/>
</clipPath>
</defs>
</svg>
