<svg width="51" height="45" viewBox="0 0 51 45" fill="none" xmlns="http://www.w3.org/2000/svg">
<path d="M3.71934 19.283L2.38168 19.2842C2.3386 19.2842 2.28778 19.276 2.25796 19.2433L1.80176 18.7612C1.77194 18.7297 1.7631 18.676 1.7631 18.6316L1.76089 18.0397C1.75979 17.9895 1.72444 17.9475 1.67694 17.9475L0.941279 17.9498C0.893781 17.9498 0.856226 17.9895 0.856226 18.0397L0.851807 18.8196C0.851807 18.8698 0.889363 18.9106 0.936861 18.9106L1.50241 18.9071C1.54549 18.9071 1.5941 18.9176 1.62503 18.9491L2.08012 19.4301C2.11105 19.4628 2.11989 19.5142 2.12099 19.5597L2.11988 20.9746C2.11988 21.0703 2.19168 21.1497 2.28226 21.1497H3.71382C3.80329 21.1497 3.8762 21.0738 3.8773 20.9781L3.88503 19.457C3.88282 19.3612 3.80992 19.2842 3.71934 19.283Z" fill="#007AFF"/>
<path d="M3.0842 17.7308L2.33528 17.746C2.31208 17.746 2.27011 17.7553 2.25354 17.7378L2.00279 17.4728C1.98623 17.4553 1.99506 17.4121 1.99506 17.3864L2.00059 17.0537C2.00059 17.0269 1.98402 16.9989 1.95751 17H1.55543C1.53003 17 1.51014 17.021 1.51014 17.0479L1.50793 17.4752C1.50793 17.5032 1.52892 17.5254 1.55543 17.5254L1.92326 17.5312C1.95309 17.5312 1.98291 17.5452 2.0039 17.5674L2.20936 17.7845C2.22592 17.802 2.21819 17.8441 2.2193 17.8697L2.21267 18.6531C2.21267 18.7056 2.24912 18.7523 2.29883 18.7523L3.08309 18.7535C3.13169 18.7535 3.17146 18.7114 3.17146 18.6601L3.17477 17.8254C3.17367 17.774 3.1339 17.732 3.0842 17.7308Z" fill="#007AFF"/>
<path d="M1.57626 19.3238L0.827343 19.339C0.804147 19.339 0.762173 19.3484 0.745604 19.3308L0.49486 19.0658C0.478291 19.0483 0.487127 19.0051 0.487127 18.9795L0.49265 18.6468C0.49265 18.6199 0.476081 18.5919 0.449571 18.5931H0.0474969C0.0220912 18.5931 0.00220798 18.6141 0.00220798 18.6409L0 19.0682C0 19.0962 0.0209866 19.1172 0.0474969 19.1184L0.375563 19.1172C0.398759 19.1172 0.449572 19.1114 0.466141 19.1289L0.701419 19.3775C0.717988 19.3951 0.710256 19.4371 0.71136 19.4628L0.704733 20.2461C0.704733 20.2986 0.741184 20.3453 0.790891 20.3453L1.57516 20.3465C1.62486 20.3465 1.66353 20.3056 1.66353 20.2531L1.66684 19.4184C1.66573 19.367 1.62597 19.325 1.57626 19.3238Z" fill="#007AFF"/>
<path d="M0.636284 17.4422C0.636284 17.399 0.603146 17.364 0.562276 17.364H0.157992C0.117122 17.364 0.0839844 17.399 0.0839844 17.4422V17.8695C0.0839844 17.9127 0.117122 17.9477 0.157992 17.9477H0.562276C0.603146 17.9477 0.636284 17.9127 0.636284 17.8695V17.4422Z" fill="#007AFF"/>
<path d="M2.16931 22.6099V27.8037H4.95511V25.2424C4.95511 24.6155 5.72722 24.3715 6.05197 24.8969C6.05308 24.8969 4.30781 21.9433 2.16931 22.6099Z" fill="#080829"/>
<path d="M7.61963 22.3391L10.8517 17.2061H7.62737L6.05884 19.828C5.7385 20.3627 4.95645 20.1234 4.95645 19.4907V17.2061H2.2789V17.2142C2.27669 17.3065 2.31314 17.3952 2.37721 17.457L3.08747 17.4384C3.29071 17.4395 3.4553 17.6135 3.45419 17.8271L3.45088 18.6606C3.44977 18.7984 3.38129 18.9175 3.27856 18.9863L3.72261 18.9852C3.96783 18.9863 4.16555 19.1976 4.16445 19.4545L4.15672 20.9756C4.15561 21.2312 3.95789 21.4566 3.71488 21.4566L2.28332 21.4729C2.24797 21.4729 2.24245 21.4671 2.17175 21.4589V22.6099C4.31026 21.9422 6.05442 24.8957 6.05442 24.8957L7.85491 27.8037H11.1543L7.61963 22.3391Z" fill="#007AFF"/>
<path d="M3.86169 23.0325C4.18235 23.1998 4.48139 23.4275 4.75037 23.678C5.00662 23.9166 5.22689 24.1677 5.40173 24.3879C5.28348 24.4112 5.17009 24.4597 5.07068 24.5315C4.69407 23.8297 4.26953 23.355 3.86169 23.0325Z" fill="#080829" stroke="#080829" stroke-width="0.476735"/>
<path d="M18.6237 23.1755V27.7517H16.1472V23.4802C16.1472 22.6035 15.8556 22.1575 15.2094 22.1575C14.4605 22.1575 13.9932 22.7191 13.9932 23.695V27.7529H11.5167V17.4109H13.9932V20.6551C14.5223 20.2045 15.1961 19.9301 15.913 19.9301C17.5633 19.9278 18.6237 21.2061 18.6237 23.1755Z" fill="#007AFF"/>
<path d="M27.4901 20.1445V27.7431H25.5758L25.3637 27.2061C24.775 27.7104 24.0294 27.9999 23.1943 27.9999C20.9962 27.9999 19.4243 26.3049 19.4243 23.9432C19.4243 21.5898 20.9962 19.9146 23.1943 19.9146C24.0404 19.9146 24.7971 20.2134 25.3914 20.7306L25.6443 20.1434H27.4901V20.1445ZM25.1351 23.9502C25.1351 22.9638 24.4536 22.2237 23.5257 22.2237C22.5923 22.2237 21.9163 22.965 21.9163 23.9502C21.9163 24.9425 22.5978 25.6827 23.5257 25.6827C24.4536 25.6827 25.1351 24.9414 25.1351 23.9502Z" fill="#007AFF"/>
<path d="M35.8908 23.1185V27.7519H33.4143V23.4804C33.4143 22.5955 33.1006 22.1578 32.4765 22.1578C31.7044 22.1578 31.2603 22.7275 31.2603 23.6952V27.7531H28.7838V20.1545H30.5213L30.8616 20.9378C31.3973 20.3074 32.1948 19.9292 33.1249 19.9292C34.795 19.928 35.8908 21.183 35.8908 23.1185Z" fill="#007AFF"/>
<path d="M39.8499 17.9006H42.4512V27.7511H39.8499V17.9006Z" fill="#080829"/>
<path d="M50.9788 20.344H48.447V27.7511H45.8678V20.344H43.3361V17.9006H50.9788V20.344Z" fill="#080829"/>
</svg>
