<svg width="80" height="45" viewBox="0 0 80 45" fill="none" xmlns="http://www.w3.org/2000/svg">
<g clip-path="url(#clip0_2015_867)">
<path d="M20.3824 21.9433C20.3824 26.8708 16.1124 31.173 10.845 31.173C5.57766 31.173 1.30768 26.8708 1.30768 21.9433C1.30768 17.0157 5.57769 13.3289 10.8451 13.3289C16.1124 13.3289 20.3824 17.0157 20.3824 21.9433Z" fill="white"/>
<path d="M10.845 13.3289C5.57769 13.3289 1.30768 17.0157 1.30768 21.9433C1.30768 22.8905 1.46681 23.8141 1.75917 24.689C2.74052 26.0077 4.30626 26.8657 6.07637 26.8657C8.14894 26.8657 9.94516 25.693 10.8451 23.9765C11.745 25.693 13.5412 26.8657 15.6137 26.8657C17.3839 26.8657 18.9496 26.0077 19.931 24.689C20.2233 23.8141 20.3824 22.8905 20.3824 21.9433C20.3824 17.0157 16.1124 13.3289 10.845 13.3289Z" fill="white"/>
<path d="M10.8451 31.1729C13.7337 31.1729 16.0753 28.8312 16.0753 25.9427C16.0753 23.0542 13.7337 20.7125 10.8451 20.7125C7.95656 20.7125 5.61493 23.0542 5.61493 25.9427C5.61493 28.8312 7.95656 31.1729 10.8451 31.1729Z" fill="#D8D8D8"/>
<path d="M6.07637 21.3278C6.67107 21.3278 7.15317 20.8457 7.15317 20.251C7.15317 19.6563 6.67107 19.1742 6.07637 19.1742C5.48167 19.1742 4.99957 19.6563 4.99957 20.251C4.99957 20.8457 5.48167 21.3278 6.07637 21.3278Z" fill="#8A8A8A"/>
<path d="M15.6139 21.3278C16.2086 21.3278 16.6907 20.8457 16.6907 20.251C16.6907 19.6563 16.2086 19.1742 15.6139 19.1742C15.0192 19.1742 14.5371 19.6563 14.5371 20.251C14.5371 20.8457 15.0192 21.3278 15.6139 21.3278Z" fill="#8A8A8A"/>
<path d="M11.3811 23.3475C11.0861 23.7606 10.6033 23.7606 10.3082 23.3475L9.84284 22.696C9.5478 22.2829 9.7217 21.9449 10.2293 21.9449H11.46C11.9676 21.9449 12.1415 22.2829 11.8465 22.696L11.3811 23.3475Z" fill="#8A8A8A"/>
<path d="M14.4979 27.7887C13.1774 27.7887 12.5003 25.9427 10.8413 25.9427C9.18224 25.9427 8.50512 27.7887 7.18474 27.7887C6.59226 27.7887 6.06648 27.5637 5.63953 26.8196C6.06156 29.2898 8.22662 31.1729 10.8412 31.1729C13.4558 31.1729 15.621 29.2898 16.0429 26.8196C15.6161 27.5637 15.0903 27.7887 14.4979 27.7887Z" fill="white"/>
<path d="M2.2309 28.7115C2.10891 28.7115 1.99323 28.6382 1.94516 28.518C1.88205 28.3602 1.95896 28.1812 2.11672 28.118L8.27017 25.6567C8.42639 25.5945 8.60698 25.6703 8.67005 25.8281C8.73312 25.986 8.65625 26.1649 8.49849 26.2282L2.34504 28.6894C2.30781 28.7043 2.26905 28.7115 2.2309 28.7115Z" fill="#8A8A8A"/>
<path d="M1.61506 26.8655C1.47866 26.8655 1.35429 26.7741 1.31791 26.6361C1.27464 26.4718 1.37259 26.3035 1.53692 26.2602L7.38241 24.722C7.54735 24.6788 7.71499 24.7768 7.75825 24.9413C7.80152 25.1056 7.70357 25.2739 7.53924 25.3171L1.69375 26.8554C1.66733 26.8623 1.64122 26.8655 1.61506 26.8655Z" fill="#8A8A8A"/>
<path d="M1.30739 25.3272C1.16079 25.3272 1.031 25.2222 1.00485 25.073C0.975123 24.9057 1.08688 24.7462 1.25421 24.7165L6.48438 23.7936C6.65083 23.764 6.81158 23.8759 6.84073 24.0431C6.87046 24.2104 6.7587 24.37 6.59137 24.3996L1.36119 25.3225C1.34316 25.3257 1.32512 25.3272 1.30739 25.3272Z" fill="#8A8A8A"/>
<path d="M19.4599 28.7115C19.5819 28.7115 19.6976 28.6382 19.7457 28.518C19.8088 28.3602 19.7319 28.1812 19.5741 28.118L13.4206 25.6567C13.2644 25.5945 13.0838 25.6703 13.0208 25.8281C12.9577 25.986 13.0346 26.1649 13.1923 26.2282L19.3458 28.6894C19.383 28.7043 19.4217 28.7115 19.4599 28.7115Z" fill="#8A8A8A"/>
<path d="M20.0751 26.8655C20.2115 26.8655 20.3359 26.7741 20.3723 26.6361C20.4155 26.4718 20.3176 26.3035 20.1533 26.2602L14.3078 24.722C14.1428 24.6788 13.9752 24.7768 13.9319 24.9413C13.8887 25.1056 13.9866 25.2739 14.1509 25.3171L19.9964 26.8554C20.0228 26.8623 20.049 26.8655 20.0751 26.8655Z" fill="#8A8A8A"/>
<path d="M20.3827 25.3272C20.5293 25.3272 20.6591 25.2222 20.6852 25.073C20.7149 24.9057 20.6032 24.7462 20.4359 24.7165L15.2057 23.7936C15.0392 23.764 14.8785 23.8759 14.8493 24.0431C14.8196 24.2104 14.9314 24.37 15.0987 24.3996L20.3289 25.3225C20.3469 25.3257 20.3649 25.3272 20.3827 25.3272Z" fill="#8A8A8A"/>
</g>
<path d="M27.9814 27.2507H25.5205V25.7273H27.8903C28.563 25.7273 29.1251 25.6058 29.5765 25.3627C30.0322 25.1153 30.3729 24.7442 30.5986 24.2494C30.8286 23.7546 30.9436 23.1361 30.9436 22.394C30.9436 21.6518 30.8308 21.0355 30.6051 20.545C30.3794 20.0546 30.043 19.6878 29.596 19.4447C29.1489 19.1973 28.5956 19.0736 27.9358 19.0736H25.4684V17.5502H28.04C29.0035 17.5502 29.8304 17.7434 30.5205 18.1296C31.2149 18.5159 31.7488 19.0715 32.122 19.7963C32.4953 20.5211 32.6819 21.387 32.6819 22.394C32.6819 23.4009 32.4953 24.269 32.122 24.9981C31.7488 25.723 31.2106 26.2807 30.5074 26.6713C29.8087 27.0576 28.9666 27.2507 27.9814 27.2507ZM26.4449 17.5502V27.2507H24.6871V17.5502H26.4449ZM36.9397 27.394C36.2279 27.394 35.6116 27.2377 35.0908 26.9252C34.5699 26.6127 34.1663 26.1743 33.8798 25.6101C33.5977 25.0459 33.4567 24.3905 33.4567 23.644C33.4567 22.8931 33.5977 22.2355 33.8798 21.6713C34.1663 21.1027 34.5699 20.6622 35.0908 20.3497C35.6116 20.0372 36.2279 19.8809 36.9397 19.8809C37.6515 19.8809 38.2679 20.0372 38.7887 20.3497C39.3095 20.6622 39.7132 21.1027 39.9996 21.6713C40.2861 22.2355 40.4293 22.8931 40.4293 23.644C40.4293 24.3905 40.2861 25.0459 39.9996 25.6101C39.7132 26.1743 39.3095 26.6127 38.7887 26.9252C38.2679 27.2377 37.6515 27.394 36.9397 27.394ZM36.9397 26.0138C37.3347 26.0138 37.6602 25.9096 37.9163 25.7013C38.1724 25.4886 38.3633 25.2021 38.4892 24.8419C38.6194 24.4816 38.6845 24.0823 38.6845 23.644C38.6845 23.1969 38.6194 22.7933 38.4892 22.433C38.3633 22.0728 38.1724 21.7885 37.9163 21.5802C37.6602 21.3675 37.3347 21.2611 36.9397 21.2611C36.5535 21.2611 36.2301 21.3675 35.9697 21.5802C35.7093 21.7885 35.514 22.0728 35.3837 22.433C35.2579 22.7933 35.1949 23.1969 35.1949 23.644C35.1949 24.0823 35.2579 24.4816 35.3837 24.8419C35.514 25.2021 35.7093 25.4886 35.9697 25.7013C36.2301 25.9096 36.5535 26.0138 36.9397 26.0138ZM44.5439 27.394C43.8191 27.394 43.1962 27.2355 42.6754 26.9187C42.1546 26.5975 41.7553 26.1548 41.4775 25.5906C41.1997 25.0263 41.0608 24.3775 41.0608 23.644C41.0608 22.9018 41.2019 22.2486 41.484 21.6843C41.7661 21.1201 42.1676 20.6796 42.6884 20.3627C43.2093 20.0415 43.8234 19.8809 44.5309 19.8809C45.1255 19.8809 45.6507 19.9894 46.1064 20.2065C46.5621 20.4235 46.9245 20.7295 47.1936 21.1244C47.4671 21.5151 47.6233 21.973 47.6624 22.4981H46.0218C45.9784 22.2638 45.8937 22.0532 45.7679 21.8666C45.642 21.68 45.4771 21.5324 45.2731 21.4239C45.0734 21.3154 44.8347 21.2611 44.5569 21.2611C44.2054 21.2611 43.8972 21.3566 43.6324 21.5476C43.372 21.7342 43.168 22.0033 43.0205 22.3549C42.8729 22.7065 42.7991 23.1275 42.7991 23.6179C42.7991 24.1127 42.8707 24.5402 43.014 24.9005C43.1572 25.2564 43.3612 25.532 43.6259 25.7273C43.8907 25.9183 44.201 26.0138 44.5569 26.0138C44.9345 26.0138 45.2535 25.9031 45.514 25.6817C45.7787 25.4604 45.948 25.1544 46.0218 24.7638H47.6624C47.6233 25.2802 47.4714 25.736 47.2067 26.1309C46.9419 26.5259 46.5838 26.8362 46.1324 27.0619C45.6811 27.2833 45.1515 27.394 44.5439 27.394ZM53.2223 24.1973V19.9721H54.9345V27.2507H53.2744V25.9552H53.1962C53.0313 26.3631 52.7622 26.6973 52.389 26.9578C52.0157 27.2182 51.5556 27.3462 51.0087 27.3419C50.5313 27.3419 50.1103 27.2377 49.7457 27.0294C49.3855 26.8167 49.1012 26.5064 48.8929 26.0984C48.6889 25.6861 48.5869 25.1891 48.5869 24.6075V19.9721H50.2991V24.3471C50.2991 24.8028 50.425 25.1674 50.6767 25.4408C50.9328 25.7143 51.267 25.8488 51.6793 25.8445C51.9311 25.8445 52.1741 25.7837 52.4085 25.6622C52.6472 25.5407 52.8425 25.3584 52.9944 25.1153C53.1463 24.8723 53.2223 24.5663 53.2223 24.1973ZM61.9462 21.9057L60.3903 22.0684C60.3252 21.8297 60.1841 21.6192 59.9671 21.4369C59.7501 21.2503 59.4441 21.157 59.0491 21.157C58.6932 21.157 58.3937 21.2351 58.1507 21.3914C57.912 21.5476 57.7926 21.7473 57.7926 21.9903C57.7926 22.203 57.8707 22.3788 58.027 22.5177C58.1876 22.6522 58.4523 22.7607 58.8212 22.8432L60.0647 23.1036C60.7462 23.2468 61.2561 23.4812 61.5947 23.8067C61.9332 24.1322 62.1025 24.5532 62.1025 25.0697C62.1025 25.5255 61.9701 25.9291 61.7054 26.2807C61.4406 26.6322 61.0739 26.9057 60.6051 27.101C60.1407 27.2963 59.6047 27.394 58.997 27.394C58.1073 27.394 57.3911 27.2073 56.8486 26.8341C56.3104 26.4565 55.987 25.9335 55.8785 25.2651L57.5517 25.1088C57.6255 25.4343 57.7861 25.6817 58.0335 25.851C58.2852 26.0159 58.6064 26.0984 58.997 26.0984C59.405 26.0984 59.7327 26.0159 59.9801 25.851C60.2275 25.6817 60.3512 25.4756 60.3512 25.2325C60.3512 24.8245 60.0257 24.5467 59.3746 24.3992L58.1311 24.1388C57.4324 23.9868 56.9159 23.7416 56.5817 23.4031C56.2475 23.0602 56.0804 22.624 56.0804 22.0945C56.0804 21.6431 56.2041 21.2525 56.4515 20.9226C56.6989 20.5927 57.0439 20.3367 57.4866 20.1544C57.9293 19.9721 58.4415 19.8809 59.0231 19.8809C59.8781 19.8809 60.5487 20.0654 61.0348 20.4343C61.5252 20.7989 61.8291 21.2894 61.9462 21.9057ZM66.2496 27.394C65.5205 27.394 64.8911 27.2421 64.3616 26.9382C63.8321 26.6301 63.4241 26.196 63.1377 25.6361C62.8555 25.0763 62.7145 24.4165 62.7145 23.657C62.7145 22.9061 62.8555 22.2486 63.1377 21.6843C63.4198 21.1157 63.8169 20.673 64.3291 20.3562C64.8412 20.0394 65.4445 19.8809 66.139 19.8809C66.586 19.8809 67.0092 19.9526 67.4085 20.0958C67.8121 20.239 68.168 20.4604 68.4762 20.7598C68.7887 21.0593 69.0339 21.4413 69.2119 21.9057C69.3898 22.3657 69.4788 22.9148 69.4788 23.5528V24.0867H63.5153V22.9343H68.6259L67.8252 23.2729C67.8252 22.8605 67.7622 22.5025 67.6364 22.1986C67.5105 21.8905 67.3239 21.6496 67.0765 21.476C66.8291 21.3024 66.5209 21.2156 66.152 21.2156C65.7831 21.2156 65.4684 21.3024 65.208 21.476C64.9475 21.6496 64.7501 21.884 64.6155 22.1791C64.481 22.4699 64.4137 22.7954 64.4137 23.1557V23.9565C64.4137 24.3992 64.4896 24.7789 64.6416 25.0958C64.7978 25.4083 65.0148 25.647 65.2926 25.8119C65.5747 25.9769 65.9024 26.0593 66.2757 26.0593C66.5187 26.0593 66.7401 26.0246 66.9397 25.9552C67.1437 25.8857 67.3173 25.7815 67.4606 25.6427C67.6081 25.4994 67.721 25.3236 67.7991 25.1153L69.4007 25.3041C69.2965 25.7251 69.1034 26.094 68.8212 26.4109C68.5435 26.7234 68.1854 26.9664 67.747 27.1401C67.313 27.3093 66.8139 27.394 66.2496 27.394ZM72.5061 27.4005C72.0417 27.4005 71.6251 27.318 71.2561 27.1531C70.8872 26.9838 70.5964 26.7364 70.3837 26.4109C70.1711 26.0854 70.0647 25.6839 70.0647 25.2065C70.0647 24.7985 70.1407 24.4599 70.2926 24.1908C70.4445 23.9217 70.6507 23.7069 70.9111 23.5463C71.1758 23.3857 71.4732 23.2642 71.803 23.1817C72.1329 23.0949 72.4736 23.0342 72.8252 22.9994C73.2548 22.9517 73.6021 22.9105 73.8668 22.8757C74.1316 22.841 74.3225 22.7846 74.4397 22.7065C74.5613 22.6283 74.622 22.5068 74.622 22.3419V22.3093C74.622 21.9578 74.5179 21.6843 74.3095 21.489C74.1012 21.2937 73.7974 21.196 73.3981 21.196C72.9771 21.196 72.6429 21.2872 72.3955 21.4695C72.1524 21.6518 71.9875 21.8666 71.9007 22.114L70.3056 21.8861C70.4315 21.4434 70.6398 21.0745 70.9306 20.7794C71.2214 20.4799 71.5752 20.2564 71.9918 20.1088C72.4128 19.9569 72.8772 19.8809 73.385 19.8809C73.7323 19.8809 74.0795 19.9222 74.4267 20.0046C74.7739 20.0828 75.0929 20.2173 75.3837 20.4083C75.6745 20.5993 75.9068 20.8553 76.0804 21.1765C76.254 21.4977 76.3408 21.8992 76.3408 22.3809V27.2507H74.6936V26.2481H74.6416C74.5374 26.4478 74.3898 26.6366 74.1989 26.8145C74.0122 26.9881 73.7778 27.1292 73.4957 27.2377C73.2179 27.3462 72.8881 27.4005 72.5061 27.4005ZM72.9423 26.1375C73.2896 26.1375 73.589 26.0702 73.8408 25.9356C74.0925 25.7967 74.2878 25.6144 74.4267 25.3888C74.5656 25.1587 74.635 24.9092 74.635 24.6401V23.7872C74.5786 23.8306 74.4875 23.8718 74.3616 23.9109C74.2357 23.9456 74.0925 23.9782 73.9319 24.0085C73.7713 24.0389 73.6129 24.065 73.4567 24.0867C73.3048 24.1084 73.1724 24.1257 73.0595 24.1388C72.8035 24.1735 72.5734 24.2321 72.3694 24.3145C72.1698 24.3927 72.0114 24.5012 71.8942 24.6401C71.777 24.7789 71.7184 24.9591 71.7184 25.1804C71.7184 25.4973 71.8334 25.736 72.0634 25.8966C72.2935 26.0572 72.5864 26.1375 72.9423 26.1375ZM79.3225 17.5502V27.2507H77.6103V17.5502H79.3225Z" fill="white"/>
<defs>
<clipPath id="clip0_2015_867">
<rect width="19.69" height="19.69" fill="white" transform="translate(1 12.4058)"/>
</clipPath>
</defs>
</svg>
