<svg width="106" height="45" viewBox="0 0 106 45" fill="none" xmlns="http://www.w3.org/2000/svg">
<g clip-path="url(#clip0_2015_853)">
<path fill-rule="evenodd" clip-rule="evenodd" d="M16.3535 14.0971C15.7262 14.2761 8.41984 16.242 1.94866 17.9731C1.23415 18.1641 0.572602 18.3703 0.478607 18.4311C0.296121 18.5489 0 19.0658 0 19.2662C0 19.496 0.307889 19.9905 0.516587 20.0957C0.631749 20.1538 0.895698 20.2236 1.1031 20.2508C1.3105 20.278 1.56145 20.3536 1.6608 20.4188C1.91802 20.5875 2.1391 20.9842 2.1394 21.2774C2.14009 21.8506 2.47343 22.2764 2.97404 22.3437C3.33023 22.3915 3.76115 22.2041 8.82287 19.7995C13.1318 17.7524 13.945 17.3914 14.2483 17.3914C14.5542 17.3914 14.7141 17.597 14.6395 17.8944C14.6144 17.9949 14.2991 18.7062 13.9391 19.4752C13.1076 21.2512 13.1531 21.1529 12.6192 22.3272C12.0998 23.4698 11.2073 25.3878 10.6253 26.6125C10.4054 27.0755 10.1571 27.6264 10.0735 27.8367C9.99 28.047 9.89371 28.2536 9.85955 28.2959C9.8254 28.338 9.7622 28.5017 9.71925 28.6595C9.54655 29.2932 9.92199 29.8057 10.6195 29.8885C11.0661 29.9414 11.4646 30.1563 11.6057 30.4202C11.6581 30.5182 11.7275 30.7951 11.7602 31.0357C11.886 31.9643 12.784 32.3129 13.4098 31.6761C13.618 31.4643 13.6995 31.239 14.0511 29.903C14.5425 28.0363 15.8534 23.1373 16.9384 19.1132C18.1019 14.7976 18.0459 15.039 17.9594 14.717C17.7866 14.0744 17.2111 13.8524 16.3535 14.0971Z" fill="white"/>
<path fill-rule="evenodd" clip-rule="evenodd" d="M22 18.2405C21.9997 18.3261 22.1919 18.8999 22.4268 19.5158C22.6618 20.1317 23.1426 21.4195 23.4953 22.3776C24.758 25.8084 25.5684 27.9088 25.63 27.9108C25.6644 27.9119 26.1095 26.8914 26.6189 25.6429C27.1284 24.3945 27.7458 22.8837 27.991 22.2859C28.2362 21.6879 28.4772 21.24 28.5268 21.2905C28.5762 21.3409 28.9073 22.1101 29.2622 22.9997C30.5192 26.1493 31.302 27.9245 31.3907 27.8268C31.44 27.7723 31.7662 26.9439 32.1154 25.9859C32.4646 25.0278 33.2602 22.9138 33.8836 21.2882C34.5069 19.6626 35.0169 18.2768 35.0169 18.2088C35.0169 18.1407 34.7167 18.085 34.3498 18.085H33.6826L33.1741 19.6091C32.8945 20.4475 32.394 21.9591 32.0619 22.9686C31.7298 23.978 31.4205 24.8038 31.3744 24.8038C31.3 24.8038 30.4145 22.7126 29.0694 19.3603C28.8153 18.7272 28.5712 18.2098 28.5268 18.2104C28.4824 18.2109 28.184 18.8687 27.8636 19.6724C27.5432 20.4759 26.9523 21.9591 26.5504 22.9686C26.1485 23.978 25.7847 24.8038 25.7419 24.8038C25.669 24.8038 23.8431 19.7711 23.496 18.6138L23.3375 18.085H22.669C22.2178 18.085 22.0003 18.1355 22 18.2405ZM51.976 18.2034C50.7837 18.4021 50.1422 19.0738 50.0596 20.21C49.9636 21.5296 50.3755 22.2102 51.8328 23.1392C53.3767 24.1234 53.916 24.7646 53.916 25.6159C53.916 25.9529 53.8195 26.1632 53.5351 26.4458C53.1838 26.7951 53.1011 26.8201 52.4709 26.7682C51.9616 26.7262 51.647 26.6115 51.2356 26.3177C50.6233 25.8807 50.2775 25.8258 49.9823 26.1191C49.1121 26.9843 51.7035 28.2475 53.4153 27.7924C54.5778 27.4833 55.2845 26.5781 55.29 25.3909C55.2955 24.2019 54.8433 23.5739 53.165 22.4398C51.844 21.547 51.4239 21.1113 51.3301 20.5364C51.2667 20.1484 51.3108 20.0336 51.6535 19.693C52.0135 19.335 52.1058 19.3039 52.6541 19.3563C52.9913 19.3885 53.4258 19.5328 53.6377 19.6827C54.11 20.017 54.315 20.0204 54.6077 19.6987C55.3122 18.9248 53.5739 17.9371 51.976 18.2034ZM68.0361 18.1492C67.9946 18.1905 68.1994 18.8228 68.4913 19.5544C68.7831 20.2859 69.4003 21.8643 69.8629 23.0619C71.391 27.0189 71.7505 27.9128 71.8137 27.9129C71.8482 27.9129 72.2562 26.9474 72.7205 25.7674C75.2071 19.448 75.6937 18.2003 75.6937 18.1453C75.6937 18.1121 75.3645 18.085 74.9621 18.085H74.2306L73.7596 19.4847C72.4468 23.3866 71.8933 24.8163 71.7762 24.6082C71.7116 24.4935 71.2662 23.2729 70.7863 21.8956C70.3064 20.5183 69.8152 19.1115 69.6947 18.7693L69.4755 18.1472L68.7935 18.1106C68.4184 18.0906 68.0776 18.1079 68.0361 18.1492ZM76.8201 22.9997V27.9144H77.5711H78.322V22.9997V18.085H77.5711H76.8201V22.9997ZM80.5749 22.9997V27.9144H82.64H84.7051V27.2923V26.6702H83.3284H81.9516V22.3776V18.085H81.2633H80.5749V22.9997ZM86.3322 22.9997V27.9144H88.3973H90.4625V27.2923V26.6702H89.0857H87.709V22.3776V18.085H87.0206H86.3322V22.9997ZM37.8414 19.3603C37.3369 20.5643 36.9113 21.556 35.199 25.5193L34.1641 27.9144H34.8263H35.4884L35.8554 27.0123L36.2223 26.1103L38.3642 26.0763L40.506 26.0422L40.8562 26.9784L41.2063 27.9144H41.929C42.3265 27.9144 42.6516 27.8762 42.6516 27.8294C42.6516 27.7828 42.4016 27.1808 42.0958 26.4919C41.7902 25.8029 41.2367 24.5394 40.866 23.684C39.0802 19.5637 38.4702 18.2094 38.4001 18.2094C38.3581 18.2094 38.1066 18.7272 37.8414 19.3603ZM41.7755 18.2923C41.7755 18.3378 42.0231 18.7718 42.3256 19.2565C42.6281 19.7413 43.304 20.878 43.8275 21.7827L44.7793 23.4273V25.6709V27.9144H45.5303H46.2813V25.5586V23.2029L46.6408 22.6035C47.4674 21.2258 48.9688 18.7491 49.1349 18.4893C49.3139 18.2094 49.3137 18.2094 48.4968 18.2094H47.6798L47.146 19.1737C46.8524 19.704 46.398 20.5719 46.1363 21.1022C45.8747 21.6325 45.6173 22.0653 45.5642 22.0638C45.5112 22.0623 44.9891 21.1944 44.404 20.1352L43.3404 18.2094H42.5579C42.1276 18.2094 41.7755 18.2467 41.7755 18.2923ZM59.9236 18.3017C59.545 18.3272 59.1845 18.3981 59.1225 18.4592C59.0558 18.5249 59.3774 19.283 59.9097 20.3148L60.8096 22.059L60.3354 22.256C59.3056 22.6837 58.6795 23.6389 58.6748 24.7894C58.6708 25.7767 58.9089 26.4129 59.5047 27.0061C60.6223 28.1187 62.4986 28.1756 63.6471 27.1317L63.9287 26.8756V27.1892C63.9287 27.5294 64.2724 27.9144 64.5763 27.9144C64.6807 27.9144 64.8593 27.812 64.9732 27.6868C65.1511 27.4914 65.1803 27.1151 65.1803 25.0188C65.1803 22.6752 65.1698 22.571 64.9156 22.394C64.77 22.2926 64.5589 22.2413 64.4462 22.2799C64.0235 22.425 63.9287 22.7214 63.9287 23.8984C63.9287 25.2728 63.7625 25.7523 63.1162 26.2423C62.4906 26.7167 61.4294 26.8036 60.8299 26.4293C60.0082 25.9165 59.7098 24.9312 60.0972 24.0096C60.3177 23.4849 60.8338 23.1189 61.5511 22.9785C62.3509 22.8219 62.3388 22.5831 61.4453 20.8918C61.0333 20.1119 60.7288 19.4412 60.7688 19.4015C60.8087 19.3617 61.6186 19.3292 62.5683 19.3292C64.2016 19.3292 64.3031 19.3148 64.4379 19.0647C64.5412 18.8726 64.5431 18.719 64.4449 18.5048C64.3106 18.2116 64.2952 18.2095 62.4607 18.2324C61.4439 18.2451 60.3022 18.2763 59.9236 18.3017ZM94.927 19.6098C94.5946 20.3793 94.1519 21.4008 93.9433 21.8799C93.7346 22.3589 93.2379 23.5067 92.8394 24.4306C92.4409 25.3544 91.9402 26.4934 91.7267 26.9617C91.5132 27.43 91.3386 27.8388 91.3386 27.87C91.3386 27.9012 91.6601 27.9101 92.053 27.8895L92.7675 27.8522L93.0998 26.9812L93.4322 26.1103L95.5593 26.0763L97.6864 26.0423L98.0459 26.9784L98.4053 27.9144H99.1357C99.9856 27.9144 99.9794 27.9882 99.2598 26.4213C99.0241 25.9081 98.3529 24.3683 97.7681 22.9997C96.314 19.5958 95.6871 18.2093 95.6027 18.21C95.5634 18.2104 95.2594 18.8403 94.927 19.6098ZM102.165 18.3857C101.356 18.7449 100.849 19.5578 100.853 20.4882C100.859 21.5774 101.423 22.2796 103.354 23.6049C104.864 24.6415 105.218 25.6697 104.338 26.4664C103.984 26.7869 103.877 26.817 103.268 26.7667C102.826 26.7303 102.476 26.6175 102.254 26.44C101.52 25.8531 100.821 25.774 100.703 26.2644C100.606 26.6641 100.727 26.8564 101.324 27.2566C103.704 28.8532 106.664 27.3474 106.099 24.8263C105.899 23.9304 105.527 23.4983 104.15 22.5621C102.601 21.5095 102.227 21.0991 102.227 20.4532C102.227 19.7795 102.545 19.4435 103.259 19.3635C103.741 19.3095 103.943 19.3571 104.426 19.6383C104.912 19.9217 105.059 19.9558 105.308 19.8431C105.674 19.6771 105.716 19.093 105.383 18.7933C104.762 18.2346 103.006 18.0123 102.165 18.3857ZM38.5214 21.2045C38.5214 21.2697 38.8231 22.0363 39.192 22.908C39.5608 23.7796 39.9025 24.6187 39.9513 24.7727L40.0402 25.0527H38.4746C37.5149 25.0527 36.8777 25.002 36.8277 24.9219C36.7831 24.8499 37.0894 23.9835 37.5087 22.9965C37.928 22.0095 38.2711 21.1413 38.2711 21.067C38.2711 20.9927 38.3274 20.9666 38.3962 21.0089C38.4651 21.0512 38.5214 21.1392 38.5214 21.2045ZM96.4498 23.023C96.874 24.0623 97.2211 24.9441 97.2211 24.9826C97.2211 25.0894 93.9673 25.0662 93.9642 24.9594C93.9577 24.7376 95.5385 20.9679 95.605 21.0464C95.6456 21.0941 96.0258 21.9836 96.4498 23.023Z" fill="white"/>
</g>
<defs>
<clipPath id="clip0_2015_853">
<rect width="106" height="45" fill="white"/>
</clipPath>
</defs>
</svg>
