<svg width="60" height="45" viewBox="0 0 60 45" fill="none" xmlns="http://www.w3.org/2000/svg">
<g clip-path="url(#clip0_2002_183)">
<path d="M8.01142 10.0388C12.4141 10.0388 15.9896 13.6339 15.9896 18.0722C15.9896 18.7657 15.9007 19.437 15.7397 20.0806C15.5565 20.7907 15.2789 21.4676 14.9236 22.089C14.5738 22.6992 14.1463 23.2596 13.6522 23.7533C12.2087 25.2069 10.2155 26.1057 8.01697 26.1057V26.0003C7.93924 23.709 6.95655 21.6507 5.42421 20.1749C4.01401 18.8157 2.12635 17.9502 0.0499223 17.8503C0.105442 15.7199 0.988201 13.8003 2.38174 12.3911C3.81414 10.9376 5.80729 10.0388 8.01142 10.0388ZM0.0388184 34.1391C4.44151 34.1391 8.01697 30.544 8.01697 26.1057H0.0388184V34.1391ZM36.1764 34.1557H37.3424V26.5883L36.1209 26.8103V29.3346C35.699 28.9573 35.1549 28.7354 34.5664 28.7354C33.1451 28.7354 31.9403 29.9781 31.9403 31.5149C31.9403 33.0517 33.1284 34.2944 34.5442 34.2944C35.1771 34.2944 35.7434 34.0392 36.1764 33.6176V34.1557ZM43.2829 33.1349L42.2947 32.4359C42.006 32.8797 41.5174 33.1238 40.9844 33.1238C40.2183 33.1238 39.6187 32.6245 39.4521 31.9477H43.4328C43.4551 31.7701 43.4662 31.6148 43.4662 31.4261C43.4662 29.8949 42.4113 28.7354 40.8845 28.7354C39.2633 28.7354 38.1585 29.9781 38.1585 31.5149C38.1585 33.0517 39.3577 34.2944 40.9733 34.2944C41.9338 34.2889 42.7722 33.8451 43.2829 33.1349ZM47.4525 30.0114V28.8685C47.2637 28.8353 47.1193 28.8131 46.9306 28.8131C46.2199 28.8131 45.6536 29.1681 45.476 29.734V28.8131L44.2767 29.035V34.1557H45.4982V30.0114H47.4525ZM28.7035 29.9005C29.4586 29.9005 29.9027 30.3665 29.9027 31.3207V34.1557H31.1242V31.1543C31.1242 29.8339 30.4135 28.7298 28.9756 28.7298C28.3093 28.7298 27.7319 28.9851 27.2989 29.4067V28.8075L26.133 29.0294V34.1502H27.3544V30.6051C27.6376 30.1779 28.115 29.9005 28.7035 29.9005ZM34.7774 33.1238C33.889 33.1238 33.1895 32.4026 33.1895 31.5149C33.1895 30.6272 33.889 29.906 34.7774 29.906C35.3437 29.906 35.8433 30.2056 36.1209 30.6605V32.3693C35.8433 32.8242 35.3437 33.1238 34.7774 33.1238ZM40.8789 29.845C41.5785 29.845 42.0671 30.2888 42.1892 30.9546H39.441C39.602 30.311 40.1128 29.845 40.8789 29.845ZM23.9122 34.1557H25.1336V28.8685H23.9122V34.1557ZM18.6267 26.6438V34.1557H19.9037V31.1543H22.6297V29.9227H19.9037V27.8755H22.9961V26.6438H18.6267ZM24.5118 26.544C24.0676 26.544 23.6901 26.9101 23.6901 27.3651C23.6901 27.82 24.0676 28.1972 24.5118 28.1972C24.9671 28.1972 25.3557 27.82 25.3557 27.3651C25.3557 26.9101 24.9671 26.544 24.5118 26.544ZM37.1758 23.304C38.5971 23.304 39.8019 22.0612 39.8019 20.5244C39.8019 18.9932 38.6138 17.7449 37.198 17.7449C36.5762 17.7449 36.0099 18.0001 35.5768 18.4107V17.8226L34.4109 18.0445V25.1792H35.6324V22.7103C36.0543 23.082 36.5873 23.304 37.1758 23.304ZM45.6259 22.1444L44.6376 21.4454C44.3489 21.8892 43.8603 22.1333 43.3274 22.1333C42.5723 22.1333 41.9838 21.6451 41.795 20.9794H45.7758C45.798 20.7907 45.8091 20.6354 45.8091 20.4357C45.8091 18.9044 44.7542 17.7449 43.2274 17.7449C41.6063 17.7449 40.5014 18.9877 40.5014 20.5244C40.5014 22.0557 41.7006 23.304 43.3163 23.304C44.2823 23.304 45.1151 22.8601 45.6259 22.1444ZM27.8263 19.0265V17.8781C27.6376 17.8448 27.4932 17.8226 27.3044 17.8226C26.6049 17.8226 26.0386 18.1777 25.8609 18.7435V17.8226L24.6617 18.0445V23.1653H25.872V19.0209H27.8263V19.0265ZM49.8009 19.0265V17.8781C49.6122 17.8448 49.4678 17.8226 49.279 17.8226C48.5795 17.8226 48.0132 18.1777 47.8355 18.7435V17.8226L46.6252 18.0445V23.1653H47.8466V19.0209H49.8009V19.0265ZM54.0149 22.9489L53.5374 21.8948C53.3042 22.0057 52.9822 22.1389 52.6047 22.1389C51.9495 22.1389 51.6164 21.7283 51.6164 21.0848V19.0265H53.6318V17.8781H51.6164V16.3468L50.4061 16.5687V21.0792C50.4061 22.4329 51.1501 23.304 52.5658 23.304C53.1654 23.304 53.6706 23.1042 54.0149 22.9489ZM30.841 22.1333C29.9971 22.1333 29.3198 21.4343 29.3198 20.5244C29.3198 19.6146 29.9971 18.9155 30.841 18.9155C31.6738 18.9155 32.3623 19.6146 32.3623 20.5244C32.3623 21.4343 31.6738 22.1333 30.841 22.1333ZM36.9648 22.1333C36.4096 22.1333 35.91 21.8448 35.6324 21.401V19.6479C35.91 19.204 36.4096 18.9155 36.9648 18.9155C37.8531 18.9155 38.5527 19.6368 38.5527 20.5244C38.5527 21.4121 37.8531 22.1333 36.9648 22.1333ZM43.2274 18.8656C43.9381 18.8656 44.4155 19.3094 44.5377 19.9641H41.7895C41.9505 19.3372 42.4613 18.8656 43.2274 18.8656ZM56.7242 25.1792L59.8389 17.8781H58.4842L56.9963 21.4787L55.475 17.8781H54.1092L56.3467 22.9433L55.4028 25.1792H56.7242ZM30.841 23.304C32.3512 23.304 33.6003 22.0834 33.6003 20.5244C33.6003 18.971 32.3567 17.7449 30.841 17.7449C29.3198 17.7449 28.0706 18.9655 28.0706 20.5244C28.0706 22.0779 29.3142 23.304 30.841 23.304ZM21.3527 16.8905C22.0523 16.8905 22.5631 17.3787 22.5631 18.0112C22.5631 18.6548 22.0412 19.1763 21.3305 19.1763H19.9203V16.885H21.3527V16.8905ZM21.3972 15.6589H18.6267V23.1708H19.9148V20.4135H21.3472C22.7463 20.4135 23.8844 19.3594 23.8844 18.0112C23.89 16.6797 22.774 15.6589 21.3972 15.6589Z" fill="#EA3934"/>
</g>
<defs>
<clipPath id="clip0_2002_183">
<rect width="59.85" height="24.3" fill="white" transform="translate(0 10)"/>
</clipPath>
</defs>
</svg>
