<svg width="89" height="45" viewBox="0 0 89 45" fill="none" xmlns="http://www.w3.org/2000/svg">
<g clip-path="url(#clip0_2015_1038)">
<path d="M5.18382 17.3323H10.3056L5.16986 29.577H0.0340576L5.18382 17.3323Z" fill="white"/>
<path d="M11.3409 17.3323H16.4627L11.3269 29.577H6.19116L11.3409 17.3323Z" fill="white"/>
<path d="M16.4629 27.114H14V29.577H16.4629V27.114Z" fill="white"/>
<path d="M25.4761 28.1764C24.5099 28.1764 23.6804 27.9713 22.9877 27.5611C22.2949 27.1418 21.7617 26.563 21.388 25.8247C21.0143 25.0773 20.8274 24.2159 20.8274 23.2406C20.8274 22.2652 21.0143 21.4038 21.388 20.6564C21.7617 19.909 22.2949 19.3256 22.9877 18.9063C23.6804 18.487 24.5099 18.2774 25.4761 18.2774C26.6429 18.2774 27.5954 18.5645 28.3337 19.1387C29.072 19.713 29.5324 20.5242 29.7147 21.5725H27.6911C27.5726 21.062 27.3265 20.6655 26.9528 20.383C26.5791 20.0913 26.0823 19.9454 25.4624 19.9454C24.8882 19.9454 24.3914 20.0822 23.9721 20.3556C23.5619 20.6199 23.2475 20.9982 23.0287 21.4904C22.8099 21.9735 22.7006 22.5569 22.7006 23.2406C22.7006 23.9151 22.8099 24.4984 23.0287 24.9907C23.2475 25.4829 23.5619 25.8612 23.9721 26.1255C24.3914 26.3898 24.8882 26.522 25.4624 26.522C26.0823 26.522 26.5791 26.3898 26.9528 26.1255C27.3265 25.852 27.5726 25.4738 27.6911 24.9907H29.7147C29.5324 25.9842 29.072 26.7636 28.3337 27.3287C27.5954 27.8938 26.6429 28.1764 25.4761 28.1764ZM30.9757 28.0123V18.4414H34.558C35.3237 18.4414 35.9572 18.5736 36.4585 18.8379C36.969 19.1023 37.3472 19.4578 37.5933 19.9044C37.8395 20.3419 37.9625 20.8296 37.9625 21.3674C37.9625 21.8778 37.8395 22.3564 37.5933 22.803C37.3564 23.2406 36.9826 23.596 36.4722 23.8695C35.9709 24.1338 35.3237 24.266 34.5307 24.266H32.8216V28.0123H30.9757ZM35.9389 28.0123L33.9701 23.8011H35.9663L38.0445 28.0123H35.9389ZM32.8216 22.9261H34.4349C35.0001 22.9261 35.4148 22.7893 35.6792 22.5159C35.9435 22.2424 36.0757 21.8824 36.0757 21.4358C36.0757 20.9891 35.9435 20.6382 35.6792 20.383C35.4148 20.1186 35.0001 19.9864 34.4349 19.9864H32.8216V22.9261ZM39.2878 28.0123V18.4414H45.5909V19.9318H41.1336V22.4339H45.1807V23.8695H41.1336V26.522H45.5909V28.0123H39.2878ZM54.0743 28.1764C53.1719 28.1764 52.3834 27.9759 51.7088 27.5748C51.0343 27.1646 50.5102 26.5949 50.1365 25.8657C49.7628 25.1274 49.5759 24.2706 49.5759 23.2952C49.5759 22.3108 49.7673 21.4449 50.1501 20.6974C50.533 19.9409 51.0845 19.3484 51.8046 18.92C52.5246 18.4916 53.3861 18.2774 54.3888 18.2774C55.51 18.2774 56.4397 18.5462 57.178 19.084C57.9255 19.6218 58.4086 20.3693 58.6274 21.3264H56.5628C56.426 20.9071 56.1708 20.5789 55.7971 20.3419C55.4325 20.0958 54.9585 19.9728 54.3751 19.9728C53.7553 19.9728 53.2266 20.1095 52.789 20.383C52.3515 20.6564 52.0188 21.0392 51.7909 21.5315C51.563 22.0237 51.4491 22.6116 51.4491 23.2952C51.4491 23.988 51.563 24.5759 51.7909 25.059C52.0188 25.5421 52.3423 25.9113 52.7616 26.1665C53.1902 26.4126 53.6915 26.5357 54.2658 26.5357C55.1043 26.5357 55.7379 26.3124 56.1663 25.8657C56.6038 25.41 56.8636 24.822 56.9456 24.1019H54.5939V22.721H58.8051V28.0123H57.096L56.9593 26.7955C56.7587 27.0963 56.5218 27.3515 56.2483 27.5611C55.984 27.7617 55.674 27.9121 55.3186 28.0123C54.9631 28.1217 54.5483 28.1764 54.0743 28.1764ZM62.7206 28.1764C62.1555 28.1764 61.6724 28.0579 61.2713 27.8209C60.8794 27.5839 60.5786 27.233 60.3689 26.7681C60.1684 26.2941 60.0681 25.7153 60.0681 25.0317V21.2307H61.9003V24.8676C61.9003 25.4327 62.0142 25.8657 62.2421 26.1665C62.47 26.4673 62.83 26.6177 63.3222 26.6177C63.6413 26.6177 63.9238 26.5448 64.1699 26.3989C64.416 26.244 64.6075 26.0298 64.7442 25.7563C64.8809 25.4738 64.9493 25.1319 64.9493 24.7309V21.2307H66.7951V28.0123H65.168L65.0313 26.8775C64.8126 27.2694 64.5072 27.5839 64.1152 27.8209C63.7233 28.0579 63.2584 28.1764 62.7206 28.1764ZM70.6406 28.1764C70.0663 28.1764 69.5878 28.0853 69.2049 27.903C68.8312 27.7206 68.5532 27.4745 68.3709 27.1646C68.1886 26.8547 68.0974 26.5129 68.0974 26.1392C68.0974 25.7199 68.2023 25.3553 68.4119 25.0454C68.6307 24.7263 68.9588 24.4757 69.3963 24.2934C69.8339 24.111 70.3853 24.0199 71.0507 24.0199H72.7598C72.7598 23.6918 72.7097 23.4229 72.6094 23.2132C72.5183 22.9944 72.3724 22.8349 72.1719 22.7347C71.9805 22.6253 71.7344 22.5706 71.4336 22.5706C71.0781 22.5706 70.7727 22.6481 70.5175 22.803C70.2714 22.958 70.1164 23.195 70.0526 23.514H68.2615C68.3162 23.0127 68.4848 22.5797 68.7674 22.2151C69.05 21.8505 69.4237 21.5679 69.8886 21.3674C70.3534 21.1669 70.8684 21.0666 71.4336 21.0666C72.0808 21.0666 72.6413 21.176 73.1153 21.3947C73.5893 21.6044 73.9539 21.9189 74.2091 22.3382C74.4735 22.7483 74.6056 23.2497 74.6056 23.8422V28.0123H73.047L72.8419 26.9595C72.7507 27.1418 72.6322 27.3059 72.4864 27.4518C72.3496 27.5976 72.1901 27.7252 72.0078 27.8346C71.8255 27.944 71.6204 28.026 71.3926 28.0807C71.1647 28.1445 70.914 28.1764 70.6406 28.1764ZM71.0781 26.7544C71.3242 26.7544 71.5384 26.7134 71.7207 26.6314C71.9121 26.5402 72.0716 26.4217 72.1992 26.2759C72.336 26.1301 72.4408 25.9614 72.5137 25.77C72.5958 25.5786 72.6504 25.3735 72.6778 25.1547H71.2558C70.9733 25.1547 70.7408 25.1912 70.5585 25.2641C70.3853 25.3279 70.2577 25.4236 70.1757 25.5512C70.0936 25.6697 70.0526 25.811 70.0526 25.9751C70.0526 26.1392 70.0936 26.2805 70.1757 26.3989C70.2577 26.5174 70.3762 26.6086 70.5312 26.6724C70.6861 26.7271 70.8684 26.7544 71.0781 26.7544ZM75.9872 28.0123V21.2307H77.6279L77.8056 22.5022C77.9697 22.2105 78.1702 21.9599 78.4072 21.7502C78.6533 21.5315 78.9314 21.3628 79.2413 21.2443C79.5603 21.1258 79.9067 21.0666 80.2804 21.0666V23.0218H79.7745C79.4919 23.0218 79.2276 23.0537 78.9815 23.1175C78.7445 23.1813 78.5394 23.2861 78.3662 23.432C78.193 23.5778 78.0609 23.7783 77.9697 24.0336C77.8786 24.2797 77.833 24.5942 77.833 24.977V28.0123H75.9872ZM84.2119 28.1764C83.5829 28.1764 83.0132 28.0214 82.5028 27.7115C82.0014 27.4016 81.6049 26.9778 81.3133 26.44C81.0216 25.8931 80.8757 25.2823 80.8757 24.6078C80.8757 23.9242 81.0216 23.318 81.3133 22.7894C81.6049 22.2516 82.0014 21.8323 82.5028 21.5315C83.0132 21.2215 83.5829 21.0666 84.2119 21.0666C84.7132 21.0666 85.1507 21.1623 85.5245 21.3537C85.9073 21.536 86.2127 21.7912 86.4405 22.1194V18.168H88.2864V28.0123H86.6456L86.4405 27.0689C86.3038 27.2694 86.1306 27.4563 85.921 27.6295C85.7204 27.7936 85.4789 27.9257 85.1963 28.026C84.9137 28.1263 84.5856 28.1764 84.2119 28.1764ZM84.6221 26.563C84.9867 26.563 85.3103 26.481 85.5928 26.3169C85.8754 26.1437 86.0942 25.9113 86.2491 25.6196C86.4132 25.3279 86.4952 24.9952 86.4952 24.6215C86.4952 24.2387 86.4132 23.9014 86.2491 23.6097C86.0942 23.318 85.8754 23.0902 85.5928 22.9261C85.3103 22.762 84.9867 22.68 84.6221 22.68C84.2666 22.68 83.943 22.762 83.6513 22.9261C83.3687 23.0902 83.15 23.318 82.995 23.6097C82.84 23.9014 82.7626 24.2341 82.7626 24.6078C82.7626 24.9907 82.84 25.3279 82.995 25.6196C83.15 25.9113 83.3687 26.1437 83.6513 26.3169C83.943 26.481 84.2666 26.563 84.6221 26.563Z" fill="white"/>
</g>
<defs>
<clipPath id="clip0_2015_1038">
<rect width="88" height="24" fill="white" transform="translate(0 11)"/>
</clipPath>
</defs>
</svg>
