<svg width="85" height="45" viewBox="0 0 85 45" fill="none" xmlns="http://www.w3.org/2000/svg">
<path d="M32.5073 14.7677H34.0518L34.0963 15.9455L33.7789 16.0775C33.8666 15.8083 34.0207 15.5634 34.2281 15.3637C34.4504 15.1448 34.7145 14.9691 35.0059 14.8462C35.3048 14.7149 35.6297 14.6474 35.9583 14.6481C36.3565 14.6347 36.751 14.7254 37.0999 14.9105C37.4153 15.0939 37.6588 15.3725 37.7924 15.7028C37.9601 16.1182 38.0396 16.5617 38.0263 17.0072V20.5422H36.4056V17.125C36.413 16.9017 36.3745 16.6791 36.2924 16.4701C36.2265 16.3064 36.1039 16.1697 35.9453 16.0829C35.7688 15.9949 35.5693 15.9589 35.3716 15.9794C35.1996 15.9777 35.0286 16.0055 34.8667 16.0614C34.7186 16.1116 34.5833 16.1912 34.4694 16.2952C34.3605 16.398 34.2718 16.5189 34.2077 16.6521C34.1441 16.7853 34.1117 16.9303 34.113 17.0768V20.5476H32.5073V14.7677Z" fill="white"/>
<path d="M27.5934 20.6511C27.0405 20.657 26.492 20.5563 25.9802 20.3549C25.4984 20.1654 25.0604 19.8858 24.6919 19.5322C24.3222 19.1771 24.0339 18.7517 23.8454 18.2831C23.6446 17.7798 23.5445 17.2446 23.5503 16.7056C23.5435 16.1671 23.6437 15.6324 23.8454 15.13C24.0364 14.6626 24.3245 14.2376 24.6919 13.8808C25.0596 13.5245 25.4976 13.2424 25.9802 13.0511C27.0182 12.6584 28.1724 12.6584 29.2103 13.0511C29.6913 13.2434 30.1279 13.5254 30.495 13.8808C30.8619 14.2377 31.1493 14.6627 31.3396 15.13C31.7332 16.1433 31.7332 17.2591 31.3396 18.2724C31.1489 18.7394 30.8615 19.1644 30.495 19.5215C30.1279 19.8764 29.6913 20.1578 29.2103 20.3495C28.698 20.5537 28.148 20.6563 27.5934 20.6511ZM27.5934 19.1004C27.9122 19.1023 28.2281 19.0416 28.5216 18.9219C28.8015 18.8087 29.0518 18.6375 29.2549 18.4205C29.4626 18.1961 29.6261 17.9373 29.7375 17.6568C29.9726 17.0361 29.9726 16.3556 29.7375 15.7349C29.6265 15.4557 29.4629 15.1987 29.2549 14.9765C29.0498 14.7617 28.8 14.5908 28.5216 14.4751C28.2289 14.353 27.9125 14.2921 27.5934 14.2966C27.2743 14.291 26.9576 14.3519 26.6653 14.4751C26.3854 14.5928 26.1329 14.7633 25.9227 14.9765C25.7122 15.1993 25.5522 15.4619 25.453 15.7474C25.2328 16.3705 25.2328 17.0461 25.453 17.6692C25.5581 17.9528 25.7223 18.2127 25.9357 18.433C26.1439 18.6484 26.3969 18.8192 26.6782 18.9344C26.9684 19.0491 27.2798 19.1056 27.5934 19.1004Z" fill="white"/>
<path d="M38.5609 16.1542V14.7677H42.5317V16.1542H38.5609ZM39.6859 20.5405V13.3044H41.2972V20.5405H39.6859Z" fill="white"/>
<path d="M44.0688 13.9897C43.8261 14.0036 43.5875 13.9254 43.4042 13.772C43.2482 13.6026 43.1621 13.3843 43.1621 13.1581C43.1621 12.932 43.2482 12.7136 43.4042 12.5443C43.4916 12.4641 43.5952 12.4021 43.7085 12.3619C43.8219 12.3217 43.9426 12.3042 44.0632 12.3105C44.1835 12.3033 44.3042 12.3193 44.418 12.3577C44.5318 12.396 44.6365 12.4558 44.7259 12.5336C44.8815 12.7031 44.9673 12.9214 44.9673 13.1474C44.9673 13.3735 44.8815 13.5917 44.7259 13.7613C44.6377 13.8395 44.5342 13.9 44.4213 13.9393C44.3085 13.9785 44.1886 13.9956 44.0688 13.9897ZM43.2612 20.5405V14.7677H44.8744V20.5405H43.2612Z" fill="white"/>
<path d="M46.146 20.5405V12.464H47.7592V20.5405H46.146ZM47.6794 18.806L47.2023 17.5318L50.0407 14.7713H52.1644L47.6794 18.806ZM50.2115 20.5405L48.0544 17.9333L49.1886 17.059L52.1588 20.5405H50.2115Z" fill="white"/>
<path d="M26.1845 30.4193V24.2539H23.8696V22.78H30.2796V24.2539H27.8886V30.4193H26.1845Z" fill="white"/>
<path d="M32.4868 30.5299C31.8947 30.5433 31.3088 30.4113 30.7845 30.1462C30.3127 29.9043 29.9196 29.5418 29.6484 29.0988C29.3702 28.6348 29.229 28.1067 29.24 27.5713C29.2345 27.1537 29.3113 26.7389 29.4665 26.3489C29.6106 25.9899 29.8269 25.6618 30.1033 25.3835C30.3772 25.1093 30.7079 24.8935 31.0741 24.75C31.461 24.5976 31.8757 24.5211 32.2938 24.5252C32.6837 24.5217 33.0702 24.5945 33.4299 24.7393C33.771 24.8762 34.0783 25.0805 34.3321 25.3389C34.5892 25.6016 34.7881 25.9119 34.9168 26.2507C35.0567 26.6171 35.1198 27.0065 35.1025 27.3964L35.0876 27.8817H30.261L29.9993 26.9324H33.7585L33.5728 27.1287V26.8896C33.5593 26.6969 33.4905 26.5116 33.3742 26.3542C33.2597 26.1965 33.1059 26.0689 32.9268 25.9831C32.7355 25.8938 32.525 25.8492 32.3123 25.8528C32.0195 25.8412 31.7285 25.9026 31.4677 26.0313C31.2359 26.1544 31.0507 26.3449 30.9386 26.5755C30.809 26.8498 30.7456 27.1487 30.753 27.4499C30.7447 27.7668 30.8255 28.08 30.9869 28.3564C31.1427 28.6105 31.3707 28.8167 31.644 28.9506C31.9568 29.0981 32.3019 29.1709 32.6502 29.163C32.8977 29.1661 33.1437 29.1256 33.376 29.0434C33.6321 28.9418 33.8696 28.8014 34.0796 28.6277L34.8519 29.6644C34.6331 29.8536 34.389 30.0138 34.126 30.1409C33.8656 30.2657 33.5917 30.3626 33.3092 30.43C33.0401 30.4938 32.7641 30.5274 32.4868 30.5299Z" fill="white"/>
<path d="M38.6741 30.5299C38.1408 30.5382 37.6153 30.4062 37.1544 30.1484C36.6934 29.8905 36.3145 29.5164 36.0585 29.0666C35.8012 28.5923 35.6668 28.0652 35.6668 27.5302C35.6668 26.9952 35.8012 26.4681 36.0585 25.9938C36.3129 25.5423 36.6913 25.1667 37.1526 24.9077C37.6138 24.6487 38.1401 24.5164 38.6741 24.5252C39.1845 24.5189 39.6906 24.6162 40.1592 24.8107C40.5749 24.9761 40.9357 25.2476 41.2025 25.5958L40.304 26.6219C40.1921 26.4779 40.0582 26.3509 39.9068 26.2454C39.7486 26.1334 39.5749 26.0433 39.3907 25.9777C39.2071 25.9123 39.0128 25.8791 38.8171 25.8796C38.5313 25.8726 38.2494 25.9439 38.0042 26.0852C37.759 26.2264 37.5606 26.4317 37.4322 26.6772C37.2916 26.9396 37.2214 27.2316 37.228 27.5266C37.2216 27.8178 37.2939 28.1055 37.4378 28.3618C37.5735 28.6024 37.771 28.8057 38.0114 28.9524C38.2553 29.1016 38.5392 29.1791 38.8282 29.1755C39.0172 29.1769 39.2052 29.1492 39.3851 29.0934C39.5623 29.0379 39.7291 28.9554 39.8789 28.8489C40.0374 28.7353 40.1803 28.6028 40.304 28.4546L41.1784 29.4806C40.8935 29.8146 40.5267 30.0752 40.111 30.239C39.6586 30.4318 39.169 30.5309 38.6741 30.5299Z" fill="white"/>
<path d="M41.9896 22.3499H43.5805V25.8314L43.2612 25.9634C43.3497 25.6945 43.5037 25.4498 43.7105 25.2497C43.9328 25.0308 44.1969 24.8551 44.4883 24.7322C44.7877 24.6007 45.1133 24.5331 45.4425 24.5341C45.8407 24.5207 46.2353 24.6113 46.5841 24.7964C46.8987 24.9809 47.1418 25.2591 47.2766 25.5887C47.4427 26.0045 47.5216 26.4479 47.5086 26.8931V30.4282H45.8973V27.0038C45.9041 26.7803 45.865 26.5578 45.7822 26.3489C45.7169 26.1854 45.595 26.0487 45.4369 25.9617C45.2603 25.8741 45.0609 25.8382 44.8633 25.8582C44.6912 25.8562 44.5202 25.884 44.3583 25.9402C44.21 25.9898 44.0745 26.0695 43.9611 26.174C43.8521 26.2768 43.7634 26.3977 43.6993 26.5309C43.6342 26.6637 43.6012 26.8089 43.6028 26.9556V30.4264H41.9896V22.3499Z" fill="white"/>
<path d="M48.5983 24.6465H50.1428L50.1892 25.8243L49.8699 25.9563C49.9584 25.6874 50.1124 25.4426 50.3192 25.2425C50.5415 25.0236 50.8056 24.8479 51.097 24.725C51.3964 24.5935 51.722 24.526 52.0512 24.527C52.4488 24.5137 52.8427 24.6044 53.191 24.7893C53.5064 24.9727 53.7499 25.2513 53.8834 25.5816C54.0512 25.997 54.1307 26.4406 54.1173 26.886V30.421H52.5041V27.0038C52.5114 26.7805 52.473 26.5579 52.3909 26.3489C52.3251 26.1857 52.2033 26.0491 52.0456 25.9617C51.869 25.8741 51.6696 25.8382 51.472 25.8582C51.2993 25.8563 51.1277 25.8841 50.9652 25.9402C50.8172 25.9906 50.6819 26.0703 50.5679 26.174C50.4589 26.2764 50.3707 26.3974 50.308 26.5309C50.2429 26.6637 50.2099 26.8089 50.2115 26.9556V30.4264H48.5983V24.6465Z" fill="white"/>
<path d="M58.0008 30.5299C57.4282 30.5391 56.8629 30.4057 56.3598 30.1427C55.8874 29.891 55.4948 29.521 55.2237 29.072C54.9419 28.6008 54.7988 28.0647 54.8097 27.5213C54.7985 26.9801 54.9417 26.4462 55.2237 25.9777C55.4968 25.5302 55.8889 25.1606 56.3598 24.907C56.8626 24.6482 57.424 24.5128 57.9943 24.5128C58.5647 24.5128 59.1261 24.6482 59.6289 24.907C60.099 25.1598 60.4895 25.5296 60.7594 25.9777C61.0379 26.4474 61.179 26.9808 61.1678 27.5213C61.1785 28.064 61.0374 28.5995 60.7594 29.072C60.4915 29.5215 60.1005 29.8918 59.6289 30.1427C59.1301 30.4046 58.5692 30.538 58.0008 30.5299ZM58.0008 29.1755C58.2813 29.179 58.557 29.1053 58.7954 28.9631C59.0338 28.8198 59.2265 28.616 59.3523 28.3743C59.4881 28.1111 59.5563 27.8204 59.5509 27.5266C59.5569 27.23 59.4888 26.9362 59.3523 26.6701C59.2265 26.4283 59.0338 26.2246 58.7954 26.0812C58.5538 25.9406 58.2768 25.8662 57.9943 25.8662C57.7119 25.8662 57.4349 25.9406 57.1933 26.0812C56.9574 26.2282 56.7654 26.4318 56.6364 26.6719C56.4986 26.9346 56.4346 27.2274 56.4508 27.5213C56.4358 27.8145 56.4998 28.1064 56.6364 28.3689C56.7639 28.6095 56.9562 28.8129 57.1933 28.9578C57.4354 29.1028 57.7156 29.1783 58.0008 29.1755Z" fill="white"/>
<path d="M61.9401 30.4193V22.3499H63.5533V30.4264L61.9401 30.4193Z" fill="white"/>
<path d="M67.4071 30.5299C66.8345 30.5389 66.2692 30.4055 65.766 30.1427C65.2938 29.8915 64.9017 29.5213 64.6318 29.072C64.3494 28.6009 64.2057 28.0649 64.216 27.5213C64.2053 26.9799 64.3491 26.4461 64.6318 25.9777C64.9036 25.5299 65.2953 25.1602 65.766 24.907C66.2691 24.6482 66.8309 24.5128 67.4015 24.5128C67.9721 24.5128 68.5339 24.6482 69.037 24.907C69.5072 25.159 69.8973 25.5291 70.1657 25.9777C70.4474 26.4477 70.5911 26.9825 70.5815 27.5249C70.5916 28.0677 70.4499 28.6033 70.1712 29.0756C69.9046 29.5254 69.514 29.8959 69.0426 30.1462C68.5411 30.4079 67.9776 30.5401 67.4071 30.5299ZM67.4071 29.1755C67.6876 29.1792 67.9634 29.1055 68.2016 28.9631C68.4399 28.8196 68.6326 28.6159 68.7585 28.3743C68.8936 28.1108 68.9616 27.8203 68.9572 27.5266C68.9622 27.2301 68.8942 26.9365 68.7585 26.6701C68.6326 26.4284 68.4399 26.2247 68.2016 26.0812C67.9604 25.9406 67.6837 25.8662 67.4015 25.8662C67.1194 25.8662 66.8426 25.9406 66.6014 26.0812C66.3656 26.2283 66.1736 26.4318 66.0445 26.6719C65.9076 26.9349 65.8436 27.2275 65.8589 27.5213C65.8448 27.8144 65.9087 28.1061 66.0445 28.3689C66.1722 28.6094 66.3644 28.8128 66.6014 28.9578C66.8427 29.1031 67.1224 29.1787 67.4071 29.1755Z" fill="white"/>
<path d="M74.3054 32.93C73.828 32.9296 73.3532 32.8617 72.8964 32.7284C72.4933 32.6207 72.1131 32.4455 71.7733 32.2109L72.3413 31.0973C72.5047 31.2058 72.6796 31.2973 72.863 31.3704C73.063 31.4477 73.2699 31.5074 73.4811 31.5488C73.6998 31.5919 73.9225 31.6134 74.1457 31.6131C74.4791 31.6239 74.8109 31.5629 75.1166 31.4346C75.3611 31.3264 75.5624 31.1448 75.6902 30.9171C75.8262 30.6429 75.89 30.3408 75.8759 30.0374V29.0345L76.1488 29.088C76.0975 29.3392 75.9681 29.5695 75.7775 29.7483C75.5581 29.9587 75.2949 30.1223 75.0052 30.2283C74.7023 30.347 74.3782 30.4076 74.051 30.4068C73.5299 30.4165 73.0161 30.2881 72.5659 30.0356C72.1343 29.7893 71.7807 29.4346 71.5431 29.0095C71.2883 28.5466 71.1605 28.0288 71.1718 27.5052C71.1617 26.9686 71.2892 26.4379 71.5431 25.9599C71.7754 25.5263 72.1249 25.1608 72.5548 24.9017C72.8679 24.7187 73.2156 24.5969 73.5778 24.5433C73.94 24.4897 74.3096 24.5054 74.6655 24.5894C74.8668 24.6383 75.0612 24.7102 75.2447 24.8035C75.4144 24.8889 75.5743 24.9912 75.7218 25.1087C75.8557 25.2135 75.9726 25.3368 76.0689 25.4745C76.1537 25.5925 76.2119 25.7262 76.2397 25.8671L75.9093 25.9545L75.9557 24.634H77.4983V29.9713C77.5063 30.3969 77.4333 30.8202 77.283 31.2205C77.1496 31.5703 76.9343 31.886 76.6537 32.143C76.3636 32.4022 76.0184 32.5976 75.642 32.7159C75.2118 32.8579 74.7602 32.9302 74.3054 32.93ZM74.3499 29.1826C74.6429 29.1885 74.9318 29.1169 75.1853 28.9756C75.425 28.8385 75.6184 28.6377 75.7422 28.3975C75.8691 28.1234 75.9347 27.8267 75.9347 27.5266C75.9347 27.2266 75.8691 26.9299 75.7422 26.6558C75.6207 26.4126 75.4269 26.2095 75.1853 26.0723C74.9318 25.931 74.6429 25.8594 74.3499 25.8653C74.0605 25.8601 73.7754 25.9337 73.5275 26.0777C73.2884 26.2178 73.0953 26.4201 72.9706 26.6612C72.8398 26.9313 72.7762 27.227 72.785 27.5248C72.7768 27.8238 72.8403 28.1205 72.9706 28.3921C73.0929 28.6348 73.2865 28.8377 73.5275 28.9756C73.7773 29.1137 74.0619 29.1828 74.3499 29.1755V29.1826Z" fill="white"/>
<path d="M79.4828 32.93L80.799 29.9624L80.8231 30.8547L77.8919 24.6447H79.7204L81.1851 27.9728C81.2532 28.113 81.3121 28.2572 81.3615 28.4046C81.419 28.5688 81.4654 28.7258 81.5044 28.8793L81.2315 28.9881C81.2761 28.865 81.3299 28.7222 81.3893 28.5634C81.4487 28.4046 81.5118 28.2315 81.5749 28.0495L82.8354 24.6447H84.6714L82.1504 30.4175L81.1183 32.9282L79.4828 32.93Z" fill="white"/>
<path d="M2.51382 26.8468C3.9488 26.8468 3.95251 24.7054 2.51382 24.7054C1.07513 24.7054 1.07513 26.8468 2.51382 26.8468Z" fill="white"/>
<path d="M9.20234 31.8593C10.5148 31.8593 11.7734 30.7494 11.714 29.4467C11.6546 28.1441 10.6002 27.0323 9.20234 27.0323C7.88989 27.0323 6.63126 28.1423 6.69067 29.4467C6.75007 30.7512 7.79521 31.8593 9.20234 31.8593Z" fill="white"/>
<path d="M15.8909 26.8468C17.3277 26.8468 17.3295 24.7054 15.8909 24.7054C14.4522 24.7054 14.4522 26.8468 15.8909 26.8468Z" fill="white"/>
<path d="M9.20234 24.7447C10.6615 24.7447 12.0593 23.5098 11.9869 22.068C11.9145 20.6261 10.7598 19.3913 9.20234 19.3913C7.74323 19.3913 6.34538 20.6243 6.41778 22.068C6.49018 23.5116 7.64299 24.7447 9.20234 24.7447Z" fill="white"/>
<path d="M15.8909 20.8046C17.2052 20.8046 18.4638 19.6946 18.4025 18.392C18.3413 17.0893 17.2998 15.9776 15.8909 15.9776C14.5784 15.9776 13.3198 17.0875 13.381 18.392C13.4423 19.6964 14.4837 20.8046 15.8909 20.8046Z" fill="white"/>
<path d="M2.51382 20.8046C3.82628 20.8046 5.0849 19.6946 5.02364 18.392C4.96238 17.0893 3.92095 15.9776 2.51382 15.9776C1.19951 15.9776 -0.0591118 17.0875 0.00214855 18.392C0.0634089 19.6964 1.10483 20.8046 2.51382 20.8046Z" fill="white"/>
<path d="M9.20234 17.3534C10.6615 17.3534 12.0593 16.1203 11.9869 14.6767C11.9145 13.2331 10.7598 12 9.20234 12C7.74323 12 6.34538 13.2349 6.41778 14.6767C6.49018 16.1185 7.64299 17.3534 9.20234 17.3534Z" fill="white"/>
</svg>
