<svg width="48" height="45" viewBox="0 0 48 45" fill="none" xmlns="http://www.w3.org/2000/svg">
<path fill-rule="evenodd" clip-rule="evenodd" d="M26.5047 8.22093C26.1168 8.34175 25.3855 8.56614 24.8739 8.72148C24.3624 8.87682 23.6688 9.0874 23.329 9.19096C22.9891 9.29452 22.7041 9.38773 22.6938 9.39808C22.6835 9.40844 22.6698 10.5787 22.6595 11.994L22.6423 14.5727C18.4675 14.5865 17.6538 14.5762 17.6298 14.552C17.6092 14.5313 17.5886 13.7235 17.5783 12.353L17.5611 10.1886H7.98231C7.96858 16.5059 7.96171 16.8891 7.91365 16.9305C7.87245 16.965 7.68019 16.8718 6.73604 16.3643L5.61337 15.7568C5.37304 15.8914 4.50099 16.3678 3.51908 16.9029C2.53717 17.4379 1.363 18.08 0.909812 18.3251C0.456623 18.5737 0.0652318 18.8015 0.041199 18.8326C0.00686651 18.8774 0 19.882 0 23.7725C0 27.6698 0.00686651 28.6675 0.041199 28.702C0.0789648 28.7365 4.69326 28.7434 23.7238 28.7434C36.7255 28.7434 47.3823 28.7296 47.4029 28.7158C47.4372 28.6986 47.4441 27.7631 47.4372 24.3593L47.4304 20.027C41.1784 20.0097 40.3854 19.9994 40.3682 19.9648C40.3545 19.9441 40.3407 18.8084 40.3407 17.4448V14.9697C40.2206 14.9179 39.4515 14.7315 38.5554 14.5209C37.6593 14.3104 36.1453 13.9514 35.1908 13.7235C34.2364 13.4957 33.3025 13.2747 33.1137 13.2299C32.9249 13.1815 32.5953 13.1056 32.3824 13.0573L31.9979 12.9675V9.41189C31.8777 9.36011 31.301 9.18061 30.6418 8.98039C29.9792 8.78017 29.1929 8.53852 28.8908 8.44532C28.5887 8.35556 28.1321 8.21403 27.878 8.13808C27.6239 8.06214 27.3665 8 27.3115 8C27.2532 8.00345 26.8927 8.10011 26.5047 8.22093V8.22093ZM25.5194 9.58104C26.4875 9.28417 27.2875 9.03907 27.3012 9.03562C27.3184 9.03217 28.0188 9.24274 28.8634 9.50165C29.7114 9.7571 30.5285 10.0056 30.9679 10.1368V11.3968C30.9679 12.3738 30.9576 12.6603 30.9233 12.6741C30.9027 12.6844 30.6795 12.6465 30.4358 12.5912C30.1886 12.536 29.7251 12.4255 29.4058 12.3461C29.0831 12.2702 28.7981 12.2115 28.7707 12.215C28.726 12.2253 28.7157 13.1229 28.6848 27.6906H25.9726L25.9382 14.6072L23.7066 14.5727L23.6997 12.3807C23.6929 10.8963 23.7032 10.1783 23.7272 10.1541C23.7444 10.1334 24.5512 9.87792 25.5194 9.58104V9.58104ZM8.99512 11.2139C9.03289 11.1828 9.9221 11.1724 12.7683 11.1724C15.7758 11.169 16.5036 11.1793 16.538 11.2139C16.5723 11.2484 16.5792 11.6454 16.5654 14.5727L14.3338 14.6072L14.2995 27.6906L12.7889 27.6975C11.6181 27.7044 11.2714 27.6975 11.2542 27.6629C11.2405 27.6422 11.2267 25.64 11.2302 18.8188L10.1899 18.2526C9.61654 17.9385 9.10842 17.6554 8.96079 17.5588L8.95392 14.407C8.94706 11.742 8.95392 11.2484 8.99512 11.2139V11.2139ZM29.7526 13.5233C29.7663 13.4957 29.8041 13.4853 29.8487 13.4991C29.8865 13.5095 30.1371 13.5682 30.4015 13.6269C30.6658 13.689 30.9027 13.7546 30.9267 13.7753C30.9645 13.8064 30.9679 15.1009 30.9508 27.6906H29.7491L29.7388 20.6311C29.7354 16.7475 29.7423 13.5509 29.7526 13.5233ZM32.0151 14.0791C32.0219 14.0584 32.0494 14.0377 32.0734 14.0377C32.0975 14.0377 32.7429 14.1861 33.5085 14.3656C34.2742 14.5486 35.0226 14.7281 35.1737 14.7626C35.3247 14.8006 36.3066 15.0318 37.3538 15.2804C38.4009 15.5289 39.2798 15.7533 39.3039 15.774C39.3382 15.8086 39.3451 16.2228 39.3279 19.9925L34.8303 20.027L34.8132 23.8588C34.8029 25.9645 34.7926 27.694 34.7857 27.6975C34.7823 27.7044 34.1574 27.7044 32.0151 27.6906L32.0048 20.9073C32.0013 17.1756 32.0048 14.1032 32.0151 14.0791V14.0791ZM20.0571 15.6152C21.4029 15.6118 22.5153 15.6049 22.529 15.598C22.5462 15.5945 22.5805 15.598 22.608 15.6083C22.6526 15.6222 22.6595 16.3264 22.6595 27.7078H17.6298L17.6057 27.5801C17.592 27.5076 17.5783 24.8219 17.5783 21.6149C17.5783 18.4045 17.5851 15.7464 17.6126 15.6256L20.0571 15.6152ZM15.3295 15.7015C15.3466 15.6222 15.3466 15.6222 16.562 15.6429V27.6906H15.326L15.3192 21.7358C15.3123 18.4597 15.3192 15.743 15.3295 15.7015V15.7015ZM23.7032 15.667C23.7169 15.636 23.8714 15.6256 24.922 15.6256L24.9254 19.8958C24.9254 22.2467 24.9288 24.9358 24.9288 25.8782C24.9288 26.8172 24.9288 27.6112 24.9288 27.6457C24.9254 27.7009 24.8739 27.7044 23.7032 27.6906L23.6963 21.7012C23.6929 18.4045 23.6963 15.6912 23.7032 15.667ZM5.09838 17.1894C5.34214 17.0548 5.57217 16.9408 5.60993 16.9408C5.6477 16.9374 6.17299 17.2066 6.77724 17.538C7.38149 17.8694 7.89648 18.1594 7.92051 18.1836C7.95141 18.2216 7.95828 19.2779 7.94455 27.6906H1.04371V19.4125L2.8496 18.4252C3.84181 17.8798 4.85462 17.324 5.09838 17.1894V17.1894ZM8.97452 18.8774C8.98482 18.836 9.01229 18.798 9.03632 18.798C9.06035 18.798 9.33845 18.9396 10.2277 19.4229L10.2105 27.6906H8.97452L8.96766 23.3237C8.96079 20.9211 8.96422 18.9189 8.97452 18.8774ZM35.8226 21.0868C35.8363 21.0522 36.2071 21.0453 39.3245 21.0626V27.6906H35.8226L35.8157 24.4111C35.8123 22.6057 35.8157 21.1109 35.8226 21.0868ZM40.3545 21.0661C40.3716 21.0557 41.7415 21.0453 43.3997 21.0453C46.0502 21.0453 46.4176 21.0488 46.4313 21.0971C46.4416 21.1247 46.4485 22.5988 46.4485 24.3766C46.4485 26.1509 46.4416 27.625 46.4313 27.656C46.4176 27.7009 46.0502 27.7078 43.3929 27.7078C40.739 27.7078 40.3716 27.7009 40.3545 27.656C40.3476 27.625 40.3373 26.1371 40.3339 24.3455C40.3304 22.5539 40.3407 21.0799 40.3545 21.0661V21.0661ZM0.0171663 30.5765C0.0068665 30.6214 0 31.6363 0.00686651 32.8341L0.013733 35.0089C1.49003 35.0227 1.91919 35.0124 2.05652 34.9882C2.18012 34.9675 2.35864 34.9226 2.45134 34.8847C2.54747 34.8501 2.70884 34.7466 2.81183 34.6534C2.93886 34.5429 3.03156 34.4186 3.08649 34.2978C3.13456 34.1804 3.17233 34.0182 3.18262 33.8697C3.19407 33.7087 3.18148 33.5648 3.14486 33.4382C3.11396 33.3209 3.04186 33.1862 2.95946 33.093C2.86677 32.986 2.75347 32.9032 2.59554 32.8341C2.46851 32.7754 2.36894 32.7202 2.37581 32.7064C2.37924 32.6926 2.46164 32.6305 2.55434 32.5683C2.65047 32.5062 2.7775 32.375 2.8393 32.2818C2.9011 32.1851 2.96976 32.0229 2.99036 31.9193C3.01096 31.8089 3.0144 31.6466 3.00066 31.5396C2.98693 31.4326 2.92856 31.2565 2.8702 31.1426C2.79925 31.0045 2.7054 30.8918 2.58867 30.8043C2.49597 30.7318 2.31745 30.6421 2.19385 30.6006C1.99472 30.5316 1.88142 30.5247 1.00594 30.5109L0.041199 30.4971L0.0171663 30.5765ZM0.683217 31.0874L1.25657 31.0908C1.67543 31.0908 1.87112 31.1046 1.97069 31.1426C2.04622 31.1702 2.13548 31.2186 2.16982 31.2531C2.20758 31.2842 2.25908 31.3601 2.28655 31.4153C2.31401 31.474 2.33804 31.6121 2.33804 31.726C2.33804 31.8399 2.31401 31.9884 2.28655 32.054C2.25908 32.1196 2.20071 32.2093 2.15608 32.2507C2.11145 32.2922 2.01189 32.3543 1.93635 32.3888C1.82649 32.4337 1.68229 32.451 0.683217 32.4682V31.7778V31.0874ZM0.683217 33.0205H1.27374C1.5999 33.0205 1.92262 33.0378 1.98785 33.0551C2.05309 33.0723 2.15952 33.1241 2.22475 33.1655C2.28998 33.2104 2.37581 33.2933 2.41701 33.3485C2.45478 33.4072 2.49941 33.5211 2.51314 33.6074C2.53031 33.6971 2.52687 33.8214 2.50627 33.9008C2.48567 33.9768 2.43418 34.0941 2.39298 34.1563C2.34834 34.2219 2.23505 34.3151 2.14235 34.3634C1.97755 34.4497 1.93979 34.4531 0.683217 34.4704V33.7455V33.0205ZM27.4626 30.5247C27.4626 30.542 27.7304 31.3152 28.06 32.2438C28.3861 33.1759 28.7432 34.177 28.8462 34.4704L29.035 35.0055H29.8693C31.0675 31.6604 31.4246 30.649 31.4383 30.5937L31.4623 30.4971L30.7482 30.5178C29.9311 32.9515 29.6496 33.7904 29.5946 33.9526C29.5397 34.1148 29.4813 34.2495 29.4642 34.2564C29.4504 34.2633 29.2547 33.7351 29.0316 33.0827C28.8119 32.4302 28.5235 31.5879 28.3964 31.2082L28.1664 30.5178C27.624 30.504 27.4626 30.5109 27.4626 30.5247V30.5247ZM7.49822 30.8734L7.22356 30.9942L7.24073 31.7433C6.87337 31.7433 6.78411 31.7605 6.77037 31.7882C6.75664 31.8123 6.73947 31.9262 6.72917 32.0436L6.70858 32.2576L7.22356 32.2783C7.2579 34.4048 7.2579 34.4221 7.34373 34.5878C7.39179 34.6844 7.47419 34.7949 7.53256 34.8363C7.58749 34.8812 7.70422 34.9399 7.79005 34.971C7.88275 35.002 8.05441 35.0227 8.22607 35.0227H8.51103L8.49387 34.5222C8.07844 34.4808 8.03724 34.4635 7.97201 34.3807C7.92738 34.3254 7.88618 34.2184 7.87588 34.1425C7.86215 34.0665 7.85872 33.6177 7.86558 33.1414L7.87588 32.2783L8.51103 32.2611L8.49387 31.7605L7.87588 31.7571C7.85871 30.8734 7.84498 30.7422 7.81408 30.7456C7.79005 30.7491 7.64929 30.8043 7.49822 30.8734V30.8734ZM9.42771 30.8768L9.16335 31.0011V31.7433C8.70329 31.7433 8.67926 31.7502 8.6621 31.8227C8.6518 31.8641 8.64836 31.978 8.65523 32.0712L8.66553 32.2438L9.16335 32.2611C9.18052 34.3185 9.18395 34.3945 9.25262 34.5394C9.29038 34.6257 9.37621 34.7466 9.44144 34.8087C9.50668 34.8708 9.62684 34.9433 9.71267 34.971C9.7985 35.002 9.99076 35.0227 10.1487 35.0227H10.4337L10.4165 34.5222C10.1247 34.4946 10.0079 34.4704 9.97017 34.4497C9.9324 34.429 9.87747 34.3599 9.85 34.2944C9.8088 34.2011 9.7985 33.9975 9.7985 33.2277V32.2783L10.4337 32.2611C10.4337 31.7951 10.4268 31.7778 10.3547 31.7743C10.3135 31.7709 10.1693 31.7674 10.0388 31.764L9.7985 31.7571C9.77104 30.9735 9.75044 30.7629 9.72984 30.756C9.70924 30.7525 9.57534 30.8078 9.42771 30.8768ZM11.8825 31.7019C11.8379 31.7122 11.7246 31.7433 11.625 31.7709C11.5254 31.7985 11.3675 31.871 11.2748 31.9331C11.1787 31.9953 11.0379 32.1161 10.9555 32.2059C10.8765 32.2922 10.7735 32.444 10.7255 32.5373C10.6774 32.6339 10.6156 32.8169 10.5847 32.9446C10.5435 33.1103 10.5332 33.2691 10.547 33.5038C10.5573 33.6902 10.595 33.9146 10.6328 34.0216C10.6671 34.1252 10.7358 34.2805 10.7838 34.3668C10.8353 34.4531 10.9521 34.5981 11.0482 34.6879C11.1443 34.7776 11.3194 34.8985 11.4362 34.9537C11.5666 35.0158 11.7486 35.0676 11.8928 35.0883C12.0233 35.1021 12.2395 35.1056 12.3734 35.0883C12.5039 35.0745 12.6824 35.0365 12.7683 35.0055C12.8541 34.9779 13.0052 34.895 13.1047 34.8225C13.2077 34.7535 13.3245 34.6499 13.3691 34.5912C13.4137 34.536 13.4858 34.4014 13.5339 34.2978C13.5819 34.1942 13.6163 34.0976 13.606 34.0838C13.5991 34.07 13.4618 34.0562 13.3004 34.0562C13.0532 34.0562 13.0052 34.0665 12.9846 34.1183C12.9743 34.1494 12.9228 34.2322 12.8747 34.2978C12.8266 34.3634 12.7065 34.4497 12.6138 34.4946C12.4799 34.5567 12.3803 34.574 12.1674 34.574C11.9477 34.574 11.855 34.5567 11.7211 34.4911C11.625 34.4462 11.498 34.3565 11.4396 34.2944C11.3778 34.2288 11.2988 34.1079 11.2611 34.0216C11.2233 33.9353 11.1787 33.8007 11.1649 33.7213L11.1375 33.5729L13.6781 33.5556C13.6609 33.1828 13.6334 32.9791 13.606 32.8652C13.5785 32.7513 13.5167 32.5787 13.4686 32.4786C13.424 32.3785 13.3107 32.2162 13.2215 32.1196C13.1288 32.0194 12.9743 31.9021 12.8541 31.8434C12.7408 31.7882 12.5623 31.7295 12.4593 31.7088C12.3563 31.6915 12.2018 31.6777 12.1159 31.6777C12.0301 31.6811 11.9271 31.6915 11.8825 31.7019V31.7019ZM11.8344 32.2231C11.8859 32.2059 12.0438 32.199 12.1846 32.2059C12.3631 32.2128 12.4867 32.2369 12.5863 32.2887C12.6687 32.3301 12.7717 32.4164 12.8198 32.4786C12.8644 32.5407 12.9331 32.6719 12.9743 32.772C13.012 32.8721 13.0429 32.9826 13.0429 33.0205C13.0429 33.0896 13.0189 33.0896 11.1546 33.0896L11.1752 32.9791C11.189 32.917 11.2199 32.8169 11.2439 32.7547C11.2714 32.6926 11.3503 32.5787 11.419 32.4993C11.4911 32.4199 11.5907 32.3336 11.6456 32.3025C11.6971 32.2749 11.7829 32.2369 11.8344 32.2231V32.2231ZM17.1113 31.7226C16.998 31.7467 16.8058 31.8192 16.6822 31.8848C16.562 31.9504 16.3903 32.0712 16.3045 32.1575C16.2187 32.2438 16.0985 32.413 16.0367 32.5373C15.9749 32.6615 15.9028 32.879 15.8719 33.0205C15.8342 33.2035 15.8239 33.3554 15.841 33.5384C15.8513 33.6799 15.8891 33.8836 15.9234 33.9871C15.9543 34.0907 16.0299 34.2564 16.0882 34.3496C16.1466 34.4462 16.2633 34.5843 16.3423 34.6637C16.4247 34.7397 16.562 34.8432 16.6478 34.895C16.7337 34.9433 16.895 35.0089 17.0083 35.04C17.1216 35.0711 17.3482 35.0952 17.5233 35.0952C17.7362 35.0952 17.901 35.0745 18.0555 35.0262C18.1791 34.9882 18.3473 34.9088 18.4331 34.8467C18.519 34.7845 18.622 34.6948 18.6666 34.6465C18.7078 34.5981 18.7868 34.4704 18.8417 34.3668C18.8966 34.2633 18.9447 34.139 18.9516 34.0907C18.9653 34.0044 18.9619 34.0044 18.6803 33.9975L18.3988 33.9871C18.1688 34.3392 18.1001 34.4048 17.9525 34.4808C17.7945 34.5602 17.719 34.574 17.5062 34.574C17.3105 34.574 17.2075 34.5533 17.077 34.4946C16.9809 34.4497 16.847 34.3496 16.7749 34.2702C16.7062 34.1908 16.6135 34.0527 16.5723 33.963C16.5071 33.8214 16.4933 33.7386 16.4933 33.4003C16.4933 33.0551 16.5036 32.9826 16.5723 32.8307C16.6169 32.7375 16.6959 32.6028 16.7474 32.5373C16.8023 32.4717 16.9259 32.3716 17.0289 32.3129C17.1937 32.2231 17.2452 32.2128 17.5062 32.2093C17.7362 32.2093 17.8254 32.2266 17.9353 32.2818C18.0108 32.3232 18.1104 32.4026 18.1585 32.4613C18.2065 32.5165 18.2718 32.6132 18.3027 32.6719C18.3645 32.7789 18.3679 32.7789 18.6391 32.7789C18.8245 32.7789 18.9207 32.7651 18.9344 32.7375C18.9447 32.7133 18.9104 32.5925 18.852 32.4682C18.7971 32.3439 18.6872 32.1782 18.6082 32.0988C18.5327 32.016 18.3713 31.9055 18.2512 31.8468C18.1344 31.7916 17.9525 31.7295 17.8495 31.7088C17.7465 31.6915 17.5817 31.6742 17.489 31.6777C17.3929 31.6777 17.2246 31.6984 17.1113 31.7226V31.7226ZM24.225 31.7122C24.1564 31.7295 24.0465 31.7709 23.9847 31.802C23.9229 31.833 23.813 31.9055 23.7409 31.9642C23.6688 32.0229 23.583 32.1161 23.5521 32.1679C23.5212 32.2197 23.4766 32.2611 23.4525 32.2611C23.4251 32.2611 23.4079 32.1851 23.401 32.0125L23.3942 31.7605C22.9238 31.7433 22.8311 31.7536 22.8037 31.7847C22.7693 31.8192 22.7625 32.3405 22.7693 34.0562L22.7762 36.2827L23.4113 36.3C23.4079 34.9502 23.4182 34.5498 23.4285 34.5394C23.4388 34.5291 23.5452 34.6188 23.662 34.7328C23.8165 34.8847 23.9298 34.9641 24.0808 35.0193C24.2525 35.0849 24.3383 35.0952 24.5958 35.0883C24.8705 35.078 24.9357 35.0607 25.1623 34.9502C25.334 34.8639 25.4679 34.7673 25.5674 34.6568C25.6498 34.5636 25.7528 34.4186 25.7975 34.3323C25.8387 34.246 25.9005 34.0907 25.9279 33.9871C25.9588 33.8836 25.9932 33.6971 26.0035 33.5729C26.0172 33.4486 26.0103 33.2277 25.9897 33.0827C25.9691 32.9342 25.9211 32.734 25.8833 32.6339C25.8455 32.5338 25.7666 32.375 25.7048 32.2818C25.643 32.1886 25.5228 32.054 25.437 31.9849C25.3511 31.9159 25.1898 31.8261 25.0765 31.7847C24.9529 31.7364 24.7675 31.6984 24.613 31.6915C24.4722 31.6846 24.2971 31.6915 24.225 31.7122ZM24.1667 32.23C24.2525 32.2128 24.3898 32.2059 24.4757 32.2162C24.5615 32.2266 24.6851 32.2507 24.7503 32.2714C24.8155 32.2922 24.9288 32.3646 25.0044 32.4337C25.0765 32.4993 25.1726 32.6167 25.2138 32.6926C25.2584 32.7685 25.3099 32.917 25.334 33.0205C25.358 33.1241 25.3683 33.3416 25.3614 33.5038C25.3511 33.7455 25.3305 33.8387 25.2378 34.032C25.1692 34.1735 25.0799 34.3047 24.9975 34.3668C24.9288 34.4255 24.7915 34.498 24.6988 34.5291C24.5787 34.5671 24.4585 34.5774 24.304 34.5671C24.1804 34.5567 24.019 34.5187 23.9435 34.4808C23.868 34.4428 23.7547 34.353 23.6929 34.284C23.6311 34.215 23.5521 34.101 23.5178 34.032C23.48 33.9595 23.4319 33.8007 23.4113 33.6764C23.3873 33.5522 23.377 33.3588 23.3907 33.2449C23.401 33.131 23.4354 32.9688 23.4628 32.8825C23.4937 32.7962 23.5658 32.6615 23.6208 32.5821C23.6757 32.4993 23.7856 32.3957 23.8645 32.3474C23.9469 32.3025 24.0808 32.2473 24.1667 32.23V32.23ZM32.5095 31.7226C32.4065 31.7467 32.2588 31.7916 32.1833 31.8261C32.1078 31.8606 31.9704 31.9435 31.8812 32.0125C31.7919 32.085 31.658 32.2266 31.5825 32.3301C31.5104 32.4337 31.4143 32.6132 31.3731 32.7271C31.325 32.8652 31.2952 33.0493 31.2838 33.2794C31.2701 33.4969 31.2804 33.7006 31.3078 33.8318C31.3319 33.9457 31.404 34.139 31.4658 34.2633C31.5241 34.3876 31.6443 34.5567 31.7233 34.6396C31.8057 34.7224 31.9292 34.826 31.9945 34.8674C32.0597 34.9088 32.1833 34.9675 32.2691 35.002C32.355 35.0365 32.5232 35.0745 32.6468 35.0918C32.7704 35.1056 32.9798 35.1056 33.1172 35.0883C33.2545 35.0711 33.457 35.0227 33.5635 34.9813C33.6939 34.933 33.8313 34.8398 33.9617 34.7155C34.0716 34.6085 34.1986 34.4462 34.2467 34.3496C34.2913 34.2564 34.3291 34.1494 34.3291 34.1183C34.3291 34.0631 34.2913 34.0562 34.0373 34.0562H33.7454C33.6012 34.3151 33.5188 34.3979 33.409 34.4635C33.2613 34.5498 33.2167 34.5567 32.9043 34.5567C32.6296 34.5567 32.5335 34.5429 32.4236 34.4877C32.3481 34.4497 32.2348 34.3634 32.173 34.2978C32.1112 34.2322 32.0254 34.1079 31.9876 34.0216C31.9464 33.9353 31.9052 33.8007 31.8949 33.7213L31.8743 33.5729H34.3978C34.3978 33.238 34.3737 33.0413 34.3497 32.917C34.3222 32.7927 34.2536 32.5959 34.1952 32.4786C34.1368 32.3577 34.0235 32.192 33.9411 32.1023C33.8622 32.016 33.7042 31.8986 33.5909 31.8434C33.4776 31.7882 33.2991 31.7295 33.1961 31.7088C33.0931 31.6915 32.9386 31.6742 32.8528 31.6777C32.767 31.6777 32.6125 31.6984 32.5095 31.7226V31.7226ZM32.5438 32.2369C32.6159 32.2093 32.767 32.1955 32.9215 32.2024C33.124 32.2093 33.2099 32.2335 33.3334 32.3025C33.4193 32.3508 33.5188 32.4371 33.56 32.4924C33.6012 32.5442 33.6562 32.6443 33.6836 32.7099C33.7111 32.7754 33.7454 32.8894 33.7798 33.0896H32.8356C32.1043 33.0896 31.8915 33.0792 31.8915 33.0482C31.8915 33.024 31.9121 32.9342 31.943 32.8479C31.9739 32.7616 32.0391 32.6339 32.0906 32.5614C32.1421 32.4855 32.2382 32.3957 32.3035 32.3543C32.3687 32.3129 32.4786 32.2611 32.5438 32.2369V32.2369ZM36.1316 31.7295C36.008 31.7709 35.905 31.8434 35.7608 31.9884C35.6475 32.1023 35.5445 32.192 35.5273 32.192C35.5101 32.192 35.493 32.0954 35.4861 31.978L35.4792 31.7605C35.105 31.7467 34.9642 31.7502 34.9196 31.7605L34.8441 31.7778L34.8612 35.0055L35.4964 35.0227C35.5136 33.2311 35.5273 33.0033 35.5719 32.8652C35.6028 32.772 35.6784 32.6236 35.7436 32.5407C35.8054 32.4579 35.9187 32.3577 35.9942 32.3163C36.0698 32.2783 36.2174 32.2404 36.3204 32.2335C36.468 32.2266 36.5435 32.2404 36.6637 32.3025C36.7804 32.3646 36.8388 32.4233 36.904 32.5545C36.9899 32.7271 36.9899 32.7271 36.9967 33.8767L37.007 35.0227H37.625C37.6078 32.5234 37.6044 32.482 37.5289 32.3129C37.4877 32.2197 37.3881 32.0747 37.3057 31.9953C37.2268 31.9159 37.0826 31.8158 36.9899 31.7743C36.88 31.726 36.7255 31.695 36.5607 31.688C36.3856 31.6777 36.2483 31.6915 36.1316 31.7295ZM42.6032 31.7364C42.4796 31.7674 42.3114 31.8365 42.2256 31.8848C42.1397 31.9366 42.0196 32.0229 41.9543 32.0747C41.8925 32.1299 41.7792 32.268 41.7037 32.3819C41.6282 32.4958 41.5355 32.6995 41.4977 32.8307C41.4359 33.0343 41.4291 33.1345 41.4428 33.4693C41.4531 33.6868 41.484 33.9457 41.5149 34.0389C41.5458 34.1356 41.6351 34.3116 41.7175 34.4359C41.8101 34.574 41.9406 34.7121 42.0711 34.8087C42.1844 34.8916 42.3526 34.9813 42.4487 35.0124C42.5414 35.0434 42.7131 35.078 42.8264 35.0918C42.9397 35.1056 43.1491 35.1021 43.2899 35.0849C43.4547 35.0642 43.6332 35.0158 43.7843 34.9433C43.9422 34.8708 44.0727 34.7776 44.1791 34.6603C44.2649 34.5636 44.3714 34.4083 44.416 34.3151C44.4606 34.2219 44.4881 34.1252 44.4744 34.101C44.4641 34.07 44.3679 34.0562 44.1825 34.0562C43.9319 34.0562 43.9044 34.0631 43.8701 34.1356C43.8495 34.177 43.774 34.2702 43.7053 34.3427C43.6298 34.4221 43.513 34.4946 43.41 34.5291C43.2899 34.5671 43.1526 34.5809 42.9603 34.5705C42.7268 34.5602 42.6582 34.5429 42.514 34.4531C42.4144 34.391 42.2977 34.2771 42.2324 34.177C42.1706 34.0838 42.1054 33.9491 42.0882 33.8836C42.0711 33.818 42.0539 33.7248 42.047 33.6764L42.0367 33.5901L44.5774 33.5729C44.5396 33.1034 44.4984 32.8687 44.4606 32.7444C44.4229 32.6201 44.3302 32.4233 44.2512 32.306C44.1757 32.1851 44.0383 32.0333 43.9491 31.9677C43.8598 31.8986 43.7019 31.8123 43.5989 31.7743C43.4856 31.7329 43.2933 31.6984 43.1182 31.688C42.9054 31.6777 42.7646 31.6915 42.6032 31.7364V31.7364ZM42.6891 32.2404C42.7646 32.2162 42.9122 32.1955 43.0152 32.1955C43.1182 32.192 43.2727 32.2162 43.3585 32.2438C43.4444 32.2749 43.5714 32.3577 43.6401 32.4268C43.7122 32.4958 43.8014 32.6236 43.8358 32.7099C43.8701 32.7962 43.9079 32.9135 43.925 33.0723L42.0539 33.0896V33.0136C42.0539 32.9688 42.0985 32.841 42.1535 32.7271C42.2153 32.5959 42.308 32.4751 42.4007 32.3992C42.4831 32.3336 42.6135 32.2611 42.6891 32.2404V32.2404ZM45.8133 31.7088C45.7378 31.7226 45.597 31.7709 45.5043 31.8123C45.4082 31.8537 45.2743 31.9366 45.1988 31.9953C45.1267 32.0574 45.0305 32.1886 44.979 32.2956C44.9035 32.4579 44.8932 32.52 44.9069 32.7099C44.9207 32.8859 44.9447 32.9653 45.0237 33.0792C45.082 33.1586 45.1816 33.2656 45.2468 33.314C45.3121 33.3657 45.4219 33.4313 45.4872 33.4624C45.5524 33.49 45.8236 33.5729 46.088 33.6454C46.3523 33.7179 46.6064 33.8076 46.6545 33.8421C46.7025 33.8801 46.7609 33.9457 46.7849 33.9906C46.809 34.0389 46.8193 34.1252 46.809 34.1942C46.7987 34.2598 46.7472 34.3599 46.6957 34.4117C46.6442 34.4635 46.5549 34.5222 46.5 34.5394C46.4416 34.5533 46.3352 34.5774 46.2596 34.5912C46.1841 34.6016 46.0365 34.5947 45.9335 34.5705C45.7927 34.5429 45.7103 34.498 45.6176 34.4048C45.549 34.3358 45.4769 34.2322 45.4631 34.1701C45.4357 34.0631 45.4322 34.0631 45.1953 34.0493C45.0614 34.0424 44.9207 34.0389 44.876 34.0458C44.8074 34.0562 44.8039 34.07 44.8211 34.1873C44.8348 34.2564 44.8795 34.3841 44.9207 34.4704C44.9653 34.5567 45.058 34.6844 45.1301 34.7535C45.2056 34.8225 45.3498 34.9192 45.4528 34.9675C45.5558 35.0158 45.7481 35.0676 45.882 35.0849C46.0125 35.1021 46.2219 35.1056 46.3455 35.0918C46.4691 35.0745 46.6545 35.0331 46.7575 34.9917C46.8605 34.9537 47.0218 34.857 47.1145 34.7742C47.2141 34.6879 47.3171 34.5533 47.3617 34.4531C47.4132 34.3461 47.4441 34.215 47.4441 34.1079C47.4441 33.994 47.4167 33.8767 47.3617 33.7627C47.3137 33.6695 47.2244 33.5487 47.1626 33.5004C47.1008 33.452 46.9841 33.3761 46.9017 33.3381C46.8227 33.2967 46.5583 33.2104 46.318 33.1483C46.0777 33.0827 45.8305 33.0067 45.7687 32.9757C45.7069 32.9446 45.6279 32.8756 45.5867 32.8238C45.549 32.772 45.5181 32.6788 45.5181 32.6166C45.5215 32.5373 45.5558 32.4648 45.6314 32.3785C45.6932 32.3129 45.7996 32.2438 45.8648 32.2266C45.9301 32.2059 46.0536 32.192 46.1395 32.192C46.2253 32.1955 46.3558 32.2231 46.4313 32.2576C46.5068 32.2922 46.5961 32.3508 46.627 32.3854C46.6613 32.4233 46.7094 32.5131 46.7369 32.589L46.7849 32.7271C47.3754 32.7444 47.3755 32.7444 47.3755 32.6581C47.3755 32.6097 47.3446 32.4924 47.3068 32.3923C47.269 32.2887 47.1763 32.1472 47.0939 32.0609C47.0115 31.978 46.8879 31.8814 46.8158 31.8434C46.7472 31.8089 46.5995 31.7536 46.4897 31.726C46.3832 31.6984 46.215 31.6777 46.1223 31.6777C46.0262 31.6811 45.8889 31.6949 45.8133 31.7088V31.7088ZM3.70791 31.7847C3.67701 31.8192 3.67015 32.1299 3.68045 33.0033C3.69418 34.1252 3.69761 34.1873 3.77314 34.4014C3.83151 34.5671 3.90017 34.6741 4.02721 34.8018C4.16454 34.9433 4.24693 34.9917 4.4083 35.04C4.52159 35.0711 4.70699 35.0987 4.82029 35.0987C4.93358 35.0987 5.08808 35.0849 5.16361 35.0642C5.23914 35.0434 5.36617 34.9779 5.44514 34.9226C5.52754 34.8639 5.6271 34.7604 5.6683 34.6948C5.71293 34.6292 5.76443 34.574 5.78846 34.574C5.81936 34.574 5.8331 34.643 5.8331 34.7984V35.0227H6.45108V31.7605H5.85026C5.8125 33.7144 5.80906 33.7731 5.7301 33.9699C5.68547 34.0838 5.5859 34.246 5.51037 34.3254C5.40394 34.4393 5.32154 34.4877 5.18078 34.5291C5.06061 34.5636 4.94045 34.5705 4.85462 34.5567C4.77909 34.5429 4.66579 34.5049 4.60399 34.467C4.54219 34.4324 4.4598 34.3358 4.41516 34.2564C4.34306 34.1148 4.33963 34.07 4.32246 32.9342L4.3053 31.7605C3.83151 31.7433 3.73538 31.7536 3.70791 31.7847V31.7847ZM14.1587 31.7674C14.1416 31.7778 14.1313 32.5165 14.1347 33.4072L14.1416 35.0227H14.7596C14.7596 33.7248 14.7733 33.2518 14.7939 33.1345C14.8111 33.0136 14.8557 32.8583 14.8934 32.7893C14.9278 32.7168 15.0067 32.6097 15.072 32.5511C15.1475 32.482 15.2539 32.4337 15.3775 32.4061C15.4805 32.3854 15.5973 32.3612 15.635 32.3577C15.6968 32.3474 15.7037 32.3163 15.714 32.0367L15.7243 31.726C15.4428 31.7674 15.2917 31.8158 15.2059 31.8606C15.12 31.9021 15.0033 32.0022 14.9484 32.0816C14.89 32.1575 14.8248 32.2231 14.8008 32.2266C14.7733 32.2266 14.7596 32.161 14.7596 32.0022C14.7596 31.7985 14.7527 31.7778 14.6806 31.7605C14.6394 31.7536 14.5089 31.7433 14.3956 31.7433C14.2823 31.7433 14.1725 31.7536 14.1587 31.7674V31.7674ZM19.4288 31.7674C19.3876 31.7813 19.3807 31.9608 19.3876 32.9619C19.391 33.9422 19.4013 34.177 19.4494 34.3323C19.4803 34.4359 19.5386 34.5774 19.5798 34.643C19.6245 34.7086 19.7172 34.8156 19.7927 34.8777C19.8648 34.9399 20.0124 35.0158 20.1154 35.0469C20.2184 35.078 20.421 35.0987 20.5618 35.0987C20.7609 35.0952 20.857 35.078 20.9909 35.0124C21.0836 34.9641 21.2209 34.8605 21.293 34.7776C21.3617 34.6948 21.4201 34.6154 21.4201 34.6016C21.4201 34.5878 21.4441 34.574 21.4716 34.574C21.5128 34.574 21.5231 34.6223 21.5231 34.7984V35.0227L22.1582 35.0055V31.7605C21.8904 31.7433 21.7497 31.7467 21.6673 31.7571L21.5231 31.7778C21.5025 33.7282 21.5025 33.7696 21.4201 33.9699C21.3754 34.0838 21.2827 34.2391 21.2141 34.3116C21.1488 34.3841 21.0458 34.4704 20.9909 34.498C20.9325 34.5291 20.7952 34.5533 20.6819 34.5533C20.5343 34.5567 20.4347 34.536 20.3386 34.4842C20.2425 34.4324 20.1738 34.3634 20.1154 34.2426C20.0296 34.0769 20.0296 34.07 20.0124 32.917L19.9953 31.7605C19.597 31.7502 19.4562 31.7571 19.4288 31.7674V31.7674ZM38.243 31.7674C38.2018 31.7813 38.1949 31.9539 38.2018 32.9101C38.2052 33.6454 38.2224 34.1114 38.2499 34.246C38.2739 34.3599 38.3391 34.5325 38.3975 34.6257C38.4593 34.7293 38.5692 34.8432 38.6722 34.9123C38.7649 34.9744 38.9056 35.0434 38.9811 35.0642C39.0567 35.0849 39.2352 35.1021 39.376 35.0987C39.5888 35.0952 39.6678 35.078 39.8189 34.9986C39.9253 34.9468 40.0695 34.8294 40.145 34.7397C40.224 34.6499 40.2961 34.574 40.3098 34.574C40.3235 34.574 40.3407 34.6706 40.3441 34.7914L40.3545 35.0055L40.9896 35.0227V31.7778C40.6016 31.7467 40.4574 31.7467 40.4128 31.7571L40.3373 31.7778C40.3201 33.7317 40.3132 33.8111 40.2446 33.9871C40.2034 34.0907 40.1141 34.2357 40.0455 34.3082C39.9802 34.3772 39.8772 34.4601 39.8223 34.4877C39.7639 34.5153 39.6609 34.5498 39.5888 34.5602C39.5202 34.5705 39.3966 34.5636 39.3142 34.5429C39.2352 34.5222 39.1185 34.4601 39.0567 34.4083C38.9949 34.353 38.9228 34.246 38.8953 34.1735C38.8576 34.07 38.8438 33.7696 38.8267 32.8997L38.8095 31.7605C38.4112 31.7536 38.2705 31.7605 38.243 31.7674V31.7674Z" fill="white"/>
</svg>
