<svg width="72" height="45" viewBox="0 0 72 45" fill="none" xmlns="http://www.w3.org/2000/svg">
<g clip-path="url(#clip0_2015_1083)">
<path d="M2.73972 22.8942C2.7408 21.3109 3.25291 19.7749 4.19211 18.5381C5.1313 17.3013 6.44184 16.4371 7.90886 16.0872C9.37588 15.7373 10.9123 15.9224 12.2663 16.6122C13.6203 17.302 14.7114 18.4555 15.3608 19.8837C16.0102 21.3119 16.1794 22.9299 15.8405 24.4726C15.5017 26.0152 14.675 27.3909 13.4959 28.3741C12.3168 29.3573 10.8554 29.8896 9.35118 29.8838C7.84697 29.8781 6.38926 29.3345 5.21704 28.3423L3.26505 30.3969C5.05378 32.0186 7.35669 32.8725 9.71609 32.7889C12.0755 32.7053 14.3187 31.6904 15.9997 29.9458C17.6808 28.2012 18.6768 25.8547 18.7897 23.3727C18.9026 20.8906 18.1241 18.4547 16.609 16.549C15.0939 14.6434 12.9531 13.4076 10.6121 13.0872C8.27105 12.7667 5.90118 13.3852 3.97347 14.8196C2.04576 16.254 0.701342 18.3993 0.207413 20.8292C-0.286516 23.2591 0.106205 25.7957 1.30752 27.9348L3.32588 25.8045C2.9322 24.8907 2.73219 23.8976 2.73972 22.8942Z" fill="white"/>
<path d="M9.37533 17.353C8.33305 17.3542 7.31451 17.6806 6.4485 18.2911C5.58249 18.9016 4.9079 19.7687 4.51005 20.7827C4.1122 21.7967 4.00895 22.9121 4.21337 23.9879C4.41778 25.0637 4.92066 26.0515 5.65844 26.8265C6.39621 27.6014 7.33573 28.1287 8.35819 28.3416C9.38065 28.5545 10.4401 28.4435 11.4026 28.0226C12.3652 27.6017 13.1875 26.8898 13.7656 25.977C14.3438 25.0641 14.6518 23.9913 14.6507 22.8942C14.6507 22.1656 14.5142 21.4441 14.2489 20.771C13.9837 20.098 13.5949 19.4866 13.1049 18.9719C12.6149 18.4572 12.0333 18.0493 11.3933 17.7715C10.7533 17.4937 10.0676 17.3515 9.37533 17.353ZM9.37533 18.6743C9.76139 18.6743 10.1388 18.7948 10.4598 19.0206C10.7808 19.2464 11.031 19.5672 11.1787 19.9427C11.3265 20.3181 11.3651 20.7313 11.2898 21.1298C11.2145 21.5284 11.0286 21.8945 10.7556 22.1818C10.4826 22.4692 10.1348 22.6649 9.75614 22.7442C9.37749 22.8234 8.98501 22.7827 8.62833 22.6272C8.27165 22.4717 7.96679 22.2084 7.7523 21.8705C7.53781 21.5326 7.42333 21.1353 7.42333 20.729C7.42333 20.184 7.62899 19.6614 7.99506 19.2761C8.36113 18.8908 8.85763 18.6743 9.37533 18.6743ZM9.43062 27.4808C9.41425 27.4924 9.39501 27.4985 9.37533 27.4985C9.35564 27.4985 9.3364 27.4924 9.32003 27.4808L5.39945 23.3541C5.39711 23.3445 5.39711 23.3345 5.39945 23.325C5.39686 23.3135 5.39686 23.3015 5.39945 23.29V23.2609H13.3014C13.3121 23.2615 13.3224 23.2644 13.332 23.2694C13.3415 23.2744 13.3499 23.2814 13.3567 23.29C13.3631 23.3089 13.3631 23.3294 13.3567 23.3482C13.3612 23.3674 13.3612 23.3873 13.3567 23.4064L9.43062 27.4808Z" fill="white"/>
<path d="M33.4238 28.1588C34.0036 27.5238 34.4583 26.7744 34.7616 25.9536C35.0668 25.1352 35.2134 24.2607 35.1927 23.3818C35.2292 21.6002 34.5931 19.8761 33.4238 18.5874C32.812 17.932 32.078 17.4169 31.268 17.0745C30.4562 16.7378 29.5859 16.5851 28.7142 16.6265C27.8425 16.5851 26.9722 16.7378 26.1604 17.0745C24.9677 17.5674 23.9497 18.4377 23.2467 19.5653C22.5438 20.6929 22.1905 22.0223 22.2357 23.3702C22.215 24.2491 22.3616 25.1235 22.6668 25.9419C22.9701 26.7627 23.4248 27.5122 24.0045 28.1472C24.6138 28.8054 25.3483 29.3209 26.1599 29.6598C26.9715 29.9987 27.8419 30.1534 28.7142 30.1138C29.5865 30.1534 30.4569 29.9987 31.2685 29.6598C32.0801 29.3209 32.8146 28.8054 33.4238 28.1472V28.1588ZM28.7142 27.4838C28.2218 27.5062 27.7308 27.4128 27.277 27.2104C26.8229 27.0054 26.4199 26.6928 26.0996 26.2969C25.4505 25.486 25.1168 24.4467 25.1654 23.3876C25.119 22.3288 25.4525 21.2904 26.0996 20.4784C26.4193 20.0837 26.8222 19.773 27.2761 19.5709C27.73 19.3689 28.2224 19.2812 28.7142 19.3147C29.2059 19.2872 29.6971 19.3767 30.1514 19.5765C30.6025 19.7816 31.0047 20.0896 31.3288 20.4784C31.96 21.2998 32.2913 22.3316 32.263 23.3876C32.2953 24.4442 31.9635 25.4775 31.3288 26.2969C31.0068 26.6895 30.6042 26.9999 30.1514 27.2046C29.698 27.409 29.207 27.5044 28.7142 27.4838ZM40.024 30.0323C42.2904 30.0323 43.6778 28.8279 43.6778 27.0067C43.6778 25.7848 42.8818 24.9295 41.5662 24.563L39.5873 23.9811C39.123 23.8531 38.8797 23.5796 38.8797 23.1956C38.8797 22.8116 39.2612 22.4683 39.8305 22.4683C40.5436 22.4683 40.9748 22.8349 40.9748 23.4342H43.5894C43.5894 21.741 42.2738 20.6995 39.8692 20.6995C37.7023 20.6995 36.2983 21.8283 36.2983 23.4865C36.2983 24.7433 37.0279 25.6568 38.3933 26.0234L40.4386 26.5703C40.6116 26.5881 40.7714 26.6754 40.8847 26.8142C40.998 26.953 41.056 27.1324 41.0466 27.3151C41.0466 27.8271 40.6486 28.1355 40.0793 28.1355C39.2667 28.1355 38.7084 27.6991 38.7084 27.0998H36.0716C36.0762 27.5066 36.1748 27.906 36.3591 28.2635C36.5479 28.6297 36.8194 28.9414 37.1496 29.1712C38.0011 29.7579 39.0075 30.0452 40.024 29.9916V30.0323ZM49.5815 27.5886C48.8187 27.5886 48.4207 27.2802 48.4207 26.0932V23.184H50.3056V20.9729H48.4207V18.3721H45.7729V20.9788H44.4573V23.184H45.7729V26.6751C45.729 27.5338 45.9671 28.3823 46.4472 29.0781C46.7512 29.3735 47.11 29.5994 47.501 29.7416C47.892 29.8838 48.3068 29.9392 48.7192 29.9043C49.3117 29.9116 49.9037 29.8629 50.488 29.7589V27.5478C50.1838 27.5886 49.8771 27.6061 49.5704 27.6002L49.5815 27.5886ZM55.2972 29.9974C55.8227 30.0157 56.3436 29.8889 56.8081 29.6297C57.2726 29.3704 57.6645 28.9877 57.945 28.5195V29.7589H60.5762V20.9729H57.945V22.2297C57.6844 21.7545 57.3048 21.3638 56.8476 21.1001C56.3904 20.8364 55.8733 20.7099 55.3525 20.7344C54.81 20.7155 54.2702 20.8228 53.7715 21.0486C53.2745 21.2757 52.8324 21.6178 52.478 22.0494C51.7268 22.9695 51.3322 24.1535 51.3725 25.3659C51.3131 26.5801 51.6878 27.7737 52.4228 28.7115C52.7721 29.1344 53.2064 29.4703 53.6941 29.6949C54.1936 29.9168 54.7334 30.0202 55.2751 29.9974H55.2972ZM56.0545 27.67C54.8605 27.67 54.0645 26.7216 54.0645 25.3426C54.0645 23.9637 54.866 23.0443 56.0545 23.0443C57.243 23.0443 58.0445 24.0277 58.0445 25.3426C58.0445 26.6576 57.3204 27.6817 56.0545 27.6817V27.67ZM68.7352 21.4733V22.2181C68.4712 21.7414 68.0891 21.3492 67.6296 21.0835C67.1689 20.8222 66.6487 20.6994 66.1261 20.7286C65.5842 20.7042 65.044 20.8094 64.5462 21.0361C64.0484 21.2629 63.6058 21.6053 63.2516 22.0377C62.5033 22.9596 62.109 24.1424 62.1461 25.3543C62.0974 26.5763 62.4838 27.7735 63.2295 28.7115C63.5859 29.1379 64.0277 29.4757 64.523 29.7007C65.0225 29.9227 65.5623 30.026 66.104 30.0033C66.6295 30.0215 67.1503 29.8947 67.6148 29.6355C68.0794 29.3762 68.4713 28.9935 68.7518 28.5254V29.7589H71.383V16.9989H68.7352V21.4733ZM66.8613 27.67C65.6673 27.67 64.8713 26.7216 64.8713 25.3426C64.8713 23.9637 65.6673 23.0443 66.8613 23.0443C68.0553 23.0443 68.8513 24.0277 68.8513 25.3426C68.8513 26.6576 68.1271 27.6817 66.8613 27.6817V27.67Z" fill="white"/>
</g>
<defs>
<clipPath id="clip0_2015_1083">
<rect width="71.39" height="19.7828" fill="white" transform="translate(0 13)"/>
</clipPath>
</defs>
</svg>
