<svg width="54" height="45" viewBox="0 0 54 45" fill="none" xmlns="http://www.w3.org/2000/svg">
<g clip-path="url(#clip0_26_663)">
<path d="M29.9761 18.1628C30.5071 18.3593 30.9634 18.6305 31.3443 18.9771C31.7252 19.3238 32.0141 19.7252 32.2106 20.1809C32.407 20.6372 32.5052 21.1311 32.5052 21.6622C32.5052 22.1933 32.407 22.6958 32.2106 23.1692C32.0141 23.6426 31.728 24.0674 31.3529 24.4426C30.9777 24.8178 30.5214 25.1125 29.9846 25.326C29.4478 25.5396 28.8442 25.6464 28.1744 25.6464H25.1427V29.9943H22.7346V17.8682H28.1915C28.85 17.8682 29.4444 17.9664 29.9755 18.1628H29.9761ZM25.1433 19.7737V23.7579H27.8803C28.3309 23.7579 28.7175 23.6654 29.0407 23.481C29.3639 23.2965 29.6152 23.0481 29.7945 22.7363C29.9732 22.4245 30.0629 22.0779 30.0629 21.697C30.0629 21.3396 29.9732 21.0129 29.7945 20.7183C29.6152 20.4236 29.3639 20.1929 29.0407 20.0256C28.7175 19.8583 28.3303 19.7743 27.8803 19.7743H25.1433V19.7737Z" fill="#583CEA"/>
<path d="M39.3618 29.9942V24.6761C39.3618 24.0987 39.2059 23.6567 38.8941 23.3507C38.5823 23.0446 38.1431 22.8915 37.5772 22.8915C37.1615 22.8915 36.8035 22.9726 36.5031 23.1342C36.2027 23.2958 35.972 23.5357 35.8104 23.8532C35.6488 24.1707 35.5677 24.5607 35.5677 25.0227V29.9942H33.2635V17.3484H35.5677V22.3548C35.7522 22.0544 35.9863 21.8003 36.2695 21.5924C36.5522 21.3845 36.8674 21.2286 37.2135 21.1247C37.5601 21.0208 37.941 20.9688 38.3567 20.9688C39.1191 20.9688 39.7455 21.119 40.236 21.4194C40.7266 21.7198 41.0875 22.1241 41.3187 22.6317C41.5494 23.1399 41.6654 23.7001 41.6654 24.3123V29.9942H39.3612H39.3618Z" fill="#583CEA"/>
<path d="M44.7821 21.1768H42.4779V29.9943H44.7821V21.1768Z" fill="#583CEA"/>
<path d="M50.5337 28.0659L51.9961 29.9938H54.7845L52.2714 26.7217C52.2714 26.7217 52.2713 26.7217 52.2702 26.7228L50.5331 28.0654L50.5337 28.0659Z" fill="#583CEA"/>
<path d="M48.5954 27.7975L47.7149 26.6594L45.1526 29.9943H47.595L48.9957 28.1476C48.8427 28.0591 48.7051 27.9403 48.5949 27.7975H48.5954Z" fill="#583CEA"/>
<path d="M51.1972 23.0498L52.0378 24.1365L54.2826 21.1768H51.9264L50.7689 22.6838C50.9334 22.7745 51.0801 22.8985 51.1966 23.0504L51.1972 23.0498Z" fill="#583CEA"/>
<path d="M48.0263 23.7322L48.7287 23.1891L44.7439 18.0366C45.0369 17.5792 45.0277 16.9682 44.6766 16.5136C44.2294 15.9357 43.3991 15.8295 42.8212 16.2766C42.2433 16.7237 42.1371 17.554 42.5842 18.1319C42.936 18.5865 43.5253 18.7493 44.0421 18.5797L48.0269 23.7322H48.0263Z" fill="#583CEA"/>
<path d="M52.4091 25.7435C52.4428 25.4774 52.3714 25.2147 52.207 25.0028L50.8827 23.2902C50.6954 23.047 50.3984 22.9014 50.0901 22.9014C49.8685 22.9014 49.6509 22.9762 49.4756 23.1115L47.7642 24.4358C47.3274 24.7738 47.2468 25.4037 47.5838 25.84L48.9097 27.5543C49.1016 27.8015 49.3906 27.9431 49.7023 27.9431C49.9233 27.9431 50.1409 27.8689 50.3151 27.7341L52.0282 26.4087C52.2401 26.2454 52.3754 26.0084 52.4091 25.7429V25.7435ZM51.4241 25.6281L49.7115 26.9529C49.7115 26.9529 49.7058 26.9558 49.7023 26.9558C49.6983 26.9558 49.6938 26.9535 49.6909 26.9501L48.3661 25.2375C48.361 25.2307 48.3621 25.2215 48.369 25.217L50.0815 23.8921C50.0815 23.8921 50.0872 23.8893 50.0901 23.8893C50.0947 23.8893 50.0987 23.891 50.1021 23.895L51.4269 25.6076C51.432 25.6138 51.4309 25.623 51.4246 25.6281H51.4241Z" fill="#583CEA"/>
<path d="M50.4771 25.2696C50.4531 25.1782 50.4091 25.0977 50.3515 25.0309C50.3286 25.0846 50.2818 25.1274 50.2207 25.1434C50.1162 25.1714 50.0083 25.1086 49.9809 25.0041C49.9643 24.9424 49.9792 24.8801 50.0157 24.8333C49.9278 24.815 49.8341 24.8162 49.741 24.8407C49.419 24.9258 49.2271 25.2553 49.3122 25.5768C49.3973 25.8989 49.7267 26.0908 50.0482 26.0057C50.3697 25.9206 50.5616 25.5911 50.4771 25.2696ZM49.7776 25.7807C49.7193 25.7961 49.6599 25.7613 49.6445 25.703C49.6291 25.6453 49.6639 25.5854 49.7222 25.57C49.7799 25.5545 49.8398 25.5894 49.8552 25.6476C49.8706 25.7059 49.8358 25.7653 49.7776 25.7807Z" fill="#583CEA"/>
<path d="M6.09307 17.8477C6.90281 17.8477 7.58578 17.9836 8.14141 18.2554C8.69704 18.5272 9.11904 18.8892 9.40856 19.3404C9.69751 19.7915 9.84256 20.2895 9.84256 20.8331C9.84256 21.2037 9.76718 21.5766 9.61699 21.9529C9.46624 22.3292 9.23496 22.6736 8.9226 22.9859C8.61024 23.2983 8.18766 23.5239 7.65545 23.6632C8.32643 23.7443 8.86493 23.9384 9.2698 24.2445C9.67467 24.5512 9.97276 24.9189 10.1641 25.3466C10.3548 25.7749 10.4507 26.2089 10.4507 26.6486C10.4507 27.0883 10.3554 27.528 10.1641 27.9335C9.97333 28.3389 9.7095 28.6975 9.3743 29.0099C9.03852 29.3223 8.62794 29.5655 8.14198 29.7391C7.65602 29.9127 7.1061 29.9995 6.4928 29.9995H0V17.8477H6.09307ZM6.49223 22.7084C6.78118 22.5582 7.00446 22.3526 7.16035 22.0922C7.31682 21.8318 7.39448 21.5515 7.39448 21.2505C7.39448 20.9496 7.32196 20.6778 7.17748 20.4345C7.03244 20.1912 6.81544 19.9976 6.52649 19.8532C6.23697 19.7087 5.87835 19.6362 5.45007 19.6362H2.4121V22.9345H5.45007C5.85494 22.9345 6.20214 22.8592 6.49166 22.709L6.49223 22.7084ZM2.41267 24.6528V28.2116H5.97143C6.39972 28.2116 6.7669 28.1333 7.07355 27.9774C7.3802 27.821 7.60862 27.6074 7.75938 27.335C7.90957 27.0632 7.98494 26.7594 7.98494 26.4236C7.98494 26.0879 7.90671 25.8046 7.75081 25.5385C7.59435 25.2724 7.36593 25.0583 7.06499 24.8961C6.76405 24.7339 6.39915 24.6528 5.97143 24.6528H2.41267Z" fill="#0D0B19"/>
<path d="M11.4455 19.462C11.1851 19.1959 11.0549 18.8778 11.0549 18.5072C11.0549 18.1366 11.1851 17.8214 11.4455 17.561C11.7059 17.3006 12.0269 17.1704 12.4089 17.1704C12.7909 17.1704 13.1004 17.3006 13.3722 17.561C13.6441 17.8214 13.78 18.1366 13.78 18.5072C13.78 18.8778 13.6441 19.1959 13.3722 19.462C13.1004 19.7281 12.7789 19.8612 12.4089 19.8612C12.0388 19.8612 11.7059 19.7281 11.4455 19.462ZM13.5721 21.1632V29.9995H11.2634V21.1632H13.5721Z" fill="#0D0B19"/>
<path d="M21.9226 29.9994H14.3882V28.385L19.0234 22.9167H14.6137V21.1636H21.7313V22.8128L17.1309 28.2291H21.922V29.9999L21.9226 29.9994Z" fill="#0D0B19"/>
</g>
<defs>
<clipPath id="clip0_26_663">
<rect width="54" height="45" fill="white"/>
</clipPath>
</defs>
</svg>
