<svg width="94" height="45" viewBox="0 0 94 45" fill="none" xmlns="http://www.w3.org/2000/svg">
<g clip-path="url(#clip0_2015_959)">
<path d="M8.53071 21.2008C8.45571 20.9461 8.35035 20.7212 8.21463 20.5258C8.07891 20.327 7.91283 20.1596 7.71639 20.0236C7.52352 19.884 7.30208 19.7777 7.05207 19.7044C6.80563 19.6312 6.5324 19.5945 6.23239 19.5945C5.67165 19.5945 5.17877 19.7306 4.75375 20.0026C4.3323 20.2747 4.00371 20.6706 3.76799 21.1903C3.53226 21.7065 3.4144 22.3379 3.4144 23.0843C3.4144 23.8308 3.53048 24.4656 3.76263 24.9888C3.99478 25.512 4.32337 25.9114 4.74839 26.1869C5.17341 26.459 5.67522 26.595 6.25382 26.595C6.77884 26.595 7.22708 26.5043 7.59853 26.323C7.97355 26.1381 8.25927 25.8782 8.45571 25.5434C8.65572 25.2085 8.75572 24.8126 8.75572 24.3557L9.22718 24.4237H6.39847V22.7181H10.9898V24.0679C10.9898 25.0097 10.7862 25.8189 10.379 26.4956C9.97185 27.1688 9.41111 27.6885 8.69679 28.0548C7.98247 28.4175 7.16458 28.5989 6.24311 28.5989C5.21448 28.5989 4.31087 28.3774 3.53226 27.9344C2.75365 27.488 2.14648 26.8549 1.71075 26.0352C1.27858 25.212 1.0625 24.2354 1.0625 23.1052C1.0625 22.2367 1.19108 21.4624 1.44823 20.7822C1.70896 20.0986 2.07326 19.5195 2.54114 19.0452C3.00902 18.5708 3.55369 18.2098 4.17515 17.9621C4.79661 17.7145 5.46985 17.5907 6.19489 17.5907C6.81635 17.5907 7.39495 17.6796 7.93069 17.8575C8.46643 18.0319 8.94145 18.2795 9.35575 18.6004C9.77363 18.9213 10.1147 19.3033 10.379 19.7463C10.6433 20.1858 10.813 20.6706 10.888 21.2008H8.53071Z" fill="white"/>
<path d="M12.2179 28.4524V20.416H14.4305V21.8182H14.5163C14.6663 21.3194 14.9181 20.9427 15.2717 20.688C15.6252 20.4299 16.0324 20.3009 16.4931 20.3009C16.6074 20.3009 16.7307 20.3078 16.8628 20.3218C16.995 20.3357 17.111 20.3549 17.211 20.3793V22.3571C17.1039 22.3257 16.9557 22.2978 16.7664 22.2733C16.5771 22.2489 16.4039 22.2367 16.2467 22.2367C15.911 22.2367 15.611 22.3082 15.3467 22.4512C15.0859 22.5908 14.8788 22.7861 14.7252 23.0372C14.5752 23.2884 14.5002 23.5779 14.5002 23.9058V28.4524H12.2179Z" fill="white"/>
<path d="M21.2545 28.6094C20.4224 28.6094 19.7027 28.4367 19.0955 28.0914C18.4919 27.7426 18.0258 27.2578 17.6972 26.6369C17.3686 26.0125 17.2043 25.2888 17.2043 24.4656C17.2043 23.6354 17.3686 22.9099 17.6972 22.289C18.0258 21.6647 18.4919 21.1798 19.0955 20.8345C19.7027 20.4857 20.4224 20.3113 21.2545 20.3113C22.0867 20.3113 22.8046 20.4857 23.4082 20.8345C24.0154 21.1798 24.4833 21.6647 24.8118 22.289C25.1404 22.9099 25.3047 23.6354 25.3047 24.4656C25.3047 25.2888 25.1404 26.0125 24.8118 26.6369C24.4833 27.2578 24.0154 27.7426 23.4082 28.0914C22.8046 28.4367 22.0867 28.6094 21.2545 28.6094ZM21.2653 26.8828C21.6438 26.8828 21.9599 26.7782 22.2135 26.5689C22.4671 26.3561 22.6582 26.0666 22.7868 25.7003C22.9189 25.3341 22.985 24.9173 22.985 24.4499C22.985 23.9825 22.9189 23.5657 22.7868 23.1994C22.6582 22.8332 22.4671 22.5437 22.2135 22.3309C21.9599 22.1181 21.6438 22.0117 21.2653 22.0117C20.8831 22.0117 20.5616 22.1181 20.3009 22.3309C20.0438 22.5437 19.8491 22.8332 19.717 23.1994C19.5884 23.5657 19.5241 23.9825 19.5241 24.4499C19.5241 24.9173 19.5884 25.3341 19.717 25.7003C19.8491 26.0666 20.0438 26.3561 20.3009 26.5689C20.5616 26.7782 20.8831 26.8828 21.2653 26.8828Z" fill="white"/>
<path d="M27.7343 28.4524L25.4949 20.416H27.804L29.079 25.8155H29.154L30.4827 20.416H32.7488L34.0989 25.7841H34.1685L35.4222 20.416H37.7259L35.4918 28.4524H33.0756L31.6613 23.3982H31.5595L30.1451 28.4524H27.7343Z" fill="white"/>
<path d="M39.3746 28.4524H36.8888L40.6764 17.7372H43.6659L47.4482 28.4524H44.9624L42.214 20.1858H42.1283L39.3746 28.4524ZM39.2192 24.2406H45.0909V26.009H39.2192V24.2406Z" fill="white"/>
<path d="M52.5324 20.416V22.0902H47.4536V20.416H52.5324ZM48.6161 28.4524V19.8352C48.6161 19.2527 48.7322 18.7696 48.9643 18.3859C49.2001 18.0022 49.5215 17.7145 49.9287 17.5226C50.3358 17.3308 50.7984 17.2349 51.3162 17.2349C51.6663 17.2349 51.9859 17.261 52.2752 17.3134C52.5681 17.3657 52.786 17.4128 52.9288 17.4546L52.5217 19.1289C52.4324 19.101 52.3216 19.0748 52.1895 19.0504C52.0609 19.026 51.9288 19.0138 51.793 19.0138C51.4573 19.0138 51.2234 19.0905 51.0912 19.244C50.9591 19.394 50.893 19.605 50.893 19.8771V28.4524H48.6161Z" fill="white"/>
<path d="M57.8804 20.416V22.0902H52.8016V20.416H57.8804ZM53.9641 28.4524V19.8352C53.9641 19.2527 54.0802 18.7696 54.3124 18.3859C54.5481 18.0022 54.8695 17.7145 55.2767 17.5226C55.6839 17.3308 56.1464 17.2349 56.6643 17.2349C57.0143 17.2349 57.3339 17.261 57.6232 17.3134C57.9161 17.3657 58.134 17.4128 58.2768 17.4546L57.8697 19.1289C57.7804 19.101 57.6697 19.0748 57.5375 19.0504C57.4089 19.026 57.2768 19.0138 57.1411 19.0138C56.8053 19.0138 56.5714 19.0905 56.4393 19.244C56.3071 19.394 56.241 19.605 56.241 19.8771V28.4524H53.9641Z" fill="white"/>
<path d="M58.8032 28.4524V20.416H61.0855V28.4524H58.8032ZM59.9497 19.38C59.6104 19.38 59.3193 19.2701 59.0764 19.0504C58.8371 18.8272 58.7175 18.5603 58.7175 18.2499C58.7175 17.9429 58.8371 17.6796 59.0764 17.4599C59.3193 17.2366 59.6104 17.125 59.9497 17.125C60.289 17.125 60.5783 17.2366 60.8176 17.4599C61.0605 17.6796 61.1819 17.9429 61.1819 18.2499C61.1819 18.5603 61.0605 18.8272 60.8176 19.0504C60.5783 19.2701 60.289 19.38 59.9497 19.38Z" fill="white"/>
<path d="M64.7245 17.7372V28.4524H62.4422V17.7372H64.7245Z" fill="white"/>
<path d="M66.0812 28.4524V20.416H68.3635V28.4524H66.0812ZM67.2277 19.38C66.8884 19.38 66.5973 19.2701 66.3545 19.0504C66.1152 18.8272 65.9955 18.5603 65.9955 18.2499C65.9955 17.9429 66.1152 17.6796 66.3545 17.4599C66.5973 17.2366 66.8884 17.125 67.2277 17.125C67.567 17.125 67.8563 17.2366 68.0956 17.4599C68.3385 17.6796 68.4599 17.9429 68.4599 18.2499C68.4599 18.5603 68.3385 18.8272 68.0956 19.0504C67.8563 19.2701 67.567 19.38 67.2277 19.38Z" fill="white"/>
<path d="M72.0668 28.6041C71.5418 28.6041 71.0739 28.5152 70.6631 28.3373C70.2524 28.1559 69.9274 27.8891 69.6881 27.5368C69.4524 27.181 69.3345 26.738 69.3345 26.2079C69.3345 25.7614 69.4184 25.3864 69.5863 25.083C69.7542 24.7795 69.9828 24.5353 70.2721 24.3505C70.5614 24.1656 70.8899 24.0261 71.2578 23.9319C71.6293 23.8377 72.0186 23.7715 72.4257 23.7331C72.9043 23.6843 73.2901 23.6389 73.5829 23.5971C73.8758 23.5517 74.0883 23.4854 74.2205 23.3982C74.3526 23.311 74.4187 23.182 74.4187 23.0111V22.9797C74.4187 22.6483 74.3115 22.3919 74.0972 22.2106C73.8865 22.0292 73.5865 21.9385 73.1972 21.9385C72.7865 21.9385 72.4597 22.0274 72.2168 22.2053C71.9739 22.3797 71.8132 22.5995 71.7346 22.8646L69.6238 22.6971C69.731 22.2088 69.9417 21.7868 70.256 21.431C70.5703 21.0717 70.9757 20.7962 71.4721 20.6043C71.9721 20.409 72.5507 20.3113 73.2079 20.3113C73.6651 20.3113 74.1026 20.3636 74.5205 20.4683C74.9419 20.5729 75.3152 20.7351 75.6402 20.9549C75.9688 21.1746 76.2277 21.4571 76.417 21.8025C76.6063 22.1443 76.7009 22.5541 76.7009 23.032V28.4524H74.5365V27.338H74.4723C74.3401 27.5891 74.1633 27.8106 73.9419 28.0025C73.7204 28.1908 73.4544 28.3391 73.1436 28.4472C72.8329 28.5518 72.4739 28.6041 72.0668 28.6041ZM72.7204 27.0659C73.0561 27.0659 73.3526 27.0014 73.6097 26.8723C73.8669 26.7398 74.0687 26.5619 74.2151 26.3387C74.3615 26.1154 74.4348 25.8625 74.4348 25.58V24.7272C74.3633 24.7725 74.2651 24.8144 74.1401 24.8528C74.0187 24.8876 73.8812 24.9208 73.7276 24.9522C73.574 24.9801 73.4204 25.0062 73.2668 25.0306C73.1133 25.0516 72.974 25.0708 72.849 25.0882C72.5811 25.1266 72.3472 25.1876 72.1471 25.2713C71.9471 25.355 71.7918 25.4684 71.6811 25.6114C71.5703 25.7509 71.515 25.9253 71.515 26.1346C71.515 26.4381 71.6275 26.67 71.8525 26.8305C72.0811 26.9874 72.3704 27.0659 72.7204 27.0659Z" fill="white"/>
<path d="M82.3771 20.416V22.0902H77.4215V20.416H82.3771ZM78.5466 18.4906H80.8288V25.9829C80.8288 26.1887 80.861 26.3491 80.9252 26.4642C80.9895 26.5758 81.0788 26.6543 81.1931 26.6997C81.311 26.745 81.4467 26.7677 81.6003 26.7677C81.7074 26.7677 81.8146 26.759 81.9217 26.7415C82.0289 26.7206 82.111 26.7049 82.1682 26.6944L82.5271 28.353C82.4128 28.3879 82.2521 28.428 82.0449 28.4733C81.8378 28.5222 81.586 28.5518 81.2895 28.5623C80.7395 28.5832 80.2574 28.5117 79.8431 28.3478C79.4323 28.1838 79.1127 27.9292 78.8841 27.5839C78.6555 27.2386 78.543 26.8026 78.5466 26.2759V18.4906Z" fill="white"/>
<path d="M87.0541 28.6094C86.2076 28.6094 85.479 28.4419 84.8683 28.1071C84.2611 27.7688 83.7932 27.2909 83.4647 26.6735C83.1361 26.0526 82.9718 25.3184 82.9718 24.4708C82.9718 23.6441 83.1361 22.9186 83.4647 22.2943C83.7932 21.6699 84.2558 21.1833 84.8522 20.8345C85.4523 20.4857 86.1559 20.3113 86.963 20.3113C87.5059 20.3113 88.0113 20.3968 88.4792 20.5677C88.9506 20.7351 89.3614 20.988 89.7114 21.3263C90.065 21.6647 90.34 22.0902 90.5364 22.603C90.7329 23.1122 90.8311 23.7087 90.8311 24.3923V25.0045H83.8825V23.6232H88.6828C88.6828 23.3023 88.6113 23.018 88.4685 22.7704C88.3256 22.5227 88.1274 22.3292 87.8738 22.1896C87.6238 22.0466 87.3327 21.9751 87.0005 21.9751C86.6541 21.9751 86.3469 22.0536 86.0791 22.2106C85.8148 22.364 85.6076 22.5716 85.4576 22.8332C85.3076 23.0913 85.2308 23.3791 85.2272 23.6965V25.0097C85.2272 25.4074 85.3022 25.7509 85.4522 26.0404C85.6058 26.3299 85.8219 26.5532 86.1005 26.7101C86.3791 26.8671 86.7095 26.9456 87.0916 26.9456C87.3452 26.9456 87.5773 26.9107 87.7881 26.8409C87.9988 26.7712 88.1792 26.6665 88.3292 26.527C88.4792 26.3875 88.5935 26.2166 88.672 26.0143L90.7829 26.1503C90.6757 26.6456 90.4561 27.0781 90.1239 27.4479C89.7953 27.8141 89.3703 28.1001 88.8488 28.3059C88.331 28.5082 87.7327 28.6094 87.0541 28.6094Z" fill="white"/>
<path d="M93.183 28.5884C92.8294 28.5884 92.5258 28.4664 92.2722 28.2222C92.0222 27.9746 91.8972 27.6781 91.8972 27.3328C91.8972 26.9909 92.0222 26.6979 92.2722 26.4538C92.5258 26.2096 92.8294 26.0875 93.183 26.0875C93.5258 26.0875 93.8259 26.2096 94.083 26.4538C94.3402 26.6979 94.4687 26.9909 94.4687 27.3328C94.4687 27.563 94.408 27.774 94.2866 27.9658C94.1687 28.1542 94.0134 28.3059 93.8205 28.421C93.6276 28.5326 93.4151 28.5884 93.183 28.5884Z" fill="white"/>
</g>
<defs>
<clipPath id="clip0_2015_959">
<rect width="94" height="45" fill="white"/>
</clipPath>
</defs>
</svg>
