<svg width="42" height="45" viewBox="0 0 42 45" fill="none" xmlns="http://www.w3.org/2000/svg">
<g clip-path="url(#clip0_44_13082)">
<path d="M15.8604 24.7285C15.2091 27.7951 12.8324 30.1884 9.83704 30.9061C10.8929 30.3502 12.2816 29.3324 12.7919 27.6725C13.5202 25.3092 15.0433 24.4036 15.8604 24.7272V24.7285Z" fill="#050E04"/>
<path d="M13.468 24.8784C13.468 24.8784 11.7087 25.7527 11.4489 27.6188C11.1892 29.4849 10.1686 30.1113 9.78354 29.5554C9.39852 28.9995 11.0156 25.4513 13.468 24.8784Z" fill="#050E04"/>
<path d="M7.81441 15.0027C7.72958 15.0053 7.64474 15.0079 7.5586 15.0131C7.39024 15.1632 7.31584 15.355 7.34586 15.5717C7.41764 16.0871 7.87445 16.3272 8.14462 16.6404C11.5263 16.7148 14.2828 19.4382 14.3624 22.8533C14.3676 23.053 14.3624 23.2513 14.3481 23.447C14.5256 23.3805 14.7083 23.2748 14.8923 23.1143C15.3335 22.728 15.7107 22.7241 16.0004 22.8481V22.8141C15.896 18.3969 12.2324 14.8996 7.81441 15.0027Z" fill="#050E04"/>
<path d="M8.12495 17.5083C8.38338 17.8071 8.44341 18.1843 7.62769 19.0494C7.62769 19.0494 11.5654 19.1421 12.1083 23.1405C12.1083 23.1405 12.7374 23.6651 13.48 23.3845C13.4918 23.2148 13.497 23.0439 13.4931 22.8716C13.4252 19.9238 11.0446 17.5722 8.12495 17.5083Z" fill="#050E04"/>
<path d="M1.63688 23.1482C1.63166 22.9485 1.63688 22.7502 1.65124 22.5544C1.47374 22.621 1.29101 22.7267 1.10699 22.8872C0.66584 23.2735 0.288648 23.2774 -0.00109863 23.1521V23.1873C0.102009 27.6046 3.76691 31.1019 8.18489 30.9988C8.26972 30.9962 8.35325 30.9936 8.43809 30.9896C8.60776 30.8396 8.68346 30.6464 8.65344 30.4298C8.58166 29.9144 8.12615 29.6743 7.85468 29.3624C4.473 29.288 1.71519 26.5646 1.63558 23.1495L1.63688 23.1482Z" fill="#050E04"/>
<path d="M8.37267 26.9496C8.37267 26.9496 4.43369 26.8556 3.89205 22.8585C3.89205 22.8585 3.26165 22.3352 2.52032 22.6145C2.50857 22.7842 2.50335 22.9551 2.50727 23.1274C2.57514 26.0752 4.95575 28.4268 7.87541 28.4907C7.61568 28.1919 7.55434 27.8147 8.37267 26.9496Z" fill="#050E04"/>
<path d="M3.32056 18.6317C1.96711 18.9149 0.977796 19.8296 0.317383 20.6896C1.17618 18.1371 3.2801 16.1249 5.95438 15.4346C6.03661 15.4476 6.10317 15.4737 6.15407 15.5142C6.9933 16.1745 6.09143 18.0536 3.31926 18.633L3.32056 18.6317Z" fill="#050E04"/>
<path d="M6.05343 18.2375C6.05343 18.2375 5.05107 19.8727 3.24472 19.9496C1.43968 20.0266 0.744026 20.9636 1.23738 21.3916C1.73203 21.8196 5.27033 20.5773 6.05213 18.2375H6.05343Z" fill="#050E04"/>
</g>
<path d="M25.4521 28.1579C24.7196 28.1579 24.0837 28.0439 23.5442 27.8158C23.0091 27.5833 22.5902 27.2522 22.2876 26.8224C21.985 26.3925 21.8161 25.8816 21.781 25.2895H23.2679C23.2986 25.6447 23.4126 25.9408 23.61 26.1776C23.8117 26.4101 24.0727 26.5833 24.3929 26.6974C24.7131 26.8114 25.0639 26.8684 25.4455 26.8684C25.8622 26.8684 26.235 26.8026 26.5639 26.6711C26.8929 26.5395 27.1495 26.3553 27.3337 26.1184C27.5223 25.8772 27.6166 25.5965 27.6166 25.2763C27.6166 24.9868 27.5332 24.75 27.3666 24.5658C27.2043 24.3816 26.9828 24.2303 26.7021 24.1118C26.4214 23.989 26.1056 23.8816 25.7547 23.7895L24.6034 23.4737C23.8139 23.2632 23.1911 22.9496 22.735 22.5329C22.2788 22.1118 22.0508 21.5614 22.0508 20.8816C22.0508 20.3158 22.2021 19.8224 22.5047 19.4013C22.8117 18.9803 23.2262 18.6535 23.7481 18.4211C24.2745 18.1842 24.8644 18.0658 25.5179 18.0658C26.1845 18.0658 26.7701 18.1842 27.2745 18.4211C27.7832 18.6535 28.1845 18.9737 28.4784 19.3816C28.7766 19.7851 28.9323 20.2478 28.9455 20.7697H27.5113C27.4587 20.318 27.2481 19.9671 26.8797 19.7171C26.5157 19.4671 26.0508 19.3421 25.485 19.3421C25.0902 19.3421 24.7438 19.4057 24.4455 19.5329C24.1516 19.6557 23.9236 19.8268 23.7613 20.0461C23.6034 20.2654 23.5245 20.5175 23.5245 20.8026C23.5245 21.1096 23.6188 21.3596 23.8073 21.5526C24.0003 21.7456 24.2328 21.8991 24.5047 22.0132C24.781 22.1228 25.0464 22.2127 25.3008 22.2829L26.2547 22.5395C26.5661 22.6184 26.8863 22.7237 27.2152 22.8553C27.5442 22.9868 27.849 23.1601 28.1297 23.375C28.4148 23.5855 28.6429 23.8487 28.8139 24.1645C28.9894 24.4759 29.0771 24.8531 29.0771 25.2961C29.0771 25.8443 28.9345 26.3355 28.6495 26.7697C28.3644 27.1996 27.9521 27.5395 27.4126 27.7895C26.8731 28.0351 26.2196 28.1579 25.4521 28.1579ZM30.0345 28V20.6447H31.4555V28H30.0345ZM30.7516 19.5132C30.5016 19.5132 30.2888 19.4298 30.1134 19.2632C29.938 19.0965 29.8502 18.8969 29.8502 18.6645C29.8502 18.4276 29.938 18.2259 30.1134 18.0592C30.2888 17.8925 30.5016 17.8092 30.7516 17.8092C30.9972 17.8092 31.2077 17.8925 31.3831 18.0592C31.563 18.2259 31.6529 18.4276 31.6529 18.6645C31.6529 18.8969 31.563 19.0965 31.3831 19.2632C31.2077 19.4298 30.9972 19.5132 30.7516 19.5132ZM36.1892 20.6447V21.7961H32.0379V20.6447H36.1892ZM33.1695 28V19.7895C33.1695 19.3333 33.2703 18.9539 33.4721 18.6513C33.6782 18.3443 33.9458 18.1162 34.2747 17.9671C34.6081 17.8136 34.9655 17.7368 35.3471 17.7368C35.6409 17.7368 35.8909 17.761 36.0971 17.8092C36.3032 17.8575 36.4545 17.8991 36.551 17.9342L36.2089 19.0921C36.1431 19.0702 36.0576 19.0461 35.9523 19.0197C35.8515 18.9934 35.7243 18.9803 35.5708 18.9803C35.2243 18.9803 34.9743 19.068 34.8208 19.2434C34.6673 19.4145 34.5905 19.6645 34.5905 19.9934V28H33.1695ZM40.3834 20.6447V21.7961H36.3702V20.6447H40.3834ZM37.4426 18.8947H38.8702V25.8421C38.8702 26.1798 38.9404 26.4276 39.0808 26.5855C39.2211 26.739 39.447 26.8158 39.7584 26.8158C39.833 26.8158 39.9119 26.8114 39.9952 26.8026C40.083 26.7939 40.1707 26.7807 40.2584 26.7632L40.5281 27.9474C40.3834 27.9956 40.2255 28.0329 40.0545 28.0592C39.8834 28.0855 39.7123 28.0987 39.5413 28.0987C38.9053 28.0987 38.3966 27.9211 38.015 27.5658C37.6334 27.2061 37.4426 26.7281 37.4426 26.1316V18.8947Z" fill="#050E04"/>
<defs>
<clipPath id="clip0_44_13082">
<rect width="16" height="16" fill="white" transform="translate(0 15)"/>
</clipPath>
</defs>
</svg>
