<svg width="45" height="45" viewBox="0 0 45 45" fill="none" xmlns="http://www.w3.org/2000/svg">
<path d="M6.36601 20.7171V18.3678H4.13271V15.6821H1.50529V18.3678H0V20.7171H1.50529V25.2943C1.50529 27.0755 2.44678 28.206 4.37903 28.206H6.37149V25.8788H5.22747C4.36261 25.8788 4.13818 25.559 4.13818 24.7042V20.7115H6.36601V20.7171Z" fill="#FE0070"/>
<path d="M13.8869 18.373V20.7389H12.4035C10.8435 20.7389 10.3563 21.6653 10.3563 23.1598V28.2113H7.70703V18.373H10.3563V19.5091C10.6738 18.9025 11.462 18.373 12.5513 18.373H13.8869Z" fill="#FE0070"/>
<path d="M15.0311 14.3032H17.6969V16.8565H15.0311V14.3032ZM15.0694 18.3731H17.6969V28.2113H15.0694V18.3731Z" fill="#FE0070"/>
<path d="M20.9537 23.9983L19.2185 23.1436V32.0002H21.928V25.2667C21.928 25.1178 21.9828 24.9689 22.0758 24.8531L23.4333 23.2925C23.4607 23.2594 23.4333 23.2042 23.395 23.2208L21.3861 24.0094C21.2985 24.048 21.2 24.059 21.107 24.048C21.0632 24.0369 21.0084 24.0204 20.9537 23.9983Z" fill="#FE0070"/>
<path d="M24.9878 18.1858C23.4825 18.1858 22.4206 18.8696 21.9334 19.7189V18.3733H19.2239V21.8972L27.0459 20.5681C27.1335 20.5516 27.2156 20.5902 27.2649 20.6619C27.3141 20.7336 27.3196 20.8273 27.2758 20.9045L23.1978 28.0737C23.7179 28.2942 24.3309 28.4211 24.9932 28.4211C27.8122 28.4211 29.6131 26.1656 29.6131 23.3145C29.6076 20.0222 27.6535 18.1858 24.9878 18.1858Z" fill="#FE0070"/>
<path d="M33.4229 28.2114H30.7955V14H33.4229V28.2114Z" fill="#FE0070"/>
<path d="M39.8875 25.829L42.3124 18.3731H45L40.922 29.783C40.2433 31.6966 38.8912 31.9944 37.4078 31.9944H35.0213V29.6451H37.4078C38.0483 29.6451 38.3822 29.3418 38.3822 28.7352C38.3822 28.5091 38.3274 28.2996 38.2125 27.9962L34.5122 18.3621H37.3312L39.8875 25.829Z" fill="#FE0070"/>
<path opacity="0.55" d="M27.2758 20.8989L25.984 28.3217C25.6665 28.3879 25.3381 28.421 24.9878 28.421C24.3255 28.421 23.7124 28.2941 23.1924 28.0736L27.2758 20.8989Z" fill="url(#paint0_linear_26_541)"/>
<path opacity="0.25" d="M27.265 20.6618L23.4497 23.2537C23.4443 23.2317 23.4224 23.2151 23.4005 23.2261L21.3916 24.0148C21.304 24.0534 21.2055 24.0644 21.1124 24.0534C21.0577 24.0478 21.0029 24.0313 20.9482 24.0037L19.213 23.1489V21.9026L27.0351 20.5736C27.1336 20.5515 27.2157 20.5901 27.265 20.6618Z" fill="url(#paint1_linear_26_541)"/>
<defs>
<linearGradient id="paint0_linear_26_541" x1="23.5222" y1="30.5855" x2="29.3188" y2="17.808" gradientUnits="userSpaceOnUse">
<stop stop-color="#E44269" stop-opacity="0"/>
<stop offset="0.2611" stop-color="#C6436C" stop-opacity="0.3549"/>
<stop offset="0.5622" stop-color="#AA4570" stop-opacity="0.7642"/>
<stop offset="0.7357" stop-color="#9F4571"/>
</linearGradient>
<linearGradient id="paint1_linear_26_541" x1="19.7585" y1="23.8424" x2="27.1602" y2="18.4751" gradientUnits="userSpaceOnUse">
<stop stop-color="white" stop-opacity="0"/>
<stop offset="1" stop-color="#FE0070"/>
</linearGradient>
</defs>
</svg>
