<svg width="106" height="45" viewBox="0 0 106 45" fill="none" xmlns="http://www.w3.org/2000/svg">
<path d="M60.028 28.5677H29.2066L31.6617 31.0001L60.028 28.5677Z" fill="white"/>
<path d="M32.0608 18.729V19.0955C31.5371 18.729 30.9125 18.5291 30.2735 18.5243C28.1114 18.5243 26.473 20.4758 26.473 22.8701C26.473 25.2643 28.1114 27.2159 30.2735 27.2159C30.9125 27.2111 31.5371 27.0112 32.0608 26.6447V27.0159H33.9586V18.729H32.0608ZM30.2735 25.2215C29.2068 25.2215 28.4285 24.1838 28.4285 22.8701C28.4285 21.5563 29.2068 20.5234 30.2735 20.5234C31.3401 20.5234 32.0896 21.5611 32.0896 22.8701C32.0896 24.179 31.3545 25.2215 30.2735 25.2215Z" fill="white"/>
<path d="M47.2627 18.7308V23.5764C47.3444 24.4284 46.715 25.1805 45.8598 25.2662C44.9998 25.3471 44.2406 24.7235 44.1542 23.8763C44.1445 23.7763 44.1445 23.6764 44.1542 23.5812V18.7308H42.2563V23.5764C42.2563 25.5756 43.6353 27.1987 45.6532 27.1987C46.2297 27.1939 46.7919 27.013 47.2627 26.6894V26.9988H49.1846V18.7308H47.2627Z" fill="white"/>
<path d="M64.9531 27.0159V22.1466C64.8714 21.2945 65.5008 20.5425 66.356 20.4568C67.2161 20.3759 67.9752 20.9994 68.0617 21.8467C68.0713 21.9467 68.0713 22.0466 68.0617 22.1418V27.0112H69.9595V22.1466C69.9595 20.1474 68.5806 18.5243 66.5626 18.5243C65.9861 18.5338 65.4239 18.7099 64.9531 19.0384V18.729H63.0312V27.0159H64.9531Z" fill="white"/>
<path d="M21.0005 27.0143V23.8013H22.4035L24.8346 27.0143H27.3234L24.383 23.1397C26.0021 21.9973 26.3817 19.7649 25.2286 18.1609C24.5511 17.2232 23.4605 16.6615 22.2978 16.6615H19.0162V27.0143H21.0005ZM21.0005 18.6273H22.2978C23.1914 18.6273 23.9169 19.3461 23.9169 20.2314C23.9169 21.1168 23.1914 21.8355 22.2978 21.8355H21.0005V18.6273Z" fill="white"/>
<path d="M54.2775 25.0554C54.0901 25.1839 53.8691 25.2553 53.6433 25.2553C53.1292 25.2363 52.7256 24.8079 52.7448 24.2986C52.7448 24.2795 52.7448 24.2605 52.7496 24.2414V20.7191H54.3736V18.7533H52.7496V16.6875H50.8518V18.7533H49.8477V20.7191H50.8518V24.2938C50.7942 25.8693 52.0385 27.1926 53.6289 27.2497C53.6433 27.2497 53.6577 27.2497 53.6721 27.2497C54.3255 27.2307 54.9645 27.0498 55.5315 26.7261L54.2775 25.0554Z" fill="white"/>
<path d="M38.6769 22.611L41.9344 18.7269H39.2727L36.9953 21.6114V15.9757H35.0399V27.0091H36.9953V23.6058L39.7964 27.0091H42.4533L38.6769 22.611Z" fill="white"/>
<path d="M58.6642 18.5192C56.4685 18.5192 54.8926 20.4231 54.8926 22.8697C54.8926 25.4353 56.8673 27.225 58.8516 27.225C60.2209 27.2202 61.4893 26.5205 62.2148 25.3686L60.538 24.4167C59.2407 26.3206 57.0787 25.3686 56.8288 23.4647H62.2964C62.7673 20.4755 60.8214 18.5192 58.6642 18.5192ZM60.3218 21.8035H56.9009C57.2997 19.8615 59.9518 19.7663 60.3218 21.8035Z" fill="white"/>
<path d="M76.0708 26.3013L73.0151 18.7569C72.9719 18.6569 72.9383 18.5522 72.919 18.4475C72.895 18.338 72.8854 18.2238 72.8854 18.1095C72.8758 17.8097 73.0007 17.5146 73.2217 17.3099C73.4523 17.0957 73.755 16.9814 74.0673 16.991C74.2931 16.9814 74.5142 17.0624 74.6775 17.2147C74.8745 17.4289 75.0234 17.6859 75.1147 17.962L77.1903 23.512L79.1938 18.0429C79.2755 17.7383 79.4292 17.4574 79.6455 17.2242C79.8328 17.0624 80.0731 16.9814 80.3229 16.991C80.6208 16.9767 80.9139 17.0766 81.1349 17.2718C81.3367 17.4717 81.4472 17.7478 81.4328 18.0286C81.4328 18.1619 81.4183 18.2904 81.3943 18.4189C81.3655 18.5522 81.3271 18.6807 81.279 18.8092L78.3194 26.2156C78.2185 26.4917 78.0551 26.7392 77.8389 26.9344C77.6419 27.0819 77.3969 27.1581 77.1519 27.1486C76.9213 27.1581 76.6954 27.0915 76.5081 26.9534C76.3111 26.7773 76.1573 26.5536 76.0708 26.3013Z" fill="white"/>
<path d="M84.128 25.6462C84.1568 26.0412 84.0655 26.4363 83.8733 26.7838C83.6956 27.0313 83.4025 27.1741 83.095 27.1503C82.7827 27.1693 82.48 27.0313 82.2974 26.779C82.1004 26.4363 82.0092 26.0412 82.038 25.6462V21.4813C82.0092 21.0862 82.1004 20.6911 82.2974 20.3484C82.48 20.0961 82.7827 19.9581 83.095 19.9819C83.4025 19.9581 83.6956 20.1009 83.8733 20.3484C84.0655 20.6959 84.1568 21.0862 84.128 21.4813V25.6462Z" fill="white"/>
<path d="M87.2944 20.038C87.5299 19.8285 87.8037 19.6667 88.0968 19.562C88.4043 19.4525 88.731 19.4001 89.0577 19.4049C89.9994 19.3954 90.8883 19.8095 91.484 20.533C92.1567 21.3184 92.5074 22.3275 92.4738 23.3556C92.4978 24.3599 92.1327 25.331 91.46 26.0783C90.8739 26.7922 89.9898 27.2111 89.0577 27.2111C88.7118 27.2159 88.3659 27.1492 88.044 27.016C87.7413 26.8922 87.4674 26.7018 87.2512 26.459C87.1359 26.6732 86.9725 26.8541 86.7707 26.9922C86.5978 27.1112 86.396 27.173 86.1846 27.1683C85.8531 27.1873 85.536 27.0398 85.3438 26.7732C85.1372 26.4019 85.0459 25.9831 85.0747 25.5642V18.5957C85.0459 18.1721 85.142 17.7532 85.3438 17.3819C85.7185 16.925 86.4008 16.8536 86.8668 17.2296C86.9245 17.2772 86.9773 17.3296 87.0206 17.3819C87.232 17.7484 87.3281 18.1721 87.2992 18.5957L87.2944 20.038ZM87.1215 23.3175C87.0975 23.8411 87.2512 24.3552 87.5683 24.774C88.0488 25.4023 88.952 25.5261 89.5862 25.0501C89.6919 24.9692 89.7832 24.8788 89.8649 24.774C90.1772 24.3647 90.3357 23.8601 90.3165 23.3461C90.3405 22.8225 90.182 22.3037 89.8697 21.88C89.3892 21.2517 88.486 21.1232 87.8518 21.5992C87.7461 21.6801 87.65 21.7753 87.5683 21.88C87.2608 22.2941 87.1023 22.8035 87.1215 23.3175Z" fill="white"/>
<path d="M94.9579 23.9223C95.0396 24.3079 95.2654 24.6506 95.5969 24.8743C95.9332 25.1218 96.3464 25.2408 96.7644 25.2218C97.2497 25.2027 97.7253 25.0837 98.1578 24.8648C98.4605 24.6982 98.7824 24.5792 99.1187 24.5078C99.3541 24.4983 99.5847 24.5839 99.7577 24.7458C99.9259 24.9029 100.017 25.1266 100.008 25.355C100.008 25.831 99.676 26.2547 99.0082 26.6307C98.2923 27.0258 97.4803 27.2209 96.6587 27.2019C95.6257 27.2257 94.6312 26.8259 93.9105 26.0928C93.1754 25.3503 92.7766 24.3459 92.8103 23.3083C92.7766 22.2706 93.161 21.2663 93.8817 20.5095C95.2942 19.0529 97.6293 19.0053 99.0995 20.4048C99.1091 20.4143 99.1235 20.4286 99.1331 20.4381C99.8154 21.1235 100.19 22.0564 100.171 23.0179C100.2 23.2702 100.118 23.5225 99.9451 23.7129C99.6856 23.87 99.3781 23.9414 99.0706 23.908L94.9579 23.9223ZM94.8666 22.6371H98.1385C98.1241 22.223 97.9512 21.828 97.6581 21.5281C97.365 21.2568 96.9758 21.1092 96.5771 21.1187C96.1735 21.1092 95.7795 21.2473 95.4672 21.5043C95.1549 21.8042 94.9435 22.1945 94.8666 22.6229V22.6371Z" fill="white"/>
<path d="M100.776 25.5347V21.108C100.747 20.6891 100.843 20.2703 101.05 19.9037C101.237 19.6372 101.559 19.4896 101.886 19.5134C102.097 19.5087 102.304 19.5706 102.482 19.6848C102.684 19.8181 102.847 19.9989 102.962 20.2131C103.169 19.9894 103.419 19.799 103.693 19.661C103.933 19.5372 104.202 19.4706 104.471 19.4706C104.769 19.4658 105.057 19.5848 105.268 19.7943C105.485 19.9942 105.605 20.275 105.6 20.5654C105.6 21.0033 105.192 21.3746 104.375 21.6697C104.082 21.7744 103.861 21.8601 103.717 21.9267C103.491 22.0124 103.294 22.1695 103.159 22.3694C103.044 22.6454 102.996 22.9453 103.02 23.2452V25.5347C103.049 25.9536 102.953 26.3772 102.746 26.7437C102.554 27.0103 102.237 27.1578 101.905 27.1388C101.574 27.1626 101.257 27.015 101.069 26.7437C100.853 26.3772 100.752 25.9583 100.776 25.5347Z" fill="white"/>
<path d="M81.9708 18.1381C81.966 17.8287 82.091 17.5384 82.3168 17.3242C82.533 17.1052 82.8309 16.9815 83.1431 16.9862C83.4506 16.9815 83.7437 17.1052 83.9551 17.3242C84.1761 17.5384 84.3011 17.8335 84.2963 18.1381C84.3011 18.7664 83.787 19.2757 83.1528 19.2805C83.148 19.2805 83.148 19.2805 83.1431 19.2805C82.8309 19.29 82.5282 19.171 82.312 18.9473C82.0909 18.7379 81.966 18.4427 81.9708 18.1381Z" fill="white"/>
<path d="M13.3759 16.5347C12.982 16.1729 11.3868 15.0258 7.83625 15.0115C7.83625 15.0115 3.64665 14.7592 1.59029 16.6156C0.451602 17.7437 0.0528209 19.3906 0.00957958 21.4326C-0.0336617 23.4746 -0.0865106 27.3016 3.63704 28.3392V29.9243C3.63704 29.9243 3.63704 30.5668 4.04063 30.6954C4.55472 30.8572 4.85741 30.3669 5.35228 29.8433C5.62134 29.553 5.99609 29.1294 6.27476 28.8057C7.86027 28.9532 9.4554 28.8342 11.0025 28.463C11.5166 28.2964 14.4281 27.9299 14.9038 24.0982C15.4083 20.1522 14.6828 17.658 13.3759 16.5347ZM13.8084 23.8173C13.4048 27.0112 11.0457 27.2111 10.6133 27.3492C9.28243 27.6728 7.90832 27.7918 6.54382 27.6966C6.54382 27.6966 4.92948 29.6006 4.425 30.1242C4.36734 30.1908 4.28086 30.2241 4.19438 30.2194C4.10789 30.1956 4.08387 30.0956 4.08387 29.9481C4.08387 29.8005 4.08387 27.3158 4.08387 27.3158C0.932062 26.4448 1.11463 23.189 1.15307 21.485C1.19151 19.7809 1.51342 18.3815 2.47433 17.4391C4.19918 15.8921 7.75938 16.1206 7.75938 16.1206C10.7622 16.1206 12.2036 17.0297 12.5351 17.3296C13.6546 18.272 14.2167 20.5187 13.8084 23.8173Z" fill="white"/>
<path d="M9.29669 21.5401C9.19099 21.5401 9.0997 21.4544 9.0949 21.3497C9.14294 20.8261 8.75377 20.3644 8.22527 20.3168C8.17722 20.312 8.13398 20.312 8.08594 20.312C7.97543 20.3073 7.88895 20.2121 7.89856 20.1026C7.90336 19.9931 7.99945 19.9074 8.10996 19.9122C8.85467 19.8884 9.47927 20.4691 9.50329 21.2069C9.50329 21.2497 9.50329 21.2973 9.49848 21.3402C9.50329 21.4497 9.41681 21.5448 9.3063 21.5496L9.29669 21.5401Z" fill="white"/>
<path d="M10.3297 21.8835C10.2192 21.8787 10.1279 21.7883 10.1327 21.6788C10.1712 21.06 9.95498 20.4555 9.53217 19.9986C9.07093 19.5273 8.44633 19.256 7.7833 19.2418C7.6728 19.2465 7.57671 19.1656 7.5671 19.0561C7.56229 18.9466 7.64397 18.8514 7.75447 18.8419C7.77369 18.8419 7.79291 18.8419 7.80733 18.8467C8.57125 18.8657 9.29675 19.1846 9.82525 19.7273C10.3057 20.2556 10.5604 20.9553 10.5219 21.6693C10.5315 21.7788 10.4547 21.874 10.3441 21.8835C10.3441 21.8835 10.3345 21.8835 10.3297 21.8835Z" fill="white"/>
<path d="M11.3819 22.2939C11.2714 22.2939 11.1801 22.2034 11.1801 22.094C11.2378 21.0325 10.8438 19.9996 10.0991 19.238C9.38799 18.5526 8.43188 18.1766 7.43733 18.1956C7.32682 18.1956 7.23553 18.1052 7.23553 17.9957C7.23553 17.8862 7.32682 17.7958 7.43733 17.7958C8.53277 17.7767 9.59459 18.1956 10.3777 18.9524C11.1945 19.7854 11.6269 20.9135 11.5789 22.0749C11.5789 22.1844 11.4876 22.2748 11.3771 22.2748L11.3819 22.2939Z" fill="white"/>
<path d="M8.13866 24.0061C8.30201 24.0204 8.45576 23.9585 8.57107 23.8443L8.86895 23.473C9.08036 23.2445 9.42629 23.1969 9.69054 23.3635C9.94518 23.5111 10.1902 23.6682 10.4304 23.8395C10.6563 24.0061 11.1127 24.3821 11.1127 24.3869C11.3337 24.563 11.3866 24.8819 11.2328 25.1199C11.0695 25.4008 10.8629 25.653 10.6178 25.872C10.4401 26.0291 10.2238 26.1338 9.98842 26.1719C9.95959 26.1766 9.92596 26.1766 9.89713 26.1719C9.80585 26.1719 9.71937 26.1623 9.63288 26.1338C9.03231 25.9291 8.45576 25.6626 7.91284 25.3436C7.40355 25.0676 6.9231 24.7487 6.47146 24.3917C6.24565 24.2156 6.02944 24.0252 5.82285 23.8205H5.79882C5.59703 23.6158 5.40485 23.3969 5.22227 23.1731C4.86193 22.7257 4.54002 22.245 4.26136 21.7452C3.93945 21.2073 3.67039 20.6361 3.4686 20.0411C3.43977 19.9554 3.42536 19.865 3.42536 19.7746C3.42055 19.746 3.42055 19.7127 3.42536 19.6841C3.46379 19.4509 3.56949 19.2367 3.72805 19.0653C3.91062 18.7893 4.14124 18.5418 4.40549 18.3371C4.65053 18.1848 4.96763 18.2371 5.1502 18.4561C5.1502 18.4561 5.53457 18.9321 5.69793 19.132C5.86128 19.3319 6.06307 19.6794 6.17838 19.865C6.34174 20.1316 6.2937 20.4743 6.06308 20.6837L5.68832 20.9741C5.57301 21.0883 5.51055 21.2454 5.52496 21.4072C5.89492 22.6543 6.87985 23.6348 8.13866 24.0061Z" fill="white"/>
</svg>
