<svg width="54" height="45" viewBox="0 0 54 45" fill="none" xmlns="http://www.w3.org/2000/svg">
<g clip-path="url(#clip0_2016_1262)">
<path d="M29.9762 18.1628C30.5073 18.3593 30.9635 18.6305 31.3444 18.9771C31.7253 19.3238 32.0142 19.7252 32.2107 20.1809C32.4071 20.6372 32.5053 21.1311 32.5053 21.6622C32.5053 22.1933 32.4071 22.6958 32.2107 23.1692C32.0142 23.6426 31.7282 24.0674 31.353 24.4426C30.9778 24.8178 30.5215 25.1125 29.9847 25.326C29.448 25.5396 28.8444 25.6464 28.1745 25.6464H25.1428V29.9943H22.7347V17.8682H28.1917C28.8501 17.8682 29.4445 17.9664 29.9756 18.1628H29.9762ZM25.1434 19.7737V23.7579H27.8804C28.331 23.7579 28.7176 23.6654 29.0408 23.481C29.364 23.2965 29.6153 23.0481 29.7946 22.7363C29.9733 22.4245 30.063 22.0779 30.063 21.697C30.063 21.3396 29.9733 21.0129 29.7946 20.7183C29.6153 20.4236 29.364 20.1929 29.0408 20.0256C28.7176 19.8583 28.3304 19.7743 27.8804 19.7743H25.1434V19.7737Z" fill="white"/>
<path d="M39.3618 29.9942V24.6761C39.3618 24.0987 39.2059 23.6567 38.8941 23.3507C38.5823 23.0446 38.1431 22.8915 37.5772 22.8915C37.1615 22.8915 36.8035 22.9726 36.5031 23.1342C36.2027 23.2958 35.972 23.5357 35.8104 23.8532C35.6488 24.1707 35.5677 24.5607 35.5677 25.0227V29.9942H33.2635V17.3484H35.5677V22.3548C35.7522 22.0544 35.9863 21.8003 36.2695 21.5924C36.5522 21.3845 36.8674 21.2286 37.2135 21.1247C37.5601 21.0208 37.941 20.9688 38.3567 20.9688C39.1191 20.9688 39.7455 21.119 40.236 21.4194C40.7266 21.7198 41.0875 22.1241 41.3187 22.6317C41.5494 23.1399 41.6654 23.7001 41.6654 24.3123V29.9942H39.3612H39.3618Z" fill="white"/>
<path d="M44.7821 21.1768H42.478V29.9943H44.7821V21.1768Z" fill="white"/>
<path d="M50.5337 28.0659L51.9962 29.9938H54.7846L52.2714 26.7217C52.2714 26.7217 52.2714 26.7217 52.2703 26.7228L50.5331 28.0654L50.5337 28.0659Z" fill="white"/>
<path d="M48.5956 27.7975L47.715 26.6594L45.1527 29.9943H47.5951L48.9959 28.1476C48.8428 28.0591 48.7052 27.9403 48.595 27.7975H48.5956Z" fill="white"/>
<path d="M51.1973 23.0498L52.0379 24.1365L54.2826 21.1768H51.9265L50.769 22.6838C50.9334 22.7745 51.0802 22.8985 51.1967 23.0504L51.1973 23.0498Z" fill="white"/>
<path d="M48.0264 23.7322L48.7288 23.1891L44.744 18.0366C45.0369 17.5792 45.0278 16.9682 44.6766 16.5136C44.2295 15.9357 43.3992 15.8295 42.8213 16.2766C42.2434 16.7237 42.1372 17.554 42.5843 18.1319C42.9361 18.5865 43.5254 18.7493 44.0422 18.5797L48.0269 23.7322H48.0264Z" fill="white"/>
<path d="M52.4092 25.7435C52.4429 25.4774 52.3715 25.2147 52.207 25.0028L50.8828 23.2902C50.6955 23.047 50.3985 22.9014 50.0901 22.9014C49.8686 22.9014 49.651 22.9762 49.4757 23.1115L47.7643 24.4358C47.3274 24.7738 47.2469 25.4037 47.5838 25.84L48.9098 27.5543C49.1017 27.8015 49.3906 27.9431 49.7024 27.9431C49.9234 27.9431 50.141 27.8689 50.3151 27.7341L52.0283 26.4087C52.2401 26.2454 52.3755 26.0084 52.4092 25.7429V25.7435ZM51.4241 25.6281L49.7115 26.9529C49.7115 26.9529 49.7058 26.9558 49.7024 26.9558C49.6984 26.9558 49.6938 26.9535 49.691 26.9501L48.3662 25.2375C48.361 25.2307 48.3622 25.2215 48.369 25.217L50.0816 23.8921C50.0816 23.8921 50.0873 23.8893 50.0901 23.8893C50.0947 23.8893 50.0987 23.891 50.1021 23.895L51.427 25.6076C51.4321 25.6138 51.431 25.623 51.4247 25.6281H51.4241Z" fill="white"/>
<path d="M50.4772 25.2696C50.4532 25.1782 50.4093 25.0977 50.3516 25.0309C50.3288 25.0846 50.2819 25.1274 50.2208 25.1434C50.1163 25.1714 50.0084 25.1086 49.981 25.0041C49.9644 24.9424 49.9793 24.8801 50.0158 24.8333C49.9279 24.815 49.8342 24.8162 49.7411 24.8407C49.4191 24.9258 49.2272 25.2553 49.3123 25.5768C49.3974 25.8989 49.7269 26.0908 50.0484 26.0057C50.3699 25.9206 50.5617 25.5911 50.4772 25.2696ZM49.7777 25.7807C49.7194 25.7961 49.6601 25.7613 49.6446 25.703C49.6292 25.6453 49.6641 25.5854 49.7223 25.57C49.78 25.5545 49.8399 25.5894 49.8554 25.6476C49.8708 25.7059 49.8359 25.7653 49.7777 25.7807Z" fill="white"/>
<path d="M6.09313 17.8477C6.90287 17.8477 7.58584 17.9836 8.14147 18.2554C8.6971 18.5272 9.1191 18.8892 9.40862 19.3404C9.69757 19.7915 9.84262 20.2895 9.84262 20.8331C9.84262 21.2037 9.76724 21.5766 9.61706 21.9529C9.4663 22.3292 9.23503 22.6736 8.92266 22.9859C8.6103 23.2983 8.18773 23.5239 7.65551 23.6632C8.32649 23.7443 8.86499 23.9384 9.26986 24.2445C9.67473 24.5512 9.97282 24.9189 10.1641 25.3466C10.3548 25.7749 10.4508 26.2089 10.4508 26.6486C10.4508 27.0883 10.3554 27.528 10.1641 27.9335C9.97339 28.3389 9.70957 28.6975 9.37436 29.0099C9.03859 29.3223 8.628 29.5655 8.14204 29.7391C7.65608 29.9127 7.10616 29.9995 6.49286 29.9995H6.10352e-05V17.8477H6.09313ZM6.49229 22.7084C6.78124 22.5582 7.00452 22.3526 7.16041 22.0922C7.31688 21.8318 7.39454 21.5515 7.39454 21.2505C7.39454 20.9496 7.32202 20.6778 7.17754 20.4345C7.0325 20.1912 6.8155 19.9976 6.52655 19.8532C6.23703 19.7087 5.87841 19.6362 5.45013 19.6362H2.41216V22.9345H5.45013C5.855 22.9345 6.2022 22.8592 6.49172 22.709L6.49229 22.7084ZM2.41273 24.6528V28.2116H5.97149C6.39978 28.2116 6.76696 28.1333 7.07361 27.9774C7.38027 27.821 7.60868 27.6074 7.75944 27.335C7.90963 27.0632 7.985 26.7594 7.985 26.4236C7.985 26.0879 7.90677 25.8046 7.75087 25.5385C7.59441 25.2724 7.36599 25.0583 7.06505 24.8961C6.76411 24.7339 6.39921 24.6528 5.97149 24.6528H2.41273Z" fill="white"/>
<path d="M11.4455 19.462C11.1851 19.1959 11.0549 18.8778 11.0549 18.5072C11.0549 18.1366 11.1851 17.8214 11.4455 17.561C11.7059 17.3006 12.0269 17.1704 12.4089 17.1704C12.7909 17.1704 13.1004 17.3006 13.3722 17.561C13.6441 17.8214 13.78 18.1366 13.78 18.5072C13.78 18.8778 13.6441 19.1959 13.3722 19.462C13.1004 19.7281 12.7789 19.8612 12.4089 19.8612C12.0388 19.8612 11.7059 19.7281 11.4455 19.462ZM13.5721 21.1632V29.9995H11.2634V21.1632H13.5721Z" fill="white"/>
<path d="M21.9225 29.9994H14.3881V28.385L19.0233 22.9167H14.6137V21.1636H21.7312V22.8128L17.1309 28.2291H21.9219V29.9999L21.9225 29.9994Z" fill="white"/>
</g>
<defs>
<clipPath id="clip0_2016_1262">
<rect width="54" height="45" fill="white"/>
</clipPath>
</defs>
</svg>
