<svg width="51" height="45" viewBox="0 0 51 45" fill="none" xmlns="http://www.w3.org/2000/svg">
<path d="M3.71928 19.283L2.38161 19.2842C2.33854 19.2842 2.28772 19.276 2.2579 19.2433L1.8017 18.7612C1.77188 18.7297 1.76304 18.676 1.76304 18.6316L1.76083 18.0397C1.75972 17.9895 1.72438 17.9475 1.67688 17.9475L0.941218 17.9498C0.89372 17.9498 0.856165 17.9895 0.856165 18.0397L0.851746 18.8196C0.851746 18.8698 0.889302 18.9106 0.9368 18.9106L1.50235 18.9071C1.54543 18.9071 1.59404 18.9176 1.62496 18.9491L2.08006 19.4301C2.11099 19.4628 2.11982 19.5142 2.12093 19.5597L2.11982 20.9746C2.11982 21.0703 2.19162 21.1497 2.2822 21.1497H3.71376C3.80323 21.1497 3.87614 21.0738 3.87724 20.9781L3.88497 19.457C3.88276 19.3612 3.80986 19.2842 3.71928 19.283Z" fill="white"/>
<path d="M3.0842 17.7308L2.33528 17.746C2.31208 17.746 2.27011 17.7553 2.25354 17.7378L2.00279 17.4728C1.98623 17.4553 1.99506 17.4121 1.99506 17.3864L2.00059 17.0537C2.00059 17.0269 1.98402 16.9989 1.95751 17H1.55543C1.53003 17 1.51014 17.021 1.51014 17.0479L1.50793 17.4752C1.50793 17.5032 1.52892 17.5254 1.55543 17.5254L1.92326 17.5312C1.95309 17.5312 1.98291 17.5452 2.0039 17.5674L2.20936 17.7845C2.22592 17.802 2.21819 17.8441 2.2193 17.8697L2.21267 18.6531C2.21267 18.7056 2.24912 18.7523 2.29883 18.7523L3.08309 18.7535C3.13169 18.7535 3.17146 18.7114 3.17146 18.6601L3.17477 17.8254C3.17367 17.774 3.1339 17.732 3.0842 17.7308Z" fill="white"/>
<path d="M1.57632 19.3238L0.827404 19.339C0.804208 19.339 0.762234 19.3484 0.745665 19.3308L0.494921 19.0658C0.478352 19.0483 0.487188 19.0051 0.487188 18.9795L0.492711 18.6468C0.492711 18.6199 0.476142 18.5919 0.449632 18.5931H0.047558C0.0221522 18.5931 0.00226902 18.6141 0.00226902 18.6409L6.10352e-05 19.0682C6.10352e-05 19.0962 0.0210476 19.1172 0.047558 19.1184L0.375624 19.1172C0.39882 19.1172 0.449633 19.1114 0.466202 19.1289L0.70148 19.3775C0.718049 19.3951 0.710317 19.4371 0.711421 19.4628L0.704794 20.2461C0.704794 20.2986 0.741245 20.3453 0.790952 20.3453L1.57522 20.3465C1.62493 20.3465 1.66359 20.3056 1.66359 20.2531L1.6669 19.4184C1.6658 19.367 1.62603 19.325 1.57632 19.3238Z" fill="white"/>
<path d="M0.636345 17.4422C0.636345 17.399 0.603207 17.364 0.562337 17.364H0.158053C0.117183 17.364 0.0840454 17.399 0.0840454 17.4422V17.8695C0.0840454 17.9127 0.117183 17.9477 0.158053 17.9477H0.562337C0.603207 17.9477 0.636345 17.9127 0.636345 17.8695V17.4422Z" fill="white"/>
<path d="M2.16931 22.6099V27.8037H4.95511V25.2424C4.95511 24.6155 5.72722 24.3715 6.05197 24.8969C6.05308 24.8969 4.30781 21.9433 2.16931 22.6099Z" fill="white"/>
<path d="M7.61957 22.3391L10.8516 17.2061H7.6273L6.05877 19.828C5.73844 20.3627 4.95639 20.1234 4.95639 19.4907V17.2061H2.27884V17.2142C2.27663 17.3064 2.31308 17.3952 2.37715 17.457L3.08741 17.4384C3.29065 17.4395 3.45524 17.6135 3.45413 17.8271L3.45082 18.6606C3.44971 18.7984 3.38123 18.9175 3.2785 18.9863L3.72255 18.9852C3.96777 18.9863 4.16549 19.1976 4.16439 19.4545L4.15666 20.9756C4.15555 21.2312 3.95783 21.4566 3.71482 21.4566L2.28326 21.4729C2.24791 21.4729 2.24239 21.4671 2.17169 21.4589V22.6099C4.31019 21.9422 6.05436 24.8957 6.05436 24.8957L7.85485 27.8037H11.1543L7.61957 22.3391Z" fill="white"/>
<path d="M3.86169 23.0325C4.18235 23.1998 4.48139 23.4275 4.75037 23.678C5.00662 23.9166 5.22689 24.1677 5.40173 24.3879C5.28348 24.4112 5.17009 24.4597 5.07068 24.5315C4.69407 23.8297 4.26953 23.355 3.86169 23.0325Z" fill="white" stroke="white" stroke-width="0.476735"/>
<path d="M18.6237 23.1755V27.7517H16.1472V23.4802C16.1472 22.6035 15.8556 22.1575 15.2094 22.1575C14.4605 22.1575 13.9932 22.7191 13.9932 23.695V27.7529H11.5167V17.4109H13.9932V20.6551C14.5223 20.2045 15.1961 19.9301 15.913 19.9301C17.5633 19.9278 18.6237 21.2061 18.6237 23.1755Z" fill="white"/>
<path d="M27.4901 20.1445V27.7431H25.5758L25.3637 27.2061C24.775 27.7104 24.0294 27.9999 23.1943 27.9999C20.9962 27.9999 19.4243 26.3049 19.4243 23.9432C19.4243 21.5898 20.9962 19.9146 23.1943 19.9146C24.0404 19.9146 24.7971 20.2134 25.3914 20.7306L25.6443 20.1434H27.4901V20.1445ZM25.1351 23.9502C25.1351 22.9638 24.4536 22.2237 23.5257 22.2237C22.5923 22.2237 21.9163 22.965 21.9163 23.9502C21.9163 24.9425 22.5978 25.6827 23.5257 25.6827C24.4536 25.6827 25.1351 24.9414 25.1351 23.9502Z" fill="white"/>
<path d="M35.8908 23.1185V27.7519H33.4143V23.4804C33.4143 22.5955 33.1006 22.1578 32.4765 22.1578C31.7044 22.1578 31.2603 22.7275 31.2603 23.6952V27.7531H28.7838V20.1545H30.5213L30.8616 20.9378C31.3973 20.3074 32.1948 19.9292 33.1249 19.9292C34.795 19.928 35.8908 21.183 35.8908 23.1185Z" fill="white"/>
<path d="M39.85 17.9006H42.4513V27.7511H39.85V17.9006Z" fill="white"/>
<path d="M50.9789 20.344H48.4472V27.7511H45.8679V20.344H43.3362V17.9006H50.9789V20.344Z" fill="white"/>
</svg>
