<svg width="63" height="45" viewBox="0 0 63 45" fill="none" xmlns="http://www.w3.org/2000/svg">
<path d="M17.9448 14.1548H6.45373C3.03865 14.1548 0.270177 16.9148 0.270177 20.3194V31.7752H11.7613C15.1764 31.7752 17.9448 29.0152 17.9448 25.6106V14.1548Z" fill="url(#paint0_linear_26_680)"/>
<ellipse cx="5.24285" cy="26.7664" rx="0.953297" ry="0.950371" fill="white" fill-opacity="0.4"/>
<ellipse cx="6.65992" cy="25.251" rx="2.00965" ry="2.00349" fill="#E6CCFF"/>
<ellipse cx="9.36746" cy="22.0893" rx="4.5065" ry="4.49267" fill="white"/>
<path d="M27.4253 29.9052C30.599 29.9052 33.2541 27.3409 33.2541 24.301C33.2541 21.2611 30.599 18.7175 27.4253 18.7175C24.2308 18.7175 21.5549 21.2611 21.5549 24.301C21.5549 27.3409 24.2308 29.9052 27.4253 29.9052ZM27.4253 27.3616C25.8073 27.3616 24.459 25.9554 24.459 24.301C24.459 22.6466 25.8073 21.2611 27.4253 21.2611C29.0225 21.2611 30.3708 22.6466 30.3708 24.301C30.3708 25.9554 29.0225 27.3616 27.4253 27.3616Z" fill="#1A1D21"/>
<path d="M40.9455 27.01C40.7381 27.2168 40.3232 27.3616 39.9083 27.3616C39.3483 27.3616 38.8919 26.8653 38.8919 26.1622V21.4059H41.2152V18.9657H38.8919V16.0292H35.9879V18.9657H34.5151V21.4059H35.9879V26.6378C35.9879 28.561 37.3154 29.9052 39.2031 29.9052C40.0743 29.9052 41.0492 29.533 41.6715 28.9746L40.9455 27.01Z" fill="#1A1D21"/>
<path d="M48.6296 27.2375C47.3643 27.2375 46.4308 26.4517 46.0782 25.2936H53.8154C53.8154 21.2611 51.8448 18.7175 48.4844 18.7175C45.3522 18.7175 42.9667 21.0543 42.9667 24.2803C42.9667 27.5684 45.4559 29.9052 48.6503 29.9052C50.2268 29.9052 52.073 29.2434 53.0272 28.2508L51.098 26.2863C50.5172 26.8446 49.4801 27.2375 48.6296 27.2375ZM48.6088 21.3852C49.8327 21.3852 50.6209 22.0676 50.9113 23.1223H46.1197C46.5138 22.0469 47.468 21.3852 48.6088 21.3852Z" fill="#1A1D21"/>
<path d="M58.8928 20.9509V18.9657H55.8643V29.657H58.8928V24.5492C58.8928 22.5432 60.3241 21.2611 62.5644 21.2611V18.7175C60.9256 18.7175 59.5981 19.5654 58.8928 20.9509Z" fill="#1A1D21"/>
<defs>
<linearGradient id="paint0_linear_26_680" x1="4.46984" y1="14.1548" x2="16.9403" y2="31.8113" gradientUnits="userSpaceOnUse">
<stop stop-color="#6F00FF"/>
<stop offset="1" stop-color="#8F00FF"/>
</linearGradient>
</defs>
</svg>
