<svg width="93" height="45" viewBox="0 0 93 45" fill="none" xmlns="http://www.w3.org/2000/svg">
<g clip-path="url(#clip0_26_634)">
<path d="M2.10816 18.2869C-0.703696 21.0987 -0.703696 25.6574 2.10816 28.4692C3.4902 29.8513 5.2932 30.5532 7.10351 30.578C7.07316 29.8007 7.17152 29.0189 7.39802 28.268C6.07836 28.3214 4.74185 27.8454 3.73693 26.8405C1.8277 24.9312 1.82827 21.8249 3.73693 19.9156C5.64616 18.0064 8.75252 18.0064 10.6617 19.9156C11.6667 20.9206 12.1427 22.2576 12.0893 23.5767C12.8402 23.3502 13.622 23.2519 14.3993 23.2822C14.3745 21.4714 13.6726 19.6683 12.2905 18.2869C9.47866 15.475 4.92001 15.475 2.10816 18.2869Z" fill="#142C9B"/>
<path fill-rule="evenodd" clip-rule="evenodd" d="M12.2913 28.469C13.113 27.6473 13.6947 26.6756 14.0358 25.6425C12.8106 25.4217 11.5005 25.7842 10.5535 26.7312C9.60644 27.6782 9.24393 28.9883 9.46481 30.2136C10.4978 29.8724 11.4696 29.2907 12.2913 28.469Z" fill="#3767FF"/>
<path d="M7.19976 25.9695C8.63134 25.9695 9.79186 24.809 9.79186 23.3774C9.79186 21.9458 8.63134 20.7853 7.19976 20.7853C5.76819 20.7853 4.60767 21.9458 4.60767 23.3774C4.60767 24.809 5.76819 25.9695 7.19976 25.9695Z" fill="#3767FF"/>
<path d="M23.9116 28.6712C23.2611 28.6712 22.6604 28.5566 22.1096 28.3269C21.5588 28.0979 21.0811 27.774 20.6765 27.3567C20.2718 26.9394 19.9571 26.4456 19.7316 25.8737C19.5061 25.3026 19.3937 24.6787 19.3937 24.0029C19.3937 23.3271 19.504 22.7096 19.7253 22.1511C19.9466 21.5926 20.2592 21.1064 20.6638 20.6933C21.0685 20.2802 21.5462 19.9634 22.097 19.7421C22.6478 19.5208 23.2526 19.4105 23.9116 19.4105C24.6542 19.4105 25.3237 19.5545 25.9201 19.8426C26.5165 20.1306 27.0048 20.5353 27.3842 21.0565C27.7635 21.5778 27.9953 22.189 28.0789 22.8901H26.2018C26.0936 22.248 25.8302 21.7619 25.4136 21.4324C24.9963 21.1029 24.5003 20.9378 23.9242 20.9378C23.4156 20.9378 22.9667 21.0586 22.5789 21.301C22.1911 21.5434 21.8883 21.8911 21.6713 22.3457C21.4542 22.8002 21.346 23.3489 21.346 23.991C21.346 24.6331 21.4563 25.2028 21.6776 25.6742C21.8989 26.1456 22.2052 26.5088 22.5972 26.7631C22.9892 27.0174 23.4395 27.1446 23.9488 27.1446C24.4912 27.1446 24.971 26.9816 25.3883 26.6563C25.8056 26.3311 26.0768 25.847 26.2018 25.2049H28.1042C27.9961 25.906 27.7495 26.5172 27.3659 27.0385C26.9823 27.5598 26.4941 27.9623 25.9018 28.2461C25.3096 28.53 24.6457 28.6719 23.9123 28.6719L23.9116 28.6712Z" fill="#142C9B"/>
<path d="M28.3166 28.5469V19.5371H32.5964C33.2638 19.5371 33.837 19.6544 34.3169 19.8877C34.7967 20.1216 35.1676 20.4469 35.4304 20.8635C35.6931 21.2808 35.8245 21.769 35.8245 22.3275C35.8245 22.886 35.691 23.3785 35.424 23.8042C35.1571 24.23 34.7833 24.5615 34.3042 24.799C33.8244 25.0364 33.2546 25.1559 32.5957 25.1559H29.8425V23.6792H32.4952C32.9371 23.6792 33.2813 23.5562 33.5279 23.3104C33.7738 23.0645 33.8967 22.7406 33.8967 22.3402C33.8967 21.9397 33.7738 21.6187 33.5279 21.3763C33.282 21.1346 32.9378 21.0131 32.4952 21.0131H30.2429V28.5469H28.3159H28.3166Z" fill="#142C9B"/>
<path d="M40.6553 28.6712C39.6795 28.6712 38.8407 28.4794 38.1403 28.0958C37.4399 27.7122 36.8989 27.1741 36.5196 26.4814C36.1395 25.7887 35.9498 24.9794 35.9498 24.0535C35.9498 23.1276 36.1416 22.3288 36.5252 21.6319C36.9088 20.9357 37.4406 20.3912 38.1206 19.9985C38.8007 19.6065 39.591 19.4105 40.4923 19.4105C41.2349 19.4105 41.9002 19.544 42.4882 19.811C43.0762 20.0779 43.5518 20.4432 43.915 20.9062C44.2782 21.3692 44.4925 21.9052 44.5592 22.5143H42.6322C42.5486 22.0218 42.3175 21.6361 41.9374 21.3565C41.5574 21.0769 41.0846 20.9371 40.5169 20.9371C39.9914 20.9371 39.5327 21.06 39.1407 21.3059C38.7487 21.5518 38.4438 21.9045 38.2274 22.3632C38.0103 22.822 37.9021 23.3727 37.9021 24.0148C37.9021 24.657 38.0103 25.252 38.2274 25.7227C38.4445 26.1941 38.7634 26.5531 39.1849 26.7989C39.6065 27.0448 40.1256 27.1678 40.7431 27.1678C41.2433 27.1678 41.6691 27.1052 42.0196 26.9802C42.3702 26.8551 42.6371 26.6795 42.8205 26.4547L44.6477 27.1804C44.1637 27.6644 43.6031 28.0333 42.9645 28.2876C42.3266 28.5419 41.5567 28.6691 40.6553 28.6691V28.6712ZM42.72 27.1818V24.704L43.1078 25.0918H40.7305V23.6151H44.647V27.1818H42.72Z" fill="#142C9B"/>
<path d="M51.3293 28.6593C50.1611 28.6593 49.2267 28.3986 48.5263 27.8773C47.8252 27.3561 47.4163 26.6198 47.2997 25.6686H49.1515C49.2098 26.1527 49.4438 26.5341 49.8526 26.8137C50.2615 27.0933 50.7828 27.2331 51.4172 27.2331C51.9342 27.2331 52.3325 27.1418 52.6121 26.9577C52.8918 26.7744 53.0316 26.5285 53.0316 26.2194C53.0316 25.9271 52.948 25.6918 52.7815 25.5127C52.6143 25.3335 52.3269 25.1895 51.9181 25.0806L50.2411 24.6177C49.382 24.376 48.7539 24.0444 48.3577 23.6229C47.9615 23.2014 47.7633 22.6738 47.7633 22.0401C47.7633 21.4978 47.9031 21.0285 48.1828 20.6322C48.4624 20.236 48.8565 19.9311 49.3651 19.719C49.8737 19.5061 50.4702 19.4 51.1544 19.4C52.2054 19.4 53.0442 19.648 53.6694 20.1447C54.2954 20.6414 54.6495 21.2982 54.7331 22.116H52.8812C52.7976 21.6741 52.5953 21.3488 52.2742 21.1402C51.9532 20.9315 51.5422 20.8275 51.0413 20.8275C50.6072 20.8275 50.2608 20.9111 50.003 21.0776C49.7445 21.2448 49.6152 21.4697 49.6152 21.7535C49.6152 21.9706 49.6861 22.1687 49.8281 22.3478C49.97 22.5269 50.2657 22.6794 50.7167 22.8044L52.3937 23.2674C53.2781 23.5098 53.9139 23.8414 54.3024 24.2622C54.6902 24.6837 54.8841 25.2155 54.8841 25.8576C54.8841 26.7589 54.5715 27.4509 53.9455 27.935C53.3196 28.419 52.4478 28.6607 51.33 28.6607L51.3293 28.6593Z" fill="#142C9B"/>
<path d="M57.2358 28.4207L54.7833 22.1633H56.8108L58.8256 27.8699L57.2365 28.4207H57.2358ZM55.8849 31.1113L57.6496 27.2067L57.9749 26.6686L59.6265 22.1633H61.6287L57.762 31.1106H55.8849V31.1113Z" fill="#142C9B"/>
<path d="M61.7522 28.5452V22.1628H63.5921V23.6648H63.6293V28.5452H61.7522ZM66.1949 28.5452V24.5907C66.1949 24.2402 66.105 23.9774 65.9259 23.8025C65.7467 23.6276 65.4854 23.5397 65.144 23.5397C64.8517 23.5397 64.5911 23.6065 64.3621 23.74C64.1323 23.8734 63.9532 24.0568 63.8239 24.2907C63.6947 24.5247 63.63 24.8001 63.63 25.1169L63.4671 23.5777C63.6757 23.1105 63.982 22.7375 64.3867 22.4579C64.7913 22.1783 65.2894 22.0385 65.8823 22.0385C66.5912 22.0385 67.1335 22.2366 67.5094 22.6328C67.8845 23.029 68.0728 23.5608 68.0728 24.2282V28.5459H66.1956L66.1949 28.5452Z" fill="#142C9B"/>
<path d="M71.7132 28.6717C71.0043 28.6717 70.3868 28.5319 69.8613 28.2523C69.3358 27.9726 68.9291 27.5827 68.641 27.0819C68.353 26.5817 68.209 26.0056 68.209 25.3551C68.209 24.7045 68.353 24.1186 68.641 23.6219C68.9291 23.126 69.3316 22.7375 69.8487 22.4579C70.3657 22.1783 70.9664 22.0385 71.6506 22.0385C72.3349 22.0385 72.8814 22.1719 73.3648 22.4389C73.8488 22.7058 74.224 23.0768 74.4909 23.5524C74.7579 24.028 74.8914 24.5872 74.8914 25.2293C74.8914 25.3628 74.8872 25.4857 74.8787 25.5981C74.8703 25.7105 74.8576 25.8173 74.8415 25.9171H69.3105V24.6778H73.3276L73.0023 24.9033C73.0023 24.3863 72.8793 24.0048 72.6335 23.7582C72.3876 23.5123 72.0518 23.3894 71.626 23.3894C71.1336 23.3894 70.7521 23.5566 70.4809 23.8903C70.2098 24.224 70.0742 24.7249 70.0742 25.3923C70.0742 26.0597 70.2098 26.5269 70.4809 26.8437C70.7521 27.1605 71.1589 27.3193 71.7012 27.3193C72.0012 27.3193 72.2597 27.2694 72.4768 27.169C72.6939 27.0692 72.8562 26.9062 72.9651 26.6807H74.7298C74.5211 27.2982 74.1643 27.7844 73.6598 28.1384C73.1547 28.4932 72.5063 28.6703 71.7139 28.6703L71.7132 28.6717Z" fill="#142C9B"/>
<path d="M75.067 28.5459V22.1635H76.9069V23.6655H76.9442V28.5459H75.067ZM76.9442 25.2174L76.7812 23.7034C76.9315 23.1611 77.1774 22.748 77.5195 22.4642C77.8616 22.1804 78.2867 22.0385 78.796 22.0385C78.9541 22.0385 79.0714 22.0553 79.1466 22.0883V23.8404C79.1044 23.8236 79.0468 23.8137 78.9716 23.8088C78.8965 23.8046 78.8044 23.8025 78.6962 23.8025C78.0956 23.8025 77.653 23.9086 77.3699 24.1214C77.0861 24.3343 76.9442 24.6989 76.9442 25.2167V25.2174Z" fill="#142C9B"/>
<path d="M82.5625 31.2359C81.678 31.2359 80.9587 31.0483 80.4037 30.6724C79.8487 30.2973 79.5213 29.788 79.4216 29.1459H81.1982C81.265 29.3039 81.409 29.4255 81.6303 29.5091C81.8509 29.5927 82.1326 29.6341 82.4747 29.6341C83.0416 29.6341 83.4547 29.5259 83.7133 29.3088C83.9718 29.0918 84.101 28.7539 84.101 28.2951V26.9062L84.2008 26.9315C84.1172 27.3987 83.8755 27.7682 83.4751 28.0387C83.0747 28.3099 82.578 28.4454 81.9858 28.4454C81.3935 28.4454 80.9242 28.3141 80.5027 28.0513C80.0812 27.7886 79.7538 27.4191 79.5206 26.9442C79.2867 26.4686 79.17 25.91 79.17 25.2672C79.17 24.6244 79.2909 24.0491 79.5333 23.565C79.7749 23.081 80.1149 22.7058 80.5533 22.4389C80.991 22.1719 81.5024 22.0385 82.0862 22.0385C82.67 22.0385 83.1765 22.1804 83.5566 22.4642C83.936 22.748 84.1593 23.1358 84.2261 23.6283L84.1383 23.6409V22.1642H85.9782V28.2712C85.9782 29.1887 85.6733 29.9123 85.0649 30.4427C84.4558 30.9724 83.6212 31.2373 82.5618 31.2373L82.5625 31.2359ZM82.6377 27.006C83.0796 27.006 83.4386 26.8535 83.714 26.5493C83.9893 26.2451 84.127 25.8089 84.127 25.2419C84.127 24.675 83.9872 24.2387 83.7076 23.9339C83.428 23.6297 83.0634 23.4772 82.6124 23.4772C82.1614 23.4772 81.8221 23.6318 81.5425 23.9402C81.2629 24.2493 81.1231 24.687 81.1231 25.2539C81.1231 25.8208 81.2629 26.255 81.5425 26.5557C81.8221 26.8563 82.1867 27.006 82.6377 27.006Z" fill="#142C9B"/>
<path d="M88.5567 28.4207L86.1042 22.1633H88.1317L90.1465 27.8699L88.5574 28.4207H88.5567ZM87.2051 31.1113L88.9698 27.2067L89.2951 26.6686L90.9467 22.1633H92.9489L89.0822 31.1106H87.2051V31.1113Z" fill="#142C9B"/>
</g>
<defs>
<clipPath id="clip0_26_634">
<rect width="92.7" height="18" fill="white" transform="translate(0 14)"/>
</clipPath>
</defs>
</svg>
