<svg width="53" height="45" viewBox="0 0 53 45" fill="none" xmlns="http://www.w3.org/2000/svg">
<g clip-path="url(#clip0_26_1364)">
<path d="M12.7153 24.0339C11.3549 23.7554 10.266 23.4932 9.39703 23.2569C8.61502 23.3395 7.70331 23.4648 6.77767 23.6536C7.47658 23.9273 8.49973 24.2606 9.99218 24.6313C8.85375 25.5241 8.23506 26.0432 8.19951 26.074L7.71051 26.487L7.78833 27.1223L8.07414 29.3986C5.7622 28.7455 3.44835 27.9964 2.26284 27.4705C1.53126 27.0354 1.39917 26.4245 1.95109 25.8703C2.05245 25.782 2.16053 25.6936 2.27389 25.6062C2.27773 25.6033 2.28157 25.6004 2.2859 25.598C2.2859 25.598 2.2859 25.598 2.2859 25.5976C4.14198 24.1703 7.48042 22.8953 9.8721 22.0784C10.0349 22.0217 10.1699 21.9084 10.2525 21.7547L11.5894 19.2373C11.6604 19.1052 11.6864 18.954 11.6604 18.8075L11.1172 15.5395C11.0792 15.3176 10.9375 15.1308 10.7343 15.0367L8.65728 14.0642C8.49925 13.9912 8.3172 13.9792 8.15436 14.0335C5.24198 14.9968 3.25333 16.097 2.10096 16.8481C1.33336 17.3485 0.820824 18.1563 0.697854 19.0654C0.381302 21.3917 -0.197522 26.0672 0.0671522 27.1651C0.29628 28.1097 2.19031 28.8276 3.52713 29.2195C6.11334 30.1262 9.46476 30.9998 9.46476 30.9998L8.95943 26.9758C8.95943 26.9758 10.2938 25.8497 12.7148 24.0334L12.7153 24.0339ZM6.77719 17.6703C6.94723 17.1579 7.50684 16.8486 8.04772 16.9336C8.5982 17.021 8.99978 17.4955 8.93589 18.0386C8.86288 18.6433 8.25331 19.0846 7.59187 18.9621C6.94003 18.8416 6.58793 18.237 6.77719 17.6703Z" fill="#E5662F"/>
<path d="M14.8348 27.7572L16.1194 17.3633H20.0634C20.869 17.3633 21.5289 17.4748 22.0429 17.6968C22.5564 17.9193 22.9217 18.2826 23.1382 18.7878C23.3548 19.2929 23.4075 19.9594 23.2967 20.7878C23.206 21.5253 22.9968 22.1439 22.6696 22.6441C22.3423 23.1444 21.8712 23.5155 21.2567 23.7576L22.4657 27.7577H20.5618L19.504 24.1214H17.0865L16.633 27.7577H14.8348V27.7572ZM17.2826 22.6206H19.4586C19.8819 22.6206 20.2341 22.5375 20.5164 22.3708C20.7983 22.204 21.0173 21.9668 21.1738 21.6588C21.3299 21.3507 21.4333 21.005 21.4835 20.6211C21.5537 20.0352 21.4684 19.5986 21.2265 19.3105C20.9846 19.0225 20.5564 18.8787 19.9419 18.8787H17.7356L17.2821 22.6211L17.2826 22.6206Z" fill="#403129"/>
<path d="M25.7747 27.9242C24.9891 27.9242 24.4224 27.7149 24.0746 27.2953C23.7269 26.8762 23.6035 26.2576 23.7045 25.439C23.765 24.9241 23.9083 24.5148 24.1351 24.2116C24.3619 23.9084 24.674 23.684 25.072 23.5373C25.4699 23.3911 25.9405 23.2977 26.4848 23.2571L28.5399 23.0752L28.6306 22.5147C28.6706 22.1108 28.6102 21.8306 28.4492 21.6736C28.2878 21.5172 28.0259 21.4389 27.6635 21.4389C27.3812 21.4389 27.0564 21.4492 26.6891 21.4692C26.3214 21.4898 25.9586 21.5147 25.6011 21.545C25.2436 21.5754 24.9335 21.6057 24.6716 21.636V20.3631C24.9335 20.3127 25.248 20.2594 25.6157 20.2042C25.9835 20.1489 26.3639 20.1005 26.7564 20.0604C27.1495 20.0203 27.5119 19.9998 27.8445 19.9998C28.4892 19.9998 29.0106 20.0883 29.4085 20.2648C29.8065 20.4418 30.0835 20.7171 30.2395 21.0907C30.3956 21.4643 30.4385 21.9494 30.3678 22.5451L29.9147 26.1056C29.9045 26.2777 29.9625 26.4009 30.0883 26.4767C30.2142 26.5525 30.3678 26.6053 30.5492 26.6356L30.4283 27.8782C30.2873 27.8782 30.141 27.8758 29.9898 27.8709C29.8386 27.8655 29.7001 27.8582 29.5743 27.8484C29.4485 27.8381 29.3402 27.8181 29.2495 27.7878C29.0379 27.7574 28.8589 27.6968 28.7131 27.6058C28.5668 27.5149 28.4536 27.4239 28.3731 27.333C28.1712 27.4239 27.9274 27.5124 27.6401 27.598C27.3529 27.6841 27.0456 27.7594 26.7184 27.8254C26.3912 27.8909 26.0761 27.9237 25.7742 27.9237L25.7747 27.9242ZM26.1829 26.5907C26.4146 26.5907 26.6565 26.5657 26.9081 26.5149C27.1598 26.4645 27.3939 26.4063 27.6109 26.3408C27.8274 26.2752 28.0064 26.2171 28.1473 26.1667L28.4044 24.2121L26.6667 24.3789C26.2839 24.4092 25.9942 24.5256 25.7976 24.7275C25.6011 24.9295 25.4826 25.2072 25.4426 25.5608C25.4124 25.884 25.4553 26.1364 25.5709 26.3183C25.6865 26.5002 25.8903 26.5911 26.1829 26.5911V26.5907Z" fill="#403129"/>
<path d="M34.4029 27.924C34.161 27.924 33.8664 27.9138 33.5187 27.8937C33.171 27.8732 32.8208 27.8429 32.4687 27.8028C32.1161 27.7622 31.804 27.7323 31.5319 27.7118L32.8164 16.9995H34.5692L34.1156 20.4236C34.2766 20.3532 34.4731 20.2847 34.7048 20.2192C34.9364 20.1536 35.1808 20.1003 35.4378 20.0602C35.6948 20.0201 35.9289 19.9996 36.1405 19.9996C36.8555 19.9996 37.4071 20.1409 37.7953 20.4241C38.183 20.7072 38.4346 21.139 38.5507 21.7195C38.6663 22.3004 38.6741 23.0354 38.5731 23.9239C38.4522 24.9142 38.243 25.702 37.946 26.2873C37.6485 26.8731 37.2232 27.2927 36.6692 27.545C36.1152 27.7974 35.3593 27.924 34.4024 27.924H34.4029ZM34.4482 26.4237C35.0223 26.4237 35.468 26.3255 35.7855 26.1284C36.103 25.9313 36.3371 25.6384 36.4883 25.2496C36.6394 24.8609 36.7453 24.3684 36.8057 23.7723C36.876 23.2271 36.8911 22.7875 36.8511 22.4539C36.8106 22.1204 36.6999 21.8784 36.5185 21.7268C36.3371 21.5752 36.0703 21.4994 35.7177 21.4994C35.526 21.4994 35.3197 21.517 35.0983 21.5522C34.8764 21.5879 34.6701 21.6334 34.479 21.6886C34.2873 21.7444 34.1312 21.7972 34.0108 21.8476L33.3914 26.3475C33.5426 26.368 33.7313 26.3851 33.9581 26.4003C34.1849 26.4154 34.3483 26.4228 34.4492 26.4228L34.4482 26.4237Z" fill="#403129"/>
<path d="M39.7825 27.7573L40.5531 21.6212H39.7372L39.9035 20.1664H40.7194L40.795 19.6059C40.8857 18.8891 41.0188 18.3257 41.1954 17.9164C41.3714 17.5071 41.6236 17.2245 41.9508 17.068C42.278 16.9115 42.7087 16.8333 43.2427 16.8333C43.4036 16.8333 43.5977 16.8435 43.8245 16.8636C44.0513 16.8841 44.2678 16.9042 44.4741 16.9242C44.6804 16.9447 44.8292 16.9648 44.9199 16.9848L44.8292 18.3335C44.658 18.3238 44.4668 18.3184 44.2551 18.3184H43.7416C43.4797 18.3184 43.2681 18.359 43.1071 18.4397C42.9457 18.5208 42.8199 18.6622 42.7292 18.8641C42.6384 19.0661 42.5677 19.3389 42.5175 19.6822L42.457 20.1668H44.3912L44.2249 21.6217H42.2907L41.5202 27.7578H39.7825V27.7573Z" fill="#403129"/>
<path d="M45.8265 31.0001L47.2013 27.7574H45.7509L44.7838 20.1665H46.5668L47.3222 26.2728H47.7602L50.0119 20.1665H51.7797L47.6846 31.0001H45.826H45.8265Z" fill="#403129"/>
</g>
<defs>
<clipPath id="clip0_26_1364">
<rect width="52.275" height="17" fill="white" transform="translate(0 14)"/>
</clipPath>
</defs>
</svg>
