<svg width="89" height="45" viewBox="0 0 89 45" fill="none" xmlns="http://www.w3.org/2000/svg">
<path fill-rule="evenodd" clip-rule="evenodd" d="M17.5671 12.0014C17.9399 11.9906 18.5102 12.0447 18.8172 12.1097C19.1352 12.1747 19.7383 12.3913 20.166 12.5862C20.6594 12.8136 21.1639 13.171 21.5915 13.5717C21.9644 13.9399 22.414 14.5247 22.6223 14.9146C22.8307 15.3044 23.0609 15.8567 23.1487 16.16C23.2254 16.4524 23.2912 17.1346 23.2912 17.6761C23.2912 18.3475 23.2254 18.8674 23.0829 19.3547C22.9622 19.7446 22.71 20.286 22.5236 20.5676C22.3482 20.86 21.9863 21.304 21.7231 21.5748C21.4709 21.8455 21.2077 22.0729 21.1529 22.0729C21.0871 22.0729 20.9555 21.8455 20.6594 21.0874L21.0652 20.6218C21.2845 20.3727 21.6244 19.8529 21.7999 19.463C22.1069 18.8132 22.1398 18.6616 22.1398 17.622C22.1398 16.539 22.1179 16.4415 21.767 15.7268C21.5367 15.2719 21.1639 14.7521 20.8239 14.4272C20.5169 14.124 20.0015 13.7558 19.6725 13.6042C19.3436 13.4417 18.7733 13.2576 18.4115 13.1818C18.0496 13.106 17.4903 13.0735 17.1723 13.1168C16.8653 13.1493 16.3718 13.2685 16.0758 13.3767C15.7907 13.4742 15.3082 13.745 14.4638 14.3514L14.0361 14.1132C13.7949 13.994 13.5865 13.8208 13.5646 13.745C13.5427 13.68 13.7949 13.4309 14.1019 13.1926C14.4199 12.9652 14.8915 12.6728 15.1437 12.5429C15.4069 12.4237 15.9003 12.2505 16.2402 12.1638C16.5912 12.0772 17.1833 12.0014 17.5561 12.0014H17.5671ZM8.24623 13.0843C8.75065 13.0735 9.51825 13.1385 9.94592 13.2251C10.3845 13.3009 11.0644 13.4959 11.4592 13.6583C11.854 13.8099 12.4351 14.1023 12.7531 14.2973C13.0821 14.4814 13.6414 14.9146 14.0032 15.2394C14.3761 15.5643 14.8805 16.1275 15.1437 16.4848C15.4069 16.8422 15.6152 17.1888 15.6262 17.2429C15.6262 17.2971 15.3411 17.4054 15.0011 17.4812C14.398 17.6111 14.3541 17.6003 14.2006 17.3729C14.1129 17.2429 13.773 16.8531 13.433 16.5065C13.104 16.16 12.5558 15.6943 12.2268 15.4777C11.8978 15.2611 11.3276 14.9687 10.9657 14.8171C10.6039 14.6763 9.89109 14.4922 9.3757 14.4056C8.61907 14.2756 8.26816 14.2756 7.51153 14.3731C6.99614 14.438 6.22854 14.633 5.81184 14.7846C5.38417 14.947 4.72623 15.3044 4.33146 15.5752C3.9367 15.8459 3.35551 16.3657 3.03751 16.7123C2.7195 17.0588 2.26991 17.7194 2.03963 18.1634C1.80935 18.6074 1.5352 19.3655 1.42555 19.842C1.28299 20.4918 1.25009 20.9683 1.29396 21.7372C1.33782 22.4736 1.43651 23.0043 1.64486 23.5782C1.82031 24.0223 2.13832 24.6829 2.35763 25.0402C2.58791 25.3976 3.11427 26.0041 3.53097 26.3939C3.9367 26.7838 4.62754 27.282 5.04424 27.4986C5.4719 27.7152 6.2066 27.9967 6.6891 28.1267C7.17159 28.2458 7.89533 28.3433 8.30106 28.3433C8.71776 28.3433 9.4086 28.2675 9.83626 28.17C10.2749 28.0725 10.9767 27.8343 11.4044 27.6393C11.8211 27.4336 12.468 27.0437 12.8189 26.7513C13.1808 26.4697 13.6962 25.9391 13.9813 25.5817C14.2555 25.2243 14.5077 24.867 14.5406 24.7803C14.5735 24.6612 14.705 24.6612 15.2095 24.7587C15.5604 24.8236 15.8455 24.9103 15.8455 24.9536C15.8455 25.0077 15.692 25.3001 15.5165 25.6034C15.3301 25.9174 14.8586 26.5239 14.4419 26.9462C14.0361 27.3794 13.4111 27.9209 13.0492 28.1592C12.6874 28.3974 12.1281 28.7115 11.8101 28.8523C11.5031 28.993 11.2399 29.1338 11.2399 29.1771C11.2399 29.2313 11.3715 29.4587 11.5469 29.697C11.7224 29.9352 12.0952 30.3359 12.3693 30.585C12.6545 30.8449 13.1918 31.1915 13.5646 31.3756C13.9484 31.5488 14.5954 31.7546 15.0231 31.8304C15.6262 31.9279 15.9551 31.9279 16.5583 31.8304C16.975 31.7546 17.6439 31.538 18.0386 31.3539C18.4773 31.1481 19.0146 30.7583 19.4203 30.3576C19.7931 29.9894 20.2208 29.4371 20.3853 29.123C20.5388 28.8198 20.7472 28.2783 20.8349 27.9317C20.9226 27.596 20.9994 27.0654 20.9994 26.773C20.9994 26.4697 20.9226 25.9499 20.8349 25.6034C20.7472 25.2677 20.5388 24.7262 20.3743 24.4121C20.2208 24.1089 19.8589 23.6107 19.5848 23.3183C19.3107 23.0259 18.883 22.6577 18.6417 22.4953C18.4005 22.3328 18.0057 22.1162 17.7645 22.0296C17.5232 21.9321 17.1175 21.8022 16.8543 21.748C16.4047 21.6289 16.3938 21.6073 16.2841 21.0549C16.2293 20.7517 16.1854 20.481 16.2074 20.4593C16.2183 20.4485 16.6021 20.5026 17.0517 20.6001C17.5013 20.6867 18.247 20.9358 18.6966 21.1632C19.2778 21.4448 19.7383 21.7805 20.2866 22.322C20.8349 22.8743 21.1748 23.3292 21.4599 23.9031C21.6793 24.3471 21.9205 24.9861 21.9973 25.311C22.074 25.6359 22.1288 26.3506 22.1288 26.8813C22.1179 27.596 22.0411 28.0834 21.8328 28.7223C21.6573 29.2638 21.3612 29.8702 21.0213 30.3467C20.7252 30.7583 20.2756 31.2781 20.0015 31.4947C19.7383 31.7113 19.3107 32.0145 19.0475 32.1769C18.7953 32.3286 18.2141 32.5776 17.7645 32.7293C17.0846 32.9567 16.7337 33 15.7578 33C14.7599 33 14.4528 32.9567 13.7072 32.6968C13.2247 32.5343 12.5338 32.1986 12.172 31.9604C11.8101 31.7113 11.2947 31.2781 11.0425 30.9857C10.7793 30.6933 10.4394 30.2385 10.0117 29.4804L8.67389 29.5129C7.92822 29.5345 7.06193 29.502 6.6891 29.4262C6.32723 29.3613 5.65832 29.1555 5.20872 28.9714C4.75913 28.7981 4.06829 28.4407 3.67352 28.1808C3.27875 27.9317 2.66467 27.4119 2.3028 27.0329C1.94093 26.6538 1.43651 25.9932 1.1843 25.5817C0.932087 25.1702 0.603115 24.4554 0.449595 24.0114C0.296075 23.5674 0.120623 22.7768 0.0657944 22.2462C-0.0219315 21.5856 -0.0219315 21.0225 0.0657944 20.3618C0.131589 19.8312 0.274143 19.1164 0.405732 18.7591C0.526355 18.4017 0.789533 17.7952 0.997882 17.4054C1.20623 17.0155 1.61196 16.409 1.90804 16.0517C2.20411 15.6943 2.73047 15.1745 3.08137 14.9037C3.44324 14.633 4.00249 14.2539 4.33146 14.0807C4.66044 13.8966 5.15389 13.6691 5.42804 13.5717C5.70218 13.4742 6.2395 13.3226 6.63427 13.2468C7.02903 13.1602 7.75277 13.0843 8.24623 13.0843V13.0843ZM30.1558 17.1996C30.2764 17.1996 30.6931 17.2429 31.0878 17.3079C31.4826 17.362 32.0967 17.557 32.4586 17.7194C32.8204 17.8819 33.3358 18.2176 34.1034 18.889L33.7745 19.333C33.588 19.5821 33.3797 19.7879 33.3029 19.7879C33.2371 19.7879 32.9411 19.5929 32.645 19.3439C32.3599 19.1056 31.8555 18.8132 31.5265 18.6941C31.055 18.5208 30.7369 18.4775 30.1009 18.51C29.5636 18.5425 29.1031 18.6399 28.785 18.7807C28.5109 18.9107 28.0723 19.2031 27.7981 19.4413C27.524 19.6796 27.1731 20.1019 27.0086 20.3943C26.8551 20.6867 26.6687 21.2066 26.6029 21.5423C26.5151 21.9971 26.5151 22.3437 26.6029 22.7877C26.6687 23.1342 26.8551 23.654 27.0086 23.9464C27.1731 24.2388 27.524 24.6612 27.7981 24.8995C28.0723 25.1377 28.5109 25.4301 28.785 25.5601C29.114 25.7225 29.5417 25.8091 30.1009 25.8308C30.7589 25.8633 31.055 25.82 31.5813 25.625C31.9761 25.4734 32.4366 25.1919 32.7327 24.9211C33.0069 24.6612 33.27 24.4446 33.3358 24.4446C33.3907 24.4446 33.5771 24.6179 33.7416 24.8453C33.906 25.0727 34.0486 25.3218 34.0486 25.3868C34.0486 25.4626 33.8402 25.7008 33.5771 25.9174C33.3249 26.134 32.8204 26.4481 32.4586 26.6214C32.0967 26.7838 31.4497 26.9787 31.033 27.0437C30.4738 27.1304 30.0571 27.1304 29.4978 27.0437C29.0702 26.9787 28.4232 26.773 28.0284 26.578C27.6007 26.3614 27.0854 25.9824 26.7016 25.5817C26.3287 25.2027 25.934 24.6612 25.7585 24.2822C25.594 23.9248 25.4076 23.2858 25.3528 22.8743C25.276 22.3545 25.276 21.8888 25.3528 21.4123C25.4076 21.0225 25.594 20.416 25.7585 20.0586C25.934 19.6796 26.3287 19.1381 26.7016 18.7591C27.0854 18.3584 27.6007 17.9685 28.0284 17.7627C28.4122 17.5678 29.0044 17.3729 29.3333 17.3187C29.6623 17.2646 30.0351 17.2104 30.1558 17.1996V17.1996ZM47.9751 17.1888H49.1813V20.8708L49.587 20.5893C49.8173 20.4377 50.2779 20.2427 50.6069 20.1453C51.0235 20.0261 51.4183 19.9936 51.8898 20.0478C52.2736 20.0803 52.789 20.2102 53.0412 20.3294C53.3044 20.4485 53.7102 20.6976 53.9514 20.9033C54.2036 21.1091 54.5435 21.5639 54.7519 21.9646C55.0589 22.5711 55.1028 22.766 55.1028 23.4916C55.1028 24.0547 55.026 24.5312 54.8945 24.8995C54.7629 25.246 54.4778 25.6792 54.1817 25.9824C53.9075 26.2748 53.3921 26.6322 53.0412 26.7946C52.5259 27.0329 52.2627 27.087 51.5938 27.0762C51.1113 27.0762 50.574 26.9896 50.2779 26.8813C50.0037 26.7838 49.6528 26.6105 49.1813 26.2856V27.152H47.9751V17.1888ZM50.4424 21.5423C50.2559 21.6397 50.0037 21.8347 49.8831 21.9755C49.7515 22.1054 49.5541 22.3978 49.4445 22.6036C49.3239 22.831 49.2471 23.2209 49.2471 23.5782C49.2361 24.0331 49.3129 24.293 49.5212 24.6612C49.6857 24.9319 50.0257 25.2893 50.2888 25.4734C50.6178 25.7008 50.9139 25.8091 51.3087 25.8416C51.6157 25.8633 52.0653 25.82 52.3065 25.7333C52.5478 25.6575 52.9097 25.4409 53.118 25.2677C53.3264 25.0836 53.5786 24.737 53.6882 24.4988C53.7979 24.2605 53.8966 23.8598 53.8966 23.5999C53.8966 23.3508 53.8198 22.961 53.7321 22.7335C53.6334 22.5169 53.3702 22.1487 53.1509 21.9213C52.8877 21.6614 52.5478 21.4556 52.1969 21.3582C51.8898 21.2607 51.5938 21.1957 51.5389 21.2066C51.4841 21.2174 51.2758 21.2499 51.1003 21.2932C50.9139 21.3365 50.6178 21.4556 50.4424 21.5423V21.5423ZM64.5333 17.1888H66.8361C68.0972 17.1888 69.3692 17.2321 69.6543 17.2971C69.9504 17.3512 70.3781 17.5353 70.6193 17.7086C70.8935 17.8927 71.1676 18.2284 71.365 18.5966C71.5843 19.0406 71.6611 19.3439 71.6611 19.8095C71.6611 20.2969 71.5843 20.5676 71.025 21.5748L71.4088 21.9538C71.6172 22.1596 71.8913 22.5278 72.0229 22.766C72.2093 23.1126 72.2642 23.3833 72.2642 24.1197C72.2642 24.9211 72.2313 25.1052 71.9791 25.5276C71.8146 25.7983 71.5075 26.1773 71.2882 26.3614C71.0689 26.5564 70.707 26.8055 70.4768 26.9029C70.1368 27.0545 69.6105 27.087 64.5333 27.152V17.1888ZM65.7396 21.0874C69.2157 21.0874 69.446 21.0658 69.764 20.8708C69.9614 20.7517 70.2026 20.4918 70.3013 20.2969C70.4219 20.0694 70.4548 19.8204 70.411 19.5713C70.3781 19.3655 70.2136 19.0515 70.0381 18.889C69.8736 18.7266 69.5666 18.5425 69.3583 18.4883C69.1499 18.4233 68.2507 18.38 67.3515 18.38H65.7396V21.0874ZM65.7396 25.9608C68.5578 25.9608 69.2596 25.9174 69.6324 25.8091C69.9614 25.7117 70.3123 25.5059 70.5206 25.2893C70.718 25.0944 70.9264 24.8236 70.9921 24.6829C71.0579 24.5529 71.1128 24.3038 71.1128 24.1197C71.1128 23.9356 71.047 23.6649 70.9592 23.4916C70.8825 23.3292 70.6412 23.0476 70.4439 22.8635C70.2136 22.6577 69.8517 22.4844 69.4898 22.4086C69.1828 22.3328 68.2069 22.2787 67.3296 22.2787H65.7396V25.9608ZM38.2156 20.0153C38.4897 20.0045 38.9503 20.0694 39.2573 20.1561C39.5534 20.2427 39.992 20.4377 40.628 20.8708V20.0045H41.8343V27.152H40.628V26.2856L40.321 26.4914C40.1565 26.6105 39.8056 26.7838 39.5315 26.8813C39.2354 26.9896 38.6981 27.0762 38.2156 27.0762C37.5576 27.087 37.2725 27.0329 36.79 26.8055C36.4611 26.6538 35.9786 26.3181 35.7154 26.0582C35.4522 25.7983 35.1342 25.3651 35.0026 25.0944C34.8052 24.6937 34.7614 24.4121 34.7614 23.5241C34.7614 22.5278 34.7833 22.3978 35.0903 21.8563C35.2658 21.5314 35.6167 21.1091 35.8579 20.9033C36.0992 20.7084 36.472 20.4593 36.6804 20.3618C36.8887 20.2644 37.2067 20.1453 37.3931 20.1019C37.5686 20.0586 37.9414 20.0261 38.2156 20.0153V20.0153ZM36.801 21.8238C36.5269 22.0404 36.2198 22.4195 36.1102 22.6577C36.0115 22.896 35.9128 23.2967 35.9128 23.5458C35.9128 23.8057 35.9786 24.1739 36.0553 24.358C36.1431 24.5529 36.3733 24.8995 36.5817 25.1269C36.79 25.3543 37.1519 25.6142 37.3931 25.7117C37.6563 25.8091 38.073 25.8633 38.4459 25.8308C38.8735 25.8091 39.1806 25.7117 39.5095 25.4951C39.7617 25.3326 40.1017 24.9753 40.2662 24.6829C40.4964 24.293 40.5732 24.0331 40.5622 23.5782C40.5622 23.1884 40.4855 22.831 40.332 22.5494C40.2004 22.3112 39.9811 22.0079 39.8385 21.8888C39.7069 21.7589 39.4328 21.5856 39.2573 21.4881C39.0709 21.4015 38.731 21.304 38.4897 21.2715C38.2485 21.239 37.8756 21.2607 37.6673 21.3149C37.4589 21.369 37.0642 21.5964 36.801 21.8238V21.8238ZM42.9308 20.0045H44.1371V20.7625L44.7073 20.4377C45.124 20.1994 45.5078 20.0911 46.8785 19.9503V21.1957H46.4399C46.1986 21.1957 45.8148 21.2715 45.5845 21.369C45.3652 21.4556 45.0582 21.6397 44.9156 21.7697C44.7731 21.8997 44.5428 22.2462 44.4002 22.5494C44.159 23.0584 44.1371 23.21 44.1371 27.152H42.9308V20.0045ZM60.0374 20.0478C60.4979 20.0694 60.9585 20.1669 61.3533 20.3402C61.6822 20.4918 62.1538 20.8059 62.395 21.0441C62.6363 21.2824 62.9543 21.7264 63.1078 22.0188C63.3381 22.4736 63.3819 22.701 63.3819 23.5782C63.3819 24.4771 63.349 24.672 63.0968 25.1485C62.9323 25.4409 62.5376 25.9283 62.2196 26.2098C61.8796 26.5131 61.3971 26.8055 61.0791 26.9138C60.7611 27.0112 60.2019 27.087 59.7632 27.087C59.1711 27.087 58.864 27.0221 58.3925 26.8055C58.0635 26.643 57.5811 26.3073 57.3179 26.0474C57.0547 25.7875 56.7367 25.3651 56.6051 25.0944C56.4077 24.6937 56.3639 24.4121 56.3639 23.5241C56.3639 22.5278 56.3858 22.3978 56.6928 21.8563C56.8683 21.5314 57.2192 21.1091 57.4604 20.9033C57.7017 20.7084 58.0745 20.4593 58.2829 20.3618C58.4912 20.2644 58.8092 20.1453 58.9956 20.1019C59.1711 20.0478 59.6426 20.0261 60.0374 20.0478V20.0478ZM58.3596 21.8672C58.0087 22.1704 57.7675 22.5061 57.6578 22.8202C57.5262 23.1667 57.5043 23.4699 57.5482 23.849C57.592 24.1414 57.7455 24.5746 57.8991 24.7912C58.0526 25.0186 58.3816 25.3326 58.6338 25.4951C58.9737 25.7225 59.2588 25.8091 59.7523 25.8308C60.2896 25.8633 60.5199 25.82 60.9146 25.6142C61.1997 25.4626 61.5506 25.1485 61.748 24.867C61.9345 24.6071 62.1209 24.1739 62.1647 23.9031C62.2196 23.6107 62.2086 23.2425 62.1318 22.9826C62.0551 22.7444 61.8467 22.3545 61.6493 22.1271C61.452 21.8996 61.123 21.6181 60.9146 21.5206C60.7063 21.4123 60.3335 21.304 60.0922 21.2715C59.851 21.239 59.4781 21.2607 59.2698 21.3149C59.0614 21.369 58.6447 21.6181 58.3596 21.8672V21.8672ZM77.1439 20.0478C77.6045 20.0694 78.065 20.1669 78.4598 20.3402C78.7888 20.4918 79.2603 20.8059 79.5016 21.0441C79.7428 21.2824 80.0608 21.7264 80.2143 22.0188C80.4446 22.4736 80.4885 22.701 80.4885 23.5782C80.4885 24.4771 80.4556 24.672 80.2034 25.1485C80.0389 25.4409 79.6441 25.9283 79.3261 26.2098C78.9862 26.5131 78.5037 26.8055 78.1857 26.9138C77.8677 27.0112 77.3084 27.087 76.8698 27.087C76.2776 27.087 75.9706 27.0221 75.4991 26.8055C75.1701 26.643 74.6876 26.3073 74.4244 26.0474C74.1612 25.7875 73.8432 25.3651 73.7117 25.0944C73.5143 24.6937 73.4704 24.4121 73.4704 23.5241C73.4704 22.5278 73.4923 22.3978 73.7994 21.8563C73.9748 21.5314 74.3257 21.1091 74.567 20.9033C74.8082 20.7084 75.1811 20.4593 75.3894 20.3618C75.5978 20.2644 75.9158 20.1453 76.1022 20.1019C76.2776 20.0478 76.7492 20.0261 77.1439 20.0478V20.0478ZM75.4662 21.8672C75.1153 22.1704 74.874 22.5061 74.7644 22.8202C74.6328 23.1667 74.6108 23.4699 74.6547 23.849C74.6986 24.1414 74.8521 24.5746 75.0056 24.7912C75.1591 25.0186 75.4881 25.3326 75.7403 25.4951C76.0802 25.7225 76.3654 25.8091 76.8588 25.8308C77.3961 25.8633 77.6264 25.82 78.0212 25.6142C78.3063 25.4626 78.6572 25.1485 78.8546 24.867C79.041 24.6071 79.2274 24.1739 79.2713 23.9031C79.3261 23.6107 79.3151 23.2425 79.2384 22.9826C79.1616 22.7444 78.9533 22.3545 78.7559 22.1271C78.5585 21.8996 78.2295 21.6181 78.0212 21.5206C77.8128 21.4123 77.44 21.304 77.1988 21.2715C76.9575 21.239 76.5847 21.2607 76.3763 21.3149C76.168 21.369 75.7513 21.6181 75.4662 21.8672V21.8672ZM81.6399 20.0045H82.8461V20.7625L83.4163 20.4377C83.7892 20.2319 84.2388 20.0911 84.6554 20.0478C85.0392 20.0045 85.5437 20.0261 85.8617 20.1019C86.1578 20.1669 86.6293 20.3835 86.8925 20.5784C87.1995 20.8059 87.4627 21.1307 87.6601 21.5206C87.9452 22.1054 87.9452 22.1596 88 27.152H86.7938L86.7609 24.7912C86.7389 22.6686 86.717 22.4086 86.5196 22.0729C86.399 21.8672 86.1797 21.6181 86.0262 21.499C85.8726 21.3907 85.5546 21.2715 85.3134 21.2282C85.0612 21.1957 84.6883 21.2282 84.4361 21.3149C84.1949 21.3907 83.8549 21.5856 83.6795 21.7372C83.504 21.8888 83.2409 22.257 83.0983 22.5494C82.868 23.0584 82.8461 23.2317 82.8461 27.152H81.6399V20.0045Z" fill="white"/>
</svg>
