<svg width="56" height="45" viewBox="0 0 56 45" fill="none" xmlns="http://www.w3.org/2000/svg">
<g clip-path="url(#clip0_2015_1017)">
<path d="M22.527 15.8887V27.3943H20.6473V15.8887H22.527Z" fill="white"/>
<path d="M24.3183 20.3826C24.6971 19.6792 25.2154 19.1324 25.8676 18.7422C26.5226 18.352 27.246 18.1555 28.0377 18.1555C28.7525 18.1555 29.3762 18.2951 29.9116 18.577C30.4442 18.859 30.8714 19.2064 31.1903 19.625V18.3065H33.0871V27.397H31.1903V26.0443C30.8714 26.4743 30.4356 26.8303 29.886 27.1179C29.3363 27.4027 28.7098 27.548 28.0064 27.548C27.226 27.548 26.5112 27.3486 25.8619 26.947C25.2125 26.5455 24.6999 25.9845 24.3183 25.2639C23.9395 24.5434 23.7487 23.7261 23.7487 22.8147C23.7487 21.9034 23.9395 21.0946 24.3183 20.3883V20.3826ZM30.803 21.2085C30.5439 20.7471 30.2078 20.394 29.7892 20.1519C29.3705 19.9098 28.9205 19.7902 28.4364 19.7902C27.9522 19.7902 27.5023 19.907 27.0836 20.1434C26.665 20.3797 26.3261 20.7272 26.0698 21.1829C25.8106 21.6385 25.6825 22.1825 25.6825 22.809C25.6825 23.4356 25.8106 23.9852 26.0698 24.458C26.3289 24.9307 26.6707 25.2896 27.0922 25.5373C27.5165 25.7851 27.9636 25.9076 28.4364 25.9076C28.9092 25.9076 29.3705 25.7879 29.7892 25.5459C30.2078 25.3038 30.5467 24.9507 30.803 24.4807C31.0622 24.0137 31.1903 23.4669 31.1903 22.8403C31.1903 22.2138 31.0622 21.6699 30.803 21.2056V21.2085Z" fill="white"/>
<path d="M36.1857 27.1548C35.6189 26.8956 35.1718 26.5453 34.8414 26.0982C34.5111 25.6539 34.3345 25.1555 34.3146 24.6059H36.2626C36.2967 24.9904 36.479 25.3122 36.8151 25.5713C37.1511 25.8305 37.5726 25.9587 38.0767 25.9587C38.5808 25.9587 39.0136 25.8561 39.307 25.6539C39.5975 25.4517 39.7456 25.1897 39.7456 24.8708C39.7456 24.529 39.5832 24.2784 39.2586 24.1132C38.9339 23.948 38.4184 23.7658 37.715 23.5693C37.0343 23.3813 36.479 23.2019 36.049 23.0253C35.6189 22.8487 35.2487 22.581 34.9354 22.2165C34.6222 21.8548 34.4655 21.3764 34.4655 20.7811C34.4655 20.297 34.6079 19.8556 34.8956 19.454C35.1803 19.0525 35.5904 18.7363 36.1259 18.5056C36.6584 18.275 37.2736 18.1582 37.9656 18.1582C38.9994 18.1582 39.8338 18.4202 40.4661 18.9414C41.0983 19.4654 41.4372 20.1774 41.4799 21.0773H39.6003C39.5661 20.6701 39.4038 20.3454 39.1048 20.1033C38.8086 19.8613 38.407 19.7416 37.9001 19.7416C37.3932 19.7416 37.0258 19.8356 36.7609 20.0236C36.4961 20.2116 36.3651 20.4593 36.3651 20.7669C36.3651 21.009 36.4534 21.2112 36.6299 21.3764C36.8065 21.5415 37.0201 21.6697 37.2736 21.7637C37.527 21.8577 37.9001 21.9744 38.3956 22.1168C39.0564 22.2934 39.5975 22.4728 40.0218 22.6522C40.4461 22.8345 40.8107 23.0993 41.1183 23.4525C41.4258 23.8056 41.5853 24.2727 41.5967 24.8537C41.5967 25.372 41.4543 25.8333 41.1667 26.2406C40.8819 26.6479 40.4775 26.9668 39.9535 27.1975C39.4294 27.4282 38.8171 27.5449 38.1137 27.5449C37.4103 27.5449 36.7581 27.4168 36.1914 27.1576L36.1857 27.1548Z" fill="white"/>
<path d="M44.6951 18.3035H42.8155V27.394H44.6951V18.3035Z" fill="white"/>
<path d="M48.1497 26.9556C47.4577 26.5654 46.9137 26.0158 46.515 25.3066C46.1192 24.5975 45.9227 23.7745 45.9227 22.8403C45.9227 21.9062 46.1249 21.0974 46.5321 20.3826C46.9394 19.6678 47.4947 19.1181 48.1982 18.7336C48.9016 18.3492 49.6876 18.1555 50.5562 18.1555C51.4249 18.1555 52.2109 18.3492 52.9143 18.7336C53.6178 19.1181 54.1731 19.6678 54.5803 20.3826C54.9876 21.0974 55.1898 21.9176 55.1898 22.8403C55.1898 23.7631 54.9819 24.5833 54.5633 25.2981C54.1446 26.0129 53.575 26.5654 52.8574 26.9556C52.1368 27.3458 51.3423 27.5423 50.4736 27.5423C49.605 27.5423 48.8389 27.3458 48.1469 26.9556H48.1497ZM51.8378 25.5601C52.2621 25.3294 52.6039 24.982 52.8687 24.5206C53.1336 24.0593 53.2646 23.4982 53.2646 22.8375C53.2646 22.1768 53.1393 21.6186 52.8858 21.1629C52.6324 20.7073 52.2963 20.3627 51.8805 20.132C51.4619 19.9013 51.0119 19.7845 50.5278 19.7845C50.0436 19.7845 49.5965 19.9013 49.1835 20.132C48.7706 20.3627 48.4431 20.7073 48.201 21.1629C47.9589 21.6186 47.8393 22.1768 47.8393 22.8375C47.8393 23.8172 48.0899 24.5719 48.5912 25.1073C49.0924 25.6399 49.7218 25.9076 50.4793 25.9076C50.9635 25.9076 51.4163 25.7908 51.8406 25.5601H51.8378Z" fill="white"/>
<path d="M13.9661 22.2792V18.3035H12.0865V27.394H13.9661V23.4838L17.3324 27.394H19.8727L15.6806 22.8573L19.8727 18.3035H17.2669L13.9661 22.2792Z" fill="white"/>
<path d="M4.24061 22.8824L0.712458 26.4106C0.698 26.425 0.698 26.4485 0.712458 26.4629L4.24061 29.9911C4.25507 30.0056 4.27851 30.0056 4.29297 29.9911L7.82112 26.4629C7.83558 26.4485 7.83558 26.425 7.82112 26.4106L4.29297 22.8824C4.27851 22.868 4.25507 22.868 4.24061 22.8824Z" fill="#CFCFCF"/>
<path d="M3.56269 15.0087L-6.10352e-05 18.5715V25.6713C-6.10352e-05 25.6941 0.0284182 25.7055 0.0455057 25.6913L3.58262 22.1542L7.14537 18.5914C7.14537 18.5914 7.15676 18.5658 7.14537 18.5544L3.59971 15.0087C3.59971 15.0087 3.57408 14.9973 3.56269 15.0087Z" fill="white"/>
</g>
<defs>
<clipPath id="clip0_2015_1017">
<rect width="55.1927" height="15" fill="white" transform="translate(0 15)"/>
</clipPath>
</defs>
</svg>
