<svg width="119" height="45" viewBox="0 0 119 45" fill="none" xmlns="http://www.w3.org/2000/svg">
<path d="M6.63259 31.1965L0.797931 25.3616C-0.265977 24.2977 -0.265977 22.5727 0.797931 21.509L8.30698 14L12.0274 17.7205C13.1875 18.8805 13.1875 20.7613 12.0274 21.9213L6.63259 27.3159C5.56122 28.3876 5.56122 30.1249 6.63259 31.1965Z" fill="white"/>
<path d="M13.9676 27.7417L10.5132 31.1961C9.44156 32.2677 7.70419 32.2677 6.63257 31.1961C5.56095 30.1245 5.56095 28.3871 6.63257 27.3155L12.1876 21.7605L13.9676 23.5405C15.1276 24.7008 15.1276 26.5816 13.9676 27.7417Z" fill="#CFCFCF"/>
<path d="M21.4781 27.9095H19.2657L22.7217 18.2223H24.7901L28.233 27.9095H25.9813L25.3006 25.8674H22.1719L21.4781 27.9095ZM23.481 22.0187L22.7872 24.087H24.6984L24.0046 22.0187C23.9523 21.8529 23.8999 21.6827 23.8475 21.5081C23.7952 21.3336 23.7603 21.1896 23.7428 21.0761C23.7254 21.1896 23.6904 21.3336 23.6381 21.5081C23.5944 21.6739 23.5421 21.8441 23.481 22.0187Z" fill="#FAFAFA"/>
<path d="M30.8659 27.9095H28.8499V18.0391H30.8659V27.9095Z" fill="#FAFAFA"/>
<path d="M32.1164 31.0513V21.3641H34.0146L34.1193 22.1627C34.3026 21.8572 34.5862 21.6129 34.9702 21.4296C35.3542 21.2463 35.7775 21.1547 36.24 21.1547C36.851 21.1547 37.3877 21.29 37.8502 21.5605C38.3128 21.831 38.6749 22.2194 38.9368 22.7256C39.1986 23.223 39.3295 23.8252 39.3295 24.5321C39.3295 25.2216 39.2073 25.8368 38.9629 26.3779C38.7273 26.9103 38.3782 27.3292 37.9157 27.6346C37.4619 27.9401 36.9077 28.0928 36.2531 28.0928C35.7993 28.0928 35.3804 28.0143 34.9964 27.8572C34.6124 27.7001 34.3244 27.4994 34.1324 27.255V31.0513H32.1164ZM34.1455 24.6368C34.1455 24.9597 34.211 25.2477 34.3419 25.5008C34.4815 25.7452 34.6691 25.9372 34.9048 26.0768C35.1491 26.2077 35.4284 26.2732 35.7426 26.2732C36.0655 26.2732 36.3404 26.2034 36.5673 26.0637C36.803 25.9241 36.9819 25.7321 37.104 25.4877C37.2349 25.2434 37.3004 24.9597 37.3004 24.6368C37.3004 24.3139 37.2349 24.0303 37.104 23.7859C36.9819 23.5416 36.803 23.3496 36.5673 23.2099C36.3404 23.0703 36.0655 23.0005 35.7426 23.0005C35.4284 23.0005 35.1491 23.0703 34.9048 23.2099C34.6691 23.3408 34.4815 23.5285 34.3419 23.7728C34.211 24.0172 34.1455 24.3052 34.1455 24.6368Z" fill="#FAFAFA"/>
<path d="M40.2281 27.9095V21.3641H42.2441V27.9095H40.2281ZM41.223 20.343C40.9001 20.343 40.6252 20.234 40.3983 20.0158C40.1801 19.7889 40.0711 19.514 40.0711 19.1911C40.0711 18.8681 40.1801 18.5976 40.3983 18.3794C40.6252 18.1612 40.9001 18.0522 41.223 18.0522C41.5372 18.0522 41.8034 18.1612 42.0216 18.3794C42.2485 18.5976 42.362 18.8681 42.362 19.1911C42.362 19.514 42.2485 19.7889 42.0216 20.0158C41.8034 20.234 41.5372 20.343 41.223 20.343Z" fill="#FAFAFA"/>
<path d="M45.5107 27.9095H43.4947V21.3641H45.3929L45.5238 22.0449C45.7245 21.7656 45.9994 21.5474 46.3485 21.3903C46.7063 21.2332 47.0991 21.1547 47.5267 21.1547C48.3034 21.1547 48.9056 21.3947 49.3332 21.8747C49.7696 22.3459 49.9878 23.0092 49.9878 23.8645V27.9095H47.9718V24.3488C47.9718 23.9387 47.867 23.6114 47.6576 23.367C47.4481 23.1139 47.1689 22.9874 46.8198 22.9874C46.4183 22.9874 46.0998 23.1096 45.8642 23.3539C45.6285 23.5896 45.5107 23.9125 45.5107 24.3227V27.9095Z" fill="#FAFAFA"/>
<path d="M54.2088 28.0797C53.5543 28.0797 52.9696 27.9314 52.4547 27.6346C51.9485 27.3379 51.547 26.9321 51.2503 26.4172C50.9623 25.8936 50.8183 25.2957 50.8183 24.6237C50.8183 23.943 50.958 23.3452 51.2372 22.8303C51.5252 22.3067 51.9223 21.8965 52.4285 21.5998C52.9347 21.303 53.515 21.1547 54.1696 21.1547C54.859 21.1547 55.4525 21.2987 55.9499 21.5867C56.4474 21.8659 56.8314 22.2674 57.1019 22.791C57.3725 23.3059 57.5077 23.9212 57.5077 24.6368V25.1474L51.8787 25.1736L51.9049 23.9299H55.5048C55.5048 23.5808 55.387 23.3059 55.1514 23.1052C54.9157 22.8958 54.5928 22.791 54.1827 22.791C53.8423 22.791 53.563 22.8565 53.3448 22.9874C53.1354 23.1183 52.9783 23.3234 52.8736 23.6027C52.7688 23.8732 52.7165 24.2223 52.7165 24.6499C52.7165 25.2608 52.8387 25.7146 53.083 26.0114C53.3361 26.2994 53.7245 26.4434 54.2481 26.4434C54.6321 26.4434 54.9507 26.3779 55.2037 26.247C55.4568 26.1161 55.6183 25.9328 55.6881 25.6972H57.5339C57.4205 26.4216 57.0626 27.0019 56.4605 27.4383C55.8583 27.8659 55.1077 28.0797 54.2088 28.0797Z" fill="#FAFAFA"/>
<path d="M68.0438 27.9095H61.8911V18.2223H68.0438V20.186H63.4227L64.0118 19.6361V22.0841H67.5856V23.943H64.0118V26.4957L63.4227 25.9459H68.0438V27.9095Z" fill="#FAFAFA"/>
<path d="M71.2843 27.9095H69.2683V21.3641H71.1534L71.3759 22.4899L71.1665 22.2543C71.2974 21.9925 71.533 21.7438 71.8734 21.5081C72.2137 21.2725 72.6545 21.1547 73.1955 21.1547C73.7715 21.1547 74.2341 21.2987 74.5832 21.5867C74.9323 21.8747 75.1897 22.2499 75.3555 22.7125H75.0413C75.1461 22.2499 75.3992 21.8747 75.8006 21.5867C76.2021 21.2987 76.6821 21.1547 77.2406 21.1547C78.0872 21.1547 78.7199 21.3816 79.1388 21.8354C79.5577 22.2805 79.7671 22.8783 79.7671 23.6288V27.9095H77.7512V24.1917C77.7512 23.7816 77.6508 23.4761 77.4501 23.2754C77.2581 23.0747 77.0006 22.9743 76.6777 22.9743C76.4857 22.9743 76.3024 23.0179 76.1279 23.1052C75.9533 23.1838 75.8093 23.3278 75.6959 23.5372C75.5824 23.7379 75.5257 24.0259 75.5257 24.4012V27.9095H73.5097V24.1917C73.5097 23.7816 73.4137 23.4805 73.2217 23.2885C73.0297 23.0878 72.7723 22.9874 72.4494 22.9874C72.2574 22.9874 72.0697 23.031 71.8865 23.1183C71.7119 23.1968 71.5679 23.3408 71.4545 23.5503C71.341 23.751 71.2843 24.0347 71.2843 24.4012V27.9095Z" fill="#FAFAFA"/>
<path d="M80.9467 31.0513V21.3641H82.8449L82.9496 22.1627C83.1329 21.8572 83.4166 21.6129 83.8005 21.4296C84.1845 21.2463 84.6078 21.1547 85.0704 21.1547C85.6813 21.1547 86.218 21.29 86.6805 21.5605C87.1431 21.831 87.5053 22.2194 87.7671 22.7256C88.0289 23.223 88.1598 23.8252 88.1598 24.5321C88.1598 25.2216 88.0376 25.8368 87.7932 26.3779C87.5576 26.9103 87.2085 27.3292 86.746 27.6346C86.2922 27.9401 85.738 28.0928 85.0835 28.0928C84.6296 28.0928 84.2107 28.0143 83.8267 27.8572C83.4427 27.7001 83.1547 27.4994 82.9627 27.255V31.0513H80.9467ZM82.9758 24.6368C82.9758 24.9597 83.0413 25.2477 83.1722 25.5008C83.3118 25.7452 83.4995 25.9372 83.7351 26.0768C83.9795 26.2077 84.2587 26.2732 84.5729 26.2732C84.8958 26.2732 85.1707 26.2034 85.3976 26.0637C85.6333 25.9241 85.8122 25.7321 85.9343 25.4877C86.0653 25.2434 86.1307 24.9597 86.1307 24.6368C86.1307 24.3139 86.0653 24.0303 85.9343 23.7859C85.8122 23.5416 85.6333 23.3496 85.3976 23.2099C85.1707 23.0703 84.8958 23.0005 84.5729 23.0005C84.2587 23.0005 83.9795 23.0703 83.7351 23.2099C83.4995 23.3408 83.3118 23.5285 83.1722 23.7728C83.0413 24.0172 82.9758 24.3052 82.9758 24.6368Z" fill="#FAFAFA"/>
<path d="M88.705 24.6237C88.705 23.9343 88.8577 23.3321 89.1632 22.8172C89.4774 22.2936 89.905 21.8878 90.4461 21.5998C90.9959 21.3118 91.6199 21.1678 92.3181 21.1678C93.0162 21.1678 93.6359 21.3118 94.177 21.5998C94.7181 21.8878 95.1413 22.2936 95.4468 22.8172C95.761 23.3321 95.918 23.9343 95.918 24.6237C95.918 25.3132 95.761 25.9154 95.4468 26.4303C95.1413 26.9452 94.7181 27.3466 94.177 27.6346C93.6359 27.9226 93.0162 28.0666 92.3181 28.0666C91.6199 28.0666 90.9959 27.9226 90.4461 27.6346C89.905 27.3466 89.4774 26.9452 89.1632 26.4303C88.8577 25.9154 88.705 25.3132 88.705 24.6237ZM90.7341 24.6107C90.7341 24.9423 90.7995 25.2347 90.9304 25.4877C91.0701 25.7321 91.2577 25.9241 91.4934 26.0637C91.729 26.1946 92.0039 26.2601 92.3181 26.2601C92.6322 26.2601 92.9072 26.1946 93.1428 26.0637C93.3784 25.9241 93.5617 25.7321 93.6926 25.4877C93.8235 25.2347 93.889 24.9423 93.889 24.6107C93.889 24.279 93.8235 23.991 93.6926 23.7467C93.5617 23.5023 93.3784 23.3147 93.1428 23.1838C92.9072 23.0441 92.6322 22.9743 92.3181 22.9743C92.0039 22.9743 91.729 23.0441 91.4934 23.1838C91.2577 23.3147 91.0701 23.5023 90.9304 23.7467C90.7995 23.991 90.7341 24.279 90.7341 24.6107Z" fill="#FAFAFA"/>
<path d="M97.9719 27.9095L95.8643 21.3641H97.985L98.5871 23.4979C98.6657 23.7772 98.7399 24.0739 98.8097 24.3881C98.8795 24.7023 98.9406 25.0252 98.993 25.3568C99.0366 25.1212 99.0759 24.9248 99.1108 24.7677C99.1457 24.6019 99.1893 24.4274 99.2417 24.2441C99.294 24.0521 99.3682 23.8034 99.4642 23.4979L100.132 21.3641H102.2L102.815 23.4979C102.833 23.5503 102.859 23.6594 102.894 23.8252C102.938 23.9823 102.986 24.1612 103.038 24.3619C103.09 24.5539 103.134 24.7416 103.169 24.9248C103.213 25.1081 103.243 25.2521 103.261 25.3568C103.287 25.1997 103.33 24.9903 103.391 24.7285C103.461 24.4579 103.527 24.2048 103.588 23.9692C103.658 23.7336 103.701 23.5765 103.719 23.4979L104.347 21.3641H106.481L104.19 27.9095H102.318L101.69 25.8281C101.524 25.287 101.397 24.8332 101.31 24.4667C101.223 24.1001 101.17 23.847 101.153 23.7074C101.127 23.847 101.074 24.0696 100.996 24.375C100.917 24.6805 100.773 25.1779 100.564 25.8674L99.9355 27.9095H97.9719Z" fill="#FAFAFA"/>
<path d="M109.815 28.0797C109.16 28.0797 108.575 27.9314 108.061 27.6346C107.554 27.3379 107.153 26.9321 106.856 26.4172C106.568 25.8936 106.424 25.2957 106.424 24.6237C106.424 23.943 106.564 23.3452 106.843 22.8303C107.131 22.3067 107.528 21.8965 108.034 21.5998C108.54 21.303 109.121 21.1547 109.775 21.1547C110.465 21.1547 111.058 21.2987 111.556 21.5867C112.053 21.8659 112.437 22.2674 112.708 22.791C112.978 23.3059 113.114 23.9212 113.114 24.6368V25.1474L107.485 25.1736L107.511 23.9299H111.111C111.111 23.5808 110.993 23.3059 110.757 23.1052C110.522 22.8958 110.199 22.791 109.788 22.791C109.448 22.791 109.169 22.8565 108.951 22.9874C108.741 23.1183 108.584 23.3234 108.479 23.6027C108.375 23.8732 108.322 24.2223 108.322 24.6499C108.322 25.2608 108.445 25.7146 108.689 26.0114C108.942 26.2994 109.33 26.4434 109.854 26.4434C110.238 26.4434 110.556 26.3779 110.81 26.247C111.063 26.1161 111.224 25.9328 111.294 25.6972H113.14C113.026 26.4216 112.668 27.0019 112.066 27.4383C111.464 27.8659 110.714 28.0797 109.815 28.0797Z" fill="#FAFAFA"/>
<path d="M118.549 21.3641V23.2623H117.907C117.331 23.2623 116.878 23.4019 116.546 23.6812C116.223 23.9605 116.062 24.423 116.062 25.0688V27.9095H114.046V21.3772H115.944L116.101 22.7779H115.918C116.005 22.3416 116.201 21.9838 116.507 21.7045C116.821 21.4165 117.244 21.2725 117.776 21.2725C117.899 21.2725 118.021 21.2812 118.143 21.2987C118.274 21.3074 118.409 21.3292 118.549 21.3641Z" fill="#FAFAFA"/>
</svg>
