<svg width="57" height="45" viewBox="0 0 57 45" fill="none" xmlns="http://www.w3.org/2000/svg">
<path d="M19.9171 26.4233H16.0565L15.4376 28.2177H12.8L16.5428 18.0591H19.4603L23.2031 28.2177H20.536L19.9171 26.4233ZM19.2687 24.5131L17.9868 20.7941L16.7196 24.5131H19.2687Z" fill="white"/>
<path d="M28.3456 22.1977H26.9899V28.2177H24.4702V22.1977H23.5567V20.1429H24.4702V19.9113C24.4702 18.9178 24.76 18.1629 25.3396 17.6466C25.9191 17.1306 26.7689 16.8726 27.8888 16.8724C28.0753 16.8724 28.2128 16.8773 28.3014 16.8869V18.9852C27.82 18.9562 27.481 19.0238 27.2846 19.1878C27.088 19.3519 26.9898 19.6462 26.9899 20.0705V20.1429H28.3456V22.1977Z" fill="white"/>
<path d="M33.6795 22.1977H32.3239V28.2177H29.8041V22.1977H28.8906V20.1429H29.8041V19.9113C29.8041 18.9178 30.0939 18.1629 30.6735 17.6466C31.253 17.1306 32.1028 16.8726 33.2227 16.8724C33.4092 16.8724 33.5467 16.8773 33.6353 16.8869V18.9852C33.1539 18.9562 32.815 19.0238 32.6186 19.1878C32.422 19.3519 32.3237 19.6462 32.3239 20.0705V20.1429H33.6795V22.1977Z" fill="white"/>
<path d="M35.1307 18.8937C34.9955 18.7746 34.8881 18.6283 34.8156 18.4648C34.7431 18.3012 34.7074 18.1242 34.7108 17.9459C34.7064 17.7653 34.7416 17.5859 34.8141 17.4198C34.8865 17.2538 34.9945 17.105 35.1307 16.9836C35.4107 16.7281 35.7717 16.6002 36.2137 16.6001C36.6459 16.6001 37.002 16.7279 37.282 16.9836C37.4182 17.105 37.5262 17.2538 37.5987 17.4198C37.6712 17.5859 37.7064 17.7653 37.702 17.9459C37.7054 18.1242 37.6696 18.3012 37.5972 18.4648C37.5247 18.6283 37.4172 18.7746 37.282 18.8937C37.0021 19.1495 36.646 19.2773 36.2137 19.2772C35.7717 19.2772 35.4107 19.1494 35.1307 18.8937ZM37.4662 20.1429V28.2177H34.9465V20.1429H37.4662Z" fill="white"/>
<path d="M46.3146 20.9749C46.8893 21.5877 47.1766 22.4294 47.1766 23.5001V28.2177H44.6716V23.833C44.6716 23.2928 44.5292 22.8731 44.2443 22.574C43.9593 22.2751 43.5762 22.1255 43.095 22.1254C42.6136 22.1254 42.2304 22.2749 41.9456 22.574C41.6606 22.8731 41.5182 23.2928 41.5183 23.833V28.2177H38.9986V20.1429H41.5183V21.2137C41.7827 20.8494 42.1378 20.5579 42.5498 20.3672C42.982 20.1598 43.4682 20.0561 44.0086 20.056C44.9712 20.056 45.7399 20.3623 46.3146 20.9749Z" fill="white"/>
<path d="M56.4892 24.7736H50.7867C50.8258 25.2753 50.9903 25.6588 51.2803 25.924C51.5699 26.1895 51.926 26.3221 52.3486 26.322C52.9771 26.322 53.4143 26.0615 53.66 25.5405H56.3418C56.2064 26.0669 55.9521 26.5565 55.5977 26.9732C55.232 27.403 54.7707 27.7446 54.2494 27.9717C53.7091 28.2129 53.1049 28.3335 52.437 28.3334C51.6314 28.3334 50.9143 28.1646 50.2857 27.8269C49.6623 27.4947 49.1505 26.992 48.8121 26.3798C48.4585 25.7529 48.2817 25.0197 48.2817 24.1803C48.2817 23.3409 48.4561 22.6077 48.8048 21.9807C49.139 21.3679 49.6487 20.8648 50.2709 20.5336C50.8995 20.196 51.6215 20.0272 52.437 20.0271C53.2327 20.0271 53.94 20.1911 54.5588 20.5191C55.1702 20.8399 55.6742 21.3274 56.0103 21.9228C56.3588 22.5306 56.5332 23.2397 56.5334 24.05C56.5328 24.2918 56.518 24.5334 56.4892 24.7736ZM53.9547 23.3988C53.9547 22.9744 53.8074 22.6368 53.5127 22.3859C53.218 22.1351 52.8496 22.0097 52.4075 22.0096C51.985 22.0096 51.6289 22.1302 51.3392 22.3714C51.0494 22.6127 50.8701 22.9551 50.8014 23.3988H53.9547Z" fill="white"/>
<path d="M10.6667 15H2.66667V28.3333H10.6667V15Z" fill="white"/>
<path d="M8 17.6667H0V31H8V17.6667Z" fill="white"/>
<path d="M8.00008 17.6667H2.66675V28.3334H8.00008V17.6667Z" fill="#CFCFCF"/>
</svg>
