<svg width="77" height="45" viewBox="0 0 77 45" fill="none" xmlns="http://www.w3.org/2000/svg">
<g clip-path="url(#clip0_2015_1127)">
<path d="M33.2438 20.8868V22.795H32.4995C31.9852 25.0957 30.253 26.3949 27.5057 26.3949C24.4336 26.3949 22.363 24.2972 22.363 21.3875C22.3766 18.4779 24.3795 16.3261 27.641 16.3261C30.4154 16.3261 32.3236 17.6794 32.4589 19.6417H29.4004C29.2515 19.0192 28.6019 18.5861 27.6546 18.5861C26.1118 18.5861 25.2998 19.6959 25.2998 21.2928C25.2998 22.8762 26.2065 23.9995 27.6275 23.9995C28.656 23.9995 29.3327 23.607 29.6034 22.795H28.047V20.8868H33.2438ZM36.7588 26.2866C34.8777 26.2866 33.7138 24.7979 33.7138 22.7409C33.7138 20.6703 34.9182 19.1816 36.7723 19.1816C37.8144 19.1816 38.5452 19.6823 38.8564 20.3725V19.3711H41.5225V26.0971H38.8564V25.0957C38.5587 25.7859 37.7738 26.2866 36.7588 26.2866ZM37.7061 24.1483C38.5046 24.1483 38.9782 23.5393 38.9782 22.7409C38.9782 21.9289 38.5046 21.3199 37.7061 21.3199C36.9483 21.3199 36.4611 21.9153 36.4611 22.7409C36.4611 23.5664 36.9483 24.1483 37.7061 24.1483ZM44.2464 19.141C43.3938 19.141 42.7713 18.4779 42.7713 17.6929C42.7713 16.8945 43.3938 16.2449 44.2464 16.2449C45.0855 16.2449 45.7216 16.8945 45.7216 17.6929C45.7216 18.4779 45.0855 19.141 44.2464 19.141ZM42.9202 26.0971V19.3711H45.5727V26.0971H42.9202ZM46.9744 26.0971V19.3711H49.6269V20.359C49.9788 19.5876 50.7366 19.1816 51.8058 19.1816C53.4568 19.1816 54.2688 20.1154 54.2688 21.9965V26.0971H51.5622V22.6732C51.5622 21.8071 51.278 21.4011 50.6284 21.4011C49.9652 21.4011 49.6269 21.8341 49.6269 22.7273V26.0971H46.9744ZM58.5923 26.3272C56.3999 26.3272 55.1277 25.4205 55.1277 24.0942H57.7668C57.7668 24.4731 58.0916 24.7303 58.6059 24.7303C58.9577 24.7303 59.2149 24.5543 59.2149 24.2566C59.2149 24.0401 59.0795 23.8912 58.7547 23.81L57.1578 23.4446C55.9398 23.1739 55.2495 22.4567 55.2495 21.4146C55.2495 20.0071 56.4541 19.1275 58.4029 19.1275C60.5953 19.1275 61.7321 19.8989 61.7321 21.2387H59.1201C59.1201 20.8462 58.8495 20.6567 58.4029 20.6567C58.051 20.6567 57.8209 20.8191 57.8209 21.0627C57.8209 21.3199 58.0104 21.4823 58.3893 21.577L59.9727 21.983C61.1501 22.2807 61.8403 22.8627 61.8403 23.9183C61.8403 25.3934 60.5817 26.3272 58.5923 26.3272ZM66.7405 24.1348C67.0247 24.1348 67.2007 24.1077 67.4172 24.0807V26.0971C67.0383 26.1648 66.5105 26.2325 65.7661 26.2325C64.5346 26.2325 63.1677 25.8941 63.1677 23.6747V21.4011H62.1798V19.3711H63.1677V17.4087H65.8203V19.3711H67.3495V21.4011H65.8203V23.1198C65.8203 23.9724 66.2669 24.1348 66.7405 24.1348ZM72.8424 19.3711H75.4949V25.6505C75.4949 26.8009 75.0618 27.6535 74.4799 28.1407C73.8303 28.6685 73.0995 28.8985 71.8274 28.8985C70.5282 28.8985 69.7432 28.682 69.1478 28.2083C68.647 27.7888 68.2546 27.1121 68.2546 26.4219H70.9071C70.9342 26.8415 71.2184 27.1121 71.8274 27.1121C72.4905 27.1121 72.8424 26.7467 72.8424 26.0295V24.7979C72.4905 25.5152 71.7597 25.9483 70.7447 25.9483C68.9583 25.9483 68.2546 24.825 68.2546 23.0792V19.3711H70.9071V22.7679C70.9071 23.5123 71.1507 23.9453 71.8274 23.9453C72.504 23.9453 72.8424 23.4717 72.8424 22.5514V19.3711Z" fill="white"/>
<path d="M15.6265 18.3471C10.7607 19.2734 8.58374 22.5965 8.04675 23.5553C7.99989 23.6418 7.95664 23.7283 7.90978 23.8184C7.90978 23.8184 10.8725 21.7171 12.671 21.4036C12.671 21.4036 13.2946 24.2041 13.7883 24.7916C13.7883 24.7916 9.26137 24.8312 6.13647 26.4315C6.13647 26.4315 6.5185 22.0811 4.89659 18.8697C6.3455 18.8661 10.7535 18.6823 13.4423 16.6459L14.1488 17.8533L17.4863 12L10.7499 12.036L11.6834 13.6363C8.13686 15.5682 4.02436 15.5106 1.46532 15.2042C0.690404 15.0961 -0.131369 14.9519 -1 14.7573C-1 14.7573 4.97226 21.7207 2.41325 31.8091C2.41325 31.8091 9.73351 25.9485 19.5984 28.7851C19.5984 28.7851 15.9798 23.4832 15.6265 18.3471Z" fill="white"/>
</g>
<defs>
<clipPath id="clip0_2015_1127">
<rect width="77" height="45" fill="white"/>
</clipPath>
</defs>
</svg>
