<svg width="77" height="45" viewBox="0 0 77 45" fill="none" xmlns="http://www.w3.org/2000/svg">
<g clip-path="url(#clip0_2017_1516)">
<g clip-path="url(#clip1_2017_1516)">
<path d="M42.2485 15.1787C43.7617 15.1027 45.2526 14.9831 46.711 15.3474C48.4064 15.7721 49.3307 16.9836 49.3698 18.7505C49.41 20.6024 48.545 21.8798 46.8541 22.3872C45.3464 22.842 43.7963 22.6107 42.1915 22.5928C43.1012 22.4453 43.0587 21.7703 43.0643 21.1645C43.0811 19.5474 43.0643 17.9291 43.0643 16.3119C43.0576 15.7643 42.9246 15.2994 42.2485 15.1787ZM43.8924 18.7382H43.9193C43.9193 19.6837 43.9092 20.6303 43.9249 21.5769C43.9316 21.9122 43.9953 22.2475 44.4177 22.3481C45.7108 22.6576 47.4889 21.8094 48.0432 20.6124C49.3139 17.8631 47.5962 15.2782 44.5786 15.3754C44.0891 15.391 43.869 15.5575 43.8813 16.0649C43.9081 16.9568 43.8924 17.8475 43.8924 18.7382Z" fill="white"/>
<path d="M32.5143 15.1683C33.7269 15.1091 34.9093 14.9873 36.0783 15.2398C36.9646 15.4321 37.4385 15.9104 37.5312 16.6469C37.643 17.4974 37.2786 18.2015 36.493 18.6329C35.9018 18.957 35.9018 18.957 36.3332 19.442C36.693 19.8689 37.0055 20.3336 37.2652 20.8278C37.8866 21.9387 38.0475 22.0829 39.1003 22.5679C37.9391 22.9032 37.3781 22.6797 36.7936 21.6806C36.4583 21.1028 36.123 20.5205 35.7699 19.955C35.5374 19.5692 35.1939 19.2626 34.7842 19.0754C34.4411 18.9234 34.1885 18.9726 34.1728 19.4107C34.1391 20.1906 34.154 20.9718 34.2175 21.7498C34.26 22.2081 34.5528 22.4282 34.963 22.6059H32.5043C33.4688 22.2818 33.3525 21.5498 33.3603 20.8938C33.376 19.4264 33.3603 17.9578 33.3536 16.4893C33.3548 15.8892 33.2899 15.3237 32.5143 15.1683ZM34.8937 15.3818C34.5986 15.3985 34.1963 15.3214 34.1851 15.8232C34.1661 16.6201 34.1751 17.4169 34.1851 18.2138C34.1851 18.4708 34.3159 18.606 34.5908 18.644C35.6659 18.7916 36.6025 18.1601 36.6763 17.2146C36.7668 16.0233 36.1756 15.4019 34.8937 15.3818Z" fill="white"/>
<path d="M70.8398 16.5679C70.8644 18.2957 70.7672 19.9475 70.9035 21.5971C70.9482 22.1257 71.2634 22.4174 71.7339 22.6208H69.6261C70.3771 22.3816 70.4945 21.777 70.5023 21.1445C70.5202 19.6189 70.5269 18.0923 70.5023 16.5623C70.4867 15.6682 70.2967 15.4369 69.5613 15.2067C70.2162 14.9317 70.7817 15.0491 71.1941 15.5609C72.5479 17.2426 73.8994 18.9257 75.2487 20.6102C75.3415 20.722 75.4331 20.8438 75.5315 20.9556C75.603 21.0361 75.6723 21.1579 75.7963 21.1232C75.9584 21.0774 75.9338 20.9154 75.9349 20.7879C75.9428 20.1375 75.9483 19.4859 75.9349 18.8344C75.9238 17.9973 75.9159 17.158 75.8757 16.3243C75.8478 15.7655 75.6756 15.2838 75.0073 15.143H77.181C76.4267 15.2782 76.325 15.8493 76.2803 16.4494C76.1562 18.1404 76.2467 19.8346 76.221 21.5267C76.221 21.7692 76.221 22.0106 76.2143 22.252C76.2143 22.3962 76.2367 22.5672 76.0456 22.623C75.8545 22.6789 75.7718 22.5493 75.6768 22.4319C75.2007 21.8359 74.7249 21.2398 74.2496 20.6438C73.2773 19.4189 72.3057 18.194 71.3349 16.9691C71.2287 16.8395 71.1438 16.664 70.8398 16.5679Z" fill="white"/>
<path d="M5.29307 18.9369H7.35727C6.80965 19.128 6.7493 19.5773 6.72583 20.031C6.699 20.5317 6.70348 21.0369 6.69454 21.5364C6.69454 21.7666 6.64424 21.9633 6.4319 22.1153C4.93991 23.1838 2.24092 22.9245 1.00933 21.5856C-0.05574 20.4278 -0.311669 18.5167 0.402475 17.0392C1.08086 15.6344 2.43315 14.8979 4.1263 15.0141C4.66516 15.0584 5.19618 15.171 5.70658 15.3494C6.48331 15.6076 6.60736 15.897 6.34808 16.9409C5.79934 15.5439 4.70969 15.212 3.40769 15.3204C2.57285 15.3885 1.89782 15.7842 1.52231 16.5385C0.75452 18.083 0.722106 19.6678 1.53348 21.1989C2.21298 22.4808 4.10395 22.9122 5.35007 22.15C5.70658 21.932 5.93681 21.6448 5.92005 21.2C5.90663 20.81 5.91334 20.4177 5.89322 20.0299C5.87087 19.5739 5.8351 19.1224 5.29307 18.9369Z" fill="white"/>
<path d="M64.1747 22.6253C64.6843 22.4241 64.653 22.0464 64.5446 21.6329C64.197 20.3052 64.1982 20.304 62.8269 20.3052C62.3061 20.3052 61.7853 20.3141 61.2622 20.3052C61.1314 20.291 60.9999 20.3261 60.8935 20.4036C60.7871 20.4811 60.7134 20.5954 60.6867 20.7243C60.614 20.9746 60.5347 21.2227 60.4632 21.4731C60.3279 21.9503 60.2229 22.4185 60.8934 22.6231H59.0304C59.9334 22.2252 60.1368 21.3546 60.4173 20.551C60.9091 19.1473 61.3807 17.7369 61.8456 16.3243C61.9931 15.8773 62.0859 15.4045 61.4891 15.1095C61.9093 15.1095 62.3295 15.0972 62.7498 15.1095C63.085 15.1218 63.1443 15.4067 63.2337 15.6481C63.9221 17.4955 64.6027 19.3452 65.2956 21.1903C65.5091 21.7592 65.6991 22.3582 66.3696 22.6186L64.1747 22.6253ZM62.4726 19.9978C62.8079 19.9978 63.1432 19.9978 63.4784 19.9978C63.7813 19.9978 63.9422 19.8727 63.8204 19.5441C63.4173 18.4481 63.0131 17.3517 62.6078 16.255C62.5709 16.1544 62.5419 16.0125 62.4033 16.0438C62.3362 16.0583 62.2703 16.1678 62.2412 16.2483C61.859 17.3324 61.4835 18.4198 61.1058 19.5061C60.9851 19.8514 61.1393 19.9956 61.4735 19.9989C61.8076 20.0023 62.1384 19.9989 62.4726 19.9978Z" fill="white"/>
<path d="M24.168 15.2021C24.2321 15.1682 24.2986 15.139 24.367 15.115C25.8355 14.9965 25.8344 14.9965 26.3507 16.379C26.9825 18.068 27.6158 19.7556 28.2506 21.4417C28.4294 21.9211 28.6395 22.3726 29.1805 22.6073H26.9721C27.6751 22.4341 27.5018 21.9546 27.3465 21.5009C26.8793 20.133 27.0928 20.323 25.7047 20.3051C25.1839 20.3051 24.6631 20.314 24.1401 20.3051C23.8171 20.3051 23.6092 20.4258 23.5254 20.7521C23.464 20.9857 23.3768 21.2126 23.3209 21.4473C23.2091 21.9356 23.0739 22.4374 23.7881 22.6286H21.8289C22.6246 22.3648 22.8694 21.6697 23.1074 20.9924C23.6595 19.4155 24.1915 17.8307 24.7179 16.2437C24.8688 15.7866 24.918 15.3385 24.168 15.2021ZM25.2644 16.0102C25.2309 16.0292 25.1817 16.0414 25.1728 16.066C24.7537 17.2384 24.3312 18.413 23.9244 19.5842C23.8026 19.9351 24.0451 20 24.32 20.0011C24.9526 20.0011 25.5852 19.9899 26.2199 20.0078C26.7195 20.0223 26.7877 19.8156 26.6256 19.3909C26.2401 18.385 25.878 17.3691 25.508 16.3577C25.451 16.2258 25.4354 16.0627 25.2644 16.0102Z" fill="white"/>
<path d="M11.2856 15.2143C11.8354 15.0645 13.2581 15.069 13.8561 15.1964C13.0581 15.3461 12.9519 15.8669 12.9542 16.4537C12.9542 17.683 12.9273 18.9124 12.9542 20.1417C12.991 21.608 13.7778 22.3982 15.1458 22.4127C16.5584 22.4272 17.4927 21.6002 17.5665 20.1898C17.6348 18.9266 17.6322 17.6606 17.5586 16.3978C17.5173 15.6512 17.3619 15.4724 16.6802 15.1617H18.8662C18.0269 15.307 17.9722 15.9686 17.9442 16.6057C17.9029 17.664 17.9152 18.7291 17.8906 19.7841C17.8392 22.0528 16.2511 23.2296 14.0405 22.6485C12.9094 22.3512 12.2724 21.589 12.1841 20.2904C12.1204 19.346 12.154 18.3905 12.1405 17.4461C12.1405 17.075 12.1249 16.7029 12.1081 16.3285C12.0813 15.7887 11.9729 15.307 11.2856 15.2143Z" fill="white"/>
<path d="M53.248 15.095C53.8772 15.095 54.5075 15.095 55.1367 15.095C55.3168 15.0961 55.4961 15.1186 55.6709 15.162C54.9031 15.3755 54.8763 15.9835 54.8718 16.5747C54.8584 18.1549 54.8618 19.7352 54.8718 21.3155C54.8718 21.881 54.9747 22.4085 55.6542 22.613H53.2167C53.904 22.4309 54.0247 21.9123 54.0236 21.3166C54.0236 19.6626 54.0359 18.0074 54.0102 16.3534C53.9979 15.5845 53.8928 15.4861 53.248 15.095Z" fill="white"/>
<path d="M12.1884 28.9862C21.3783 28.9862 28.8283 28.9522 28.8283 28.9102C28.8283 28.8683 21.3783 28.8342 12.1884 28.8342C2.99845 28.8342 -4.45148 28.8683 -4.45148 28.9102C-4.45148 28.9522 2.99845 28.9862 12.1884 28.9862Z" fill="white"/>
<path d="M60.8396 30.1052C60.577 29.6034 60.8497 29.058 60.6161 28.5406C60.3568 28.8133 60.3009 29.134 60.1545 29.4023C60.0428 29.6079 60.0428 29.9745 59.7924 29.9767C59.4918 29.9767 59.5164 29.59 59.3968 29.3732C59.2571 29.1173 59.2135 28.8144 58.9688 28.5283C58.7452 29.0458 58.9889 29.5867 58.7553 30.1253C58.5038 29.7901 58.6111 29.4749 58.6 29.1855C58.5821 28.7217 58.6 28.2556 58.6 27.7907C58.6 27.6789 58.6067 27.5493 58.7408 27.5202C58.8749 27.4912 58.9229 27.632 58.9643 27.7236C59.1353 28.1159 59.2906 28.5138 59.4639 28.9049C59.5365 29.0681 59.5544 29.3263 59.7656 29.3319C60.0159 29.3386 60.0294 29.0558 60.1109 28.8848C60.2909 28.4981 60.4462 28.1025 60.6206 27.708C60.6563 27.6242 60.6954 27.5303 60.805 27.5236C60.891 27.5236 60.929 27.5795 60.9603 27.6543C61.0486 27.8477 60.9704 29.789 60.8396 30.1052Z" fill="white"/>
<path d="M72.4023 27.5752C72.4023 28.3296 72.4023 29.0851 72.4023 29.8394C72.4023 29.9512 72.3855 30.0741 72.2413 30.0931C72.0972 30.1121 72.048 29.9981 71.9887 29.9076C71.7183 29.4852 71.4579 29.056 71.183 28.6369C71.0857 28.4905 71.0377 28.2893 70.794 28.2312C70.6041 28.828 70.8499 29.4695 70.6387 30.0529H70.4789C70.4789 29.2538 70.442 28.4536 70.4968 27.659C70.5191 27.3438 70.7538 27.4835 70.8689 27.659C71.1439 28.0792 71.4009 28.5106 71.6736 28.932C71.7854 29.0974 71.839 29.3097 72.0905 29.4092C72.295 28.8023 72.0636 28.1619 72.2369 27.5696L72.4023 27.5752Z" fill="white"/>
<path d="M46.6015 30.1127C46.1601 30.2736 45.7756 30.2244 45.3968 30.182C45.1811 30.1607 45.085 29.9875 45.0827 29.783C45.076 29.1325 45.076 28.4821 45.0827 27.8317C45.0827 27.5802 45.2001 27.3947 45.475 27.3846C45.8181 27.3656 46.1646 27.3321 46.5747 27.4416C46.1847 27.8071 45.3554 27.3299 45.3722 28.1826C45.3811 28.6475 45.7835 28.5771 46.2081 28.7C45.6985 28.899 45.2023 29.004 45.3811 29.5941C45.5644 30.2244 46.1769 29.793 46.6015 30.1127Z" fill="white"/>
<path d="M56.6766 28.6675C56.6766 29.1145 56.633 29.4599 56.4318 29.7661C56.3332 29.918 56.197 30.0419 56.0365 30.1258C55.876 30.2097 55.6965 30.2507 55.5155 30.245C55.3345 30.2393 55.158 30.1869 55.0031 30.0931C54.8482 29.9992 54.7202 29.8669 54.6314 29.7091C54.3732 29.2486 54.3609 28.7513 54.4838 28.2562C54.6347 27.6471 55.0281 27.3364 55.5813 27.3532C56.1345 27.3699 56.5089 27.7209 56.6352 28.3188C56.6562 28.434 56.67 28.5505 56.6766 28.6675ZM56.415 28.6574C56.4146 28.5603 56.403 28.4635 56.3804 28.3691C56.2686 27.9477 56.0798 27.5957 55.5735 27.5868C55.0672 27.5778 54.8549 27.9019 54.7308 28.3288C54.6119 28.7247 54.6462 29.1507 54.8269 29.5224C54.8817 29.6624 54.977 29.7828 55.1007 29.8682C55.2243 29.9537 55.3707 30.0002 55.521 30.0019C55.8562 30.0108 56.0798 29.8376 56.2396 29.5548C56.3692 29.3302 56.4285 29.0776 56.415 28.6597V28.6574Z" fill="white"/>
<path d="M28.284 28.7536C27.9119 28.9123 27.4581 28.8755 27.5017 29.4242C27.5665 30.3295 28.3958 29.7338 28.7713 30.1126C28.3466 30.297 27.9309 30.2311 27.5274 30.1752C27.248 30.1361 27.2301 29.8791 27.2279 29.6511C27.2279 29.1135 27.2402 28.5759 27.2189 28.0395C27.1977 27.5343 27.4145 27.3175 27.9141 27.3689C28.1488 27.3924 28.3947 27.3164 28.6551 27.4673C28.3254 27.8026 27.5039 27.2572 27.5017 28.1323C27.4972 28.6531 27.9689 28.5413 28.284 28.7536Z" fill="white"/>
<path d="M39.7328 30.056C38.7482 29.2223 38.4554 29.2223 37.8541 30.0907C37.6753 30.0415 37.7569 29.9096 37.786 29.8214C38.0095 29.1508 38.233 28.4858 38.4688 27.8231C38.5146 27.6935 38.5336 27.5001 38.7247 27.5035C38.8845 27.5035 38.9069 27.6744 38.9482 27.7907C39.2131 28.5484 39.4713 29.3006 39.7328 30.056ZM38.7068 28.1103C38.5549 28.4657 38.1928 28.7809 38.4487 29.1731C38.5347 29.305 38.8544 29.3006 38.955 29.1519C39.2243 28.7563 38.8935 28.4445 38.7068 28.1103Z" fill="white"/>
<path d="M32.2627 27.7717C32.057 27.7181 32.0023 27.7102 31.952 27.6901C31.6457 27.5661 31.2993 27.4554 31.1261 27.8287C30.9405 28.2243 31.2937 28.3763 31.5731 28.5272C31.705 28.5965 31.8413 28.658 31.9676 28.7351C32.3197 28.9519 32.4985 29.2615 32.4001 29.6761C32.3163 30.027 32.047 30.1935 31.7061 30.2282C31.2959 30.2695 30.9595 30.1421 30.7327 29.7554C30.9707 29.618 31.0467 29.8057 31.1607 29.8672C31.5127 30.065 31.8637 30.1064 32.0783 29.7163C32.2839 29.3453 32.0403 29.0827 31.7273 28.896C31.553 28.7921 31.3596 28.7172 31.1831 28.6144C30.907 28.4546 30.7226 28.2266 30.7774 27.8857C30.7983 27.755 30.8612 27.6347 30.9566 27.543C31.0519 27.4512 31.1746 27.393 31.306 27.3772C31.6379 27.3191 31.9609 27.3191 32.2627 27.7717Z" fill="white"/>
<path d="M68.559 30.0603C67.6124 29.2165 67.2894 29.2165 66.668 30.0949C66.4769 30.0122 66.5875 29.8714 66.6211 29.7674C66.8334 29.1148 67.0547 28.4651 67.2849 27.8184C67.3296 27.6898 67.3419 27.4965 67.542 27.5054C67.7029 27.5121 67.7219 27.6753 67.7655 27.7926C68.0315 28.5481 68.296 29.304 68.559 30.0603ZM67.5408 28.1067C67.3453 28.442 67.0402 28.7638 67.2547 29.1595C67.3352 29.3081 67.656 29.2969 67.761 29.1595C68.0717 28.7717 67.6973 28.4576 67.542 28.1067H67.5408Z" fill="white"/>
<path d="M52.5528 27.8679C51.9638 27.5728 51.5235 27.4354 51.1558 27.9025C50.8428 28.2993 50.8339 29.2191 51.1356 29.656C51.396 30.0316 51.6587 30.0617 52.4667 29.8069C52.2153 30.302 51.5581 30.3925 51.0898 29.9969C50.4919 29.4918 50.4774 28.1361 51.0652 27.6086C51.4933 27.2242 52.1169 27.2745 52.5528 27.8679Z" fill="white"/>
<path d="M63.0404 30.0357C63.0404 29.2646 63.0404 28.4923 63.046 27.7212C63.0469 27.6757 63.058 27.631 63.0785 27.5904C63.099 27.5498 63.1284 27.5143 63.1645 27.4865C63.3757 27.3878 63.6072 27.3404 63.8402 27.348C64.0732 27.3555 64.3012 27.4179 64.5056 27.5301C64.8408 27.7056 64.9157 28.0475 64.8408 28.4007C64.7403 28.8477 64.4072 29.0478 63.977 29.0254C63.4427 28.9975 63.2203 29.2165 63.265 29.7418C63.2587 29.8461 63.2384 29.9491 63.2047 30.048L63.0404 30.0357ZM63.7836 28.8064C64.2407 28.8153 64.5838 28.7013 64.5894 28.2096C64.5894 27.7514 64.2753 27.6296 63.8797 27.6016C63.4584 27.5726 63.2561 27.7357 63.2628 28.1761C63.2673 28.5605 63.35 28.8433 63.7836 28.8019V28.8064Z" fill="white"/>
<path d="M76.1585 27.5479C75.7953 28.3581 75.2007 29.0913 75.3762 30.0815L75.099 30.0971C75.3047 29.0723 74.6296 28.3526 74.3502 27.4875C74.6956 27.6697 74.7805 28.0229 74.9504 28.3123C75.1415 28.6375 75.3046 28.6666 75.4969 28.3213C75.6567 28.0351 75.8322 27.7569 75.992 27.4741L76.1585 27.5479Z" fill="white"/>
<path d="M34.3517 27.4975C34.8345 27.3459 35.3505 27.3351 35.8393 27.4662C35.0569 27.6093 35.2156 28.177 35.2101 28.6632C35.2045 29.127 35.2101 29.5908 35.2101 30.0546H34.9385C34.9385 29.4958 34.9385 28.937 34.9385 28.3782C34.9329 27.9893 34.9664 27.559 34.3517 27.4975Z" fill="white"/>
<path d="M42.339 30.0356C42.1713 29.4914 42.2339 28.9359 42.2339 28.3861C42.2339 27.948 42.2339 27.5501 41.6136 27.5032C42.1143 27.3109 42.5737 27.3489 43.1079 27.4786C42.3434 27.5635 42.4775 28.0933 42.4619 28.5571C42.4451 29.0488 42.5312 29.5539 42.339 30.0356Z" fill="white"/>
</g>
</g>
<defs>
<clipPath id="clip0_2017_1516">
<rect width="77" height="45" fill="white"/>
</clipPath>
<clipPath id="clip1_2017_1516">
<rect width="77.1856" height="15.2451" fill="white" transform="translate(0 15)"/>
</clipPath>
</defs>
</svg>
