<svg width="81" height="45" viewBox="0 0 81 45" fill="none" xmlns="http://www.w3.org/2000/svg">
<path d="M7.09048 28.4587C6.68085 28.7237 6.20182 28.8611 5.71403 28.8536C5.23677 28.859 4.76811 28.7265 4.36428 28.4721C3.96553 28.2211 3.64191 27.8672 3.42757 27.4476C3.19449 26.984 3.07793 26.4707 3.08799 25.9519C3.07807 25.4338 3.19153 24.9208 3.41899 24.4553C3.62684 24.0359 3.94466 23.6808 4.33853 23.4279C4.73768 23.1755 5.20175 23.0449 5.67396 23.0521C6.15833 23.044 6.63535 23.1712 7.05137 23.4193C7.25272 23.5399 7.43554 23.689 7.59413 23.8619C7.72343 24.0073 7.89375 24.1099 8.08262 24.1564C8.27148 24.2029 8.47001 24.191 8.65199 24.1224L9.86056 23.6578C9.5297 22.8777 8.95686 22.2246 8.22656 21.7949C7.48217 21.3577 6.63255 21.1321 5.76935 21.1424C4.83963 21.1424 4.01675 21.3472 3.3007 21.7567C2.59338 22.1586 2.00925 22.746 1.61138 23.4556C1.20375 24.1786 0.999939 25.0111 0.999939 25.9529C0.999939 26.8947 1.20502 27.7268 1.61519 28.4492C2.01443 29.1606 2.60187 29.7484 3.3131 30.148C4.03551 30.5576 4.86762 30.7627 5.80942 30.7633C6.68333 30.7759 7.54194 30.5332 8.27997 30.065C9.00776 29.5986 9.57402 28.9191 9.90157 28.1191L9.06883 27.7986C8.79825 27.6968 8.50397 27.6756 8.2216 27.7376C7.93922 27.7995 7.68085 27.942 7.47776 28.1477C7.35996 28.2647 7.23015 28.369 7.09048 28.4587Z" fill="white"/>
<path d="M41.9568 28.4674C41.6902 28.6168 41.4056 28.7312 41.1098 28.8079C40.6233 28.9234 40.1359 28.8948 39.8134 28.5418C39.6119 28.3212 39.5111 27.9972 39.5111 27.5698V23.1257H41.0373C41.2903 23.1257 41.5329 23.0252 41.7118 22.8463C41.8907 22.6674 41.9912 22.4248 41.9912 22.1718V21.3639H39.5111V20.1238C39.5111 19.9985 39.4864 19.8745 39.4385 19.7588C39.3905 19.643 39.3203 19.5379 39.2317 19.4493C39.1431 19.3607 39.0379 19.2905 38.9222 19.2425C38.8065 19.1946 38.6824 19.1699 38.5572 19.1699H37.4736V21.3639H35.3197C35.5524 21.6617 35.749 21.9861 35.9054 22.3301C36.003 22.5895 36.0823 22.8553 36.1429 23.1257H37.4783V27.9552C37.4783 29.303 38.3712 30.3962 39.6837 30.7005C40.7645 30.9504 41.8996 30.503 42.8315 29.923C42.6474 29.6817 42.4433 29.4614 42.2926 29.1885C42.1648 28.9559 42.0526 28.715 41.9568 28.4674Z" fill="white"/>
<path d="M17.1062 21.561C17.1443 21.5199 17.2016 21.4885 17.2397 21.4484C15.9224 21.2052 14.9123 21.56 14.4582 21.7947C13.9071 22.0903 13.4421 22.5238 13.1085 23.0528V22.3164C13.1085 22.0634 13.008 21.8208 12.8291 21.6419C12.6502 21.463 12.4076 21.3625 12.1546 21.3625H11.0529V29.6079C11.0529 29.8609 11.1534 30.1035 11.3322 30.2824C11.5111 30.4613 11.7538 30.5618 12.0067 30.5618H13.1085V25.6226C13.1085 24.7736 13.5854 24.0878 14.3361 23.7148C14.7165 23.497 15.1352 23.3545 15.5695 23.2951C15.704 23.2789 15.8156 23.2827 15.9377 23.2779L16.2239 22.7896C16.4761 22.3515 16.7717 21.9399 17.1062 21.561Z" fill="white"/>
<path d="M22.9059 29.3764L22.9202 29.6625C22.933 29.9068 23.039 30.1369 23.2166 30.3052C23.3941 30.4735 23.6295 30.5671 23.8741 30.5668H24.8595L24.9148 25.517C24.9148 24.5987 24.7711 23.8152 24.4836 23.1666C24.2121 22.5367 23.7435 22.0118 23.1482 21.6709C22.5479 21.3218 21.8013 21.1472 20.9085 21.1472C20.209 21.1472 19.6125 21.2512 19.119 21.4591C18.8888 21.5557 18.6683 21.6742 18.4608 21.813C18.2519 21.9489 18.0598 22.109 17.8885 22.29C17.606 22.6112 17.3568 22.9602 17.1445 23.3316C17.5476 23.4056 17.9403 23.5283 18.3139 23.6969C18.4867 23.7731 18.6782 23.7962 18.8641 23.7634C19.0501 23.7307 19.2221 23.6435 19.3584 23.5128C19.4761 23.3973 19.6086 23.2979 19.7524 23.2171C20.1076 23.0274 20.5059 22.9327 20.9085 22.9424C21.3861 22.9424 21.7676 23.0553 22.0532 23.2811C22.3574 23.5329 22.5755 23.8733 22.677 24.255C22.7491 24.5044 22.7986 24.7598 22.8248 25.0181H20.5069C19.3565 25.0181 18.4602 25.2689 17.8179 25.7707C17.1756 26.2724 16.8545 27.0009 16.8545 27.956C16.8545 28.8501 17.1572 29.5417 17.7626 30.0307C18.368 30.5198 19.2217 30.7646 20.3238 30.7652C21.4252 30.7652 22.2271 30.4069 22.7295 29.6902C22.7935 29.5886 22.8524 29.4839 22.9059 29.3764ZM21.7947 28.7268C21.4279 28.9419 21.0083 29.0503 20.5832 29.0396C20.0681 29.0396 19.6684 28.9385 19.3804 28.7363C19.2433 28.6452 19.1316 28.5207 19.056 28.3745C18.9804 28.2283 18.9433 28.0652 18.9483 27.9007C18.9406 27.7109 18.9822 27.5224 19.0691 27.3535C19.1561 27.1847 19.2853 27.0413 19.4443 26.9373C19.7756 26.7103 20.3511 26.5967 21.1708 26.5967H22.8783V26.7446C22.8834 27.1481 22.7849 27.5462 22.5921 27.9007C22.4036 28.2414 22.1285 28.5264 21.7947 28.7268Z" fill="white"/>
<path d="M33.3141 21.5838C32.7939 21.29 32.1665 21.1431 31.432 21.1431C30.7666 21.1263 30.1123 21.3155 29.5586 21.6849C29.194 21.9543 28.8907 22.298 28.6686 22.6932L28.6343 22.2449C28.616 22.0046 28.5075 21.7802 28.3305 21.6167C28.1536 21.4533 27.9213 21.3628 27.6804 21.3635H26.6407V29.6088C26.6407 29.8618 26.7412 30.1044 26.9201 30.2833C27.099 30.4622 27.3416 30.5627 27.5946 30.5627H28.6963V25.7513C28.6963 24.8827 28.8871 24.2149 29.2686 23.7482C29.6381 23.2954 30.1522 23.069 30.8111 23.069H30.8654C31.2317 23.06 31.5945 23.1419 31.9214 23.3075C32.2222 23.4665 32.4546 23.745 32.6187 24.1431C32.7827 24.5412 32.8654 25.1075 32.8667 25.8419V29.6069C32.8667 29.8599 32.9672 30.1025 33.1461 30.2814C33.325 30.4603 33.5676 30.5608 33.8206 30.5608H34.9223V25.3641C34.9223 24.372 34.7849 23.5673 34.5102 22.9498C34.2355 22.3323 33.8368 21.877 33.3141 21.5838Z" fill="white"/>
<path d="M51.5092 23.6029C51.1238 22.8074 50.6004 22.1985 49.9391 21.7762C49.2759 21.3536 48.5038 21.1335 47.7175 21.1429C46.8725 21.1276 46.039 21.3397 45.3042 21.7572C44.6044 22.161 44.0285 22.7484 43.6387 23.456C43.2342 24.1791 43.0323 25.0115 43.033 25.9533C43.0336 26.8951 43.2323 27.7272 43.6291 28.4496C44.0095 29.1537 44.5744 29.741 45.2631 30.1485C45.9861 30.567 46.8098 30.7798 47.645 30.7637C48.2786 30.774 48.9092 30.6746 49.5089 30.4699C50.0324 30.2867 50.5133 29.9992 50.9225 29.6248C51.3218 29.2565 51.6542 28.8217 51.905 28.3399L50.8205 27.8792C50.6346 27.7978 50.4279 27.7769 50.2296 27.8193C50.0312 27.8618 49.8512 27.9655 49.7149 28.1157C49.5696 28.28 49.4046 28.4258 49.2237 28.5498C48.8567 28.8009 48.3916 28.9262 47.8281 28.9256C47.3621 28.9301 46.9026 28.8162 46.4927 28.5946C46.0883 28.374 45.7519 28.0472 45.5197 27.6493C45.3149 27.2806 45.1995 26.8689 45.183 26.4474H52.0929C52.0898 25.3473 51.8952 24.3991 51.5092 23.6029ZM45.3089 24.8697C45.3461 24.4881 45.4425 24.1514 45.6409 23.8872C45.8797 23.5683 46.1958 23.3155 46.5595 23.1527C46.9048 22.9924 47.2805 22.9079 47.6612 22.9047C48.0276 22.9048 48.389 22.9896 48.7171 23.1527C49.055 23.32 49.3429 23.5733 49.5518 23.8872C49.7311 24.1514 49.8179 24.4891 49.8513 24.8697H45.3089Z" fill="white"/>
<path d="M59.1355 28.6957C58.7248 28.9605 58.2448 29.0976 57.7562 29.0897C57.2795 29.0967 56.8109 28.9662 56.4065 28.7138C56.0074 28.4616 55.6838 28.1063 55.4697 27.6855C55.2366 27.2217 55.12 26.708 55.1302 26.1889C55.1219 25.6707 55.2373 25.1579 55.4669 24.6932C55.6737 24.2735 55.9909 23.918 56.3845 23.6649C56.783 23.4105 57.2472 23.2779 57.7199 23.2834C58.2043 23.2757 58.6812 23.4028 59.0974 23.6506C59.2985 23.7718 59.4813 23.9212 59.6401 24.0942C59.7695 24.2393 59.9399 24.3418 60.1288 24.3881C60.3176 24.4345 60.5161 24.4224 60.698 24.3536L61.9065 23.8891C61.5754 23.1092 61.0026 22.4562 60.2725 22.0262C59.527 21.5883 58.676 21.3627 57.8115 21.3737C56.9487 21.3571 56.097 21.5694 55.3429 21.989C54.6353 22.3923 54.0514 22.9814 53.6545 23.6926C53.5791 23.8252 53.5467 23.9788 53.4847 24.1209C53.1924 24.7712 53.0406 25.4759 53.0392 26.1889C53.0392 27.1326 53.2443 27.965 53.6545 28.6862C53.6803 28.731 53.7194 28.7625 53.7499 28.8073C54.1408 29.4626 54.694 30.006 55.3562 30.385C56.0786 30.7946 56.9107 30.9993 57.8525 30.9993C58.7264 31.0123 59.585 30.77 60.3231 30.302C61.0509 29.8352 61.6171 29.1554 61.9447 28.3552L60.7743 27.9049C60.5848 27.8333 60.3774 27.8234 60.182 27.8767C59.9865 27.9299 59.8128 28.0437 59.6859 28.2016C59.5294 28.394 59.3437 28.5608 59.1355 28.6957Z" fill="white"/>
<path d="M71.078 23.1873C70.8389 22.6114 70.416 22.1307 69.8751 21.8204C69.3498 21.5272 68.7257 21.3803 68.0026 21.3797C67.3376 21.3632 66.6837 21.5524 66.1302 21.9215C65.7836 22.1793 65.4917 22.5036 65.2717 22.8754V20.1272C65.2717 19.8742 65.1712 19.6316 64.9923 19.4527C64.8134 19.2738 64.5708 19.1733 64.3178 19.1733H63.2103V29.8482C63.2103 30.1012 63.3108 30.3439 63.4897 30.5227C63.6686 30.7016 63.9112 30.8021 64.1642 30.8021H65.2669V25.9917C65.2669 25.123 65.4535 24.4553 65.8268 23.9885C66.2001 23.5218 66.7359 23.2954 67.4341 23.3094C67.7942 23.3019 68.1504 23.3838 68.471 23.5478C68.7715 23.7062 69.0061 23.9847 69.1778 24.3825C69.3495 24.7803 69.4354 25.3469 69.4354 26.0814V29.8463C69.4354 30.0993 69.5359 30.3419 69.7148 30.5208C69.8936 30.6997 70.1363 30.8002 70.3893 30.8002H71.4919V25.6044C71.4919 24.6111 71.3539 23.8054 71.078 23.1873Z" fill="white"/>
<path d="M73.9882 15H73.7488C72.6478 15 71.7552 15.8926 71.7552 16.9936V17.233C71.7552 18.3341 72.6478 19.2267 73.7488 19.2267H73.9882C75.0893 19.2267 75.9818 18.3341 75.9818 17.233V16.9936C75.9818 15.8926 75.0893 15 73.9882 15Z" fill="white"/>
<path d="M78.7792 15H78.5398C77.4388 15 76.5462 15.8926 76.5462 16.9936V17.233C76.5462 18.3341 77.4388 19.2267 78.5398 19.2267H78.7792C79.8803 19.2267 80.7729 18.3341 80.7729 17.233V16.9936C80.7729 15.8926 79.8803 15 78.7792 15Z" fill="white"/>
<path d="M76.3846 19.1125H76.1452C75.0442 19.1125 74.1516 20.0051 74.1516 21.1062V21.3456C74.1516 22.4466 75.0442 23.3392 76.1452 23.3392H76.3846C77.4857 23.3392 78.3783 22.4466 78.3783 21.3456V21.1062C78.3783 20.0051 77.4857 19.1125 76.3846 19.1125Z" fill="white"/>
</svg>
