<svg width="55" height="45" viewBox="0 0 55 45" fill="none" xmlns="http://www.w3.org/2000/svg">
<g clip-path="url(#clip0_2015_843)">
<g clip-path="url(#clip1_2015_843)">
<path d="M7.38796 23.3747C6.89618 24.2365 5.97678 24.7714 4.98948 24.7714C3.46786 24.7714 2.22907 23.5337 2.22907 22.0117C2.22907 20.4897 3.46712 19.252 4.98948 19.252C5.27232 19.252 5.54918 19.2945 5.81634 19.3788L3.92831 21.2664L3.62085 22.4474L3.3104 23.6411L4.59994 23.3054L5.68574 23.0226L9.26555 19.4437L9.1954 19.334C8.27078 17.8867 6.69842 17.0227 4.98874 17.0227C2.23803 17.0242 0 19.2617 0 22.0117C0 24.7617 2.23803 26.9999 4.98948 26.9999C6.93573 26.9999 8.71779 25.8524 9.52898 24.0768L9.60584 23.9082L7.45139 23.2628L7.38796 23.3747Z" fill="white"/>
<path d="M17.8393 13V18.4038C17.384 18.0069 16.8572 17.7137 16.2833 17.554C16.0005 17.4637 15.6923 17.4167 15.3624 17.4167C15.3475 17.4167 15.3333 17.4175 15.3184 17.4175C15.3065 17.4175 15.2945 17.4167 15.2818 17.4167C15.1124 17.4167 14.9453 17.4294 14.7811 17.4518C14.3341 17.504 13.9065 17.6159 13.5042 17.7898C12.9289 18.0382 12.4155 18.3859 11.9774 18.8238C11.5386 19.2625 11.1901 19.7766 10.9423 20.351C10.6946 20.924 10.5692 21.5492 10.5692 22.208C10.5692 22.8668 10.6946 23.492 10.9423 24.0657C11.1901 24.6402 11.5386 25.1542 11.9774 25.5922C12.4155 26.0309 12.9289 26.3793 13.5042 26.627C13.9065 26.8001 14.3341 26.9127 14.7804 26.9649C14.9445 26.9873 15.1117 27 15.2818 27C15.2945 27 15.3065 26.9993 15.3184 26.9993C15.3333 26.9993 15.3475 27 15.3624 27C15.6796 27 15.9766 26.956 16.2505 26.8709C16.837 26.7135 17.3758 26.4173 17.8393 26.013V26.7575H20.4161V13H17.8393ZM17.3034 23.3793C17.1087 23.73 16.8423 24.0127 16.5109 24.2201C16.1781 24.4298 15.8042 24.535 15.399 24.535C14.9938 24.535 14.6318 24.429 14.302 24.2201C13.9736 24.0127 13.7087 23.73 13.5139 23.3793C13.3199 23.0294 13.2207 22.6355 13.2207 22.208C13.2207 21.7805 13.3177 21.3881 13.5095 21.0374C13.7005 20.6875 13.9639 20.4047 14.2923 20.1966C14.6221 19.9869 14.9953 19.881 15.399 19.881C15.8027 19.881 16.1773 19.9869 16.5109 20.1958C16.8423 20.404 17.1087 20.6868 17.3034 21.0374C17.4982 21.3873 17.5967 21.7812 17.5967 22.208C17.5967 22.6347 17.4982 23.0294 17.3034 23.3793Z" fill="white"/>
<path d="M26.5236 24.1164L24.2288 17.7927H21.4789L24.7923 26.8918H28.2549L31.5683 17.7927H28.8183L26.5236 24.1164Z" fill="white"/>
<path d="M35.2085 17.7927H32.6317V26.8918H35.2085V17.7927Z" fill="white"/>
<path d="M33.9302 13.7856C33.5586 13.7856 33.2548 13.908 33.0003 14.1594C32.7459 14.4101 32.6227 14.7093 32.6227 15.0741C32.6227 15.4389 32.7459 15.7448 32.9996 15.9925C33.2541 16.241 33.5615 16.3618 33.9391 16.3618C34.3168 16.3618 34.6085 16.2417 34.8541 15.9933C35.0996 15.7448 35.219 15.4442 35.219 15.0734C35.219 14.7026 35.0966 14.4094 34.8458 14.1587C34.5944 13.9073 34.2951 13.7856 33.9309 13.7856H33.9302Z" fill="white"/>
<path d="M43.6822 17.7927L41.3875 24.1164L39.092 17.7927H36.3428L39.6562 26.8918H43.1188L46.4314 17.7927H43.6822Z" fill="white"/>
<path d="M54.8612 21.2112C54.6948 20.5674 54.4105 19.9809 54.0172 19.4669C53.6247 18.9544 53.1374 18.5425 52.5687 18.2426C52.003 17.9442 51.3687 17.7927 50.6844 17.7927C50.0971 17.7927 49.5367 17.9106 49.018 18.1441C48.4979 18.3784 48.0352 18.7074 47.6434 19.1222C47.2509 19.5378 46.9382 20.0265 46.7143 20.5748C46.4904 21.1217 46.3777 21.7163 46.3777 22.3423C46.3777 23.1749 46.5733 23.9448 46.9598 24.6319C47.3471 25.3206 47.8732 25.8756 48.5232 26.2823C49.1702 26.6866 49.8971 26.8918 50.6844 26.8918C51.5396 26.8918 52.3224 26.6478 53.0112 26.1666C53.6321 25.7331 54.1217 25.1803 54.4687 24.523L52.0896 23.9709C51.9232 24.1507 51.7322 24.2985 51.521 24.4111C51.262 24.5491 50.9784 24.6155 50.6784 24.6073C50.3717 24.6006 50.0971 24.5387 49.8613 24.423C49.627 24.3074 49.427 24.15 49.2665 23.956C49.1113 23.7673 48.9859 23.5554 48.8941 23.3256L48.777 23.0324H54.9433C55.0411 22.4094 55.0135 21.7969 54.8612 21.2112ZM48.7262 21.3731L48.7911 21.1873C48.8904 20.9038 49.0322 20.6502 49.2135 20.4338C49.3964 20.2137 49.6173 20.0376 49.8687 19.9101C50.1232 19.7803 50.3978 19.7153 50.6844 19.7153C50.971 19.7153 51.2531 19.7803 51.5083 19.9101C51.759 20.0369 51.9807 20.2122 52.1672 20.4323C52.353 20.6517 52.4941 20.9068 52.5866 21.1911L52.6463 21.3731H48.7262Z" fill="white"/>
</g>
</g>
<defs>
<clipPath id="clip0_2015_843">
<rect width="55" height="45" fill="white"/>
</clipPath>
<clipPath id="clip1_2015_843">
<rect width="55" height="14" fill="white" transform="translate(0 13)"/>
</clipPath>
</defs>
</svg>
