<svg width="86" height="45" viewBox="0 0 86 45" fill="none" xmlns="http://www.w3.org/2000/svg">
<path fill-rule="evenodd" clip-rule="evenodd" d="M9.8614 33C15.3077 33 19.7228 28.5228 19.7228 23C19.7228 17.4772 15.3077 13 9.8614 13C4.41509 13 0 17.4772 0 23C0 28.5228 4.41509 33 9.8614 33ZM12.9378 17.6584C13.0876 17.119 12.5714 16.8001 12.0999 17.1407L5.51898 21.8948C5.00772 22.2641 5.08814 23 5.63979 23H7.37273V22.9864H10.7502L7.99819 23.971L6.78499 28.3416C6.63524 28.881 7.15139 29.1999 7.62286 28.8593L14.2038 24.1052C14.7151 23.7359 14.6346 23 14.083 23H11.455L12.9378 17.6584Z" fill="white"/>
<path d="M32.1308 21.9347H30.0296C30.0016 21.7159 29.9442 21.5185 29.8573 21.3423C29.7705 21.1662 29.6556 21.0156 29.5127 20.8906C29.3699 20.7656 29.2004 20.6705 29.0043 20.6051C28.811 20.5369 28.5966 20.5028 28.3613 20.5028C27.9439 20.5028 27.5839 20.6065 27.2813 20.8139C26.9816 21.0213 26.7504 21.321 26.5879 21.7131C26.4282 22.1051 26.3484 22.5795 26.3484 23.1364C26.3484 23.7159 26.4297 24.2017 26.5921 24.5938C26.7574 24.983 26.9886 25.277 27.2855 25.4759C27.5853 25.6719 27.9397 25.7699 28.3487 25.7699C28.5784 25.7699 28.7871 25.7401 28.9748 25.6804C29.1653 25.6207 29.332 25.5341 29.4749 25.4205C29.6206 25.304 29.7397 25.1634 29.8321 24.9986C29.9274 24.831 29.9932 24.642 30.0296 24.4318L32.1308 24.4446C32.0943 24.831 31.9837 25.2116 31.7988 25.5866C31.6167 25.9616 31.3659 26.304 31.0466 26.6136C30.7272 26.9205 30.3378 27.1648 29.8783 27.3466C29.4217 27.5284 28.8978 27.6193 28.3067 27.6193C27.5279 27.6193 26.8303 27.446 26.2139 27.0994C25.6004 26.75 25.1157 26.2415 24.7599 25.5739C24.4041 24.9063 24.2262 24.0938 24.2262 23.1364C24.2262 22.1761 24.4069 21.3622 24.7683 20.6946C25.1297 20.027 25.6186 19.5199 26.2349 19.1733C26.8513 18.8267 27.5419 18.6534 28.3067 18.6534C28.8278 18.6534 29.3096 18.7273 29.7523 18.875C30.1949 19.0199 30.5843 19.233 30.9205 19.5142C31.2567 19.7926 31.5298 20.1349 31.74 20.5412C31.9501 20.9474 32.0803 21.4119 32.1308 21.9347Z" fill="white"/>
<path d="M36.3341 27.6236C35.6561 27.6236 35.0734 27.483 34.586 27.2017C34.1013 26.9176 33.7273 26.5227 33.4639 26.017C33.2034 25.5085 33.0731 24.919 33.0731 24.2486C33.0731 23.5753 33.2034 22.9858 33.4639 22.4801C33.7273 21.9716 34.1013 21.5767 34.586 21.2955C35.0734 21.0114 35.6561 20.8693 36.3341 20.8693C37.0121 20.8693 37.5934 21.0114 38.0781 21.2955C38.5655 21.5767 38.9395 21.9716 39.2001 22.4801C39.4634 22.9858 39.5951 23.5753 39.5951 24.2486C39.5951 24.919 39.4634 25.5085 39.2001 26.017C38.9395 26.5227 38.5655 26.9176 38.0781 27.2017C37.5934 27.483 37.0121 27.6236 36.3341 27.6236ZM36.3467 26.0511C36.5933 26.0511 36.802 25.9744 36.9729 25.821C37.1438 25.6676 37.274 25.4545 37.3637 25.1818C37.4561 24.9091 37.5024 24.5938 37.5024 24.2358C37.5024 23.8722 37.4561 23.554 37.3637 23.2812C37.274 23.0085 37.1438 22.7955 36.9729 22.642C36.802 22.4886 36.5933 22.4119 36.3467 22.4119C36.0918 22.4119 35.8761 22.4886 35.6996 22.642C35.5259 22.7955 35.3928 23.0085 35.3003 23.2812C35.2107 23.554 35.1659 23.8722 35.1659 24.2358C35.1659 24.5938 35.2107 24.9091 35.3003 25.1818C35.3928 25.4545 35.5259 25.6676 35.6996 25.821C35.8761 25.9744 36.0918 26.0511 36.3467 26.0511Z" fill="white"/>
<path d="M40.6478 27.5V20.9545H42.6018V22.1562H42.6733C42.8077 21.7585 43.0347 21.4446 43.354 21.2145C43.6734 20.9844 44.0544 20.8693 44.4971 20.8693C44.9453 20.8693 45.3291 20.9858 45.6485 21.2187C45.9679 21.4517 46.171 21.7642 46.2578 22.1562H46.3251C46.4455 21.767 46.6809 21.456 47.0311 21.223C47.3812 20.9872 47.7945 20.8693 48.2707 20.8693C48.8815 20.8693 49.3773 21.0682 49.7583 21.4659C50.1394 21.8608 50.3299 22.4034 50.3299 23.0937V27.5H48.2749V23.571C48.2749 23.2443 48.1923 22.9957 48.027 22.8253C47.8617 22.652 47.6474 22.5653 47.384 22.5653C47.1011 22.5653 46.8784 22.6591 46.7159 22.8466C46.5562 23.0312 46.4764 23.2798 46.4764 23.5923V27.5H44.5013V23.5497C44.5013 23.2457 44.42 23.0057 44.2575 22.8295C44.0951 22.6534 43.8807 22.5653 43.6146 22.5653C43.4353 22.5653 43.277 22.6094 43.1397 22.6974C43.0025 22.7827 42.8946 22.9048 42.8162 23.0639C42.7405 23.223 42.7027 23.4105 42.7027 23.6264V27.5H40.6478Z" fill="white"/>
<path d="M51.6032 29.9546V20.9545H53.6371V22.0753H53.7001C53.7841 21.8764 53.9032 21.6847 54.0573 21.5C54.2142 21.3153 54.4131 21.1648 54.654 21.0483C54.8978 20.929 55.1891 20.8693 55.5281 20.8693C55.9763 20.8693 56.3952 20.9886 56.7846 21.2273C57.1768 21.4659 57.4934 21.8338 57.7343 22.331C57.9752 22.8281 58.0957 23.4616 58.0957 24.2315C58.0957 24.973 57.9794 25.5938 57.7469 26.0938C57.5172 26.5938 57.2062 26.9688 56.814 27.2188C56.4246 27.4688 55.9918 27.5938 55.5155 27.5938C55.1905 27.5938 54.909 27.5398 54.6708 27.4318C54.4327 27.3239 54.2324 27.1818 54.0699 27.0057C53.9102 26.8295 53.7869 26.6406 53.7001 26.4389H53.6581V29.9546H51.6032ZM53.6161 24.2273C53.6161 24.5795 53.6623 24.8864 53.7547 25.1477C53.85 25.4091 53.9859 25.6122 54.1624 25.7571C54.3417 25.8991 54.556 25.9702 54.8053 25.9702C55.0574 25.9702 55.2718 25.8991 55.4483 25.7571C55.6248 25.6122 55.7578 25.4091 55.8475 25.1477C55.9399 24.8864 55.9861 24.5795 55.9861 24.2273C55.9861 23.875 55.9399 23.5696 55.8475 23.3111C55.7578 23.0526 55.6248 22.8523 55.4483 22.7102C55.2746 22.5682 55.0602 22.4972 54.8053 22.4972C54.5532 22.4972 54.3389 22.5668 54.1624 22.706C53.9859 22.8452 53.85 23.044 53.7547 23.3026C53.6623 23.5611 53.6161 23.8693 53.6161 24.2273Z" fill="white"/>
<path d="M60.9921 27.6108C60.5803 27.6108 60.2147 27.5412 59.8953 27.402C59.5788 27.2599 59.328 27.0469 59.1431 26.7628C58.961 26.4759 58.87 26.1165 58.87 25.6847C58.87 25.321 58.933 25.0142 59.0591 24.7642C59.1851 24.5142 59.3588 24.3111 59.5802 24.1548C59.8015 23.9986 60.0564 23.8807 60.345 23.8011C60.6335 23.7187 60.9417 23.6634 61.2695 23.6349C61.6365 23.6009 61.932 23.5653 62.1562 23.5284C62.3803 23.4886 62.5428 23.4332 62.6436 23.3622C62.7473 23.2884 62.7991 23.1847 62.7991 23.0511V23.0298C62.7991 22.8111 62.7249 22.642 62.5764 22.5227C62.4279 22.4034 62.2276 22.3437 61.9755 22.3437C61.7037 22.3437 61.4852 22.4034 61.3199 22.5227C61.1546 22.642 61.0496 22.8068 61.0047 23.017L59.1095 22.9489C59.1655 22.5511 59.3098 22.196 59.5423 21.8835C59.7777 21.5682 60.0998 21.321 60.5089 21.142C60.9207 20.9602 61.4152 20.8693 61.9923 20.8693C62.4041 20.8693 62.7837 20.919 63.1311 21.0185C63.4785 21.1151 63.7811 21.2571 64.0388 21.4446C64.2965 21.6293 64.4955 21.8565 64.6355 22.1264C64.7784 22.3963 64.8498 22.7045 64.8498 23.0511V27.5H62.9168V26.5881H62.8664C62.7515 26.8097 62.6044 26.9972 62.4251 27.1506C62.2486 27.304 62.0399 27.419 61.799 27.4957C61.5608 27.5724 61.2919 27.6108 60.9921 27.6108ZM61.6267 26.2472C61.848 26.2472 62.0469 26.2017 62.2234 26.1108C62.4027 26.0199 62.5456 25.8949 62.652 25.7358C62.7585 25.5739 62.8117 25.3864 62.8117 25.1733V24.5511C62.7529 24.5824 62.6815 24.6108 62.5974 24.6364C62.5162 24.6619 62.4265 24.6861 62.3285 24.7088C62.2304 24.7315 62.1296 24.7514 62.0259 24.7685C61.9222 24.7855 61.8228 24.8011 61.7275 24.8153C61.5342 24.8466 61.3689 24.8949 61.2317 24.9602C61.0972 25.0256 60.9935 25.1108 60.9207 25.2159C60.8507 25.3182 60.8156 25.4403 60.8156 25.5824C60.8156 25.7983 60.8913 25.9631 61.0426 26.0767C61.1966 26.1903 61.3914 26.2472 61.6267 26.2472Z" fill="white"/>
<path d="M66.1063 27.5V20.9545H68.1613V27.5H66.1063ZM67.1359 20.1918C66.8473 20.1918 66.5994 20.0952 66.3921 19.902C66.1848 19.706 66.0811 19.4702 66.0811 19.1946C66.0811 18.9219 66.1848 18.6889 66.3921 18.4957C66.5994 18.2997 66.8473 18.2017 67.1359 18.2017C67.4272 18.2017 67.6752 18.2997 67.8797 18.4957C68.087 18.6889 68.1907 18.9219 68.1907 19.1946C68.1907 19.4702 68.087 19.706 67.8797 19.902C67.6752 20.0952 67.4272 20.1918 67.1359 20.1918Z" fill="white"/>
<path d="M70.6248 27.6236C70.3223 27.6236 70.0631 27.5156 69.8474 27.2997C69.6345 27.0838 69.5295 26.8224 69.5323 26.5156C69.5295 26.2145 69.6345 25.9574 69.8474 25.7443C70.0631 25.5284 70.3223 25.4205 70.6248 25.4205C70.9106 25.4205 71.1627 25.5284 71.3813 25.7443C71.6026 25.9574 71.7146 26.2145 71.7174 26.5156C71.7146 26.7202 71.6614 26.9063 71.5578 27.0739C71.4569 27.2415 71.3238 27.375 71.1585 27.4744C70.9961 27.5739 70.8182 27.6236 70.6248 27.6236Z" fill="white"/>
<path d="M76.092 27.6236C75.4169 27.6236 74.8342 27.4886 74.3439 27.2188C73.8564 26.946 73.481 26.5582 73.2177 26.0554C72.9571 25.5497 72.8269 24.9489 72.8269 24.2528C72.8269 23.5767 72.9585 22.9858 73.2219 22.4801C73.4852 21.9716 73.8564 21.5767 74.3355 21.2955C74.8145 21.0114 75.379 20.8693 76.029 20.8693C76.4885 20.8693 76.9087 20.9418 77.2897 21.0866C77.6707 21.2315 77.9999 21.446 78.2772 21.7301C78.5546 22.0142 78.7703 22.3651 78.9244 22.7827C79.0785 23.1974 79.1555 23.6733 79.1555 24.2102V24.7301H74.8524V23.5199H77.2435C77.2407 23.2983 77.1888 23.1009 77.088 22.9276C76.9871 22.7543 76.8485 22.6193 76.672 22.5227C76.4983 22.4233 76.298 22.3736 76.071 22.3736C75.8413 22.3736 75.6354 22.4261 75.4533 22.5312C75.2712 22.6335 75.1269 22.7741 75.0204 22.9531C74.914 23.1293 74.858 23.3295 74.8524 23.554V24.7855C74.8524 25.0526 74.9042 25.2869 75.0078 25.4886C75.1115 25.6875 75.2586 25.8423 75.4491 25.9531C75.6396 26.0639 75.8665 26.1193 76.1299 26.1193C76.312 26.1193 76.4772 26.0938 76.6257 26.0426C76.7742 25.9915 76.9017 25.9162 77.0081 25.8168C77.1146 25.7173 77.1944 25.5952 77.2477 25.4503L79.1345 25.5057C79.0561 25.9347 78.8838 26.3082 78.6176 26.6264C78.3543 26.9418 78.0083 27.1875 77.5797 27.3636C77.151 27.5369 76.6551 27.6236 76.092 27.6236Z" fill="white"/>
<path d="M85.8403 22.9531L83.9535 23.0043C83.9339 22.8679 83.8806 22.7472 83.7938 22.642C83.7069 22.5341 83.5935 22.4503 83.4534 22.3906C83.3161 22.3281 83.1564 22.2969 82.9743 22.2969C82.7362 22.2969 82.5331 22.3452 82.365 22.4418C82.1997 22.5384 82.1185 22.669 82.1213 22.8338C82.1185 22.9616 82.1689 23.0724 82.2726 23.1662C82.379 23.2599 82.5681 23.3352 82.8399 23.392L84.0838 23.6307C84.7281 23.7557 85.2072 23.9631 85.5209 24.2528C85.8375 24.5426 85.9972 24.9261 86 25.4034C85.9972 25.8523 85.8655 26.2429 85.605 26.5753C85.3472 26.9077 84.9942 27.1662 84.546 27.3509C84.0978 27.5327 83.5851 27.6236 83.008 27.6236C82.0863 27.6236 81.3593 27.4318 80.827 27.0483C80.2975 26.6619 79.9949 26.1449 79.9193 25.4972L81.949 25.446C81.9938 25.6847 82.1101 25.8665 82.2978 25.9915C82.4855 26.1165 82.725 26.179 83.0164 26.179C83.2797 26.179 83.494 26.1293 83.6593 26.0298C83.8246 25.9304 83.9087 25.7983 83.9115 25.6335C83.9087 25.4858 83.8442 25.3679 83.7182 25.2798C83.5921 25.1889 83.3946 25.1179 83.1256 25.0668L81.9994 24.8494C81.3523 24.7301 80.8704 24.5099 80.5538 24.1889C80.2373 23.8651 80.0804 23.4531 80.0832 22.9531C80.0804 22.5156 80.1952 22.142 80.4278 21.8324C80.6603 21.5199 80.9909 21.2812 81.4195 21.1165C81.8481 20.9517 82.3538 20.8693 82.9365 20.8693C83.8106 20.8693 84.4998 21.0554 85.0041 21.4276C85.5083 21.7969 85.7871 22.3054 85.8403 22.9531Z" fill="white"/>
</svg>
