<svg width="30" height="45" viewBox="0 0 30 45" fill="none" xmlns="http://www.w3.org/2000/svg">
<rect y="8" width="30" height="30" rx="6.53571" fill="black"/>
<g clip-path="url(#clip0_37_173)">
<path d="M13.2368 18.4458C13.2368 18.8168 13.1895 19.1727 13.0946 19.5131C12.9998 19.8556 12.8671 20.175 12.6927 20.4715C12.5182 20.7699 12.3116 21.0397 12.0708 21.2845C11.83 21.5293 11.5607 21.7397 11.265 21.9158C10.9692 22.0918 10.6506 22.2256 10.3113 22.3213C9.97369 22.4169 9.62105 22.4647 9.2532 22.4647H6.85474V14.4287H9.2532C9.62105 14.4287 9.97369 14.4765 10.3113 14.5703C10.6506 14.6659 10.9692 14.8017 11.265 14.9777C11.5607 15.1537 11.83 15.3641 12.0708 15.609C12.3116 15.8519 12.5182 16.1235 12.6927 16.42C12.8671 16.7185 12.9998 17.0379 13.0946 17.3783C13.1895 17.7208 13.2368 18.0765 13.2368 18.4458V18.4458ZM11.6423 18.4458C11.6423 18.1148 11.5796 17.8011 11.4565 17.5104C11.3313 17.2196 11.1626 16.9633 10.9445 16.7452C10.7283 16.5271 10.4742 16.355 10.1841 16.2268C9.89411 16.1005 9.58311 16.0374 9.25316 16.0374H8.45872V20.856H9.25316C9.58311 20.856 9.89411 20.7929 10.1841 20.6686C10.4742 20.5442 10.7283 20.372 10.9445 20.1521C11.1626 19.934 11.3313 19.6777 11.4565 19.385C11.5796 19.0924 11.6423 18.7787 11.6423 18.4458Z" fill="white"/>
<path d="M18.7381 22.4647H13.5793V14.4287H15.1389V20.856H18.7381V22.4647Z" fill="white"/>
<path d="M19.294 20.5045V14.4287H19.6357V17.9067V17.9392V18.0782H19.9058V17.9525C19.9062 17.9481 19.9064 17.9436 19.9064 17.9391V14.4287H20.2412V17.836V17.9391V18.0781H20.3649C20.3688 18.0784 20.3727 18.0786 20.3766 18.0786C20.3805 18.0786 20.3844 18.0784 20.3883 18.0781H20.5101V17.9621C20.5113 17.9546 20.512 17.9469 20.512 17.9391V14.4287H20.8535V20.5044C20.8535 22.4075 20.7348 22.4616 22.1116 23.2906C22.4089 23.4696 22.6797 23.6866 22.9266 23.9409C23.1736 24.1953 23.3835 24.4747 23.5579 24.7807C23.7325 25.0868 23.8661 25.4177 23.9627 25.7735C24.0593 26.1274 24.1075 26.4965 24.1075 26.8772C24.1075 27.2579 24.0593 27.6252 23.9627 27.979C23.8661 28.331 23.7324 28.662 23.5579 28.97C23.3835 29.2779 23.1736 29.5591 22.9266 29.8135C22.6798 30.0679 22.4086 30.286 22.1116 30.4658C21.8126 30.6476 21.4933 30.7872 21.1479 30.8867C20.8044 30.9861 20.4461 31.0358 20.0767 31.0358C19.7071 31.0358 19.3506 30.9861 19.0071 30.8867C18.6655 30.7872 18.3443 30.6476 18.0454 30.4658C17.7465 30.286 17.4735 30.0679 17.2266 29.8135C16.9797 29.5591 16.768 29.2779 16.5916 28.97C16.417 28.662 16.2815 28.331 16.185 27.979C16.0884 27.6252 16.0402 27.2579 16.0402 26.8772C16.0402 26.4965 16.0884 26.1274 16.185 25.7735C16.2816 25.4177 16.417 25.0868 16.5916 24.7807C16.768 24.4747 16.9797 24.1953 17.2266 23.9409C17.4735 23.6866 17.7466 23.4703 18.0454 23.2906C19.4275 22.4592 19.2939 22.4273 19.2939 20.5045L19.294 20.5045ZM22.5571 26.8772C22.5571 26.5253 22.4922 26.1944 22.3604 25.8826C22.2304 25.5708 22.054 25.2991 21.8312 25.0696C21.6084 24.84 21.3447 24.6583 21.0421 24.5225C20.7395 24.3886 20.4182 24.3217 20.0767 24.3217C19.7313 24.3217 19.41 24.3886 19.1093 24.5225C18.8066 24.6583 18.5449 24.84 18.3201 25.0696C18.0955 25.2991 17.9173 25.5708 17.7873 25.8826C17.6555 26.1944 17.5905 26.5253 17.5905 26.8772C17.5905 27.2293 17.6555 27.5583 17.7873 27.8662C17.9173 28.1742 18.0955 28.444 18.3201 28.6754C18.5449 28.9088 18.8066 29.0904 19.1093 29.2263C19.41 29.3602 19.7313 29.4271 20.0767 29.4271C20.4182 29.4271 20.7394 29.3602 21.0421 29.2263C21.3447 29.0904 21.6084 28.9088 21.8312 28.6754C22.054 28.444 22.2304 28.1742 22.3604 27.8662C22.4922 27.5583 22.5571 27.2293 22.5571 26.8772Z" fill="white"/>
<path d="M13.0811 30.0368C12.719 30.3582 12.3124 30.605 11.863 30.7771C11.4137 30.9493 10.9477 31.0354 10.465 31.0354C10.0954 31.0354 9.73895 30.9856 9.39544 30.8862C9.05386 30.7867 8.7326 30.6471 8.43371 30.4653C8.13476 30.2855 7.86179 30.0674 7.61493 29.813C7.36796 29.5586 7.15631 29.2774 6.97992 28.9695C6.80537 28.6615 6.66984 28.3305 6.57328 27.9785C6.4767 27.6247 6.42847 27.2575 6.42847 26.8767C6.42847 26.4961 6.4767 26.1269 6.57328 25.773C6.66986 25.4172 6.80539 25.0863 6.97992 24.7783C7.15631 24.4704 7.36796 24.1891 7.61493 23.9348C7.86179 23.6803 8.13476 23.4622 8.43371 23.2825C8.7326 23.1007 9.05386 22.9611 9.39544 22.8616C9.73895 22.7621 10.0954 22.7124 10.465 22.7124C10.9477 22.7124 11.4137 22.7985 11.863 22.9668C12.3124 23.1371 12.719 23.3857 13.0811 23.7109L12.2548 25.1112C12.0264 24.8568 11.7554 24.6616 11.4434 24.5258C11.1315 24.39 10.8065 24.3212 10.465 24.3212C10.1196 24.3212 9.79836 24.3881 9.49758 24.522C9.19494 24.6578 8.93321 24.8395 8.70847 25.069C8.48379 25.2986 8.30563 25.5703 8.17562 25.8821C8.0438 26.1939 7.97885 26.5248 7.97885 26.8767C7.97885 27.2288 8.0438 27.5578 8.17562 27.8657C8.30563 28.1737 8.48381 28.4434 8.70847 28.6749C8.93321 28.9083 9.19494 29.0899 9.49758 29.2258C9.79836 29.3597 10.1196 29.4266 10.465 29.4266C10.8065 29.4266 11.1315 29.3578 11.4434 29.222C11.7554 29.0861 12.0264 28.891 12.2548 28.6366L13.0811 30.0368Z" fill="white"/>
<path d="M15.1184 30.8617H13.5588V22.8257H15.1184V30.8617Z" fill="white"/>
<path d="M20.0696 29.0951C21.2599 29.0951 22.2248 28.101 22.2248 26.8747C22.2248 25.6484 21.2599 24.6543 20.0696 24.6543C18.8793 24.6543 17.9144 25.6484 17.9144 26.8747C17.9144 28.101 18.8793 29.0951 20.0696 29.0951Z" fill="#FE4911"/>
<path d="M20.0692 28.6355C21.0131 28.6355 21.7782 27.8472 21.7782 26.8747C21.7782 25.9023 21.0131 25.114 20.0692 25.114C19.1254 25.114 18.3602 25.9023 18.3602 26.8747C18.3602 27.8472 19.1254 28.6355 20.0692 28.6355Z" fill="#FF671F"/>
<path fill-rule="evenodd" clip-rule="evenodd" d="M21.1617 25.5208C20.8655 25.2668 20.4847 25.114 20.0692 25.114C19.1253 25.114 18.3602 25.9023 18.3602 26.8747C18.3602 27.3403 18.5357 27.7636 18.8221 28.0784C18.7171 27.8397 18.6586 27.5747 18.6586 27.2955C18.6586 26.2462 19.4841 25.3957 20.5025 25.3957C20.7348 25.3957 20.957 25.44 21.1617 25.5208Z" fill="#F2440B"/>
<path d="M20.887 27.5815C20.9829 27.4635 21.1534 27.4479 21.2679 27.5466C21.3825 27.6453 21.3976 27.821 21.3018 27.939C21.2418 28.0131 21.1731 28.0837 21.0968 28.15L21.0973 28.1505C21.0231 28.215 20.9434 28.2728 20.859 28.3232C20.7299 28.4003 20.5646 28.3549 20.4898 28.2218C20.415 28.0888 20.4591 27.9185 20.5882 27.8414C20.6447 27.8076 20.6982 27.7688 20.7481 27.7254L20.7486 27.726L20.7492 27.7254C20.7967 27.6842 20.8428 27.636 20.887 27.5815Z" fill="#FFAD61" fill-opacity="0.490196"/>
<path d="M22.0145 27.8309C22.0331 27.7885 22.0503 27.7478 22.0664 27.7081C22.0893 27.6516 22.0879 27.5909 22.0671 27.5384C22.0463 27.4861 22.006 27.4418 21.9513 27.4182C21.8953 27.3941 21.8264 27.3925 21.7716 27.414C21.7191 27.4347 21.6744 27.4747 21.652 27.5298L21.6413 27.5561C21.6256 27.5944 21.6115 27.6338 21.5935 27.671C21.4873 27.8897 21.333 28.0858 21.1499 28.2384C20.9832 28.3774 20.8008 28.4863 20.5878 28.5551C20.5527 28.5664 20.5169 28.5751 20.4815 28.5847L20.4571 28.5913C20.4002 28.6073 20.3526 28.6479 20.3228 28.6994C20.2929 28.7509 20.2813 28.8131 20.2964 28.8719L20.2973 28.8753C20.313 28.9326 20.351 28.9856 20.3988 29.0134C20.4477 29.0419 20.5074 29.0516 20.565 29.0359L20.5707 29.0345C20.612 29.024 20.6521 29.0133 20.6908 29.0023C20.9636 28.9165 21.2415 28.7629 21.4662 28.5652C21.5874 28.4585 21.6965 28.3382 21.7931 28.207C21.8787 28.0908 21.9551 27.9662 22.0145 27.8309V27.8309Z" fill="white" fill-opacity="0.25098"/>
<path fill-rule="evenodd" clip-rule="evenodd" d="M22.2234 26.8745C22.2234 27.2166 22.1483 27.5406 22.0142 27.83C22.0141 27.8303 22.014 27.8305 22.0139 27.8308C21.9544 27.9661 21.878 28.0908 21.7925 28.2069C21.7922 28.2073 21.7919 28.2077 21.7916 28.2081C21.7003 28.3332 21.5964 28.4479 21.482 28.5505C21.4765 28.5554 21.4711 28.5603 21.4656 28.5651C21.4503 28.5785 21.4349 28.5917 21.4191 28.6047C21.2506 28.7446 21.0612 28.8588 20.8565 28.9417C20.8012 28.9645 20.7456 28.9848 20.6901 29.0022C20.6704 29.0078 20.6503 29.0133 20.6299 29.0188C20.6101 29.0243 20.5901 29.0295 20.5701 29.0344C20.5682 29.0349 20.5663 29.0353 20.5644 29.0358C20.56 29.037 20.5556 29.0381 20.5512 29.039C20.3959 29.0756 20.2342 29.0949 20.0682 29.0949C18.878 29.0949 17.913 28.1008 17.913 26.8745C17.913 25.6482 18.878 24.6541 20.0682 24.6541C21.2585 24.6541 22.2234 25.6482 22.2234 26.8745L22.2234 26.8745ZM17.5894 26.8771C17.5894 27.2291 17.6543 27.5581 17.7861 27.8661C17.9162 28.1741 18.0943 28.4438 18.319 28.6752C18.5437 28.9086 18.8055 29.0903 19.1081 29.2262C19.4089 29.36 19.7301 29.427 20.0755 29.427C20.4171 29.427 20.7383 29.36 21.0409 29.2262C21.3436 29.0903 21.6073 28.9086 21.8301 28.6752C22.0529 28.4438 22.2293 28.174 22.3592 27.8661C22.491 27.5581 22.556 27.2291 22.556 26.8771C22.556 26.5251 22.491 26.1942 22.3592 25.8824C22.2293 25.5706 22.0529 25.2989 21.8301 25.0694C21.6073 24.8399 21.3436 24.6581 21.0409 24.5223C20.7383 24.3884 20.4171 24.3215 20.0755 24.3215C19.7301 24.3215 19.4089 24.3884 19.1081 24.5223C18.8055 24.6581 18.5437 24.8399 18.319 25.0694C18.0944 25.2989 17.9162 25.5706 17.7861 25.8824C17.6543 26.1942 17.5894 26.5251 17.5894 26.8771Z" fill="black"/>
</g>
<defs>
<clipPath id="clip0_37_173">
<rect width="17.6786" height="16.6071" fill="white" transform="translate(6.42847 14.4287)"/>
</clipPath>
</defs>
</svg>
