<svg width="41" height="45" viewBox="0 0 41 45" fill="none" xmlns="http://www.w3.org/2000/svg">
<path d="M16.2039 28.1769C16.195 28.8882 16.1772 28.328 16.1772 26.9322C16.1772 25.5363 16.195 24.9584 16.2039 25.643C16.2217 26.3276 16.2217 27.4656 16.2039 28.1769Z" fill="white" fill-opacity="0.38"/>
<path d="M15.7419 24.5049C15.502 24.5227 15.0579 24.5227 14.7647 24.5049C14.4715 24.4872 14.667 24.4783 15.2089 24.4783C15.7508 24.4783 15.9907 24.4872 15.7419 24.5049Z" fill="white" fill-opacity="0.71"/>
<path fill-rule="evenodd" clip-rule="evenodd" d="M12.9435 24.4159C13.1656 24.4426 13.4499 24.5137 13.592 24.5848C13.7253 24.6559 13.9119 24.8071 14.0096 24.9316C14.1073 25.056 14.205 25.1538 14.2317 25.1538C14.2583 25.1538 14.2761 25.0116 14.2761 24.5315H16.1417L16.115 27.2699C16.0884 29.7238 16.0706 30.0439 15.9107 30.444C15.8219 30.684 15.582 31.0485 15.3866 31.253C15.1733 31.4664 14.8269 31.6887 14.516 31.8043C14.1073 31.9643 13.823 31.9999 13.059 31.9999C12.526 31.9999 11.8953 31.9465 11.6554 31.8754C11.4067 31.8132 11.078 31.6976 10.9181 31.6176C10.767 31.5287 10.6338 31.4486 10.6338 31.422C10.6338 31.3953 10.7759 31.0841 10.9536 30.7374C11.1313 30.3817 11.2912 30.0705 11.3089 30.0439C11.3267 30.0172 11.5666 30.0883 11.8331 30.2039C12.1884 30.3462 12.4994 30.3995 12.9702 30.3995C13.3966 30.3995 13.6809 30.3551 13.8053 30.2661C13.9207 30.195 14.0718 30.0172 14.1428 29.866C14.2139 29.7238 14.2761 29.4215 14.2761 29.1992C14.2761 28.977 14.2583 28.7991 14.2406 28.7991C14.2139 28.7991 14.0895 28.9147 13.9474 29.057C13.8141 29.1903 13.521 29.3593 13.2989 29.4215C13.059 29.4837 12.7126 29.5104 12.4105 29.4748C12.144 29.4393 11.762 29.3415 11.5666 29.2526C11.3711 29.1637 11.078 28.9503 10.9181 28.7725C10.7581 28.5769 10.5716 28.2301 10.4916 27.9367C10.3939 27.59 10.3584 27.2165 10.385 26.7987C10.4117 26.4341 10.5094 25.9985 10.6249 25.7317C10.7315 25.4917 10.9269 25.1716 11.0602 25.0383C11.1934 24.896 11.4155 24.7182 11.5666 24.647C11.7176 24.567 11.993 24.4781 12.1884 24.4426C12.3839 24.3981 12.7214 24.3892 12.9435 24.4159V24.4159ZM12.5171 27.1098C12.5527 27.3855 12.6415 27.5722 12.8014 27.7144C12.9347 27.8211 13.1479 27.91 13.3078 27.91C13.4943 27.91 13.6631 27.8211 13.8408 27.6433C14.0274 27.4477 14.0984 27.2877 14.0984 27.0654C14.0984 26.8965 14.054 26.6653 13.9918 26.5586C13.9385 26.443 13.8319 26.3097 13.752 26.2474C13.672 26.1852 13.4766 26.1318 13.3167 26.1318C13.0946 26.1318 12.9524 26.203 12.7392 26.4252C12.4905 26.6831 12.4727 26.7453 12.5171 27.1098Z" fill="white"/>
<path d="M28.7299 18.9746C28.721 20.0504 28.7122 19.1524 28.7122 16.9742C28.7122 14.7959 28.721 13.9157 28.7299 15.0181C28.7477 16.1206 28.7477 17.8988 28.7299 18.9746Z" fill="white" fill-opacity="0.16"/>
<path d="M4.72615 14.9915C4.23755 15.0093 3.45578 15.0093 2.99383 14.9915C2.53188 14.9826 2.93164 14.9648 3.8822 14.9648C4.83276 14.9648 5.21476 14.9826 4.72615 14.9915Z" fill="white" fill-opacity="0.16"/>
<path d="M2.25648 15.8183C2.23871 15.9873 2.22095 15.8895 2.22095 15.5961C2.22095 15.3027 2.23871 15.1604 2.25648 15.2849C2.27425 15.4093 2.27425 15.6494 2.25648 15.8183Z" fill="white" fill-opacity="0.16"/>
<path d="M13.7165 15.3027C13.3167 15.2938 12.8281 15.2671 12.6327 15.2582C12.4372 15.2404 12.7481 15.2226 13.3167 15.2137C13.8941 15.2049 14.3827 15.2226 14.4005 15.2671C14.4183 15.3027 14.1073 15.3204 13.7165 15.3027Z" fill="white" fill-opacity="0.16"/>
<path d="M4.83276 17.152C4.81499 17.3743 4.79722 17.2142 4.79722 16.7963C4.79722 16.3785 4.81499 16.2006 4.83276 16.3962C4.85052 16.5918 4.85052 16.9297 4.83276 17.152Z" fill="white" fill-opacity="0.16"/>
<path d="M40.5453 20.086C40.5364 20.5483 40.5186 20.1482 40.5186 19.1969C40.5186 18.2456 40.5364 17.8633 40.5453 18.3523C40.563 18.8413 40.563 19.6237 40.5453 20.086Z" fill="white" fill-opacity="0.16"/>
<path d="M32.2834 20.086C32.2745 20.5039 32.2568 20.1838 32.2568 19.3747C32.2568 18.5656 32.2745 18.2278 32.2834 18.619C32.3012 19.0102 32.3012 19.6681 32.2834 20.086Z" fill="white" fill-opacity="0.16"/>
<path d="M2.25648 20.1749C2.2476 20.5928 2.22983 20.2727 2.22983 19.4636C2.22983 18.6546 2.2476 18.3167 2.25648 18.7079C2.27425 19.0991 2.27425 19.757 2.25648 20.1749Z" fill="white" fill-opacity="0.16"/>
<path d="M14.4272 20.086C14.4183 20.5039 14.4005 20.2016 14.4005 19.4192C14.4005 18.6368 14.4183 18.2989 14.4272 18.6634C14.4449 19.028 14.4449 19.6681 14.4272 20.086Z" fill="white" fill-opacity="0.16"/>
<path d="M30.862 20.6195C30.8443 20.7884 30.8265 20.6728 30.8265 20.3527C30.8265 20.0327 30.8443 19.8904 30.862 20.0415C30.8798 20.1927 30.8798 20.4505 30.862 20.6195Z" fill="white" fill-opacity="0.16"/>
<path d="M7.56006 27.1543C7.55118 25.7406 7.56006 24.5315 7.57783 24.4692C7.5956 24.407 7.65779 24.3537 7.71997 24.3625C7.80881 24.3625 7.80881 24.3714 7.72886 24.407C7.64002 24.4337 7.60448 25.0649 7.56895 29.7327L7.56006 27.1543Z" fill="white" fill-opacity="0.21"/>
<path d="M23.7551 25.7318C23.7373 25.9274 23.7284 25.7229 23.7284 25.2872C23.7284 24.8515 23.7373 24.6826 23.7551 24.9316C23.7728 25.1716 23.7728 25.5362 23.7551 25.7318Z" fill="white" fill-opacity="0.21"/>
<path d="M19.2244 28.2657C19.2155 28.977 19.1977 28.4346 19.1977 27.0654C19.1977 25.6962 19.2155 25.1183 19.2244 25.7762C19.2421 26.4341 19.2421 27.5544 19.2244 28.2657Z" fill="white" fill-opacity="0.21"/>
<path d="M27.2019 26.6386C26.9621 26.6564 26.5801 26.6564 26.358 26.6386C26.1359 26.6209 26.3402 26.612 26.8022 26.612C27.2641 26.612 27.4507 26.6209 27.2019 26.6386Z" fill="white" fill-opacity="0.21"/>
<path d="M30.4178 27.6435C30.4089 28.5503 30.4 27.7679 30.4 25.9097C30.4 24.0515 30.4089 23.3135 30.4178 24.2649C30.4356 25.2162 30.4356 26.7366 30.4178 27.6435Z" fill="white" fill-opacity="0.22"/>
<path d="M19.8462 25.5985C19.8284 25.8208 19.8107 25.6785 19.8107 25.2873C19.8107 24.8961 19.8284 24.7183 19.8462 24.8873C19.864 25.0562 19.864 25.3763 19.8462 25.5985Z" fill="white" fill-opacity="0.22"/>
<path d="M0.0355348 29.1549C0.0177674 29.3238 0 29.2083 0 28.8882C0 28.5681 0.0177674 28.4259 0.0355348 28.577C0.0533022 28.7281 0.0533022 28.986 0.0355348 29.1549Z" fill="white" fill-opacity="0.22"/>
<path d="M5.44571 13.0622L2.81613 13.0356L0.195435 13.0178H5.52566L5.53454 14.9738L5.44571 13.0622Z" fill="white" fill-opacity="0.33"/>
<path d="M30.3556 13.0267C30.0802 13.0445 29.6005 13.0445 29.2896 13.0356C28.9698 13.0178 29.1919 13 29.7782 13C30.3645 13 30.6221 13.0178 30.3556 13.0267Z" fill="white" fill-opacity="0.33"/>
<path d="M2.32752 29.8395C1.93664 29.8484 1.2526 29.8484 0.817294 29.8395C0.373109 29.8217 0.692922 29.8039 1.52799 29.8039C2.35418 29.8039 2.71841 29.8217 2.32752 29.8395Z" fill="white" fill-opacity="0.33"/>
<path d="M8.94589 29.8306C8.67049 29.8573 8.25296 29.8573 8.0131 29.8306C7.76435 29.8128 7.98645 29.8039 8.5017 29.8039C9.00807 29.8039 9.2124 29.8128 8.94589 29.8306Z" fill="white" fill-opacity="0.33"/>
<path d="M18.6291 29.8306C18.3537 29.8573 17.9362 29.8573 17.6963 29.8306C17.4476 29.8128 17.6697 29.8039 18.1849 29.8039C18.6913 29.8039 18.8956 29.8128 18.6291 29.8306Z" fill="white" fill-opacity="0.33"/>
<path d="M29.0231 29.8306C28.801 29.8484 28.4012 29.8573 28.1347 29.8306C27.8593 29.8128 28.0459 29.8039 28.5345 29.8039C29.0231 29.8039 29.2363 29.8128 29.0231 29.8306Z" fill="white" fill-opacity="0.33"/>
<path d="M31.777 29.8306C31.5016 29.8573 31.0841 29.8573 30.8442 29.8306C30.5955 29.8128 30.8176 29.8039 31.3328 29.8039C31.8392 29.8039 32.0435 29.8128 31.777 29.8306Z" fill="white" fill-opacity="0.33"/>
<path d="M20.6458 23.9091C20.628 24.1314 20.6102 23.9714 20.6102 23.5535C20.6102 23.1356 20.628 22.9578 20.6458 23.1534C20.6635 23.349 20.6635 23.6869 20.6458 23.9091Z" fill="white" fill-opacity="0.38"/>
<path d="M22.6002 24.0425C22.5824 24.2914 22.5735 24.1047 22.5735 23.6424C22.5735 23.1801 22.5824 22.9756 22.6002 23.1979C22.6179 23.4201 22.6179 23.7935 22.6002 24.0425Z" fill="white" fill-opacity="0.38"/>
<path d="M9.4967 29.795C9.46117 29.8305 9.45228 28.6302 9.47894 27.1277L9.52335 24.3981L9.54112 27.0654C9.55889 28.5324 9.54112 29.7594 9.4967 29.795Z" fill="white" fill-opacity="0.38"/>
<path d="M22.6002 27.3322C22.5824 27.5722 22.5735 27.3944 22.5735 26.9321C22.5735 26.4697 22.5824 26.2652 22.6002 26.4875C22.6179 26.7098 22.6179 27.0832 22.6002 27.3322Z" fill="white" fill-opacity="0.38"/>
<path d="M20.6458 27.8212C20.628 28.0879 20.6191 27.9101 20.6191 27.4211C20.6191 26.9321 20.628 26.7098 20.6458 26.9321C20.6635 27.1543 20.6635 27.5544 20.6458 27.8212Z" fill="white" fill-opacity="0.38"/>
<path d="M0.124402 17.1522C0.115518 17.9079 0.0977509 17.3122 0.0977509 15.8185C0.0977509 14.3249 0.115518 13.7025 0.124402 14.4404C0.142169 15.1695 0.142169 16.3964 0.124402 17.1522Z" fill="white" fill-opacity="0.38"/>
<path d="M11.3445 20.8864L11.3623 19.1793L11.3889 17.4634L11.4067 19.1082C11.4245 20.0151 11.4156 20.8064 11.3889 20.8686C11.3534 20.9486 11.0958 20.9664 9.52337 20.9397L11.3445 20.8864Z" fill="white" fill-opacity="0.38"/>
<path d="M0.124402 19.5616C0.0977509 19.7306 0.0888672 19.5705 0.0888672 19.206C0.0888672 18.8326 0.0977509 18.6992 0.124402 18.8948C0.142169 19.0904 0.142169 19.3838 0.124402 19.5616Z" fill="white" fill-opacity="0.38"/>
<path d="M1.69682 20.9575C1.45696 20.9753 1.01277 20.9753 0.71961 20.9575C0.426448 20.9397 0.630773 20.922 1.1638 20.922C1.7057 20.922 1.94556 20.9397 1.69682 20.9575Z" fill="white" fill-opacity="0.38"/>
<path d="M13.8675 20.9575C13.6276 20.9753 13.1835 20.9753 12.8903 20.9575C12.5971 20.9397 12.8015 20.922 13.3345 20.922C13.8764 20.922 14.1162 20.9397 13.8675 20.9575Z" fill="white" fill-opacity="0.38"/>
<path d="M21.7296 20.9575C21.4631 20.9753 21.0455 20.9753 20.7968 20.9575C20.5569 20.9397 20.779 20.922 21.2854 20.922C21.8006 20.922 22.005 20.9397 21.7296 20.9575Z" fill="white" fill-opacity="0.38"/>
<path d="M30.3024 20.9575C30.0625 20.9753 29.6183 20.9753 29.3252 20.9575C29.032 20.9397 29.2363 20.922 29.7693 20.922C30.3112 20.922 30.5511 20.9397 30.3024 20.9575Z" fill="white" fill-opacity="0.38"/>
<path d="M33.7226 20.9575C33.5094 20.9753 33.1096 20.9753 32.8342 20.9575C32.5677 20.9397 32.7454 20.922 33.234 20.922C33.7226 20.922 33.9447 20.9397 33.7226 20.9575Z" fill="white" fill-opacity="0.38"/>
<path d="M39.9412 20.9575C39.6747 20.9753 39.2571 20.9753 39.0084 20.9575C38.7685 20.9397 38.9906 20.922 39.497 20.922C40.0123 20.922 40.2166 20.9397 39.9412 20.9575Z" fill="white" fill-opacity="0.38"/>
<path d="M32.3722 27.8658C32.3634 28.8972 32.3545 28.0703 32.3545 26.0432C32.3545 24.016 32.3634 23.1714 32.3722 24.1761C32.39 25.1807 32.39 26.8345 32.3722 27.8658Z" fill="white" fill-opacity="0.39"/>
<path d="M22.1382 22.8157C21.8983 22.8335 21.4542 22.8335 21.161 22.8157C20.8678 22.798 21.0633 22.7891 21.6052 22.7891C22.1471 22.7891 22.387 22.798 22.1382 22.8157Z" fill="white" fill-opacity="0.39"/>
<path d="M30.7731 14.1289C30.7554 14.3511 30.7376 14.1911 30.7376 13.7732C30.7376 13.3553 30.7554 13.1775 30.7731 13.3731C30.7909 13.5687 30.7909 13.9066 30.7731 14.1289Z" fill="white" fill-opacity="0.51"/>
<path d="M16.3815 16.7517C16.3638 17.0451 16.3549 16.8228 16.3549 16.2627C16.3549 15.7026 16.3638 15.4625 16.3815 15.7292C16.3993 15.996 16.3993 16.4583 16.3815 16.7517Z" fill="white" fill-opacity="0.51"/>
<path d="M34.3266 20.0858C34.3177 20.5481 34.3 20.1303 34.3 19.1523C34.3 18.1743 34.3177 17.7919 34.3266 18.3076C34.3444 18.8233 34.3444 19.6235 34.3266 20.0858Z" fill="white" fill-opacity="0.51"/>
<path d="M4.19309 18.0142C3.84662 18.032 3.26918 18.032 2.90495 18.0142C2.54072 18.0053 2.81611 17.9875 3.52681 17.9875C4.23751 17.9875 4.53067 18.0053 4.19309 18.0142Z" fill="white" fill-opacity="0.51"/>
<path d="M30.7732 15.4628C30.7554 15.6317 30.7376 15.4717 30.7376 15.1072C30.7376 14.7426 30.7554 14.6004 30.7732 14.796C30.7909 14.9916 30.7909 15.2939 30.7732 15.4628Z" fill="white" fill-opacity="0.63"/>
<path d="M12.3839 19.5526C12.375 20.3084 12.3572 19.6682 12.3572 18.1301C12.3572 16.592 12.375 15.9696 12.3839 16.752C12.4017 17.5344 12.4017 18.7969 12.3839 19.5526Z" fill="white" fill-opacity="0.63"/>
<path d="M4.01544 16.1474C3.66898 16.1652 3.13595 16.1652 2.81614 16.1474C2.49633 16.1296 2.78061 16.1207 3.438 16.1207C4.09539 16.1207 4.35302 16.1296 4.01544 16.1474Z" fill="white" fill-opacity="0.63"/>
<path d="M22.2448 20.0416C22.2359 20.5307 22.2182 20.175 22.2182 19.2415C22.2182 18.3168 22.2359 17.9167 22.2448 18.3524C22.2626 18.7969 22.2626 19.5526 22.2448 20.0416Z" fill="white" fill-opacity="0.63"/>
<path d="M30.7732 19.3304C30.7554 19.6238 30.7465 19.4282 30.7465 18.8858C30.7465 18.3524 30.7554 18.1123 30.7732 18.3524C30.7909 18.6013 30.7909 19.037 30.7732 19.3304Z" fill="white" fill-opacity="0.63"/>
<path d="M0.124396 27.9102C0.115512 28.9594 0.106628 28.1236 0.106628 26.0431C0.106628 23.9626 0.115512 23.1002 0.124396 24.1316C0.142163 25.1629 0.142163 26.8611 0.124396 27.9102Z" fill="white" fill-opacity="0.71"/>
<path d="M2.37197 22.3712C2.00774 22.3889 1.36811 22.3889 0.950581 22.3712C0.533046 22.3623 0.835092 22.3445 1.61686 22.3445C2.39863 22.3445 2.73621 22.3623 2.37197 22.3712Z" fill="white" fill-opacity="0.71"/>
<path d="M31.9103 22.3712C31.6704 22.3889 31.2263 22.3889 30.9331 22.3712C30.6399 22.3534 30.8354 22.3445 31.3773 22.3445C31.9192 22.3445 32.159 22.3534 31.9103 22.3712Z" fill="white" fill-opacity="0.71"/>
<path d="M9.07917 24.505C8.83931 24.5228 8.39513 24.5228 8.10197 24.505C7.8088 24.4872 8.01313 24.4783 8.54615 24.4783C9.07917 24.4783 9.32792 24.4872 9.07917 24.505Z" fill="white" fill-opacity="0.71"/>
<path d="M17.2433 27.2434C17.2344 25.8297 17.2433 24.6206 17.2611 24.5583C17.2877 24.4694 17.5453 24.4516 19.2066 24.4783L17.2966 24.5317L17.2522 29.8218L17.2433 27.2434Z" fill="white" fill-opacity="0.71"/>
<path d="M23.4264 24.505C23.2576 24.5228 22.9911 24.5228 22.8489 24.505C22.7068 24.4872 22.84 24.4694 23.1599 24.4694C23.4797 24.4694 23.5952 24.4872 23.4264 24.505Z" fill="white" fill-opacity="0.71"/>
<path d="M29.5295 28.9771C29.5206 29.4395 29.5028 29.0838 29.5028 28.177C29.5028 27.2701 29.5206 26.8967 29.5295 27.3323C29.5472 27.768 29.5472 28.5148 29.5295 28.9771Z" fill="white" fill-opacity="0.71"/>
<path d="M23.6662 25.7319C23.6484 25.9275 23.6395 25.723 23.6395 25.2874C23.6395 24.8517 23.6484 24.6828 23.6662 24.9318C23.6839 25.1718 23.6839 25.5363 23.6662 25.7319Z" fill="white" fill-opacity="0.79"/>
<path d="M27.2907 26.7277C27.0953 26.7455 26.7399 26.7455 26.4912 26.7277C26.2513 26.7099 26.4112 26.7011 26.8465 26.7011C27.2907 26.7011 27.4862 26.7099 27.2907 26.7277Z" fill="white" fill-opacity="0.79"/>
<path d="M2.16762 16.1208C2.13209 16.103 2.11432 15.8185 2.11432 15.4896C2.1232 15.1517 2.14097 14.965 2.15874 15.0628C2.1765 15.1606 2.20316 15.4451 2.21204 15.703C2.22981 15.9519 2.21204 16.1386 2.16762 16.1208Z" fill="white" fill-opacity="0.8"/>
<path d="M13.9652 15.3473C13.7164 15.3651 13.2811 15.3651 12.988 15.3473C12.6948 15.3295 12.8903 15.3206 13.4322 15.3206C13.9741 15.3206 14.205 15.3295 13.9652 15.3473Z" fill="white" fill-opacity="0.8"/>
<path d="M28.8187 19.6417C28.8099 20.3529 28.7921 19.7306 28.7921 18.2636C28.7921 16.7965 28.8099 16.2186 28.8187 16.9744C28.8365 17.7301 28.8365 18.9304 28.8187 19.6417Z" fill="white" fill-opacity="0.8"/>
<path d="M8.56389 17.6145C9.1591 17.6056 9.39008 17.5612 9.39008 17.49C9.39008 17.4278 9.41673 17.4011 9.45226 17.4456C9.4878 17.4811 9.47891 17.5523 9.41673 17.6056C9.36342 17.659 8.99031 17.6767 7.74659 17.6323L8.56389 17.6145Z" fill="white" fill-opacity="0.8"/>
<path d="M40.4564 20.0862C40.4475 20.5485 40.4297 20.1484 40.4297 19.1971C40.4297 18.2458 40.4475 17.8635 40.4564 18.3525C40.4742 18.8415 40.4742 19.6239 40.4564 20.0862Z" fill="white" fill-opacity="0.8"/>
<path d="M19.9617 17.659C19.7396 17.6767 19.3398 17.6767 19.0733 17.659C18.8068 17.6412 18.9845 17.6323 19.4731 17.6323C19.9617 17.6323 20.1838 17.6412 19.9617 17.659Z" fill="white" fill-opacity="0.8"/>
<path d="M38.1733 17.659C37.9512 17.6767 37.5514 17.6767 37.2849 17.659C37.0184 17.6412 37.1961 17.6323 37.6847 17.6323C38.1733 17.6323 38.3954 17.6412 38.1733 17.659Z" fill="white" fill-opacity="0.8"/>
<path d="M2.16762 20.1751C2.15874 20.593 2.14097 20.2729 2.14097 19.4638C2.14097 18.6548 2.15874 18.3169 2.16762 18.7081C2.18539 19.0993 2.18539 19.7572 2.16762 20.1751Z" fill="white" fill-opacity="0.8"/>
<path d="M30.7732 20.6197C30.7554 20.7886 30.7376 20.673 30.7376 20.3529C30.7376 20.0329 30.7554 19.8995 30.7732 20.0417C30.7909 20.1929 30.7909 20.4507 30.7732 20.6197Z" fill="white" fill-opacity="0.8"/>
<path fill-rule="evenodd" clip-rule="evenodd" d="M8.52834 21.8643C8.66159 21.8643 8.88369 21.9265 9.03471 21.9976C9.18573 22.0688 9.36341 22.2466 9.43448 22.3977C9.50555 22.5489 9.56773 22.7622 9.56773 22.8867C9.56773 23.0112 9.50555 23.2246 9.43448 23.3757C9.36341 23.5269 9.16796 23.7047 9.01694 23.7847C8.8215 23.8825 8.61717 23.9092 8.41285 23.8736C8.24406 23.8469 7.99531 23.7136 7.85318 23.5713C7.71992 23.438 7.58666 23.2157 7.56001 23.0645C7.52448 22.9045 7.56001 22.6733 7.64885 22.4866C7.7288 22.3177 7.89759 22.1043 8.03085 22.0243C8.17299 21.9354 8.3862 21.8643 8.52834 21.8643ZM18.3182 21.8998C18.558 21.9354 18.7624 22.0332 18.94 22.2199C19.1533 22.4333 19.2066 22.5666 19.2066 22.8778C19.2066 23.1979 19.1533 23.3313 18.94 23.5535C18.7801 23.7136 18.5492 23.8469 18.3626 23.8736C18.1849 23.9003 17.9451 23.8736 17.794 23.8025C17.6519 23.7403 17.4565 23.5891 17.3676 23.4646C17.2699 23.3402 17.1988 23.1001 17.2077 22.9045C17.2077 22.7267 17.2433 22.4955 17.2966 22.3977C17.3499 22.2999 17.5187 22.1399 17.6786 22.0332C17.8918 21.8998 18.0517 21.8643 18.3182 21.8998V21.8998ZM33.9535 22.3088C34.0779 22.3088 34.2822 22.3622 34.4243 22.4333C34.5576 22.4955 34.8419 22.7534 35.064 22.9934C35.2861 23.2335 35.5615 23.6336 35.6769 23.8736C35.8635 24.2648 35.8724 24.3626 35.7924 24.7983C35.748 25.065 35.6414 25.4295 35.5703 25.5985C35.4904 25.7674 35.2861 26.0697 34.8241 26.6209L34.5754 26.2208C34.4332 25.9986 34.2733 25.6874 34.2023 25.5273C34.1401 25.3762 34.0868 25.1717 34.0868 25.0828C34.0779 25.0028 34.149 24.8605 34.2378 24.7805C34.3266 24.6916 34.6464 24.576 34.9574 24.5138C35.2683 24.4515 35.4904 24.3715 35.446 24.3271C35.4104 24.2915 35.2505 24.2648 35.1084 24.2648C34.9663 24.2648 34.6909 24.2293 34.4954 24.1937C34.22 24.1492 34.1223 24.0692 33.9979 23.8203C33.9091 23.6513 33.7936 23.2779 33.7403 22.9934C33.687 22.7178 33.6603 22.4422 33.687 22.3977C33.7225 22.3533 33.838 22.3088 33.9535 22.3088V22.3088ZM37.8446 22.3088C38.0578 22.3088 38.0844 22.3444 38.0844 22.6022C38.0844 22.7534 38.0311 23.0912 37.9601 23.3313C37.889 23.5802 37.7557 23.8647 37.6669 23.9803C37.5425 24.1492 37.3915 24.2026 36.9029 24.247C36.5742 24.2826 36.3077 24.3271 36.3077 24.3537C36.3077 24.3804 36.4854 24.4249 36.7075 24.4693C36.9296 24.5049 37.2316 24.5938 37.3737 24.6649C37.5159 24.736 37.6669 24.8872 37.6936 25.0028C37.7291 25.1272 37.6491 25.3851 37.4715 25.7318C37.3293 26.0252 37.1428 26.3453 37.0717 26.4431C36.9384 26.6209 36.9296 26.612 36.7075 26.3542C36.592 26.2031 36.3876 25.8919 36.2633 25.6429C36.1389 25.4029 36.0145 24.9761 35.979 24.7094C35.9435 24.3182 35.9701 24.1492 36.1122 23.8647C36.21 23.6691 36.4409 23.3135 36.6364 23.0645C36.8229 22.8245 37.125 22.5489 37.2938 22.4688C37.4626 22.3799 37.7024 22.3088 37.8446 22.3088V22.3088ZM0.151001 22.3977H1.7323C2.85165 22.3977 3.45574 22.4333 3.81997 22.5311C4.09537 22.6022 4.5129 22.7622 4.75276 22.8778C4.98374 22.9934 5.34797 23.2512 5.57006 23.438C5.79216 23.6336 6.0942 24.0248 6.25411 24.3182C6.41401 24.6116 6.58281 25.1184 6.65387 25.4651C6.74271 25.963 6.74271 26.2031 6.65387 26.6654C6.59169 26.9855 6.44067 27.4478 6.32518 27.6878C6.20969 27.9368 5.92541 28.328 5.68555 28.568C5.44569 28.8081 4.99262 29.1282 4.63727 29.2971C4.26416 29.4838 3.76667 29.635 3.39355 29.6883C3.05597 29.7328 2.18537 29.7772 0.151001 29.7772V22.3977ZM2.10542 27.9546C3.03821 27.8479 3.48239 27.7323 3.70448 27.6167C3.91769 27.51 4.21086 27.2611 4.34411 27.0655C4.48625 26.8699 4.61951 26.5498 4.64616 26.3542C4.67281 26.1586 4.64616 25.8207 4.59285 25.5985C4.52179 25.3317 4.36484 25.0798 4.12202 24.8427C3.87327 24.5997 3.60972 24.4426 3.33137 24.3715C3.09151 24.3093 2.72728 24.2648 2.50518 24.2648H2.10542V27.9546ZM30.4444 22.3977H32.31V29.7772H30.4444V22.3977ZM20.6724 22.8423H22.5557L22.5824 24.4871L23.604 24.5315V26.043H22.5379V26.9321C22.5379 27.4211 22.5824 27.9012 22.6268 27.999C22.6979 28.1413 22.7867 28.168 23.3819 28.0968L23.6484 28.6836C23.7994 29.0037 23.9238 29.306 23.9416 29.3505C23.9505 29.386 23.755 29.5194 23.4974 29.6439C23.1598 29.8039 22.8844 29.8661 22.4935 29.8661C22.1737 29.8661 21.8184 29.795 21.6052 29.7061C21.4097 29.6172 21.161 29.4216 21.0544 29.2793C20.9389 29.1371 20.8056 28.8348 20.7612 28.6036C20.7168 28.3636 20.6724 27.6967 20.6724 26.043H19.8728V24.5315H20.6724V22.8423ZM27.0686 24.4071C27.3351 24.4337 27.7349 24.5138 27.957 24.576C28.1791 24.6471 28.5167 24.8338 28.7032 24.9939C28.8987 25.1539 29.1385 25.4473 29.2363 25.6429C29.4051 25.9719 29.4228 26.1675 29.4672 29.7772H28.6233C27.7882 29.7772 27.7793 29.7772 27.7793 29.5549C27.7793 29.4305 27.7438 29.3327 27.6905 29.3327C27.6461 29.3327 27.5839 29.3682 27.5572 29.4216C27.5306 29.4749 27.344 29.5994 27.1397 29.6972C26.8288 29.8483 26.6422 29.8839 26.1358 29.8483C25.7538 29.8306 25.3807 29.7505 25.1675 29.6439C24.9721 29.5461 24.7411 29.3682 24.6523 29.2438C24.5545 29.1193 24.4568 28.8437 24.4302 28.6214C24.4035 28.3991 24.4035 28.0702 24.4391 27.8923C24.4657 27.7056 24.6078 27.43 24.7411 27.2789C24.8744 27.1188 25.0787 26.9499 25.2031 26.9054C25.3274 26.8521 25.9226 26.7899 27.6461 26.7098L27.6283 26.4431C27.6194 26.292 27.5217 26.1053 27.4062 26.0163C27.2907 25.9274 27.0598 25.8563 26.891 25.8563C26.7222 25.8563 26.4734 25.9363 26.0914 26.2208L25.3008 25.9808C24.599 25.7585 24.519 25.714 24.5901 25.5807C24.6345 25.4918 24.8122 25.2784 24.981 25.1095C25.1498 24.9405 25.4251 24.736 25.5851 24.656C25.745 24.576 26.0292 24.4782 26.2247 24.4337C26.4201 24.3982 26.8021 24.3893 27.0686 24.4071V24.4071ZM26.3402 28.2213C26.3491 28.3458 26.4201 28.4614 26.4912 28.488C26.5623 28.5147 26.7488 28.5325 26.8998 28.5325C27.0686 28.5325 27.2463 28.4525 27.3885 28.3102C27.5039 28.1857 27.6017 28.0257 27.6017 27.9546C27.6017 27.8568 27.4951 27.8212 27.1397 27.8212C26.8821 27.8212 26.5978 27.8657 26.5001 27.919C26.3935 27.9724 26.3313 28.0879 26.3402 28.2213ZM7.61332 24.5315H9.47889V29.7772H7.61332V24.5315ZM17.2966 24.5315H19.1621L19.1177 29.7772H17.2966V24.5315Z" fill="white"/>
<path fill-rule="evenodd" clip-rule="evenodd" d="M0.151001 13.0623H5.48123V14.9294H2.10542L2.14984 16.1296L4.77053 16.1741V17.9523L2.14984 17.9967L2.10542 20.8863H0.151001V13.0623ZM28.7299 13.0623H30.711V14.4848C30.711 15.2672 30.7376 15.9074 30.782 15.9074C30.8176 15.9074 30.9419 15.8096 31.0663 15.6851C31.1907 15.5606 31.4483 15.3917 31.6437 15.3206C31.8658 15.2317 32.1768 15.1961 32.4877 15.2139C32.7542 15.2317 33.1362 15.3295 33.3316 15.4273C33.5982 15.5695 33.7492 15.7384 34.22 16.6542L34.2644 20.8863H32.31V19.2415C32.31 17.9612 32.2834 17.5344 32.1768 17.3299C32.0968 17.1699 31.9458 17.0454 31.8036 17.0098C31.6615 16.9743 31.4305 16.9921 31.2884 17.0276C31.1196 17.081 30.9686 17.2232 30.8709 17.4188C30.7376 17.6767 30.711 17.979 30.711 20.8863H28.8454V18.9036C28.8454 17.8189 28.8187 16.0585 28.7832 14.9916L28.7299 13.0623ZM8.73266 15.2317C9.23903 15.2494 9.57661 15.3206 9.92308 15.4717C10.1807 15.5962 10.5538 15.854 10.7404 16.0674C10.9536 16.2986 11.1313 16.6275 11.2201 16.912C11.3178 17.2588 11.3534 17.8278 11.3534 20.8952H9.57661V20.6729C9.57661 20.5307 9.52331 20.4507 9.44336 20.4507C9.36341 20.4507 9.3101 20.4862 9.3101 20.5396C9.3101 20.584 9.11466 20.7085 8.88369 20.8152C8.53722 20.9663 8.34178 21.0019 7.79987 20.9663C7.3468 20.9485 7.01811 20.8685 6.77825 20.7441C6.5828 20.6463 6.35183 20.4684 6.26299 20.344C6.17415 20.2284 6.06755 19.9528 6.02313 19.7394C5.97871 19.5082 5.97871 19.1615 6.02313 18.9392C6.06755 18.7169 6.17415 18.4324 6.27188 18.3168C6.36071 18.1923 6.57392 18.0056 6.74271 17.9167C6.99146 17.7656 7.2402 17.73 8.19964 17.7033C8.83038 17.6856 9.38117 17.65 9.42559 17.6144C9.46113 17.5789 9.43447 17.4099 9.35452 17.2232C9.28345 17.0365 9.14131 16.8498 9.04359 16.8054C8.94587 16.752 8.75043 16.7076 8.61717 16.7076C8.48392 16.7076 8.22629 16.8054 7.71104 17.161L6.11197 16.6275L6.28076 16.3786C6.3696 16.2452 6.5828 16.0052 6.74271 15.8451C6.9115 15.6851 7.25797 15.4717 7.53336 15.3739C7.90648 15.2405 8.18187 15.205 8.73266 15.2317V15.2317ZM8.07527 19.2948C8.10192 19.4726 8.1641 19.5171 8.42173 19.5438C8.59052 19.5527 8.8215 19.5438 8.9281 19.5171C9.03471 19.4904 9.18573 19.3482 9.26568 19.197C9.33675 19.0548 9.39894 18.9125 9.39894 18.8858C9.39894 18.8681 9.16796 18.8414 8.88369 18.8414C8.59941 18.8414 8.29736 18.8947 8.20852 18.957C8.1108 19.0281 8.0575 19.1526 8.07527 19.2859V19.2948ZM19.5708 15.2405C20.1038 15.2583 20.397 15.3206 20.7701 15.4895C21.0366 15.614 21.3653 15.8362 21.5074 15.9785C21.6496 16.1119 21.845 16.3875 21.9516 16.592C22.1293 16.912 22.1471 17.0899 22.1915 20.9041H20.4147V20.6818C20.4147 20.5573 20.3703 20.4595 20.3259 20.4595C20.2726 20.4595 20.2104 20.4951 20.1926 20.5485C20.166 20.5929 19.9706 20.7085 19.7662 20.8063C19.5086 20.9308 19.1977 20.9841 18.7713 20.9841C18.2915 20.9841 18.0428 20.9397 17.6786 20.7618C17.3143 20.5929 17.1722 20.4595 17.0212 20.1661C16.879 19.8638 16.8435 19.6682 16.8701 19.197C16.8879 18.7791 16.959 18.5302 17.0833 18.3613C17.1811 18.2279 17.4209 18.0323 17.6164 17.9345C17.9095 17.7745 18.1494 17.7389 20.3703 17.6856L20.2992 17.401C20.2637 17.2499 20.1305 17.0276 20.015 16.9209C19.8728 16.7965 19.6774 16.7253 19.4819 16.7253C19.2776 16.7253 19.0733 16.7965 18.638 17.1699L16.9501 16.6364L17.11 16.3875C17.1988 16.2541 17.4387 16.0052 17.6341 15.8362C17.8296 15.6584 18.1849 15.4539 18.4248 15.365C18.7357 15.2583 19.0555 15.2139 19.5708 15.2405ZM18.9134 19.2948C18.94 19.4993 18.9933 19.526 19.3665 19.5438C19.7129 19.5616 19.8284 19.526 20.015 19.3482C20.1305 19.2237 20.2371 19.0637 20.2371 18.9925C20.2371 18.8858 20.1216 18.8592 19.7218 18.8592C19.4375 18.8592 19.1355 18.9036 19.0466 18.9659C18.9489 19.037 18.8956 19.1615 18.9134 19.3037V19.2948ZM25.6117 15.2317C26.1803 15.2405 26.4201 15.2939 26.8288 15.4895C27.1841 15.6584 27.3973 15.8273 27.5217 16.0496C27.6194 16.2186 27.6816 16.3697 27.6727 16.3964C27.6638 16.4142 27.3529 16.5475 26.9887 16.6987C26.3313 16.9565 26.3135 16.9565 26.1447 16.7965C26.047 16.7076 25.8427 16.6009 25.7005 16.5742C25.5051 16.5386 25.3718 16.5653 25.2297 16.6809C25.0787 16.7965 25.0431 16.8854 25.0964 17.0098C25.132 17.0988 25.3274 17.2232 25.5229 17.2944C25.7183 17.3566 26.0914 17.4722 26.3668 17.5522C26.6333 17.6233 26.9887 17.7834 27.1664 17.9078C27.3351 18.0412 27.5661 18.2901 27.6727 18.468C27.8149 18.708 27.8771 18.9481 27.8771 19.2948C27.8771 19.6505 27.8237 19.8638 27.6727 20.095C27.5484 20.2906 27.2818 20.4951 26.9443 20.664C26.4823 20.8952 26.2869 20.9397 25.5673 20.9663C24.8477 20.993 24.6434 20.9663 24.1903 20.7885C23.8972 20.6818 23.524 20.4595 23.3641 20.2906C23.2042 20.1306 23.071 19.9528 23.071 19.8905C23.071 19.8283 23.3997 19.6505 23.8083 19.4993C24.5279 19.2326 24.5457 19.2237 24.6967 19.3926C24.7855 19.4815 24.9632 19.5793 25.0964 19.6149C25.2297 19.6416 25.434 19.6416 25.5406 19.6149C25.6472 19.5793 25.7627 19.4993 25.7894 19.4282C25.8071 19.3482 25.8071 19.2415 25.7894 19.1792C25.7627 19.117 25.6561 19.0192 25.5406 18.9659C25.434 18.9036 25.052 18.7791 24.6967 18.6725C24.2614 18.548 23.9416 18.3968 23.7195 18.1923C23.5329 18.0234 23.3375 17.7389 23.2753 17.5433C23.222 17.3566 23.1687 17.0632 23.1687 16.8943C23.1687 16.7164 23.2575 16.3964 23.3641 16.183C23.5063 15.8896 23.6839 15.7118 23.9682 15.5606C24.1814 15.445 24.4835 15.3117 24.6345 15.2761C24.7766 15.2405 25.2208 15.2139 25.6117 15.2317V15.2317ZM37.8268 15.2228C38.4042 15.2494 38.6885 15.3117 39.0705 15.4895C39.337 15.614 39.6835 15.8718 39.8434 16.0585C40.0033 16.2452 40.1899 16.5831 40.2698 16.8054C40.3675 17.1076 40.4031 17.6322 40.4031 20.8952H38.6263V20.6729C38.6263 20.5485 38.5819 20.4507 38.5375 20.4507C38.4842 20.4507 38.422 20.4862 38.4042 20.5396C38.3776 20.584 38.1822 20.6996 37.9778 20.7974C37.738 20.913 37.4093 20.9752 37.0717 20.9752C36.7785 20.9752 36.3876 20.9397 36.2011 20.8863C36.0145 20.8419 35.7391 20.6907 35.5881 20.5573C35.4371 20.424 35.2505 20.1839 35.1883 20.0239C35.1262 19.8638 35.0729 19.5438 35.0729 19.3126C35.064 19.0459 35.1439 18.7436 35.2683 18.4946C35.4104 18.2279 35.5792 18.0412 35.828 17.9167C36.1211 17.7656 36.3699 17.73 38.5375 17.6945V17.4722C38.5375 17.3388 38.422 17.1343 38.271 16.9832C38.0755 16.7876 37.9156 16.7164 37.6935 16.7164C37.4892 16.7164 37.2938 16.7876 36.894 17.1432L36.0945 16.8943C35.6503 16.7609 35.2772 16.6098 35.2683 16.5653C35.2505 16.5208 35.4104 16.2986 35.6236 16.0674C35.8813 15.774 36.1744 15.5695 36.5387 15.4184C36.9917 15.2228 37.1783 15.1961 37.8268 15.2228ZM37.1339 19.3393C37.1516 19.4815 37.2405 19.5171 37.5781 19.5349C37.9245 19.5527 38.04 19.5171 38.2266 19.3393C38.3421 19.2148 38.4487 19.0548 38.4487 18.9836C38.4487 18.877 38.3243 18.8503 37.9245 18.8503C37.5425 18.8503 37.3649 18.8858 37.2582 19.0014C37.1694 19.0903 37.1161 19.2415 37.1339 19.3393V19.3393ZM12.4194 15.3383L14.4182 15.3917L14.3472 15.8273C14.3116 16.0674 14.3116 16.2897 14.3472 16.3075C14.3827 16.3341 14.5515 16.2008 14.7292 16.0229C14.898 15.8451 15.2 15.6317 15.3954 15.5517C15.5909 15.4628 15.8752 15.3739 16.3282 15.2939V17.2054L15.9462 17.2232C15.7419 17.2321 15.4132 17.2855 15.2178 17.3388C15.0223 17.3922 14.7469 17.5166 14.356 17.8278L14.3738 20.8952H12.4194V15.3383Z" fill="white"/>
<path d="M2.07878 27.0211C2.06989 27.5367 2.05212 27.1367 2.05212 26.132C2.05212 25.1273 2.06989 24.7094 2.07878 25.1984C2.09654 25.6874 2.09654 26.5054 2.07878 27.0211Z" fill="white" fill-opacity="0.38"/>
</svg>
