<svg width="82" height="45" viewBox="0 0 82 45" fill="none" xmlns="http://www.w3.org/2000/svg">
<path d="M42.1343 25.7101C41.8923 26.5035 41.7712 27.0415 41.7712 27.0415H41.7443C41.7443 27.0415 41.6098 26.5035 41.3678 25.7101L40.0364 21.3931H37.8039L40.6953 29.7177H42.8068L45.6982 21.3931H43.4926L42.1343 25.7101Z" fill="white"/>
<path d="M48.4417 21.3794H46.2227V29.7444H48.4417V21.3794Z" fill="white"/>
<path d="M67.3775 21.3795L66.3151 25.2662C66.1402 25.952 65.9385 26.8262 65.9385 26.8262H65.9116C65.9116 26.8262 65.6964 25.952 65.5216 25.2393L64.4323 21.3795H62.536L61.487 25.2393C61.3122 25.9251 61.1239 26.8262 61.1239 26.8262H61.097C61.097 26.8262 60.8953 25.952 60.7205 25.2662L59.7118 21.3795H57.5062H56.4842C57.3852 21.783 58.1921 23.733 58.1921 23.7465L59.0259 26.5976C58.7839 26.7052 58.5821 26.9069 58.488 27.1624H55.3276V27.2431H55.2872C55.0452 27.8752 54.5341 28.2652 53.6734 28.2652C52.4227 28.2652 51.6965 27.4717 51.5351 26.1807H57.6004C57.6004 23.1951 56.1614 21.1375 53.4717 21.1375C51.024 21.1375 49.343 23.0606 49.343 25.5351C49.343 28.0366 50.903 29.9732 53.6868 29.9732C55.7176 29.9732 57.0086 28.8569 57.4121 27.4852H58.4208V27.539C58.4208 28.1173 58.8914 28.588 59.4697 28.588C59.5235 28.588 59.5639 28.5745 59.6177 28.5745L59.9539 29.7176H61.9577L63.1009 25.6024C63.2757 24.93 63.4909 24.1499 63.4909 24.1499H63.5178C63.5178 24.1499 63.7195 24.93 63.8943 25.6024L64.9971 29.7176H67.0144L69.5158 21.3526H67.3775V21.3795ZM53.5255 22.8589C54.5341 22.8589 55.2334 23.5985 55.3007 24.6475H51.5889C51.7771 23.5582 52.342 22.8589 53.5255 22.8589ZM59.4563 28.2249C59.0932 28.2249 58.7973 27.929 58.7973 27.5659C58.7973 27.2028 59.0932 26.9069 59.4563 26.9069C59.8194 26.9069 60.1153 27.2028 60.1153 27.5659C60.1153 27.929 59.8194 28.2249 59.4563 28.2249Z" fill="white"/>
<path d="M37.2795 18.0845H35.0605V20.0749H37.2795V18.0845Z" fill="white"/>
<path d="M37.2795 21.3794H35.0605V29.7444H37.2795V21.3794Z" fill="white"/>
<path d="M2.36695 18.0845H0V29.7444H7.85397V27.7675H2.36695V18.0845Z" fill="white"/>
<path d="M12.2114 21.1506C9.76371 21.1506 8.08264 23.0738 8.08264 25.5483C8.08264 28.0498 9.64268 29.9864 12.4265 29.9864C14.5783 29.9864 15.8963 28.7356 16.2056 27.2428H14.0269C13.7848 27.8749 13.2738 28.2649 12.4131 28.2649C11.1624 28.2649 10.4361 27.4715 10.2748 26.1804H16.3401C16.3401 23.2083 14.9145 21.1506 12.2114 21.1506ZM10.3151 24.6473C10.5168 23.5579 11.0817 22.8586 12.2517 22.8586C13.2603 22.8586 13.9597 23.5983 14.0269 24.6473H10.3151Z" fill="white"/>
<path d="M17.2678 27.7541H19.4868V24.9972C19.4868 23.854 20.1996 23.074 21.1813 23.074C22.1093 23.074 22.6338 23.7061 22.6338 24.6072V29.7445H24.8528V24.2844C24.8528 22.4554 23.6962 21.1509 21.9614 21.1509C21.5445 21.1509 21.1813 21.2181 20.8586 21.3392H20.3072C20.1458 20.9491 19.7692 20.6802 19.3389 20.6802C18.9085 20.6802 18.5185 20.9491 18.3706 21.3392H15.1026L15.0353 21.6754H16.4071C16.9854 22.3075 17.2409 23.5582 17.2813 23.7599M19.3254 22.3881C18.9623 22.3881 18.6665 22.0923 18.6665 21.7292C18.6665 21.3661 18.9623 21.0702 19.3254 21.0702C19.6885 21.0702 19.9844 21.3661 19.9844 21.7292C19.9844 22.0923 19.6885 22.3881 19.3254 22.3881Z" fill="white"/>
<path d="M31.5236 22.388H31.4698C31.0125 21.6887 30.2729 21.1507 29.1028 21.1507C27.0183 21.1507 25.5255 22.9663 25.5255 25.5753C25.5255 28.2785 26.9645 29.9999 29.0625 29.9999C30.2325 29.9999 31.0663 29.462 31.5639 28.6685H31.5908V29.7578H33.7292V18.0845H31.5101V22.388H31.5236ZM29.5601 28.1306C28.417 28.1306 27.7849 27.1892 27.7849 25.5753C27.7849 24.0287 28.4035 22.9529 29.6273 22.9529C31.0394 22.9529 31.5639 24.0287 31.5639 25.6291C31.5639 27.1488 30.8781 28.1306 29.5601 28.1306Z" fill="white"/>
<path d="M19.3257 21.0703C18.9626 21.0703 18.6667 21.3662 18.6667 21.7293C18.6667 22.0924 18.9626 22.3883 19.3257 22.3883C19.6888 22.3883 19.9846 22.0924 19.9846 21.7293C19.9846 21.3662 19.6888 21.0703 19.3257 21.0703Z" fill="white"/>
<path d="M59.4562 26.8936C59.0931 26.8936 58.7972 27.1894 58.7972 27.5525C58.7972 27.9156 59.0931 28.2115 59.4562 28.2115C59.8193 28.2115 60.1152 27.9156 60.1152 27.5525C60.1152 27.1894 59.8193 26.8936 59.4562 26.8936Z" fill="white"/>
<path d="M17.268 29.7448H19.487V27.7544H17.268V29.7448Z" fill="white"/>
<path d="M68.951 25.293L68.8434 25.6426H69.9327L70.0269 25.293H68.951Z" fill="white"/>
<path d="M78.5532 25.6426H81.4177L81.5119 25.293H78.6607L78.5532 25.6426Z" fill="white"/>
<path d="M75.5004 24.4456C74.9894 24.4456 74.559 24.8087 74.4649 25.3063H70.4572L70.3496 25.6425H74.4649C74.5321 26.1535 74.9759 26.557 75.5004 26.557C76.0384 26.557 76.4687 26.1535 76.536 25.6425H78.1094L78.217 25.3063H76.5225C76.4418 24.8087 76.0115 24.4456 75.5004 24.4456ZM75.487 26.1535C75.1239 26.1535 74.828 25.8577 74.828 25.4945C74.828 25.1314 75.1239 24.8356 75.487 24.8356C75.8501 24.8356 76.146 25.1314 76.146 25.4945C76.146 25.8577 75.8501 26.1535 75.487 26.1535Z" fill="white"/>
<path d="M81.5925 16H72.8778L71.9633 18.9856C72.1113 18.9856 72.2458 19.0259 72.3668 19.0797L73.1872 16.4035H81.0277L78.2304 25.293L78.1228 25.6292L76.9528 29.341L69.2198 29.3679L70.363 25.6292L70.4706 25.293L71.7616 21.0701C71.6271 21.0432 71.4926 21.0029 71.3716 20.9222L70.0268 25.2795L69.9192 25.6157L68.6415 29.7579L77.2352 29.731L78.5397 25.6023L78.6473 25.2661L81.5925 16Z" fill="white"/>
<path d="M71.923 21.097C72.4609 21.097 72.8913 20.6935 72.9585 20.1825H74.4513L74.5455 19.8463H72.9451C72.8778 19.5101 72.6627 19.2411 72.3533 19.0932C72.2323 19.0394 72.0978 18.999 71.9499 18.999H71.8961C71.385 18.999 70.9547 19.3621 70.8606 19.8597H67.6732L67.5791 20.1959H70.8606C70.9009 20.5187 71.0892 20.7877 71.3447 20.9491C71.4657 21.0163 71.5868 21.0701 71.7347 21.097C71.8154 21.0836 71.8692 21.097 71.923 21.097ZM71.2506 20.0346C71.2506 19.6715 71.5464 19.3756 71.9095 19.3756C72.2727 19.3756 72.5685 19.6715 72.5685 20.0346C72.5685 20.3977 72.2727 20.6935 71.9095 20.6935C71.5464 20.6935 71.2506 20.4111 71.2506 20.0346Z" fill="white"/>
<path d="M71.9096 20.7069C72.2727 20.7069 72.5686 20.411 72.5686 20.0479C72.5686 19.6848 72.2727 19.3889 71.9096 19.3889C71.5465 19.3889 71.2506 19.6848 71.2506 20.0479C71.2506 20.411 71.5465 20.7069 71.9096 20.7069Z" fill="white"/>
<path d="M75.4869 24.8354C75.1238 24.8354 74.8279 25.1313 74.8279 25.4944C74.8279 25.8575 75.1238 26.1534 75.4869 26.1534C75.85 26.1534 76.1458 25.8575 76.1458 25.4944C76.1458 25.1313 75.85 24.8354 75.4869 24.8354Z" fill="white"/>
</svg>
