<svg width="62" height="50" viewBox="0 0 62 50" fill="none" xmlns="http://www.w3.org/2000/svg">
<path d="M20.1442 26.2959C19.3965 26.2959 18.2858 26.5148 17.5598 27.586C17.1751 28.1446 16.2811 29.5234 16.2811 29.5234L16.2269 29.5798L14.1193 26.2959H10.8414L14.6123 31.6089L10.9606 36.8698H13.9893L16.2215 33.6612L18.4267 36.8698H21.3687L17.7169 31.4398L21.4012 26.2959H20.1225H20.1442ZM22.4794 28.1056V36.8698H25.1613V26.0061C24.8579 26.0819 23.6063 26.4622 22.9237 27.1742C22.6311 27.476 22.4794 27.8206 22.4794 28.1056ZM42.9109 28.513L44.1516 26.2959H40.6136V22.2865C39.568 22.6528 38.6956 23.2428 38.3922 23.6102C38.0671 24.0035 37.948 24.3303 37.948 24.9652V33.9343C37.948 35.1669 38.2622 35.9357 38.7769 36.4017C39.297 36.8687 39.9093 37.0524 40.8358 37.0524C41.8056 37.0524 42.51 36.8357 43.1222 36.4846V34.656C42.7158 34.8451 42.2499 34.9545 41.746 34.9545C41.383 34.9545 41.0904 34.8597 40.89 34.6484C40.6949 34.4333 40.6136 34.1315 40.6136 33.7582V28.5141H42.9109V28.513ZM52.7176 27.347C51.7315 26.3452 50.5883 26.1751 49.1525 26.174C47.6625 26.174 46.2918 26.764 46.0317 26.9591C45.8096 27.1243 45.6633 27.3454 45.6633 27.6385V29.0537C46.6439 28.7211 47.9226 28.5244 48.7082 28.5244C49.4993 28.5244 50.1819 28.6176 50.6208 28.9806C51.1301 29.3999 51.1897 30.0972 51.1897 30.4331C51.1897 30.5534 51.1897 30.6266 51.1897 30.6266V30.6699H51.1355C51.1355 30.6699 49.9544 30.5388 48.7136 30.5388C47.4783 30.5388 46.3893 30.768 45.647 31.3515C44.9914 31.8619 44.4767 32.8317 44.4767 33.8557C44.4767 35.0271 44.9914 35.8436 45.5874 36.3323C46.1997 36.8422 47.3537 37.0779 48.3181 37.0779C49.3584 37.0779 50.0573 36.9056 50.4962 36.7344C50.935 36.5599 51.1084 36.3941 51.1084 36.3941L51.1789 36.3269V36.8758H53.7199V30.717C53.7199 29.2764 53.4653 28.1077 52.7176 27.3514M51.1789 33.309C51.1789 33.8823 50.9351 34.6528 50.1169 35.0038C49.716 35.1734 49.2988 35.2644 48.8924 35.2644C48.4861 35.2644 48.096 35.1712 47.7601 34.9664C47.3266 34.7015 47.1641 34.2307 47.1641 33.7983C47.1641 33.5009 47.2399 33.2197 47.3645 33.0219C47.6625 32.5505 48.2639 32.2547 49.2446 32.2309C49.3259 32.2309 49.4017 32.2309 49.4722 32.2309C50.5775 32.2309 51.1789 32.4416 51.1789 32.4416V33.3107V33.309ZM31.4517 26.1784C29.9617 26.1784 28.591 26.7684 28.3309 26.9634C28.1142 27.1287 27.9625 27.3497 27.9625 27.6429V29.0581C28.9431 28.7254 30.2218 28.5287 31.0074 28.5287C31.7984 28.5287 32.4811 28.6219 32.92 28.9849C33.4239 29.4043 33.4889 30.1016 33.4889 30.4375C33.4889 30.5578 33.4889 30.6309 33.4889 30.6309V30.6743H33.4347C33.4347 30.6743 32.2536 30.5431 31.0128 30.5431C29.7721 30.5431 28.6885 30.7723 27.9462 31.3558C27.2906 31.8662 26.7759 32.8361 26.7759 33.8601C26.7759 35.0315 27.2906 35.848 27.8866 36.3367C28.4988 36.8465 29.6529 37.0822 30.6173 37.0822C31.6522 37.0822 32.3565 36.9099 32.7954 36.7387C33.2342 36.5642 33.4076 36.3984 33.4076 36.3984L33.478 36.3312V36.8801H36.0191V30.7214C36.0191 29.2807 35.7645 28.1121 35.0168 27.3557C34.0253 26.3539 32.8875 26.1838 31.4517 26.1827M33.4835 33.3134C33.4835 33.8866 33.2397 34.6571 32.4161 35.0082C32.0152 35.1778 31.598 35.2688 31.1916 35.2688C30.7853 35.2688 30.3897 35.1756 30.0592 34.9708C29.6312 34.7058 29.4633 34.235 29.4633 33.8026C29.4633 33.5052 29.5391 33.224 29.6637 33.0262C29.9671 32.5549 30.5631 32.259 31.5492 32.2352C31.6196 32.2352 31.7009 32.2352 31.7714 32.2352C32.8766 32.2352 33.4835 32.446 33.4835 32.446V33.315V33.3134ZM5.38538 26.1827C3.89542 26.1822 2.51923 26.7727 2.26458 26.9678C2.04244 27.133 1.89615 27.3541 1.89615 27.6472V29.0624C2.8714 28.7297 4.15548 28.5331 4.93568 28.5331C5.73214 28.5331 6.4094 28.6262 6.85368 28.9892C7.35756 29.4086 7.42258 30.1059 7.42258 30.4418C7.42258 30.5621 7.42258 30.6352 7.42258 30.6352V30.6786H7.3684C7.3684 30.6786 6.18726 30.5475 4.9411 30.5475C3.70578 30.5475 2.62217 30.7767 1.87448 31.3602C1.21889 31.8706 0.709595 32.8404 0.709595 33.8644C0.709595 35.0358 1.22431 35.8523 1.8203 36.341C2.43254 36.8508 3.58659 37.0865 4.551 37.0865C5.59127 37.0865 6.28478 36.9142 6.72906 36.743C7.16793 36.5686 7.3413 36.4028 7.3413 36.4028L7.41174 36.3356V36.8844H9.94739V30.7257C9.94739 29.2851 9.69274 28.1164 8.94505 27.36C7.95896 26.3582 6.81575 26.1881 5.37997 26.187M7.41174 33.3177C7.41174 33.891 7.16793 34.6614 6.3498 35.0125C5.94886 35.1821 5.52625 35.2731 5.12532 35.2731C4.71354 35.2731 4.32344 35.1799 3.99294 34.9751C3.5595 34.7102 3.39154 34.2393 3.39154 33.807C3.39154 33.5095 3.46739 33.2283 3.592 33.0306C3.89542 32.5592 4.4914 32.2634 5.47749 32.2395C5.55334 32.2395 5.6292 32.2395 5.69963 32.2395C6.80492 32.2395 7.41174 32.4503 7.41174 32.4503V33.3194V33.3177Z" fill="#034EA2"/>
<path d="M45.7771 19.1035L53.7091 23.684V14.5258L45.7771 19.1035Z" fill="#EE3E80"/>
<path d="M45.7771 0.79043V9.94641L53.7091 5.36979L45.7771 0.79043Z" fill="#FAFAFA"/>
<path d="M45.7771 0.79043V9.94641L53.7091 5.36979L45.7771 0.79043Z" fill="#FDB934"/>
<path d="M53.7091 5.36978L45.7771 9.94639L53.7091 14.5258V5.36978Z" fill="#DFDFDF"/>
<path d="M53.7091 5.36978L45.7771 9.94639L53.7091 14.5258V5.36978Z" fill="#F7931E"/>
<path d="M53.7145 14.5263L61.6411 19.1035V9.94701L53.7145 14.5263Z" fill="url(#paint0_linear_2007_405)"/>
<path d="M53.7145 14.5264L61.6411 9.94704L53.7145 5.37039V14.5264Z" fill="url(#paint1_linear_2007_405)"/>
<path d="M53.7145 23.6844L61.6411 19.1035L53.7145 14.5263V23.6844Z" fill="url(#paint2_linear_2007_405)"/>
<defs>
<linearGradient id="paint0_linear_2007_405" x1="53.7091" y1="9.74221" x2="61.6027" y2="9.74221" gradientUnits="userSpaceOnUse">
<stop stop-color="#231E67"/>
<stop offset="0.214279" stop-color="#5F1F70"/>
<stop offset="1" stop-color="#B03D7D"/>
</linearGradient>
<linearGradient id="paint1_linear_2007_405" x1="61.9608" y1="6.33534" x2="61.9608" y2="14.7569" gradientUnits="userSpaceOnUse">
<stop stop-color="#F15A22"/>
<stop offset="1" stop-color="#F7931E"/>
</linearGradient>
<linearGradient id="paint2_linear_2007_405" x1="53.7091" y1="14.3215" x2="61.5439" y2="14.3215" gradientUnits="userSpaceOnUse">
<stop stop-color="#B10836"/>
<stop offset="1" stop-color="#E51257"/>
</linearGradient>
</defs>
</svg>
