<svg width="56" height="45" viewBox="0 0 56 45" fill="none" xmlns="http://www.w3.org/2000/svg">
<g clip-path="url(#clip0_2023_134)">
<path d="M5.85978 27.3692C5.87 27.4286 5.87959 27.4881 5.89045 27.5469C5.96522 27.9488 6.10516 28.3239 6.35502 28.6517C6.53778 28.8914 6.76335 29.0812 7.03174 29.2205C7.44583 29.4358 7.88867 29.5023 8.34876 29.4799C8.86381 29.455 9.3533 29.3208 9.81914 29.1054C10.5189 28.7821 11.1496 28.3546 11.7023 27.8146C11.7119 27.805 11.7215 27.7942 11.7381 27.7763C11.7106 27.7737 11.6908 27.7705 11.6704 27.7699C11.1732 27.7616 10.6773 27.7341 10.1853 27.6542C9.72713 27.5801 9.28684 27.4485 8.86253 27.2606C8.80694 27.2357 8.75198 27.2082 8.69766 27.1801C8.58136 27.1187 8.52896 27.0248 8.54558 26.9098C8.56794 26.7475 8.72195 26.6529 8.87723 26.7034C9.0651 26.7647 9.25106 26.8318 9.44148 26.8829C9.82298 26.9858 10.2109 27.0535 10.6045 27.0868C11.1713 27.1353 11.7368 27.1181 12.3011 27.0491C12.312 27.0478 12.3228 27.0446 12.3439 27.0408C12.9529 26.1244 13.1472 25.1084 13.0353 24.0073C12.9919 24.0399 12.9586 24.0642 12.9267 24.0898C12.5196 24.4067 12.0921 24.6917 11.6372 24.9352C10.7419 25.4132 9.79167 25.7046 8.77435 25.7595C8.68552 25.764 8.5967 25.7685 8.50788 25.7685C8.3986 25.7685 8.30722 25.7282 8.24524 25.6343C8.16919 25.5193 8.20178 25.3825 8.32639 25.325C8.38327 25.2988 8.44845 25.2815 8.51043 25.2796C9.0127 25.263 9.49772 25.1608 9.97123 24.9991C10.3853 24.8579 10.7828 24.677 11.1707 24.4745C11.7586 24.1684 12.319 23.8163 12.8762 23.4591C12.8973 23.4456 12.9165 23.4303 12.9414 23.4118C12.8053 22.7427 12.5746 22.1069 12.2909 21.4826C12.1899 21.5976 12.0941 21.7094 11.9956 21.8181C11.5304 22.3312 11.0148 22.7855 10.4332 23.1638C10.0236 23.4297 9.59038 23.6508 9.13156 23.8195C8.99673 23.8687 8.85997 23.8738 8.72514 23.815C8.65932 23.7862 8.60692 23.7415 8.56858 23.6821C8.5034 23.5811 8.51107 23.4578 8.58584 23.3632C8.66955 23.2571 8.78649 23.2079 8.9111 23.1721C9.0766 23.1249 9.2453 23.0852 9.40825 23.0309C9.96037 22.8456 10.4537 22.5529 10.901 22.1823C11.3208 21.8347 11.6832 21.434 12.0084 20.9982C12.0167 20.9873 12.0231 20.9752 12.0346 20.9567C11.772 20.4442 11.4729 19.9502 11.1496 19.4614C11.133 19.4837 11.1202 19.4971 11.1119 19.5131C10.8384 20.0243 10.4952 20.4825 10.0664 20.8742C9.87154 21.0525 9.6677 21.2219 9.43509 21.3503C9.29707 21.427 9.14817 21.4551 8.99353 21.3976C8.78521 21.3196 8.72258 21.1119 8.85231 20.9311C8.93282 20.8193 9.04465 20.7477 9.16543 20.6883C9.50219 20.5221 9.80764 20.3119 10.0779 20.0505C10.3169 19.8192 10.5189 19.5585 10.6799 19.2671C10.7297 19.1776 10.7758 19.0863 10.8256 18.993C10.2173 18.1354 9.59932 17.2938 8.90023 16.5161C7.94362 17.2133 6.85729 17.5507 5.69555 17.7181C5.69236 17.8945 5.68277 18.0689 5.68852 18.2434C5.70577 18.7738 5.83358 19.2773 6.07768 19.7489C6.16076 19.9093 6.26044 20.0608 6.35182 20.2167C6.41445 20.3234 6.4579 20.4371 6.46301 20.5624C6.4726 20.7797 6.29623 20.9298 6.08216 20.8908C5.99461 20.8749 5.91921 20.8359 5.85211 20.7803C5.77223 20.7138 5.71153 20.6314 5.66424 20.5387C5.48915 20.1949 5.36454 19.8326 5.27955 19.4569C5.20287 19.1169 5.16197 18.7725 5.15494 18.4236C5.15174 18.2766 5.15302 18.1303 5.15239 17.9699C4.59772 18.2402 4.06158 18.5297 3.54653 18.8562C3.54717 18.8792 3.54589 18.8958 3.54781 18.9124C3.59445 19.3022 3.66091 19.6876 3.76507 20.0671C3.85645 20.4007 3.96892 20.726 4.1159 21.0385C4.37534 21.5899 4.71977 22.0801 5.1658 22.498C5.25591 22.5823 5.33259 22.6756 5.3786 22.7926C5.48723 23.0667 5.28402 23.2501 5.061 23.2399C4.89933 23.2322 4.77217 23.1574 4.67376 23.0386C4.5549 22.8954 4.44243 22.7466 4.33508 22.5945C4.11653 22.2852 3.92994 21.9561 3.76571 21.6149C3.43789 20.9337 3.21807 20.2186 3.07685 19.4773C3.06023 19.3898 3.04426 19.3029 3.02637 19.207C2.43591 19.6243 1.89019 20.0831 1.40326 20.6173C1.42562 20.6653 1.44415 20.7081 1.46652 20.7496C1.58729 20.9777 1.70679 21.2065 1.83076 21.4327C2.18669 22.0794 2.57714 22.7037 3.04426 23.2769C3.38933 23.7012 3.77274 24.0859 4.21686 24.408C4.31335 24.4783 4.41496 24.5409 4.514 24.6074C4.58813 24.6572 4.65778 24.7122 4.69548 24.7972C4.75364 24.9288 4.68909 25.0528 4.54787 25.0815C4.45138 25.1013 4.36447 25.0726 4.28524 25.024C3.72098 24.6758 3.19698 24.2738 2.7305 23.8016C2.30619 23.3728 1.93684 22.9006 1.62819 22.3823C1.54001 22.2347 1.44543 22.0896 1.37195 21.9344C1.24542 21.6685 1.13295 21.3963 1.01473 21.1266C1.01346 21.1241 1.0109 21.1222 1.00195 21.1119C0.320119 22.0475 -0.0569034 23.0744 0.00699854 24.2502C0.16228 24.3588 0.31245 24.4738 0.472205 24.5729C0.705447 24.7173 0.941246 24.8592 1.18407 24.987C1.49208 25.1486 1.81351 25.2828 2.14388 25.3921C2.5209 25.5167 2.90495 25.6189 3.29731 25.6835C3.3299 25.6886 3.36249 25.6995 3.3938 25.7097C3.5248 25.7531 3.56953 25.9071 3.48071 26.0139C3.42256 26.0842 3.3446 26.1231 3.25322 26.1167C3.03467 26.1014 2.81485 26.0899 2.59822 26.0592C2.36243 26.0266 2.1279 25.9787 1.89466 25.9289C1.75408 25.8988 1.61541 25.8547 1.47802 25.8107C1.3221 25.7602 1.16554 25.7097 1.01409 25.6464C0.742511 25.5327 0.473484 25.4138 0.219793 25.2624C0.208291 25.2553 0.194871 25.2521 0.167393 25.2419C0.204456 25.371 0.235129 25.4905 0.273471 25.6074C0.454952 26.1596 0.706087 26.6797 1.0109 27.1737C1.28823 27.6242 1.63394 28.0134 2.08701 28.2945C2.71516 28.6843 3.38741 28.7936 4.10056 28.5751C4.49164 28.4556 4.83863 28.253 5.14599 27.9846C5.26933 27.8772 5.38243 27.7584 5.50065 27.6446C5.51215 27.6338 5.52429 27.6223 5.54794 27.6191L5.85978 27.3692Z" fill="#00C897"/>
<path d="M25.4802 20.174V20.278C25.4802 21.2373 25.0265 22.0108 24.1192 22.5984C23.7386 22.8407 23.2814 23.0389 22.7458 23.1948L25.4679 27.174L24.4953 27.1599C24.2442 27.2119 23.9685 27.026 23.6655 26.6023L21.7476 23.5824C21.6613 23.4353 21.5618 23.3357 21.4499 23.2846C21.3979 23.2591 21.3503 23.2459 21.3072 23.2459H20.1787V26.6543C20.1787 26.9741 20.0404 27.1467 19.7638 27.1731H18.6229V17.4131C18.6485 17.1718 18.7524 17.0026 18.9339 16.9075C19.0114 16.8731 19.1022 16.8511 19.2061 16.8423C20.3989 16.8423 21.0896 16.8511 21.2799 16.8678C22.1784 16.9454 22.6489 16.9894 22.6929 16.9973C23.5738 17.1612 24.2046 17.451 24.5852 17.8659C25.1816 18.5231 25.4802 19.2922 25.4802 20.174ZM23.432 21.8848C23.8469 21.306 24.054 20.7273 24.054 20.1485C24.054 19.5265 23.8593 18.9407 23.4708 18.3919C23.0823 17.843 22.5934 17.4827 22.0066 17.3101C21.6437 17.2061 21.1988 17.1541 20.672 17.1541C20.3434 17.1797 20.1796 17.3268 20.1796 17.5946V22.8953C20.6984 22.9296 21.2851 22.9129 21.9423 22.8433C22.4859 22.8266 22.9827 22.5068 23.432 21.8848Z" fill="#00C897"/>
<path d="M31.831 26.1484C32.0301 26.0101 32.1596 25.9414 32.2195 25.9414C32.2794 25.9414 32.3102 25.9713 32.3102 26.0321C32.3102 26.1704 32.1155 26.3686 31.727 26.6285C31.0787 27.0522 30.3924 27.2637 29.6665 27.2637C29.3811 27.2637 29.0525 27.2249 28.6816 27.1474C27.9214 26.9914 27.325 26.6118 26.8933 26.0065C26.392 25.3238 26.1418 24.5072 26.1418 23.5566C26.1418 22.252 26.548 21.0856 27.3602 20.0575C27.9821 19.2717 28.7036 18.8779 29.5247 18.8779C29.8612 18.8779 30.1766 18.9599 30.4708 19.1246C30.7994 19.3061 31.1104 19.58 31.4037 19.9474C31.6971 20.3148 31.9305 20.7447 32.1032 21.2371C32.3367 21.8943 32.4529 22.4555 32.4529 22.9224C32.4265 23.2853 32.2406 23.4844 31.8944 23.5188H27.6183V24.6719C27.6447 25.1124 27.7267 25.493 27.865 25.8127C28.2103 26.5818 28.8155 26.9659 29.6797 26.9659C29.7749 26.9659 29.8744 26.9615 29.9775 26.9527C30.3316 26.9527 30.751 26.8144 31.2346 26.5378C31.3297 26.4849 31.528 26.3554 31.831 26.1484ZM27.6571 21.275C27.6483 21.3613 27.6351 22.0009 27.6183 23.1928H30.6637C30.8021 23.1585 30.906 23.0845 30.9747 22.9726C31.0003 22.9294 31.0179 22.8774 31.0267 22.8166C31.0443 22.696 31.0478 22.4845 31.0399 22.1815C30.9967 21.3085 30.8496 20.6178 30.5994 20.1077C30.3316 19.5633 29.9255 19.2911 29.3811 19.2911C29.0613 19.2911 28.7591 19.3994 28.4737 19.6153C28.0244 19.9615 27.7522 20.5147 27.6571 21.275Z" fill="#00C897"/>
<path d="M34.643 16V26.6542C34.643 26.974 34.4307 27.1466 34.0078 27.173H33.1136V16.4801C33.1136 16.178 33.2564 16.0176 33.5418 16.0009H34.643V16Z" fill="#00C897"/>
<path d="M41.6544 23.2446V27.1719H41.2659H40.7083C40.4061 27.1719 40.2414 27.0203 40.2158 26.7182V25.2021C39.8097 25.824 39.386 26.2953 38.9455 26.6151C38.7209 26.779 38.4707 26.9093 38.1941 27.0036C37.8831 27.1164 37.5677 27.1719 37.2479 27.1719C36.8075 27.1719 36.4445 27.06 36.1591 26.8345C35.9256 26.653 35.7441 26.4072 35.6146 26.0954C35.4244 25.6373 35.3292 25.1492 35.3292 24.6303C35.3292 23.4296 35.7811 22.5698 36.6841 22.0509C37.0145 21.8606 37.3924 21.7655 37.8179 21.7655C38.1218 21.7655 38.4169 21.8175 38.7041 21.9214C39.1296 22.0685 39.482 22.2668 39.7595 22.5178C39.9242 22.665 40.0458 22.7381 40.1242 22.7381C40.1674 22.7381 40.1894 22.7125 40.1894 22.6605C40.1894 22.6517 40.1938 22.5504 40.2026 22.3557C40.2114 22.1611 40.2158 21.9822 40.2158 21.8175C40.2158 20.4784 39.9119 19.7138 39.3032 19.5235C39.06 19.446 38.8204 19.4072 38.5861 19.4072C38.3861 19.4072 38.1949 19.4372 38.0126 19.498C37.7783 19.5755 37.4867 19.7402 37.1396 19.9904C36.87 20.1895 36.596 20.3877 36.3185 20.5868C36.0146 20.8026 35.8278 20.889 35.7582 20.8458C35.7406 20.8282 35.7318 20.807 35.7318 20.7806C35.7318 20.7374 35.7917 20.6423 35.9133 20.4952C36.1379 20.2362 36.4269 19.9772 36.7819 19.7173C36.9634 19.5878 37.1581 19.4627 37.3651 19.3411C37.9527 18.987 38.579 18.8223 39.2441 18.8487C39.4776 18.8575 39.6846 18.883 39.8661 18.9262C40.3585 19.0302 40.7559 19.2848 41.0589 19.6909C41.3355 20.0538 41.5038 20.4969 41.5646 21.0193C41.6245 21.5453 41.6544 22.2861 41.6544 23.2446ZM40.2158 24.0877C40.2158 24.0013 40.2026 23.9194 40.1771 23.841C40.0995 23.6164 39.9383 23.3706 39.6926 23.1019C39.4468 22.8341 39.2168 22.6394 39.0019 22.5187C38.6398 22.3029 38.2998 22.2165 37.9818 22.2597C37.7923 22.2853 37.5985 22.3919 37.4003 22.5769C37.2021 22.7627 37.0691 22.9504 37.0004 23.1407C36.8277 23.5811 36.7634 24.0824 36.8066 24.6444C36.8841 25.6381 37.2796 26.1782 37.9941 26.2645C38.6997 26.3508 39.3366 25.9192 39.9049 24.9686C40.1128 24.6233 40.2158 24.3291 40.2158 24.0877Z" fill="#00C897"/>
<path d="M42.3162 18.9158H43.3918C43.6852 18.9158 43.9054 19.0285 44.0525 19.2532C44.1212 19.3739 44.7044 20.3632 45.8021 22.2211L46.9949 19.3052C47.0636 19.0638 47.194 18.9334 47.3834 18.9167H48.6149C48.5541 19.0118 48.459 19.1457 48.3295 19.3184L46.424 21.8326C46.165 22.1779 46.0355 22.4026 46.0355 22.5065C46.0355 22.5761 46.0531 22.6404 46.0875 22.7012C46.1562 22.814 47.0037 24.308 48.6281 27.1852H47.5913C47.4353 27.2108 47.2847 27.1332 47.1376 26.9518C47.068 26.8654 46.4381 25.8497 45.2453 23.9063L43.9107 26.7967C43.7979 27.039 43.6085 27.1685 43.3407 27.1852H42.317L44.9088 23.7636C44.9608 23.6949 44.9863 23.6121 44.9863 23.517C44.9863 23.4218 44.9581 23.3249 44.9017 23.2254C44.8454 23.1267 43.9829 21.6899 42.3162 18.9158Z" fill="#00C897"/>
<path d="M49.2368 18.8901H50.3926C50.5917 18.8901 50.7565 19.032 50.886 19.3165C50.9467 19.4548 51.8488 21.5761 53.594 25.6805C53.7323 25.2655 53.8706 24.8541 54.008 24.4471C54.1719 23.9626 54.2882 23.538 54.3578 23.1751C54.5648 21.9717 54.785 20.7163 55.0185 19.4099C55.0784 19.202 55.1092 19.0945 55.1092 19.0857C55.1691 18.9562 55.2731 18.891 55.4202 18.891H56.443L54.4467 24.5749C54.2476 25.1457 53.9411 25.9333 53.5261 26.9367C53.172 27.7762 52.7359 28.4678 52.2171 29.0131C51.8198 29.428 51.344 29.7178 50.7917 29.8826C50.5239 29.9601 50.2772 29.9998 50.0526 29.9998C49.7671 29.9998 49.5513 29.9346 49.4042 29.8051C49.3267 29.7355 49.2879 29.5892 49.2879 29.3646V28.3929C49.435 28.6863 49.6702 28.9268 49.9944 29.1126C50.3186 29.2985 50.6358 29.3655 50.9467 29.3135C51.4656 29.2439 51.9836 28.8501 52.5025 28.133C52.7095 27.8388 52.7835 27.5622 52.7227 27.3023C52.6884 27.1781 51.5264 24.3749 49.2368 18.8901Z" fill="#00C897"/>
</g>
<defs>
<clipPath id="clip0_2023_134">
<rect width="56" height="45" fill="white"/>
</clipPath>
</defs>
</svg>
