<svg width="81" height="45" viewBox="0 0 81 45" fill="none" xmlns="http://www.w3.org/2000/svg">
<g clip-path="url(#clip0_2022_440)">
<path d="M77.0952 30C76.5623 30 76.1813 29.8557 75.9639 29.569C75.7042 29.2285 75.6696 28.6764 75.862 27.9722L76.7431 24.6786C76.9028 24.0899 76.8682 23.6397 76.6392 23.3434C76.4545 23.1029 76.1563 22.9759 75.7754 22.9759C74.2113 22.9759 73.1512 24.6632 72.955 25.0018L72.9415 25.0249L71.6102 30.0038H70.1212L70.2808 29.4074L69.8922 29.6114C69.3959 29.873 68.9014 30.0038 68.4224 30.0038C67.4893 30.0038 66.9622 29.5748 66.8967 28.761L66.864 28.3455L66.5697 28.6398C65.6655 29.544 64.6978 30.0038 63.6954 30.0038C62.8701 30.0038 62.3526 29.6825 62.1621 29.0477L62.0775 28.7649L61.8524 28.9572C61.0443 29.6518 60.2882 30.0038 59.6072 30.0038C59.0762 30.0038 58.6953 29.8595 58.476 29.5748C58.2143 29.2362 58.1739 28.6821 58.3605 27.9742L59.1897 24.9691C59.2859 24.5881 59.0858 24.2534 58.6722 24.0899L56.6194 23.0009L54.6494 30.0038H53.4008L53.8298 28.457L53.4162 28.7052C52.0618 29.519 50.3976 30.0038 48.9644 30.0038C47.5176 29.9192 46.5268 29.4844 46.0266 28.711L45.9016 28.5186L45.7342 28.6744C45.0801 29.2805 44.0854 30.0038 43.0638 30.0038C42.5309 30.0038 42.15 29.8595 41.9326 29.5729C41.6729 29.2324 41.6383 28.6802 41.8306 27.9761L42.7118 24.6824C42.8715 24.0937 42.8368 23.6435 42.6079 23.3472C42.4232 23.1068 42.125 22.9798 41.7441 22.9798C40.18 22.9798 39.1199 24.667 38.9237 25.0056L38.9102 25.0287L37.5789 30.0077H36.0898L37.5154 24.6843C37.6751 24.0956 37.6405 23.6454 37.4115 23.3492C37.2268 23.1087 36.9286 22.9817 36.5477 22.9817C34.9836 22.9817 33.9235 24.6689 33.7273 25.0075L33.7138 25.0306L32.3825 30.0096H30.8934L32.5441 23.8628L32.1132 24.1591C31.663 24.4689 31.2244 24.6747 30.8069 24.7748L30.676 24.8055L30.6607 24.9383C30.628 25.2211 30.5683 25.5193 30.4856 25.8213C29.8026 28.3666 27.8922 30.0096 25.6182 30.0096C24.4754 30.0096 23.6424 29.5883 23.2095 28.7918L23.0922 28.5763L22.9113 28.7399C22.2726 29.3189 21.3049 30.0077 20.3102 30.0077C19.7773 30.0077 19.3964 29.8634 19.179 29.5767C18.9193 29.2362 18.8847 28.6841 19.077 27.9799L19.9582 24.6863C20.1102 24.1245 20.0832 23.7166 19.8735 23.4434C19.608 23.0952 19.1232 23.0952 18.9635 23.0952C17.4745 23.0952 16.451 24.5554 16.1739 25.0037L16.1585 25.0287L14.8272 30.0096H13.3381L16.4221 18.4875H17.8977L16.5914 23.3703L17.0897 22.8913C17.7034 22.3007 18.6807 21.5965 19.8524 21.5965C20.4815 21.5965 20.972 21.8043 21.2722 22.1968C21.6723 22.7181 21.7416 23.5627 21.4684 24.5785L20.5738 27.8722C20.4892 28.2108 20.5026 28.4359 20.6161 28.5821C20.6989 28.6879 20.822 28.7399 20.9855 28.7399C21.5858 28.7399 22.5515 27.6144 22.8324 27.27L22.8728 27.22V27.1565C22.8921 26.7621 22.9575 26.3446 23.0729 25.9137C23.754 23.3607 25.6644 21.712 27.9403 21.712C29.339 21.712 30.2778 22.3488 30.5799 23.5031L30.6203 23.6608L30.7819 23.6474C31.3994 23.5935 32.5711 22.3853 33.0655 21.7139H34.4007L34.2448 23.3395L34.6142 22.9971C35.5357 22.1448 36.5035 21.7139 37.4923 21.7139C38.4812 21.7139 39.0987 22.1756 39.1892 23.0875L39.2296 23.4973L39.5182 23.2049C40.4878 22.216 41.5401 21.7158 42.6464 21.7158C43.3159 21.7158 43.7968 21.9024 44.0796 22.2699C44.4413 22.7431 44.4856 23.5416 44.2066 24.5824L43.3274 27.876C43.2428 28.2146 43.2562 28.4378 43.3697 28.584C43.4525 28.6898 43.5756 28.7418 43.7391 28.7418C44.3451 28.7418 45.3186 27.6028 45.6014 27.2546L45.6418 27.2046V27.1411C45.6572 26.766 45.7226 26.3543 45.8419 25.9175C46.5287 23.3646 48.4007 21.7158 50.6112 21.7158C51.6154 21.7158 52.3254 21.9909 52.7217 22.5354C53.3623 23.4146 53.1007 24.8305 52.7698 25.8637L52.5908 26.3696H47.2675V26.562C47.2675 27.6163 47.4349 28.7418 49.4338 28.7418C51.1883 28.7418 53.37 27.9588 54.1992 27.0315L54.23 26.9987L55.9442 20.8212H57.0196L56.9927 21.7408L60.0805 22.899C60.7808 23.1356 61.0424 23.5339 60.8847 24.1168L59.8708 27.876C59.7842 28.1896 59.7977 28.4205 59.9169 28.5763C59.9997 28.6841 60.1247 28.7437 60.269 28.7437C60.925 28.7437 61.8254 27.7741 62.1833 27.3566L62.2121 27.322L62.2371 27.22C62.2429 27.1931 62.2487 27.1661 62.2564 27.1392L63.7089 21.7158H65.1845L63.7589 27.0391C63.5877 27.6894 63.6127 28.1435 63.8339 28.4301C64.0744 28.7437 64.4804 28.7437 64.6131 28.7437C66.0137 28.7437 66.9968 27.2027 67.2642 26.7294L67.2757 26.7082L68.6205 21.7158H70.0961L68.5147 27.6355C68.4147 28.0319 68.4416 28.332 68.5936 28.5244C68.6706 28.6244 68.8225 28.7418 69.0977 28.7418C69.6594 28.7418 70.3078 28.0954 70.756 27.5528L70.783 27.5201L72.3413 21.7139H73.6284L73.4725 23.3415L73.8438 22.9971C74.7596 22.1448 75.7292 21.7139 76.722 21.7139C77.3722 21.7139 77.8397 21.8966 78.1168 22.2545C78.4784 22.7258 78.5208 23.53 78.2399 24.5804L77.3607 27.8741C77.276 28.2089 77.2914 28.432 77.4088 28.5802C77.4665 28.6533 77.5761 28.7399 77.7743 28.7399C78.4092 28.7399 79.4461 27.5201 79.8867 26.9276L80.8409 27.4836C80.3869 28.0723 78.7728 30.0019 77.0913 30.0019L77.0952 30ZM27.5036 22.9721C26.1915 22.9721 25.043 24.086 24.5774 25.8117C24.31 26.8352 24.3831 27.6509 24.7871 28.1742C25.0718 28.5436 25.5105 28.7379 26.0549 28.7379C27.3689 28.7379 28.5175 27.6298 28.9811 25.9118C29.2524 24.9075 29.1793 24.0668 28.7791 23.5454C28.4925 23.1702 28.05 22.9721 27.5036 22.9721ZM50.1745 22.9721C49.2318 22.9721 48.3179 23.6647 47.7312 24.8229L47.5888 25.1018H51.4923L51.5135 24.9344C51.5943 24.3284 51.5308 23.8551 51.3307 23.53C51.1807 23.2761 50.8574 22.9702 50.1725 22.9702L50.1745 22.9721Z" fill="white"/>
<path d="M9.13646 20.7885H4.56919V29.9981H9.13646V20.7885Z" fill="white"/>
<path d="M0 16V30L4.56919 20.7904V16H0Z" fill="white"/>
</g>
<defs>
<clipPath id="clip0_2022_440">
<rect width="80.8429" height="14" fill="white" transform="translate(0 16)"/>
</clipPath>
</defs>
</svg>
