<svg width="85" height="45" viewBox="0 0 85 45" fill="none" xmlns="http://www.w3.org/2000/svg">
<g clip-path="url(#clip0_2022_444)">
<g clip-path="url(#clip1_2022_444)">
<path d="M8.68676 17.3851C8.65491 17.2305 8.60828 17.0793 8.5475 16.9336C8.51396 16.8611 8.47369 16.7918 8.42723 16.7268C8.27827 16.52 8.05208 16.366 7.82167 16.2559C7.23123 15.9773 6.5593 15.9241 5.93241 16.1065C5.36062 16.2795 4.8652 16.645 4.38455 16.9961C3.91825 17.3421 3.4511 17.6835 2.98691 18.0244C2.76073 18.1975 2.53032 18.3658 2.29949 18.5342C2.07836 18.6975 1.78972 18.8511 1.60742 19.0533C1.87159 19.1014 2.16487 19.0676 2.4341 19.1111C2.72023 19.1548 3.00348 19.2157 3.28231 19.2934C3.84946 19.452 4.39721 19.6635 4.94073 19.8799C6.17126 20.3652 7.40179 20.8491 8.63232 21.3316C8.68676 20.0146 8.96569 18.6781 8.68676 17.3851ZM5.16355 17.9379C5.20206 17.9383 5.23929 17.9519 5.26904 17.9763L5.62478 17.6928C5.61546 17.6716 5.61057 17.6488 5.61044 17.6257C5.61044 17.5772 5.62969 17.5307 5.66395 17.4965C5.69822 17.4622 5.7447 17.4429 5.79316 17.4429C5.84162 17.4429 5.8881 17.4622 5.92236 17.4965C5.95663 17.5307 5.97588 17.5772 5.97588 17.6257C5.97658 17.6399 5.97487 17.6542 5.97082 17.6679L6.27845 17.8514C6.31299 17.8193 6.3579 17.8006 6.40505 17.7987C6.43923 17.7986 6.47269 17.8086 6.50126 17.8274L6.86164 17.4767C6.84306 17.4517 6.83301 17.4214 6.83295 17.3902C6.83305 17.3658 6.83801 17.3417 6.84752 17.3193C6.85703 17.2969 6.87091 17.2766 6.88835 17.2596C6.90579 17.2426 6.92643 17.2292 6.94909 17.2203C6.97175 17.2113 6.99596 17.207 7.02031 17.2075C7.04443 17.207 7.0684 17.2114 7.09077 17.2204C7.11315 17.2295 7.13348 17.2429 7.15054 17.26C7.1676 17.277 7.18104 17.2974 7.19006 17.3197C7.19908 17.3421 7.20349 17.3661 7.20303 17.3902C7.20303 17.4387 7.18378 17.4851 7.14952 17.5194C7.11525 17.5537 7.06877 17.5729 7.02031 17.5729C6.98753 17.5736 6.95546 17.5634 6.92916 17.5438L6.56878 17.8949C6.5834 17.9215 6.59164 17.9511 6.59283 17.9814C6.59272 18.0311 6.57289 18.0788 6.53768 18.1139C6.50248 18.149 6.45478 18.1688 6.40505 18.1688C6.38072 18.1686 6.35668 18.1636 6.3343 18.1541C6.31192 18.1445 6.29167 18.1306 6.27471 18.1132C6.25774 18.0958 6.24442 18.0752 6.2355 18.0525C6.22658 18.0299 6.22224 18.0057 6.22275 17.9814C6.22275 17.9671 6.22739 17.9476 6.22739 17.9333L5.9244 17.7552C5.90758 17.7725 5.8874 17.7861 5.86512 17.7952C5.84284 17.8044 5.81893 17.8088 5.79485 17.8084C5.7548 17.808 5.71598 17.7945 5.68428 17.77L5.33319 18.0485C5.34262 18.073 5.34748 18.099 5.34754 18.1253C5.34872 18.15 5.34488 18.1747 5.33625 18.1979C5.32761 18.2211 5.31436 18.2422 5.29729 18.2601C5.28023 18.278 5.25971 18.2923 5.23697 18.302C5.21424 18.3118 5.18976 18.3168 5.16502 18.3168C5.14029 18.3168 5.11581 18.3118 5.09308 18.302C5.07034 18.2923 5.04982 18.278 5.03275 18.2601C5.01569 18.2422 5.00244 18.2211 4.9938 18.1979C4.98516 18.1747 4.98132 18.15 4.98251 18.1253C4.98227 18.0766 5.00107 18.0298 5.03489 17.9948C5.06872 17.9598 5.11489 17.9394 5.16355 17.9379ZM5.41674 19.4812H4.94242V18.595H5.41801L5.41674 19.4812ZM6.03201 19.4812H5.55262V18.0966H6.03327L6.03201 19.4812ZM6.64727 19.4812H6.16789V18.4621H6.64854L6.64727 19.4812ZM7.25789 19.4812H6.77851V17.8468H7.25916L7.25789 19.4812Z" fill="white"/>
<path d="M4.53861 26.8593C4.5381 26.8826 4.53072 26.9052 4.51738 26.9242C4.50405 26.9433 4.48537 26.958 4.4637 26.9664C4.44202 26.9749 4.41833 26.9767 4.3956 26.9717C4.37288 26.9667 4.35215 26.9551 4.33602 26.9383C4.3199 26.9216 4.30911 26.9004 4.305 26.8775C4.3009 26.8546 4.30368 26.831 4.31299 26.8097C4.32229 26.7883 4.3377 26.7703 4.35728 26.7577C4.37686 26.7451 4.39972 26.7386 4.42298 26.739C4.45425 26.7397 4.48397 26.7527 4.50565 26.7753C4.52732 26.7978 4.53917 26.828 4.53861 26.8593Z" fill="white"/>
<path d="M11.0757 22.3313H10.7153V22.4756H11.0757V22.3313Z" fill="white"/>
<path d="M10.4364 22.5947H11.3593C11.3673 22.594 11.3753 22.595 11.3829 22.5976C11.3905 22.6002 11.3974 22.6043 11.4033 22.6097C11.4092 22.6151 11.4139 22.6217 11.4172 22.629C11.4204 22.6364 11.422 22.6443 11.422 22.6523C11.422 22.6603 11.4204 22.6682 11.4172 22.6756C11.4139 22.6829 11.4092 22.6895 11.4033 22.6949C11.3974 22.7003 11.3905 22.7044 11.3829 22.707C11.3753 22.7096 11.3673 22.7106 11.3593 22.7099H10.4364C10.4284 22.7106 10.4204 22.7096 10.4128 22.707C10.4052 22.7044 10.3983 22.7003 10.3924 22.6949C10.3865 22.6895 10.3818 22.6829 10.3785 22.6756C10.3753 22.6682 10.3737 22.6603 10.3737 22.6523C10.3737 22.6443 10.3753 22.6364 10.3785 22.629C10.3818 22.6217 10.3865 22.6151 10.3924 22.6097C10.3983 22.6043 10.4052 22.6002 10.4128 22.5976C10.4204 22.595 10.4284 22.594 10.4364 22.5947Z" fill="white"/>
<path d="M10.9458 21.1924C10.9784 21.3048 11.0361 21.4083 11.1146 21.495C11.1146 21.495 11.1197 21.495 11.1146 21.5093C11.0756 21.588 11.0496 21.6725 11.0378 21.7596H10.7542C10.749 21.6712 10.7227 21.5854 10.6774 21.5093V21.495C10.7579 21.409 10.8171 21.3054 10.8504 21.1924V21.4228C10.8438 21.4275 10.8385 21.4339 10.8351 21.4413C10.8317 21.4487 10.8303 21.4569 10.831 21.465C10.8324 21.482 10.84 21.4978 10.8525 21.5093C10.865 21.5208 10.8814 21.5272 10.8983 21.5272C10.9153 21.5272 10.9317 21.5208 10.9442 21.5093C10.9566 21.4978 10.9643 21.482 10.9657 21.465C10.9658 21.4557 10.9637 21.4464 10.9595 21.438C10.9553 21.4297 10.9492 21.4224 10.9416 21.4169V21.1912L10.9458 21.1924Z" fill="white"/>
<path d="M10.4026 20.8798C10.4026 20.8882 10.4002 20.8964 10.3955 20.9033C10.3909 20.9102 10.3843 20.9156 10.3766 20.9188C10.3689 20.922 10.3604 20.9229 10.3522 20.9212C10.344 20.9196 10.3365 20.9156 10.3306 20.9097C10.3247 20.9038 10.3207 20.8963 10.319 20.8881C10.3174 20.8799 10.3183 20.8714 10.3214 20.8637C10.3246 20.856 10.3301 20.8494 10.337 20.8448C10.3439 20.8401 10.3521 20.8376 10.3604 20.8376C10.3716 20.8376 10.3824 20.8421 10.3903 20.85C10.3982 20.8579 10.4026 20.8687 10.4026 20.8798Z" fill="white"/>
<path d="M10.4317 21.1301C10.435 21.1342 10.4367 21.1393 10.4364 21.1445V21.2116C10.4359 21.2152 10.4343 21.2187 10.4317 21.2213H10.3596C10.357 21.2212 10.3546 21.2201 10.3528 21.2183C10.351 21.2165 10.35 21.2141 10.3499 21.2116V21.1445C10.3499 21.1348 10.3545 21.1301 10.3596 21.1301H10.4317Z" fill="white"/>
<path d="M10.9313 20.8367C10.9339 20.8368 10.9363 20.8378 10.9381 20.8396C10.9399 20.8414 10.9409 20.8438 10.941 20.8464V20.9135C10.941 20.9232 10.9364 20.9278 10.9313 20.9278H10.8592C10.8559 20.9238 10.8542 20.9187 10.8545 20.9135V20.8464C10.8549 20.8427 10.8566 20.8393 10.8592 20.8367H10.9313Z" fill="white"/>
<path d="M11.3547 21.2213C11.3521 21.2212 11.3497 21.2201 11.3479 21.2183C11.3461 21.2165 11.3451 21.2141 11.345 21.2116V21.1445C11.345 21.1348 11.3496 21.1301 11.3547 21.1301H11.4218C11.4315 21.1301 11.4315 21.1348 11.4315 21.1445V21.2116C11.4315 21.2166 11.4315 21.2213 11.4218 21.2213H11.3547Z" fill="white"/>
<path d="M11.4939 20.8798C11.4929 20.8907 11.4881 20.9008 11.4804 20.9085C11.4727 20.9162 11.4625 20.921 11.4517 20.922C11.4405 20.922 11.4298 20.9176 11.4218 20.9097C11.4139 20.9018 11.4095 20.891 11.4095 20.8798C11.4095 20.8687 11.4139 20.8579 11.4218 20.85C11.4298 20.8421 11.4405 20.8376 11.4517 20.8376C11.4626 20.8386 11.4727 20.8433 11.4805 20.8511C11.4882 20.8588 11.4929 20.869 11.4939 20.8798Z" fill="white"/>
<path d="M10.0765 20.6924V21.7596H10.6626C10.6496 21.686 10.6254 21.6149 10.5909 21.5486C10.5811 21.5302 10.5773 21.5092 10.5799 21.4885C10.5824 21.4679 10.5913 21.4485 10.6052 21.433C10.6762 21.356 10.7287 21.264 10.7588 21.1637C10.7637 21.1458 10.7743 21.1299 10.7891 21.1186C10.804 21.1073 10.8221 21.1012 10.8407 21.1013H10.9513C10.9711 21.1007 10.9906 21.1064 11.007 21.1177C11.0234 21.1289 11.0358 21.145 11.0424 21.1637C11.0673 21.2632 11.1152 21.3554 11.1821 21.433C11.1973 21.4476 11.2077 21.4664 11.212 21.4871C11.2163 21.5077 11.2142 21.5291 11.2061 21.5486C11.1723 21.6152 11.1481 21.6862 11.134 21.7596H11.7155V20.6924H10.0765ZM11.4319 21.0144C11.41 21.0138 11.3886 21.0075 11.3699 20.996C11.3512 20.9845 11.3359 20.9683 11.3256 20.949H11.2631C11.3075 20.9712 11.3455 21.0043 11.3737 21.0452H11.4218C11.4445 21.0458 11.4662 21.0551 11.4823 21.0712C11.4983 21.0873 11.5077 21.1089 11.5083 21.1317V21.2131C11.5076 21.2354 11.4982 21.2566 11.4819 21.2719C11.4657 21.2873 11.4441 21.2956 11.4218 21.295H11.345C11.3227 21.2956 11.301 21.2873 11.2848 21.2719C11.2686 21.2566 11.2591 21.2354 11.2585 21.2131V21.1317C11.2593 21.1182 11.2626 21.1051 11.2682 21.0929C11.1965 21.0289 11.1091 20.9852 11.015 20.9663C11.0075 20.9803 10.9965 20.9921 10.983 21.0006C10.9695 21.009 10.9541 21.0138 10.9382 21.0144H10.861C10.8444 21.014 10.8282 21.0094 10.8139 21.001C10.7996 20.9926 10.7878 20.9806 10.7795 20.9663C10.6858 20.9838 10.599 21.0277 10.5293 21.0929C10.5329 21.1055 10.5346 21.1186 10.5343 21.1317V21.2131C10.5337 21.2346 10.5249 21.2551 10.5097 21.2703C10.4944 21.2855 10.474 21.2944 10.4525 21.295H10.371C10.349 21.2945 10.328 21.2859 10.312 21.2708C10.296 21.2556 10.2862 21.2351 10.2845 21.2131V21.1317C10.2852 21.1089 10.2945 21.0873 10.3106 21.0712C10.3267 21.0551 10.3483 21.0458 10.371 21.0452H10.4132C10.4471 21.0061 10.4879 20.9735 10.5335 20.949H10.471C10.4603 20.969 10.4444 20.9859 10.425 20.9977C10.4055 21.0095 10.3832 21.0158 10.3605 21.0161C10.3434 21.0167 10.3264 21.0137 10.3106 21.0074C10.2948 21.0011 10.2804 20.9915 10.2685 20.9793C10.2566 20.9671 10.2474 20.9525 10.2414 20.9366C10.2354 20.9206 10.2329 20.9035 10.2339 20.8865C10.2335 20.8698 10.2365 20.8531 10.2427 20.8376C10.2489 20.822 10.2582 20.8079 10.2701 20.7961C10.2819 20.7842 10.296 20.7749 10.3116 20.7687C10.3271 20.7625 10.3437 20.7595 10.3605 20.7599C10.3839 20.76 10.4067 20.7668 10.4263 20.7795C10.4459 20.7922 10.4615 20.8103 10.471 20.8316H10.7736C10.7767 20.8111 10.7872 20.7925 10.8032 20.7793C10.8191 20.766 10.8394 20.7592 10.8601 20.7599H10.9373C10.9572 20.7604 10.9762 20.7678 10.9911 20.7809C11.006 20.7941 11.0158 20.812 11.0188 20.8316H11.3218C11.3323 20.8111 11.3481 20.7936 11.3675 20.781C11.3869 20.7685 11.4093 20.7612 11.4323 20.7599C11.4656 20.761 11.4972 20.7746 11.5207 20.7982C11.5442 20.8217 11.5579 20.8533 11.5589 20.8865C11.5591 20.9033 11.5559 20.92 11.5496 20.9355C11.5432 20.9511 11.5339 20.9652 11.522 20.9771C11.5101 20.989 11.496 20.9985 11.4805 21.0049C11.465 21.0112 11.4483 21.0145 11.4315 21.0144H11.4319Z" fill="white"/>
<path d="M11.9792 20.3159H9.81651C9.7758 20.3161 9.73682 20.3324 9.70799 20.3611C9.67917 20.3899 9.66282 20.4288 9.66249 20.4695V22.0414C9.66226 22.0617 9.66609 22.0818 9.67375 22.1006C9.68142 22.1194 9.69276 22.1364 9.70712 22.1507C9.72147 22.165 9.73855 22.1763 9.75733 22.1839C9.77612 22.1916 9.79624 22.1953 9.81651 22.195H11.9792C12.0199 22.1948 12.0589 22.1786 12.0877 22.1498C12.1166 22.1211 12.1329 22.0822 12.1332 22.0414V20.4712C12.1326 20.4304 12.1162 20.3915 12.0875 20.3626C12.0588 20.3336 12.02 20.3169 11.9792 20.3159ZM11.8526 21.8925H9.94142V20.5577H11.8543L11.8526 21.8925Z" fill="white"/>
<path d="M12.9696 20.2405C12.7869 19.938 12.532 19.6831 12.2523 19.4573C12.0645 19.2987 11.8674 19.1543 11.6657 19.01C10.7331 18.3374 9.79585 17.6643 8.86324 16.9912C9.21898 18.1209 9.07973 19.3371 8.98984 20.5195C8.92232 21.3078 8.87886 22.1007 8.83582 22.8894C8.82147 23.2882 8.80206 23.6823 8.78771 24.0765C8.78307 24.1149 8.76872 24.1676 8.80206 24.1727C8.83539 24.1777 8.89827 24.1435 8.93203 24.1389C9.00883 24.1102 9.0907 24.0908 9.17214 24.0667C9.33588 24.0245 9.49919 23.9802 9.6625 23.9401C10.3162 23.7714 10.9749 23.6279 11.6037 23.3873C11.9899 23.241 12.3581 23.0507 12.7008 22.8202C12.9076 22.6809 13.1047 22.5079 13.2199 22.2817C13.3207 22.08 13.3465 21.8445 13.3402 21.6137C13.3397 21.1347 13.2245 20.649 12.9696 20.2405ZM12.2679 22.0433C12.2677 22.1197 12.2372 22.193 12.1831 22.247C12.129 22.301 12.0557 22.3314 11.9792 22.3315H11.1576V22.4805H11.3593C11.3821 22.4804 11.4046 22.4849 11.4256 22.4935C11.4466 22.5022 11.4657 22.515 11.4818 22.531C11.4979 22.5471 11.5106 22.5662 11.5193 22.5872C11.528 22.6082 11.5324 22.6308 11.5323 22.6535C11.5328 22.7 11.5149 22.7448 11.4825 22.7781C11.4501 22.8115 11.4058 22.8307 11.3593 22.8316H10.4364C10.4131 22.8316 10.3899 22.827 10.3683 22.818C10.3468 22.8091 10.3272 22.7959 10.3107 22.7794C10.2942 22.7629 10.2811 22.7432 10.2722 22.7216C10.2633 22.7 10.2587 22.6769 10.2588 22.6535C10.2588 22.6304 10.2635 22.6075 10.2725 22.5863C10.2815 22.565 10.2947 22.5457 10.3112 22.5296C10.3278 22.5135 10.3474 22.5008 10.3689 22.4924C10.3904 22.484 10.4133 22.4799 10.4364 22.4805H10.6335V22.3315H9.81652C9.77856 22.3319 9.74091 22.3246 9.70577 22.3103C9.67062 22.2959 9.63869 22.2747 9.61182 22.2479C9.58496 22.2211 9.5637 22.1891 9.54929 22.154C9.53488 22.1189 9.5276 22.0813 9.52788 22.0433V20.4714C9.5276 20.4334 9.53488 20.3958 9.54929 20.3606C9.5637 20.3255 9.58496 20.2936 9.61182 20.2668C9.63869 20.24 9.67062 20.2188 9.70577 20.2044C9.74091 20.19 9.77856 20.1828 9.81652 20.1832H11.9792C12.0557 20.1833 12.129 20.2137 12.1831 20.2677C12.2372 20.3217 12.2677 20.3949 12.2679 20.4714V22.0433Z" fill="white"/>
<path d="M3.81285 19.7596C3.14329 19.4799 2.42338 19.3409 1.69783 19.3511C0.246174 19.3798 -0.285536 21.2644 0.0972108 22.4515L1.4767 26.7005C1.49105 26.6431 1.5054 26.59 1.52481 26.5317C1.75146 25.796 2.12789 25.1151 2.63043 24.5319C3.06761 24.0183 3.61071 23.3541 4.13019 22.7211V22.7165L5.57213 20.9332C5.74093 20.7264 5.8363 20.6015 5.84136 20.5918L5.86542 20.5677C5.14423 20.2884 4.40406 20.0001 3.81285 19.7596ZM1.58262 22.8313C1.43807 22.8313 1.29936 22.7742 1.19664 22.6725C1.09391 22.5708 1.03548 22.4327 1.03403 22.2882V21.3843C1.03414 21.3125 1.04845 21.2415 1.07612 21.1753C1.1038 21.1091 1.1443 21.049 1.19529 20.9985C1.24628 20.9481 1.30676 20.9082 1.37323 20.8812C1.43971 20.8541 1.51087 20.8406 1.58262 20.8412H2.48062C2.60996 20.8408 2.7352 20.8866 2.83381 20.9703C2.93243 21.054 2.99797 21.1701 3.01866 21.2978C2.95483 21.3515 2.89974 21.4149 2.85535 21.4855V21.3843C2.85513 21.285 2.81557 21.1898 2.74535 21.1195C2.67512 21.0493 2.57994 21.0098 2.48062 21.0095H1.58178C1.48239 21.0097 1.3871 21.0492 1.31678 21.1194C1.24646 21.1896 1.20685 21.2849 1.20663 21.3843V22.2882C1.20674 22.3876 1.24631 22.4829 1.31666 22.5532C1.387 22.6234 1.48235 22.6629 1.58178 22.6629H2.21477L2.36373 22.8317L1.58262 22.8313ZM3.04862 22.2882C3.04862 22.3918 3.01986 22.4933 2.96555 22.5815C2.91123 22.6698 2.83349 22.7412 2.74099 22.7878L2.78319 22.687C2.85779 22.4903 2.94943 22.3005 3.05706 22.1198L3.04862 22.2882ZM3.44276 21.4421C3.01486 21.6953 2.70723 22.4034 2.62536 22.6148L2.57261 22.7735L1.89743 22.0527L1.989 21.8075L2.47429 22.389C2.82539 21.716 3.17142 21.3075 3.5318 21.1729L3.44276 21.4421Z" fill="white"/>
<path d="M8.34625 27.2007C8.34625 27.204 8.34691 27.2073 8.34818 27.2104C8.34945 27.2134 8.35132 27.2162 8.35367 27.2186C8.35602 27.2209 8.35881 27.2228 8.36188 27.2241C8.36495 27.2253 8.36825 27.226 8.37157 27.226H10.6989C10.7056 27.226 10.7121 27.2233 10.7169 27.2186C10.7217 27.2139 10.7245 27.2074 10.7246 27.2007V25.749H8.34625V27.2007ZM9.91902 26.0191C9.92749 26.0105 9.93758 26.0037 9.9487 25.9991C9.95982 25.9945 9.97174 25.9921 9.98379 25.9921C9.99584 25.9921 10.0078 25.9945 10.0189 25.9991C10.03 26.0037 10.0401 26.0105 10.0486 26.0191L10.4174 26.3883C10.4287 26.3993 10.4377 26.4124 10.4439 26.4269C10.45 26.4414 10.4532 26.457 10.4532 26.4727C10.4532 26.4885 10.45 26.5041 10.4439 26.5186C10.4377 26.5331 10.4287 26.5462 10.4174 26.5571L10.0498 26.9251C10.0414 26.9337 10.0313 26.9405 10.0202 26.9451C10.009 26.9497 9.9971 26.9521 9.98506 26.9521C9.97301 26.9521 9.96108 26.9497 9.94996 26.9451C9.93885 26.9405 9.92876 26.9337 9.92028 26.9251C9.91173 26.9167 9.90495 26.9066 9.90031 26.8955C9.89568 26.8845 9.89329 26.8726 9.89329 26.8605C9.89329 26.8485 9.89568 26.8366 9.90031 26.8256C9.90495 26.8145 9.91173 26.8044 9.92028 26.796L10.2423 26.4736L9.91902 26.1499C9.91047 26.1415 9.90368 26.1314 9.89905 26.1203C9.89442 26.1093 9.89203 26.0974 9.89203 26.0854C9.89203 26.0733 9.89442 26.0614 9.89905 26.0504C9.90368 26.0393 9.91047 26.0292 9.91902 26.0208V26.0191ZM9.28603 26.8382L9.62362 26.0343C9.63028 26.0174 9.64191 26.0029 9.65698 25.9927C9.67204 25.9825 9.68984 25.9772 9.70802 25.9773C9.72052 25.9773 9.73288 25.9799 9.74431 25.9849C9.75538 25.9895 9.76541 25.9963 9.77382 26.0049C9.78223 26.0134 9.78884 26.0236 9.79326 26.0347C9.79806 26.0457 9.80054 26.0575 9.80054 26.0695C9.80054 26.0815 9.79806 26.0934 9.79326 26.1043L9.45567 26.9087C9.44869 26.9253 9.43696 26.9395 9.42194 26.9495C9.40693 26.9594 9.3893 26.9648 9.37127 26.9648C9.35908 26.965 9.34698 26.9625 9.33582 26.9576C9.32475 26.953 9.31469 26.9463 9.30622 26.9378C9.29775 26.9294 9.29103 26.9193 9.28645 26.9082C9.28162 26.8973 9.27902 26.8855 9.2788 26.8735C9.27858 26.8616 9.28075 26.8497 9.28518 26.8386L9.28603 26.8382ZM8.69229 26.3888L9.06111 26.0195C9.06958 26.011 9.07967 26.0042 9.09079 25.9995C9.10191 25.9949 9.11384 25.9925 9.12588 25.9925C9.13793 25.9925 9.14986 25.9949 9.16098 25.9995C9.17209 26.0042 9.18218 26.011 9.19066 26.0195C9.20772 26.0367 9.21729 26.0599 9.21729 26.0841C9.21729 26.1083 9.20772 26.1315 9.19066 26.1486L8.86741 26.4723L9.18939 26.7947C9.19787 26.8032 9.2046 26.8133 9.20918 26.8243C9.21377 26.8354 9.21614 26.8473 9.21614 26.8593C9.21614 26.8713 9.21377 26.8831 9.20918 26.8942C9.2046 26.9053 9.19787 26.9154 9.18939 26.9238C9.18091 26.9323 9.17085 26.9391 9.15977 26.9436C9.14869 26.9482 9.13682 26.9506 9.12483 26.9506C9.11284 26.9506 9.10096 26.9482 9.08989 26.9436C9.07881 26.9391 9.06874 26.9323 9.06026 26.9238L8.69229 26.5559C8.68106 26.5449 8.67214 26.5317 8.66605 26.5172C8.65996 26.5028 8.65682 26.4872 8.65682 26.4715C8.65682 26.4558 8.65996 26.4402 8.66605 26.4257C8.67214 26.4112 8.68106 26.3981 8.69229 26.3871V26.3888Z" fill="white"/>
<path d="M10.6993 25.4302H8.37206C8.3687 25.4302 8.36538 25.4308 8.36228 25.4321C8.35918 25.4334 8.35637 25.4353 8.35401 25.4377C8.35165 25.4401 8.3498 25.443 8.34855 25.4461C8.3473 25.4492 8.34669 25.4526 8.34674 25.4559V25.6213H10.7251V25.4559C10.7251 25.4525 10.7244 25.4492 10.7231 25.4461C10.7218 25.4429 10.7199 25.4401 10.7176 25.4377C10.7152 25.4353 10.7123 25.4334 10.7092 25.4321C10.7061 25.4308 10.7027 25.4302 10.6993 25.4302ZM10.1423 25.5905C10.1293 25.5905 10.1166 25.5867 10.1057 25.5794C10.0949 25.5722 10.0865 25.5619 10.0815 25.5499C10.0765 25.5379 10.0752 25.5246 10.0778 25.5119C10.0803 25.4991 10.0866 25.4874 10.0958 25.4782C10.105 25.4689 10.1167 25.4627 10.1295 25.4601C10.1422 25.4576 10.1555 25.4589 10.1675 25.4639C10.1795 25.4689 10.1898 25.4773 10.1971 25.4881C10.2043 25.499 10.2081 25.5117 10.2081 25.5247C10.2082 25.5334 10.2065 25.542 10.2033 25.55C10.2 25.5581 10.1951 25.5654 10.189 25.5715C10.1829 25.5777 10.1756 25.5826 10.1676 25.5859C10.1596 25.5892 10.151 25.591 10.1423 25.591V25.5905ZM10.3293 25.5905C10.3162 25.5905 10.3035 25.5867 10.2927 25.5794C10.2819 25.5722 10.2734 25.5619 10.2684 25.5499C10.2635 25.5379 10.2622 25.5246 10.2647 25.5119C10.2672 25.4991 10.2735 25.4874 10.2827 25.4782C10.2919 25.4689 10.3036 25.4627 10.3164 25.4601C10.3292 25.4576 10.3424 25.4589 10.3545 25.4639C10.3665 25.4689 10.3768 25.4773 10.384 25.4881C10.3912 25.499 10.3951 25.5117 10.3951 25.5247C10.3951 25.5333 10.3935 25.5419 10.3902 25.5499C10.387 25.5579 10.3822 25.5652 10.3761 25.5714C10.37 25.5775 10.3628 25.5824 10.3548 25.5858C10.3469 25.5891 10.3383 25.5909 10.3297 25.591L10.3293 25.5905ZM10.5166 25.5905C10.5036 25.5905 10.4909 25.5867 10.4801 25.5794C10.4692 25.5722 10.4608 25.5619 10.4558 25.5499C10.4508 25.5379 10.4495 25.5246 10.4521 25.5119C10.4546 25.4991 10.4609 25.4874 10.4701 25.4782C10.4793 25.4689 10.491 25.4627 10.5038 25.4601C10.5166 25.4576 10.5298 25.4589 10.5418 25.4639C10.5538 25.4689 10.5641 25.4773 10.5714 25.4881C10.5786 25.499 10.5825 25.5117 10.5825 25.5247C10.5825 25.5334 10.5809 25.542 10.5776 25.55C10.5743 25.5581 10.5694 25.5654 10.5633 25.5715C10.5572 25.5777 10.5499 25.5826 10.5419 25.5859C10.5339 25.5892 10.5253 25.591 10.5166 25.591V25.5905Z" fill="white"/>
<path d="M10.9794 23.8986C10.3401 24.0569 9.53283 24.2687 8.75889 24.4801V24.4898L7.59546 24.8021C6.82153 25.0186 6.22568 25.1866 6.10077 25.2241C6.52276 25.8828 6.96121 26.5652 7.29754 27.1134C7.38011 27.2526 7.46998 27.3874 7.56677 27.5172C7.68197 27.6759 7.80224 27.8295 7.92715 27.9738C8.06019 28.1324 8.20476 28.2809 8.35969 28.4182C8.50242 28.5511 8.65871 28.6686 8.82599 28.7688C8.97279 28.8605 9.13606 28.9225 9.30664 28.9516C9.55182 28.9938 9.81641 28.9178 10.0468 28.8313C10.251 28.7576 10.4452 28.6588 10.6249 28.5372C10.8045 28.4163 10.969 28.2747 11.1153 28.1152C11.2596 27.9529 11.3839 27.7738 11.4854 27.5818C11.5569 27.4519 11.6149 27.315 11.6584 27.1733L13.043 22.9146C12.429 23.3791 11.7269 23.714 10.9794 23.8986ZM10.9081 27.2007C10.9074 27.2559 10.8852 27.3086 10.8462 27.3475C10.8071 27.3865 10.7544 27.4086 10.6992 27.4092H8.37193C8.31684 27.4085 8.2642 27.3864 8.22525 27.3474C8.1863 27.3084 8.16412 27.2558 8.16346 27.2007V25.4558C8.16401 25.4006 8.18614 25.3479 8.2251 25.3088C8.26407 25.2698 8.31677 25.2476 8.37193 25.2469H10.6992C10.7544 25.2474 10.8073 25.2696 10.8463 25.3087C10.8854 25.3477 10.9075 25.4006 10.9081 25.4558V27.2007Z" fill="white"/>
<path d="M4.42175 26.7568C4.4013 26.7568 4.38131 26.7629 4.36431 26.7743C4.34731 26.7856 4.33405 26.8018 4.32623 26.8207C4.3184 26.8396 4.31636 26.8603 4.32035 26.8804C4.32434 26.9004 4.33418 26.9189 4.34864 26.9333C4.3631 26.9478 4.38152 26.9576 4.40158 26.9616C4.42163 26.9656 4.44242 26.9636 4.46131 26.9557C4.4802 26.9479 4.49635 26.9347 4.50771 26.9177C4.51907 26.9007 4.52514 26.8807 4.52514 26.8602C4.52514 26.8328 4.51424 26.8065 4.49485 26.7871C4.47547 26.7677 4.44917 26.7568 4.42175 26.7568Z" fill="white"/>
<path d="M4.87238 26.7775C4.82124 26.7557 4.7785 26.7179 4.75052 26.6699C4.72254 26.6218 4.71082 26.566 4.71709 26.5108C4.71913 26.4933 4.71598 26.4756 4.70802 26.4599C4.70006 26.4442 4.68766 26.4312 4.67236 26.4226C4.65842 26.4143 4.64255 26.41 4.62636 26.4099C4.60735 26.4101 4.58889 26.4163 4.57361 26.4276C4.52901 26.4608 4.47493 26.4786 4.41938 26.4786C4.36382 26.4786 4.30974 26.4608 4.26514 26.4276C4.24972 26.4163 4.23111 26.4101 4.21197 26.4099C4.19631 26.4099 4.18097 26.4143 4.16766 26.4226C4.15213 26.431 4.1395 26.444 4.13145 26.4597C4.12339 26.4754 4.12027 26.4932 4.12251 26.5108C4.12871 26.5659 4.11705 26.6216 4.08924 26.6696C4.06144 26.7176 4.01896 26.7554 3.96806 26.7775C3.95198 26.7845 3.93831 26.7961 3.92871 26.8108C3.91911 26.8255 3.914 26.8426 3.914 26.8602C3.914 26.8777 3.91911 26.8949 3.92871 26.9096C3.93831 26.9243 3.95198 26.9358 3.96806 26.9429C4.01884 26.9651 4.06119 27.0029 4.08891 27.0509C4.11662 27.0989 4.12825 27.1545 4.12208 27.2096C4.11981 27.2271 4.12287 27.2449 4.13085 27.2606C4.13883 27.2763 4.15136 27.2893 4.16681 27.2978C4.18059 27.306 4.19634 27.3104 4.21239 27.3104C4.23147 27.3102 4.24997 27.3039 4.26514 27.2923C4.3097 27.2593 4.3637 27.2414 4.41917 27.2414C4.47463 27.2414 4.52863 27.2593 4.57319 27.2923C4.58831 27.3036 4.60664 27.3098 4.62552 27.31C4.64189 27.3099 4.65794 27.3054 4.67194 27.2969C4.68728 27.2884 4.69973 27.2755 4.7077 27.2599C4.71567 27.2442 4.71879 27.2266 4.71667 27.2092C4.71037 27.1541 4.72194 27.0984 4.74967 27.0504C4.7774 27.0024 4.81983 26.9645 4.8707 26.9425C4.88677 26.9354 4.90044 26.9238 4.91004 26.9092C4.91964 26.8945 4.92475 26.8773 4.92475 26.8598C4.92475 26.8422 4.91964 26.825 4.91004 26.8104C4.90044 26.7957 4.88677 26.7841 4.8707 26.777L4.87238 26.7775ZM4.42085 27.094C4.37462 27.094 4.32942 27.0802 4.29097 27.0546C4.25252 27.0289 4.22256 26.9924 4.20487 26.9496C4.18717 26.9069 4.18254 26.8599 4.19156 26.8146C4.20058 26.7692 4.22285 26.7276 4.25554 26.6949C4.28824 26.6622 4.3299 26.6399 4.37524 26.6309C4.42059 26.6219 4.4676 26.6265 4.51032 26.6442C4.55304 26.6619 4.58955 26.6918 4.61524 26.7303C4.64093 26.7687 4.65464 26.8139 4.65464 26.8602C4.65453 26.922 4.62998 26.9813 4.58634 27.0251C4.5427 27.0689 4.48352 27.0936 4.4217 27.094H4.42085Z" fill="white"/>
<path d="M8.61466 28.9361C7.62467 28.2773 6.99463 27.2059 6.37009 26.1931C5.69701 25.1069 4.99059 24.041 4.2884 22.9775C3.84151 23.5683 3.33217 24.1068 2.87051 24.6887C2.40885 25.2706 2.00078 25.9045 1.7843 26.6113C1.7171 26.8042 1.68772 27.0082 1.69779 27.2122C1.75054 27.7891 2.30335 28.3271 2.77429 28.6158C3.31276 28.9475 3.98077 28.9956 4.6011 29.0002H4.90409L8.69146 28.9859C8.66277 28.9669 8.63871 28.9504 8.61466 28.9361ZM3.20008 26.8734C3.19875 26.712 3.22935 26.5519 3.29012 26.4024C3.35089 26.2529 3.44063 26.1169 3.55418 26.0022C3.66772 25.8875 3.80283 25.7964 3.95173 25.7342C4.10062 25.6719 4.26036 25.6397 4.42175 25.6395C4.51191 25.6394 4.6018 25.6494 4.68972 25.6694C4.7127 25.6747 4.73266 25.6888 4.74524 25.7087C4.75782 25.7287 4.76198 25.7528 4.75681 25.7758C4.7524 25.7955 4.74138 25.8132 4.72558 25.8259C4.70977 25.8385 4.69013 25.8454 4.66988 25.8454C4.58834 25.8277 4.50518 25.8185 4.42175 25.818C4.14541 25.8183 3.88049 25.9282 3.68509 26.1236C3.48969 26.319 3.37976 26.5839 3.37943 26.8603C3.37969 26.8846 3.3706 26.9081 3.35403 26.926C3.33746 26.9438 3.31468 26.9546 3.29039 26.9561C3.27896 26.9569 3.26749 26.9553 3.25667 26.9516C3.24585 26.9478 3.23591 26.9419 3.22746 26.9341C3.21902 26.9264 3.21223 26.917 3.20752 26.9066C3.20282 26.8961 3.20028 26.8848 3.20008 26.8734ZM5.03955 27.9119C4.88172 28.0047 4.70504 28.0608 4.5226 28.076C4.34015 28.0913 4.15661 28.0653 3.98557 28C3.81452 27.9347 3.66035 27.8318 3.53446 27.6989C3.40858 27.5659 3.3142 27.4064 3.25832 27.2321C3.2512 27.2096 3.25317 27.1852 3.2638 27.1641C3.27503 27.1437 3.29382 27.1286 3.31613 27.1219C3.32469 27.119 3.33368 27.1176 3.34272 27.1177C3.36148 27.1178 3.37975 27.1238 3.3949 27.1348C3.41006 27.1459 3.42133 27.1615 3.42712 27.1793C3.47492 27.3282 3.55556 27.4644 3.66309 27.5778C3.77061 27.6913 3.90227 27.7792 4.04833 27.8349C4.19438 27.8907 4.3511 27.9129 4.5069 27.8999C4.66269 27.8869 4.81357 27.8391 4.9484 27.76C4.96208 27.7519 4.97767 27.7477 4.99355 27.7477C5.01311 27.7477 5.03213 27.7541 5.04767 27.766C5.06322 27.7779 5.07443 27.7945 5.07956 27.8134C5.0847 27.8323 5.08348 27.8523 5.0761 27.8704C5.06871 27.8885 5.05557 27.9037 5.0387 27.9136L5.03955 27.9119ZM4.9408 27.0979C4.92319 27.1055 4.90852 27.1186 4.89894 27.1353C4.88937 27.1519 4.8854 27.1712 4.88763 27.1903C4.89321 27.2404 4.884 27.2911 4.86113 27.3361C4.83826 27.3811 4.80273 27.4184 4.75892 27.4435C4.71881 27.4664 4.67344 27.4784 4.62726 27.4785C4.57227 27.4786 4.51872 27.461 4.4745 27.4283C4.45919 27.4167 4.44051 27.4105 4.42133 27.4106C4.40191 27.4107 4.38302 27.4169 4.36731 27.4283C4.32648 27.458 4.27791 27.4752 4.22749 27.4778C4.17707 27.4805 4.12696 27.4684 4.08326 27.4431C4.03956 27.4178 4.00414 27.3804 3.98131 27.3354C3.95847 27.2903 3.94919 27.2396 3.9546 27.1894C3.95684 27.1704 3.95283 27.1511 3.94316 27.1345C3.9335 27.1179 3.91871 27.1049 3.90101 27.0974C3.85473 27.077 3.81537 27.0436 3.78775 27.0013C3.76012 26.9589 3.74541 26.9094 3.74541 26.8588C3.74541 26.8082 3.76012 26.7587 3.78775 26.7164C3.81537 26.674 3.85473 26.6406 3.90101 26.6202C3.91866 26.6125 3.93338 26.5994 3.94303 26.5828C3.95267 26.5662 3.95673 26.5469 3.9546 26.5278C3.94906 26.4776 3.95833 26.4268 3.98128 26.3818C4.00423 26.3368 4.03984 26.2996 4.08373 26.2746C4.12327 26.2518 4.16807 26.2397 4.21371 26.2395C4.26919 26.2397 4.32317 26.2575 4.36774 26.2906C4.38332 26.3022 4.40229 26.3085 4.42175 26.3083C4.44124 26.3083 4.46019 26.3019 4.47576 26.2902C4.51648 26.2601 4.56514 26.2426 4.6157 26.2399C4.66625 26.2372 4.71649 26.2494 4.76019 26.275C4.804 26.3 4.83953 26.3373 4.8624 26.3823C4.88527 26.4273 4.89448 26.478 4.8889 26.5282C4.88662 26.5472 4.89058 26.5664 4.90016 26.583C4.90975 26.5996 4.92445 26.6126 4.94207 26.6202C4.98835 26.6406 5.0277 26.674 5.05533 26.7164C5.08296 26.7587 5.09767 26.8082 5.09767 26.8588C5.09767 26.9094 5.08296 26.9589 5.05533 27.0013C5.0277 27.0436 4.98835 27.077 4.94207 27.0974L4.9408 27.0979ZM5.32059 27.6836C5.31223 27.6927 5.30205 27.7 5.29071 27.7049C5.27938 27.7098 5.26713 27.7124 5.25476 27.7123C5.23751 27.7123 5.22063 27.7073 5.20618 27.6978C5.19173 27.6884 5.18032 27.675 5.17335 27.6592C5.16638 27.6435 5.16414 27.626 5.1669 27.609C5.16967 27.5919 5.17732 27.5761 5.18893 27.5633C5.29444 27.4478 5.37261 27.3101 5.41766 27.1603C5.4627 27.0105 5.47346 26.8525 5.44915 26.6979C5.42483 26.5434 5.36606 26.3963 5.27719 26.2676C5.18831 26.1389 5.07161 26.0318 4.93574 25.9543C4.91869 25.9445 4.90536 25.9293 4.89782 25.9112C4.89029 25.893 4.88897 25.8729 4.89407 25.8539C4.89918 25.8349 4.91042 25.8182 4.92605 25.8063C4.94168 25.7943 4.96081 25.7879 4.98047 25.788C4.99531 25.7883 5.00982 25.7924 5.02267 25.7998C5.1816 25.8907 5.31806 26.0162 5.42195 26.1669C5.52585 26.3177 5.59451 26.4899 5.62288 26.6707C5.65124 26.8516 5.63857 27.0366 5.58581 27.2119C5.53305 27.3872 5.44154 27.5484 5.31806 27.6836H5.32059Z" fill="white"/>
<path d="M68.9659 18.7574V16.6969H63.4288C63.1322 16.6897 62.8375 16.7453 62.564 16.86C62.2904 16.9747 62.0442 17.1459 61.8415 17.3625C61.629 17.5683 61.4605 17.8151 61.3461 18.0879C61.2317 18.3608 61.1738 18.654 61.1759 18.9498V21.2888C61.1709 21.5852 61.2275 21.8794 61.342 22.1528C61.4566 22.4263 61.6267 22.6729 61.8415 22.8772C62.0444 23.0935 62.2907 23.2644 62.5642 23.3789C62.8377 23.4934 63.1323 23.5489 63.4288 23.5417H66.1761C66.2752 23.5399 66.3737 23.558 66.4657 23.5949C66.5577 23.6318 66.6414 23.6867 66.7119 23.7565C66.7833 23.8259 66.8393 23.9096 66.8763 24.0021C66.9133 24.0946 66.9305 24.1938 66.9267 24.2934V25.836L67.892 26.3293H61.1983V28.3249H66.7119C67.0086 28.3322 67.3036 28.2767 67.5773 28.162C67.8511 28.0473 68.0975 27.876 68.3003 27.6593C68.516 27.4556 68.687 27.2093 68.8026 26.9361C68.9181 26.6629 68.9756 26.3686 68.9715 26.072V23.7106C68.9758 23.4138 68.9183 23.1193 68.8028 22.8459C68.6873 22.5724 68.5161 22.326 68.3003 22.1222C68.0973 21.9058 67.8508 21.7348 67.5771 21.6203C67.3033 21.5058 67.0085 21.4504 66.7119 21.4577H63.9657C63.7713 21.4622 63.583 21.3893 63.4423 21.2551C63.3015 21.1209 63.2198 20.9362 63.2151 20.7418C63.214 20.7299 63.214 20.7179 63.2151 20.706V18.7574H68.9659Z" fill="white"/>
<path d="M77.9987 20.838C77.9963 20.7731 78.0087 20.7085 78.0348 20.649C78.061 20.5895 78.1002 20.5368 78.1497 20.4946C78.249 20.402 78.3786 20.3488 78.5143 20.3447H80.4238V19.0125H78.1709C77.6551 19.0188 77.1622 19.2265 76.7973 19.5912C76.4325 19.9558 76.2245 20.4486 76.2178 20.9644V28.26H78.021V24.1648H80.0804V22.7475H77.3342L78.0423 22.4052V20.8391L77.9987 20.838Z" fill="white"/>
<path d="M83.4284 26.8035C83.2753 26.8013 83.129 26.74 83.0201 26.6324C82.9649 26.5799 82.9211 26.5165 82.8917 26.4462C82.8622 26.3759 82.8477 26.3003 82.8489 26.2241V23.1982H84.5436V21.6534H82.8523V19.0571H80.8959V26.0742C80.8883 26.3542 80.9398 26.6327 81.047 26.8915C81.1541 27.1503 81.3146 27.3837 81.5178 27.5765C81.7062 27.7795 81.9358 27.94 82.1912 28.0472C82.4466 28.1545 82.7219 28.206 82.9988 28.1984H84.8658V26.761H83.4284V26.8035Z" fill="white"/>
<path d="M73.7289 21.7395H71.476C71.031 21.7395 70.6042 21.9163 70.2895 22.2309C69.9749 22.5456 69.7981 22.9724 69.7981 23.4174V26.6368C69.7981 27.0818 69.9749 27.5086 70.2895 27.8232C70.6042 28.1379 71.031 28.3147 71.476 28.3147H73.7289C74.1739 28.3147 74.6007 28.1379 74.9154 27.8232C75.23 27.5086 75.4068 27.0818 75.4068 26.6368V23.4129C75.4056 22.9687 75.2283 22.5431 74.9138 22.2294C74.5992 21.9157 74.1731 21.7395 73.7289 21.7395ZM73.8788 26.6323C73.8764 26.6713 73.8598 26.708 73.8322 26.7356C73.8046 26.7632 73.7679 26.7798 73.7289 26.7822H70.6818L71.3037 26.46V23.4129C71.3031 23.3749 71.3172 23.3381 71.343 23.3101C71.3688 23.2822 71.4045 23.2653 71.4425 23.263H73.7244C73.7437 23.2625 73.7629 23.2657 73.7809 23.2726C73.7989 23.2795 73.8154 23.2899 73.8293 23.3032C73.8433 23.3166 73.8545 23.3325 73.8622 23.3502C73.8699 23.3679 73.874 23.3869 73.8743 23.4062V26.6323H73.8788Z" fill="white"/>
<path d="M58.3804 21.1602H53.4239L53.4451 19.9152C53.4425 19.7325 53.4947 19.5533 53.595 19.4006C53.6544 19.3312 53.7191 19.2665 53.7885 19.2071C53.8726 19.1578 53.9699 19.1355 54.0671 19.1433H58.3178L58.2965 16.7182H53.5984C53.2032 16.7127 52.8084 16.7416 52.4182 16.8043C52.0733 16.8595 51.7524 17.0152 51.4954 17.2518C51.2215 17.5106 51.0343 17.8478 50.9596 18.2171C50.8866 18.5987 50.8491 18.9863 50.8477 19.3749V25.5552C50.8477 25.7912 50.8477 26.0272 50.869 26.242C50.8928 26.4445 50.9302 26.6452 50.9808 26.8427C51.0433 27.0359 51.1374 27.2173 51.2594 27.3796C51.3901 27.5546 51.5497 27.7059 51.7314 27.8271C51.9222 27.9699 52.1319 28.0855 52.3545 28.1705C52.5563 28.2368 52.7649 28.2799 52.9764 28.2991C53.1907 28.3178 53.4057 28.3252 53.6207 28.3215C53.8562 28.3021 54.0926 28.2947 54.3288 28.2991H58.3413V25.7946H54.4317C54.2956 25.7908 54.1594 25.7983 54.0246 25.8169C53.8984 25.8164 53.7766 25.7708 53.6812 25.6883C53.6019 25.6327 53.5371 25.5589 53.4923 25.473C53.4476 25.3872 53.4241 25.2918 53.4239 25.195L53.4015 23.8213H58.3547V21.1602H58.3804Z" fill="white"/>
<path d="M24.5839 18.2853C24.5089 17.8943 24.3049 17.5398 24.0044 17.2785C23.7046 17 23.425 16.8311 23.1465 16.764C22.8216 16.6978 22.4902 16.6689 22.1587 16.6778H19.2626C19.0266 16.6778 18.8152 16.6778 18.5915 16.6991C18.3886 16.7049 18.1871 16.7338 17.9908 16.7852C17.7945 16.8279 17.6059 16.9003 17.4315 17C17.2529 17.1054 17.0952 17.2427 16.9661 17.4049C16.8297 17.5611 16.7142 17.7345 16.6227 17.9206C16.5562 18.0949 16.4991 18.2727 16.4516 18.4531C16.4156 18.644 16.4014 18.8384 16.4091 19.0325V28.3024H18.9796V19.7014C18.9754 19.6501 18.983 19.5984 19.002 19.5504C19.0271 19.4987 19.0555 19.4486 19.087 19.4005C19.1336 19.3437 19.193 19.2986 19.2602 19.2689C19.3274 19.2392 19.4007 19.2257 19.4741 19.2294H21.473C21.5734 19.2247 21.6741 19.2318 21.7728 19.2506C21.8668 19.271 21.9504 19.3241 22.0088 19.4005C22.0949 19.5022 22.1407 19.632 22.1375 19.7652V21.7608H20.0781V24.3146H22.1375V28.3058H24.6913V19.6153C24.7138 19.1692 24.6777 18.722 24.5839 18.2853Z" fill="white"/>
<path d="M34.6481 18.0268C34.5045 17.7113 34.3004 17.427 34.0474 17.1901C33.8127 16.9857 33.5334 16.839 33.2319 16.7617C32.9216 16.6967 32.6048 16.6678 32.2878 16.6755H26.4297V28.2845H32.1793C32.5914 28.2824 33.0018 28.2317 33.402 28.1334C33.7035 28.0199 33.9768 27.8422 34.2028 27.6125C34.4288 27.3828 34.6021 27.1068 34.7108 26.8034C34.7865 26.5751 34.8242 26.3359 34.8226 26.0953V19.0571C34.8282 18.7058 34.769 18.3566 34.6481 18.0268ZM32.1793 25.2161C32.181 25.2884 32.1641 25.3599 32.1303 25.4237C32.0964 25.4876 32.0466 25.5417 31.9858 25.5808C31.9143 25.6357 31.8347 25.6791 31.7498 25.7094C31.6581 25.7271 31.5646 25.7342 31.4713 25.7307H28.9835V19.2506L27.9286 18.0704L28.8504 18.5425L30.2676 19.1857H31.4903C31.6768 19.1799 31.8593 19.241 32.0048 19.358C32.0675 19.4141 32.1172 19.4832 32.1506 19.5605C32.184 19.6377 32.2003 19.7213 32.1984 19.8054V25.2128L32.1793 25.2161Z" fill="white"/>
<path d="M44.5187 18.0268C44.4069 17.727 44.1966 17.4675 43.918 17.1901C43.6805 16.9898 43.4022 16.8436 43.1026 16.7617C42.7922 16.6967 42.4754 16.6678 42.1584 16.6755H36.3003V28.2845H42.0511C42.4631 28.2824 42.8735 28.2317 43.2737 28.1334C43.6637 28.0077 44.0027 27.7594 44.2402 27.4254C44.3904 27.2401 44.5064 27.0295 44.5825 26.8034C44.6582 26.5751 44.696 26.3359 44.6943 26.0953V19.0571C44.7098 18.705 44.6499 18.3538 44.5187 18.0268ZM42.0723 25.2161C42.0739 25.2884 42.057 25.3598 42.0231 25.4237C41.9892 25.4875 41.9395 25.5416 41.8788 25.5808C41.8129 25.6438 41.7315 25.6882 41.6428 25.7094C41.544 25.7277 41.4434 25.7348 41.343 25.7307H38.853V19.2506L37.8238 18.0704L38.7456 18.5425L40.1617 19.1857H41.3855C41.565 19.1837 41.7395 19.2447 41.8788 19.358C41.9413 19.4142 41.991 19.4833 42.0244 19.5606C42.0578 19.6378 42.0741 19.7213 42.0723 19.8054V25.2161Z" fill="white"/>
<path d="M49.0669 16.6755H46.578V28.2845H49.0669V16.6755Z" fill="white"/>
</g>
</g>
<defs>
<clipPath id="clip0_2022_444">
<rect width="85" height="45" fill="white"/>
</clipPath>
<clipPath id="clip1_2022_444">
<rect width="84.8887" height="13" fill="white" transform="translate(-0.0229492 16)"/>
</clipPath>
</defs>
</svg>
