<svg width="56" height="45" viewBox="0 0 56 45" fill="none" xmlns="http://www.w3.org/2000/svg">
<g clip-path="url(#clip0_2023_190)">
<path d="M5.85966 27.3692C5.86988 27.4286 5.87947 27.4881 5.89033 27.5469C5.9651 27.9488 6.10504 28.3239 6.3549 28.6517C6.53766 28.8914 6.76323 29.0812 7.03162 29.2205C7.4457 29.4358 7.88855 29.5023 8.34864 29.4799C8.86369 29.455 9.35317 29.3208 9.81902 29.1054C10.5187 28.7821 11.1495 28.3546 11.7022 27.8146C11.7118 27.805 11.7214 27.7942 11.738 27.7763C11.7105 27.7737 11.6907 27.7705 11.6703 27.7699C11.1731 27.7616 10.6772 27.7341 10.1852 27.6542C9.727 27.5801 9.28672 27.4485 8.86241 27.2606C8.80682 27.2357 8.75186 27.2082 8.69754 27.1801C8.58124 27.1187 8.52884 27.0248 8.54545 26.9098C8.56782 26.7475 8.72182 26.6529 8.87711 26.7034C9.06498 26.7647 9.25093 26.8318 9.44136 26.8829C9.82286 26.9858 10.2107 27.0535 10.6044 27.0868C11.1712 27.1353 11.7367 27.1181 12.301 27.0491C12.3118 27.0478 12.3227 27.0446 12.3438 27.0408C12.9528 26.1244 13.147 25.1084 13.0352 24.0073C12.9918 24.0399 12.9585 24.0642 12.9266 24.0898C12.5195 24.4067 12.092 24.6917 11.637 24.9352C10.7418 25.4132 9.79154 25.7046 8.77422 25.7595C8.6854 25.764 8.59658 25.7685 8.50775 25.7685C8.39848 25.7685 8.3071 25.7282 8.24511 25.6343C8.16907 25.5193 8.20166 25.3825 8.32627 25.325C8.38314 25.2988 8.44832 25.2815 8.51031 25.2796C9.01258 25.263 9.49759 25.1608 9.97111 24.9991C10.3852 24.8579 10.7827 24.677 11.1705 24.4745C11.7584 24.1684 12.3189 23.8163 12.8761 23.4591C12.8972 23.4456 12.9164 23.4303 12.9413 23.4118C12.8052 22.7427 12.5745 22.1069 12.2907 21.4826C12.1898 21.5976 12.0939 21.7094 11.9955 21.8181C11.5303 22.3312 11.0146 22.7855 10.4331 23.1638C10.0235 23.4297 9.59025 23.6508 9.13144 23.8195C8.99661 23.8687 8.85985 23.8738 8.72502 23.815C8.6592 23.7862 8.6068 23.7415 8.56846 23.6821C8.50328 23.5811 8.51095 23.4578 8.58571 23.3632C8.66942 23.2571 8.78637 23.2079 8.91098 23.1721C9.07648 23.1249 9.24518 23.0852 9.40813 23.0309C9.96024 22.8456 10.4536 22.5529 10.9009 22.1823C11.3207 21.8347 11.683 21.434 12.0083 20.9982C12.0166 20.9873 12.023 20.9752 12.0345 20.9567C11.7719 20.4442 11.4728 19.9502 11.1495 19.4614C11.1328 19.4837 11.1201 19.4971 11.1118 19.5131C10.8383 20.0243 10.4951 20.4825 10.0663 20.8742C9.87142 21.0525 9.66758 21.2219 9.43497 21.3503C9.29694 21.427 9.14805 21.4551 8.99341 21.3976C8.78509 21.3196 8.72246 21.1119 8.85218 20.9311C8.9327 20.8193 9.04453 20.7477 9.1653 20.6883C9.50207 20.5221 9.80752 20.3119 10.0778 20.0505C10.3168 19.8192 10.5187 19.5585 10.6798 19.2671C10.7296 19.1776 10.7756 19.0863 10.8255 18.993C10.2171 18.1354 9.5992 17.2938 8.90011 16.5161C7.9435 17.2133 6.85717 17.5507 5.69543 17.7181C5.69223 17.8945 5.68265 18.0689 5.6884 18.2434C5.70565 18.7738 5.83346 19.2773 6.07756 19.7489C6.16063 19.9093 6.26032 20.0608 6.3517 20.2167C6.41433 20.3234 6.45778 20.4371 6.46289 20.5624C6.47248 20.7797 6.29611 20.9298 6.08204 20.8908C5.99449 20.8749 5.91909 20.8359 5.85199 20.7803C5.77211 20.7138 5.7114 20.6314 5.66412 20.5387C5.48902 20.1949 5.36442 19.8326 5.27943 19.4569C5.20274 19.1169 5.16185 18.7725 5.15482 18.4236C5.15162 18.2766 5.1529 18.1303 5.15226 17.9699C4.59759 18.2402 4.06146 18.5297 3.54641 18.8562C3.54705 18.8792 3.54577 18.8958 3.54768 18.9124C3.59433 19.3022 3.66079 19.6876 3.76495 20.0671C3.85633 20.4007 3.9688 20.726 4.11577 21.0385C4.37522 21.5899 4.71965 22.0801 5.16568 22.498C5.25578 22.5823 5.33247 22.6756 5.37847 22.7926C5.48711 23.0667 5.2839 23.2501 5.06088 23.2399C4.89921 23.2322 4.77205 23.1574 4.67364 23.0386C4.55478 22.8954 4.44231 22.7466 4.33496 22.5945C4.11641 22.2852 3.92982 21.9561 3.76559 21.6149C3.43777 20.9337 3.21795 20.2186 3.07673 19.4773C3.06011 19.3898 3.04414 19.3029 3.02624 19.207C2.43579 19.6243 1.89007 20.0831 1.40313 20.6173C1.4255 20.6653 1.44403 20.7081 1.4664 20.7496C1.58717 20.9777 1.70667 21.2065 1.83064 21.4327C2.18657 22.0794 2.57701 22.7037 3.04414 23.2769C3.38921 23.7012 3.77262 24.0859 4.21674 24.408C4.31323 24.4783 4.41483 24.5409 4.51388 24.6074C4.58801 24.6572 4.65766 24.7122 4.69536 24.7972C4.75351 24.9288 4.68897 25.0528 4.54775 25.0815C4.45126 25.1013 4.36435 25.0726 4.28511 25.024C3.72086 24.6758 3.19686 24.2738 2.73038 23.8016C2.30607 23.3728 1.93672 22.9006 1.62807 22.3823C1.53988 22.2347 1.44531 22.0896 1.37182 21.9344C1.2453 21.6685 1.13283 21.3963 1.01461 21.1266C1.01333 21.1241 1.01078 21.1222 1.00183 21.1119C0.319997 22.0475 -0.0570255 23.0744 0.00687647 24.2502C0.162158 24.3588 0.312328 24.4738 0.472083 24.5729C0.705325 24.7173 0.941124 24.8592 1.18395 24.987C1.49196 25.1486 1.81338 25.2828 2.14376 25.3921C2.52078 25.5167 2.90483 25.6189 3.29719 25.6835C3.32978 25.6886 3.36237 25.6995 3.39368 25.7097C3.52468 25.7531 3.56941 25.9071 3.48059 26.0139C3.42244 26.0842 3.34448 26.1231 3.2531 26.1167C3.03455 26.1014 2.81473 26.0899 2.5981 26.0592C2.3623 26.0266 2.12778 25.9787 1.89454 25.9289C1.75396 25.8988 1.61529 25.8547 1.4779 25.8107C1.32198 25.7602 1.16542 25.7097 1.01397 25.6464C0.742389 25.5327 0.473362 25.4138 0.219671 25.2624C0.208169 25.2553 0.194749 25.2521 0.167271 25.2419C0.204334 25.371 0.235007 25.4905 0.273348 25.6074C0.45483 26.1596 0.705965 26.6797 1.01078 27.1737C1.28811 27.6242 1.63382 28.0134 2.08689 28.2945C2.71504 28.6843 3.38729 28.7936 4.10044 28.5751C4.49152 28.4556 4.8385 28.253 5.14587 27.9846C5.2692 27.8772 5.38231 27.7584 5.50053 27.6446C5.51203 27.6338 5.52417 27.6223 5.54782 27.6191L5.85966 27.3692Z" fill="white"/>
<path d="M25.4803 20.174V20.278C25.4803 21.2373 25.0266 22.0108 24.1192 22.5984C23.7386 22.8407 23.2814 23.0389 22.7458 23.1948L25.4679 27.174L24.4954 27.1599C24.2443 27.2119 23.9686 27.026 23.6655 26.6023L21.7477 23.5824C21.6614 23.4353 21.5618 23.3357 21.4499 23.2846C21.398 23.2591 21.3504 23.2459 21.3072 23.2459H20.1787V26.6543C20.1787 26.9741 20.0404 27.1467 19.7638 27.1731H18.623V17.4131C18.6485 17.1718 18.7525 17.0026 18.934 16.9075C19.0115 16.8731 19.1022 16.8511 19.2062 16.8423C20.399 16.8423 21.0896 16.8511 21.2799 16.8678C22.1785 16.9454 22.6489 16.9894 22.693 16.9973C23.5739 17.1612 24.2047 17.451 24.5852 17.8659C25.1816 18.5231 25.4803 19.2922 25.4803 20.174ZM23.4321 21.8848C23.847 21.306 24.054 20.7273 24.054 20.1485C24.054 19.5265 23.8593 18.9407 23.4708 18.3919C23.0823 17.843 22.5934 17.4827 22.0067 17.3101C21.6438 17.2061 21.1989 17.1541 20.6721 17.1541C20.3435 17.1797 20.1796 17.3268 20.1796 17.5946V22.8953C20.6985 22.9296 21.2852 22.9129 21.9424 22.8433C22.4859 22.8266 22.9828 22.5068 23.4321 21.8848Z" fill="white"/>
<path d="M31.831 26.1484C32.0301 26.0101 32.1596 25.9414 32.2195 25.9414C32.2794 25.9414 32.3102 25.9713 32.3102 26.0321C32.3102 26.1704 32.1155 26.3686 31.727 26.6285C31.0787 27.0522 30.3924 27.2637 29.6665 27.2637C29.3811 27.2637 29.0525 27.2249 28.6816 27.1474C27.9214 26.9914 27.325 26.6118 26.8933 26.0065C26.392 25.3238 26.1418 24.5072 26.1418 23.5566C26.1418 22.252 26.548 21.0856 27.3602 20.0575C27.9821 19.2717 28.7036 18.8779 29.5247 18.8779C29.8612 18.8779 30.1766 18.9599 30.4708 19.1246C30.7994 19.3061 31.1104 19.58 31.4037 19.9474C31.6971 20.3148 31.9305 20.7447 32.1032 21.2371C32.3367 21.8943 32.4529 22.4555 32.4529 22.9224C32.4265 23.2853 32.2406 23.4844 31.8944 23.5188H27.6183V24.6719C27.6447 25.1124 27.7267 25.493 27.865 25.8127C28.2103 26.5818 28.8155 26.9659 29.6797 26.9659C29.7749 26.9659 29.8744 26.9615 29.9775 26.9527C30.3316 26.9527 30.751 26.8144 31.2346 26.5378C31.3297 26.4849 31.528 26.3554 31.831 26.1484ZM27.6571 21.275C27.6483 21.3613 27.6351 22.0009 27.6183 23.1928H30.6637C30.8021 23.1585 30.906 23.0845 30.9747 22.9726C31.0003 22.9294 31.0179 22.8774 31.0267 22.8166C31.0443 22.696 31.0478 22.4845 31.0399 22.1815C30.9967 21.3085 30.8496 20.6178 30.5994 20.1077C30.3316 19.5633 29.9255 19.2911 29.3811 19.2911C29.0613 19.2911 28.7591 19.3994 28.4737 19.6153C28.0244 19.9615 27.7522 20.5147 27.6571 21.275Z" fill="white"/>
<path d="M34.643 16V26.6542C34.643 26.974 34.4307 27.1466 34.0079 27.173H33.1137V16.4801C33.1137 16.178 33.2564 16.0176 33.5418 16.0009H34.643V16Z" fill="white"/>
<path d="M41.6544 23.2446V27.1719H41.2659H40.7083C40.4061 27.1719 40.2414 27.0203 40.2158 26.7182V25.2021C39.8097 25.824 39.386 26.2953 38.9455 26.6151C38.7209 26.779 38.4707 26.9093 38.1941 27.0036C37.8831 27.1164 37.5677 27.1719 37.2479 27.1719C36.8075 27.1719 36.4445 27.06 36.1591 26.8345C35.9256 26.653 35.7441 26.4072 35.6146 26.0954C35.4244 25.6373 35.3292 25.1492 35.3292 24.6303C35.3292 23.4296 35.7811 22.5698 36.6841 22.0509C37.0145 21.8606 37.3924 21.7655 37.8179 21.7655C38.1218 21.7655 38.4169 21.8175 38.7041 21.9214C39.1296 22.0685 39.482 22.2668 39.7595 22.5178C39.9242 22.665 40.0458 22.7381 40.1242 22.7381C40.1674 22.7381 40.1894 22.7125 40.1894 22.6605C40.1894 22.6517 40.1938 22.5504 40.2026 22.3557C40.2114 22.1611 40.2158 21.9822 40.2158 21.8175C40.2158 20.4784 39.9119 19.7138 39.3032 19.5235C39.06 19.446 38.8204 19.4072 38.5861 19.4072C38.3861 19.4072 38.1949 19.4372 38.0126 19.498C37.7783 19.5755 37.4867 19.7402 37.1396 19.9904C36.87 20.1895 36.596 20.3877 36.3185 20.5868C36.0146 20.8026 35.8278 20.889 35.7582 20.8458C35.7406 20.8282 35.7318 20.807 35.7318 20.7806C35.7318 20.7374 35.7917 20.6423 35.9133 20.4952C36.1379 20.2362 36.4269 19.9772 36.7819 19.7173C36.9634 19.5878 37.1581 19.4627 37.3651 19.3411C37.9527 18.987 38.579 18.8223 39.2441 18.8487C39.4776 18.8575 39.6846 18.883 39.8661 18.9262C40.3585 19.0302 40.7559 19.2848 41.0589 19.6909C41.3355 20.0538 41.5038 20.4969 41.5646 21.0193C41.6245 21.5453 41.6544 22.2861 41.6544 23.2446ZM40.2158 24.0877C40.2158 24.0013 40.2026 23.9194 40.1771 23.841C40.0995 23.6164 39.9383 23.3706 39.6926 23.1019C39.4468 22.8341 39.2168 22.6394 39.0019 22.5187C38.6398 22.3029 38.2998 22.2165 37.9818 22.2597C37.7923 22.2853 37.5985 22.3919 37.4003 22.5769C37.2021 22.7627 37.0691 22.9504 37.0004 23.1407C36.8277 23.5811 36.7634 24.0824 36.8066 24.6444C36.8841 25.6381 37.2796 26.1782 37.9941 26.2645C38.6997 26.3508 39.3366 25.9192 39.9049 24.9686C40.1128 24.6233 40.2158 24.3291 40.2158 24.0877Z" fill="white"/>
<path d="M42.3161 18.9158H43.3917C43.6851 18.9158 43.9053 19.0285 44.0524 19.2532C44.1212 19.3739 44.7043 20.3632 45.802 22.2211L46.9948 19.3052C47.0635 19.0638 47.1939 18.9334 47.3833 18.9167H48.6149C48.5541 19.0118 48.4589 19.1457 48.3294 19.3184L46.424 21.8326C46.165 22.1779 46.0355 22.4026 46.0355 22.5065C46.0355 22.5761 46.0531 22.6404 46.0874 22.7012C46.1561 22.814 47.0036 24.308 48.6281 27.1852H47.5912C47.4353 27.2108 47.2846 27.1332 47.1375 26.9518C47.0679 26.8654 46.438 25.8497 45.2452 23.9063L43.9106 26.7967C43.7979 27.039 43.6084 27.1685 43.3406 27.1852H42.317L44.9087 23.7636C44.9607 23.6949 44.9862 23.6121 44.9862 23.517C44.9862 23.4218 44.9581 23.3249 44.9017 23.2254C44.8453 23.1267 43.9829 21.6899 42.3161 18.9158Z" fill="white"/>
<path d="M49.2368 18.8901H50.3926C50.5917 18.8901 50.7565 19.032 50.886 19.3165C50.9467 19.4548 51.8488 21.5761 53.594 25.6805C53.7323 25.2655 53.8706 24.8541 54.008 24.4471C54.1719 23.9626 54.2882 23.538 54.3578 23.1751C54.5648 21.9717 54.785 20.7163 55.0185 19.4099C55.0784 19.202 55.1092 19.0945 55.1092 19.0857C55.1691 18.9562 55.2731 18.891 55.4202 18.891H56.443L54.4467 24.5749C54.2476 25.1457 53.9411 25.9333 53.5261 26.9367C53.172 27.7762 52.7359 28.4678 52.2171 29.0131C51.8198 29.428 51.344 29.7178 50.7917 29.8826C50.5239 29.9601 50.2772 29.9998 50.0526 29.9998C49.7671 29.9998 49.5513 29.9346 49.4042 29.8051C49.3267 29.7355 49.2879 29.5892 49.2879 29.3646V28.3929C49.435 28.6863 49.6702 28.9268 49.9944 29.1126C50.3186 29.2985 50.6358 29.3655 50.9467 29.3135C51.4656 29.2439 51.9836 28.8501 52.5025 28.133C52.7095 27.8388 52.7835 27.5622 52.7227 27.3023C52.6884 27.1781 51.5264 24.3749 49.2368 18.8901Z" fill="white"/>
</g>
<defs>
<clipPath id="clip0_2023_190">
<rect width="56" height="45" fill="white"/>
</clipPath>
</defs>
</svg>
