<svg width="70" height="45" viewBox="0 0 70 45" fill="none" xmlns="http://www.w3.org/2000/svg">
<g clip-path="url(#clip0_26_565)">
<path d="M24.6241 22.4162H23.5551L23.2455 21.4873H21.3803L21.0633 22.4162H19.9944L21.9038 17.1673H22.7073L24.6241 22.4162ZM22.9727 20.6248L22.3313 18.7154L21.6679 20.6248H22.9727Z" fill="#151515"/>
<path d="M29.5169 22.4162H28.3226L26.9735 20.0277L26.2953 20.8386V22.4162H25.2706V17.1673H26.2953V19.4526L28.1457 17.1673H29.3916L27.6518 19.2536L29.5169 22.4162Z" fill="#151515"/>
<path d="M31.1981 22.4162H30.1733V17.1673H31.1981V22.4162Z" fill="#151515"/>
<path d="M35.0293 20.6912C35.0293 20.9811 34.9776 21.2367 34.8744 21.4579C34.7761 21.679 34.641 21.8633 34.469 22.0108C34.297 22.1582 34.0979 22.2712 33.8718 22.3499C33.6507 22.4236 33.4197 22.4605 33.1788 22.4605C32.8938 22.4605 32.6456 22.4211 32.4343 22.3425C32.2278 22.259 32.0263 22.1189 31.8298 21.9223L32.508 21.2514C32.5915 21.335 32.68 21.4063 32.7734 21.4652C32.8717 21.5193 33.0068 21.5463 33.1788 21.5463C33.4295 21.5463 33.6285 21.4726 33.776 21.3252C33.9283 21.1777 34.0045 20.9516 34.0045 20.6469V17.1673H35.0293V20.6912Z" fill="#151515"/>
<path d="M41.2894 20.8681C41.2894 21.1237 41.2378 21.3497 41.1346 21.5463C41.0363 21.7429 40.8987 21.91 40.7217 22.0476C40.5497 22.1803 40.3458 22.2835 40.1099 22.3573C39.8739 22.4261 39.6184 22.4605 39.3432 22.4605C38.9451 22.4605 38.5887 22.4113 38.2742 22.313C37.9646 22.2098 37.682 22.028 37.4264 21.7675L38.0899 21.104C38.257 21.2711 38.4487 21.3866 38.6649 21.4505C38.8812 21.5144 39.1122 21.5463 39.3579 21.5463C39.6626 21.5463 39.8936 21.4923 40.0509 21.3841C40.2082 21.2711 40.2868 21.1089 40.2868 20.8976C40.2868 20.7059 40.2327 20.5585 40.1246 20.4552C40.0705 20.4061 40.0091 20.3692 39.9403 20.3447C39.8764 20.3152 39.783 20.2906 39.6602 20.2709L39.0262 20.1825C38.5789 20.1186 38.2398 19.9736 38.0088 19.7475C37.7581 19.4969 37.6328 19.1528 37.6328 18.7154C37.6328 18.4795 37.6746 18.2657 37.7581 18.0741C37.8417 17.8775 37.9621 17.7104 38.1194 17.5727C38.2767 17.4302 38.4683 17.3196 38.6944 17.241C38.9205 17.1624 39.1761 17.123 39.4611 17.123C39.8248 17.123 40.1418 17.1697 40.4121 17.2631C40.6824 17.3565 40.9306 17.5138 41.1567 17.7349L40.5079 18.3763C40.3408 18.219 40.1615 18.1207 39.9698 18.0814C39.783 18.0372 39.6036 18.0151 39.4316 18.0151C39.1564 18.0151 38.9524 18.0814 38.8197 18.2141C38.687 18.3419 38.6207 18.4967 38.6207 18.6786C38.6207 18.7474 38.633 18.8137 38.6575 18.8776C38.6821 18.9415 38.7214 19.0005 38.7755 19.0545C38.8296 19.1037 38.8959 19.1479 38.9745 19.1872C39.0581 19.2216 39.1539 19.2462 39.2621 19.261L39.8813 19.3494C40.1221 19.3838 40.3212 19.4354 40.4785 19.5042C40.6357 19.5681 40.7709 19.6517 40.8839 19.7549C41.0265 19.8876 41.1297 20.0473 41.1936 20.2341C41.2574 20.4208 41.2894 20.6322 41.2894 20.8681Z" fill="#151515"/>
<path d="M46.08 22.4162H45.0552V20.2193H43.2785V22.4162H42.2538V17.1673H43.2785V19.3126H45.0552V17.1673H46.08V22.4162Z" fill="#151515"/>
<path d="M48.3253 22.4162H47.3006V17.1673H48.3253V22.4162Z" fill="#151515"/>
<path d="M53.3139 18.8039C53.3139 19.0251 53.2746 19.2364 53.1959 19.4379C53.1173 19.6345 53.0018 19.809 52.8495 19.9613C52.702 20.1088 52.5202 20.2267 52.3039 20.3152C52.0926 20.3987 51.8518 20.4405 51.5815 20.4405H50.5715V22.4162H49.5467V17.1673H51.5815C51.8518 17.1673 52.0926 17.2115 52.3039 17.3C52.5202 17.3835 52.702 17.5015 52.8495 17.6538C53.0018 17.8013 53.1173 17.9758 53.1959 18.1773C53.2746 18.3739 53.3139 18.5827 53.3139 18.8039ZM52.2892 18.8039C52.2892 18.5876 52.2204 18.4132 52.0828 18.2805C51.9501 18.1478 51.7658 18.0814 51.5299 18.0814H50.5715V19.519H51.5299C51.7658 19.519 51.9501 19.4551 52.0828 19.3273C52.2204 19.1946 52.2892 19.0201 52.2892 18.8039Z" fill="#151515"/>
<path d="M57.9431 18.8039C57.9431 19.0251 57.9038 19.2364 57.8251 19.4379C57.7465 19.6345 57.631 19.809 57.4786 19.9613C57.3312 20.1088 57.1493 20.2267 56.9331 20.3152C56.7218 20.3987 56.4809 20.4405 56.2106 20.4405H55.2006V22.4162H54.1759V17.1673H56.2106C56.4809 17.1673 56.7218 17.2115 56.9331 17.3C57.1493 17.3835 57.3312 17.5015 57.4786 17.6538C57.631 17.8013 57.7465 17.9758 57.8251 18.1773C57.9038 18.3739 57.9431 18.5827 57.9431 18.8039ZM56.9184 18.8039C56.9184 18.5876 56.8495 18.4132 56.7119 18.2805C56.5792 18.1478 56.3949 18.0814 56.159 18.0814H55.2006V19.519H56.159C56.3949 19.519 56.5792 19.4551 56.7119 19.3273C56.8495 19.1946 56.9184 19.0201 56.9184 18.8039Z" fill="#151515"/>
<path d="M59.8298 22.4162H58.8051V17.1673H59.8298V22.4162Z" fill="#151515"/>
<path d="M65.0691 22.4162H64.155L62.076 19.1946V22.4162H61.0513V17.1673H61.9654L64.0444 20.3815V17.1673H65.0691V22.4162Z" fill="#151515"/>
<path d="M70.0301 20.2636C70.0301 20.642 69.9908 20.9566 69.9121 21.2072C69.8384 21.4529 69.7106 21.6716 69.5288 21.8633C69.3174 22.0845 69.0864 22.2393 68.8358 22.3278C68.5901 22.4162 68.3271 22.4605 68.047 22.4605C67.757 22.4605 67.4941 22.4113 67.2582 22.313C67.0272 22.2147 66.8183 22.0722 66.6315 21.8854C66.4988 21.7527 66.3956 21.6127 66.3219 21.4652C66.2531 21.3129 66.2039 21.1507 66.1745 20.9787C66.145 20.8067 66.1278 20.6223 66.1228 20.4258C66.1179 20.2292 66.1155 20.0178 66.1155 19.7918C66.1155 19.5657 66.1179 19.3543 66.1228 19.1578C66.1278 18.9612 66.145 18.7769 66.1745 18.6048C66.2039 18.4328 66.2531 18.2731 66.3219 18.1257C66.3956 17.9733 66.4988 17.8308 66.6315 17.6981C66.8183 17.5113 67.0272 17.3688 67.2582 17.2705C67.4892 17.1722 67.7521 17.123 68.047 17.123C68.3517 17.123 68.6195 17.1697 68.8505 17.2631C69.0815 17.3565 69.2781 17.4818 69.4403 17.6391C69.6025 17.7915 69.7303 17.9684 69.8237 18.1699C69.9219 18.3714 69.9883 18.5827 70.0227 18.8039H68.9906C68.9316 18.5532 68.826 18.364 68.6736 18.2362C68.5212 18.1035 68.3124 18.0372 68.047 18.0372C67.9044 18.0372 67.7767 18.0642 67.6636 18.1183C67.5555 18.1674 67.4646 18.2338 67.3909 18.3173C67.3417 18.3714 67.2999 18.4328 67.2655 18.5016C67.236 18.5655 67.2115 18.6515 67.1918 18.7597C67.1721 18.8678 67.1574 19.0054 67.1476 19.1725C67.1427 19.3347 67.1402 19.5411 67.1402 19.7918C67.1402 20.0424 67.1427 20.2513 67.1476 20.4184C67.1574 20.5855 67.1721 20.7231 67.1918 20.8312C67.2115 20.9393 67.236 21.0278 67.2655 21.0966C67.2999 21.1605 67.3417 21.2195 67.3909 21.2736C67.4646 21.3571 67.5555 21.4235 67.6636 21.4726C67.7767 21.5217 67.9044 21.5463 68.047 21.5463C68.2042 21.5463 68.3443 21.5217 68.4672 21.4726C68.5901 21.4185 68.6933 21.3448 68.7768 21.2514C68.8604 21.1531 68.9193 21.0475 68.9537 20.9344C68.9931 20.8165 69.0127 20.6887 69.0127 20.5511V20.352H68.047V19.4969H70.0301V20.2636Z" fill="#151515"/>
<path d="M23.9753 30.6309H20.5694V25.3819H21.5941V29.7167H23.9753V30.6309Z" fill="#151515"/>
<path d="M25.8345 30.6309H24.8098V25.3819H25.8345V30.6309Z" fill="#151515"/>
<path d="M31.0738 30.6309H30.1597L28.0807 27.4093V30.6309H27.056V25.3819H27.9702L30.0491 28.5962V25.3819H31.0738V30.6309Z" fill="#151515"/>
<path d="M35.7547 30.6309H32.2971V25.3819H35.7547V26.2961H33.3219V27.5272H35.3934V28.4414H33.3219V29.7167H35.7547V30.6309Z" fill="#151515"/>
<path d="M41.8801 30.6309H38.4742V25.3819H39.4989V29.7167H41.8801V30.6309Z" fill="#151515"/>
<path d="M43.7393 30.6309H42.7146V25.3819H43.7393V30.6309Z" fill="#151515"/>
<path d="M49.7158 30.6309H48.6911V27.5715L47.6885 29.5619H46.9955L45.9855 27.5715V30.6309H44.9608V25.3819H45.9707L47.342 28.2202L48.7058 25.3819H49.7158V30.6309Z" fill="#151515"/>
<path d="M51.9609 30.6309H50.9362V25.3819H51.9609V30.6309Z" fill="#151515"/>
<path d="M56.5588 26.2961H55.1876V30.6309H54.1629V26.2961H52.7917V25.3819H56.5588V26.2961Z" fill="#151515"/>
<path d="M60.8516 30.6309H57.394V25.3819H60.8516V26.2961H58.4188V27.5272H60.4903V28.4414H58.4188V29.7167H60.8516V30.6309Z" fill="#151515"/>
<path d="M65.669 27.9843C65.669 28.1809 65.669 28.3775 65.669 28.5741C65.669 28.7657 65.6543 28.9525 65.6248 29.1343C65.5953 29.3162 65.5437 29.4907 65.47 29.6578C65.3962 29.8249 65.2857 29.9821 65.1382 30.1296C64.9662 30.3016 64.7598 30.4294 64.519 30.5129C64.283 30.5916 64.0275 30.6309 63.7523 30.6309H61.8576V25.3819H63.7523C64.0275 25.3819 64.283 25.4237 64.519 25.5073C64.7598 25.5859 64.9662 25.7112 65.1382 25.8832C65.2857 26.0307 65.3962 26.1855 65.47 26.3477C65.5437 26.5099 65.5953 26.6794 65.6248 26.8564C65.6543 27.0333 65.669 27.2176 65.669 27.4093C65.669 27.596 65.669 27.7877 65.669 27.9843ZM64.6443 27.9843C64.6443 27.7877 64.6418 27.6181 64.6369 27.4756C64.632 27.3282 64.6222 27.2004 64.6074 27.0923C64.5927 26.9841 64.5706 26.8932 64.5411 26.8195C64.5116 26.7458 64.4723 26.6794 64.4231 26.6204C64.3346 26.5123 64.229 26.4312 64.1061 26.3772C63.9832 26.3231 63.8333 26.2961 63.6564 26.2961H62.8823V29.7167H63.6564C63.8333 29.7167 63.9832 29.6897 64.1061 29.6356C64.229 29.5816 64.3346 29.5005 64.4231 29.3924C64.5165 29.2744 64.5755 29.1098 64.6 28.8984C64.6295 28.6871 64.6443 28.3824 64.6443 27.9843Z" fill="#151515"/>
<path d="M18 28.782C18 30.5596 16.6489 32 14.9801 32H3.01815C1.35111 32 0 30.5596 0 28.782V17.218C0 15.4404 1.35111 14 3.01815 14H14.9801C16.6471 14 18 15.4404 18 17.218V28.782Z" fill="#134679"/>
<path d="M7.52832 18.0016C7.64076 17.9677 7.6836 17.9106 7.65861 17.8267C7.63541 17.7481 7.57294 17.7249 7.46942 17.7553L7.3302 17.7963L7.40159 18.0391L7.52832 18.0016Z" fill="white"/>
<path d="M5.21179 26.9738L5.55269 26.7792L5.40455 26.6311L5.21179 26.9738Z" fill="white"/>
<path d="M6.21661 18.4351C6.17199 18.3672 6.10416 18.3619 6.01492 18.4208L5.89355 18.5011L6.03277 18.7117L6.14343 18.6385C6.2416 18.5743 6.26658 18.5065 6.21839 18.4333" fill="white"/>
<path d="M12.2172 26.6936C12.1672 26.7364 12.1476 26.7971 12.1547 26.8756C12.1637 26.9541 12.2029 27.0345 12.2761 27.1183C12.3386 27.1897 12.4064 27.2397 12.4814 27.2647C12.5563 27.2897 12.6224 27.279 12.6795 27.229L12.758 27.1612L12.294 26.6257L12.2154 26.6936H12.2172Z" fill="white"/>
<path d="M17.0416 25.4905C16.9434 25.3156 16.7025 25.2799 16.4437 25.2406C16.3776 25.2299 16.3098 25.2192 16.2455 25.2067C15.91 25.1407 15.7547 25.0836 15.5727 24.9533V24.9479L15.6226 24.8105L15.0997 24.6284C15.4424 23.3398 15.3745 21.9548 14.873 20.6858L15.3799 20.4394L15.3139 20.302L15.3299 20.2877C15.4923 20.1325 15.6155 20.0611 15.9385 19.945C15.9992 19.9236 16.0653 19.9022 16.1295 19.8826C16.3776 19.804 16.6114 19.7309 16.6828 19.5435C16.706 19.481 16.7203 19.3828 16.6561 19.2579C16.5954 19.1401 16.5097 19.0919 16.4472 19.0758C16.2545 19.0223 16.0581 19.1669 15.8475 19.3221C15.794 19.3614 15.7387 19.4025 15.6833 19.4382C15.3995 19.6291 15.2496 19.697 15.0283 19.7327V19.7273H15.0265L14.964 19.597L14.4643 19.838C14.3108 19.5738 14.1377 19.3186 13.9413 19.0723C13.2738 18.2334 12.4349 17.6105 11.5157 17.2125L11.7014 16.6788L11.5568 16.6288V16.6074C11.5621 16.3825 11.5996 16.2451 11.746 15.9345C11.7728 15.8774 11.8049 15.815 11.837 15.7561C11.9584 15.5258 12.0708 15.3081 11.9905 15.126C11.9637 15.0653 11.9031 14.985 11.7692 14.9422C11.6425 14.9029 11.5479 14.9297 11.4925 14.9618C11.3176 15.06 11.2819 15.3009 11.2427 15.5597C11.232 15.6258 11.2212 15.6936 11.2088 15.7578C11.1427 16.0934 11.0856 16.2469 10.9553 16.4307H10.95V16.4289L10.8125 16.3807L10.6305 16.9055C9.34182 16.5628 7.95858 16.6306 6.68957 17.1322L6.44326 16.6235L6.30583 16.6895L6.29155 16.6735C6.13627 16.5128 6.06488 16.3879 5.94886 16.0648C5.92744 16.0041 5.90603 15.9381 5.88639 15.8756C5.80786 15.6275 5.73468 15.392 5.54906 15.3223C5.48659 15.2991 5.38843 15.2849 5.26349 15.3491C5.1439 15.4116 5.0975 15.4973 5.07965 15.5597C5.02432 15.7525 5.17068 15.9488 5.32596 16.1594C5.36522 16.213 5.40627 16.2683 5.44197 16.3236C5.63295 16.6074 5.70077 16.7573 5.73825 16.9787L5.7329 16.9822L5.60261 17.0447L5.84534 17.5462C5.58119 17.6997 5.32417 17.8729 5.07787 18.0692C4.239 18.7367 3.61609 19.5738 3.21807 20.493L2.68263 20.3074L2.63265 20.4519H2.61123C2.38634 20.4484 2.24891 20.4091 1.93835 20.2645C1.87945 20.2378 1.81877 20.2056 1.75987 20.1735C1.52963 20.0521 1.31188 19.9397 1.12982 20.02C1.06914 20.0468 0.988822 20.1075 0.945986 20.2395C0.90315 20.3698 0.931709 20.4626 0.963836 20.5198C1.06022 20.6947 1.30295 20.7304 1.56175 20.7696C1.62779 20.7803 1.69562 20.7911 1.75987 20.8036C2.09542 20.8696 2.24891 20.9267 2.43096 21.057V21.0624L2.38099 21.1998L2.90573 21.3818C2.56304 22.6705 2.63086 24.0537 3.1324 25.3227L2.62373 25.569L2.68976 25.7065L2.6737 25.7208C2.51307 25.876 2.38813 25.9474 2.06507 26.0634C2.00439 26.0849 1.93835 26.1063 1.8741 26.1259C1.62601 26.2027 1.39219 26.2776 1.3208 26.4632C1.2976 26.5257 1.28332 26.6239 1.34757 26.7488C1.41004 26.8684 1.49393 26.9166 1.5564 26.9327C1.74916 26.988 1.94549 26.8416 2.1561 26.6881C2.20965 26.6489 2.26498 26.6078 2.32031 26.5721C2.60409 26.3811 2.75402 26.3133 2.97534 26.2776V26.283L3.04138 26.4133L3.54291 26.1705C3.69641 26.4347 3.86954 26.6917 4.06587 26.938C4.73339 27.7769 5.57048 28.3998 6.48967 28.7978L6.30404 29.3332L6.44861 29.385V29.4064C6.44504 29.6313 6.40578 29.7687 6.26121 30.0793C6.23444 30.1382 6.20052 30.1989 6.17018 30.2578C6.04881 30.488 5.93637 30.7058 6.01669 30.8878C6.04346 30.9485 6.10414 31.0288 6.23622 31.0699C6.36651 31.1109 6.45932 31.0842 6.51644 31.052C6.69135 30.9539 6.72705 30.7129 6.76631 30.4541C6.77702 30.3881 6.78773 30.3203 6.80023 30.256C6.86626 29.9205 6.92338 29.767 7.05367 29.5849H7.05903L7.19646 29.6349L7.38029 29.1084C8.66894 29.451 10.0522 29.3832 11.323 28.8835L11.5693 29.3921L11.7067 29.3261L11.721 29.3422C11.8763 29.5028 11.9477 29.6277 12.0637 29.9508C12.0851 30.0115 12.1065 30.0775 12.1262 30.1418C12.2029 30.3899 12.2779 30.6237 12.4635 30.6951C12.526 30.7183 12.6241 30.7326 12.7491 30.6683C12.8704 30.6058 12.9168 30.5202 12.9347 30.4577C12.99 30.2649 12.8437 30.0686 12.6884 29.858C12.6491 29.8044 12.6081 29.7491 12.5724 29.6938C12.3814 29.4082 12.3136 29.2601 12.2779 29.0388H12.2832L12.4135 28.9727L12.1708 28.473C12.4367 28.3195 12.6937 28.1446 12.94 27.9482C13.7789 27.2807 14.4018 26.4436 14.7998 25.5262L15.3335 25.7118L15.3835 25.5673H15.4049C15.6298 25.5726 15.7672 25.6101 16.0778 25.7565C16.1349 25.7832 16.1973 25.8154 16.2562 25.8475C16.4865 25.9671 16.7042 26.0813 16.8863 25.9992C16.947 25.9724 17.0273 25.9117 17.0701 25.7779C17.1112 25.6511 17.0844 25.5566 17.0523 25.5012M14.4946 20.9606L14.5964 21.3212L14.218 21.7406C14.143 21.8245 14.0752 21.8905 14.0145 21.9405C14.1162 21.8905 14.2233 21.8495 14.3358 21.8173L14.707 21.712L14.7945 22.0226L13.538 22.3778L13.4505 22.0672L13.9092 21.5692C13.9681 21.505 14.0413 21.4372 14.1323 21.364C14.0573 21.4068 13.9913 21.4372 13.9342 21.4532L13.3256 21.6246L13.2381 21.3158L14.4946 20.9606ZM14.0377 20.0807L14.2305 20.427L13.09 21.0606L12.8972 20.7143L14.0377 20.0807ZM13.2113 18.9937L13.4683 19.2972L12.7187 19.9343L13.0489 20.3216L12.8044 20.5287L12.2172 19.838L13.2113 18.9937ZM10.8197 18.2013C10.9071 18.0264 11.0285 17.905 11.1802 17.8318C11.3319 17.7604 11.4997 17.7693 11.6835 17.8622C11.8209 17.9318 11.9138 18.0228 11.962 18.1352C12.0101 18.2477 12.0137 18.3762 11.9744 18.5172L11.6139 18.378C11.6585 18.2477 11.6353 18.162 11.5479 18.1174C11.4319 18.0585 11.3176 18.1406 11.2052 18.3637C11.1374 18.4993 11.1106 18.5975 11.1267 18.6582C11.1427 18.7207 11.1766 18.7635 11.2284 18.7903C11.2712 18.8117 11.3141 18.817 11.3587 18.8063C11.4015 18.7956 11.4354 18.7671 11.4586 18.7224L11.2677 18.6261L11.3926 18.378L11.912 18.6403L11.5818 19.2936L11.4087 19.2061C11.4194 19.1508 11.4229 19.1026 11.4229 19.0598C11.3033 19.1169 11.1748 19.1097 11.0338 19.0401C10.8857 18.9652 10.7893 18.8509 10.7465 18.6975C10.7036 18.544 10.7268 18.378 10.8179 18.1977M9.41857 17.2321L9.78803 17.2928L10.0093 17.814C10.0522 17.9175 10.0843 18.0067 10.1039 18.0835C10.1022 17.9692 10.1111 17.8568 10.1289 17.7408L10.1914 17.3588L10.5091 17.4106L10.3003 18.6992L9.98079 18.6475L9.72377 18.021C9.69165 17.9407 9.65952 17.8443 9.63096 17.7336C9.6381 17.8193 9.63632 17.8925 9.62739 17.9496L9.52566 18.5743L9.20796 18.5225L9.41679 17.2339L9.41857 17.2321ZM8.82422 17.2446L8.91346 18.5475L8.51723 18.5743L8.42799 17.2714L8.82422 17.2446ZM7.40171 17.4748C7.53379 17.4356 7.63909 17.4213 7.71584 17.432C7.79437 17.4427 7.8622 17.4731 7.9211 17.523C7.98 17.5748 8.02105 17.639 8.04425 17.7176C8.07995 17.8372 8.06745 17.9443 8.00677 18.0424C7.94609 18.1406 7.84792 18.2102 7.71049 18.2512L7.49631 18.3155L7.63196 18.7706L7.24643 18.8849L6.8734 17.6337L7.40171 17.4766V17.4748ZM12.1315 20.5804C13.2756 22.019 13.2631 24.002 12.2261 25.4173H5.79715C4.53706 23.7003 4.84584 21.2819 6.52715 19.9433C8.25129 18.5725 10.759 18.8581 12.1315 20.5804ZM5.86855 18.1745C5.98456 18.0995 6.07915 18.0549 6.15769 18.0424C6.23444 18.0299 6.3094 18.0389 6.38079 18.071C6.45218 18.1031 6.5093 18.1531 6.55392 18.2209C6.62174 18.3244 6.64138 18.4315 6.61103 18.544C6.58069 18.6546 6.50573 18.7492 6.38615 18.8277L6.19874 18.9509L6.45932 19.3471L6.12199 19.5684L5.40627 18.4779L5.86855 18.1745ZM4.98148 18.8706L5.91674 19.7808L5.64009 20.0646L4.70484 19.1544L4.98148 18.8706ZM3.94985 20.1985L4.36036 20.4466L4.51743 20.186L4.10692 19.9379L4.31039 19.5988L5.42948 20.2717L5.22601 20.6108L4.79051 20.3484L4.63523 20.6072L5.07073 20.8696L4.86547 21.2087L3.74638 20.5358L3.94985 20.1967V20.1985ZM3.35551 21.6299C3.41976 21.3747 3.5679 21.2337 3.79457 21.2051L3.81064 21.5478C3.71783 21.5603 3.65893 21.6156 3.63215 21.7156C3.61074 21.7995 3.6268 21.8477 3.67856 21.862C3.70176 21.8691 3.72318 21.862 3.74103 21.8477C3.75888 21.8316 3.7803 21.7995 3.80528 21.7477C3.87668 21.6067 3.93201 21.5068 3.97127 21.4497C4.01232 21.3925 4.06765 21.3515 4.13726 21.3247C4.20687 21.2979 4.28362 21.2944 4.36393 21.3158C4.49066 21.3479 4.58168 21.4265 4.63523 21.5496C4.68877 21.6728 4.69413 21.8173 4.65129 21.9851C4.57276 22.2903 4.39606 22.4456 4.1212 22.4509L4.14797 22.0779C4.25863 22.0743 4.32824 22.0101 4.36036 21.8869C4.38535 21.7906 4.37107 21.7352 4.31931 21.7227C4.29254 21.7156 4.26755 21.7227 4.24792 21.7406C4.2265 21.7602 4.2033 21.7959 4.17653 21.8495C4.07836 22.0583 3.98555 22.185 3.90166 22.2296C3.81778 22.2743 3.72853 22.285 3.63572 22.2618C3.51614 22.2314 3.42868 22.1618 3.37157 22.0511C3.31624 21.9405 3.3091 21.8031 3.35194 21.6353M3.18952 23.3844L4.00697 23.3005C4.13191 23.288 4.23007 23.288 4.2979 23.3041C4.36572 23.3202 4.42105 23.3576 4.46745 23.4183C4.51208 23.479 4.54063 23.5647 4.55313 23.6753C4.56205 23.7735 4.56205 23.8627 4.54956 23.9431L4.239 23.9752C4.24971 23.9181 4.25149 23.8663 4.24614 23.8181C4.24078 23.761 4.22293 23.7235 4.19438 23.7021C4.16582 23.6807 4.11584 23.6736 4.04623 23.6807L3.22878 23.7646L3.18952 23.3844ZM3.4626 24.8623L3.35551 24.4803L4.61203 24.1251L4.7209 24.5071L3.46438 24.8623H3.4626ZM4.15332 26.3383L3.97306 26.0099L4.44604 25.7511L3.80171 25.6976L3.63037 25.3852L4.20508 25.4423L4.73696 24.6891L4.94579 25.0711L4.61916 25.503L4.85119 25.528L5.11535 25.3834L5.29561 25.7118L4.15154 26.3383H4.15332ZM5.06716 27.3789L4.76909 27.0844L5.40092 25.8725L5.68828 26.1563L5.55798 26.3901L5.80429 26.6346L6.03989 26.5061L6.26835 26.7328L5.06537 27.3771L5.06716 27.3789ZM8.99557 28.5801C8.77246 28.5801 8.59219 28.3998 8.59219 28.1767C8.59219 27.9536 8.77246 27.7733 8.99557 27.7733C9.21867 27.7733 9.39894 27.9536 9.39894 28.1767C9.39894 28.3998 9.21867 28.5801 8.99557 28.5801ZM8.09066 26.9451H9.91832C9.31326 27.0861 8.68857 27.0861 8.09066 26.9451ZM10.6894 26.6774H7.32318C7.109 26.5775 6.90196 26.4597 6.70742 26.3222H11.3016C11.1052 26.4615 10.9018 26.5793 10.6894 26.6774ZM11.6389 26.0545H6.37008C6.24157 25.9421 6.12199 25.8189 6.00598 25.6868H12.0084C11.8959 25.8171 11.771 25.9385 11.6389 26.0545ZM12.8794 27.4627C12.7151 27.6037 12.5492 27.6609 12.3832 27.6341C12.2154 27.6055 12.0762 27.527 11.9655 27.3985C11.8388 27.2504 11.7781 27.0933 11.7853 26.9255C11.7924 26.7577 11.8674 26.6132 12.0066 26.4918L12.4028 26.1491L13.2577 27.1361L12.8794 27.4627ZM13.5969 26.7363L13.3381 26.5596L13.488 26.3383L12.667 25.7814L12.8776 25.4709L13.6986 26.0277L13.8503 25.8064L14.1091 25.9813L13.5969 26.7363ZM14.4339 25.2674L13.5219 24.8979L13.3309 25.3709L13.0328 25.2513L13.3738 24.4125L14.5839 24.9033L14.4339 25.271V25.2674ZM14.8516 23.6611L14.55 23.6575L14.5553 23.0739H14.3661L14.3608 23.5433L14.0716 23.5397L14.077 23.0685H13.8628L13.8574 23.6504L13.5469 23.6468L13.5558 22.6741L14.8605 22.6883L14.8498 23.6611H14.8516Z" fill="white"/>
<path d="M8.98839 21.2908L11.2623 22.3224V21.0088H6.7395V22.301L8.98839 21.2908Z" fill="white"/>
<path d="M9.68624 20.011H10.1521V20.7089H7.85144V20.011H8.32442L8.32621 20.0093V19.4524H9.68803V20.0093L9.68624 20.011Z" fill="white"/>
<path d="M8.84571 21.6853L6.51829 22.7259C5.28676 23.1542 6.02925 24.9872 6.02925 24.9872H8.84392V21.6853H8.84571Z" fill="white"/>
<path d="M9.15796 24.9872H11.9726C11.9726 24.9872 12.7151 23.1542 11.4836 22.7259L9.15796 21.6853V24.9872Z" fill="white"/>
</g>
<defs>
<clipPath id="clip0_26_565">
<rect width="70" height="45" fill="white"/>
</clipPath>
</defs>
</svg>
