<svg width="49" height="45" viewBox="0 0 49 45" fill="none" xmlns="http://www.w3.org/2000/svg">
<g clip-path="url(#clip0_2053_156)">
<g clip-path="url(#clip1_2053_156)">
<path d="M4.43633 17.511H7.34827V22.2806C6.37592 22.4777 5.6313 22.5775 4.81503 22.5775C1.62161 22.5775 0.495728 20.7479 0.495728 17.7362C0.495728 14.4992 2.05661 12.6697 5.16815 12.6697C5.56221 12.6697 6.30683 12.6978 7.23569 12.8386V15.8912H6.56016L6.17889 14.7244C5.81298 13.6139 5.37798 13.0637 4.68709 13.0637C3.49212 13.0637 2.85753 14.6809 2.85753 17.708C2.85753 20.7479 3.11085 22.1834 4.67174 22.1834C4.88412 22.1834 5.13489 22.1553 5.37542 22.0862V18.5371L4.43377 17.8897V17.511H4.43633ZM7.29198 30.3154C7.29198 32.2294 5.98442 33.3271 3.67635 33.3271C3.04432 33.3271 2.11547 33.2299 1.24291 33.0866V29.3456H1.91844L2.19991 30.2309C2.83194 32.2703 3.28229 32.9459 4.08577 32.9459C4.93018 32.9459 5.53406 32.2012 5.53406 31.2161C5.53406 30.4152 5.15536 29.8522 4.33909 29.4147L2.93173 28.6547C1.84679 28.079 1.2557 27.1782 1.2557 26.0805C1.2557 24.4198 2.61956 23.4219 4.85853 23.4219C5.36518 23.4219 5.95627 23.4654 6.89792 23.5908V26.6435H6.22239L5.84368 25.4766C5.46242 24.2382 5.05556 23.7878 4.31094 23.7878C3.47932 23.7878 2.98803 24.3226 2.98803 25.0954C2.98803 25.7837 3.36929 26.2775 4.11391 26.6997L5.53406 27.5007C6.72904 28.1762 7.29198 29.0769 7.29198 30.3154ZM13.5125 32.5262L13.794 32.9484V33.1608H11.642L11.5422 32.3445C11.317 32.9638 10.7259 33.3297 9.96596 33.3297C8.84007 33.3297 8.13639 32.626 8.13639 31.472C8.13639 30.3461 8.76843 29.6015 10.7106 28.8415L11.5396 28.5191V27.4648C11.5396 26.536 11.3708 26.1573 10.8513 26.1573C10.4291 26.1573 10.1911 26.3825 9.78172 27.4085L9.31857 28.5575H8.68654V26.2622C9.5156 26.0089 10.3472 25.84 11.0637 25.84C12.6527 25.84 13.5125 26.6 13.5125 27.9792V32.5262ZM14.3262 18.8339C14.3262 21.2264 13.0468 22.5775 11.3989 22.5775C9.75358 22.5775 8.47416 21.2264 8.47416 18.8339C8.47416 16.4414 9.75358 15.0903 11.4015 15.0903C13.0468 15.0903 14.3262 16.4414 14.3262 18.8339ZM11.5422 31.344V28.9106L11.2761 29.0232C10.4445 29.3609 10.1348 30.1209 10.1348 31.2314C10.1348 32.0631 10.3319 32.539 10.795 32.539C11.2582 32.539 11.5422 32.0886 11.5422 31.344ZM12.2587 18.8339C12.2587 16.1318 12.0335 15.4153 11.4015 15.4153C10.7694 15.4153 10.5443 16.1318 10.5443 18.8339C10.5443 21.536 10.7694 22.2525 11.4015 22.2525C12.0335 22.2525 12.2587 21.536 12.2587 18.8339ZM19.3236 31.4131L19.5769 31.5411C19.1266 32.8358 18.5508 33.3271 17.4377 33.3271C15.6235 33.3271 14.6102 31.9633 14.6102 29.5836C14.6102 27.2064 15.7924 25.84 17.7192 25.84C18.2387 25.84 18.9295 25.9244 19.5206 26.1624V28.5549H18.8605L18.5943 27.6542C18.2412 26.4592 18.0467 26.1496 17.6936 26.1496C17.1307 26.1496 16.6803 26.8814 16.6803 29.668C16.6803 31.9044 17.0181 32.7207 17.8753 32.7207C18.451 32.7232 18.9423 32.3573 19.3236 31.4131ZM17.7602 22.4086H15.2269V22.1988L15.5084 21.7766V13.9235L15.2269 13.5013V13.2889L17.4787 13.12V21.774L17.7602 22.1962V22.4086ZM21.2223 22.5775C19.6742 22.5775 18.7453 21.1701 18.7453 18.7648C18.7453 16.3723 19.7151 15.0929 21.2069 15.0929C21.9669 15.0929 22.3891 15.3872 22.5708 15.9782V13.9235L22.2893 13.5013V13.2889L24.5411 13.12V21.774L24.8225 22.1962V22.406H22.8241L22.6706 21.3364C22.4479 22.2525 22.0257 22.5775 21.2223 22.5775ZM26.1608 32.5262L26.4423 32.9484V33.1608H23.909V32.9484L24.1905 32.5262V27.4597C24.1905 26.8558 24.0088 26.4899 23.5713 26.4899C23.0493 26.4899 22.6706 26.9275 22.6706 27.7847V32.5262L22.952 32.9484V33.1608H20.4188V32.9484L20.7003 32.5262V24.6732L20.4188 24.2509V24.0411L22.6706 23.8722V26.7842C22.9239 26.1803 23.4996 25.8425 24.3159 25.8425C25.4699 25.8425 26.1582 26.5744 26.1582 27.9945V32.5262H26.1608ZM20.8154 18.7904C20.8154 21.3236 21.0406 22.0964 21.6598 22.0964C22.4326 22.0964 22.5733 20.9859 22.5733 18.7623C22.5733 16.6103 22.4198 15.5407 21.6726 15.5407C21.0406 15.5407 20.8154 16.3007 20.8154 18.7904ZM34.9427 21.774L35.2242 22.1962V22.406H32.6909V22.1962L32.9724 21.774V16.554C32.9724 16.0473 32.8035 15.7377 32.4095 15.7377C31.9182 15.7377 31.5241 16.1753 31.5241 17.0171V21.774L31.8056 22.1962V22.406H29.2723V22.1962L29.5538 21.774V16.554C29.5538 16.0473 29.3849 15.7377 28.9909 15.7377C28.4996 15.7377 28.1055 16.1753 28.1055 17.0171V21.774L28.387 22.1962V22.406H25.8537V22.1962L26.1352 21.774V16.0473L25.8537 15.7096V15.4997L27.8803 15.2592H28.0492L28.1055 16.0473C28.3435 15.4281 28.9346 15.0903 29.738 15.0903C30.5953 15.0903 31.1582 15.5125 31.4115 16.2725C31.6213 15.5407 32.2841 15.0903 33.1285 15.0903C34.239 15.0903 34.9427 15.8222 34.9427 17.2423V21.774ZM32.3122 31.0907C32.3122 32.3138 31.5241 33.3271 29.6255 33.3271C29.1342 33.3271 28.4714 33.2708 27.4453 33.0866V30.4715H28.0211L28.2027 31.0344C28.6531 32.4699 29.0881 33.0047 29.779 33.0047C30.4264 33.0047 30.8486 32.539 30.8486 31.8225C30.8486 31.2314 30.5517 30.8246 29.8506 30.4433L28.6403 29.7959C27.8675 29.3737 27.4453 28.7135 27.4453 27.8973C27.4453 26.6179 28.4458 25.8425 30.104 25.8425C30.5825 25.8425 31.2017 25.9116 31.8772 26.0524V28.1071H31.3015L31.0047 27.3599C30.6669 26.4592 30.3445 26.165 29.8097 26.165C29.234 26.165 28.8962 26.5027 28.8962 27.0657C28.8962 27.5442 29.1777 27.8666 29.866 28.2606L31.061 28.9362C31.8747 29.4019 32.3122 30.0621 32.3122 31.0907ZM41.4165 21.774L41.698 22.1962V22.406H39.546L39.4488 21.5898C39.2236 22.209 38.6325 22.5749 37.8726 22.5749C36.7467 22.5749 36.043 21.8712 36.043 20.7172C36.043 19.5913 36.675 18.8467 38.6172 18.0867L39.4462 17.7643V16.7101C39.4462 15.7812 39.2774 15.4025 38.7579 15.4025C38.3357 15.4025 38.0977 15.6277 37.6883 16.6538L37.2252 17.8078H36.5906V15.5151C37.4222 15.2618 38.2513 15.0929 38.9677 15.0929C40.5568 15.0929 41.4165 15.8529 41.4165 17.2321V21.774ZM39.4462 20.5918V18.1584L39.1801 18.271C38.3511 18.6087 38.0414 19.3687 38.0414 20.4792C38.0414 21.3108 38.2385 21.7894 38.7016 21.7894C39.1648 21.7894 39.4462 21.339 39.4462 20.5918ZM48.6478 22.1962V22.406H46.1146V22.1962L46.396 21.774V16.7075C46.396 16.1011 46.2143 15.7377 45.7768 15.7377C45.2548 15.7377 44.8761 16.1753 44.8761 17.0325V21.774L45.1576 22.1962V22.406H42.6243V22.1962L42.9058 21.774V16.0473L42.6243 15.7096V15.4997L44.6509 15.2592H44.8198L44.8761 16.0473C45.1141 15.4281 45.6923 15.0903 46.5214 15.0903C47.6754 15.0903 48.3638 15.8222 48.3638 17.2423V21.774L48.6478 22.1962Z" fill="black"/>
</g>
</g>
<defs>
<clipPath id="clip0_2053_156">
<rect width="49" height="45" fill="white"/>
</clipPath>
<clipPath id="clip1_2053_156">
<rect width="49.1437" height="20.66" fill="white" transform="translate(0 12.6697)"/>
</clipPath>
</defs>
</svg>
