<svg width="66" height="45" viewBox="0 0 66 45" fill="none" xmlns="http://www.w3.org/2000/svg">
<g clip-path="url(#clip0_2053_145)">
<path fill-rule="evenodd" clip-rule="evenodd" d="M59.2844 14.2117H60.4514V19.6814C60.4514 23.2456 60.4864 25.1511 60.5681 25.1511C60.6265 25.1511 61.3383 24.5983 63.6023 22.6809L63.8941 22.9515C64.0575 23.0926 64.1858 23.2691 64.1858 23.3279C64.1858 23.3867 63.5206 23.9984 62.7154 24.6806C61.9102 25.3629 61.2216 25.951 61.1983 26.0098C61.175 26.0569 62.2369 26.4451 63.579 26.8685C64.9094 27.3038 66.0297 27.6684 66.0881 27.6919C66.1348 27.7155 66.0997 27.9272 66.0297 28.1507C65.948 28.3859 65.8197 28.5624 65.7613 28.5624C65.703 28.5624 64.4776 28.1624 60.4514 26.7979V28.2095L59.3427 28.1507L59.2844 14.2117ZM44.6967 22.2104H45.8637V23.1515C45.8637 23.9984 45.8871 24.0807 46.0738 24.0219C46.1788 23.9866 46.669 23.9278 47.1474 23.8808C47.801 23.8337 48.1627 23.869 48.5479 24.0101C48.8396 24.1043 49.2481 24.3866 49.4581 24.6101C49.6682 24.8453 49.8666 25.21 49.9016 25.4099C49.9483 25.6217 49.9366 25.951 49.9016 26.151C49.8549 26.351 49.6449 26.6803 49.4465 26.8921C49.2014 27.1391 48.8279 27.3508 48.3728 27.492C47.9877 27.6096 47.3575 27.7507 46.9724 27.786C46.4472 27.8448 46.2488 27.8331 46.1905 27.7155C46.1438 27.6331 46.0971 27.4214 46.0971 27.2449C46.0971 26.9273 46.1205 26.9156 47.0658 26.7862C47.6376 26.7156 48.2094 26.5627 48.4895 26.4098C48.7929 26.2451 48.968 26.0451 48.9913 25.8804C49.003 25.7393 48.9446 25.504 48.8513 25.3629C48.7579 25.21 48.5128 25.0218 48.3028 24.9277C48.011 24.7983 47.6959 24.7865 47.0891 24.8453C46.6456 24.8924 46.1788 24.9277 46.0738 24.9277C45.8754 24.9159 45.8637 25.2335 45.8054 34.6203H44.7551L44.6967 22.2104ZM23.107 15.0351H24.274V19.0933C24.274 22.9044 24.2856 23.1515 24.484 23.0809C24.5891 23.0338 24.9275 22.928 25.2076 22.8456C25.4993 22.7515 26.0478 22.6809 26.4329 22.6809C26.8181 22.6809 27.3432 22.7515 27.6 22.8221C27.8567 22.9044 28.2885 23.1867 28.5452 23.4455C28.8953 23.7984 29.0587 24.069 29.1521 24.5042C29.2338 24.9041 29.2454 25.2805 29.1638 25.6805C29.1054 25.9981 28.9304 26.4921 28.767 26.7627C28.6036 27.045 28.2418 27.4214 27.9501 27.6214C27.67 27.8213 27.1215 28.0566 26.7597 28.1507C26.3863 28.2448 25.8728 28.3271 25.616 28.3271C25.3593 28.3271 24.9508 28.2683 24.274 28.0919V29.1505H23.107V28.3859C23.107 27.7625 23.0719 27.6096 22.9086 27.5625C22.7919 27.5272 22.5468 27.3743 21.9983 26.9391L22.3251 26.5156C22.5585 26.2098 22.7102 26.1039 22.8736 26.151C23.0953 26.2098 23.107 26.151 23.107 25.504C23.107 25.0806 23.0369 24.6806 22.9319 24.5042C22.7802 24.2454 22.7802 24.1984 22.9319 24.1513C23.0836 24.1043 23.107 23.4808 23.107 19.5638V15.0351ZM24.7758 24.3395L24.274 24.6218V26.9156C25.441 27.1391 25.7911 27.1391 26.2579 27.045C26.6197 26.9744 27.0398 26.8215 27.1915 26.7038C27.3549 26.5745 27.6116 26.3039 27.7517 26.0804C27.9267 25.8099 28.0201 25.504 28.0201 25.1511C28.0201 24.7159 27.9501 24.563 27.6583 24.2689C27.3432 23.9631 27.2032 23.916 26.573 23.8925C26.1762 23.8808 25.7211 23.9043 25.5577 23.9631C25.406 24.0101 25.0442 24.1748 24.7758 24.3395V24.3395ZM38.3948 20.9165H39.5619V25.2688L42.4794 23.2691L42.7128 23.622C42.8412 23.8219 42.9462 23.9984 42.9462 24.0337C42.9462 24.069 42.351 24.516 41.6041 25.0335C40.8689 25.5511 40.2737 25.9981 40.2971 26.0216C40.3087 26.0569 41.2657 26.4333 42.421 26.8685C43.5764 27.292 44.545 27.6566 44.5683 27.6684C44.58 27.6684 44.545 27.8801 44.475 28.1272C44.37 28.5036 44.3116 28.5506 44.0899 28.48C43.9382 28.4448 42.8762 28.0566 39.6202 26.8332L39.5619 28.0919H38.3948V20.9165ZM39.7369 26.3274C39.838 26.1314 39.8536 25.9667 39.7836 25.8334C39.7252 25.7158 39.6552 25.6217 39.6202 25.6217C39.5969 25.6217 39.5619 25.8452 39.5735 26.1275C39.5735 26.6097 39.5735 26.6097 39.7369 26.3274ZM54.1495 23.2691V24.9159C54.1495 26.3039 54.1845 26.5627 54.3246 26.5627C54.4296 26.5627 54.558 26.6803 54.6397 26.8332C54.7447 27.045 54.733 27.1155 54.5463 27.2449C54.4296 27.3273 54.2896 27.3861 54.2429 27.3861C54.1962 27.3861 54.1495 27.5508 54.1495 27.739C54.1495 28.0683 54.1262 28.0919 53.6827 28.0919C53.3209 28.0919 53.2159 28.0448 53.2159 27.8919C53.2159 27.7155 53.0992 27.6802 52.4924 27.6566C52.0722 27.6449 51.5704 27.539 51.3137 27.4214C51.0686 27.3038 50.7652 27.0567 50.6368 26.8568C50.5201 26.6686 50.4151 26.2921 50.4034 26.0334C50.3917 25.7746 50.4384 25.3746 50.5084 25.1511C50.5785 24.9277 50.8585 24.5395 51.1153 24.3042C51.372 24.0572 51.7571 23.8219 51.9672 23.7867C52.1773 23.7514 52.539 23.7396 52.7841 23.7514C53.1692 23.7984 53.2159 23.7631 53.2159 23.5396C53.2159 23.3044 53.2859 23.2691 54.1495 23.2691V23.2691ZM51.302 25.1864C51.197 25.3629 51.1153 25.6805 51.1153 25.8922C51.1153 26.0922 51.2087 26.398 51.337 26.5627C51.5354 26.8215 51.6638 26.8568 52.3873 26.8921L53.2159 26.9156C53.2159 24.7983 53.1809 24.5512 53.0409 24.5042C52.9475 24.4689 52.7024 24.4454 52.4924 24.4454C52.2823 24.4454 51.9672 24.5395 51.7922 24.6571C51.6171 24.763 51.3954 24.9982 51.302 25.1864ZM33.3767 23.622V25.21C33.3767 26.5745 33.4 26.7862 33.5517 26.7391C33.6684 26.7038 33.7968 26.8097 33.9018 27.0332C34.0069 27.2332 34.0769 27.4331 34.0769 27.5037C34.0769 27.5743 33.9252 27.6684 33.7268 27.739C33.47 27.8331 33.3767 27.9272 33.3767 28.1507C33.3767 28.3977 33.33 28.4448 33.0266 28.4448C32.7932 28.4448 32.6765 28.3859 32.6765 28.2683C32.6765 28.1272 32.5131 28.0919 31.8946 28.0919C31.3928 28.0919 30.9376 28.0095 30.6342 27.8801C30.3775 27.7625 30.0507 27.5037 29.9106 27.3155C29.7589 27.1273 29.6189 26.7862 29.5839 26.5627C29.5372 26.3392 29.5722 25.9275 29.6422 25.657C29.7123 25.3629 29.9457 24.9512 30.2024 24.6689C30.5058 24.3395 30.8092 24.1395 31.2177 24.0219C31.5911 23.916 31.9646 23.8925 32.2447 23.9513C32.6181 24.0219 32.6881 23.9984 32.6881 23.8337C32.6765 23.6808 32.7698 23.622 33.3767 23.622V23.622ZM30.7742 25.4452C30.6809 25.5746 30.5758 25.8216 30.5408 26.0098C30.4942 26.1863 30.5175 26.4451 30.5758 26.598C30.6459 26.7391 30.8326 26.9273 30.9843 27.0097C31.1477 27.0803 31.5911 27.1508 31.9763 27.1508H32.6765C32.6765 25.2688 32.6531 25.1394 32.4431 25.0335C32.3147 24.9629 32.0463 24.9159 31.8362 24.9159C31.6262 24.9277 31.3344 24.9865 31.1944 25.0688C31.0543 25.1511 30.8559 25.3276 30.7742 25.4452ZM36.5276 23.916C36.8194 23.9396 37.0761 23.9866 37.1111 24.0219C37.1345 24.0454 37.0644 24.2925 36.9361 24.563C36.7377 24.9982 36.656 25.0688 36.2942 25.1041C36.0725 25.1159 35.7574 25.2335 35.594 25.3629C35.419 25.504 35.2906 25.7275 35.2789 25.951C35.2556 26.2333 35.3139 26.3627 35.5123 26.4686C35.6524 26.5509 36.2942 26.645 38.1031 26.7391V27.9154L37.1111 27.9037C36.5743 27.8919 35.8858 27.8213 35.594 27.739C35.3139 27.6566 34.9288 27.492 34.7538 27.3743C34.5787 27.2567 34.3453 26.9744 34.2403 26.7744C34.1352 26.5627 34.0419 26.1745 34.0419 25.9157C34.0419 25.657 34.1469 25.257 34.2869 25.0335C34.4153 24.81 34.7187 24.4924 34.9755 24.3395C35.2206 24.1748 35.559 24.0101 35.7107 23.9513C35.8741 23.9043 36.2475 23.8925 36.5276 23.916V23.916ZM57.5339 23.9396C57.7673 23.9631 57.954 24.0219 57.9773 24.0454C57.989 24.069 57.9073 24.3277 57.8023 24.6218C57.6272 25.0806 57.5455 25.1629 57.2771 25.1511C57.1021 25.1511 56.7986 25.2335 56.6003 25.3276C56.4135 25.4217 56.2268 25.6099 56.1918 25.7393C56.1685 25.8687 56.1685 26.0804 56.1918 26.2098C56.2268 26.351 56.4135 26.4921 56.6353 26.5627C56.8453 26.6333 57.4755 26.7274 59.051 26.8568V27.9742H58.3274C57.919 27.9742 57.3121 27.9272 56.9504 27.8566C56.6003 27.786 56.1335 27.6331 55.9 27.5155C55.6783 27.3979 55.3749 27.1273 55.2348 26.9038C55.0598 26.645 54.9664 26.3274 54.9664 26.0098C54.9664 25.7275 55.0248 25.3864 55.1065 25.2453C55.1765 25.0923 55.3399 24.8453 55.4799 24.7042C55.62 24.5512 55.8884 24.3395 56.0751 24.2336C56.2735 24.1395 56.5886 24.0101 56.7753 23.9631C56.9737 23.916 57.3121 23.9043 57.5339 23.9396V23.9396Z" fill="black"/>
<path d="M7.87728 29.3149L7.86561 19.6341C7.85394 13.141 7.88896 9.965 7.95898 10.0003C8.029 10.0121 11.2033 15.1054 15.0077 21.2927C20.0026 29.409 21.8815 32.5615 21.7414 32.5615C21.6247 32.5615 18.4621 31.8322 7.87728 29.3149Z" fill="#00AD00"/>
<path d="M3.23263 23.8807C5.00649 20.987 6.58196 18.4227 6.73367 18.1875C6.88538 17.9404 7.02542 17.7405 7.06043 17.7405C7.09544 17.7405 7.11878 19.9754 7.11878 27.6801L3.7111 28.4917C1.83221 28.9387 0.221733 29.3152 0.140042 29.3387C0.0700208 29.3622 0 29.3269 0 29.2563C0 29.1858 1.45877 26.7744 3.23263 23.8807Z" fill="#005400"/>
</g>
<defs>
<clipPath id="clip0_2053_145">
<rect width="66" height="45" fill="white"/>
</clipPath>
</defs>
</svg>
