<svg width="72" height="45" viewBox="0 0 72 45" fill="none" xmlns="http://www.w3.org/2000/svg">
<path d="M2.13137 24.1705H7.12325V26.0495H0V15H2.13137V24.1705ZM9.89964 22.6C9.70333 24.6472 11.9469 25.6849 13.0406 23.7218H15.0037C14.3306 27.003 8.13285 28.1247 7.90849 22.1793C7.76827 17.1594 13.265 16.1779 14.8074 20.076C15.0037 20.6369 15.1159 21.4221 15.1159 22.2074C15.1159 22.3196 15.1159 22.3757 15.0878 22.572H9.89964V22.6ZM13.0126 21.2258C12.7882 18.2531 9.75942 19.1225 9.92768 21.2258H13.0126ZM23.1085 26.0214H20.9491C20.7528 25.7971 20.7247 25.6288 20.7247 25.1801C20.0236 26.3299 16.2937 27.5638 16.0413 23.89C16.0413 22.4317 17.0509 21.4221 18.3129 21.31C20.8369 21.0295 20.8089 20.6089 20.6686 19.8236C20.3602 19.2347 18.2008 19.0103 18.1447 20.4967H16.2096C16.3498 16.5144 22.8 16.8229 22.6598 20.1602V24.7033C22.6598 25.124 22.772 25.3483 23.1085 25.7129V26.0214ZM20.6967 22.1793C20.4723 22.2915 19.1543 22.572 19.1543 22.572C18.3129 22.7402 18.0044 23.217 18.0044 23.862C18.4812 25.4886 20.9491 24.4229 20.6686 22.7683V22.2074H20.6967V22.1793ZM26.4738 17.8605V19.459C26.9225 18.3653 27.8199 17.552 28.8576 17.7203V19.8517C27.1188 19.5432 26.4738 20.4126 26.4738 21.6745V26.0214H24.4827V17.8605H26.4738ZM31.9705 17.8605V19.0384C32.7277 17.2435 36.8783 16.879 36.8783 20.5528V26.0214H34.8871V20.9734C35.0554 18.7299 31.8583 19.2347 31.9986 21.1137V26.0214H30.0074V17.8605H31.9705ZM43.6089 25.2081C43.1041 26.0495 42.4591 26.386 41.4775 26.386C37.1307 26.386 37.2148 17.6923 41.4775 17.6923C42.4591 17.6923 43.1041 18.0849 43.6089 18.8701V15H45.6V26.0214H43.6089V25.2081ZM41.9262 24.5912C44.1137 24.5912 44.2259 19.4871 41.9262 19.4871C39.6546 19.4871 39.6546 24.5912 41.9262 24.5912ZM50.8724 26.386C45.5159 26.386 45.9366 17.4959 50.8443 17.6923C55.7521 17.2996 56.2008 26.7225 50.8724 26.386ZM50.8724 24.6753C53.3403 24.6753 53.2561 19.431 50.8724 19.431C48.6288 19.2908 48.2082 24.5912 50.8724 24.6753ZM63.4643 26.386C58.1078 26.386 58.5285 17.4959 63.4362 17.6923C68.372 17.2996 68.7927 26.7225 63.4643 26.386ZM63.4643 24.6753C65.9322 24.6753 65.848 19.431 63.4643 19.431C61.2488 19.2908 60.8281 24.5912 63.4643 24.6753Z" fill="#2ECE82"/>
<path d="M58.1919 27.1993C58.3322 29.583 55.6399 28.9661 55.2473 28.938V27.3115C55.3875 27.3675 56.2569 27.5919 56.2008 26.7786V17.9727H58.1919V27.1993ZM58.1919 17.0192H56.2008V15.2244H58.1919V17.0192Z" fill="#2ECE82"/>
</svg>
