<svg width="77" height="45" viewBox="0 0 77 45" fill="none" xmlns="http://www.w3.org/2000/svg">
<g clip-path="url(#clip0_2074_146)">
<path d="M71.9891 21.5629L69.6018 26.0961L67.2146 21.5629H71.9891ZM64.7334 16.8468H74.4715L72.9588 19.7222V19.7161H66.2468V19.7222L64.7334 16.8468ZM61.7066 15L69.6031 30L77.4995 15H61.7066Z" fill="black"/>
<path d="M19.8127 16.7829H17.8125V28.3453H19.8127V16.7829Z" fill="black"/>
<path d="M43.9451 26.6615V23.1477H48.5014V21.4624H43.9451V18.4667H49.2469V16.7829H41.9449V28.3453H49.3589V26.6615H43.9451Z" fill="black"/>
<path d="M36.08 16.7829H33.5807L29.0169 21.5279V16.7829H27.0167V28.3453H29.0169V23.6368L33.9557 28.3453H36.7059L30.5795 22.5031L36.08 16.7829Z" fill="black"/>
<path d="M6.15321 20.5434L8.31186 24.6668H3.99459L6.15321 20.5434ZM0 28.3452H2.07049L3.02507 26.5227H9.28433L10.2389 28.3452H12.3095L6.15321 16.6548L0 28.3452Z" fill="black"/>
<path d="M10.4363 16.6548C9.81638 16.6548 9.31446 17.1668 9.31446 17.7991C9.31446 18.4315 9.81638 18.9435 10.4363 18.9435C11.0563 18.9435 11.5582 18.4315 11.5582 17.7991C11.5582 17.1668 11.0563 16.6548 10.4363 16.6548Z" fill="black"/>
<path d="M1.87158 18.945C2.49153 18.945 2.99347 18.433 2.99347 17.8006C2.99347 17.1682 2.49153 16.6563 1.87158 16.6563C1.25162 16.6563 0.749686 17.1682 0.749686 17.8006C0.749686 18.433 1.25162 18.945 1.87158 18.945Z" fill="black"/>
</g>
<defs>
<clipPath id="clip0_2074_146">
<rect width="77" height="45" fill="white"/>
</clipPath>
</defs>
</svg>
