<svg width="57" height="45" viewBox="0 0 57 45" fill="none" xmlns="http://www.w3.org/2000/svg">
<g clip-path="url(#clip0_2108_146)">
<g clip-path="url(#clip1_2108_146)">
<path d="M11.5625 19.3083C11.5625 21.217 13.1098 22.7643 15.0185 22.7643C13.1098 22.7643 11.5625 24.3116 11.5625 26.2202C11.5625 24.3116 10.0152 22.7643 8.10657 22.7643C10.0152 22.7643 11.5625 21.217 11.5625 19.3083Z" fill="#00E8F5"/>
<path d="M11.5198 11.2017C9.24144 11.2017 7.01419 11.8773 5.11976 13.1431C3.22533 14.4089 1.74881 16.2081 0.876896 18.313C0.0049862 20.418 -0.223145 22.7343 0.221351 24.9689C0.665846 27.2035 1.76301 29.2562 3.37408 30.8672L5.00358 29.2377C3.71478 27.9489 2.8371 26.3069 2.48152 24.5193C2.12594 22.7317 2.30844 20.8788 3.00593 19.1949C3.70342 17.511 4.88458 16.0718 6.40005 15.0592C7.91551 14.0466 9.69721 13.5061 11.5198 13.5061L11.5198 11.2017Z" fill="url(#paint0_linear_2108_146)"/>
<path d="M11.5198 34.2413C13.7983 34.2413 16.0255 33.5657 17.9199 32.2999C19.8144 31.0341 21.2909 29.2349 22.1628 27.1299C23.0347 25.025 23.2628 22.7087 22.8183 20.4741C22.3738 18.2395 21.2767 16.1868 19.6656 14.5757L18.0361 16.2052C19.3249 17.494 20.2026 19.136 20.5582 20.9237C20.9138 22.7113 20.7313 24.5642 20.0338 26.2481C19.3363 27.9319 18.1551 29.3712 16.6396 30.3838C15.1242 31.3964 13.3425 31.9369 11.5198 31.9369L11.5198 34.2413Z" fill="url(#paint1_linear_2108_146)"/>
<path d="M2.59235 20.4345C3.19889 18.0668 4.72118 16.0369 6.82432 14.7916C8.92746 13.5462 11.4392 13.1873 13.8069 13.7939C16.1747 14.4004 18.2045 15.9227 19.4499 18.0258C20.6952 20.129 21.0541 22.6407 20.4476 25.0084L18.2162 24.4368C18.6712 22.6609 18.402 20.7769 17.4679 19.1995C16.5338 17.622 15.0113 16.4802 13.2353 16.0252C11.4594 15.5703 9.57543 15.8395 7.99794 16.7736C6.42045 17.7077 5.27865 19.2302 4.8237 21.0061L2.59235 20.4345Z" fill="url(#paint2_linear_2108_146)"/>
<path d="M20.4054 25.1673C19.7595 27.5137 18.2117 29.5094 16.0998 30.7188C13.9878 31.9282 11.4833 32.2532 9.13265 31.6228C6.78202 30.9923 4.77619 29.4577 3.5529 27.3538C2.32961 25.2499 1.98819 22.7475 2.60314 20.3928L4.83179 20.9748C4.37054 22.741 4.62663 24.6179 5.54418 26.196C6.46172 27.7741 7.96621 28.9251 9.72933 29.398C11.4924 29.8708 13.371 29.6271 14.9551 28.72C16.5391 27.8128 17.7001 26.316 18.1845 24.556L20.4054 25.1673Z" fill="url(#paint3_linear_2108_146)"/>
<path d="M11.5198 29.6336C14.0724 29.6336 16.5528 28.7858 18.5713 27.2234C20.5898 25.6609 22.0322 23.4722 22.672 21.0011L20.4411 20.4235C19.9293 22.4003 18.7754 24.1512 17.1607 25.4011C15.546 26.651 13.5618 27.3292 11.5198 27.3292L11.5198 29.6336Z" fill="#00A6BC"/>
<path d="M11.5199 15.8095C8.96735 15.8095 6.48704 16.6573 4.46851 18.2198C2.44999 19.7822 1.00758 21.9709 0.367804 24.442L2.5987 25.0196C3.11049 23.0428 4.26436 21.292 5.87909 20.042C7.49383 18.7921 9.47797 18.1139 11.5199 18.1139L11.5199 15.8095Z" fill="#00A6BC"/>
</g>
<path d="M54.6803 27.4524C53.8594 27.4524 53.1854 27.2738 52.658 26.9165C52.1349 26.555 51.8138 26.0511 51.6947 25.4046L52.8558 25.2196C52.9493 25.5939 53.1641 25.8916 53.5001 26.1127C53.8361 26.3296 54.2528 26.4381 54.7504 26.4381C55.2225 26.4381 55.5925 26.3403 55.8604 26.1446C56.1284 25.949 56.2624 25.6832 56.2624 25.3472C56.2624 25.1516 56.2177 24.9942 56.1284 24.8751C56.0391 24.7518 55.8541 24.637 55.5734 24.5306C55.2969 24.4243 54.878 24.2967 54.3166 24.1479C53.7085 23.9863 53.23 23.8183 52.8813 23.6439C52.5325 23.4695 52.2837 23.2675 52.1349 23.0379C51.986 22.8082 51.9116 22.5296 51.9116 22.2022C51.9116 21.7981 52.0222 21.4451 52.2433 21.1432C52.4645 20.837 52.7728 20.6009 53.1683 20.4351C53.5681 20.2692 54.0317 20.1863 54.5591 20.1863C55.0822 20.1863 55.55 20.2692 55.9625 20.4351C56.3751 20.6009 56.7068 20.837 56.9577 21.1432C57.2129 21.4451 57.3639 21.7981 57.4106 22.2022L56.2496 22.4127C56.1943 22.0427 56.0157 21.7514 55.7137 21.5387C55.416 21.3261 55.0311 21.2134 54.5591 21.2006C54.1125 21.1836 53.7489 21.2623 53.4682 21.4366C53.1917 21.611 53.0535 21.847 53.0535 22.1447C53.0535 22.3106 53.1045 22.4531 53.2066 22.5722C53.3129 22.6913 53.5065 22.804 53.7871 22.9103C54.0721 23.0166 54.4846 23.1378 55.0247 23.2739C55.6329 23.427 56.1114 23.595 56.4601 23.7779C56.8131 23.9565 57.064 24.1691 57.2129 24.4158C57.3617 24.6582 57.4362 24.9581 57.4362 25.3153C57.4362 25.9788 57.1916 26.5019 56.7025 26.8846C56.2134 27.2631 55.5394 27.4524 54.6803 27.4524Z" fill="black"/>
<path d="M47.4902 27.446C47.0479 27.446 46.6673 27.3759 46.3483 27.2355C46.0336 27.0952 45.772 26.908 45.5636 26.6741C45.3552 26.4402 45.1915 26.1808 45.0724 25.8959C44.9533 25.6109 44.8683 25.3196 44.8172 25.0219C44.7705 24.7242 44.7471 24.4456 44.7471 24.1862V20.3777H45.8954V23.8289C45.8954 24.1522 45.9251 24.4647 45.9847 24.7667C46.0442 25.0687 46.1442 25.3408 46.2845 25.5833C46.4291 25.8257 46.6205 26.0171 46.8586 26.1574C47.1011 26.2978 47.403 26.3679 47.7645 26.3679C48.0495 26.3679 48.3089 26.319 48.5428 26.2212C48.7767 26.1234 48.9766 25.9788 49.1425 25.7874C49.3083 25.5918 49.4359 25.3451 49.5252 25.0474C49.6145 24.7497 49.6592 24.4031 49.6592 24.0076L50.4056 24.2372C50.4056 24.9007 50.2844 25.4727 50.042 25.9533C49.8038 26.4338 49.4657 26.8039 49.0276 27.0633C48.5938 27.3185 48.0814 27.446 47.4902 27.446ZM49.7868 27.2674V25.4238H49.6592V20.3777H50.8011V27.2674H49.7868Z" fill="black"/>
<path d="M40.1668 27.4588C39.6522 27.4588 39.2205 27.3652 38.8718 27.1781C38.5273 26.9867 38.2657 26.7358 38.0871 26.4253C37.9127 26.1149 37.8256 25.7746 37.8256 25.4046C37.8256 25.0431 37.8936 24.7305 38.0297 24.4668C38.17 24.1989 38.3657 23.9778 38.6166 23.8034C38.8675 23.6248 39.1674 23.4844 39.5161 23.3823C39.8436 23.293 40.2093 23.2165 40.6134 23.1527C41.0216 23.0846 41.4342 23.023 41.851 22.9677C42.2677 22.9124 42.6569 22.8592 43.0184 22.8082L42.6101 23.0442C42.6229 22.4318 42.4995 21.9789 42.2401 21.6854C41.9849 21.392 41.5426 21.2453 40.9132 21.2453C40.4964 21.2453 40.1307 21.3409 39.8159 21.5323C39.5055 21.7195 39.2864 22.0257 39.1589 22.451L38.0807 22.1256C38.2466 21.5217 38.5677 21.0475 39.044 20.703C39.5204 20.3585 40.1477 20.1863 40.9259 20.1863C41.5511 20.1863 42.087 20.299 42.5336 20.5244C42.9844 20.7455 43.3076 21.0815 43.5032 21.5323C43.601 21.745 43.6627 21.9768 43.6882 22.2277C43.7137 22.4744 43.7265 22.7338 43.7265 23.006V27.2674H42.7186V25.6151L42.9546 25.7682C42.6952 26.3254 42.3315 26.7464 41.8637 27.0314C41.4001 27.3163 40.8345 27.4588 40.1668 27.4588ZM40.339 26.5082C40.7473 26.5082 41.1003 26.4359 41.398 26.2913C41.7 26.1425 41.9424 25.949 42.1253 25.7108C42.3082 25.4684 42.4272 25.2047 42.4825 24.9198C42.5463 24.7071 42.5803 24.4711 42.5846 24.2117C42.5931 23.948 42.5973 23.746 42.5973 23.6056L42.9929 23.7779C42.6229 23.8289 42.2592 23.8778 41.902 23.9246C41.5447 23.9714 41.2066 24.0224 40.8877 24.0777C40.5687 24.1287 40.2816 24.1904 40.0265 24.2627C39.8393 24.3222 39.6628 24.3988 39.497 24.4924C39.3354 24.5859 39.2035 24.7071 39.1014 24.856C39.0036 25.0006 38.9547 25.1813 38.9547 25.3982C38.9547 25.5854 39.0015 25.764 39.0951 25.9341C39.1929 26.1042 39.3417 26.2424 39.5416 26.3488C39.7458 26.4551 40.0116 26.5082 40.339 26.5082Z" fill="black"/>
<path d="M34.1827 27.2671V20.3774H35.1971V22.0424L35.0312 21.8255C35.112 21.6129 35.2162 21.4172 35.3438 21.2386C35.4756 21.06 35.6224 20.9133 35.784 20.7984C35.9626 20.6538 36.1646 20.5433 36.39 20.4667C36.6154 20.3901 36.8451 20.3455 37.079 20.3327C37.3129 20.3157 37.5319 20.3306 37.7361 20.3774V21.4427C37.4979 21.379 37.2363 21.3619 36.9514 21.3917C36.6665 21.4215 36.4028 21.5257 36.1604 21.7043C35.9392 21.8617 35.767 22.053 35.6436 22.2784C35.5245 22.5038 35.4416 22.7484 35.3948 23.0121C35.348 23.2715 35.3247 23.5373 35.3247 23.8095V27.2671H34.1827Z" fill="black"/>
<path d="M28.1896 27.2671V18.0808H33.5483V19.2163H29.3251V22.1062H32.7827V23.2417H29.3251V27.2671H28.1896Z" fill="black"/>
</g>
<defs>
<linearGradient id="paint0_linear_2108_146" x1="2.59197" y1="25.0254" x2="11.5198" y2="11.2016" gradientUnits="userSpaceOnUse">
<stop stop-color="#00A6BC"/>
<stop offset="1" stop-color="#005D6E"/>
</linearGradient>
<linearGradient id="paint1_linear_2108_146" x1="20.4477" y1="20.4175" x2="11.5199" y2="34.2413" gradientUnits="userSpaceOnUse">
<stop stop-color="#00A6BC"/>
<stop offset="1" stop-color="#005D6E"/>
</linearGradient>
<linearGradient id="paint2_linear_2108_146" x1="11.52" y1="13.5056" x2="18.2185" y2="24.4281" gradientUnits="userSpaceOnUse">
<stop stop-color="#00F5DD"/>
<stop offset="1" stop-color="#005D6E"/>
</linearGradient>
<linearGradient id="paint3_linear_2108_146" x1="11.52" y1="31.9373" x2="4.8214" y2="20.9722" gradientUnits="userSpaceOnUse">
<stop stop-color="#00F5DD"/>
<stop offset="1" stop-color="#005D6E"/>
</linearGradient>
<clipPath id="clip0_2108_146">
<rect width="57" height="45" fill="white"/>
</clipPath>
<clipPath id="clip1_2108_146">
<rect width="23.5" height="23.5" fill="white" transform="translate(0 11)"/>
</clipPath>
</defs>
</svg>
