<svg width="26" height="45" viewBox="0 0 26 45" fill="none" xmlns="http://www.w3.org/2000/svg">
<g clip-path="url(#clip0_2136_154)">
<path d="M24.6984 21.6865C24.4491 21.6865 24.2535 21.8613 24.2535 22.0839C24.2535 22.3107 24.4577 22.4949 24.7085 22.4949C24.9537 22.4949 25.1533 22.3107 25.1533 22.0839C25.1533 21.8613 24.9533 21.6865 24.6984 21.6865Z" fill="#111111"/>
<path d="M13.991 30H0V16H13.991V30Z" fill="#AD1519"/>
<path d="M4.15733 20.2228V18.9355H1.23389V27.0649H2.67123V23.579H4.06688V22.2712H2.67123V20.2228H4.15733Z" fill="white"/>
<path d="M7.95671 18.9355L6.82006 21.7277L5.70224 18.9355H4.55408V27.0649H5.96109V24.4308L6.46371 26.3416H7.1331L7.66667 24.3603V27.0649H9.07389V18.9355H7.95671Z" fill="white"/>
<path d="M12.7562 21.3238V19.805C12.7562 19.2932 12.4155 18.9355 11.9274 18.9355H10.301C9.844 18.9355 9.47205 19.3168 9.47205 19.7854V21.4227C9.47205 21.6761 9.58916 21.8784 9.70352 22.0552L11.2996 24.3377V25.7777H10.9088V24.4045H9.47205V26.2053C9.47205 26.764 9.89886 27.0649 10.301 27.0649H11.9274C12.3999 27.0649 12.7562 26.6913 12.7562 26.1953V24.196C12.7562 23.897 12.592 23.6388 12.4537 23.4217L10.9292 21.2703V20.2228H11.3194V21.3238H12.7562Z" fill="white"/>
<path d="M11.8405 21.6071H12.1958V21.6985H12.0763V22.0691H11.9606V21.6985H11.8405V21.6071Z" fill="white"/>
<path d="M12.7571 21.6077V22.0691H12.6467L12.654 21.7403L12.6553 21.694L12.6513 21.7103C12.6454 21.7364 12.6447 21.7397 12.6396 21.7593L12.5527 22.0691H12.4534L12.3698 21.7724L12.3495 21.69C12.3516 21.7267 12.3516 21.7344 12.3535 21.7782L12.3594 22.0691H12.2477V21.6077H12.4161L12.4867 21.8665L12.503 21.9404C12.5096 21.9083 12.5102 21.9051 12.5154 21.8834L12.5893 21.6077H12.7571Z" fill="white"/>
<path d="M15.0976 16.8586V18.6724H15.6939V16.9727C15.9185 16.8034 16.0796 16.7338 16.2415 16.7338C16.3566 16.7338 16.4007 16.7629 16.4261 16.788C16.4574 16.8227 16.4705 16.884 16.4705 17.0002V18.6724H17.0873V17.007C17.3145 16.828 17.4727 16.7205 17.6605 16.7205C17.8196 16.7205 17.8844 16.7838 17.8844 16.9383V18.6724H18.5064V16.9028C18.5064 16.4955 18.1917 16.2 17.7583 16.2C17.5046 16.2 17.2159 16.3138 16.9664 16.5088C16.8347 16.3198 16.5985 16.2 16.3392 16.2C16.1135 16.2 15.8578 16.3091 15.6676 16.4418C15.639 16.3459 15.6008 16.2722 15.5941 16.2599L15.5568 16.1907L14.9459 16.3166L15.0199 16.4436C15.021 16.4449 15.0976 16.5797 15.0976 16.8586Z" fill="#111111"/>
<path d="M19.5512 16.8729C19.6174 16.7623 19.7963 16.6851 19.9857 16.6851C20.1432 16.6851 20.3451 16.7452 20.4387 16.9147C20.5102 17.0415 20.5435 17.2359 20.5435 17.5269C20.5435 17.7289 20.5262 17.8394 20.4742 17.9648C20.4036 18.1368 20.2409 18.2315 20.0166 18.2315C19.831 18.2315 19.6568 18.1607 19.5827 18.0545C19.498 17.9351 19.4428 17.6759 19.4428 17.3941C19.4428 17.1619 19.4774 16.9963 19.5512 16.8729ZM20.0061 18.73C20.7498 18.73 21.2117 18.2588 21.2117 17.5004C21.2117 17.1182 21.1291 16.8369 20.952 16.6153C20.7283 16.3377 20.3957 16.191 19.9907 16.191C19.2534 16.191 18.7954 16.674 18.7954 17.4517C18.7954 18.2522 19.2478 18.73 20.0061 18.73Z" fill="#111111"/>
<path d="M22.7664 18.6943L23.819 16.2564H23.1605L22.5482 17.7875C22.5372 17.8143 22.5269 17.8405 22.5173 17.8658C22.5077 17.839 22.4974 17.8118 22.4866 17.7847L21.8869 16.2564H21.214L22.231 18.6943H22.7664Z" fill="#111111"/>
<path d="M24.9429 16.6807C25.105 16.6807 25.2534 16.7403 25.3204 16.8322C25.373 16.9045 25.4023 17.0045 25.4137 17.1561H24.466C24.5072 16.8364 24.6639 16.6807 24.9429 16.6807ZM26.056 17.4718C26.0463 16.9674 25.9963 16.7023 25.7273 16.4655C25.5314 16.2919 25.2674 16.2 24.9634 16.2C24.6216 16.2 24.3464 16.3102 24.1222 16.5371C23.8848 16.7804 23.7834 17.0513 23.7834 17.4429C23.7834 18.2314 24.2593 18.7212 25.0252 18.7212C25.3795 18.7212 25.7093 18.6157 25.9539 18.4246L26.0324 18.3631L25.7573 17.9682L25.6697 18.0373C25.5091 18.1639 25.3301 18.2228 25.1076 18.2228C24.9336 18.2228 24.6966 18.1832 24.5539 17.9944C24.4928 17.9142 24.4625 17.7999 24.4578 17.6279H26.056V17.4718Z" fill="#111111"/>
<path d="M16.1964 22.45L16.7007 20.9127L17.2057 22.45H17.7541L18.5481 20.0161H17.9009L17.4821 21.5459L17.0154 20.0161H16.4233L15.9526 21.5062C15.9515 21.5016 15.9501 21.4971 15.9488 21.4926L15.5359 20.0161H14.8859L15.6677 22.45H16.1964Z" fill="#111111"/>
<path d="M19.7956 20.4402C19.9577 20.4402 20.1063 20.5 20.1731 20.5917C20.2259 20.6642 20.2551 20.7641 20.2664 20.9157H19.3188C19.3601 20.596 19.5166 20.4402 19.7956 20.4402ZM19.8779 22.481C20.2321 22.481 20.562 22.3754 20.8067 22.1841L20.8853 22.1227L20.6101 21.728L20.5224 21.797C20.3615 21.9234 20.1831 21.9826 19.9602 21.9826C19.7864 21.9826 19.5494 21.9429 19.4065 21.7541C19.3454 21.6737 19.3154 21.5595 19.3105 21.3875H20.9088V21.2315C20.8991 20.727 20.849 20.4619 20.5801 20.225C20.3841 20.0514 20.1202 19.9597 19.8161 19.9597C19.474 19.9597 19.1992 20.0699 18.9747 20.2968C18.7377 20.54 18.6362 20.8109 18.6362 21.2026C18.6362 21.9909 19.112 22.481 19.8779 22.481Z" fill="#111111"/>
<path d="M21.9075 19.33L21.8778 19.2473L21.2646 19.3493L21.3088 19.4689C21.3091 19.4703 21.364 19.622 21.364 19.8835V21.9639C21.364 22.1508 21.4163 22.2776 21.5268 22.3603C21.6226 22.4371 21.7469 22.4766 21.896 22.4766C22.0171 22.4766 22.075 22.4655 22.1911 22.4204L22.2874 22.3833L22.1373 21.9718L22.0457 21.9942C22.0444 21.9944 22.0268 21.9991 22.0191 22C22.0029 22 21.9943 21.9987 21.9917 21.9991C21.9882 21.9908 21.9806 21.9634 21.9806 21.8842V19.8878C21.9806 19.537 21.9106 19.3382 21.9075 19.33Z" fill="#111111"/>
<path d="M23.4334 21.9942C23.4323 21.9944 23.4144 21.9991 23.4069 22C23.3907 22 23.3823 21.9987 23.3795 21.9991C23.3759 21.9908 23.3683 21.9634 23.3683 21.8842V19.8878C23.3683 19.537 23.2982 19.3382 23.2951 19.33L23.2653 19.2473L22.6523 19.3493L22.6965 19.4689C22.697 19.4703 22.7516 19.622 22.7516 19.8835V21.9639C22.7516 22.1508 22.804 22.2776 22.9144 22.3603C23.0102 22.4371 23.1344 22.4766 23.2836 22.4766C23.4048 22.4766 23.4628 22.4655 23.5789 22.4204L23.6751 22.3833L23.5249 21.9718L23.4334 21.9942Z" fill="#111111"/>
<path d="M18.5064 26.0635V24.294C18.5064 23.8866 18.1917 23.5912 17.7583 23.5912C17.5046 23.5912 17.2159 23.7051 16.9664 23.9C16.8347 23.7105 16.5985 23.5912 16.3392 23.5912C16.1135 23.5912 15.8578 23.7001 15.6676 23.8327C15.639 23.7368 15.6008 23.6632 15.5941 23.6509L15.5568 23.582L14.9459 23.7078L15.0199 23.8348C15.021 23.8362 15.0976 23.971 15.0976 24.2494V26.0635H15.6939V24.3638C15.9185 24.1943 16.0796 24.1249 16.2415 24.1249C16.3566 24.1249 16.4007 24.1539 16.4261 24.179C16.4574 24.2136 16.4705 24.2751 16.4705 24.3915V26.0635H17.0873V24.3981C17.3145 24.219 17.4727 24.1115 17.6605 24.1115C17.8196 24.1115 17.8844 24.1746 17.8844 24.3292V26.0635H18.5064Z" fill="#AD1519"/>
<path d="M19.5512 24.264C19.6174 24.1537 19.7963 24.0764 19.9857 24.0764C20.1432 24.0764 20.3451 24.1364 20.4387 24.3061C20.5102 24.4326 20.5435 24.6272 20.5435 24.9181C20.5435 25.1202 20.5262 25.2307 20.4742 25.3561C20.4036 25.5281 20.2409 25.6227 20.0166 25.6227C19.831 25.6227 19.6568 25.5522 19.5827 25.4458C19.498 25.3264 19.4428 25.0672 19.4428 24.7854C19.4428 24.5533 19.4774 24.3878 19.5512 24.264ZM19.9907 23.5823C19.2534 23.5823 18.7954 24.0655 18.7954 24.8428C18.7954 25.6434 19.2478 26.1213 20.0061 26.1213C20.7498 26.1213 21.2117 25.65 21.2117 24.8917C21.2117 24.5096 21.1291 24.2284 20.952 24.0066C20.7283 23.7289 20.3957 23.5823 19.9907 23.5823Z" fill="#AD1519"/>
<path d="M22.7152 26.0857L23.7675 23.6494H23.1092L22.4969 25.1786C22.486 25.2056 22.4757 25.2317 22.4659 25.2571C22.4565 25.2306 22.446 25.2032 22.4354 25.1762L21.8366 23.6494H21.168L22.1796 26.0857H22.7152Z" fill="#AD1519"/>
<path d="M24.8915 24.0718C25.0536 24.0718 25.2019 24.1315 25.2691 24.223C25.3217 24.2959 25.3508 24.3958 25.3622 24.547H24.4148C24.4559 24.2275 24.6126 24.0718 24.8915 24.0718ZM25.6759 23.8568C25.48 23.683 25.2159 23.5914 24.912 23.5914C24.5701 23.5914 24.2949 23.7014 24.0706 23.9281C23.8334 24.1717 23.7322 24.4424 23.7322 24.8341C23.7322 25.6226 24.2079 26.1123 24.9739 26.1123C25.3281 26.1123 25.6579 26.0069 25.9024 25.8157L25.9809 25.7544L25.7057 25.3595L25.6183 25.4284C25.4573 25.5548 25.2786 25.614 25.0561 25.614C24.8822 25.614 24.645 25.5743 24.5027 25.3855C24.4416 25.3053 24.4111 25.191 24.4062 25.0191H26.0045V24.863C25.9945 24.3583 25.945 24.0937 25.6759 23.8568Z" fill="#AD1519"/>
<path d="M15.6791 28.102C15.7452 27.9912 15.9239 27.9141 16.1135 27.9141C16.2709 27.9141 16.4724 27.9743 16.5665 28.1438C16.638 28.2705 16.6712 28.4653 16.6712 28.7562C16.6712 28.9582 16.6537 29.0686 16.6019 29.1939C16.5311 29.366 16.3684 29.4607 16.1441 29.4607C15.9585 29.4607 15.7846 29.3897 15.7104 29.2834C15.6256 29.1644 15.5705 28.9051 15.5705 28.6233C15.5705 28.3909 15.6049 28.2254 15.6791 28.102ZM16.1183 27.42C15.3812 27.42 14.923 27.9032 14.923 28.681C14.923 29.4812 15.3757 29.959 16.1338 29.959C16.8775 29.959 17.3393 29.488 17.3393 28.7296C17.3393 28.3473 17.2567 28.0661 17.0793 27.8446C16.8558 27.5669 16.5234 27.42 16.1183 27.42Z" fill="#AD1519"/>
<path d="M18.3437 27.2511C18.3437 26.9965 18.4831 26.967 18.5882 26.967C18.7245 26.967 18.8666 27.0306 18.9215 27.0576L19.0079 27.101L19.2644 26.6817L19.1694 26.6283C19.0049 26.5354 18.7913 26.4866 18.5519 26.4866C18.3408 26.4866 18.1834 26.527 18.0417 26.6185C17.9601 26.6721 17.7115 26.8351 17.7115 27.2468V27.4868H17.4646V27.9583H17.7115V29.9016H18.3437V27.9583H18.8675L19.0907 27.4868H18.3437V27.2511Z" fill="#AD1519"/>
<path d="M20.6621 29.4601C20.6095 29.4823 20.5582 29.4955 20.4516 29.4955C20.2612 29.4955 20.2279 29.4626 20.2279 29.2737V27.958H20.724L20.9472 27.4865H20.2454C20.255 27.2332 20.2931 26.9732 20.2937 26.9698L20.3155 26.8235L19.6725 26.9447L19.6634 27.0215C19.6619 27.0337 19.6326 27.2798 19.6238 27.4865H19.4059L19.187 27.958H19.6213V29.3663C19.6213 29.5408 19.6537 29.7852 19.9338 29.9026C20.0505 29.9501 20.1693 29.9722 20.3075 29.9722C20.4943 29.9722 20.6561 29.9403 20.8033 29.8743L20.8842 29.8381L20.7752 29.4116L20.6621 29.4601Z" fill="#AD1519"/>
<path d="M22.0819 27.9099C22.244 27.9099 22.3921 27.9694 22.4595 28.0611C22.5119 28.1337 22.541 28.2335 22.5524 28.3851H21.605C21.6461 28.0656 21.8028 27.9099 22.0819 27.9099ZM22.8665 27.6945C22.6703 27.5209 22.4062 27.4292 22.1024 27.4292C21.7605 27.4292 21.4852 27.5394 21.2609 27.7662C21.0237 28.0096 20.9224 28.2804 20.9224 28.6719C20.9224 29.4605 21.3983 29.9504 22.164 29.9504C22.5185 29.9504 22.848 29.8449 23.0926 29.6538L23.1712 29.5921L22.896 29.1977L22.8086 29.2665C22.6477 29.3929 22.4691 29.4521 22.2463 29.4521C22.0726 29.4521 21.8354 29.4125 21.6925 29.2235C21.6318 29.1432 21.6015 29.0291 21.5966 28.857H23.1949V28.7009C23.185 28.1965 23.1352 27.9316 22.8665 27.6945Z" fill="#AD1519"/>
<path d="M24.8504 27.438C24.6031 27.438 24.3585 27.5222 24.1212 27.6894C24.0908 27.5742 24.0453 27.4921 24.0423 27.4871L24.0034 27.418L23.3942 27.5638L23.4709 27.6881C23.4717 27.6894 23.5521 27.8233 23.5521 28.0965V29.9016H24.1535V28.2026C24.3256 28.0627 24.5917 27.9498 24.7578 27.9498C24.8595 27.9498 24.9356 27.9807 24.9645 28.0101C25.0065 28.0541 25.028 28.0764 25.028 28.3047V29.9016H25.6446V28.123C25.6446 28.0167 25.6192 27.9112 25.5709 27.8173C25.4492 27.5868 25.1662 27.438 24.8504 27.438Z" fill="#AD1519"/>
</g>
<defs>
<clipPath id="clip0_2136_154">
<rect width="26" height="45" fill="white"/>
</clipPath>
</defs>
</svg>
